<svg width="101" height="101" viewBox="0 0 101 101" fill="none" xmlns="http://www.w3.org/2000/svg">
<g clip-path="url(#clip0_25_903)">
<path d="M44.5635 79.1756C44.0781 79.0455 43.5821 78.8971 43.1026 78.7453C27.5087 73.7129 18.9221 56.9311 23.9526 41.3445C28.8163 26.2645 44.6067 17.6685 59.8924 21.7643C75.1782 25.8601 60.8738 22.0428 61.3534 22.1946C68.9079 24.6303 75.0599 29.866 78.6724 36.9291C82.2922 43.9942 82.9391 52.0408 80.5033 59.5953C75.6396 74.6753 59.8493 83.2714 44.5635 79.1756Z" fill="#B9D2C4"/>
<path d="M59.4189 31.0948L59.4662 30.3388C59.4701 30.3243 59.4595 30.3059 59.445 30.302L58.0874 29.8917C58.0729 29.8878 58.0565 29.8912 58.0434 29.911L57.6596 30.5613C57.6334 30.6008 57.5986 30.6148 57.5479 30.6012L56.9235 30.4106C56.8655 30.3951 56.8515 30.3603 56.8816 30.3062L59.4281 26.2211C59.4543 26.1815 59.4891 26.1676 59.5398 26.1811L60.2927 26.4139C60.3434 26.4275 60.3666 26.457 60.3602 26.5097L60.1974 31.3189L60.1897 31.3479C60.178 31.3914 60.1524 31.4 60.1017 31.3864L59.47 31.1939C59.4193 31.1803 59.3961 31.1508 59.3952 31.0962L59.4189 31.0948ZM58.4099 29.3259C58.4171 29.3278 58.4224 29.337 58.435 29.3481L59.4612 29.6619C59.4685 29.6639 59.4757 29.6658 59.4921 29.6624C59.4994 29.6644 59.5105 29.6518 59.5071 29.6354L59.6384 27.349C59.6423 27.3345 59.637 27.3253 59.6225 27.3214C59.6152 27.3195 59.608 27.3175 59.5949 27.3373L58.4157 29.3041C58.4118 29.3186 58.4099 29.3259 58.4079 29.3331L58.4099 29.3259Z" fill="#4C4C4C"/>
<path d="M61.7985 32.1827C61.797 32.1591 61.7937 32.1426 61.814 32.1248L64.242 28.1632C64.2479 28.1415 64.2735 28.1328 64.2919 28.1222C64.3155 28.1208 64.332 28.1174 64.3498 28.1377L65.5635 28.8822C65.9434 29.116 66.1841 29.4057 66.2837 29.7585C66.3833 30.1113 66.3283 30.4615 66.1095 30.8144L65.0189 32.5953C64.8001 32.9482 64.5182 33.1599 64.1587 33.2267C63.7992 33.2934 63.4311 33.2181 63.0512 32.9843L61.8375 32.2398C61.8158 32.234 61.8071 32.2083 61.7965 32.19L61.7985 32.1827ZM62.8378 32.0419L63.4196 32.3919C63.5871 32.4912 63.7576 32.5213 63.9277 32.466C64.0978 32.4106 64.2473 32.2876 64.3832 32.0989L65.3785 30.471C65.5019 30.2711 65.5451 30.0808 65.5154 29.902C65.4857 29.7232 65.3844 29.5796 65.2115 29.4712L64.6318 29.114C64.61 29.1081 64.5955 29.1043 64.5825 29.1241L62.8277 31.9926C62.8219 32.0144 62.818 32.0289 62.8378 32.0419Z" fill="#4C4C4C"/>
<path d="M66.3881 35.4546L68.785 31.2906L68.8053 31.2728C68.8367 31.2424 68.8676 31.2429 68.9033 31.2835L69.3883 31.7629C69.4187 31.7943 69.4235 31.8344 69.4046 31.8759L67.5598 34.9067C67.5559 34.9212 67.552 34.9357 67.5501 34.943C67.5573 34.9449 67.5646 34.9469 67.5829 34.9362L70.5694 33.0344C70.6154 33.0079 70.6535 33.0103 70.6839 33.0418L71.1563 33.51C71.1993 33.5526 71.1968 33.5907 71.1417 33.6226L67.0125 36.0801C66.9685 36.0993 66.9303 36.0969 66.8927 36.0635L66.4005 35.5822C66.3628 35.5488 66.358 35.5087 66.3769 35.4672L66.3881 35.4546Z" fill="#4C4C4C"/>
<path d="M73.8853 38.4806C73.8636 38.4748 73.8418 38.469 73.8332 38.4434L72.8123 36.8343C72.8017 36.816 72.7872 36.8121 72.7689 36.8227L71.6747 37.5156C71.6564 37.5262 71.6525 37.5407 71.6631 37.5591L72.3189 38.5889C72.3295 38.6073 72.3309 38.631 72.3323 38.6546C72.3265 38.6764 72.3207 38.6981 72.2951 38.7068L71.8556 38.985C71.8372 38.9956 71.8135 38.997 71.7899 38.9985C71.7681 38.9926 71.7464 38.9868 71.7377 38.9612L71.0819 37.9314C71.0713 37.913 71.0568 37.9091 71.0385 37.9197L69.926 38.6233C69.9076 38.6339 69.9037 38.6484 69.9143 38.6667L70.9352 40.2758C70.9458 40.2941 70.9472 40.3178 70.9486 40.3415C70.9428 40.3632 70.937 40.385 70.9113 40.3936L70.4719 40.6719C70.4535 40.6825 70.4298 40.6839 70.4061 40.6853C70.3844 40.6795 70.3627 40.6737 70.354 40.648L68.9291 38.4027C68.9185 38.3844 68.9171 38.3607 68.9156 38.337C68.9215 38.3153 68.9273 38.2935 68.9529 38.2849L72.8715 35.802C72.8899 35.7914 72.9136 35.79 72.9373 35.7885C72.959 35.7944 72.9807 35.8002 72.9894 35.8258L74.4143 38.0711C74.4249 38.0895 74.4263 38.1132 74.4278 38.1368C74.4219 38.1586 74.4161 38.1803 74.3905 38.189L73.951 38.4672C73.9326 38.4778 73.909 38.4792 73.8853 38.4806Z" fill="#4C4C4C"/>
<path d="M71.2148 42.3617C71.2206 42.3399 71.239 42.3293 71.2646 42.3206L75.658 40.8191C75.6836 40.8104 75.6981 40.8143 75.7198 40.8201C75.7415 40.8259 75.7521 40.8443 75.7608 40.8699L75.9654 41.4683C75.9774 41.5103 75.975 41.5485 75.9363 41.5769L73.5947 43.9699C73.5763 43.9805 73.5743 43.9878 73.5869 43.9989C73.5922 44.0081 73.6086 44.0047 73.6231 44.0086L76.4263 43.0515C76.452 43.0428 76.4664 43.0467 76.4882 43.0525C76.5099 43.0584 76.5205 43.0767 76.5292 43.1024L76.7285 43.6915C76.7372 43.7171 76.7333 43.7316 76.7275 43.7534C76.7216 43.7751 76.7033 43.7857 76.6776 43.7944L72.2843 45.2959C72.2587 45.3046 72.2442 45.3007 72.2225 45.2949C72.2007 45.2891 72.1901 45.2707 72.1815 45.2451L71.9769 44.6467C71.9648 44.6047 71.9745 44.5685 72.006 44.5381L74.3568 42.1398C74.3752 42.1292 74.3771 42.1219 74.3646 42.1108C74.3593 42.1016 74.3428 42.105 74.3283 42.1011L71.514 43.0707C71.4884 43.0794 71.4739 43.0755 71.4521 43.0697C71.4304 43.0639 71.4198 43.0455 71.4111 43.0199L71.2118 42.4307C71.2032 42.4051 71.207 42.3906 71.2129 42.3689L71.2148 42.3617Z" fill="#4C4C4C"/>
<path d="M77.6194 49.6682C77.6063 49.688 77.5879 49.6986 77.5643 49.7L77.0395 49.7458C77.0159 49.7472 76.9961 49.7341 76.9816 49.7303C76.9618 49.7172 76.9512 49.6988 76.9498 49.6751L76.853 48.6165C76.8515 48.5928 76.839 48.5817 76.8153 48.5831L72.834 48.9528C72.8103 48.9542 72.7905 48.9411 72.776 48.9373C72.7562 48.9242 72.7456 48.9058 72.7442 48.8821L72.6875 48.2535C72.686 48.2299 72.6991 48.2101 72.703 48.1956C72.7161 48.1758 72.7344 48.1652 72.7581 48.1638L76.7394 47.7941C76.7631 47.7927 76.7742 47.7801 76.7728 47.7565L76.6808 46.7379C76.6794 46.7143 76.6924 46.6945 76.6963 46.68C76.7094 46.6602 76.7278 46.6496 76.7514 46.6482L77.2762 46.6024C77.2998 46.601 77.3196 46.6141 77.3341 46.6179C77.3539 46.631 77.3645 46.6494 77.3659 46.6731L77.6421 49.6122C77.6436 49.6359 77.6305 49.6557 77.6266 49.6702L77.6194 49.6682Z" fill="#4C4C4C"/>
<path d="M72.8383 52.5878C72.9946 52.3812 73.1919 52.2244 73.4336 52.1339C73.6753 52.0433 73.9468 52.0152 74.239 52.0546L77.4913 52.5223C77.5131 52.5282 77.5348 52.534 77.5454 52.5523C77.556 52.5707 77.5666 52.5891 77.5608 52.6108L77.4702 53.2388C77.4643 53.2605 77.4585 53.2822 77.4402 53.2928C77.4218 53.3034 77.4034 53.3141 77.3817 53.3082L74.0912 52.8381C73.8661 52.8088 73.6709 52.8419 73.5089 52.9538C73.347 53.0657 73.2569 53.2279 73.2243 53.4366C73.1917 53.6453 73.2431 53.8299 73.3642 53.9866C73.4872 54.136 73.6639 54.2299 73.889 54.2592L77.1795 54.7293C77.2012 54.7351 77.2229 54.741 77.2336 54.7593C77.2442 54.7777 77.2548 54.7961 77.2489 54.8178L77.1583 55.4458C77.1525 55.4675 77.1467 55.4892 77.1283 55.4998C77.1099 55.5104 77.0916 55.521 77.0698 55.5152L73.8176 55.0475C73.5253 55.0081 73.2742 54.902 73.0657 54.7529C72.8591 54.5966 72.7115 54.394 72.621 54.1523C72.5305 53.9107 72.5115 53.6338 72.5529 53.3343C72.5924 53.0421 72.6985 52.791 72.8495 52.5752L72.8383 52.5878Z" fill="#4C4C4C"/>
<path d="M71.1275 58.7993L73.2392 58.8293C73.2609 58.8352 73.272 58.8226 73.2759 58.8081L73.4906 58.2678C73.4964 58.246 73.5003 58.2316 73.4713 58.2238L71.6532 57.5037C71.6315 57.4979 71.6136 57.4776 71.6103 57.4611C71.5997 57.4428 71.5982 57.4191 71.6113 57.3993L71.8468 56.8102C71.8526 56.7884 71.8729 56.7706 71.8894 56.7672C71.9077 56.7566 71.9314 56.7552 71.9512 56.7683L76.2779 58.4711C76.2996 58.4769 76.3103 58.4953 76.3209 58.5137C76.3315 58.5321 76.3329 58.5557 76.3198 58.5755L75.7383 60.0503C75.6414 60.2961 75.5054 60.4848 75.3192 60.629C75.1331 60.7733 74.9243 60.8571 74.6856 60.8785C74.4469 60.9 74.2001 60.8649 73.947 60.766C73.6669 60.6522 73.4531 60.4939 73.2983 60.2894C73.1507 60.0868 73.0746 59.849 73.0735 59.5925C73.0793 59.5707 73.0595 59.5577 73.0359 59.5591L70.8507 59.5714C70.8435 59.5695 70.829 59.5656 70.8072 59.5598C70.771 59.5501 70.7643 59.5172 70.7832 59.4757L71.0245 58.8649C71.0381 58.8141 71.0748 58.7929 71.1275 58.7993ZM75.3835 58.9691L74.1131 58.4656C74.0913 58.4598 74.0768 58.4559 74.0691 58.4849L73.803 59.159C73.7328 59.3343 73.7335 59.5053 73.8073 59.6648C73.881 59.8244 74.021 59.9395 74.2252 60.0175C74.4295 60.0956 74.6131 60.1059 74.7851 60.0433C74.9499 59.9788 75.0738 59.8644 75.1387 59.68L75.4048 59.0059C75.4106 58.9841 75.4145 58.9696 75.3855 58.9619L75.3835 58.9691Z" fill="#4C4C4C"/>
<path d="M71.7182 65.7514C71.7168 65.7277 71.7226 65.706 71.7337 65.6934L72.8226 64.1217C72.8357 64.1019 72.8323 64.0855 72.8125 64.0724L71.7515 63.3378C71.7317 63.3247 71.7153 63.3281 71.7022 63.3478L71.0048 64.3567C70.9918 64.3765 70.9734 64.3871 70.9497 64.3885C70.9261 64.39 70.9043 64.3841 70.8918 64.373L70.4583 64.0783C70.4366 64.0725 70.4279 64.0468 70.4265 64.0232C70.425 63.9995 70.4309 63.9778 70.442 63.9652L71.1394 62.9563C71.1524 62.9365 71.1491 62.9201 71.1293 62.907L70.0412 62.1574C70.0214 62.1443 70.005 62.1477 69.9919 62.1675L68.9031 63.7392C68.89 63.759 68.8716 63.7696 68.8479 63.771C68.8243 63.7724 68.8025 63.7666 68.79 63.7555L68.3565 63.4608C68.3367 63.4477 68.3261 63.4293 68.3247 63.4056C68.3233 63.382 68.3291 63.3602 68.3402 63.3477L69.8506 61.159C69.8637 61.1392 69.8821 61.1286 69.9057 61.1272C69.9294 61.1258 69.9512 61.1316 69.9637 61.1427L73.7835 63.7813C73.8033 63.7943 73.8139 63.8127 73.8153 63.8364C73.8167 63.8601 73.8109 63.8818 73.7997 63.8943L72.2893 66.083C72.2763 66.1028 72.2579 66.1134 72.2342 66.1148C72.2105 66.1162 72.1888 66.1104 72.1763 66.0993L71.7428 65.8045C71.723 65.7915 71.7124 65.7731 71.7109 65.7494L71.7182 65.7514Z" fill="#4C4C4C"/>
<path d="M41.3156 84.2842C22.6711 78.2635 12.395 58.195 18.4085 39.5486C24.4312 20.8968 44.5049 10.6299 63.1441 16.6414L62.7931 17.7198C44.7493 11.8912 25.3122 21.8394 19.4888 39.8924C13.6655 57.9453 23.6084 77.3732 41.6614 83.1966L41.3103 84.275L41.3156 84.2842Z" fill="#4C4C4C"/>
<path d="M41.8792 80.7221L39.876 86.9241L40.9537 87.2722L42.9569 81.0701L41.8792 80.7221Z" fill="#4C4C4C"/>
<path d="M63.6199 13.3822L61.6167 19.5842L62.6944 19.9323L64.6976 13.7303L63.6199 13.3822Z" fill="#4C4C4C"/>
<path d="M28.5923 82.6765L28.2443 83.7542L52.2458 91.5065L52.5939 90.4288L28.5923 82.6765Z" fill="#4C4C4C"/>
<path d="M53.0632 61.5372C52.9691 61.512 52.8749 61.4868 52.7846 61.447C51.1703 60.8359 51.3883 59.124 51.5571 57.7405C51.6175 57.2831 51.6746 56.8092 51.6708 56.3889C51.6727 55.1937 50.8169 54.1569 50.0682 53.2419C49.922 53.063 49.7758 52.884 49.6442 52.709C48.9052 51.7578 48.063 50.2355 47.148 48.1734C46.3998 46.4743 46.7941 44.7709 48.3338 43.1103C48.6062 42.8183 48.8398 42.5548 49.0493 42.3237C50.712 40.4942 50.9238 40.3413 52.9462 41.0229C53.1742 41.0995 53.4311 41.1839 53.7315 41.2799C54.5114 41.5277 55.0395 41.4984 55.5604 41.4672C56.4436 41.4165 57.2722 41.3668 58.6084 42.61C59.3231 43.2751 59.4687 44.3546 59.6129 45.4104C59.7168 46.1526 59.8149 46.9165 60.1089 47.5C60.3114 47.9036 60.7573 48.3259 61.221 48.7685C62.0428 49.5555 62.9775 50.4427 63.0601 51.6994C63.1764 53.4388 62.5064 54.983 61.9725 56.222C61.8872 56.4243 61.8039 56.6194 61.7245 56.8C61.1096 58.3124 59.9144 59.4985 58.0682 60.448C56.6184 61.1932 54.6116 61.9599 53.0541 61.5425L53.0632 61.5372ZM51.8027 41.8424C51.5419 41.7725 51.3748 41.7588 51.2559 41.7968C50.9813 41.8941 50.5755 42.3366 49.9026 43.0803C49.6931 43.3114 49.4522 43.573 49.1779 43.8722C47.955 45.1906 47.6337 46.4478 48.1964 47.7089C49.0729 49.683 49.8654 51.1299 50.5475 52.0038C50.6738 52.1696 50.8147 52.3394 50.9628 52.511C51.7935 53.5256 52.824 54.7801 52.8226 56.3792C52.8234 56.8686 52.7566 57.3787 52.6956 57.867C52.5103 59.3703 52.4978 60.1123 53.1975 60.3697C54.1213 60.7182 55.7136 60.3684 57.567 59.4208C59.1598 58.6052 60.1809 57.6054 60.6858 56.3586C60.7599 56.1689 60.8525 55.9685 60.9397 55.7589C61.428 54.6319 62.0302 53.2248 61.9349 51.7551C61.8812 50.9409 61.1506 50.2482 60.4471 49.5705C59.91 49.0539 59.396 48.5668 59.102 47.9833C58.729 47.2312 58.6107 46.3687 58.4919 45.5371C58.3721 44.6509 58.2572 43.8048 57.8398 43.4212C56.8563 42.5132 56.3992 42.5383 55.6271 42.5799C55.0662 42.6159 54.3651 42.6532 53.3915 42.3458C53.0912 42.2498 52.827 42.1634 52.5918 42.0849C52.2572 41.9719 52.0002 41.8876 51.7974 41.8332L51.8027 41.8424Z" fill="#4C4C4C"/>
<path d="M26.0775 64.1595C23.9476 63.5888 22.1615 62.3726 22.0447 62.2869L22.6918 61.35C22.7313 61.3761 26.7119 64.081 29.4137 63.0967C30.6109 62.6566 31.2634 61.6124 31.8864 60.5914C32.6682 59.3256 33.5583 57.8869 35.5388 58.1458C37.3922 58.3862 38.6185 57.0843 39.279 54.1554C39.6268 52.6258 38.3764 49.0918 37.661 48.1392C37.2891 47.6435 37.1624 46.9573 37.3058 46.2193C37.5611 44.8901 38.6221 43.5671 40.2195 42.5897C41.3334 41.9099 42.7008 39.7916 43.1524 37.063C43.4074 35.5318 43.5384 32.6086 41.5643 30.2395C38.0923 26.0713 30.1237 28.1368 30.0488 28.1555L29.7525 27.059C29.8438 27.0369 31.9417 26.4809 34.5486 26.4884C38.0725 26.4931 40.7965 27.5413 42.4353 29.51C44.1078 31.5266 44.7621 34.272 44.2682 37.2455C43.8107 39.9958 42.3935 42.5899 40.8073 43.5547C38.9324 44.6985 38.513 45.9449 38.423 46.4255C38.3414 46.8462 38.397 47.2182 38.5677 47.4503C39.3453 48.4895 40.8387 52.3915 40.3865 54.3978C39.588 57.9574 37.9068 59.5956 35.3945 59.2641C34.1946 59.1056 33.6763 59.8519 32.8553 61.1771C32.1578 62.3024 31.3741 63.5755 29.8072 64.1495C28.6264 64.5862 27.2984 64.4711 26.0814 64.145L26.0775 64.1595Z" fill="#4C4C4C"/>
<path d="M33.3305 76.2979L32.4937 75.5379C32.9997 74.9825 37.5333 70.1176 40.527 70.7101C43.0183 71.2068 46.305 70.387 47.8547 68.8922C49.384 67.4152 53.4581 63.4832 57.1708 65.1302C60.6633 66.6717 61.4106 70.3737 60.3392 73.0682C60.0543 73.7839 60.0174 74.3563 60.2304 74.7783C60.4806 75.2647 61.0893 75.6297 62.0857 75.8811C63.0801 76.1398 63.8972 76.8867 64.2086 77.8398C64.5374 78.8441 64.2805 79.9477 63.5097 80.8826L62.6323 80.1583C63.1597 79.5232 63.3315 78.8238 63.1294 78.1873C62.9373 77.6001 62.4248 77.1367 61.8071 76.9789C60.4702 76.6362 59.6225 76.0907 59.223 75.2926C58.8494 74.5714 58.8717 73.6767 59.2875 72.6467C60.0168 70.8233 59.9293 67.5853 56.7149 66.165C53.6956 64.828 50.0283 68.3721 48.645 69.7096C46.8235 71.4655 43.1584 72.3935 40.3063 71.8234C38.3009 71.4258 34.5926 74.9201 33.3378 76.2999L33.3305 76.2979Z" fill="#4C4C4C"/>
<path d="M43.8322 81.8759C43.3033 81.7342 42.7711 81.576 42.2428 81.4034C33.9735 78.7373 27.2477 73.0063 23.2862 65.275C19.3247 57.5438 18.6178 48.7357 21.2839 40.4665C26.7959 23.4016 45.1521 14.01 62.2208 19.5076C70.4901 22.1736 77.2159 27.9047 81.1774 35.636C85.1389 43.3672 85.8458 52.1753 83.1797 60.4445C77.8423 76.9738 60.4311 86.3158 43.8341 81.8686L43.8322 81.8759ZM60.32 20.1396C52.8002 18.1247 44.9143 18.9545 37.9319 22.5265C30.4723 26.3434 24.9415 32.8434 22.3695 40.8195C19.7975 48.7956 20.4767 57.3012 24.3009 64.7627C28.1177 72.2222 34.6177 77.753 42.5938 80.325C59.0671 85.6397 76.7867 76.5667 82.0994 60.1007C84.6714 52.1246 83.9922 43.619 80.1681 36.1575C76.3512 28.6979 69.8512 23.1671 61.8751 20.5951C61.3612 20.4264 60.8416 20.2794 60.32 20.1396Z" fill="#4C4C4C"/>
</g>
<defs>
<clipPath id="clip0_25_903">
<rect width="81" height="81" fill="white" transform="translate(21.8622 0.897949) rotate(15)"/>
</clipPath>
</defs>
</svg>
