<svg width="136" height="229" viewBox="0 0 136 229" fill="none" xmlns="http://www.w3.org/2000/svg">
<path d="M117.858 226.551C117.692 226.551 117.527 226.496 117.362 226.386C116.977 226.111 116.894 225.588 117.169 225.203C117.5 224.735 117.802 224.295 118.133 223.828C118.408 223.442 118.931 223.332 119.317 223.607C119.702 223.883 119.812 224.405 119.537 224.79C119.207 225.258 118.876 225.726 118.546 226.194C118.381 226.414 118.133 226.551 117.858 226.551ZM121.079 221.571C120.941 221.571 120.776 221.544 120.638 221.461C120.225 221.214 120.115 220.691 120.335 220.306C120.611 219.811 120.886 219.343 121.161 218.848C121.381 218.435 121.905 218.297 122.317 218.517C122.73 218.738 122.868 219.26 122.648 219.673C122.373 220.168 122.07 220.663 121.794 221.159C121.629 221.434 121.354 221.571 121.051 221.571H121.079ZM123.887 216.344C123.777 216.344 123.639 216.344 123.529 216.261C123.116 216.069 122.923 215.546 123.143 215.133C123.391 214.638 123.611 214.115 123.859 213.62C124.052 213.207 124.547 213.015 124.988 213.207C125.401 213.4 125.594 213.895 125.401 214.335C125.153 214.858 124.933 215.381 124.685 215.904C124.547 216.206 124.245 216.371 123.914 216.371L123.887 216.344ZM126.254 210.896C126.144 210.896 126.062 210.896 125.951 210.841C125.511 210.676 125.291 210.181 125.456 209.741C125.649 209.218 125.841 208.695 126.034 208.172C126.199 207.732 126.667 207.512 127.108 207.65C127.548 207.815 127.768 208.282 127.631 208.723C127.438 209.273 127.245 209.796 127.025 210.318C126.888 210.649 126.585 210.869 126.227 210.869L126.254 210.896ZM128.154 205.284C128.071 205.284 127.989 205.284 127.906 205.256C127.466 205.118 127.19 204.651 127.328 204.21C127.493 203.688 127.631 203.137 127.796 202.587C127.906 202.147 128.374 201.872 128.842 201.982C129.283 202.092 129.558 202.56 129.448 203.027C129.31 203.578 129.145 204.128 128.98 204.678C128.87 205.036 128.539 205.284 128.154 205.284ZM129.613 199.506C129.558 199.506 129.503 199.506 129.448 199.506C128.98 199.396 128.705 198.955 128.787 198.515C128.897 197.965 129.007 197.415 129.117 196.864C129.2 196.397 129.641 196.094 130.109 196.177C130.577 196.259 130.879 196.699 130.797 197.167C130.687 197.717 130.577 198.295 130.466 198.845C130.384 199.231 130.026 199.506 129.641 199.506H129.613ZM130.604 193.673C130.577 193.673 130.522 193.673 130.494 193.673C130.026 193.618 129.696 193.178 129.751 192.737C129.833 192.187 129.888 191.637 129.943 191.059C129.998 190.591 130.411 190.261 130.879 190.316C131.347 190.371 131.678 190.784 131.623 191.252C131.568 191.829 131.485 192.38 131.43 192.958C131.375 193.398 131.017 193.7 130.577 193.7L130.604 193.673ZM131.127 187.758C131.127 187.758 131.1 187.758 131.072 187.758C130.604 187.758 130.246 187.345 130.274 186.877C130.274 186.327 130.329 185.749 130.329 185.199C130.329 184.731 130.769 184.373 131.21 184.373C131.678 184.373 132.036 184.786 132.036 185.254C132.036 185.832 132.008 186.409 131.981 186.96C131.981 187.4 131.595 187.758 131.127 187.758ZM131.182 181.815C130.714 181.815 130.356 181.457 130.329 180.989C130.329 180.439 130.274 179.861 130.246 179.311C130.246 178.843 130.577 178.43 131.045 178.43C131.513 178.43 131.926 178.761 131.926 179.228C131.953 179.806 131.981 180.384 132.008 180.934C132.008 181.402 131.65 181.787 131.182 181.815ZM130.742 175.899C130.329 175.899 129.943 175.569 129.888 175.156C129.833 174.606 129.751 174.056 129.668 173.506C129.613 173.038 129.916 172.625 130.384 172.543C130.852 172.488 131.265 172.79 131.347 173.258C131.43 173.836 131.485 174.386 131.568 174.964C131.623 175.432 131.292 175.844 130.824 175.899C130.797 175.899 130.769 175.899 130.714 175.899H130.742ZM129.806 170.039C129.42 170.039 129.062 169.764 128.98 169.351C128.87 168.801 128.76 168.251 128.622 167.728C128.512 167.26 128.815 166.82 129.255 166.71C129.723 166.6 130.164 166.902 130.274 167.343C130.411 167.893 130.522 168.471 130.632 169.021C130.714 169.489 130.411 169.929 129.971 170.011C129.916 170.011 129.861 170.011 129.806 170.011V170.039ZM128.402 164.289C128.044 164.289 127.686 164.041 127.576 163.683C127.411 163.161 127.245 162.61 127.08 162.088C126.943 161.647 127.19 161.152 127.631 161.015C128.071 160.877 128.567 161.125 128.705 161.565C128.87 162.115 129.035 162.665 129.2 163.216C129.338 163.656 129.062 164.124 128.622 164.261C128.539 164.261 128.457 164.289 128.374 164.289H128.402ZM126.475 158.648C126.144 158.648 125.814 158.456 125.676 158.098C125.483 157.575 125.263 157.053 125.043 156.557C124.878 156.117 125.043 155.622 125.511 155.457C125.951 155.292 126.447 155.457 126.612 155.925C126.832 156.447 127.053 156.97 127.245 157.52C127.411 157.961 127.19 158.456 126.75 158.621C126.64 158.648 126.557 158.676 126.447 158.676L126.475 158.648ZM124.134 153.228C123.832 153.228 123.529 153.063 123.364 152.761C123.116 152.265 122.868 151.743 122.62 151.247C122.4 150.835 122.565 150.312 123.006 150.119C123.419 149.899 123.942 150.064 124.134 150.504C124.382 151 124.658 151.522 124.905 152.045C125.098 152.458 124.905 152.981 124.52 153.173C124.41 153.228 124.272 153.256 124.162 153.256L124.134 153.228ZM121.354 147.973C121.051 147.973 120.776 147.808 120.611 147.561C120.335 147.065 120.06 146.598 119.757 146.102C119.509 145.69 119.647 145.167 120.06 144.947C120.473 144.699 120.996 144.837 121.216 145.249C121.519 145.745 121.794 146.24 122.097 146.735C122.317 147.148 122.18 147.671 121.794 147.891C121.657 147.973 121.519 148.001 121.381 148.001L121.354 147.973ZM118.243 142.911C117.968 142.911 117.692 142.773 117.527 142.526C117.224 142.058 116.894 141.59 116.591 141.122C116.316 140.737 116.426 140.214 116.811 139.939C117.197 139.664 117.72 139.774 117.995 140.159C118.326 140.627 118.656 141.095 118.959 141.563C119.207 141.948 119.124 142.471 118.711 142.746C118.573 142.828 118.408 142.883 118.243 142.883V142.911ZM114.774 138.096C114.526 138.096 114.251 137.986 114.086 137.766C113.756 137.326 113.398 136.885 113.067 136.445C112.792 136.087 112.847 135.537 113.205 135.262C113.563 134.959 114.113 135.042 114.389 135.4C114.747 135.84 115.077 136.308 115.435 136.748C115.71 137.133 115.655 137.656 115.27 137.931C115.105 138.041 114.939 138.096 114.747 138.096H114.774ZM111.058 133.474C110.81 133.474 110.59 133.364 110.424 133.171C110.066 132.731 109.681 132.318 109.323 131.905C109.02 131.548 109.048 131.025 109.406 130.722C109.764 130.42 110.287 130.447 110.59 130.805C110.975 131.245 111.333 131.658 111.718 132.098C112.021 132.456 111.966 132.978 111.608 133.281C111.443 133.419 111.25 133.474 111.058 133.474ZM107.093 129.044C106.873 129.044 106.653 128.962 106.488 128.769C106.102 128.356 105.717 127.944 105.331 127.558C105.001 127.228 105.028 126.678 105.331 126.348C105.662 126.018 106.212 126.045 106.543 126.348C106.928 126.76 107.341 127.173 107.726 127.586C108.057 127.916 108.029 128.466 107.699 128.796C107.534 128.962 107.313 129.017 107.121 129.017L107.093 129.044ZM102.936 124.807C102.716 124.807 102.523 124.724 102.358 124.559C101.945 124.174 101.56 123.789 101.147 123.376C100.816 123.046 100.789 122.523 101.119 122.166C101.449 121.836 101.973 121.808 102.33 122.138C102.743 122.523 103.156 122.936 103.569 123.321C103.9 123.651 103.9 124.174 103.569 124.532C103.404 124.697 103.184 124.779 102.964 124.779L102.936 124.807ZM98.6138 120.735C98.4211 120.735 98.2009 120.652 98.0357 120.515C97.6227 120.13 97.2098 119.772 96.7693 119.387C96.4114 119.084 96.3839 118.534 96.6867 118.204C96.9895 117.846 97.5401 117.819 97.8705 118.121C98.2835 118.506 98.724 118.864 99.1369 119.249C99.4948 119.552 99.5223 120.102 99.192 120.432C99.0268 120.625 98.8065 120.707 98.5588 120.707L98.6138 120.735ZM94.1264 116.828C93.9337 116.828 93.741 116.773 93.5758 116.636C93.1353 116.278 92.7223 115.92 92.2819 115.562C91.924 115.26 91.8689 114.737 92.1717 114.379C92.4746 114.022 92.9976 113.967 93.3555 114.269C93.796 114.627 94.2365 114.985 94.677 115.37C95.0349 115.673 95.0899 116.195 94.7871 116.553C94.6219 116.746 94.3742 116.856 94.1264 116.856V116.828ZM89.5288 113.086C89.3361 113.086 89.1709 113.031 89.0057 112.894L87.6843 111.848C87.3264 111.573 87.2438 111.023 87.5466 110.665C87.8219 110.307 88.3725 110.225 88.7304 110.528L90.0794 111.573C90.4373 111.876 90.5199 112.398 90.2171 112.756C90.0519 112.976 89.8041 113.086 89.5563 113.086H89.5288ZM84.8211 109.455C84.6559 109.455 84.4632 109.4 84.3256 109.289L82.9766 108.271C82.5912 107.996 82.5361 107.474 82.8114 107.088C83.0867 106.703 83.6098 106.648 83.9952 106.923L85.3442 107.941C85.7296 108.216 85.7847 108.767 85.5094 109.124C85.3442 109.344 85.0964 109.455 84.8211 109.455ZM80.0584 105.933C79.8932 105.933 79.7005 105.878 79.5628 105.768L78.1863 104.777C77.8009 104.502 77.7183 103.979 77.9936 103.594C78.2689 103.209 78.792 103.126 79.1774 103.402L80.5539 104.392C80.9393 104.667 81.0219 105.19 80.7466 105.575C80.5814 105.795 80.3337 105.933 80.0584 105.933ZM75.213 102.494C75.0478 102.494 74.8827 102.439 74.7175 102.329L73.341 101.366C72.9555 101.09 72.8729 100.568 73.1483 100.183C73.4236 99.7973 73.9466 99.7148 74.3321 99.9899L75.7086 100.98C76.094 101.256 76.1766 101.778 75.9013 102.163C75.7361 102.411 75.4608 102.521 75.213 102.521V102.494ZM70.3402 99.082C70.175 99.082 70.0098 99.027 69.8446 98.9169L68.4406 97.954C68.0551 97.6788 67.9725 97.1561 68.2203 96.7709C68.4956 96.3857 69.0187 96.2756 69.4041 96.5508L70.8082 97.5137C71.1936 97.7889 71.2762 98.3116 71.0284 98.6968C70.8632 98.9444 70.5879 99.0545 70.3402 99.0545V99.082ZM65.4673 95.6979C65.3021 95.6979 65.1369 95.6428 64.9993 95.5603L63.5952 94.5973C63.2098 94.3222 63.1272 93.7994 63.375 93.4143C63.6503 93.0291 64.1734 92.919 64.5588 93.1941L65.9628 94.1571C66.3483 94.4322 66.4584 94.955 66.1831 95.3402C66.0179 95.5878 65.7426 95.6979 65.4948 95.6979H65.4673ZM60.5944 92.3137C60.4292 92.3137 60.264 92.2587 60.0989 92.1486L58.6948 91.1857C58.3094 90.9105 58.2268 90.3878 58.4746 90.0026C58.7499 89.6174 59.2729 89.5349 59.6584 89.7825L61.0349 90.7455C61.4203 91.0206 61.5029 91.5434 61.2551 91.9285C61.0899 92.1762 60.8146 92.2862 60.5669 92.2862L60.5944 92.3137ZM55.7215 88.9021C55.5563 88.9021 55.3912 88.847 55.226 88.737L53.8495 87.7465C53.464 87.4714 53.3814 86.9486 53.6567 86.5634C53.9321 86.1782 54.4551 86.0957 54.8406 86.3708L56.2171 87.3613C56.6025 87.6365 56.6851 88.1592 56.4098 88.5444C56.2446 88.7645 55.9693 88.9021 55.7215 88.9021ZM50.9037 85.4354C50.7385 85.4354 50.5458 85.3804 50.4082 85.2703C49.9402 84.9401 49.4997 84.61 49.0317 84.2523C48.6462 83.9772 48.5636 83.4544 48.8665 83.0692C49.1418 82.684 49.6648 82.6015 50.0503 82.9042C50.4908 83.2343 50.9588 83.5645 51.4268 83.8946C51.8122 84.1698 51.8948 84.6925 51.6195 85.0777C51.4543 85.2978 51.2065 85.4354 50.9312 85.4354H50.9037ZM46.141 81.8862C45.9482 81.8862 45.7831 81.8311 45.6179 81.7211C45.1774 81.3634 44.7094 81.0332 44.2689 80.6756C43.911 80.4004 43.8284 79.8502 44.1037 79.4925C44.379 79.1348 44.9296 79.0523 45.2875 79.3274C45.728 79.6851 46.1685 80.0153 46.6365 80.3454C47.0219 80.6205 47.077 81.1708 46.8017 81.5285C46.6365 81.7486 46.3887 81.8586 46.1134 81.8586L46.141 81.8862ZM41.4883 78.2269C41.2956 78.2269 41.1029 78.1719 40.9653 78.0343C40.5248 77.6766 40.0843 77.3189 39.6438 76.9613C39.2859 76.6586 39.2308 76.1359 39.5337 75.7782C39.8365 75.4205 40.3596 75.3655 40.7175 75.6681C41.158 76.0258 41.5984 76.3835 42.0389 76.7412C42.3968 77.0438 42.4519 77.5666 42.1766 77.9242C42.0114 78.1443 41.7636 78.2269 41.5159 78.2269H41.4883ZM36.8908 74.43C36.698 74.43 36.5053 74.375 36.3401 74.2099C35.8997 73.8247 35.4867 73.4671 35.0462 73.0819C34.6883 72.7792 34.6608 72.229 34.9912 71.8713C35.294 71.5136 35.8446 71.4861 36.2025 71.8163C36.6155 72.2015 37.0284 72.5591 37.4689 72.9168C37.8268 73.2195 37.8543 73.7697 37.5515 74.0999C37.3863 74.2925 37.1385 74.4025 36.9183 74.4025L36.8908 74.43ZM32.596 70.3306C32.3758 70.3306 32.128 70.248 31.9628 70.0554C31.5774 69.6152 31.192 69.2025 30.8065 68.7348C30.5037 68.3771 30.5588 67.8544 30.9167 67.5517C31.2746 67.2491 31.7976 67.3041 32.1005 67.6618C32.4584 68.0745 32.8163 68.4872 33.2017 68.8999C33.532 69.2575 33.5045 69.7803 33.1466 70.1104C32.9814 70.248 32.7887 70.3306 32.5685 70.3306H32.596ZM29.0446 65.5983C28.7418 65.5983 28.4665 65.4607 28.3013 65.1856C28.2462 65.0755 28.1636 64.9654 28.1086 64.8554C27.8883 64.4427 27.6681 64.03 27.4754 63.6173C27.2827 63.2046 27.4754 62.6818 27.8883 62.4893C28.3288 62.2967 28.8244 62.4893 29.0171 62.902C29.2098 63.2871 29.4025 63.6723 29.5952 64.03L29.7604 64.3326C30.0082 64.7453 29.8705 65.2681 29.4576 65.4882C29.3199 65.5707 29.1823 65.5983 29.0446 65.5983ZM26.9523 60.0681C26.5669 60.0681 26.209 59.7929 26.1264 59.3802C26.0163 58.8025 25.9337 58.1972 25.8786 57.6194C25.8235 57.1517 26.1814 56.739 26.6495 56.7114C27.1175 56.6839 27.5304 57.0141 27.558 57.4818C27.613 58.0046 27.6956 58.5273 27.7782 59.0776C27.8608 59.5453 27.5855 59.9855 27.1175 60.0681C27.0624 60.0681 27.0074 60.0681 26.9523 60.0681ZM37.4414 54.5929C37.3863 54.5929 37.3312 54.5929 37.2487 54.5929C36.698 54.4829 36.1199 54.2903 35.5142 54.0977C35.0738 53.9326 34.8535 53.4649 34.9912 53.0247C35.1563 52.5844 35.6244 52.3643 36.0648 52.5019C36.6155 52.6945 37.111 52.8596 37.579 52.9421C38.047 53.0522 38.3223 53.4924 38.2122 53.9601C38.1296 54.3453 37.7717 54.6204 37.3863 54.6204L37.4414 54.5929ZM26.9523 54.1802C26.8972 54.1802 26.8146 54.1802 26.7596 54.1802C26.2916 54.0702 26.0163 53.6299 26.1264 53.1622C26.264 52.5569 26.4292 51.9791 26.6495 51.4289C26.8146 50.9887 27.3102 50.7686 27.7507 50.9336C28.1912 51.0987 28.4114 51.594 28.2462 52.0342C28.0535 52.5294 27.9159 53.0247 27.7782 53.5474C27.6956 53.9326 27.3377 54.2077 26.9523 54.2077V54.1802ZM41.5159 54.0426C41.2681 54.0426 41.0203 53.9326 40.8276 53.7125C40.5523 53.3273 40.6074 52.8045 40.9928 52.5294C41.0478 52.5019 41.0754 52.4469 41.1304 52.4194C41.4057 52.1717 41.5984 51.8966 41.7086 51.5664C41.8738 51.1262 42.3693 50.9061 42.8098 51.0712C43.2503 51.2363 43.4705 51.7315 43.3053 52.1717C43.0851 52.7495 42.7272 53.2723 42.2592 53.7125C42.1766 53.7675 42.094 53.8501 42.0389 53.9051C41.8738 54.0151 41.7086 54.0702 41.5159 54.0702V54.0426ZM31.9078 52.4469C31.7701 52.4469 31.66 52.4469 31.5499 52.3643C31.0268 52.1167 30.5037 51.8416 30.0082 51.5664C29.5952 51.3463 29.43 50.8236 29.6778 50.4109C29.898 49.9982 30.4211 49.8331 30.8341 50.0807C31.3296 50.3559 31.8252 50.6035 32.3207 50.8511C32.7337 51.0437 32.9264 51.5664 32.7061 51.9791C32.5685 52.2818 32.2657 52.4469 31.9353 52.4469H31.9078ZM26.7596 49.4754C26.5944 49.4754 26.4292 49.4204 26.2916 49.3379C25.8235 49.0077 25.3555 48.6775 24.8875 48.3474C24.5021 48.0723 24.4195 47.5495 24.7223 47.1643C24.9976 46.7791 25.5207 46.6966 25.9061 46.9992C26.3466 47.3294 26.8146 47.6595 27.2551 47.9622C27.6406 48.2373 27.7507 48.7601 27.4754 49.1453C27.3102 49.3929 27.0349 49.5029 26.7596 49.5029V49.4754ZM29.7604 49.0627C29.5401 49.0627 29.3199 48.9802 29.1547 48.8151C28.8244 48.485 28.8244 47.9347 29.1547 47.6045C29.5952 47.1918 30.0632 46.7791 30.5588 46.4215C30.9442 46.1463 31.4673 46.2289 31.7426 46.614C32.0179 46.9992 31.9353 47.522 31.5499 47.7971C31.1369 48.0998 30.724 48.4299 30.3661 48.7876C30.2009 48.9527 29.9806 49.0352 29.7604 49.0352V49.0627ZM41.7361 48.7051C41.4608 48.7051 41.213 48.5675 41.0478 48.3474C40.7725 47.9347 40.4422 47.577 40.0567 47.2744C39.6989 46.9717 39.6438 46.449 39.9466 46.0913C40.2495 45.7336 40.7725 45.6786 41.1304 45.9812C41.626 46.3939 42.0665 46.8617 42.4519 47.3844C42.7272 47.7696 42.6171 48.2924 42.2316 48.5675C42.094 48.6775 41.9288 48.7326 41.7361 48.7326V48.7051ZM34.9361 46.2839C34.5231 46.2839 34.1928 46.0088 34.1102 45.5961C34.0276 45.1283 34.3304 44.6881 34.7984 44.6056C35.3766 44.4955 35.9272 44.4405 36.5053 44.4405H36.6705C37.1385 44.4405 37.524 44.8257 37.4964 45.2934C37.4964 45.7611 37.0835 46.1188 36.643 46.1188H36.5053C36.0648 46.1188 35.5968 46.1738 35.1288 46.2564C35.0737 46.2564 35.0187 46.2564 34.9636 46.2564L34.9361 46.2839ZM22.1069 45.8162C21.9142 45.8162 21.694 45.7336 21.5288 45.5961C21.0883 45.2109 20.6754 44.8257 20.2624 44.413C19.932 44.0828 19.932 43.5601 20.2624 43.2024C20.5928 42.8722 21.1159 42.8722 21.4738 43.2024C21.8592 43.5876 22.2721 43.9728 22.6851 44.3304C23.043 44.6331 23.0705 45.1834 22.7401 45.541C22.575 45.7336 22.3547 45.8162 22.1069 45.8162ZM17.9774 41.5516C17.7296 41.5516 17.4818 41.4415 17.3167 41.2489C16.9588 40.8087 16.5733 40.3685 16.243 39.9008C15.9677 39.5431 16.0227 38.9928 16.4082 38.7177C16.7661 38.4426 17.3167 38.4976 17.592 38.8828C17.9223 39.323 18.2802 39.7632 18.6381 40.1759C18.941 40.5336 18.8859 41.0563 18.528 41.359C18.3628 41.4966 18.1701 41.5516 17.9774 41.5516ZM14.5086 36.7368C14.2333 36.7368 13.958 36.5992 13.7928 36.3241C13.4899 35.8288 13.1871 35.3336 12.9118 34.8383C12.6916 34.4256 12.8292 33.9029 13.2422 33.6828C13.6551 33.4627 14.1782 33.6002 14.3984 34.0129C14.6737 34.5082 14.9491 34.9759 15.2519 35.4436C15.4997 35.8288 15.362 36.3516 14.9766 36.5992C14.8389 36.6817 14.6737 36.7368 14.5361 36.7368H14.5086ZM11.7831 31.4542C11.4527 31.4542 11.1499 31.2616 11.0122 30.9314C10.792 30.4087 10.5717 29.8584 10.3515 29.3357C10.1863 28.8954 10.4065 28.4002 10.847 28.2351C11.2875 28.07 11.7831 28.2902 11.9482 28.7304C12.141 29.2531 12.3612 29.7484 12.5814 30.2711C12.7742 30.7113 12.5814 31.2066 12.141 31.3717C12.0308 31.4267 11.9207 31.4267 11.8106 31.4267L11.7831 31.4542ZM9.85594 25.869C9.47051 25.869 9.14015 25.6214 9.03002 25.2362C8.89237 24.6859 8.75472 24.1081 8.61707 23.5579C8.50695 23.0901 8.80978 22.6499 9.25027 22.5399C9.71828 22.4298 10.1588 22.7325 10.2689 23.1727C10.379 23.7229 10.5167 24.2457 10.6543 24.796C10.7644 25.2362 10.5167 25.7039 10.0486 25.8415C9.96606 25.8415 9.911 25.869 9.82841 25.869H9.85594ZM8.75472 20.0361C8.34177 20.0361 7.95634 19.706 7.90128 19.2933C7.84622 18.7155 7.76363 18.1377 7.7361 17.5599C7.70857 17.0922 8.03893 16.6795 8.50695 16.652C8.97496 16.6245 9.38792 16.9547 9.41545 17.4224C9.47051 17.9726 9.52557 18.5229 9.58063 19.0732C9.63569 19.5409 9.30533 19.9536 8.83731 20.0086C8.80978 20.0086 8.78225 20.0086 8.72719 20.0086L8.75472 20.0361ZM8.45189 14.0933C7.98387 14.0933 7.62598 13.7081 7.62598 13.2404C7.62598 12.6626 7.65351 12.0848 7.70857 11.507C7.7361 11.0393 8.14905 10.6816 8.61707 10.7091C9.08509 10.7366 9.44298 11.1493 9.41545 11.6171C9.38792 12.1673 9.36039 12.7176 9.36039 13.2679C9.36039 13.7356 8.97496 14.0933 8.50695 14.0933H8.45189ZM9.00249 8.20541C8.94743 8.20541 8.9199 8.20541 8.86484 8.20541C8.39683 8.12287 8.09399 7.68266 8.17658 7.24244C8.25918 6.66466 8.3693 6.11439 8.47942 5.53661C8.56201 5.06889 9.03003 4.79375 9.47051 4.87629C9.93853 4.95883 10.2138 5.42656 10.1312 5.86677C10.0211 6.41704 9.911 6.93979 9.82841 7.49006C9.77335 7.90276 9.38792 8.20541 9.00249 8.20541ZM10.379 2.42761C10.2964 2.42761 10.2138 2.4276 10.1312 2.40009C9.69075 2.26252 9.44298 1.7948 9.58063 1.32707C9.74581 0.776805 9.93853 0.226537 10.1312 -0.32373C10.2964 -0.763944 10.792 -0.98405 11.2049 -0.81897C11.6454 -0.65389 11.8657 -0.15865 11.7005 0.25405C11.5078 0.776804 11.3426 1.29956 11.1774 1.82231C11.0673 2.17999 10.7369 2.40009 10.379 2.40009V2.42761Z" fill="black"/>
</svg>
