<svg width="1920" height="621" viewBox="0 0 1920 621" fill="none" xmlns="http://www.w3.org/2000/svg">
<path d="M1923.85 621C1923.85 461.076 1923.85 445 1923.85 194.617C1666.37 81.5314 1317.14 18 953 18C588.862 18 257.488 81.5366 0 194.617C3.8147e-06 327.005 0 461.076 0 621H953H1923.85Z" fill="#4557C7"/>
<path fill-rule="evenodd" clip-rule="evenodd" d="M1409.06 112L1363 85.388L1396.95 26.6121L1443.03 53.1781L1443.05 0H1510.95L1510.97 53.1781L1557.05 26.6121L1591 85.388L1544.94 112L1591 138.612L1557.05 197.388L1510.97 170.822L1510.95 224H1443.05L1443.03 170.822L1396.95 197.388L1363 138.612L1409.06 112Z" fill="#FDFCF5"/>
</svg>
