<svg width="293" height="61" viewBox="0 0 293 61" fill="none" xmlns="http://www.w3.org/2000/svg">
<rect x="1" y="1.00073" width="291" height="59" rx="29.5" stroke="white" stroke-width="2"/>
<rect x="224" y="5.00073" width="64" height="50" rx="24" fill="#0A892E"/>
<g clip-path="url(#clip0_110_141)">
<path d="M262.718 32.0899C262.664 32.0637 260.623 31.0585 260.26 30.928C260.112 30.8748 259.953 30.8229 259.784 30.8229C259.509 30.8229 259.277 30.9603 259.097 31.2301C258.893 31.5332 258.276 32.2547 258.085 32.4703C258.06 32.4987 258.026 32.5327 258.006 32.5327C257.987 32.5327 257.672 32.4026 257.576 32.3611C255.386 31.4099 253.724 29.1225 253.496 28.7368C253.464 28.6814 253.462 28.6562 253.462 28.6562C253.47 28.6268 253.544 28.553 253.582 28.5149C253.693 28.4049 253.813 28.2599 253.93 28.1196C253.985 28.0532 254.04 27.9866 254.095 27.9239C254.264 27.7272 254.339 27.5745 254.426 27.3975L254.472 27.3056C254.685 26.8823 254.503 26.525 254.444 26.4096C254.396 26.3131 253.534 24.2329 253.442 24.0144C253.222 23.487 252.931 23.2415 252.526 23.2415C252.489 23.2415 252.526 23.2415 252.369 23.2481C252.177 23.2562 251.133 23.3936 250.671 23.6846C250.182 23.9933 249.354 24.9771 249.354 26.7073C249.354 28.2645 250.342 29.7347 250.766 30.2939C250.777 30.308 250.796 30.3366 250.824 30.3777C252.449 32.7506 254.474 34.5092 256.528 35.3295C258.505 36.1191 259.441 36.2104 259.973 36.2104H259.973C260.197 36.2104 260.376 36.1928 260.533 36.1773L260.634 36.1677C261.317 36.1072 262.817 35.3295 263.159 34.3809C263.428 33.6337 263.498 32.8174 263.32 32.5211C263.197 32.3196 262.986 32.2183 262.718 32.0899Z" fill="white"/>
<path d="M256.249 16.0007C248.665 16.0007 242.496 22.1238 242.496 29.6501C242.496 32.0844 243.147 34.4672 244.381 36.5526L242.019 43.5204C241.975 43.6503 242.008 43.7939 242.104 43.8917C242.173 43.9626 242.268 44.0007 242.364 44.0007C242.4 44.0007 242.438 43.9952 242.474 43.9836L249.739 41.6749C251.727 42.7372 253.974 43.2979 256.249 43.2979C263.831 43.298 270 37.1756 270 29.6501C270 22.1238 263.831 16.0007 256.249 16.0007ZM256.249 40.4547C254.109 40.4547 252.036 39.8368 250.254 38.6677C250.194 38.6284 250.125 38.6082 250.055 38.6082C250.018 38.6082 249.981 38.6138 249.945 38.6253L246.305 39.7822L247.48 36.3159C247.518 36.2037 247.499 36.08 247.429 35.9844C246.072 34.1306 245.355 31.9403 245.355 29.6501C245.355 23.6916 250.242 18.844 256.248 18.844C262.254 18.844 267.14 23.6916 267.14 29.6501C267.141 35.6078 262.254 40.4547 256.249 40.4547Z" fill="white"/>
</g>
<path d="M33.873 22.2039V35.0007H31.6846V22.2039H33.873ZM37.8896 22.2039V23.9617H27.7031V22.2039H37.8896ZM42.7148 35.1765C42.0117 35.1765 41.376 35.0623 40.8076 34.8337C40.2451 34.5994 39.7646 34.2742 39.3662 33.8582C38.9736 33.4421 38.6719 32.9529 38.4609 32.3904C38.25 31.8279 38.1445 31.2214 38.1445 30.571V30.2195C38.1445 29.4753 38.2529 28.8015 38.4697 28.198C38.6865 27.5945 38.9883 27.0789 39.375 26.6511C39.7617 26.2175 40.2188 25.8865 40.7461 25.658C41.2734 25.4294 41.8447 25.3152 42.46 25.3152C43.1396 25.3152 43.7344 25.4294 44.2441 25.658C44.7539 25.8865 45.1758 26.2087 45.5098 26.6248C45.8496 27.0349 46.1016 27.5242 46.2656 28.0925C46.4355 28.6609 46.5205 29.2878 46.5205 29.9734V30.8787H39.1729V29.3582H44.4287V29.1912C44.417 28.8103 44.3408 28.4529 44.2002 28.1189C44.0654 27.7849 43.8574 27.5154 43.5762 27.3103C43.2949 27.1052 42.9199 27.0027 42.4512 27.0027C42.0996 27.0027 41.7861 27.0789 41.5107 27.2312C41.2412 27.3777 41.0156 27.5916 40.834 27.8728C40.6523 28.1541 40.5117 28.4939 40.4121 28.8923C40.3184 29.2849 40.2715 29.7273 40.2715 30.2195V30.571C40.2715 30.9871 40.3271 31.3738 40.4385 31.7312C40.5557 32.0828 40.7256 32.3904 40.9482 32.6541C41.1709 32.9177 41.4404 33.1257 41.7568 33.2781C42.0732 33.4246 42.4336 33.4978 42.8379 33.4978C43.3477 33.4978 43.8018 33.3953 44.2002 33.1902C44.5986 32.9851 44.9443 32.6951 45.2373 32.3201L46.3535 33.4011C46.1484 33.7 45.8818 33.9871 45.5537 34.2625C45.2256 34.532 44.8242 34.7517 44.3496 34.9216C43.8809 35.0916 43.3359 35.1765 42.7148 35.1765ZM50.2734 27.5212V35.0007H48.1553V25.491H50.1504L50.2734 27.5212ZM49.8955 29.8943L49.21 29.8855C49.2158 29.2117 49.3096 28.5935 49.4912 28.031C49.6787 27.4685 49.9365 26.9851 50.2646 26.5808C50.5986 26.1765 50.9971 25.866 51.46 25.6492C51.9229 25.4265 52.4385 25.3152 53.0068 25.3152C53.4639 25.3152 53.877 25.3796 54.2461 25.5085C54.6211 25.6316 54.9404 25.8337 55.2041 26.115C55.4736 26.3962 55.6787 26.7625 55.8193 27.2136C55.96 27.6589 56.0303 28.2068 56.0303 28.8572V35.0007H53.9033V28.8484C53.9033 28.3914 53.8359 28.031 53.7012 27.7673C53.5723 27.4978 53.3818 27.3074 53.1299 27.196C52.8838 27.0789 52.5762 27.0203 52.207 27.0203C51.8438 27.0203 51.5186 27.0964 51.2314 27.2488C50.9443 27.4011 50.7012 27.6091 50.502 27.8728C50.3086 28.1365 50.1592 28.4412 50.0537 28.7869C49.9482 29.1326 49.8955 29.5017 49.8955 29.8943ZM60.2842 21.5007V35.0007H58.1748V21.5007H60.2842ZM59.915 29.8943L59.2295 29.8855C59.2354 29.2292 59.3262 28.6228 59.502 28.0662C59.6836 27.5095 59.9355 27.0261 60.2578 26.616C60.5859 26.2 60.9785 25.8806 61.4355 25.658C61.8926 25.4294 62.3994 25.3152 62.9561 25.3152C63.4248 25.3152 63.8467 25.3796 64.2217 25.5085C64.6025 25.6375 64.9307 25.8455 65.2061 26.1326C65.4814 26.4138 65.6895 26.783 65.8301 27.24C65.9766 27.6912 66.0498 28.2419 66.0498 28.8923V35.0007H63.9229V28.8748C63.9229 28.4177 63.8555 28.0544 63.7207 27.7849C63.5918 27.5154 63.4014 27.322 63.1494 27.2048C62.8975 27.0818 62.5898 27.0203 62.2266 27.0203C61.8457 27.0203 61.5088 27.0964 61.2158 27.2488C60.9287 27.4011 60.6885 27.6091 60.4951 27.8728C60.3018 28.1365 60.1553 28.4412 60.0557 28.7869C59.9619 29.1326 59.915 29.5017 59.915 29.8943ZM67.79 30.3513V30.1492C67.79 29.4636 67.8896 28.8279 68.0889 28.2419C68.2881 27.6501 68.5752 27.1375 68.9502 26.7039C69.3311 26.2644 69.7939 25.9246 70.3389 25.6843C70.8896 25.4382 71.5107 25.3152 72.2021 25.3152C72.8994 25.3152 73.5205 25.4382 74.0654 25.6843C74.6162 25.9246 75.082 26.2644 75.4629 26.7039C75.8438 27.1375 76.1338 27.6501 76.333 28.2419C76.5322 28.8279 76.6318 29.4636 76.6318 30.1492V30.3513C76.6318 31.0369 76.5322 31.6726 76.333 32.2585C76.1338 32.8445 75.8438 33.3572 75.4629 33.7966C75.082 34.2302 74.6191 34.5701 74.0742 34.8162C73.5293 35.0564 72.9111 35.1765 72.2197 35.1765C71.5225 35.1765 70.8984 35.0564 70.3477 34.8162C69.8027 34.5701 69.3398 34.2302 68.959 33.7966C68.5781 33.3572 68.2881 32.8445 68.0889 32.2585C67.8896 31.6726 67.79 31.0369 67.79 30.3513ZM69.9082 30.1492V30.3513C69.9082 30.7791 69.9521 31.1833 70.04 31.5642C70.1279 31.9451 70.2656 32.2791 70.4531 32.5662C70.6406 32.8533 70.8809 33.0789 71.1738 33.2429C71.4668 33.407 71.8154 33.489 72.2197 33.489C72.6123 33.489 72.9521 33.407 73.2393 33.2429C73.5322 33.0789 73.7725 32.8533 73.96 32.5662C74.1475 32.2791 74.2852 31.9451 74.373 31.5642C74.4668 31.1833 74.5137 30.7791 74.5137 30.3513V30.1492C74.5137 29.7273 74.4668 29.3289 74.373 28.9539C74.2852 28.573 74.1445 28.2361 73.9512 27.9431C73.7637 27.6501 73.5234 27.4216 73.2305 27.2576C72.9434 27.0876 72.6006 27.0027 72.2021 27.0027C71.8037 27.0027 71.458 27.0876 71.165 27.2576C70.8779 27.4216 70.6406 27.6501 70.4531 27.9431C70.2656 28.2361 70.1279 28.573 70.04 28.9539C69.9521 29.3289 69.9082 29.7273 69.9082 30.1492ZM85.0078 27.4246V35.0007H82.8896V25.491H84.8848L85.0078 27.4246ZM84.665 29.8943L83.9443 29.8855C83.9443 29.2292 84.0264 28.6228 84.1904 28.0662C84.3545 27.5095 84.5947 27.0261 84.9111 26.616C85.2275 26.2 85.6201 25.8806 86.0889 25.658C86.5635 25.4294 87.1113 25.3152 87.7324 25.3152C88.166 25.3152 88.5615 25.3796 88.9189 25.5085C89.2822 25.6316 89.5957 25.8279 89.8594 26.0974C90.1289 26.3669 90.334 26.7126 90.4746 27.1345C90.6211 27.5564 90.6943 28.0662 90.6943 28.6638V35.0007H88.5762V28.8484C88.5762 28.3855 88.5059 28.0222 88.3652 27.7585C88.2305 27.4949 88.0342 27.3074 87.7764 27.196C87.5244 27.0789 87.2227 27.0203 86.8711 27.0203C86.4727 27.0203 86.1328 27.0964 85.8516 27.2488C85.5762 27.4011 85.3506 27.6091 85.1748 27.8728C84.999 28.1365 84.8701 28.4412 84.7881 28.7869C84.7061 29.1326 84.665 29.5017 84.665 29.8943ZM90.5625 29.3318L89.5693 29.5515C89.5693 28.9773 89.6484 28.4353 89.8066 27.9255C89.9707 27.4099 90.208 26.9587 90.5186 26.572C90.835 26.1794 91.2246 25.8718 91.6875 25.6492C92.1504 25.4265 92.6807 25.3152 93.2783 25.3152C93.7646 25.3152 94.1982 25.3826 94.5791 25.5173C94.9658 25.6462 95.2939 25.8513 95.5635 26.1326C95.833 26.4138 96.0381 26.78 96.1787 27.2312C96.3193 27.6765 96.3896 28.2156 96.3896 28.8484V35.0007H94.2627V28.8396C94.2627 28.3591 94.1924 27.9871 94.0518 27.7234C93.917 27.4597 93.7236 27.2781 93.4717 27.1785C93.2197 27.073 92.918 27.0203 92.5664 27.0203C92.2383 27.0203 91.9482 27.0818 91.6963 27.2048C91.4502 27.322 91.2422 27.489 91.0723 27.7058C90.9023 27.9167 90.7734 28.1599 90.6855 28.4353C90.6035 28.7107 90.5625 29.0095 90.5625 29.3318ZM103.931 33.0935V28.5583C103.931 28.2185 103.869 27.9255 103.746 27.6794C103.623 27.4333 103.436 27.2429 103.184 27.1082C102.938 26.9734 102.627 26.906 102.252 26.906C101.906 26.906 101.607 26.9646 101.355 27.0818C101.104 27.199 100.907 27.3572 100.767 27.5564C100.626 27.7556 100.556 27.9812 100.556 28.2332H98.4463C98.4463 27.8582 98.5371 27.4949 98.7188 27.1433C98.9004 26.7917 99.1641 26.4783 99.5098 26.2029C99.8555 25.9275 100.269 25.7107 100.749 25.5525C101.229 25.3943 101.769 25.3152 102.366 25.3152C103.081 25.3152 103.714 25.4353 104.265 25.6755C104.821 25.9158 105.258 26.2791 105.574 26.7654C105.896 27.2458 106.058 27.8494 106.058 28.5759V32.8035C106.058 33.2371 106.087 33.6267 106.146 33.9724C106.21 34.3123 106.301 34.6082 106.418 34.8601V35.0007H104.247C104.147 34.7722 104.068 34.4822 104.01 34.1306C103.957 33.7732 103.931 33.4275 103.931 33.0935ZM104.238 29.2175L104.256 30.5271H102.735C102.343 30.5271 101.997 30.5652 101.698 30.6414C101.399 30.7117 101.15 30.8171 100.951 30.9578C100.752 31.0984 100.603 31.2683 100.503 31.4675C100.403 31.6667 100.354 31.8923 100.354 32.1443C100.354 32.3962 100.412 32.6277 100.529 32.8386C100.646 33.0437 100.816 33.2048 101.039 33.322C101.268 33.4392 101.543 33.4978 101.865 33.4978C102.299 33.4978 102.677 33.4099 102.999 33.2341C103.327 33.0525 103.585 32.8328 103.772 32.575C103.96 32.3113 104.06 32.0623 104.071 31.8279L104.757 32.7683C104.687 33.0085 104.566 33.2664 104.396 33.5417C104.227 33.8171 104.004 34.0808 103.729 34.3328C103.459 34.5789 103.134 34.781 102.753 34.9392C102.378 35.0974 101.944 35.1765 101.452 35.1765C100.831 35.1765 100.277 35.0535 99.791 34.8074C99.3047 34.5554 98.9238 34.2185 98.6484 33.7966C98.373 33.3689 98.2354 32.8855 98.2354 32.3464C98.2354 31.8425 98.3291 31.3972 98.5166 31.0105C98.71 30.6179 98.9912 30.2898 99.3604 30.0261C99.7354 29.7625 100.192 29.5632 100.731 29.4285C101.271 29.2878 101.886 29.2175 102.577 29.2175H104.238ZM110.54 25.491V35.0007H108.413V25.491H110.54ZM108.272 22.9949C108.272 22.6726 108.378 22.406 108.589 22.1951C108.806 21.9783 109.104 21.8699 109.485 21.8699C109.86 21.8699 110.156 21.9783 110.373 22.1951C110.59 22.406 110.698 22.6726 110.698 22.9949C110.698 23.3113 110.59 23.575 110.373 23.7859C110.156 23.9968 109.86 24.1023 109.485 24.1023C109.104 24.1023 108.806 23.9968 108.589 23.7859C108.378 23.575 108.272 23.3113 108.272 22.9949ZM118.195 32.4255C118.195 32.2146 118.143 32.0242 118.037 31.8542C117.932 31.6785 117.729 31.5203 117.431 31.3796C117.138 31.239 116.704 31.1101 116.13 30.9929C115.626 30.8816 115.163 30.7498 114.741 30.5974C114.325 30.4392 113.968 30.2488 113.669 30.0261C113.37 29.8035 113.139 29.5398 112.975 29.2351C112.811 28.9304 112.729 28.5789 112.729 28.1804C112.729 27.7937 112.813 27.4275 112.983 27.0818C113.153 26.7361 113.396 26.4314 113.713 26.1677C114.029 25.9041 114.413 25.696 114.864 25.5437C115.321 25.3914 115.831 25.3152 116.394 25.3152C117.19 25.3152 117.873 25.45 118.441 25.7195C119.016 25.9832 119.455 26.3435 119.76 26.8005C120.064 27.2517 120.217 27.7615 120.217 28.3298H118.099C118.099 28.0779 118.034 27.8435 117.905 27.6267C117.782 27.4041 117.595 27.2253 117.343 27.0906C117.091 26.95 116.774 26.8796 116.394 26.8796C116.03 26.8796 115.729 26.9382 115.488 27.0554C115.254 27.1667 115.078 27.3132 114.961 27.4949C114.85 27.6765 114.794 27.8757 114.794 28.0925C114.794 28.2507 114.823 28.3943 114.882 28.5232C114.946 28.6462 115.052 28.7605 115.198 28.866C115.345 28.9656 115.544 29.0593 115.796 29.1472C116.054 29.2351 116.376 29.3201 116.763 29.4021C117.489 29.5544 118.113 29.7507 118.635 29.991C119.162 30.2253 119.566 30.53 119.848 30.905C120.129 31.2742 120.27 31.7429 120.27 32.3113C120.27 32.7332 120.179 33.1199 119.997 33.4714C119.821 33.8171 119.563 34.1189 119.224 34.3767C118.884 34.6287 118.477 34.825 118.002 34.9656C117.533 35.1062 117.006 35.1765 116.42 35.1765C115.559 35.1765 114.829 35.0242 114.231 34.7195C113.634 34.4089 113.18 34.0134 112.869 33.533C112.564 33.0466 112.412 32.5427 112.412 32.0212H114.46C114.483 32.4138 114.592 32.7273 114.785 32.9617C114.984 33.1902 115.23 33.3572 115.523 33.4626C115.822 33.5623 116.13 33.6121 116.446 33.6121C116.827 33.6121 117.146 33.5623 117.404 33.4626C117.662 33.3572 117.858 33.2166 117.993 33.0408C118.128 32.8591 118.195 32.6541 118.195 32.4255ZM128.733 27.3191V38.657H126.615V25.491H128.566L128.733 27.3191ZM134.93 30.158V30.3425C134.93 31.0339 134.848 31.6755 134.684 32.2673C134.525 32.8533 134.288 33.366 133.972 33.8054C133.661 34.239 133.277 34.5759 132.82 34.8162C132.363 35.0564 131.836 35.1765 131.238 35.1765C130.646 35.1765 130.128 35.0681 129.683 34.8513C129.243 34.6287 128.871 34.3152 128.566 33.9109C128.262 33.5066 128.016 33.032 127.828 32.4871C127.646 31.9363 127.518 31.3328 127.441 30.6765V29.9646C127.518 29.2673 127.646 28.6345 127.828 28.0662C128.016 27.4978 128.262 27.0085 128.566 26.5984C128.871 26.1882 129.243 25.8718 129.683 25.6492C130.122 25.4265 130.635 25.3152 131.221 25.3152C131.818 25.3152 132.349 25.4324 132.812 25.6667C133.274 25.8953 133.664 26.2234 133.98 26.6511C134.297 27.073 134.534 27.5828 134.692 28.1804C134.851 28.7722 134.93 29.4314 134.93 30.158ZM132.812 30.3425V30.158C132.812 29.7185 132.771 29.3113 132.688 28.9363C132.606 28.5554 132.478 28.2214 132.302 27.9343C132.126 27.6472 131.9 27.4246 131.625 27.2664C131.355 27.1023 131.03 27.0203 130.649 27.0203C130.274 27.0203 129.952 27.0847 129.683 27.2136C129.413 27.3367 129.188 27.5095 129.006 27.7322C128.824 27.9548 128.684 28.2156 128.584 28.5144C128.484 28.8074 128.414 29.1267 128.373 29.4724V31.1775C128.443 31.5994 128.563 31.9861 128.733 32.3376C128.903 32.6892 129.144 32.9705 129.454 33.1814C129.771 33.3865 130.175 33.489 130.667 33.489C131.048 33.489 131.373 33.407 131.643 33.2429C131.912 33.0789 132.132 32.8533 132.302 32.5662C132.478 32.2732 132.606 31.9363 132.688 31.5554C132.771 31.1746 132.812 30.7703 132.812 30.3425ZM140.924 35.1765C140.221 35.1765 139.585 35.0623 139.017 34.8337C138.454 34.5994 137.974 34.2742 137.575 33.8582C137.183 33.4421 136.881 32.9529 136.67 32.3904C136.459 31.8279 136.354 31.2214 136.354 30.571V30.2195C136.354 29.4753 136.462 28.8015 136.679 28.198C136.896 27.5945 137.197 27.0789 137.584 26.6511C137.971 26.2175 138.428 25.8865 138.955 25.658C139.482 25.4294 140.054 25.3152 140.669 25.3152C141.349 25.3152 141.943 25.4294 142.453 25.658C142.963 25.8865 143.385 26.2087 143.719 26.6248C144.059 27.0349 144.311 27.5242 144.475 28.0925C144.645 28.6609 144.729 29.2878 144.729 29.9734V30.8787H137.382V29.3582H142.638V29.1912C142.626 28.8103 142.55 28.4529 142.409 28.1189C142.274 27.7849 142.066 27.5154 141.785 27.3103C141.504 27.1052 141.129 27.0027 140.66 27.0027C140.309 27.0027 139.995 27.0789 139.72 27.2312C139.45 27.3777 139.225 27.5916 139.043 27.8728C138.861 28.1541 138.721 28.4939 138.621 28.8923C138.527 29.2849 138.48 29.7273 138.48 30.2195V30.571C138.48 30.9871 138.536 31.3738 138.647 31.7312C138.765 32.0828 138.935 32.3904 139.157 32.6541C139.38 32.9177 139.649 33.1257 139.966 33.2781C140.282 33.4246 140.643 33.4978 141.047 33.4978C141.557 33.4978 142.011 33.3953 142.409 33.1902C142.808 32.9851 143.153 32.6951 143.446 32.3201L144.562 33.4011C144.357 33.7 144.091 33.9871 143.763 34.2625C143.435 34.532 143.033 34.7517 142.559 34.9216C142.09 35.0916 141.545 35.1765 140.924 35.1765ZM148.509 27.3015V35.0007H146.391V25.491H148.412L148.509 27.3015ZM151.418 25.4294L151.4 27.3982C151.271 27.3748 151.131 27.3572 150.979 27.3455C150.832 27.3337 150.686 27.3279 150.539 27.3279C150.176 27.3279 149.856 27.3806 149.581 27.4861C149.306 27.5857 149.074 27.7322 148.887 27.9255C148.705 28.113 148.564 28.3416 148.465 28.6111C148.365 28.8806 148.307 29.1824 148.289 29.5164L147.806 29.5515C147.806 28.9539 147.864 28.4001 147.981 27.8904C148.099 27.3806 148.274 26.9324 148.509 26.5457C148.749 26.1589 149.048 25.8572 149.405 25.6404C149.769 25.4236 150.188 25.3152 150.662 25.3152C150.791 25.3152 150.929 25.3269 151.075 25.3503C151.228 25.3738 151.342 25.4001 151.418 25.4294ZM158.66 25.491H160.585V34.7371C160.585 35.5925 160.403 36.3191 160.04 36.9167C159.677 37.5144 159.17 37.9685 158.52 38.2791C157.869 38.5955 157.116 38.7537 156.261 38.7537C155.897 38.7537 155.493 38.7009 155.048 38.5955C154.608 38.49 154.181 38.3201 153.765 38.0857C153.354 37.8572 153.012 37.5554 152.736 37.1804L153.729 35.9324C154.069 36.3367 154.444 36.6326 154.854 36.8201C155.265 37.0076 155.695 37.1013 156.146 37.1013C156.633 37.1013 157.046 37.0105 157.386 36.8289C157.731 36.6531 157.998 36.3923 158.186 36.0466C158.373 35.7009 158.467 35.2791 158.467 34.781V27.6443L158.66 25.491ZM152.2 30.3513V30.1667C152.2 29.446 152.288 28.7898 152.464 28.198C152.64 27.6003 152.892 27.0876 153.22 26.6599C153.548 26.2263 153.946 25.8953 154.415 25.6667C154.884 25.4324 155.414 25.3152 156.006 25.3152C156.621 25.3152 157.146 25.4265 157.579 25.6492C158.019 25.8718 158.385 26.1912 158.678 26.6072C158.971 27.0173 159.199 27.5095 159.363 28.0837C159.533 28.6521 159.659 29.2849 159.741 29.9822V30.571C159.665 31.2507 159.536 31.8718 159.354 32.4343C159.173 32.9968 158.933 33.4832 158.634 33.8933C158.335 34.3035 157.966 34.6199 157.526 34.8425C157.093 35.0652 156.58 35.1765 155.988 35.1765C155.408 35.1765 154.884 35.0564 154.415 34.8162C153.952 34.5759 153.554 34.239 153.22 33.8054C152.892 33.3718 152.64 32.8621 152.464 32.2761C152.288 31.6843 152.2 31.0427 152.2 30.3513ZM154.318 30.1667V30.3513C154.318 30.7849 154.359 31.1892 154.441 31.5642C154.529 31.9392 154.661 32.2703 154.837 32.5574C155.019 32.8386 155.247 33.0613 155.522 33.2253C155.804 33.3835 156.135 33.4626 156.516 33.4626C157.014 33.4626 157.421 33.3572 157.737 33.1462C158.06 32.9353 158.306 32.6511 158.476 32.2937C158.651 31.9304 158.774 31.5261 158.845 31.0808V29.49C158.81 29.1443 158.736 28.822 158.625 28.5232C158.52 28.2244 158.376 27.9636 158.194 27.741C158.013 27.5125 157.784 27.3367 157.509 27.2136C157.233 27.0847 156.908 27.0203 156.533 27.0203C156.152 27.0203 155.821 27.1023 155.54 27.2664C155.259 27.4304 155.027 27.656 154.846 27.9431C154.67 28.2302 154.538 28.5642 154.45 28.9451C154.362 29.3259 154.318 29.7332 154.318 30.1667ZM168.504 32.7595V25.491H170.631V35.0007H168.627L168.504 32.7595ZM168.803 30.782L169.515 30.7644C169.515 31.4031 169.444 31.9919 169.304 32.531C169.163 33.0642 168.946 33.53 168.653 33.9285C168.36 34.321 167.985 34.6287 167.528 34.8513C167.071 35.0681 166.523 35.1765 165.885 35.1765C165.422 35.1765 164.997 35.1091 164.61 34.9744C164.224 34.8396 163.89 34.6316 163.608 34.3503C163.333 34.0691 163.119 33.7029 162.967 33.2517C162.814 32.8005 162.738 32.2615 162.738 31.6345V25.491H164.856V31.6521C164.856 31.9978 164.897 32.2878 164.979 32.5222C165.062 32.7507 165.173 32.9353 165.313 33.0759C165.454 33.2166 165.618 33.3162 165.806 33.3748C165.993 33.4333 166.192 33.4626 166.403 33.4626C167.007 33.4626 167.481 33.3455 167.827 33.1111C168.179 32.8708 168.428 32.5486 168.574 32.1443C168.727 31.74 168.803 31.2859 168.803 30.782ZM174.902 27.5212V35.0007H172.784V25.491H174.779L174.902 27.5212ZM174.524 29.8943L173.839 29.8855C173.845 29.2117 173.938 28.5935 174.12 28.031C174.308 27.4685 174.565 26.9851 174.894 26.5808C175.228 26.1765 175.626 25.866 176.089 25.6492C176.552 25.4265 177.067 25.3152 177.636 25.3152C178.093 25.3152 178.506 25.3796 178.875 25.5085C179.25 25.6316 179.569 25.8337 179.833 26.115C180.103 26.3962 180.308 26.7625 180.448 27.2136C180.589 27.6589 180.659 28.2068 180.659 28.8572V35.0007H178.532V28.8484C178.532 28.3914 178.465 28.031 178.33 27.7673C178.201 27.4978 178.011 27.3074 177.759 27.196C177.513 27.0789 177.205 27.0203 176.836 27.0203C176.473 27.0203 176.147 27.0964 175.86 27.2488C175.573 27.4011 175.33 27.6091 175.131 27.8728C174.938 28.1365 174.788 28.4412 174.683 28.7869C174.577 29.1326 174.524 29.5017 174.524 29.8943ZM187.181 25.491V27.0378H181.819V25.491H187.181ZM183.366 23.1619H185.484V32.3728C185.484 32.6658 185.525 32.8914 185.607 33.0496C185.695 33.2019 185.815 33.3044 185.968 33.3572C186.12 33.4099 186.299 33.4363 186.504 33.4363C186.65 33.4363 186.791 33.4275 186.926 33.4099C187.061 33.3923 187.169 33.3748 187.251 33.3572L187.26 34.9744C187.084 35.0271 186.879 35.074 186.645 35.115C186.416 35.156 186.152 35.1765 185.854 35.1765C185.367 35.1765 184.937 35.0916 184.562 34.9216C184.187 34.7458 183.894 34.4617 183.683 34.0691C183.472 33.6765 183.366 33.155 183.366 32.5046V23.1619ZM194.177 33.0935V28.5583C194.177 28.2185 194.115 27.9255 193.992 27.6794C193.869 27.4333 193.682 27.2429 193.43 27.1082C193.184 26.9734 192.873 26.906 192.498 26.906C192.152 26.906 191.854 26.9646 191.602 27.0818C191.35 27.199 191.153 27.3572 191.013 27.5564C190.872 27.7556 190.802 27.9812 190.802 28.2332H188.692C188.692 27.8582 188.783 27.4949 188.965 27.1433C189.146 26.7917 189.41 26.4783 189.756 26.2029C190.102 25.9275 190.515 25.7107 190.995 25.5525C191.476 25.3943 192.015 25.3152 192.612 25.3152C193.327 25.3152 193.96 25.4353 194.511 25.6755C195.067 25.9158 195.504 26.2791 195.82 26.7654C196.143 27.2458 196.304 27.8494 196.304 28.5759V32.8035C196.304 33.2371 196.333 33.6267 196.392 33.9724C196.456 34.3123 196.547 34.6082 196.664 34.8601V35.0007H194.493C194.394 34.7722 194.314 34.4822 194.256 34.1306C194.203 33.7732 194.177 33.4275 194.177 33.0935ZM194.484 29.2175L194.502 30.5271H192.981C192.589 30.5271 192.243 30.5652 191.944 30.6414C191.646 30.7117 191.396 30.8171 191.197 30.9578C190.998 31.0984 190.849 31.2683 190.749 31.4675C190.649 31.6667 190.6 31.8923 190.6 32.1443C190.6 32.3962 190.658 32.6277 190.775 32.8386C190.893 33.0437 191.062 33.2048 191.285 33.322C191.514 33.4392 191.789 33.4978 192.111 33.4978C192.545 33.4978 192.923 33.4099 193.245 33.2341C193.573 33.0525 193.831 32.8328 194.019 32.575C194.206 32.3113 194.306 32.0623 194.317 31.8279L195.003 32.7683C194.933 33.0085 194.812 33.2664 194.643 33.5417C194.473 33.8171 194.25 34.0808 193.975 34.3328C193.705 34.5789 193.38 34.781 192.999 34.9392C192.624 35.0974 192.19 35.1765 191.698 35.1765C191.077 35.1765 190.523 35.0535 190.037 34.8074C189.551 34.5554 189.17 34.2185 188.895 33.7966C188.619 33.3689 188.481 32.8855 188.481 32.3464C188.481 31.8425 188.575 31.3972 188.763 31.0105C188.956 30.6179 189.237 30.2898 189.606 30.0261C189.981 29.7625 190.438 29.5632 190.978 29.4285C191.517 29.2878 192.132 29.2175 192.823 29.2175H194.484ZM203.854 32.4255C203.854 32.2146 203.801 32.0242 203.695 31.8542C203.59 31.6785 203.388 31.5203 203.089 31.3796C202.796 31.239 202.362 31.1101 201.788 30.9929C201.284 30.8816 200.821 30.7498 200.399 30.5974C199.983 30.4392 199.626 30.2488 199.327 30.0261C199.028 29.8035 198.797 29.5398 198.633 29.2351C198.469 28.9304 198.387 28.5789 198.387 28.1804C198.387 27.7937 198.472 27.4275 198.642 27.0818C198.812 26.7361 199.055 26.4314 199.371 26.1677C199.688 25.9041 200.071 25.696 200.522 25.5437C200.979 25.3914 201.489 25.3152 202.052 25.3152C202.849 25.3152 203.531 25.45 204.1 25.7195C204.674 25.9832 205.113 26.3435 205.418 26.8005C205.723 27.2517 205.875 27.7615 205.875 28.3298H203.757C203.757 28.0779 203.692 27.8435 203.563 27.6267C203.44 27.4041 203.253 27.2253 203.001 27.0906C202.749 26.95 202.433 26.8796 202.052 26.8796C201.688 26.8796 201.387 26.9382 201.146 27.0554C200.912 27.1667 200.736 27.3132 200.619 27.4949C200.508 27.6765 200.452 27.8757 200.452 28.0925C200.452 28.2507 200.481 28.3943 200.54 28.5232C200.604 28.6462 200.71 28.7605 200.856 28.866C201.003 28.9656 201.202 29.0593 201.454 29.1472C201.712 29.2351 202.034 29.3201 202.421 29.4021C203.147 29.5544 203.771 29.7507 204.293 29.991C204.82 30.2253 205.225 30.53 205.506 30.905C205.787 31.2742 205.928 31.7429 205.928 32.3113C205.928 32.7332 205.837 33.1199 205.655 33.4714C205.479 33.8171 205.222 34.1189 204.882 34.3767C204.542 34.6287 204.135 34.825 203.66 34.9656C203.191 35.1062 202.664 35.1765 202.078 35.1765C201.217 35.1765 200.487 35.0242 199.89 34.7195C199.292 34.4089 198.838 34.0134 198.527 33.533C198.223 33.0466 198.07 32.5427 198.07 32.0212H200.118C200.142 32.4138 200.25 32.7273 200.443 32.9617C200.643 33.1902 200.889 33.3572 201.182 33.4626C201.48 33.5623 201.788 33.6121 202.104 33.6121C202.485 33.6121 202.805 33.5623 203.062 33.4626C203.32 33.3572 203.517 33.2166 203.651 33.0408C203.786 32.8591 203.854 32.6541 203.854 32.4255Z" fill="white"/>
<defs>
<clipPath id="clip0_110_141">
<rect width="28" height="28" fill="white" transform="translate(242 16.0007)"/>
</clipPath>
</defs>
</svg>
