<svg width="1057" height="185" viewBox="0 0 1057 185" fill="none" xmlns="http://www.w3.org/2000/svg">
<rect x="49" width="1008" height="185" rx="36" fill="#0084D5"/>
<path d="M306.832 71.0479H311.397C311.276 72.6637 310.827 74.097 310.053 75.3477C309.278 76.5872 308.199 77.5612 306.815 78.2695C305.432 78.9779 303.755 79.332 301.785 79.332C300.269 79.332 298.902 79.0664 297.685 78.5352C296.478 77.9928 295.443 77.2236 294.58 76.2275C293.728 75.2204 293.075 74.014 292.621 72.6084C292.167 71.1917 291.94 69.6035 291.94 67.8438V66.001C291.94 64.2412 292.173 62.653 292.638 61.2363C293.103 59.8197 293.767 58.6133 294.63 57.6172C295.504 56.61 296.55 55.8353 297.768 55.293C298.996 54.7507 300.368 54.4795 301.885 54.4795C303.855 54.4795 305.521 54.8447 306.882 55.5752C308.243 56.2946 309.3 57.2852 310.053 58.5469C310.805 59.8086 311.259 61.2585 311.414 62.8965H306.849C306.76 61.8783 306.539 61.015 306.185 60.3066C305.841 59.5983 305.321 59.0615 304.624 58.6963C303.938 58.32 303.025 58.1318 301.885 58.1318C300.999 58.1318 300.219 58.2979 299.544 58.6299C298.88 58.9619 298.326 59.46 297.884 60.124C297.441 60.777 297.109 61.596 296.888 62.5811C296.666 63.555 296.556 64.6839 296.556 65.9678V67.8438C296.556 69.0723 296.655 70.1735 296.854 71.1475C297.054 72.1214 297.364 72.946 297.784 73.6211C298.205 74.2962 298.747 74.8109 299.411 75.165C300.075 75.5192 300.867 75.6963 301.785 75.6963C302.903 75.6963 303.811 75.5192 304.508 75.165C305.216 74.8109 305.753 74.2907 306.118 73.6045C306.494 72.9183 306.732 72.0661 306.832 71.0479ZM313.821 70.2012V69.8525C313.821 68.5355 314.009 67.3236 314.386 66.2168C314.762 65.099 315.31 64.1305 316.029 63.3115C316.749 62.4925 317.629 61.8561 318.669 61.4023C319.709 60.9375 320.894 60.7051 322.222 60.7051C323.572 60.7051 324.767 60.9375 325.808 61.4023C326.859 61.8561 327.744 62.4925 328.464 63.3115C329.183 64.1305 329.731 65.099 330.107 66.2168C330.484 67.3236 330.672 68.5355 330.672 69.8525V70.2012C330.672 71.5072 330.484 72.7191 330.107 73.8369C329.731 74.9437 329.183 75.9121 328.464 76.7422C327.744 77.5612 326.865 78.1976 325.824 78.6514C324.784 79.1051 323.594 79.332 322.255 79.332C320.927 79.332 319.737 79.1051 318.686 78.6514C317.634 78.1976 316.749 77.5612 316.029 76.7422C315.31 75.9121 314.762 74.9437 314.386 73.8369C314.009 72.7191 313.821 71.5072 313.821 70.2012ZM318.204 69.8525V70.2012C318.204 70.987 318.282 71.723 318.437 72.4092C318.591 73.0954 318.829 73.6986 319.15 74.2188C319.471 74.7389 319.886 75.1484 320.396 75.4473C320.916 75.735 321.535 75.8789 322.255 75.8789C322.963 75.8789 323.572 75.735 324.081 75.4473C324.59 75.1484 325.005 74.7389 325.326 74.2188C325.658 73.6986 325.902 73.0954 326.057 72.4092C326.212 71.723 326.289 70.987 326.289 70.2012V69.8525C326.289 69.0778 326.212 68.3529 326.057 67.6777C325.902 66.9915 325.658 66.3883 325.326 65.8682C325.005 65.3369 324.585 64.9219 324.064 64.623C323.555 64.3132 322.941 64.1582 322.222 64.1582C321.513 64.1582 320.905 64.3132 320.396 64.623C319.886 64.9219 319.471 65.3369 319.15 65.8682C318.829 66.3883 318.591 66.9915 318.437 67.6777C318.282 68.3529 318.204 69.0778 318.204 69.8525ZM338.508 53.5V79H334.108V53.5H338.508ZM352.586 75.1816V66.8975C352.586 66.2887 352.481 65.763 352.271 65.3203C352.06 64.8776 351.739 64.5345 351.308 64.291C350.876 64.0475 350.328 63.9258 349.664 63.9258C349.077 63.9258 348.563 64.0254 348.12 64.2246C347.688 64.4238 347.356 64.7061 347.124 65.0713C346.892 65.4255 346.775 65.835 346.775 66.2998H342.376C342.376 65.5583 342.553 64.8555 342.907 64.1914C343.261 63.5163 343.765 62.9186 344.418 62.3984C345.082 61.8672 345.873 61.4521 346.792 61.1533C347.722 60.8545 348.762 60.7051 349.913 60.7051C351.274 60.7051 352.486 60.9375 353.549 61.4023C354.622 61.8561 355.464 62.5423 356.072 63.4609C356.692 64.3796 357.002 65.5361 357.002 66.9307V74.7666C357.002 75.6631 357.057 76.4323 357.168 77.0742C357.29 77.7051 357.467 78.2529 357.699 78.7178V79H353.233C353.023 78.5462 352.863 77.9707 352.752 77.2734C352.641 76.5651 352.586 75.8678 352.586 75.1816ZM353.2 68.0596L353.233 70.666H350.461C349.775 70.666 349.172 70.738 348.651 70.8818C348.131 71.0146 347.705 71.2139 347.373 71.4795C347.041 71.734 346.792 72.0439 346.626 72.4092C346.46 72.7633 346.377 73.1673 346.377 73.6211C346.377 74.0638 346.477 74.4622 346.676 74.8164C346.886 75.1706 347.185 75.4528 347.572 75.6631C347.971 75.8623 348.436 75.9619 348.967 75.9619C349.742 75.9619 350.417 75.807 350.992 75.4971C351.568 75.1761 352.016 74.7887 352.337 74.335C352.658 73.8812 352.829 73.4495 352.852 73.04L354.113 74.9326C353.958 75.3864 353.726 75.8678 353.416 76.377C353.106 76.8861 352.708 77.362 352.221 77.8047C351.734 78.2474 351.147 78.6126 350.461 78.9004C349.775 79.1882 348.978 79.332 348.07 79.332C346.908 79.332 345.868 79.0996 344.949 78.6348C344.031 78.1699 343.306 77.5335 342.774 76.7256C342.243 75.9176 341.978 74.999 341.978 73.9697C341.978 73.0179 342.155 72.1768 342.509 71.4463C342.863 70.7158 343.389 70.1016 344.086 69.6035C344.783 69.0944 345.646 68.7126 346.676 68.458C347.716 68.1924 348.906 68.0596 350.245 68.0596H353.2ZM360.937 53.5H365.336V75.0322L364.904 79H360.937V53.5ZM376.891 69.8359V70.1846C376.891 71.5238 376.741 72.7523 376.442 73.8701C376.155 74.988 375.717 75.9564 375.131 76.7754C374.544 77.5833 373.814 78.2142 372.939 78.668C372.076 79.1107 371.063 79.332 369.901 79.332C368.795 79.332 367.832 79.1162 367.013 78.6846C366.205 78.2529 365.524 77.6442 364.971 76.8584C364.417 76.0615 363.975 75.1263 363.643 74.0527C363.311 72.9681 363.062 71.7839 362.896 70.5V69.5537C363.062 68.2588 363.311 67.0745 363.643 66.001C363.975 64.9274 364.417 63.9922 364.971 63.1953C365.524 62.3984 366.205 61.7842 367.013 61.3525C367.821 60.9209 368.772 60.7051 369.868 60.7051C371.041 60.7051 372.065 60.932 372.939 61.3857C373.825 61.8285 374.555 62.4593 375.131 63.2783C375.717 64.0863 376.155 65.0492 376.442 66.167C376.741 67.2738 376.891 68.4967 376.891 69.8359ZM372.491 70.1846V69.8359C372.491 69.0723 372.43 68.3529 372.309 67.6777C372.187 66.9915 371.988 66.3883 371.711 65.8682C371.434 65.348 371.058 64.9385 370.582 64.6396C370.106 64.3408 369.508 64.1914 368.789 64.1914C368.103 64.1914 367.516 64.3076 367.029 64.54C366.553 64.7725 366.155 65.0934 365.834 65.5029C365.524 65.9124 365.281 66.3939 365.104 66.9473C364.938 67.5007 364.827 68.0983 364.771 68.7402V71.3301C364.849 72.1823 365.032 72.9515 365.319 73.6377C365.607 74.3128 366.033 74.8496 366.598 75.248C367.173 75.6465 367.915 75.8457 368.822 75.8457C369.531 75.8457 370.123 75.7074 370.599 75.4307C371.075 75.1429 371.451 74.7445 371.728 74.2354C372.004 73.7152 372.198 73.112 372.309 72.4258C372.43 71.7396 372.491 70.9925 372.491 70.1846ZM379.298 70.2012V69.8525C379.298 68.5355 379.486 67.3236 379.862 66.2168C380.239 65.099 380.786 64.1305 381.506 63.3115C382.225 62.4925 383.105 61.8561 384.146 61.4023C385.186 60.9375 386.37 60.7051 387.698 60.7051C389.049 60.7051 390.244 60.9375 391.284 61.4023C392.336 61.8561 393.221 62.4925 393.94 63.3115C394.66 64.1305 395.208 65.099 395.584 66.2168C395.96 67.3236 396.148 68.5355 396.148 69.8525V70.2012C396.148 71.5072 395.96 72.7191 395.584 73.8369C395.208 74.9437 394.66 75.9121 393.94 76.7422C393.221 77.5612 392.341 78.1976 391.301 78.6514C390.26 79.1051 389.071 79.332 387.731 79.332C386.403 79.332 385.214 79.1051 384.162 78.6514C383.111 78.1976 382.225 77.5612 381.506 76.7422C380.786 75.9121 380.239 74.9437 379.862 73.8369C379.486 72.7191 379.298 71.5072 379.298 70.2012ZM383.681 69.8525V70.2012C383.681 70.987 383.758 71.723 383.913 72.4092C384.068 73.0954 384.306 73.6986 384.627 74.2188C384.948 74.7389 385.363 75.1484 385.872 75.4473C386.392 75.735 387.012 75.8789 387.731 75.8789C388.44 75.8789 389.049 75.735 389.558 75.4473C390.067 75.1484 390.482 74.7389 390.803 74.2188C391.135 73.6986 391.378 73.0954 391.533 72.4092C391.688 71.723 391.766 70.987 391.766 70.2012V69.8525C391.766 69.0778 391.688 68.3529 391.533 67.6777C391.378 66.9915 391.135 66.3883 390.803 65.8682C390.482 65.3369 390.061 64.9219 389.541 64.623C389.032 64.3132 388.418 64.1582 387.698 64.1582C386.99 64.1582 386.381 64.3132 385.872 64.623C385.363 64.9219 384.948 65.3369 384.627 65.8682C384.306 66.3883 384.068 66.9915 383.913 67.6777C383.758 68.3529 383.681 69.0778 383.681 69.8525ZM403.719 64.7061V79H399.336V61.0371H403.486L403.719 64.7061ZM409.181 60.9209L409.114 65.0049C408.871 64.9606 408.594 64.9274 408.284 64.9053C407.985 64.8831 407.703 64.8721 407.438 64.8721C406.762 64.8721 406.17 64.9661 405.661 65.1543C405.152 65.3314 404.726 65.5915 404.383 65.9346C404.051 66.2777 403.796 66.6982 403.619 67.1963C403.442 67.6833 403.342 68.2367 403.32 68.8564L402.374 68.7402C402.374 67.6003 402.49 66.5433 402.723 65.5693C402.955 64.5954 403.293 63.7432 403.735 63.0127C404.178 62.2822 404.731 61.7178 405.396 61.3193C406.071 60.9098 406.845 60.7051 407.72 60.7051C407.963 60.7051 408.223 60.7272 408.5 60.7715C408.788 60.8047 409.015 60.8545 409.181 60.9209ZM420.918 75.1816V66.8975C420.918 66.2887 420.813 65.763 420.603 65.3203C420.392 64.8776 420.071 64.5345 419.64 64.291C419.208 64.0475 418.66 63.9258 417.996 63.9258C417.41 63.9258 416.895 64.0254 416.452 64.2246C416.021 64.4238 415.688 64.7061 415.456 65.0713C415.224 65.4255 415.107 65.835 415.107 66.2998H410.708C410.708 65.5583 410.885 64.8555 411.239 64.1914C411.593 63.5163 412.097 62.9186 412.75 62.3984C413.414 61.8672 414.205 61.4521 415.124 61.1533C416.054 60.8545 417.094 60.7051 418.245 60.7051C419.606 60.7051 420.818 60.9375 421.881 61.4023C422.954 61.8561 423.796 62.5423 424.404 63.4609C425.024 64.3796 425.334 65.5361 425.334 66.9307V74.7666C425.334 75.6631 425.389 76.4323 425.5 77.0742C425.622 77.7051 425.799 78.2529 426.031 78.7178V79H421.565C421.355 78.5462 421.195 77.9707 421.084 77.2734C420.973 76.5651 420.918 75.8678 420.918 75.1816ZM421.532 68.0596L421.565 70.666H418.793C418.107 70.666 417.504 70.738 416.983 70.8818C416.463 71.0146 416.037 71.2139 415.705 71.4795C415.373 71.734 415.124 72.0439 414.958 72.4092C414.792 72.7633 414.709 73.1673 414.709 73.6211C414.709 74.0638 414.809 74.4622 415.008 74.8164C415.218 75.1706 415.517 75.4528 415.904 75.6631C416.303 75.8623 416.768 75.9619 417.299 75.9619C418.074 75.9619 418.749 75.807 419.324 75.4971C419.9 75.1761 420.348 74.7887 420.669 74.335C420.99 73.8812 421.161 73.4495 421.184 73.04L422.445 74.9326C422.29 75.3864 422.058 75.8678 421.748 76.377C421.438 76.8861 421.04 77.362 420.553 77.8047C420.066 78.2474 419.479 78.6126 418.793 78.9004C418.107 79.1882 417.31 79.332 416.402 79.332C415.24 79.332 414.2 79.0996 413.281 78.6348C412.363 78.1699 411.638 77.5335 411.106 76.7256C410.575 75.9176 410.31 74.999 410.31 73.9697C410.31 73.0179 410.487 72.1768 410.841 71.4463C411.195 70.7158 411.721 70.1016 412.418 69.6035C413.115 69.0944 413.979 68.7126 415.008 68.458C416.048 68.1924 417.238 68.0596 418.577 68.0596H421.532ZM440.06 75.1816V53.5H444.476V79H440.491L440.06 75.1816ZM428.521 70.2344V69.8857C428.521 68.5133 428.676 67.2682 428.986 66.1504C429.307 65.0215 429.772 64.0531 430.381 63.2451C430.99 62.4372 431.726 61.8118 432.589 61.3691C433.463 60.9264 434.454 60.7051 435.561 60.7051C436.634 60.7051 437.569 60.9209 438.366 61.3525C439.174 61.7842 439.86 62.3984 440.425 63.1953C441 63.9922 441.46 64.9385 441.803 66.0342C442.146 67.1188 442.395 68.3141 442.55 69.6201V70.5664C442.395 71.8392 442.146 73.0068 441.803 74.0693C441.46 75.1318 441 76.0615 440.425 76.8584C439.86 77.6442 439.174 78.2529 438.366 78.6846C437.558 79.1162 436.612 79.332 435.527 79.332C434.432 79.332 433.447 79.1051 432.572 78.6514C431.709 78.1976 430.973 77.5612 430.364 76.7422C429.767 75.9232 429.307 74.9603 428.986 73.8535C428.676 72.7467 428.521 71.5404 428.521 70.2344ZM432.921 69.8857V70.2344C432.921 71.0091 432.987 71.734 433.12 72.4092C433.253 73.0843 433.469 73.682 433.768 74.2021C434.066 74.7113 434.448 75.1097 434.913 75.3975C435.389 75.6852 435.965 75.8291 436.64 75.8291C437.503 75.8291 438.211 75.641 438.765 75.2646C439.329 74.8773 439.766 74.3516 440.076 73.6875C440.386 73.0124 440.585 72.2542 440.674 71.4131V68.8066C440.63 68.1426 440.513 67.5283 440.325 66.9639C440.148 66.3994 439.894 65.9124 439.562 65.5029C439.241 65.0934 438.842 64.7725 438.366 64.54C437.89 64.3076 437.326 64.1914 436.673 64.1914C435.998 64.1914 435.422 64.3408 434.946 64.6396C434.47 64.9274 434.083 65.3314 433.784 65.8516C433.485 66.3717 433.264 66.9749 433.12 67.6611C432.987 68.3473 432.921 69.0889 432.921 69.8857ZM447.663 70.2012V69.8525C447.663 68.5355 447.851 67.3236 448.228 66.2168C448.604 65.099 449.152 64.1305 449.871 63.3115C450.59 62.4925 451.47 61.8561 452.511 61.4023C453.551 60.9375 454.735 60.7051 456.063 60.7051C457.414 60.7051 458.609 60.9375 459.649 61.4023C460.701 61.8561 461.586 62.4925 462.306 63.3115C463.025 64.1305 463.573 65.099 463.949 66.2168C464.326 67.3236 464.514 68.5355 464.514 69.8525V70.2012C464.514 71.5072 464.326 72.7191 463.949 73.8369C463.573 74.9437 463.025 75.9121 462.306 76.7422C461.586 77.5612 460.706 78.1976 459.666 78.6514C458.626 79.1051 457.436 79.332 456.097 79.332C454.769 79.332 453.579 79.1051 452.527 78.6514C451.476 78.1976 450.59 77.5612 449.871 76.7422C449.152 75.9121 448.604 74.9437 448.228 73.8369C447.851 72.7191 447.663 71.5072 447.663 70.2012ZM452.046 69.8525V70.2012C452.046 70.987 452.123 71.723 452.278 72.4092C452.433 73.0954 452.671 73.6986 452.992 74.2188C453.313 74.7389 453.728 75.1484 454.237 75.4473C454.757 75.735 455.377 75.8789 456.097 75.8789C456.805 75.8789 457.414 75.735 457.923 75.4473C458.432 75.1484 458.847 74.7389 459.168 74.2188C459.5 73.6986 459.743 73.0954 459.898 72.4092C460.053 71.723 460.131 70.987 460.131 70.2012V69.8525C460.131 69.0778 460.053 68.3529 459.898 67.6777C459.743 66.9915 459.5 66.3883 459.168 65.8682C458.847 65.3369 458.426 64.9219 457.906 64.623C457.397 64.3132 456.783 64.1582 456.063 64.1582C455.355 64.1582 454.746 64.3132 454.237 64.623C453.728 64.9219 453.313 65.3369 452.992 65.8682C452.671 66.3883 452.433 66.9915 452.278 67.6777C452.123 68.3529 452.046 69.0778 452.046 69.8525ZM472.084 64.7061V79H467.701V61.0371H471.852L472.084 64.7061ZM477.546 60.9209L477.479 65.0049C477.236 64.9606 476.959 64.9274 476.649 64.9053C476.351 64.8831 476.068 64.8721 475.803 64.8721C475.128 64.8721 474.535 64.9661 474.026 65.1543C473.517 65.3314 473.091 65.5915 472.748 65.9346C472.416 66.2777 472.161 66.6982 471.984 67.1963C471.807 67.6833 471.708 68.2367 471.686 68.8564L470.739 68.7402C470.739 67.6003 470.855 66.5433 471.088 65.5693C471.32 64.5954 471.658 63.7432 472.101 63.0127C472.543 62.2822 473.097 61.7178 473.761 61.3193C474.436 60.9098 475.211 60.7051 476.085 60.7051C476.328 60.7051 476.589 60.7272 476.865 60.7715C477.153 60.8047 477.38 60.8545 477.546 60.9209ZM487.689 79.332C486.328 79.332 485.105 79.1107 484.021 78.668C482.936 78.2253 482.012 77.611 481.248 76.8252C480.495 76.0283 479.914 75.1042 479.505 74.0527C479.106 72.9902 478.907 71.8503 478.907 70.6328V69.9688C478.907 68.5853 479.106 67.3291 479.505 66.2002C479.903 65.0602 480.468 64.0807 481.198 63.2617C481.929 62.4427 482.803 61.8118 483.821 61.3691C484.84 60.9264 485.963 60.7051 487.191 60.7051C488.464 60.7051 489.588 60.9209 490.562 61.3525C491.535 61.7731 492.349 62.3708 493.002 63.1455C493.655 63.9202 494.147 64.8499 494.479 65.9346C494.812 67.0081 494.978 68.1979 494.978 69.5039V71.3467H480.899V68.3252H490.661V67.9932C490.639 67.2959 490.506 66.6595 490.263 66.084C490.019 65.4974 489.643 65.0326 489.134 64.6895C488.625 64.3353 487.966 64.1582 487.158 64.1582C486.505 64.1582 485.935 64.3021 485.448 64.5898C484.972 64.8665 484.574 65.265 484.253 65.7852C483.943 66.2943 483.711 66.903 483.556 67.6113C483.401 68.3197 483.323 69.1055 483.323 69.9688V70.6328C483.323 71.3854 483.423 72.0827 483.622 72.7246C483.832 73.3665 484.137 73.9255 484.535 74.4014C484.945 74.8662 485.432 75.2314 485.996 75.4971C486.572 75.7516 487.225 75.8789 487.955 75.8789C488.874 75.8789 489.704 75.7018 490.445 75.3477C491.198 74.9824 491.851 74.4456 492.404 73.7373L494.612 76.0283C494.236 76.5817 493.727 77.113 493.085 77.6221C492.454 78.1312 491.69 78.5462 490.794 78.8672C489.897 79.1771 488.863 79.332 487.689 79.332ZM507.794 74.0859C507.794 73.7096 507.694 73.3721 507.495 73.0732C507.296 72.7744 506.92 72.5033 506.366 72.2598C505.824 72.0052 505.027 71.7673 503.976 71.5459C503.046 71.3467 502.188 71.0977 501.402 70.7988C500.617 70.5 499.941 70.1403 499.377 69.7197C498.812 69.2881 498.37 68.7845 498.049 68.209C497.739 67.6224 497.584 66.9473 497.584 66.1836C497.584 65.4421 497.744 64.7448 498.065 64.0918C498.386 63.4277 498.851 62.8467 499.46 62.3486C500.069 61.8395 500.81 61.4411 501.685 61.1533C502.559 60.8545 503.544 60.7051 504.64 60.7051C506.167 60.7051 507.479 60.9541 508.574 61.4521C509.681 61.9502 510.528 62.6364 511.114 63.5107C511.701 64.374 511.994 65.348 511.994 66.4326H507.611C507.611 65.9567 507.501 65.5251 507.279 65.1377C507.069 64.7503 506.743 64.4404 506.3 64.208C505.857 63.9645 505.298 63.8428 504.623 63.8428C504.014 63.8428 503.5 63.9424 503.079 64.1416C502.67 64.3408 502.36 64.6009 502.149 64.9219C501.939 65.2428 501.834 65.597 501.834 65.9844C501.834 66.2721 501.889 66.5322 502 66.7646C502.122 66.986 502.315 67.1908 502.581 67.3789C502.847 67.5671 503.206 67.7386 503.66 67.8936C504.125 68.0485 504.695 68.1979 505.37 68.3418C506.709 68.6074 507.877 68.9616 508.873 69.4043C509.88 69.8359 510.666 70.4115 511.23 71.1309C511.795 71.8503 512.077 72.7689 512.077 73.8867C512.077 74.6836 511.906 75.4141 511.562 76.0781C511.219 76.7311 510.721 77.3011 510.068 77.7881C509.415 78.2751 508.635 78.6569 507.728 78.9336C506.82 79.1992 505.796 79.332 504.656 79.332C503.007 79.332 501.613 79.0387 500.473 78.4521C499.333 77.8545 498.469 77.1019 497.883 76.1943C497.296 75.2757 497.003 74.3239 497.003 73.3389H501.203C501.236 74.0361 501.424 74.5951 501.768 75.0156C502.111 75.4362 502.542 75.7406 503.062 75.9287C503.594 76.1058 504.153 76.1943 504.739 76.1943C505.403 76.1943 505.962 76.1058 506.416 75.9287C506.87 75.7406 507.213 75.4915 507.445 75.1816C507.678 74.8607 507.794 74.4954 507.794 74.0859ZM534.655 75.1816V53.5H539.071V79H535.087L534.655 75.1816ZM523.117 70.2344V69.8857C523.117 68.5133 523.272 67.2682 523.582 66.1504C523.903 65.0215 524.368 64.0531 524.977 63.2451C525.585 62.4372 526.321 61.8118 527.185 61.3691C528.059 60.9264 529.049 60.7051 530.156 60.7051C531.23 60.7051 532.165 60.9209 532.962 61.3525C533.77 61.7842 534.456 62.3984 535.021 63.1953C535.596 63.9922 536.055 64.9385 536.398 66.0342C536.742 67.1188 536.991 68.3141 537.146 69.6201V70.5664C536.991 71.8392 536.742 73.0068 536.398 74.0693C536.055 75.1318 535.596 76.0615 535.021 76.8584C534.456 77.6442 533.77 78.2529 532.962 78.6846C532.154 79.1162 531.208 79.332 530.123 79.332C529.027 79.332 528.042 79.1051 527.168 78.6514C526.305 78.1976 525.569 77.5612 524.96 76.7422C524.362 75.9232 523.903 74.9603 523.582 73.8535C523.272 72.7467 523.117 71.5404 523.117 70.2344ZM527.517 69.8857V70.2344C527.517 71.0091 527.583 71.734 527.716 72.4092C527.849 73.0843 528.064 73.682 528.363 74.2021C528.662 74.7113 529.044 75.1097 529.509 75.3975C529.985 75.6852 530.56 75.8291 531.235 75.8291C532.099 75.8291 532.807 75.641 533.36 75.2646C533.925 74.8773 534.362 74.3516 534.672 73.6875C534.982 73.0124 535.181 72.2542 535.27 71.4131V68.8066C535.225 68.1426 535.109 67.5283 534.921 66.9639C534.744 66.3994 534.489 65.9124 534.157 65.5029C533.836 65.0934 533.438 64.7725 532.962 64.54C532.486 64.3076 531.922 64.1914 531.269 64.1914C530.593 64.1914 530.018 64.3408 529.542 64.6396C529.066 64.9274 528.679 65.3314 528.38 65.8516C528.081 66.3717 527.86 66.9749 527.716 67.6611C527.583 68.3473 527.517 69.0889 527.517 69.8857ZM552.934 75.1816V66.8975C552.934 66.2887 552.828 65.763 552.618 65.3203C552.408 64.8776 552.087 64.5345 551.655 64.291C551.224 64.0475 550.676 63.9258 550.012 63.9258C549.425 63.9258 548.91 64.0254 548.468 64.2246C548.036 64.4238 547.704 64.7061 547.472 65.0713C547.239 65.4255 547.123 65.835 547.123 66.2998H542.724C542.724 65.5583 542.901 64.8555 543.255 64.1914C543.609 63.5163 544.113 62.9186 544.766 62.3984C545.43 61.8672 546.221 61.4521 547.14 61.1533C548.069 60.8545 549.11 60.7051 550.261 60.7051C551.622 60.7051 552.834 60.9375 553.896 61.4023C554.97 61.8561 555.811 62.5423 556.42 63.4609C557.04 64.3796 557.35 65.5361 557.35 66.9307V74.7666C557.35 75.6631 557.405 76.4323 557.516 77.0742C557.637 77.7051 557.814 78.2529 558.047 78.7178V79H553.581C553.371 78.5462 553.21 77.9707 553.1 77.2734C552.989 76.5651 552.934 75.8678 552.934 75.1816ZM553.548 68.0596L553.581 70.666H550.809C550.122 70.666 549.519 70.738 548.999 70.8818C548.479 71.0146 548.053 71.2139 547.721 71.4795C547.389 71.734 547.14 72.0439 546.974 72.4092C546.808 72.7633 546.725 73.1673 546.725 73.6211C546.725 74.0638 546.824 74.4622 547.023 74.8164C547.234 75.1706 547.533 75.4528 547.92 75.6631C548.318 75.8623 548.783 75.9619 549.314 75.9619C550.089 75.9619 550.764 75.807 551.34 75.4971C551.915 75.1761 552.364 74.7887 552.685 74.335C553.006 73.8812 553.177 73.4495 553.199 73.04L554.461 74.9326C554.306 75.3864 554.074 75.8678 553.764 76.377C553.454 76.8861 553.055 77.362 552.568 77.8047C552.081 78.2474 551.495 78.6126 550.809 78.9004C550.122 79.1882 549.326 79.332 548.418 79.332C547.256 79.332 546.215 79.0996 545.297 78.6348C544.378 78.1699 543.653 77.5335 543.122 76.7256C542.591 75.9176 542.325 74.999 542.325 73.9697C542.325 73.0179 542.502 72.1768 542.856 71.4463C543.211 70.7158 543.736 70.1016 544.434 69.6035C545.131 69.0944 545.994 68.7126 547.023 68.458C548.064 68.1924 549.254 68.0596 550.593 68.0596H553.548ZM573.735 54.8281L578.566 63.4443L583.414 54.8281H588.66L581.488 66.8145L588.843 79H583.547L578.566 70.2178L573.603 79H568.29L575.645 66.8145L568.473 54.8281H573.735ZM595.699 64.4902V85.9062H591.3V61.0371H595.367L595.699 64.4902ZM607.237 69.8359V70.1846C607.237 71.4906 607.082 72.7025 606.772 73.8203C606.474 74.9271 606.031 75.8955 605.444 76.7256C604.858 77.5446 604.127 78.1865 603.253 78.6514C602.39 79.1051 601.394 79.332 600.265 79.332C599.158 79.332 598.195 79.1217 597.376 78.7012C596.557 78.2695 595.865 77.6608 595.301 76.875C594.736 76.0892 594.283 75.1761 593.939 74.1357C593.607 73.0843 593.358 71.9388 593.192 70.6992V69.5869C593.358 68.2699 593.607 67.0745 593.939 66.001C594.283 64.9163 594.736 63.9811 595.301 63.1953C595.865 62.3984 596.551 61.7842 597.359 61.3525C598.178 60.9209 599.136 60.7051 600.231 60.7051C601.371 60.7051 602.373 60.9209 603.236 61.3525C604.111 61.7842 604.847 62.404 605.444 63.2119C606.042 64.0199 606.49 64.9827 606.789 66.1006C607.088 67.2184 607.237 68.4635 607.237 69.8359ZM602.838 70.1846V69.8359C602.838 69.0391 602.766 68.3031 602.622 67.6279C602.478 66.9417 602.257 66.3441 601.958 65.835C601.659 65.3148 601.272 64.9108 600.796 64.623C600.32 64.3353 599.744 64.1914 599.069 64.1914C598.394 64.1914 597.813 64.3021 597.326 64.5234C596.839 64.7448 596.441 65.0602 596.131 65.4697C595.821 65.8792 595.577 66.3662 595.4 66.9307C595.234 67.484 595.124 68.0983 595.068 68.7734V71.5293C595.168 72.3483 595.362 73.0843 595.649 73.7373C595.937 74.3903 596.358 74.9105 596.911 75.2979C597.476 75.6852 598.206 75.8789 599.103 75.8789C599.778 75.8789 600.353 75.7295 600.829 75.4307C601.305 75.1318 601.692 74.7223 601.991 74.2021C602.29 73.6709 602.506 73.0622 602.639 72.376C602.771 71.6898 602.838 70.9593 602.838 70.1846ZM626.279 75.8789C626.899 75.8789 627.452 75.7572 627.939 75.5137C628.426 75.2702 628.814 74.9271 629.102 74.4844C629.4 74.0417 629.561 73.527 629.583 72.9404H633.717C633.695 74.1579 633.352 75.248 632.688 76.2109C632.023 77.1738 631.138 77.9375 630.031 78.502C628.936 79.0553 627.707 79.332 626.346 79.332C624.962 79.332 623.756 79.0996 622.727 78.6348C621.697 78.1699 620.84 77.5225 620.153 76.6924C619.478 75.8623 618.969 74.8994 618.626 73.8037C618.294 72.708 618.128 71.5348 618.128 70.2842V69.7529C618.128 68.5023 618.294 67.3291 618.626 66.2334C618.969 65.1377 619.478 64.1748 620.153 63.3447C620.84 62.5146 621.697 61.8672 622.727 61.4023C623.756 60.9375 624.957 60.7051 626.329 60.7051C627.779 60.7051 629.052 60.9873 630.147 61.5518C631.254 62.1162 632.118 62.9131 632.737 63.9424C633.368 64.9717 633.695 66.1836 633.717 67.5781H629.583C629.561 66.9362 629.417 66.3607 629.151 65.8516C628.886 65.3424 628.509 64.9329 628.022 64.623C627.535 64.3132 626.943 64.1582 626.246 64.1582C625.505 64.1582 624.885 64.3132 624.387 64.623C623.9 64.9329 623.518 65.359 623.241 65.9014C622.976 66.4326 622.787 67.0303 622.677 67.6943C622.577 68.3473 622.527 69.0335 622.527 69.7529V70.2842C622.527 71.0146 622.577 71.7119 622.677 72.376C622.787 73.04 622.976 73.6377 623.241 74.1689C623.518 74.6891 623.9 75.1042 624.387 75.4141C624.885 75.724 625.516 75.8789 626.279 75.8789ZM635.858 70.2012V69.8525C635.858 68.5355 636.047 67.3236 636.423 66.2168C636.799 65.099 637.347 64.1305 638.066 63.3115C638.786 62.4925 639.666 61.8561 640.706 61.4023C641.746 60.9375 642.931 60.7051 644.259 60.7051C645.609 60.7051 646.804 60.9375 647.845 61.4023C648.896 61.8561 649.782 62.4925 650.501 63.3115C651.22 64.1305 651.768 65.099 652.145 66.2168C652.521 67.3236 652.709 68.5355 652.709 69.8525V70.2012C652.709 71.5072 652.521 72.7191 652.145 73.8369C651.768 74.9437 651.22 75.9121 650.501 76.7422C649.782 77.5612 648.902 78.1976 647.861 78.6514C646.821 79.1051 645.631 79.332 644.292 79.332C642.964 79.332 641.774 79.1051 640.723 78.6514C639.671 78.1976 638.786 77.5612 638.066 76.7422C637.347 75.9121 636.799 74.9437 636.423 73.8369C636.047 72.7191 635.858 71.5072 635.858 70.2012ZM640.241 69.8525V70.2012C640.241 70.987 640.319 71.723 640.474 72.4092C640.629 73.0954 640.867 73.6986 641.188 74.2188C641.508 74.7389 641.924 75.1484 642.433 75.4473C642.953 75.735 643.573 75.8789 644.292 75.8789C645 75.8789 645.609 75.735 646.118 75.4473C646.627 75.1484 647.042 74.7389 647.363 74.2188C647.695 73.6986 647.939 73.0954 648.094 72.4092C648.249 71.723 648.326 70.987 648.326 70.2012V69.8525C648.326 69.0778 648.249 68.3529 648.094 67.6777C647.939 66.9915 647.695 66.3883 647.363 65.8682C647.042 65.3369 646.622 64.9219 646.102 64.623C645.592 64.3132 644.978 64.1582 644.259 64.1582C643.55 64.1582 642.942 64.3132 642.433 64.623C641.924 64.9219 641.508 65.3369 641.188 65.8682C640.867 66.3883 640.629 66.9915 640.474 67.6777C640.319 68.3529 640.241 69.0778 640.241 69.8525ZM660.196 64.8721V79H655.813V61.0371H659.931L660.196 64.8721ZM659.499 69.3711H658.204C658.215 68.0651 658.392 66.8809 658.735 65.8184C659.078 64.7559 659.56 63.8428 660.18 63.0791C660.811 62.3154 661.558 61.7288 662.421 61.3193C663.284 60.9098 664.247 60.7051 665.31 60.7051C666.173 60.7051 666.953 60.8268 667.65 61.0703C668.348 61.3138 668.945 61.7012 669.443 62.2324C669.952 62.7637 670.34 63.4609 670.605 64.3242C670.882 65.1764 671.021 66.2279 671.021 67.4785V79H666.604V67.4453C666.604 66.6263 666.483 65.9788 666.239 65.5029C666.007 65.027 665.664 64.6895 665.21 64.4902C664.767 64.291 664.219 64.1914 663.566 64.1914C662.891 64.1914 662.299 64.3298 661.79 64.6064C661.292 64.8721 660.871 65.2428 660.528 65.7188C660.196 66.1947 659.942 66.7425 659.765 67.3623C659.588 67.9821 659.499 68.6517 659.499 69.3711ZM683.389 61.0371V64.1914H673.096V61.0371H683.389ZM675.852 56.6211H680.251V73.8203C680.251 74.3516 680.323 74.7611 680.467 75.0488C680.611 75.3366 680.826 75.5303 681.114 75.6299C681.402 75.7295 681.745 75.7793 682.144 75.7793C682.431 75.7793 682.697 75.7627 682.94 75.7295C683.184 75.6963 683.389 75.6631 683.555 75.6299L683.571 78.917C683.206 79.0387 682.791 79.1383 682.326 79.2158C681.872 79.2933 681.358 79.332 680.782 79.332C679.797 79.332 678.934 79.166 678.192 78.834C677.451 78.4909 676.875 77.943 676.466 77.1904C676.056 76.4268 675.852 75.4196 675.852 74.1689V56.6211ZM696.205 75.1816V66.8975C696.205 66.2887 696.1 65.763 695.89 65.3203C695.679 64.8776 695.358 64.5345 694.927 64.291C694.495 64.0475 693.947 63.9258 693.283 63.9258C692.697 63.9258 692.182 64.0254 691.739 64.2246C691.308 64.4238 690.976 64.7061 690.743 65.0713C690.511 65.4255 690.395 65.835 690.395 66.2998H685.995C685.995 65.5583 686.172 64.8555 686.526 64.1914C686.881 63.5163 687.384 62.9186 688.037 62.3984C688.701 61.8672 689.493 61.4521 690.411 61.1533C691.341 60.8545 692.381 60.7051 693.532 60.7051C694.894 60.7051 696.105 60.9375 697.168 61.4023C698.242 61.8561 699.083 62.5423 699.691 63.4609C700.311 64.3796 700.621 65.5361 700.621 66.9307V74.7666C700.621 75.6631 700.676 76.4323 700.787 77.0742C700.909 77.7051 701.086 78.2529 701.318 78.7178V79H696.853C696.642 78.5462 696.482 77.9707 696.371 77.2734C696.26 76.5651 696.205 75.8678 696.205 75.1816ZM696.819 68.0596L696.853 70.666H694.08C693.394 70.666 692.791 70.738 692.271 70.8818C691.75 71.0146 691.324 71.2139 690.992 71.4795C690.66 71.734 690.411 72.0439 690.245 72.4092C690.079 72.7633 689.996 73.1673 689.996 73.6211C689.996 74.0638 690.096 74.4622 690.295 74.8164C690.505 75.1706 690.804 75.4528 691.191 75.6631C691.59 75.8623 692.055 75.9619 692.586 75.9619C693.361 75.9619 694.036 75.807 694.611 75.4971C695.187 75.1761 695.635 74.7887 695.956 74.335C696.277 73.8812 696.449 73.4495 696.471 73.04L697.732 74.9326C697.577 75.3864 697.345 75.8678 697.035 76.377C696.725 76.8861 696.327 77.362 695.84 77.8047C695.353 78.2474 694.766 78.6126 694.08 78.9004C693.394 79.1882 692.597 79.332 691.689 79.332C690.527 79.332 689.487 79.0996 688.568 78.6348C687.65 78.1699 686.925 77.5335 686.394 76.7256C685.862 75.9176 685.597 74.999 685.597 73.9697C685.597 73.0179 685.774 72.1768 686.128 71.4463C686.482 70.7158 687.008 70.1016 687.705 69.6035C688.402 69.0944 689.266 68.7126 690.295 68.458C691.335 68.1924 692.525 68.0596 693.864 68.0596H696.819ZM708.938 64.7227V79H704.556V61.0371H708.689L708.938 64.7227ZM708.291 69.3711H706.946C706.946 68.1204 707.096 66.9694 707.395 65.918C707.704 64.8665 708.158 63.9535 708.756 63.1787C709.354 62.3929 710.09 61.7842 710.964 61.3525C711.849 60.9209 712.873 60.7051 714.035 60.7051C714.843 60.7051 715.585 60.8268 716.26 61.0703C716.935 61.3027 717.516 61.6735 718.003 62.1826C718.501 62.6807 718.883 63.3337 719.148 64.1416C719.414 64.9385 719.547 65.8958 719.547 67.0137V79H715.164V67.4619C715.164 66.6208 715.042 65.9622 714.799 65.4863C714.566 65.0104 714.229 64.6784 713.786 64.4902C713.343 64.291 712.812 64.1914 712.192 64.1914C711.506 64.1914 710.914 64.3298 710.416 64.6064C709.929 64.8721 709.525 65.2428 709.204 65.7188C708.894 66.1947 708.662 66.7425 708.507 67.3623C708.363 67.9821 708.291 68.6517 708.291 69.3711ZM719.215 68.5576L717.405 68.8896C717.416 67.7607 717.571 66.7038 717.87 65.7188C718.169 64.7227 718.606 63.8538 719.182 63.1123C719.768 62.3597 720.493 61.7731 721.356 61.3525C722.231 60.9209 723.238 60.7051 724.378 60.7051C725.263 60.7051 726.06 60.8324 726.769 61.0869C727.488 61.3304 728.102 61.7233 728.611 62.2656C729.12 62.7969 729.508 63.4886 729.773 64.3408C730.05 65.193 730.188 66.2334 730.188 67.4619V79H725.772V67.4453C725.772 66.571 725.651 65.9014 725.407 65.4365C725.175 64.9717 724.837 64.6507 724.395 64.4736C723.952 64.2855 723.432 64.1914 722.834 64.1914C722.225 64.1914 721.694 64.3076 721.24 64.54C720.798 64.7614 720.421 65.0713 720.111 65.4697C719.812 65.8682 719.586 66.333 719.431 66.8643C719.287 67.3844 719.215 67.9489 719.215 68.5576ZM749.961 75.8789C750.581 75.8789 751.134 75.7572 751.621 75.5137C752.108 75.2702 752.495 74.9271 752.783 74.4844C753.082 74.0417 753.243 73.527 753.265 72.9404H757.398C757.376 74.1579 757.033 75.248 756.369 76.2109C755.705 77.1738 754.82 77.9375 753.713 78.502C752.617 79.0553 751.389 79.332 750.027 79.332C748.644 79.332 747.438 79.0996 746.408 78.6348C745.379 78.1699 744.521 77.5225 743.835 76.6924C743.16 75.8623 742.651 74.8994 742.308 73.8037C741.976 72.708 741.81 71.5348 741.81 70.2842V69.7529C741.81 68.5023 741.976 67.3291 742.308 66.2334C742.651 65.1377 743.16 64.1748 743.835 63.3447C744.521 62.5146 745.379 61.8672 746.408 61.4023C747.438 60.9375 748.638 60.7051 750.011 60.7051C751.461 60.7051 752.733 60.9873 753.829 61.5518C754.936 62.1162 755.799 62.9131 756.419 63.9424C757.05 64.9717 757.376 66.1836 757.398 67.5781H753.265C753.243 66.9362 753.099 66.3607 752.833 65.8516C752.567 65.3424 752.191 64.9329 751.704 64.623C751.217 64.3132 750.625 64.1582 749.928 64.1582C749.186 64.1582 748.566 64.3132 748.068 64.623C747.581 64.9329 747.2 65.359 746.923 65.9014C746.657 66.4326 746.469 67.0303 746.358 67.6943C746.259 68.3473 746.209 69.0335 746.209 69.7529V70.2842C746.209 71.0146 746.259 71.7119 746.358 72.376C746.469 73.04 746.657 73.6377 746.923 74.1689C747.2 74.6891 747.581 75.1042 748.068 75.4141C748.566 75.724 749.197 75.8789 749.961 75.8789ZM759.54 70.2012V69.8525C759.54 68.5355 759.728 67.3236 760.104 66.2168C760.481 65.099 761.029 64.1305 761.748 63.3115C762.467 62.4925 763.347 61.8561 764.388 61.4023C765.428 60.9375 766.612 60.7051 767.94 60.7051C769.291 60.7051 770.486 60.9375 771.526 61.4023C772.578 61.8561 773.463 62.4925 774.183 63.3115C774.902 64.1305 775.45 65.099 775.826 66.2168C776.202 67.3236 776.391 68.5355 776.391 69.8525V70.2012C776.391 71.5072 776.202 72.7191 775.826 73.8369C775.45 74.9437 774.902 75.9121 774.183 76.7422C773.463 77.5612 772.583 78.1976 771.543 78.6514C770.503 79.1051 769.313 79.332 767.974 79.332C766.646 79.332 765.456 79.1051 764.404 78.6514C763.353 78.1976 762.467 77.5612 761.748 76.7422C761.029 75.9121 760.481 74.9437 760.104 73.8369C759.728 72.7191 759.54 71.5072 759.54 70.2012ZM763.923 69.8525V70.2012C763.923 70.987 764 71.723 764.155 72.4092C764.31 73.0954 764.548 73.6986 764.869 74.2188C765.19 74.7389 765.605 75.1484 766.114 75.4473C766.634 75.735 767.254 75.8789 767.974 75.8789C768.682 75.8789 769.291 75.735 769.8 75.4473C770.309 75.1484 770.724 74.7389 771.045 74.2188C771.377 73.6986 771.62 73.0954 771.775 72.4092C771.93 71.723 772.008 70.987 772.008 70.2012V69.8525C772.008 69.0778 771.93 68.3529 771.775 67.6777C771.62 66.9915 771.377 66.3883 771.045 65.8682C770.724 65.3369 770.303 64.9219 769.783 64.623C769.274 64.3132 768.66 64.1582 767.94 64.1582C767.232 64.1582 766.623 64.3132 766.114 64.623C765.605 64.9219 765.19 65.3369 764.869 65.8682C764.548 66.3883 764.31 66.9915 764.155 67.6777C764 68.3529 763.923 69.0778 763.923 69.8525ZM783.944 64.7227V79H779.562V61.0371H783.695L783.944 64.7227ZM783.297 69.3711H781.952C781.952 68.1204 782.102 66.9694 782.4 65.918C782.71 64.8665 783.164 63.9535 783.762 63.1787C784.359 62.3929 785.095 61.7842 785.97 61.3525C786.855 60.9209 787.879 60.7051 789.041 60.7051C789.849 60.7051 790.59 60.8268 791.266 61.0703C791.941 61.3027 792.522 61.6735 793.009 62.1826C793.507 62.6807 793.889 63.3337 794.154 64.1416C794.42 64.9385 794.553 65.8958 794.553 67.0137V79H790.17V67.4619C790.17 66.6208 790.048 65.9622 789.805 65.4863C789.572 65.0104 789.235 64.6784 788.792 64.4902C788.349 64.291 787.818 64.1914 787.198 64.1914C786.512 64.1914 785.92 64.3298 785.422 64.6064C784.935 64.8721 784.531 65.2428 784.21 65.7188C783.9 66.1947 783.668 66.7425 783.513 67.3623C783.369 67.9821 783.297 68.6517 783.297 69.3711ZM794.221 68.5576L792.411 68.8896C792.422 67.7607 792.577 66.7038 792.876 65.7188C793.175 64.7227 793.612 63.8538 794.188 63.1123C794.774 62.3597 795.499 61.7731 796.362 61.3525C797.237 60.9209 798.244 60.7051 799.384 60.7051C800.269 60.7051 801.066 60.8324 801.774 61.0869C802.494 61.3304 803.108 61.7233 803.617 62.2656C804.126 62.7969 804.514 63.4886 804.779 64.3408C805.056 65.193 805.194 66.2334 805.194 67.4619V79H800.778V67.4453C800.778 66.571 800.657 65.9014 800.413 65.4365C800.181 64.9717 799.843 64.6507 799.4 64.4736C798.958 64.2855 798.438 64.1914 797.84 64.1914C797.231 64.1914 796.7 64.3076 796.246 64.54C795.803 64.7614 795.427 65.0713 795.117 65.4697C794.818 65.8682 794.591 66.333 794.437 66.8643C794.293 67.3844 794.221 67.9489 794.221 68.5576ZM282.66 115.733V102.037H287.076V120H282.926L282.66 115.733ZM283.225 112.015L284.586 111.981C284.586 113.188 284.453 114.3 284.188 115.318C283.922 116.337 283.507 117.222 282.942 117.975C282.389 118.716 281.686 119.297 280.834 119.718C279.982 120.127 278.975 120.332 277.812 120.332C276.927 120.332 276.119 120.21 275.389 119.967C274.658 119.712 274.027 119.319 273.496 118.788C272.976 118.246 272.572 117.554 272.284 116.713C271.996 115.861 271.853 114.837 271.853 113.642V102.037H276.235V113.675C276.235 114.272 276.302 114.771 276.435 115.169C276.578 115.567 276.772 115.894 277.016 116.148C277.27 116.392 277.563 116.569 277.896 116.68C278.239 116.779 278.604 116.829 278.991 116.829C280.054 116.829 280.889 116.619 281.498 116.198C282.118 115.767 282.561 115.191 282.826 114.472C283.092 113.741 283.225 112.922 283.225 112.015ZM295.327 105.723V120H290.944V102.037H295.078L295.327 105.723ZM294.68 110.371H293.335C293.335 109.12 293.484 107.969 293.783 106.918C294.093 105.867 294.547 104.953 295.145 104.179C295.742 103.393 296.478 102.784 297.353 102.353C298.238 101.921 299.262 101.705 300.424 101.705C301.232 101.705 301.973 101.827 302.648 102.07C303.324 102.303 303.905 102.674 304.392 103.183C304.89 103.681 305.271 104.334 305.537 105.142C305.803 105.938 305.936 106.896 305.936 108.014V120H301.553V108.462C301.553 107.621 301.431 106.962 301.188 106.486C300.955 106.01 300.618 105.678 300.175 105.49C299.732 105.291 299.201 105.191 298.581 105.191C297.895 105.191 297.303 105.33 296.805 105.606C296.318 105.872 295.914 106.243 295.593 106.719C295.283 107.195 295.05 107.743 294.896 108.362C294.752 108.982 294.68 109.652 294.68 110.371ZM305.604 109.558L303.794 109.89C303.805 108.761 303.96 107.704 304.259 106.719C304.558 105.723 304.995 104.854 305.57 104.112C306.157 103.36 306.882 102.773 307.745 102.353C308.619 101.921 309.627 101.705 310.767 101.705C311.652 101.705 312.449 101.832 313.157 102.087C313.877 102.33 314.491 102.723 315 103.266C315.509 103.797 315.896 104.489 316.162 105.341C316.439 106.193 316.577 107.233 316.577 108.462V120H312.161V108.445C312.161 107.571 312.039 106.901 311.796 106.437C311.563 105.972 311.226 105.651 310.783 105.474C310.34 105.285 309.82 105.191 309.223 105.191C308.614 105.191 308.083 105.308 307.629 105.54C307.186 105.761 306.81 106.071 306.5 106.47C306.201 106.868 305.974 107.333 305.819 107.864C305.675 108.384 305.604 108.949 305.604 109.558ZM330.406 116.182V107.897C330.406 107.289 330.301 106.763 330.091 106.32C329.881 105.878 329.56 105.535 329.128 105.291C328.696 105.048 328.148 104.926 327.484 104.926C326.898 104.926 326.383 105.025 325.94 105.225C325.509 105.424 325.177 105.706 324.944 106.071C324.712 106.425 324.596 106.835 324.596 107.3H320.196C320.196 106.558 320.373 105.855 320.728 105.191C321.082 104.516 321.585 103.919 322.238 103.398C322.902 102.867 323.694 102.452 324.612 102.153C325.542 101.854 326.582 101.705 327.733 101.705C329.095 101.705 330.307 101.938 331.369 102.402C332.443 102.856 333.284 103.542 333.893 104.461C334.512 105.38 334.822 106.536 334.822 107.931V115.767C334.822 116.663 334.878 117.432 334.988 118.074C335.11 118.705 335.287 119.253 335.52 119.718V120H331.054C330.843 119.546 330.683 118.971 330.572 118.273C330.462 117.565 330.406 116.868 330.406 116.182ZM331.021 109.06L331.054 111.666H328.281C327.595 111.666 326.992 111.738 326.472 111.882C325.951 112.015 325.525 112.214 325.193 112.479C324.861 112.734 324.612 113.044 324.446 113.409C324.28 113.763 324.197 114.167 324.197 114.621C324.197 115.064 324.297 115.462 324.496 115.816C324.706 116.171 325.005 116.453 325.393 116.663C325.791 116.862 326.256 116.962 326.787 116.962C327.562 116.962 328.237 116.807 328.812 116.497C329.388 116.176 329.836 115.789 330.157 115.335C330.478 114.881 330.65 114.45 330.672 114.04L331.934 115.933C331.779 116.386 331.546 116.868 331.236 117.377C330.926 117.886 330.528 118.362 330.041 118.805C329.554 119.247 328.967 119.613 328.281 119.9C327.595 120.188 326.798 120.332 325.891 120.332C324.729 120.332 323.688 120.1 322.77 119.635C321.851 119.17 321.126 118.534 320.595 117.726C320.063 116.918 319.798 115.999 319.798 114.97C319.798 114.018 319.975 113.177 320.329 112.446C320.683 111.716 321.209 111.102 321.906 110.604C322.604 110.094 323.467 109.713 324.496 109.458C325.536 109.192 326.726 109.06 328.065 109.06H331.021ZM351.623 105.49V126.906H347.224V102.037H351.291L351.623 105.49ZM363.161 110.836V111.185C363.161 112.491 363.006 113.702 362.696 114.82C362.397 115.927 361.955 116.896 361.368 117.726C360.782 118.545 360.051 119.187 359.177 119.651C358.313 120.105 357.317 120.332 356.188 120.332C355.082 120.332 354.119 120.122 353.3 119.701C352.481 119.27 351.789 118.661 351.225 117.875C350.66 117.089 350.206 116.176 349.863 115.136C349.531 114.084 349.282 112.939 349.116 111.699V110.587C349.282 109.27 349.531 108.075 349.863 107.001C350.206 105.916 350.66 104.981 351.225 104.195C351.789 103.398 352.475 102.784 353.283 102.353C354.102 101.921 355.06 101.705 356.155 101.705C357.295 101.705 358.297 101.921 359.16 102.353C360.035 102.784 360.771 103.404 361.368 104.212C361.966 105.02 362.414 105.983 362.713 107.101C363.012 108.218 363.161 109.464 363.161 110.836ZM358.762 111.185V110.836C358.762 110.039 358.69 109.303 358.546 108.628C358.402 107.942 358.181 107.344 357.882 106.835C357.583 106.315 357.196 105.911 356.72 105.623C356.244 105.335 355.668 105.191 354.993 105.191C354.318 105.191 353.737 105.302 353.25 105.523C352.763 105.745 352.365 106.06 352.055 106.47C351.745 106.879 351.501 107.366 351.324 107.931C351.158 108.484 351.048 109.098 350.992 109.773V112.529C351.092 113.348 351.285 114.084 351.573 114.737C351.861 115.39 352.282 115.91 352.835 116.298C353.399 116.685 354.13 116.879 355.026 116.879C355.701 116.879 356.277 116.729 356.753 116.431C357.229 116.132 357.616 115.722 357.915 115.202C358.214 114.671 358.43 114.062 358.562 113.376C358.695 112.69 358.762 111.959 358.762 111.185ZM376.26 116.182V107.897C376.26 107.289 376.155 106.763 375.944 106.32C375.734 105.878 375.413 105.535 374.981 105.291C374.55 105.048 374.002 104.926 373.338 104.926C372.751 104.926 372.237 105.025 371.794 105.225C371.362 105.424 371.03 105.706 370.798 106.071C370.565 106.425 370.449 106.835 370.449 107.3H366.05C366.05 106.558 366.227 105.855 366.581 105.191C366.935 104.516 367.439 103.919 368.092 103.398C368.756 102.867 369.547 102.452 370.466 102.153C371.396 101.854 372.436 101.705 373.587 101.705C374.948 101.705 376.16 101.938 377.223 102.402C378.296 102.856 379.137 103.542 379.746 104.461C380.366 105.38 380.676 106.536 380.676 107.931V115.767C380.676 116.663 380.731 117.432 380.842 118.074C380.964 118.705 381.141 119.253 381.373 119.718V120H376.907C376.697 119.546 376.536 118.971 376.426 118.273C376.315 117.565 376.26 116.868 376.26 116.182ZM376.874 109.06L376.907 111.666H374.135C373.449 111.666 372.845 111.738 372.325 111.882C371.805 112.015 371.379 112.214 371.047 112.479C370.715 112.734 370.466 113.044 370.3 113.409C370.134 113.763 370.051 114.167 370.051 114.621C370.051 115.064 370.15 115.462 370.35 115.816C370.56 116.171 370.859 116.453 371.246 116.663C371.645 116.862 372.109 116.962 372.641 116.962C373.415 116.962 374.09 116.807 374.666 116.497C375.242 116.176 375.69 115.789 376.011 115.335C376.332 114.881 376.503 114.45 376.525 114.04L377.787 115.933C377.632 116.386 377.4 116.868 377.09 117.377C376.78 117.886 376.382 118.362 375.895 118.805C375.408 119.247 374.821 119.613 374.135 119.9C373.449 120.188 372.652 120.332 371.744 120.332C370.582 120.332 369.542 120.1 368.623 119.635C367.704 119.17 366.979 118.534 366.448 117.726C365.917 116.918 365.651 115.999 365.651 114.97C365.651 114.018 365.828 113.177 366.183 112.446C366.537 111.716 367.062 111.102 367.76 110.604C368.457 110.094 369.32 109.713 370.35 109.458C371.39 109.192 372.58 109.06 373.919 109.06H376.874ZM371.512 99.5469L374.766 94.5H379.613L375.081 99.5469H371.512ZM396.049 102.037H400.033V119.452C400.033 121.079 399.679 122.457 398.971 123.586C398.273 124.726 397.294 125.589 396.032 126.176C394.771 126.773 393.304 127.072 391.633 127.072C390.913 127.072 390.133 126.973 389.292 126.773C388.462 126.574 387.66 126.259 386.885 125.827C386.121 125.407 385.485 124.859 384.976 124.184L386.951 121.594C387.549 122.291 388.224 122.817 388.977 123.171C389.729 123.536 390.543 123.719 391.417 123.719C392.302 123.719 393.055 123.553 393.675 123.221C394.306 122.9 394.787 122.424 395.119 121.793C395.462 121.173 395.634 120.41 395.634 119.502V106.138L396.049 102.037ZM383.913 111.234V110.886C383.913 109.513 384.079 108.268 384.411 107.15C384.743 106.021 385.219 105.053 385.839 104.245C386.47 103.437 387.228 102.812 388.113 102.369C389.01 101.926 390.017 101.705 391.135 101.705C392.319 101.705 393.315 101.921 394.123 102.353C394.942 102.784 395.617 103.398 396.148 104.195C396.691 104.992 397.111 105.938 397.41 107.034C397.72 108.119 397.958 109.314 398.124 110.62V111.566C397.969 112.839 397.72 114.007 397.377 115.069C397.045 116.132 396.602 117.062 396.049 117.858C395.495 118.644 394.809 119.253 393.99 119.685C393.171 120.116 392.208 120.332 391.102 120.332C389.995 120.332 388.999 120.105 388.113 119.651C387.228 119.198 386.47 118.561 385.839 117.742C385.219 116.923 384.743 115.96 384.411 114.854C384.079 113.747 383.913 112.54 383.913 111.234ZM388.296 110.886V111.234C388.296 112.009 388.373 112.734 388.528 113.409C388.683 114.084 388.921 114.682 389.242 115.202C389.563 115.711 389.967 116.11 390.454 116.397C390.941 116.685 391.522 116.829 392.197 116.829C393.105 116.829 393.846 116.641 394.422 116.265C395.008 115.877 395.451 115.352 395.75 114.688C396.06 114.012 396.259 113.254 396.348 112.413V109.807C396.292 109.143 396.171 108.528 395.982 107.964C395.805 107.399 395.556 106.912 395.235 106.503C394.914 106.093 394.505 105.772 394.007 105.54C393.509 105.308 392.917 105.191 392.23 105.191C391.566 105.191 390.985 105.341 390.487 105.64C389.989 105.927 389.58 106.331 389.259 106.852C388.938 107.372 388.694 107.975 388.528 108.661C388.373 109.347 388.296 110.089 388.296 110.886ZM408.633 102.037V120H404.233V102.037H408.633ZM403.935 97.3389C403.935 96.6859 404.156 96.1436 404.599 95.7119C405.052 95.2803 405.661 95.0645 406.425 95.0645C407.188 95.0645 407.792 95.2803 408.234 95.7119C408.688 96.1436 408.915 96.6859 408.915 97.3389C408.915 97.9808 408.688 98.5176 408.234 98.9492C407.792 99.3809 407.188 99.5967 406.425 99.5967C405.661 99.5967 405.052 99.3809 404.599 98.9492C404.156 98.5176 403.935 97.9808 403.935 97.3389ZM417.116 105.872V120H412.733V102.037H416.851L417.116 105.872ZM416.419 110.371H415.124C415.135 109.065 415.312 107.881 415.655 106.818C415.998 105.756 416.48 104.843 417.1 104.079C417.73 103.315 418.478 102.729 419.341 102.319C420.204 101.91 421.167 101.705 422.229 101.705C423.093 101.705 423.873 101.827 424.57 102.07C425.268 102.314 425.865 102.701 426.363 103.232C426.872 103.764 427.26 104.461 427.525 105.324C427.802 106.176 427.94 107.228 427.94 108.479V120H423.524V108.445C423.524 107.626 423.403 106.979 423.159 106.503C422.927 106.027 422.584 105.689 422.13 105.49C421.687 105.291 421.139 105.191 420.486 105.191C419.811 105.191 419.219 105.33 418.71 105.606C418.212 105.872 417.791 106.243 417.448 106.719C417.116 107.195 416.862 107.743 416.685 108.362C416.507 108.982 416.419 109.652 416.419 110.371ZM441.703 116.182V107.897C441.703 107.289 441.598 106.763 441.388 106.32C441.177 105.878 440.856 105.535 440.425 105.291C439.993 105.048 439.445 104.926 438.781 104.926C438.195 104.926 437.68 105.025 437.237 105.225C436.806 105.424 436.474 105.706 436.241 106.071C436.009 106.425 435.893 106.835 435.893 107.3H431.493C431.493 106.558 431.67 105.855 432.024 105.191C432.379 104.516 432.882 103.919 433.535 103.398C434.199 102.867 434.991 102.452 435.909 102.153C436.839 101.854 437.879 101.705 439.03 101.705C440.392 101.705 441.604 101.938 442.666 102.402C443.74 102.856 444.581 103.542 445.189 104.461C445.809 105.38 446.119 106.536 446.119 107.931V115.767C446.119 116.663 446.174 117.432 446.285 118.074C446.407 118.705 446.584 119.253 446.816 119.718V120H442.351C442.14 119.546 441.98 118.971 441.869 118.273C441.758 117.565 441.703 116.868 441.703 116.182ZM442.317 109.06L442.351 111.666H439.578C438.892 111.666 438.289 111.738 437.769 111.882C437.248 112.015 436.822 112.214 436.49 112.479C436.158 112.734 435.909 113.044 435.743 113.409C435.577 113.763 435.494 114.167 435.494 114.621C435.494 115.064 435.594 115.462 435.793 115.816C436.003 116.171 436.302 116.453 436.689 116.663C437.088 116.862 437.553 116.962 438.084 116.962C438.859 116.962 439.534 116.807 440.109 116.497C440.685 116.176 441.133 115.789 441.454 115.335C441.775 114.881 441.947 114.45 441.969 114.04L443.23 115.933C443.076 116.386 442.843 116.868 442.533 117.377C442.223 117.886 441.825 118.362 441.338 118.805C440.851 119.247 440.264 119.613 439.578 119.9C438.892 120.188 438.095 120.332 437.188 120.332C436.025 120.332 434.985 120.1 434.066 119.635C433.148 119.17 432.423 118.534 431.892 117.726C431.36 116.918 431.095 115.999 431.095 114.97C431.095 114.018 431.272 113.177 431.626 112.446C431.98 111.716 432.506 111.102 433.203 110.604C433.9 110.094 434.764 109.713 435.793 109.458C436.833 109.192 438.023 109.06 439.362 109.06H442.317ZM466.605 120.332C465.244 120.332 464.021 120.111 462.937 119.668C461.852 119.225 460.928 118.611 460.164 117.825C459.411 117.028 458.83 116.104 458.421 115.053C458.022 113.99 457.823 112.85 457.823 111.633V110.969C457.823 109.585 458.022 108.329 458.421 107.2C458.819 106.06 459.384 105.081 460.114 104.262C460.845 103.443 461.719 102.812 462.737 102.369C463.756 101.926 464.879 101.705 466.107 101.705C467.38 101.705 468.504 101.921 469.478 102.353C470.451 102.773 471.265 103.371 471.918 104.146C472.571 104.92 473.063 105.85 473.396 106.935C473.728 108.008 473.894 109.198 473.894 110.504V112.347H459.815V109.325H469.577V108.993C469.555 108.296 469.422 107.66 469.179 107.084C468.935 106.497 468.559 106.033 468.05 105.689C467.541 105.335 466.882 105.158 466.074 105.158C465.421 105.158 464.851 105.302 464.364 105.59C463.888 105.867 463.49 106.265 463.169 106.785C462.859 107.294 462.627 107.903 462.472 108.611C462.317 109.32 462.239 110.105 462.239 110.969V111.633C462.239 112.385 462.339 113.083 462.538 113.725C462.748 114.367 463.053 114.925 463.451 115.401C463.861 115.866 464.348 116.231 464.912 116.497C465.488 116.752 466.141 116.879 466.871 116.879C467.79 116.879 468.62 116.702 469.361 116.348C470.114 115.982 470.767 115.446 471.32 114.737L473.528 117.028C473.152 117.582 472.643 118.113 472.001 118.622C471.37 119.131 470.606 119.546 469.71 119.867C468.813 120.177 467.779 120.332 466.605 120.332ZM495.193 116.182V107.897C495.193 107.289 495.088 106.763 494.878 106.32C494.668 105.878 494.347 105.535 493.915 105.291C493.483 105.048 492.936 104.926 492.271 104.926C491.685 104.926 491.17 105.025 490.728 105.225C490.296 105.424 489.964 105.706 489.731 106.071C489.499 106.425 489.383 106.835 489.383 107.3H484.983C484.983 106.558 485.16 105.855 485.515 105.191C485.869 104.516 486.372 103.919 487.025 103.398C487.689 102.867 488.481 102.452 489.399 102.153C490.329 101.854 491.369 101.705 492.521 101.705C493.882 101.705 495.094 101.938 496.156 102.402C497.23 102.856 498.071 103.542 498.68 104.461C499.299 105.38 499.609 106.536 499.609 107.931V115.767C499.609 116.663 499.665 117.432 499.775 118.074C499.897 118.705 500.074 119.253 500.307 119.718V120H495.841C495.631 119.546 495.47 118.971 495.359 118.273C495.249 117.565 495.193 116.868 495.193 116.182ZM495.808 109.06L495.841 111.666H493.068C492.382 111.666 491.779 111.738 491.259 111.882C490.739 112.015 490.312 112.214 489.98 112.479C489.648 112.734 489.399 113.044 489.233 113.409C489.067 113.763 488.984 114.167 488.984 114.621C488.984 115.064 489.084 115.462 489.283 115.816C489.493 116.171 489.792 116.453 490.18 116.663C490.578 116.862 491.043 116.962 491.574 116.962C492.349 116.962 493.024 116.807 493.6 116.497C494.175 116.176 494.623 115.789 494.944 115.335C495.265 114.881 495.437 114.45 495.459 114.04L496.721 115.933C496.566 116.386 496.333 116.868 496.023 117.377C495.714 117.886 495.315 118.362 494.828 118.805C494.341 119.247 493.755 119.613 493.068 119.9C492.382 120.188 491.585 120.332 490.678 120.332C489.516 120.332 488.475 120.1 487.557 119.635C486.638 119.17 485.913 118.534 485.382 117.726C484.851 116.918 484.585 115.999 484.585 114.97C484.585 114.018 484.762 113.177 485.116 112.446C485.47 111.716 485.996 111.102 486.693 110.604C487.391 110.094 488.254 109.713 489.283 109.458C490.324 109.192 491.513 109.06 492.853 109.06H495.808ZM512.061 102.037V105.191H501.768V102.037H512.061ZM504.523 97.6211H508.923V114.82C508.923 115.352 508.995 115.761 509.139 116.049C509.283 116.337 509.498 116.53 509.786 116.63C510.074 116.729 510.417 116.779 510.815 116.779C511.103 116.779 511.369 116.763 511.612 116.729C511.856 116.696 512.061 116.663 512.227 116.63L512.243 119.917C511.878 120.039 511.463 120.138 510.998 120.216C510.544 120.293 510.03 120.332 509.454 120.332C508.469 120.332 507.606 120.166 506.864 119.834C506.123 119.491 505.547 118.943 505.138 118.19C504.728 117.427 504.523 116.42 504.523 115.169V97.6211ZM523.051 120.332C521.689 120.332 520.466 120.111 519.382 119.668C518.297 119.225 517.373 118.611 516.609 117.825C515.857 117.028 515.276 116.104 514.866 115.053C514.468 113.99 514.269 112.85 514.269 111.633V110.969C514.269 109.585 514.468 108.329 514.866 107.2C515.265 106.06 515.829 105.081 516.56 104.262C517.29 103.443 518.164 102.812 519.183 102.369C520.201 101.926 521.324 101.705 522.553 101.705C523.826 101.705 524.949 101.921 525.923 102.353C526.897 102.773 527.71 103.371 528.363 104.146C529.016 104.92 529.509 105.85 529.841 106.935C530.173 108.008 530.339 109.198 530.339 110.504V112.347H516.261V109.325H526.022V108.993C526 108.296 525.868 107.66 525.624 107.084C525.381 106.497 525.004 106.033 524.495 105.689C523.986 105.335 523.327 105.158 522.52 105.158C521.867 105.158 521.297 105.302 520.81 105.59C520.334 105.867 519.935 106.265 519.614 106.785C519.304 107.294 519.072 107.903 518.917 108.611C518.762 109.32 518.685 110.105 518.685 110.969V111.633C518.685 112.385 518.784 113.083 518.983 113.725C519.194 114.367 519.498 114.925 519.896 115.401C520.306 115.866 520.793 116.231 521.357 116.497C521.933 116.752 522.586 116.879 523.316 116.879C524.235 116.879 525.065 116.702 525.807 116.348C526.559 115.982 527.212 115.446 527.766 114.737L529.974 117.028C529.597 117.582 529.088 118.113 528.446 118.622C527.815 119.131 527.052 119.546 526.155 119.867C525.259 120.177 524.224 120.332 523.051 120.332ZM537.577 105.872V120H533.194V102.037H537.312L537.577 105.872ZM536.88 110.371H535.585C535.596 109.065 535.773 107.881 536.116 106.818C536.459 105.756 536.941 104.843 537.561 104.079C538.191 103.315 538.938 102.729 539.802 102.319C540.665 101.91 541.628 101.705 542.69 101.705C543.554 101.705 544.334 101.827 545.031 102.07C545.729 102.314 546.326 102.701 546.824 103.232C547.333 103.764 547.721 104.461 547.986 105.324C548.263 106.176 548.401 107.228 548.401 108.479V120H543.985V108.445C543.985 107.626 543.864 106.979 543.62 106.503C543.388 106.027 543.045 105.689 542.591 105.49C542.148 105.291 541.6 105.191 540.947 105.191C540.272 105.191 539.68 105.33 539.171 105.606C538.673 105.872 538.252 106.243 537.909 106.719C537.577 107.195 537.323 107.743 537.146 108.362C536.968 108.982 536.88 109.652 536.88 110.371ZM563.044 116.182V94.5H567.46V120H563.476L563.044 116.182ZM551.506 111.234V110.886C551.506 109.513 551.661 108.268 551.971 107.15C552.292 106.021 552.757 105.053 553.365 104.245C553.974 103.437 554.71 102.812 555.573 102.369C556.448 101.926 557.438 101.705 558.545 101.705C559.618 101.705 560.554 101.921 561.351 102.353C562.159 102.784 562.845 103.398 563.409 104.195C563.985 104.992 564.444 105.938 564.787 107.034C565.13 108.119 565.379 109.314 565.534 110.62V111.566C565.379 112.839 565.13 114.007 564.787 115.069C564.444 116.132 563.985 117.062 563.409 117.858C562.845 118.644 562.159 119.253 561.351 119.685C560.543 120.116 559.596 120.332 558.512 120.332C557.416 120.332 556.431 120.105 555.557 119.651C554.693 119.198 553.957 118.561 553.349 117.742C552.751 116.923 552.292 115.96 551.971 114.854C551.661 113.747 551.506 112.54 551.506 111.234ZM555.905 110.886V111.234C555.905 112.009 555.972 112.734 556.104 113.409C556.237 114.084 556.453 114.682 556.752 115.202C557.051 115.711 557.433 116.11 557.897 116.397C558.373 116.685 558.949 116.829 559.624 116.829C560.487 116.829 561.196 116.641 561.749 116.265C562.313 115.877 562.751 115.352 563.061 114.688C563.37 114.012 563.57 113.254 563.658 112.413V109.807C563.614 109.143 563.498 108.528 563.31 107.964C563.132 107.399 562.878 106.912 562.546 106.503C562.225 106.093 561.826 105.772 561.351 105.54C560.875 105.308 560.31 105.191 559.657 105.191C558.982 105.191 558.407 105.341 557.931 105.64C557.455 105.927 557.067 106.331 556.769 106.852C556.47 107.372 556.248 107.975 556.104 108.661C555.972 109.347 555.905 110.089 555.905 110.886ZM576.076 102.037V120H571.677V102.037H576.076ZM571.378 97.3389C571.378 96.6859 571.599 96.1436 572.042 95.7119C572.496 95.2803 573.104 95.0645 573.868 95.0645C574.632 95.0645 575.235 95.2803 575.678 95.7119C576.132 96.1436 576.358 96.6859 576.358 97.3389C576.358 97.9808 576.132 98.5176 575.678 98.9492C575.235 99.3809 574.632 99.5967 573.868 99.5967C573.104 99.5967 572.496 99.3809 572.042 98.9492C571.599 98.5176 571.378 97.9808 571.378 97.3389ZM584.626 105.723V120H580.243V102.037H584.377L584.626 105.723ZM583.979 110.371H582.634C582.634 109.12 582.783 107.969 583.082 106.918C583.392 105.867 583.846 104.953 584.443 104.179C585.041 103.393 585.777 102.784 586.651 102.353C587.537 101.921 588.561 101.705 589.723 101.705C590.531 101.705 591.272 101.827 591.947 102.07C592.622 102.303 593.203 102.674 593.69 103.183C594.188 103.681 594.57 104.334 594.836 105.142C595.102 105.938 595.234 106.896 595.234 108.014V120H590.852V108.462C590.852 107.621 590.73 106.962 590.486 106.486C590.254 106.01 589.916 105.678 589.474 105.49C589.031 105.291 588.5 105.191 587.88 105.191C587.194 105.191 586.602 105.33 586.104 105.606C585.617 105.872 585.213 106.243 584.892 106.719C584.582 107.195 584.349 107.743 584.194 108.362C584.05 108.982 583.979 109.652 583.979 110.371ZM594.902 109.558L593.093 109.89C593.104 108.761 593.259 107.704 593.558 106.719C593.856 105.723 594.294 104.854 594.869 104.112C595.456 103.36 596.181 102.773 597.044 102.353C597.918 101.921 598.925 101.705 600.065 101.705C600.951 101.705 601.748 101.832 602.456 102.087C603.175 102.33 603.79 102.723 604.299 103.266C604.808 103.797 605.195 104.489 605.461 105.341C605.738 106.193 605.876 107.233 605.876 108.462V120H601.46V108.445C601.46 107.571 601.338 106.901 601.095 106.437C600.862 105.972 600.525 105.651 600.082 105.474C599.639 105.285 599.119 105.191 598.521 105.191C597.913 105.191 597.382 105.308 596.928 105.54C596.485 105.761 596.109 106.071 595.799 106.47C595.5 106.868 595.273 107.333 595.118 107.864C594.974 108.384 594.902 108.949 594.902 109.558ZM617.879 120.332C616.518 120.332 615.295 120.111 614.21 119.668C613.125 119.225 612.201 118.611 611.438 117.825C610.685 117.028 610.104 116.104 609.694 115.053C609.296 113.99 609.097 112.85 609.097 111.633V110.969C609.097 109.585 609.296 108.329 609.694 107.2C610.093 106.06 610.657 105.081 611.388 104.262C612.118 103.443 612.993 102.812 614.011 102.369C615.029 101.926 616.152 101.705 617.381 101.705C618.654 101.705 619.777 101.921 620.751 102.353C621.725 102.773 622.538 103.371 623.191 104.146C623.844 104.92 624.337 105.85 624.669 106.935C625.001 108.008 625.167 109.198 625.167 110.504V112.347H611.089V109.325H620.851V108.993C620.828 108.296 620.696 107.66 620.452 107.084C620.209 106.497 619.832 106.033 619.323 105.689C618.814 105.335 618.156 105.158 617.348 105.158C616.695 105.158 616.125 105.302 615.638 105.59C615.162 105.867 614.763 106.265 614.442 106.785C614.132 107.294 613.9 107.903 613.745 108.611C613.59 109.32 613.513 110.105 613.513 110.969V111.633C613.513 112.385 613.612 113.083 613.812 113.725C614.022 114.367 614.326 114.925 614.725 115.401C615.134 115.866 615.621 116.231 616.186 116.497C616.761 116.752 617.414 116.879 618.145 116.879C619.063 116.879 619.893 116.702 620.635 116.348C621.387 115.982 622.04 115.446 622.594 114.737L624.802 117.028C624.425 117.582 623.916 118.113 623.274 118.622C622.644 119.131 621.88 119.546 620.983 119.867C620.087 120.177 619.052 120.332 617.879 120.332ZM632.405 105.872V120H628.022V102.037H632.14L632.405 105.872ZM631.708 110.371H630.413C630.424 109.065 630.601 107.881 630.944 106.818C631.287 105.756 631.769 104.843 632.389 104.079C633.02 103.315 633.767 102.729 634.63 102.319C635.493 101.91 636.456 101.705 637.519 101.705C638.382 101.705 639.162 101.827 639.859 102.07C640.557 102.314 641.154 102.701 641.652 103.232C642.161 103.764 642.549 104.461 642.814 105.324C643.091 106.176 643.229 107.228 643.229 108.479V120H638.813V108.445C638.813 107.626 638.692 106.979 638.448 106.503C638.216 106.027 637.873 105.689 637.419 105.49C636.976 105.291 636.428 105.191 635.775 105.191C635.1 105.191 634.508 105.33 633.999 105.606C633.501 105.872 633.08 106.243 632.737 106.719C632.405 107.195 632.151 107.743 631.974 108.362C631.797 108.982 631.708 109.652 631.708 110.371ZM655.598 102.037V105.191H645.305V102.037H655.598ZM648.061 97.6211H652.46V114.82C652.46 115.352 652.532 115.761 652.676 116.049C652.82 116.337 653.035 116.53 653.323 116.63C653.611 116.729 653.954 116.779 654.353 116.779C654.64 116.779 654.906 116.763 655.149 116.729C655.393 116.696 655.598 116.663 655.764 116.63L655.78 119.917C655.415 120.039 655 120.138 654.535 120.216C654.081 120.293 653.567 120.332 652.991 120.332C652.006 120.332 651.143 120.166 650.401 119.834C649.66 119.491 649.084 118.943 648.675 118.19C648.265 117.427 648.061 116.42 648.061 115.169V97.6211ZM657.308 111.201V110.853C657.308 109.535 657.496 108.324 657.872 107.217C658.248 106.099 658.796 105.131 659.516 104.312C660.235 103.493 661.115 102.856 662.155 102.402C663.196 101.938 664.38 101.705 665.708 101.705C667.058 101.705 668.254 101.938 669.294 102.402C670.345 102.856 671.231 103.493 671.95 104.312C672.67 105.131 673.217 106.099 673.594 107.217C673.97 108.324 674.158 109.535 674.158 110.853V111.201C674.158 112.507 673.97 113.719 673.594 114.837C673.217 115.944 672.67 116.912 671.95 117.742C671.231 118.561 670.351 119.198 669.311 119.651C668.27 120.105 667.08 120.332 665.741 120.332C664.413 120.332 663.223 120.105 662.172 119.651C661.12 119.198 660.235 118.561 659.516 117.742C658.796 116.912 658.248 115.944 657.872 114.837C657.496 113.719 657.308 112.507 657.308 111.201ZM661.69 110.853V111.201C661.69 111.987 661.768 112.723 661.923 113.409C662.078 114.095 662.316 114.699 662.637 115.219C662.958 115.739 663.373 116.148 663.882 116.447C664.402 116.735 665.022 116.879 665.741 116.879C666.45 116.879 667.058 116.735 667.567 116.447C668.076 116.148 668.492 115.739 668.812 115.219C669.145 114.699 669.388 114.095 669.543 113.409C669.698 112.723 669.775 111.987 669.775 111.201V110.853C669.775 110.078 669.698 109.353 669.543 108.678C669.388 107.992 669.145 107.388 668.812 106.868C668.492 106.337 668.071 105.922 667.551 105.623C667.042 105.313 666.427 105.158 665.708 105.158C665 105.158 664.391 105.313 663.882 105.623C663.373 105.922 662.958 106.337 662.637 106.868C662.316 107.388 662.078 107.992 661.923 108.678C661.768 109.353 661.69 110.078 661.69 110.853ZM693.881 120.332C692.52 120.332 691.297 120.111 690.212 119.668C689.127 119.225 688.203 118.611 687.439 117.825C686.687 117.028 686.106 116.104 685.696 115.053C685.298 113.99 685.099 112.85 685.099 111.633V110.969C685.099 109.585 685.298 108.329 685.696 107.2C686.095 106.06 686.659 105.081 687.39 104.262C688.12 103.443 688.994 102.812 690.013 102.369C691.031 101.926 692.154 101.705 693.383 101.705C694.656 101.705 695.779 101.921 696.753 102.353C697.727 102.773 698.54 103.371 699.193 104.146C699.846 104.92 700.339 105.85 700.671 106.935C701.003 108.008 701.169 109.198 701.169 110.504V112.347H687.091V109.325H696.853V108.993C696.83 108.296 696.698 107.66 696.454 107.084C696.211 106.497 695.834 106.033 695.325 105.689C694.816 105.335 694.158 105.158 693.35 105.158C692.697 105.158 692.127 105.302 691.64 105.59C691.164 105.867 690.765 106.265 690.444 106.785C690.134 107.294 689.902 107.903 689.747 108.611C689.592 109.32 689.515 110.105 689.515 110.969V111.633C689.515 112.385 689.614 113.083 689.813 113.725C690.024 114.367 690.328 114.925 690.727 115.401C691.136 115.866 691.623 116.231 692.188 116.497C692.763 116.752 693.416 116.879 694.146 116.879C695.065 116.879 695.895 116.702 696.637 116.348C697.389 115.982 698.042 115.446 698.596 114.737L700.804 117.028C700.427 117.582 699.918 118.113 699.276 118.622C698.646 119.131 697.882 119.546 696.985 119.867C696.089 120.177 695.054 120.332 693.881 120.332ZM707.544 102.037L710.748 107.748L714.002 102.037H718.767L713.487 110.836L718.982 120H714.218L710.781 114.007L707.328 120H702.563L708.042 110.836L702.796 102.037H707.544ZM728.346 116.879C728.965 116.879 729.519 116.757 730.006 116.514C730.493 116.27 730.88 115.927 731.168 115.484C731.467 115.042 731.627 114.527 731.649 113.94H735.783C735.761 115.158 735.418 116.248 734.754 117.211C734.09 118.174 733.204 118.938 732.098 119.502C731.002 120.055 729.773 120.332 728.412 120.332C727.029 120.332 725.822 120.1 724.793 119.635C723.764 119.17 722.906 118.522 722.22 117.692C721.545 116.862 721.035 115.899 720.692 114.804C720.36 113.708 720.194 112.535 720.194 111.284V110.753C720.194 109.502 720.36 108.329 720.692 107.233C721.035 106.138 721.545 105.175 722.22 104.345C722.906 103.515 723.764 102.867 724.793 102.402C725.822 101.938 727.023 101.705 728.396 101.705C729.845 101.705 731.118 101.987 732.214 102.552C733.321 103.116 734.184 103.913 734.804 104.942C735.435 105.972 735.761 107.184 735.783 108.578H731.649C731.627 107.936 731.483 107.361 731.218 106.852C730.952 106.342 730.576 105.933 730.089 105.623C729.602 105.313 729.01 105.158 728.312 105.158C727.571 105.158 726.951 105.313 726.453 105.623C725.966 105.933 725.584 106.359 725.308 106.901C725.042 107.433 724.854 108.03 724.743 108.694C724.644 109.347 724.594 110.034 724.594 110.753V111.284C724.594 112.015 724.644 112.712 724.743 113.376C724.854 114.04 725.042 114.638 725.308 115.169C725.584 115.689 725.966 116.104 726.453 116.414C726.951 116.724 727.582 116.879 728.346 116.879ZM743.354 94.5V120H738.954V94.5H743.354ZM758.229 115.733V102.037H762.645V120H758.494L758.229 115.733ZM758.793 112.015L760.154 111.981C760.154 113.188 760.021 114.3 759.756 115.318C759.49 116.337 759.075 117.222 758.511 117.975C757.957 118.716 757.255 119.297 756.402 119.718C755.55 120.127 754.543 120.332 753.381 120.332C752.495 120.332 751.688 120.21 750.957 119.967C750.227 119.712 749.596 119.319 749.064 118.788C748.544 118.246 748.14 117.554 747.853 116.713C747.565 115.861 747.421 114.837 747.421 113.642V102.037H751.804V113.675C751.804 114.272 751.87 114.771 752.003 115.169C752.147 115.567 752.34 115.894 752.584 116.148C752.839 116.392 753.132 116.569 753.464 116.68C753.807 116.779 754.172 116.829 754.56 116.829C755.622 116.829 756.458 116.619 757.066 116.198C757.686 115.767 758.129 115.191 758.395 114.472C758.66 113.741 758.793 112.922 758.793 112.015ZM776.407 115.086C776.407 114.71 776.308 114.372 776.108 114.073C775.909 113.774 775.533 113.503 774.979 113.26C774.437 113.005 773.64 112.767 772.589 112.546C771.659 112.347 770.801 112.098 770.016 111.799C769.23 111.5 768.555 111.14 767.99 110.72C767.426 110.288 766.983 109.785 766.662 109.209C766.352 108.622 766.197 107.947 766.197 107.184C766.197 106.442 766.358 105.745 766.679 105.092C767 104.428 767.465 103.847 768.073 103.349C768.682 102.84 769.424 102.441 770.298 102.153C771.172 101.854 772.157 101.705 773.253 101.705C774.78 101.705 776.092 101.954 777.188 102.452C778.294 102.95 779.141 103.636 779.728 104.511C780.314 105.374 780.607 106.348 780.607 107.433H776.225C776.225 106.957 776.114 106.525 775.893 106.138C775.682 105.75 775.356 105.44 774.913 105.208C774.47 104.965 773.911 104.843 773.236 104.843C772.628 104.843 772.113 104.942 771.692 105.142C771.283 105.341 770.973 105.601 770.763 105.922C770.552 106.243 770.447 106.597 770.447 106.984C770.447 107.272 770.503 107.532 770.613 107.765C770.735 107.986 770.929 108.191 771.194 108.379C771.46 108.567 771.82 108.739 772.273 108.894C772.738 109.049 773.308 109.198 773.983 109.342C775.323 109.607 776.49 109.962 777.486 110.404C778.493 110.836 779.279 111.411 779.844 112.131C780.408 112.85 780.69 113.769 780.69 114.887C780.69 115.684 780.519 116.414 780.176 117.078C779.833 117.731 779.335 118.301 778.682 118.788C778.029 119.275 777.248 119.657 776.341 119.934C775.433 120.199 774.41 120.332 773.27 120.332C771.62 120.332 770.226 120.039 769.086 119.452C767.946 118.854 767.083 118.102 766.496 117.194C765.91 116.276 765.616 115.324 765.616 114.339H769.816C769.85 115.036 770.038 115.595 770.381 116.016C770.724 116.436 771.156 116.741 771.676 116.929C772.207 117.106 772.766 117.194 773.353 117.194C774.017 117.194 774.576 117.106 775.029 116.929C775.483 116.741 775.826 116.492 776.059 116.182C776.291 115.861 776.407 115.495 776.407 115.086ZM788.676 102.037V120H784.276V102.037H788.676ZM783.978 97.3389C783.978 96.6859 784.199 96.1436 784.642 95.7119C785.095 95.2803 785.704 95.0645 786.468 95.0645C787.231 95.0645 787.835 95.2803 788.277 95.7119C788.731 96.1436 788.958 96.6859 788.958 97.3389C788.958 97.9808 788.731 98.5176 788.277 98.9492C787.835 99.3809 787.231 99.5967 786.468 99.5967C785.704 99.5967 785.095 99.3809 784.642 98.9492C784.199 98.5176 783.978 97.9808 783.978 97.3389ZM798.819 116.68L803.003 102.037H807.585L801.426 120H798.637L798.819 116.68ZM795.765 102.037L799.998 116.713L800.147 120H797.342L791.166 102.037H795.765ZM808.847 111.201V110.853C808.847 109.535 809.035 108.324 809.411 107.217C809.787 106.099 810.335 105.131 811.055 104.312C811.774 103.493 812.654 102.856 813.694 102.402C814.735 101.938 815.919 101.705 817.247 101.705C818.597 101.705 819.793 101.938 820.833 102.402C821.884 102.856 822.77 103.493 823.489 104.312C824.209 105.131 824.757 106.099 825.133 107.217C825.509 108.324 825.697 109.535 825.697 110.853V111.201C825.697 112.507 825.509 113.719 825.133 114.837C824.757 115.944 824.209 116.912 823.489 117.742C822.77 118.561 821.89 119.198 820.85 119.651C819.809 120.105 818.619 120.332 817.28 120.332C815.952 120.332 814.762 120.105 813.711 119.651C812.66 119.198 811.774 118.561 811.055 117.742C810.335 116.912 809.787 115.944 809.411 114.837C809.035 113.719 808.847 112.507 808.847 111.201ZM813.229 110.853V111.201C813.229 111.987 813.307 112.723 813.462 113.409C813.617 114.095 813.855 114.699 814.176 115.219C814.497 115.739 814.912 116.148 815.421 116.447C815.941 116.735 816.561 116.879 817.28 116.879C817.989 116.879 818.597 116.735 819.106 116.447C819.616 116.148 820.031 115.739 820.352 115.219C820.684 114.699 820.927 114.095 821.082 113.409C821.237 112.723 821.314 111.987 821.314 111.201V110.853C821.314 110.078 821.237 109.353 821.082 108.678C820.927 107.992 820.684 107.388 820.352 106.868C820.031 106.337 819.61 105.922 819.09 105.623C818.581 105.313 817.966 105.158 817.247 105.158C816.539 105.158 815.93 105.313 815.421 105.623C814.912 105.922 814.497 106.337 814.176 106.868C813.855 107.388 813.617 107.992 813.462 108.678C813.307 109.353 813.229 110.078 813.229 110.853ZM833.882 95.8281L833.4 112.745H829.698L829.217 95.8281H833.882ZM829.084 117.958C829.084 117.305 829.305 116.757 829.748 116.314C830.202 115.861 830.811 115.634 831.574 115.634C832.338 115.634 832.941 115.861 833.384 116.314C833.838 116.757 834.064 117.305 834.064 117.958C834.064 118.6 833.838 119.142 833.384 119.585C832.941 120.028 832.338 120.249 831.574 120.249C830.811 120.249 830.202 120.028 829.748 119.585C829.305 119.142 829.084 118.6 829.084 117.958Z" fill="white"/>
</svg>
