<svg width="393" height="72" viewBox="0 0 393 72" fill="none" xmlns="http://www.w3.org/2000/svg">
<rect x="30" width="333" height="66" rx="20" fill="#FFCF00"/>
<path d="M80.875 23.2969H82.8281C82.7656 24.0417 82.5573 24.7057 82.2031 25.2891C81.849 25.8672 81.3516 26.3229 80.7109 26.6562C80.0703 26.9896 79.2917 27.1562 78.375 27.1562C77.6719 27.1562 77.0391 27.0312 76.4766 26.7812C75.9141 26.526 75.4323 26.1667 75.0312 25.7031C74.6302 25.2344 74.3229 24.6693 74.1094 24.0078C73.901 23.3464 73.7969 22.6068 73.7969 21.7891V20.8438C73.7969 20.026 73.9036 19.2865 74.1172 18.625C74.3359 17.9635 74.6484 17.3984 75.0547 16.9297C75.4609 16.4557 75.9479 16.0938 76.5156 15.8438C77.0885 15.5938 77.7318 15.4688 78.4453 15.4688C79.3516 15.4688 80.1172 15.6354 80.7422 15.9688C81.3672 16.3021 81.8516 16.763 82.1953 17.3516C82.5443 17.9401 82.7578 18.6146 82.8359 19.375H80.8828C80.8307 18.8854 80.7161 18.4661 80.5391 18.1172C80.3672 17.7682 80.112 17.5026 79.7734 17.3203C79.4349 17.1328 78.9922 17.0391 78.4453 17.0391C77.9974 17.0391 77.6068 17.1224 77.2734 17.2891C76.9401 17.4557 76.6615 17.7005 76.4375 18.0234C76.2135 18.3464 76.0443 18.7448 75.9297 19.2188C75.8203 19.6875 75.7656 20.224 75.7656 20.8281V21.7891C75.7656 22.362 75.8151 22.8828 75.9141 23.3516C76.0182 23.8151 76.1745 24.2135 76.3828 24.5469C76.5964 24.8802 76.8672 25.138 77.1953 25.3203C77.5234 25.5026 77.9167 25.5938 78.375 25.5938C78.9323 25.5938 79.3828 25.5052 79.7266 25.3281C80.0755 25.151 80.3385 24.8932 80.5156 24.5547C80.6979 24.2109 80.8177 23.7917 80.875 23.2969ZM84.0625 22.8672V22.6875C84.0625 22.0781 84.151 21.513 84.3281 20.9922C84.5052 20.4661 84.7604 20.0104 85.0938 19.625C85.4323 19.2344 85.8438 18.9323 86.3281 18.7188C86.8177 18.5 87.3698 18.3906 87.9844 18.3906C88.6042 18.3906 89.1562 18.5 89.6406 18.7188C90.1302 18.9323 90.5443 19.2344 90.8828 19.625C91.2214 20.0104 91.4792 20.4661 91.6562 20.9922C91.8333 21.513 91.9219 22.0781 91.9219 22.6875V22.8672C91.9219 23.4766 91.8333 24.0417 91.6562 24.5625C91.4792 25.0833 91.2214 25.5391 90.8828 25.9297C90.5443 26.3151 90.1328 26.6172 89.6484 26.8359C89.1641 27.0495 88.6146 27.1562 88 27.1562C87.3802 27.1562 86.8255 27.0495 86.3359 26.8359C85.8516 26.6172 85.4401 26.3151 85.1016 25.9297C84.763 25.5391 84.5052 25.0833 84.3281 24.5625C84.151 24.0417 84.0625 23.4766 84.0625 22.8672ZM85.9453 22.6875V22.8672C85.9453 23.2474 85.9844 23.6068 86.0625 23.9453C86.1406 24.2839 86.263 24.5807 86.4297 24.8359C86.5964 25.0911 86.8099 25.2917 87.0703 25.4375C87.3307 25.5833 87.6406 25.6562 88 25.6562C88.349 25.6562 88.651 25.5833 88.9062 25.4375C89.1667 25.2917 89.3802 25.0911 89.5469 24.8359C89.7135 24.5807 89.8359 24.2839 89.9141 23.9453C89.9974 23.6068 90.0391 23.2474 90.0391 22.8672V22.6875C90.0391 22.3125 89.9974 21.9583 89.9141 21.625C89.8359 21.2865 89.7109 20.987 89.5391 20.7266C89.3724 20.4661 89.1589 20.263 88.8984 20.1172C88.6432 19.9661 88.3385 19.8906 87.9844 19.8906C87.6302 19.8906 87.3229 19.9661 87.0625 20.1172C86.8073 20.263 86.5964 20.4661 86.4297 20.7266C86.263 20.987 86.1406 21.2865 86.0625 21.625C85.9844 21.9583 85.9453 22.3125 85.9453 22.6875ZM95.5156 15V27H93.625V15H95.5156ZM102.344 25.3047V21.2734C102.344 20.9714 102.289 20.7109 102.18 20.4922C102.07 20.2734 101.904 20.1042 101.68 19.9844C101.461 19.8646 101.185 19.8047 100.852 19.8047C100.544 19.8047 100.279 19.8568 100.055 19.9609C99.8307 20.0651 99.6562 20.2057 99.5312 20.3828C99.4062 20.5599 99.3438 20.7604 99.3438 20.9844H97.4688C97.4688 20.651 97.5495 20.3281 97.7109 20.0156C97.8724 19.7031 98.1068 19.4245 98.4141 19.1797C98.7214 18.9349 99.0885 18.7422 99.5156 18.6016C99.9427 18.4609 100.422 18.3906 100.953 18.3906C101.589 18.3906 102.151 18.4974 102.641 18.7109C103.135 18.9245 103.523 19.2474 103.805 19.6797C104.091 20.1068 104.234 20.6432 104.234 21.2891V25.0469C104.234 25.4323 104.26 25.7786 104.312 26.0859C104.37 26.388 104.451 26.651 104.555 26.875V27H102.625C102.536 26.7969 102.466 26.5391 102.414 26.2266C102.367 25.9089 102.344 25.6016 102.344 25.3047ZM102.617 21.8594L102.633 23.0234H101.281C100.932 23.0234 100.625 23.0573 100.359 23.125C100.094 23.1875 99.8724 23.2812 99.6953 23.4062C99.5182 23.5312 99.3854 23.6823 99.2969 23.8594C99.2083 24.0365 99.1641 24.237 99.1641 24.4609C99.1641 24.6849 99.2161 24.8906 99.3203 25.0781C99.4245 25.2604 99.5755 25.4036 99.7734 25.5078C99.9766 25.612 100.221 25.6641 100.508 25.6641C100.893 25.6641 101.229 25.5859 101.516 25.4297C101.807 25.2682 102.036 25.0729 102.203 24.8438C102.37 24.6094 102.458 24.388 102.469 24.1797L103.078 25.0156C103.016 25.2292 102.909 25.4583 102.758 25.7031C102.607 25.9479 102.409 26.1823 102.164 26.4062C101.924 26.625 101.635 26.8047 101.297 26.9453C100.964 27.0859 100.578 27.1562 100.141 27.1562C99.5885 27.1562 99.0964 27.0469 98.6641 26.8281C98.2318 26.6042 97.8932 26.3047 97.6484 25.9297C97.4036 25.5495 97.2812 25.1198 97.2812 24.6406C97.2812 24.1927 97.3646 23.7969 97.5312 23.4531C97.7031 23.1042 97.9531 22.8125 98.2812 22.5781C98.6146 22.3438 99.0208 22.1667 99.5 22.0469C99.9792 21.9219 100.526 21.8594 101.141 21.8594H102.617ZM106.211 15H108.094V25.1953L107.914 27H106.211V15ZM113.609 22.6953V22.8594C113.609 23.4844 113.539 24.0599 113.398 24.5859C113.263 25.1068 113.055 25.5599 112.773 25.9453C112.497 26.3307 112.154 26.6302 111.742 26.8438C111.336 27.0521 110.865 27.1562 110.328 27.1562C109.802 27.1562 109.344 27.0573 108.953 26.8594C108.562 26.6615 108.234 26.3802 107.969 26.0156C107.708 25.651 107.497 25.2161 107.336 24.7109C107.174 24.2057 107.06 23.6484 106.992 23.0391V22.5156C107.06 21.901 107.174 21.3438 107.336 20.8438C107.497 20.3385 107.708 19.9036 107.969 19.5391C108.234 19.1693 108.56 18.8854 108.945 18.6875C109.336 18.4896 109.792 18.3906 110.312 18.3906C110.854 18.3906 111.331 18.4948 111.742 18.7031C112.159 18.9115 112.505 19.2083 112.781 19.5938C113.057 19.974 113.263 20.4271 113.398 20.9531C113.539 21.4792 113.609 22.0599 113.609 22.6953ZM111.727 22.8594V22.6953C111.727 22.3151 111.695 21.9583 111.633 21.625C111.57 21.2865 111.466 20.9896 111.32 20.7344C111.18 20.4792 110.987 20.2786 110.742 20.1328C110.503 19.9818 110.203 19.9062 109.844 19.9062C109.51 19.9062 109.224 19.9635 108.984 20.0781C108.745 20.1927 108.544 20.349 108.383 20.5469C108.221 20.7448 108.094 20.974 108 21.2344C107.911 21.4948 107.852 21.776 107.82 22.0781V23.4922C107.867 23.8828 107.966 24.2422 108.117 24.5703C108.273 24.8932 108.492 25.1536 108.773 25.3516C109.055 25.5443 109.417 25.6406 109.859 25.6406C110.208 25.6406 110.503 25.5703 110.742 25.4297C110.982 25.2891 111.172 25.0938 111.312 24.8438C111.458 24.5885 111.562 24.2917 111.625 23.9531C111.693 23.6146 111.727 23.25 111.727 22.8594ZM114.844 22.8672V22.6875C114.844 22.0781 114.932 21.513 115.109 20.9922C115.286 20.4661 115.542 20.0104 115.875 19.625C116.214 19.2344 116.625 18.9323 117.109 18.7188C117.599 18.5 118.151 18.3906 118.766 18.3906C119.385 18.3906 119.938 18.5 120.422 18.7188C120.911 18.9323 121.326 19.2344 121.664 19.625C122.003 20.0104 122.26 20.4661 122.438 20.9922C122.615 21.513 122.703 22.0781 122.703 22.6875V22.8672C122.703 23.4766 122.615 24.0417 122.438 24.5625C122.26 25.0833 122.003 25.5391 121.664 25.9297C121.326 26.3151 120.914 26.6172 120.43 26.8359C119.945 27.0495 119.396 27.1562 118.781 27.1562C118.161 27.1562 117.607 27.0495 117.117 26.8359C116.633 26.6172 116.221 26.3151 115.883 25.9297C115.544 25.5391 115.286 25.0833 115.109 24.5625C114.932 24.0417 114.844 23.4766 114.844 22.8672ZM116.727 22.6875V22.8672C116.727 23.2474 116.766 23.6068 116.844 23.9453C116.922 24.2839 117.044 24.5807 117.211 24.8359C117.378 25.0911 117.591 25.2917 117.852 25.4375C118.112 25.5833 118.422 25.6562 118.781 25.6562C119.13 25.6562 119.432 25.5833 119.688 25.4375C119.948 25.2917 120.161 25.0911 120.328 24.8359C120.495 24.5807 120.617 24.2839 120.695 23.9453C120.779 23.6068 120.82 23.2474 120.82 22.8672V22.6875C120.82 22.3125 120.779 21.9583 120.695 21.625C120.617 21.2865 120.492 20.987 120.32 20.7266C120.154 20.4661 119.94 20.263 119.68 20.1172C119.424 19.9661 119.12 19.8906 118.766 19.8906C118.411 19.8906 118.104 19.9661 117.844 20.1172C117.589 20.263 117.378 20.4661 117.211 20.7266C117.044 20.987 116.922 21.2865 116.844 21.625C116.766 21.9583 116.727 22.3125 116.727 22.6875ZM126.172 20.1562V27H124.289V18.5469H126.086L126.172 20.1562ZM128.758 18.4922L128.742 20.2422C128.628 20.2214 128.503 20.2057 128.367 20.1953C128.237 20.1849 128.107 20.1797 127.977 20.1797C127.654 20.1797 127.37 20.2266 127.125 20.3203C126.88 20.4089 126.674 20.5391 126.508 20.7109C126.346 20.8776 126.221 21.0807 126.133 21.3203C126.044 21.5599 125.992 21.8281 125.977 22.125L125.547 22.1562C125.547 21.625 125.599 21.1328 125.703 20.6797C125.807 20.2266 125.964 19.8281 126.172 19.4844C126.385 19.1406 126.651 18.8724 126.969 18.6797C127.292 18.487 127.664 18.3906 128.086 18.3906C128.201 18.3906 128.323 18.401 128.453 18.4219C128.589 18.4427 128.69 18.4661 128.758 18.4922ZM134.422 25.3047V21.2734C134.422 20.9714 134.367 20.7109 134.258 20.4922C134.148 20.2734 133.982 20.1042 133.758 19.9844C133.539 19.8646 133.263 19.8047 132.93 19.8047C132.622 19.8047 132.357 19.8568 132.133 19.9609C131.909 20.0651 131.734 20.2057 131.609 20.3828C131.484 20.5599 131.422 20.7604 131.422 20.9844H129.547C129.547 20.651 129.628 20.3281 129.789 20.0156C129.951 19.7031 130.185 19.4245 130.492 19.1797C130.799 18.9349 131.167 18.7422 131.594 18.6016C132.021 18.4609 132.5 18.3906 133.031 18.3906C133.667 18.3906 134.229 18.4974 134.719 18.7109C135.214 18.9245 135.602 19.2474 135.883 19.6797C136.169 20.1068 136.312 20.6432 136.312 21.2891V25.0469C136.312 25.4323 136.339 25.7786 136.391 26.0859C136.448 26.388 136.529 26.651 136.633 26.875V27H134.703C134.615 26.7969 134.544 26.5391 134.492 26.2266C134.445 25.9089 134.422 25.6016 134.422 25.3047ZM134.695 21.8594L134.711 23.0234H133.359C133.01 23.0234 132.703 23.0573 132.438 23.125C132.172 23.1875 131.951 23.2812 131.773 23.4062C131.596 23.5312 131.464 23.6823 131.375 23.8594C131.286 24.0365 131.242 24.237 131.242 24.4609C131.242 24.6849 131.294 24.8906 131.398 25.0781C131.503 25.2604 131.654 25.4036 131.852 25.5078C132.055 25.612 132.299 25.6641 132.586 25.6641C132.971 25.6641 133.307 25.5859 133.594 25.4297C133.885 25.2682 134.115 25.0729 134.281 24.8438C134.448 24.6094 134.536 24.388 134.547 24.1797L135.156 25.0156C135.094 25.2292 134.987 25.4583 134.836 25.7031C134.685 25.9479 134.487 26.1823 134.242 26.4062C134.003 26.625 133.714 26.8047 133.375 26.9453C133.042 27.0859 132.656 27.1562 132.219 27.1562C131.667 27.1562 131.174 27.0469 130.742 26.8281C130.31 26.6042 129.971 26.3047 129.727 25.9297C129.482 25.5495 129.359 25.1198 129.359 24.6406C129.359 24.1927 129.443 23.7969 129.609 23.4531C129.781 23.1042 130.031 22.8125 130.359 22.5781C130.693 22.3438 131.099 22.1667 131.578 22.0469C132.057 21.9219 132.604 21.8594 133.219 21.8594H134.695ZM143.438 25.25V15H145.328V27H143.617L143.438 25.25ZM137.938 22.8672V22.7031C137.938 22.0625 138.013 21.4792 138.164 20.9531C138.315 20.4219 138.534 19.9661 138.82 19.5859C139.107 19.2005 139.456 18.9062 139.867 18.7031C140.279 18.4948 140.742 18.3906 141.258 18.3906C141.768 18.3906 142.216 18.4896 142.602 18.6875C142.987 18.8854 143.315 19.1693 143.586 19.5391C143.857 19.9036 144.073 20.3411 144.234 20.8516C144.396 21.3568 144.51 21.9193 144.578 22.5391V23.0625C144.51 23.6667 144.396 24.2188 144.234 24.7188C144.073 25.2188 143.857 25.651 143.586 26.0156C143.315 26.3802 142.984 26.6615 142.594 26.8594C142.208 27.0573 141.758 27.1562 141.242 27.1562C140.732 27.1562 140.271 27.0495 139.859 26.8359C139.453 26.6224 139.107 26.3229 138.82 25.9375C138.534 25.5521 138.315 25.099 138.164 24.5781C138.013 24.0521 137.938 23.4818 137.938 22.8672ZM139.82 22.7031V22.8672C139.82 23.2526 139.854 23.612 139.922 23.9453C139.995 24.2786 140.107 24.5729 140.258 24.8281C140.409 25.0781 140.604 25.276 140.844 25.4219C141.089 25.5625 141.38 25.6328 141.719 25.6328C142.146 25.6328 142.497 25.5391 142.773 25.3516C143.049 25.1641 143.266 24.9115 143.422 24.5938C143.583 24.2708 143.693 23.9115 143.75 23.5156V22.1016C143.719 21.7943 143.654 21.5078 143.555 21.2422C143.461 20.9766 143.333 20.7448 143.172 20.5469C143.01 20.3438 142.81 20.1875 142.57 20.0781C142.336 19.9635 142.057 19.9062 141.734 19.9062C141.391 19.9062 141.099 19.9792 140.859 20.125C140.62 20.2708 140.422 20.4714 140.266 20.7266C140.115 20.9818 140.003 21.2786 139.93 21.6172C139.857 21.9557 139.82 22.3177 139.82 22.7031ZM146.938 22.8672V22.6875C146.938 22.0781 147.026 21.513 147.203 20.9922C147.38 20.4661 147.635 20.0104 147.969 19.625C148.307 19.2344 148.719 18.9323 149.203 18.7188C149.693 18.5 150.245 18.3906 150.859 18.3906C151.479 18.3906 152.031 18.5 152.516 18.7188C153.005 18.9323 153.419 19.2344 153.758 19.625C154.096 20.0104 154.354 20.4661 154.531 20.9922C154.708 21.513 154.797 22.0781 154.797 22.6875V22.8672C154.797 23.4766 154.708 24.0417 154.531 24.5625C154.354 25.0833 154.096 25.5391 153.758 25.9297C153.419 26.3151 153.008 26.6172 152.523 26.8359C152.039 27.0495 151.49 27.1562 150.875 27.1562C150.255 27.1562 149.701 27.0495 149.211 26.8359C148.727 26.6172 148.315 26.3151 147.977 25.9297C147.638 25.5391 147.38 25.0833 147.203 24.5625C147.026 24.0417 146.938 23.4766 146.938 22.8672ZM148.82 22.6875V22.8672C148.82 23.2474 148.859 23.6068 148.938 23.9453C149.016 24.2839 149.138 24.5807 149.305 24.8359C149.471 25.0911 149.685 25.2917 149.945 25.4375C150.206 25.5833 150.516 25.6562 150.875 25.6562C151.224 25.6562 151.526 25.5833 151.781 25.4375C152.042 25.2917 152.255 25.0911 152.422 24.8359C152.589 24.5807 152.711 24.2839 152.789 23.9453C152.872 23.6068 152.914 23.2474 152.914 22.8672V22.6875C152.914 22.3125 152.872 21.9583 152.789 21.625C152.711 21.2865 152.586 20.987 152.414 20.7266C152.247 20.4661 152.034 20.263 151.773 20.1172C151.518 19.9661 151.214 19.8906 150.859 19.8906C150.505 19.8906 150.198 19.9661 149.938 20.1172C149.682 20.263 149.471 20.4661 149.305 20.7266C149.138 20.987 149.016 21.2865 148.938 21.625C148.859 21.9583 148.82 22.3125 148.82 22.6875ZM158.266 20.1562V27H156.383V18.5469H158.18L158.266 20.1562ZM160.852 18.4922L160.836 20.2422C160.721 20.2214 160.596 20.2057 160.461 20.1953C160.331 20.1849 160.201 20.1797 160.07 20.1797C159.747 20.1797 159.464 20.2266 159.219 20.3203C158.974 20.4089 158.768 20.5391 158.602 20.7109C158.44 20.8776 158.315 21.0807 158.227 21.3203C158.138 21.5599 158.086 21.8281 158.07 22.125L157.641 22.1562C157.641 21.625 157.693 21.1328 157.797 20.6797C157.901 20.2266 158.057 19.8281 158.266 19.4844C158.479 19.1406 158.745 18.8724 159.062 18.6797C159.385 18.487 159.758 18.3906 160.18 18.3906C160.294 18.3906 160.417 18.401 160.547 18.4219C160.682 18.4427 160.784 18.4661 160.852 18.4922ZM165.602 27.1562C164.977 27.1562 164.411 27.0547 163.906 26.8516C163.406 26.6432 162.979 26.3542 162.625 25.9844C162.276 25.6146 162.008 25.1797 161.82 24.6797C161.633 24.1797 161.539 23.6406 161.539 23.0625V22.75C161.539 22.0885 161.635 21.4896 161.828 20.9531C162.021 20.4167 162.289 19.9583 162.633 19.5781C162.977 19.1927 163.383 18.8984 163.852 18.6953C164.32 18.4922 164.828 18.3906 165.375 18.3906C165.979 18.3906 166.508 18.4922 166.961 18.6953C167.414 18.8984 167.789 19.1849 168.086 19.5547C168.388 19.9193 168.612 20.3542 168.758 20.8594C168.909 21.3646 168.984 21.9219 168.984 22.5312V23.3359H162.453V21.9844H167.125V21.8359C167.115 21.4974 167.047 21.1797 166.922 20.8828C166.802 20.5859 166.617 20.3464 166.367 20.1641C166.117 19.9818 165.784 19.8906 165.367 19.8906C165.055 19.8906 164.776 19.9583 164.531 20.0938C164.292 20.224 164.091 20.4141 163.93 20.6641C163.768 20.9141 163.643 21.2161 163.555 21.5703C163.471 21.9193 163.43 22.3125 163.43 22.75V23.0625C163.43 23.4323 163.479 23.776 163.578 24.0938C163.682 24.4062 163.833 24.6797 164.031 24.9141C164.229 25.1484 164.469 25.3333 164.75 25.4688C165.031 25.599 165.352 25.6641 165.711 25.6641C166.164 25.6641 166.568 25.5729 166.922 25.3906C167.276 25.2083 167.583 24.9505 167.844 24.6172L168.836 25.5781C168.654 25.8438 168.417 26.099 168.125 26.3438C167.833 26.5833 167.477 26.7786 167.055 26.9297C166.638 27.0807 166.154 27.1562 165.602 27.1562ZM175.195 24.7109C175.195 24.5234 175.148 24.3542 175.055 24.2031C174.961 24.0469 174.781 23.9062 174.516 23.7812C174.255 23.6562 173.87 23.5417 173.359 23.4375C172.911 23.3385 172.5 23.2214 172.125 23.0859C171.755 22.9453 171.438 22.776 171.172 22.5781C170.906 22.3802 170.701 22.1458 170.555 21.875C170.409 21.6042 170.336 21.2917 170.336 20.9375C170.336 20.5938 170.411 20.2682 170.562 19.9609C170.714 19.6536 170.93 19.3828 171.211 19.1484C171.492 18.9141 171.833 18.7292 172.234 18.5938C172.641 18.4583 173.094 18.3906 173.594 18.3906C174.302 18.3906 174.909 18.5104 175.414 18.75C175.924 18.9844 176.315 19.3047 176.586 19.7109C176.857 20.112 176.992 20.5651 176.992 21.0703H175.109C175.109 20.8464 175.052 20.638 174.938 20.4453C174.828 20.2474 174.661 20.0885 174.438 19.9688C174.214 19.8438 173.932 19.7812 173.594 19.7812C173.271 19.7812 173.003 19.8333 172.789 19.9375C172.581 20.0365 172.424 20.1667 172.32 20.3281C172.221 20.4896 172.172 20.6667 172.172 20.8594C172.172 21 172.198 21.1276 172.25 21.2422C172.307 21.3516 172.401 21.4531 172.531 21.5469C172.661 21.6354 172.839 21.7188 173.062 21.7969C173.292 21.875 173.578 21.9505 173.922 22.0234C174.568 22.1589 175.122 22.3333 175.586 22.5469C176.055 22.7552 176.414 23.026 176.664 23.3594C176.914 23.6875 177.039 24.1042 177.039 24.6094C177.039 24.9844 176.958 25.3281 176.797 25.6406C176.641 25.9479 176.411 26.2161 176.109 26.4453C175.807 26.6693 175.445 26.8438 175.023 26.9688C174.607 27.0938 174.138 27.1562 173.617 27.1562C172.852 27.1562 172.203 27.0208 171.672 26.75C171.141 26.474 170.737 26.1224 170.461 25.6953C170.19 25.263 170.055 24.8151 170.055 24.3516H171.875C171.896 24.7005 171.992 24.9792 172.164 25.1875C172.341 25.3906 172.56 25.5391 172.82 25.6328C173.086 25.7214 173.359 25.7656 173.641 25.7656C173.979 25.7656 174.263 25.7214 174.492 25.6328C174.721 25.5391 174.896 25.4141 175.016 25.2578C175.135 25.0964 175.195 24.9141 175.195 24.7109ZM187.828 25.25V15H189.719V27H188.008L187.828 25.25ZM182.328 22.8672V22.7031C182.328 22.0625 182.404 21.4792 182.555 20.9531C182.706 20.4219 182.924 19.9661 183.211 19.5859C183.497 19.2005 183.846 18.9062 184.258 18.7031C184.669 18.4948 185.133 18.3906 185.648 18.3906C186.159 18.3906 186.607 18.4896 186.992 18.6875C187.378 18.8854 187.706 19.1693 187.977 19.5391C188.247 19.9036 188.464 20.3411 188.625 20.8516C188.786 21.3568 188.901 21.9193 188.969 22.5391V23.0625C188.901 23.6667 188.786 24.2188 188.625 24.7188C188.464 25.2188 188.247 25.651 187.977 26.0156C187.706 26.3802 187.375 26.6615 186.984 26.8594C186.599 27.0573 186.148 27.1562 185.633 27.1562C185.122 27.1562 184.661 27.0495 184.25 26.8359C183.844 26.6224 183.497 26.3229 183.211 25.9375C182.924 25.5521 182.706 25.099 182.555 24.5781C182.404 24.0521 182.328 23.4818 182.328 22.8672ZM184.211 22.7031V22.8672C184.211 23.2526 184.245 23.612 184.312 23.9453C184.385 24.2786 184.497 24.5729 184.648 24.8281C184.799 25.0781 184.995 25.276 185.234 25.4219C185.479 25.5625 185.771 25.6328 186.109 25.6328C186.536 25.6328 186.888 25.5391 187.164 25.3516C187.44 25.1641 187.656 24.9115 187.812 24.5938C187.974 24.2708 188.083 23.9115 188.141 23.5156V22.1016C188.109 21.7943 188.044 21.5078 187.945 21.2422C187.852 20.9766 187.724 20.7448 187.562 20.5469C187.401 20.3438 187.201 20.1875 186.961 20.0781C186.727 19.9635 186.448 19.9062 186.125 19.9062C185.781 19.9062 185.49 19.9792 185.25 20.125C185.01 20.2708 184.812 20.4714 184.656 20.7266C184.505 20.9818 184.393 21.2786 184.32 21.6172C184.247 21.9557 184.211 22.3177 184.211 22.7031ZM196.453 25.3047V21.2734C196.453 20.9714 196.398 20.7109 196.289 20.4922C196.18 20.2734 196.013 20.1042 195.789 19.9844C195.57 19.8646 195.294 19.8047 194.961 19.8047C194.654 19.8047 194.388 19.8568 194.164 19.9609C193.94 20.0651 193.766 20.2057 193.641 20.3828C193.516 20.5599 193.453 20.7604 193.453 20.9844H191.578C191.578 20.651 191.659 20.3281 191.82 20.0156C191.982 19.7031 192.216 19.4245 192.523 19.1797C192.831 18.9349 193.198 18.7422 193.625 18.6016C194.052 18.4609 194.531 18.3906 195.062 18.3906C195.698 18.3906 196.26 18.4974 196.75 18.7109C197.245 18.9245 197.633 19.2474 197.914 19.6797C198.201 20.1068 198.344 20.6432 198.344 21.2891V25.0469C198.344 25.4323 198.37 25.7786 198.422 26.0859C198.479 26.388 198.56 26.651 198.664 26.875V27H196.734C196.646 26.7969 196.576 26.5391 196.523 26.2266C196.477 25.9089 196.453 25.6016 196.453 25.3047ZM196.727 21.8594L196.742 23.0234H195.391C195.042 23.0234 194.734 23.0573 194.469 23.125C194.203 23.1875 193.982 23.2812 193.805 23.4062C193.628 23.5312 193.495 23.6823 193.406 23.8594C193.318 24.0365 193.273 24.237 193.273 24.4609C193.273 24.6849 193.326 24.8906 193.43 25.0781C193.534 25.2604 193.685 25.4036 193.883 25.5078C194.086 25.612 194.331 25.6641 194.617 25.6641C195.003 25.6641 195.339 25.5859 195.625 25.4297C195.917 25.2682 196.146 25.0729 196.312 24.8438C196.479 24.6094 196.568 24.388 196.578 24.1797L197.188 25.0156C197.125 25.2292 197.018 25.4583 196.867 25.7031C196.716 25.9479 196.518 26.1823 196.273 26.4062C196.034 26.625 195.745 26.8047 195.406 26.9453C195.073 27.0859 194.688 27.1562 194.25 27.1562C193.698 27.1562 193.206 27.0469 192.773 26.8281C192.341 26.6042 192.003 26.3047 191.758 25.9297C191.513 25.5495 191.391 25.1198 191.391 24.6406C191.391 24.1927 191.474 23.7969 191.641 23.4531C191.812 23.1042 192.062 22.8125 192.391 22.5781C192.724 22.3438 193.13 22.1667 193.609 22.0469C194.089 21.9219 194.635 21.8594 195.25 21.8594H196.727ZM205.977 15.625L208.391 19.7734L210.805 15.625H213.062L209.625 21.2578L213.148 27H210.867L208.391 22.7734L205.914 27H203.625L207.156 21.2578L203.711 15.625H205.977ZM216.297 20.1719V30.25H214.414V18.5469H216.148L216.297 20.1719ZM221.805 22.6953V22.8594C221.805 23.474 221.732 24.0443 221.586 24.5703C221.445 25.0911 221.234 25.5469 220.953 25.9375C220.677 26.3229 220.336 26.6224 219.93 26.8359C219.523 27.0495 219.055 27.1562 218.523 27.1562C217.997 27.1562 217.536 27.0599 217.141 26.8672C216.75 26.6693 216.419 26.3906 216.148 26.0312C215.878 25.6719 215.659 25.25 215.492 24.7656C215.331 24.276 215.216 23.7396 215.148 23.1562V22.5234C215.216 21.9036 215.331 21.3411 215.492 20.8359C215.659 20.3307 215.878 19.8958 216.148 19.5312C216.419 19.1667 216.75 18.8854 217.141 18.6875C217.531 18.4896 217.987 18.3906 218.508 18.3906C219.039 18.3906 219.51 18.4948 219.922 18.7031C220.333 18.9062 220.68 19.1979 220.961 19.5781C221.242 19.9531 221.453 20.4062 221.594 20.9375C221.734 21.4635 221.805 22.0495 221.805 22.6953ZM219.922 22.8594V22.6953C219.922 22.3047 219.885 21.9427 219.812 21.6094C219.74 21.2708 219.625 20.974 219.469 20.7188C219.312 20.4635 219.112 20.2656 218.867 20.125C218.628 19.9792 218.339 19.9062 218 19.9062C217.667 19.9062 217.38 19.9635 217.141 20.0781C216.901 20.1875 216.701 20.3411 216.539 20.5391C216.378 20.737 216.253 20.9688 216.164 21.2344C216.076 21.4948 216.013 21.7786 215.977 22.0859V23.6016C216.039 23.9766 216.146 24.3203 216.297 24.6328C216.448 24.9453 216.661 25.1953 216.938 25.3828C217.219 25.5651 217.578 25.6562 218.016 25.6562C218.354 25.6562 218.643 25.5833 218.883 25.4375C219.122 25.2917 219.318 25.0911 219.469 24.8359C219.625 24.5755 219.74 24.276 219.812 23.9375C219.885 23.599 219.922 23.2396 219.922 22.8594ZM230.844 25.6562C231.151 25.6562 231.427 25.5964 231.672 25.4766C231.922 25.3516 232.122 25.1797 232.273 24.9609C232.43 24.7422 232.516 24.4896 232.531 24.2031H234.305C234.294 24.75 234.133 25.2474 233.82 25.6953C233.508 26.1432 233.094 26.5 232.578 26.7656C232.062 27.026 231.492 27.1562 230.867 27.1562C230.221 27.1562 229.659 27.0469 229.18 26.8281C228.701 26.6042 228.302 26.2969 227.984 25.9062C227.667 25.5156 227.427 25.0651 227.266 24.5547C227.109 24.0443 227.031 23.4974 227.031 22.9141V22.6406C227.031 22.0573 227.109 21.5104 227.266 21C227.427 20.4844 227.667 20.0312 227.984 19.6406C228.302 19.25 228.701 18.9453 229.18 18.7266C229.659 18.5026 230.219 18.3906 230.859 18.3906C231.536 18.3906 232.13 18.526 232.641 18.7969C233.151 19.0625 233.552 19.4349 233.844 19.9141C234.141 20.388 234.294 20.9401 234.305 21.5703H232.531C232.516 21.2578 232.438 20.9766 232.297 20.7266C232.161 20.4714 231.969 20.2682 231.719 20.1172C231.474 19.9661 231.18 19.8906 230.836 19.8906C230.456 19.8906 230.141 19.9688 229.891 20.125C229.641 20.276 229.445 20.4844 229.305 20.75C229.164 21.0104 229.062 21.3047 229 21.6328C228.943 21.9557 228.914 22.2917 228.914 22.6406V22.9141C228.914 23.263 228.943 23.6016 229 23.9297C229.057 24.2578 229.156 24.5521 229.297 24.8125C229.443 25.0677 229.641 25.2734 229.891 25.4297C230.141 25.5807 230.458 25.6562 230.844 25.6562ZM235.391 22.8672V22.6875C235.391 22.0781 235.479 21.513 235.656 20.9922C235.833 20.4661 236.089 20.0104 236.422 19.625C236.76 19.2344 237.172 18.9323 237.656 18.7188C238.146 18.5 238.698 18.3906 239.312 18.3906C239.932 18.3906 240.484 18.5 240.969 18.7188C241.458 18.9323 241.872 19.2344 242.211 19.625C242.549 20.0104 242.807 20.4661 242.984 20.9922C243.161 21.513 243.25 22.0781 243.25 22.6875V22.8672C243.25 23.4766 243.161 24.0417 242.984 24.5625C242.807 25.0833 242.549 25.5391 242.211 25.9297C241.872 26.3151 241.461 26.6172 240.977 26.8359C240.492 27.0495 239.943 27.1562 239.328 27.1562C238.708 27.1562 238.154 27.0495 237.664 26.8359C237.18 26.6172 236.768 26.3151 236.43 25.9297C236.091 25.5391 235.833 25.0833 235.656 24.5625C235.479 24.0417 235.391 23.4766 235.391 22.8672ZM237.273 22.6875V22.8672C237.273 23.2474 237.312 23.6068 237.391 23.9453C237.469 24.2839 237.591 24.5807 237.758 24.8359C237.924 25.0911 238.138 25.2917 238.398 25.4375C238.659 25.5833 238.969 25.6562 239.328 25.6562C239.677 25.6562 239.979 25.5833 240.234 25.4375C240.495 25.2917 240.708 25.0911 240.875 24.8359C241.042 24.5807 241.164 24.2839 241.242 23.9453C241.326 23.6068 241.367 23.2474 241.367 22.8672V22.6875C241.367 22.3125 241.326 21.9583 241.242 21.625C241.164 21.2865 241.039 20.987 240.867 20.7266C240.701 20.4661 240.487 20.263 240.227 20.1172C239.971 19.9661 239.667 19.8906 239.312 19.8906C238.958 19.8906 238.651 19.9661 238.391 20.1172C238.135 20.263 237.924 20.4661 237.758 20.7266C237.591 20.987 237.469 21.2865 237.391 21.625C237.312 21.9583 237.273 22.3125 237.273 22.6875ZM246.695 20.3516V27H244.812V18.5469H246.586L246.695 20.3516ZM246.359 22.4609L245.75 22.4531C245.755 21.8542 245.839 21.3047 246 20.8047C246.167 20.3047 246.396 19.875 246.688 19.5156C246.984 19.1562 247.339 18.8802 247.75 18.6875C248.161 18.4896 248.62 18.3906 249.125 18.3906C249.531 18.3906 249.898 18.4479 250.227 18.5625C250.56 18.6719 250.844 18.8516 251.078 19.1016C251.318 19.3516 251.5 19.6771 251.625 20.0781C251.75 20.474 251.812 20.9609 251.812 21.5391V27H249.922V21.5312C249.922 21.125 249.862 20.8047 249.742 20.5703C249.628 20.3307 249.458 20.1615 249.234 20.0625C249.016 19.9583 248.742 19.9062 248.414 19.9062C248.091 19.9062 247.802 19.974 247.547 20.1094C247.292 20.2448 247.076 20.4297 246.898 20.6641C246.727 20.8984 246.594 21.1693 246.5 21.4766C246.406 21.7839 246.359 22.112 246.359 22.4609ZM257.609 18.5469V19.9219H252.844V18.5469H257.609ZM254.219 16.4766H256.102V24.6641C256.102 24.9245 256.138 25.125 256.211 25.2656C256.289 25.401 256.396 25.4922 256.531 25.5391C256.667 25.5859 256.826 25.6094 257.008 25.6094C257.138 25.6094 257.263 25.6016 257.383 25.5859C257.503 25.5703 257.599 25.5547 257.672 25.5391L257.68 26.9766C257.523 27.0234 257.341 27.0651 257.133 27.1016C256.93 27.138 256.695 27.1562 256.43 27.1562C255.997 27.1562 255.615 27.0807 255.281 26.9297C254.948 26.7734 254.688 26.5208 254.5 26.1719C254.312 25.8229 254.219 25.3594 254.219 24.7812V16.4766ZM263.828 25.3047V21.2734C263.828 20.9714 263.773 20.7109 263.664 20.4922C263.555 20.2734 263.388 20.1042 263.164 19.9844C262.945 19.8646 262.669 19.8047 262.336 19.8047C262.029 19.8047 261.763 19.8568 261.539 19.9609C261.315 20.0651 261.141 20.2057 261.016 20.3828C260.891 20.5599 260.828 20.7604 260.828 20.9844H258.953C258.953 20.651 259.034 20.3281 259.195 20.0156C259.357 19.7031 259.591 19.4245 259.898 19.1797C260.206 18.9349 260.573 18.7422 261 18.6016C261.427 18.4609 261.906 18.3906 262.438 18.3906C263.073 18.3906 263.635 18.4974 264.125 18.7109C264.62 18.9245 265.008 19.2474 265.289 19.6797C265.576 20.1068 265.719 20.6432 265.719 21.2891V25.0469C265.719 25.4323 265.745 25.7786 265.797 26.0859C265.854 26.388 265.935 26.651 266.039 26.875V27H264.109C264.021 26.7969 263.951 26.5391 263.898 26.2266C263.852 25.9089 263.828 25.6016 263.828 25.3047ZM264.102 21.8594L264.117 23.0234H262.766C262.417 23.0234 262.109 23.0573 261.844 23.125C261.578 23.1875 261.357 23.2812 261.18 23.4062C261.003 23.5312 260.87 23.6823 260.781 23.8594C260.693 24.0365 260.648 24.237 260.648 24.4609C260.648 24.6849 260.701 24.8906 260.805 25.0781C260.909 25.2604 261.06 25.4036 261.258 25.5078C261.461 25.612 261.706 25.6641 261.992 25.6641C262.378 25.6641 262.714 25.5859 263 25.4297C263.292 25.2682 263.521 25.0729 263.688 24.8438C263.854 24.6094 263.943 24.388 263.953 24.1797L264.562 25.0156C264.5 25.2292 264.393 25.4583 264.242 25.7031C264.091 25.9479 263.893 26.1823 263.648 26.4062C263.409 26.625 263.12 26.8047 262.781 26.9453C262.448 27.0859 262.062 27.1562 261.625 27.1562C261.073 27.1562 260.581 27.0469 260.148 26.8281C259.716 26.6042 259.378 26.3047 259.133 25.9297C258.888 25.5495 258.766 25.1198 258.766 24.6406C258.766 24.1927 258.849 23.7969 259.016 23.4531C259.188 23.1042 259.438 22.8125 259.766 22.5781C260.099 22.3438 260.505 22.1667 260.984 22.0469C261.464 21.9219 262.01 21.8594 262.625 21.8594H264.102ZM269.57 20.2656V27H267.688V18.5469H269.461L269.57 20.2656ZM269.266 22.4609L268.625 22.4531C268.625 21.8698 268.698 21.3307 268.844 20.8359C268.99 20.3411 269.203 19.9115 269.484 19.5469C269.766 19.1771 270.115 18.8932 270.531 18.6953C270.953 18.4922 271.44 18.3906 271.992 18.3906C272.378 18.3906 272.729 18.4479 273.047 18.5625C273.37 18.6719 273.648 18.8464 273.883 19.0859C274.122 19.3255 274.305 19.6328 274.43 20.0078C274.56 20.3828 274.625 20.8359 274.625 21.3672V27H272.742V21.5312C272.742 21.1198 272.68 20.7969 272.555 20.5625C272.435 20.3281 272.26 20.1615 272.031 20.0625C271.807 19.9583 271.539 19.9062 271.227 19.9062C270.872 19.9062 270.57 19.974 270.32 20.1094C270.076 20.2448 269.875 20.4297 269.719 20.6641C269.562 20.8984 269.448 21.1693 269.375 21.4766C269.302 21.7839 269.266 22.112 269.266 22.4609ZM274.508 21.9609L273.625 22.1562C273.625 21.6458 273.695 21.1641 273.836 20.7109C273.982 20.2526 274.193 19.8516 274.469 19.5078C274.75 19.1589 275.096 18.8854 275.508 18.6875C275.919 18.4896 276.391 18.3906 276.922 18.3906C277.354 18.3906 277.74 18.4505 278.078 18.5703C278.422 18.6849 278.714 18.8672 278.953 19.1172C279.193 19.3672 279.375 19.6927 279.5 20.0938C279.625 20.4896 279.688 20.9688 279.688 21.5312V27H277.797V21.5234C277.797 21.0964 277.734 20.7656 277.609 20.5312C277.49 20.2969 277.318 20.1354 277.094 20.0469C276.87 19.9531 276.602 19.9062 276.289 19.9062C275.997 19.9062 275.74 19.9609 275.516 20.0703C275.297 20.1745 275.112 20.3229 274.961 20.5156C274.81 20.7031 274.695 20.9193 274.617 21.1641C274.544 21.4089 274.508 21.6745 274.508 21.9609ZM289.062 25.6562C289.37 25.6562 289.646 25.5964 289.891 25.4766C290.141 25.3516 290.341 25.1797 290.492 24.9609C290.648 24.7422 290.734 24.4896 290.75 24.2031H292.523C292.513 24.75 292.352 25.2474 292.039 25.6953C291.727 26.1432 291.312 26.5 290.797 26.7656C290.281 27.026 289.711 27.1562 289.086 27.1562C288.44 27.1562 287.878 27.0469 287.398 26.8281C286.919 26.6042 286.521 26.2969 286.203 25.9062C285.885 25.5156 285.646 25.0651 285.484 24.5547C285.328 24.0443 285.25 23.4974 285.25 22.9141V22.6406C285.25 22.0573 285.328 21.5104 285.484 21C285.646 20.4844 285.885 20.0312 286.203 19.6406C286.521 19.25 286.919 18.9453 287.398 18.7266C287.878 18.5026 288.438 18.3906 289.078 18.3906C289.755 18.3906 290.349 18.526 290.859 18.7969C291.37 19.0625 291.771 19.4349 292.062 19.9141C292.359 20.388 292.513 20.9401 292.523 21.5703H290.75C290.734 21.2578 290.656 20.9766 290.516 20.7266C290.38 20.4714 290.188 20.2682 289.938 20.1172C289.693 19.9661 289.398 19.8906 289.055 19.8906C288.674 19.8906 288.359 19.9688 288.109 20.125C287.859 20.276 287.664 20.4844 287.523 20.75C287.383 21.0104 287.281 21.3047 287.219 21.6328C287.161 21.9557 287.133 22.2917 287.133 22.6406V22.9141C287.133 23.263 287.161 23.6016 287.219 23.9297C287.276 24.2578 287.375 24.5521 287.516 24.8125C287.661 25.0677 287.859 25.2734 288.109 25.4297C288.359 25.5807 288.677 25.6562 289.062 25.6562ZM293.609 22.8672V22.6875C293.609 22.0781 293.698 21.513 293.875 20.9922C294.052 20.4661 294.307 20.0104 294.641 19.625C294.979 19.2344 295.391 18.9323 295.875 18.7188C296.365 18.5 296.917 18.3906 297.531 18.3906C298.151 18.3906 298.703 18.5 299.188 18.7188C299.677 18.9323 300.091 19.2344 300.43 19.625C300.768 20.0104 301.026 20.4661 301.203 20.9922C301.38 21.513 301.469 22.0781 301.469 22.6875V22.8672C301.469 23.4766 301.38 24.0417 301.203 24.5625C301.026 25.0833 300.768 25.5391 300.43 25.9297C300.091 26.3151 299.68 26.6172 299.195 26.8359C298.711 27.0495 298.161 27.1562 297.547 27.1562C296.927 27.1562 296.372 27.0495 295.883 26.8359C295.398 26.6172 294.987 26.3151 294.648 25.9297C294.31 25.5391 294.052 25.0833 293.875 24.5625C293.698 24.0417 293.609 23.4766 293.609 22.8672ZM295.492 22.6875V22.8672C295.492 23.2474 295.531 23.6068 295.609 23.9453C295.688 24.2839 295.81 24.5807 295.977 24.8359C296.143 25.0911 296.357 25.2917 296.617 25.4375C296.878 25.5833 297.188 25.6562 297.547 25.6562C297.896 25.6562 298.198 25.5833 298.453 25.4375C298.714 25.2917 298.927 25.0911 299.094 24.8359C299.26 24.5807 299.383 24.2839 299.461 23.9453C299.544 23.6068 299.586 23.2474 299.586 22.8672V22.6875C299.586 22.3125 299.544 21.9583 299.461 21.625C299.383 21.2865 299.258 20.987 299.086 20.7266C298.919 20.4661 298.706 20.263 298.445 20.1172C298.19 19.9661 297.885 19.8906 297.531 19.8906C297.177 19.8906 296.87 19.9661 296.609 20.1172C296.354 20.263 296.143 20.4661 295.977 20.7266C295.81 20.987 295.688 21.2865 295.609 21.625C295.531 21.9583 295.492 22.3125 295.492 22.6875ZM304.93 20.2656V27H303.047V18.5469H304.82L304.93 20.2656ZM304.625 22.4609L303.984 22.4531C303.984 21.8698 304.057 21.3307 304.203 20.8359C304.349 20.3411 304.562 19.9115 304.844 19.5469C305.125 19.1771 305.474 18.8932 305.891 18.6953C306.312 18.4922 306.799 18.3906 307.352 18.3906C307.737 18.3906 308.089 18.4479 308.406 18.5625C308.729 18.6719 309.008 18.8464 309.242 19.0859C309.482 19.3255 309.664 19.6328 309.789 20.0078C309.919 20.3828 309.984 20.8359 309.984 21.3672V27H308.102V21.5312C308.102 21.1198 308.039 20.7969 307.914 20.5625C307.794 20.3281 307.62 20.1615 307.391 20.0625C307.167 19.9583 306.898 19.9062 306.586 19.9062C306.232 19.9062 305.93 19.974 305.68 20.1094C305.435 20.2448 305.234 20.4297 305.078 20.6641C304.922 20.8984 304.807 21.1693 304.734 21.4766C304.661 21.7839 304.625 22.112 304.625 22.4609ZM309.867 21.9609L308.984 22.1562C308.984 21.6458 309.055 21.1641 309.195 20.7109C309.341 20.2526 309.552 19.8516 309.828 19.5078C310.109 19.1589 310.456 18.8854 310.867 18.6875C311.279 18.4896 311.75 18.3906 312.281 18.3906C312.714 18.3906 313.099 18.4505 313.438 18.5703C313.781 18.6849 314.073 18.8672 314.312 19.1172C314.552 19.3672 314.734 19.6927 314.859 20.0938C314.984 20.4896 315.047 20.9688 315.047 21.5312V27H313.156V21.5234C313.156 21.0964 313.094 20.7656 312.969 20.5312C312.849 20.2969 312.677 20.1354 312.453 20.0469C312.229 19.9531 311.961 19.9062 311.648 19.9062C311.357 19.9062 311.099 19.9609 310.875 20.0703C310.656 20.1745 310.471 20.3229 310.32 20.5156C310.169 20.7031 310.055 20.9193 309.977 21.1641C309.904 21.4089 309.867 21.6745 309.867 21.9609ZM69.6953 45.0078V38.5469H71.5859V47H69.8047L69.6953 45.0078ZM69.9609 43.25L70.5938 43.2344C70.5938 43.8021 70.5312 44.3255 70.4062 44.8047C70.2812 45.2786 70.0885 45.6927 69.8281 46.0469C69.5677 46.3958 69.2344 46.6693 68.8281 46.8672C68.4219 47.0599 67.9349 47.1562 67.3672 47.1562C66.9557 47.1562 66.5781 47.0964 66.2344 46.9766C65.8906 46.8568 65.5938 46.6719 65.3438 46.4219C65.099 46.1719 64.9089 45.8464 64.7734 45.4453C64.638 45.0443 64.5703 44.5651 64.5703 44.0078V38.5469H66.4531V44.0234C66.4531 44.3307 66.4896 44.5885 66.5625 44.7969C66.6354 45 66.7344 45.1641 66.8594 45.2891C66.9844 45.4141 67.1302 45.5026 67.2969 45.5547C67.4635 45.6068 67.6406 45.6328 67.8281 45.6328C68.3646 45.6328 68.7865 45.5286 69.0938 45.3203C69.4062 45.1068 69.6276 44.8203 69.7578 44.4609C69.8932 44.1016 69.9609 43.6979 69.9609 43.25ZM75.3984 40.2656V47H73.5156V38.5469H75.2891L75.3984 40.2656ZM75.0938 42.4609L74.4531 42.4531C74.4531 41.8698 74.526 41.3307 74.6719 40.8359C74.8177 40.3411 75.0312 39.9115 75.3125 39.5469C75.5938 39.1771 75.9427 38.8932 76.3594 38.6953C76.7812 38.4922 77.2682 38.3906 77.8203 38.3906C78.2057 38.3906 78.5573 38.4479 78.875 38.5625C79.1979 38.6719 79.4766 38.8464 79.7109 39.0859C79.9505 39.3255 80.1328 39.6328 80.2578 40.0078C80.388 40.3828 80.4531 40.8359 80.4531 41.3672V47H78.5703V41.5312C78.5703 41.1198 78.5078 40.7969 78.3828 40.5625C78.263 40.3281 78.0885 40.1615 77.8594 40.0625C77.6354 39.9583 77.3672 39.9062 77.0547 39.9062C76.7005 39.9062 76.3984 39.974 76.1484 40.1094C75.9036 40.2448 75.7031 40.4297 75.5469 40.6641C75.3906 40.8984 75.276 41.1693 75.2031 41.4766C75.1302 41.7839 75.0938 42.112 75.0938 42.4609ZM80.3359 41.9609L79.4531 42.1562C79.4531 41.6458 79.5234 41.1641 79.6641 40.7109C79.8099 40.2526 80.0208 39.8516 80.2969 39.5078C80.5781 39.1589 80.9245 38.8854 81.3359 38.6875C81.7474 38.4896 82.2188 38.3906 82.75 38.3906C83.1823 38.3906 83.5677 38.4505 83.9062 38.5703C84.25 38.6849 84.5417 38.8672 84.7812 39.1172C85.0208 39.3672 85.2031 39.6927 85.3281 40.0938C85.4531 40.4896 85.5156 40.9688 85.5156 41.5312V47H83.625V41.5234C83.625 41.0964 83.5625 40.7656 83.4375 40.5312C83.3177 40.2969 83.1458 40.1354 82.9219 40.0469C82.6979 39.9531 82.4297 39.9062 82.1172 39.9062C81.8255 39.9062 81.5677 39.9609 81.3438 40.0703C81.125 40.1745 80.9401 40.3229 80.7891 40.5156C80.638 40.7031 80.5234 40.9193 80.4453 41.1641C80.3724 41.4089 80.3359 41.6745 80.3359 41.9609ZM92.2188 45.3047V41.2734C92.2188 40.9714 92.1641 40.7109 92.0547 40.4922C91.9453 40.2734 91.7786 40.1042 91.5547 39.9844C91.3359 39.8646 91.0599 39.8047 90.7266 39.8047C90.4193 39.8047 90.1536 39.8568 89.9297 39.9609C89.7057 40.0651 89.5312 40.2057 89.4062 40.3828C89.2812 40.5599 89.2188 40.7604 89.2188 40.9844H87.3438C87.3438 40.651 87.4245 40.3281 87.5859 40.0156C87.7474 39.7031 87.9818 39.4245 88.2891 39.1797C88.5964 38.9349 88.9635 38.7422 89.3906 38.6016C89.8177 38.4609 90.2969 38.3906 90.8281 38.3906C91.4635 38.3906 92.026 38.4974 92.5156 38.7109C93.0104 38.9245 93.3984 39.2474 93.6797 39.6797C93.9661 40.1068 94.1094 40.6432 94.1094 41.2891V45.0469C94.1094 45.4323 94.1354 45.7786 94.1875 46.0859C94.2448 46.388 94.3255 46.651 94.4297 46.875V47H92.5C92.4115 46.7969 92.3411 46.5391 92.2891 46.2266C92.2422 45.9089 92.2188 45.6016 92.2188 45.3047ZM92.4922 41.8594L92.5078 43.0234H91.1562C90.8073 43.0234 90.5 43.0573 90.2344 43.125C89.9688 43.1875 89.7474 43.2812 89.5703 43.4062C89.3932 43.5312 89.2604 43.6823 89.1719 43.8594C89.0833 44.0365 89.0391 44.237 89.0391 44.4609C89.0391 44.6849 89.0911 44.8906 89.1953 45.0781C89.2995 45.2604 89.4505 45.4036 89.6484 45.5078C89.8516 45.612 90.0964 45.6641 90.3828 45.6641C90.7682 45.6641 91.1042 45.5859 91.3906 45.4297C91.6823 45.2682 91.9115 45.0729 92.0781 44.8438C92.2448 44.6094 92.3333 44.388 92.3438 44.1797L92.9531 45.0156C92.8906 45.2292 92.7839 45.4583 92.6328 45.7031C92.4818 45.9479 92.2839 46.1823 92.0391 46.4062C91.7995 46.625 91.5104 46.8047 91.1719 46.9453C90.8385 47.0859 90.4531 47.1562 90.0156 47.1562C89.4635 47.1562 88.9714 47.0469 88.5391 46.8281C88.1068 46.6042 87.7682 46.3047 87.5234 45.9297C87.2786 45.5495 87.1562 45.1198 87.1562 44.6406C87.1562 44.1927 87.2396 43.7969 87.4062 43.4531C87.5781 43.1042 87.8281 42.8125 88.1562 42.5781C88.4896 42.3438 88.8958 42.1667 89.375 42.0469C89.8542 41.9219 90.401 41.8594 91.0156 41.8594H92.4922ZM101.953 40.1719V50.25H100.07V38.5469H101.805L101.953 40.1719ZM107.461 42.6953V42.8594C107.461 43.474 107.388 44.0443 107.242 44.5703C107.102 45.0911 106.891 45.5469 106.609 45.9375C106.333 46.3229 105.992 46.6224 105.586 46.8359C105.18 47.0495 104.711 47.1562 104.18 47.1562C103.654 47.1562 103.193 47.0599 102.797 46.8672C102.406 46.6693 102.076 46.3906 101.805 46.0312C101.534 45.6719 101.315 45.25 101.148 44.7656C100.987 44.276 100.872 43.7396 100.805 43.1562V42.5234C100.872 41.9036 100.987 41.3411 101.148 40.8359C101.315 40.3307 101.534 39.8958 101.805 39.5312C102.076 39.1667 102.406 38.8854 102.797 38.6875C103.188 38.4896 103.643 38.3906 104.164 38.3906C104.695 38.3906 105.167 38.4948 105.578 38.7031C105.99 38.9062 106.336 39.1979 106.617 39.5781C106.898 39.9531 107.109 40.4062 107.25 40.9375C107.391 41.4635 107.461 42.0495 107.461 42.6953ZM105.578 42.8594V42.6953C105.578 42.3047 105.542 41.9427 105.469 41.6094C105.396 41.2708 105.281 40.974 105.125 40.7188C104.969 40.4635 104.768 40.2656 104.523 40.125C104.284 39.9792 103.995 39.9062 103.656 39.9062C103.323 39.9062 103.036 39.9635 102.797 40.0781C102.557 40.1875 102.357 40.3411 102.195 40.5391C102.034 40.737 101.909 40.9688 101.82 41.2344C101.732 41.4948 101.669 41.7786 101.633 42.0859V43.6016C101.695 43.9766 101.802 44.3203 101.953 44.6328C102.104 44.9453 102.318 45.1953 102.594 45.3828C102.875 45.5651 103.234 45.6562 103.672 45.6562C104.01 45.6562 104.299 45.5833 104.539 45.4375C104.779 45.2917 104.974 45.0911 105.125 44.8359C105.281 44.5755 105.396 44.276 105.469 43.9375C105.542 43.599 105.578 43.2396 105.578 42.8594ZM113.828 45.3047V41.2734C113.828 40.9714 113.773 40.7109 113.664 40.4922C113.555 40.2734 113.388 40.1042 113.164 39.9844C112.945 39.8646 112.669 39.8047 112.336 39.8047C112.029 39.8047 111.763 39.8568 111.539 39.9609C111.315 40.0651 111.141 40.2057 111.016 40.3828C110.891 40.5599 110.828 40.7604 110.828 40.9844H108.953C108.953 40.651 109.034 40.3281 109.195 40.0156C109.357 39.7031 109.591 39.4245 109.898 39.1797C110.206 38.9349 110.573 38.7422 111 38.6016C111.427 38.4609 111.906 38.3906 112.438 38.3906C113.073 38.3906 113.635 38.4974 114.125 38.7109C114.62 38.9245 115.008 39.2474 115.289 39.6797C115.576 40.1068 115.719 40.6432 115.719 41.2891V45.0469C115.719 45.4323 115.745 45.7786 115.797 46.0859C115.854 46.388 115.935 46.651 116.039 46.875V47H114.109C114.021 46.7969 113.951 46.5391 113.898 46.2266C113.852 45.9089 113.828 45.6016 113.828 45.3047ZM114.102 41.8594L114.117 43.0234H112.766C112.417 43.0234 112.109 43.0573 111.844 43.125C111.578 43.1875 111.357 43.2812 111.18 43.4062C111.003 43.5312 110.87 43.6823 110.781 43.8594C110.693 44.0365 110.648 44.237 110.648 44.4609C110.648 44.6849 110.701 44.8906 110.805 45.0781C110.909 45.2604 111.06 45.4036 111.258 45.5078C111.461 45.612 111.706 45.6641 111.992 45.6641C112.378 45.6641 112.714 45.5859 113 45.4297C113.292 45.2682 113.521 45.0729 113.688 44.8438C113.854 44.6094 113.943 44.388 113.953 44.1797L114.562 45.0156C114.5 45.2292 114.393 45.4583 114.242 45.7031C114.091 45.9479 113.893 46.1823 113.648 46.4062C113.409 46.625 113.12 46.8047 112.781 46.9453C112.448 47.0859 112.062 47.1562 111.625 47.1562C111.073 47.1562 110.581 47.0469 110.148 46.8281C109.716 46.6042 109.378 46.3047 109.133 45.9297C108.888 45.5495 108.766 45.1198 108.766 44.6406C108.766 44.1927 108.849 43.7969 109.016 43.4531C109.188 43.1042 109.438 42.8125 109.766 42.5781C110.099 42.3438 110.505 42.1667 110.984 42.0469C111.464 41.9219 112.01 41.8594 112.625 41.8594H114.102ZM111.562 37.3516L113.086 35H115.211L113.086 37.3516H111.562ZM123.102 38.5469H124.812V46.7656C124.812 47.526 124.651 48.1719 124.328 48.7031C124.005 49.2344 123.555 49.638 122.977 49.9141C122.398 50.1953 121.729 50.3359 120.969 50.3359C120.646 50.3359 120.286 50.2891 119.891 50.1953C119.5 50.1016 119.12 49.9505 118.75 49.7422C118.385 49.5391 118.081 49.2708 117.836 48.9375L118.719 47.8281C119.021 48.1875 119.354 48.4505 119.719 48.6172C120.083 48.7839 120.466 48.8672 120.867 48.8672C121.299 48.8672 121.667 48.7865 121.969 48.625C122.276 48.4688 122.513 48.237 122.68 47.9297C122.846 47.6224 122.93 47.2474 122.93 46.8047V40.4609L123.102 38.5469ZM117.359 42.8672V42.7031C117.359 42.0625 117.438 41.4792 117.594 40.9531C117.75 40.4219 117.974 39.9661 118.266 39.5859C118.557 39.2005 118.911 38.9062 119.328 38.7031C119.745 38.4948 120.216 38.3906 120.742 38.3906C121.289 38.3906 121.755 38.4896 122.141 38.6875C122.531 38.8854 122.857 39.1693 123.117 39.5391C123.378 39.9036 123.581 40.3411 123.727 40.8516C123.878 41.3568 123.99 41.9193 124.062 42.5391V43.0625C123.995 43.6667 123.88 44.2188 123.719 44.7188C123.557 45.2188 123.344 45.651 123.078 46.0156C122.812 46.3802 122.484 46.6615 122.094 46.8594C121.708 47.0573 121.253 47.1562 120.727 47.1562C120.211 47.1562 119.745 47.0495 119.328 46.8359C118.917 46.6224 118.562 46.3229 118.266 45.9375C117.974 45.5521 117.75 45.099 117.594 44.5781C117.438 44.0521 117.359 43.4818 117.359 42.8672ZM119.242 42.7031V42.8672C119.242 43.2526 119.279 43.612 119.352 43.9453C119.43 44.2786 119.547 44.5729 119.703 44.8281C119.865 45.0781 120.068 45.276 120.312 45.4219C120.562 45.5625 120.857 45.6328 121.195 45.6328C121.638 45.6328 122 45.5391 122.281 45.3516C122.568 45.1641 122.786 44.9115 122.938 44.5938C123.094 44.2708 123.203 43.9115 123.266 43.5156V42.1016C123.234 41.7943 123.169 41.5078 123.07 41.2422C122.977 40.9766 122.849 40.7448 122.688 40.5469C122.526 40.3438 122.323 40.1875 122.078 40.0781C121.833 39.9635 121.544 39.9062 121.211 39.9062C120.872 39.9062 120.578 39.9792 120.328 40.125C120.078 40.2708 119.872 40.4714 119.711 40.7266C119.555 40.9818 119.438 41.2786 119.359 41.6172C119.281 41.9557 119.242 42.3177 119.242 42.7031ZM128.781 38.5469V47H126.891V38.5469H128.781ZM126.766 36.3281C126.766 36.0417 126.859 35.8047 127.047 35.6172C127.24 35.4245 127.505 35.3281 127.844 35.3281C128.177 35.3281 128.44 35.4245 128.633 35.6172C128.826 35.8047 128.922 36.0417 128.922 36.3281C128.922 36.6094 128.826 36.8438 128.633 37.0312C128.44 37.2188 128.177 37.3125 127.844 37.3125C127.505 37.3125 127.24 37.2188 127.047 37.0312C126.859 36.8438 126.766 36.6094 126.766 36.3281ZM132.711 40.3516V47H130.828V38.5469H132.602L132.711 40.3516ZM132.375 42.4609L131.766 42.4531C131.771 41.8542 131.854 41.3047 132.016 40.8047C132.182 40.3047 132.411 39.875 132.703 39.5156C133 39.1562 133.354 38.8802 133.766 38.6875C134.177 38.4896 134.635 38.3906 135.141 38.3906C135.547 38.3906 135.914 38.4479 136.242 38.5625C136.576 38.6719 136.859 38.8516 137.094 39.1016C137.333 39.3516 137.516 39.6771 137.641 40.0781C137.766 40.474 137.828 40.9609 137.828 41.5391V47H135.938V41.5312C135.938 41.125 135.878 40.8047 135.758 40.5703C135.643 40.3307 135.474 40.1615 135.25 40.0625C135.031 39.9583 134.758 39.9062 134.43 39.9062C134.107 39.9062 133.818 39.974 133.562 40.1094C133.307 40.2448 133.091 40.4297 132.914 40.6641C132.742 40.8984 132.609 41.1693 132.516 41.4766C132.422 41.7839 132.375 42.112 132.375 42.4609ZM144.516 45.3047V41.2734C144.516 40.9714 144.461 40.7109 144.352 40.4922C144.242 40.2734 144.076 40.1042 143.852 39.9844C143.633 39.8646 143.357 39.8047 143.023 39.8047C142.716 39.8047 142.451 39.8568 142.227 39.9609C142.003 40.0651 141.828 40.2057 141.703 40.3828C141.578 40.5599 141.516 40.7604 141.516 40.9844H139.641C139.641 40.651 139.721 40.3281 139.883 40.0156C140.044 39.7031 140.279 39.4245 140.586 39.1797C140.893 38.9349 141.26 38.7422 141.688 38.6016C142.115 38.4609 142.594 38.3906 143.125 38.3906C143.76 38.3906 144.323 38.4974 144.812 38.7109C145.307 38.9245 145.695 39.2474 145.977 39.6797C146.263 40.1068 146.406 40.6432 146.406 41.2891V45.0469C146.406 45.4323 146.432 45.7786 146.484 46.0859C146.542 46.388 146.622 46.651 146.727 46.875V47H144.797C144.708 46.7969 144.638 46.5391 144.586 46.2266C144.539 45.9089 144.516 45.6016 144.516 45.3047ZM144.789 41.8594L144.805 43.0234H143.453C143.104 43.0234 142.797 43.0573 142.531 43.125C142.266 43.1875 142.044 43.2812 141.867 43.4062C141.69 43.5312 141.557 43.6823 141.469 43.8594C141.38 44.0365 141.336 44.237 141.336 44.4609C141.336 44.6849 141.388 44.8906 141.492 45.0781C141.596 45.2604 141.747 45.4036 141.945 45.5078C142.148 45.612 142.393 45.6641 142.68 45.6641C143.065 45.6641 143.401 45.5859 143.688 45.4297C143.979 45.2682 144.208 45.0729 144.375 44.8438C144.542 44.6094 144.63 44.388 144.641 44.1797L145.25 45.0156C145.188 45.2292 145.081 45.4583 144.93 45.7031C144.779 45.9479 144.581 46.1823 144.336 46.4062C144.096 46.625 143.807 46.8047 143.469 46.9453C143.135 47.0859 142.75 47.1562 142.312 47.1562C141.76 47.1562 141.268 47.0469 140.836 46.8281C140.404 46.6042 140.065 46.3047 139.82 45.9297C139.576 45.5495 139.453 45.1198 139.453 44.6406C139.453 44.1927 139.536 43.7969 139.703 43.4531C139.875 43.1042 140.125 42.8125 140.453 42.5781C140.786 42.3438 141.193 42.1667 141.672 42.0469C142.151 41.9219 142.698 41.8594 143.312 41.8594H144.789ZM156.086 47.1562C155.461 47.1562 154.896 47.0547 154.391 46.8516C153.891 46.6432 153.464 46.3542 153.109 45.9844C152.76 45.6146 152.492 45.1797 152.305 44.6797C152.117 44.1797 152.023 43.6406 152.023 43.0625V42.75C152.023 42.0885 152.12 41.4896 152.312 40.9531C152.505 40.4167 152.773 39.9583 153.117 39.5781C153.461 39.1927 153.867 38.8984 154.336 38.6953C154.805 38.4922 155.312 38.3906 155.859 38.3906C156.464 38.3906 156.992 38.4922 157.445 38.6953C157.898 38.8984 158.273 39.1849 158.57 39.5547C158.872 39.9193 159.096 40.3542 159.242 40.8594C159.393 41.3646 159.469 41.9219 159.469 42.5312V43.3359H152.938V41.9844H157.609V41.8359C157.599 41.4974 157.531 41.1797 157.406 40.8828C157.286 40.5859 157.102 40.3464 156.852 40.1641C156.602 39.9818 156.268 39.8906 155.852 39.8906C155.539 39.8906 155.26 39.9583 155.016 40.0938C154.776 40.224 154.576 40.4141 154.414 40.6641C154.253 40.9141 154.128 41.2161 154.039 41.5703C153.956 41.9193 153.914 42.3125 153.914 42.75V43.0625C153.914 43.4323 153.964 43.776 154.062 44.0938C154.167 44.4062 154.318 44.6797 154.516 44.9141C154.714 45.1484 154.953 45.3333 155.234 45.4688C155.516 45.599 155.836 45.6641 156.195 45.6641C156.648 45.6641 157.052 45.5729 157.406 45.3906C157.76 45.2083 158.068 44.9505 158.328 44.6172L159.32 45.5781C159.138 45.8438 158.901 46.099 158.609 46.3438C158.318 46.5833 157.961 46.7786 157.539 46.9297C157.122 47.0807 156.638 47.1562 156.086 47.1562ZM169.688 45.3047V41.2734C169.688 40.9714 169.633 40.7109 169.523 40.4922C169.414 40.2734 169.247 40.1042 169.023 39.9844C168.805 39.8646 168.529 39.8047 168.195 39.8047C167.888 39.8047 167.622 39.8568 167.398 39.9609C167.174 40.0651 167 40.2057 166.875 40.3828C166.75 40.5599 166.688 40.7604 166.688 40.9844H164.812C164.812 40.651 164.893 40.3281 165.055 40.0156C165.216 39.7031 165.451 39.4245 165.758 39.1797C166.065 38.9349 166.432 38.7422 166.859 38.6016C167.286 38.4609 167.766 38.3906 168.297 38.3906C168.932 38.3906 169.495 38.4974 169.984 38.7109C170.479 38.9245 170.867 39.2474 171.148 39.6797C171.435 40.1068 171.578 40.6432 171.578 41.2891V45.0469C171.578 45.4323 171.604 45.7786 171.656 46.0859C171.714 46.388 171.794 46.651 171.898 46.875V47H169.969C169.88 46.7969 169.81 46.5391 169.758 46.2266C169.711 45.9089 169.688 45.6016 169.688 45.3047ZM169.961 41.8594L169.977 43.0234H168.625C168.276 43.0234 167.969 43.0573 167.703 43.125C167.438 43.1875 167.216 43.2812 167.039 43.4062C166.862 43.5312 166.729 43.6823 166.641 43.8594C166.552 44.0365 166.508 44.237 166.508 44.4609C166.508 44.6849 166.56 44.8906 166.664 45.0781C166.768 45.2604 166.919 45.4036 167.117 45.5078C167.32 45.612 167.565 45.6641 167.852 45.6641C168.237 45.6641 168.573 45.5859 168.859 45.4297C169.151 45.2682 169.38 45.0729 169.547 44.8438C169.714 44.6094 169.802 44.388 169.812 44.1797L170.422 45.0156C170.359 45.2292 170.253 45.4583 170.102 45.7031C169.951 45.9479 169.753 46.1823 169.508 46.4062C169.268 46.625 168.979 46.8047 168.641 46.9453C168.307 47.0859 167.922 47.1562 167.484 47.1562C166.932 47.1562 166.44 47.0469 166.008 46.8281C165.576 46.6042 165.237 46.3047 164.992 45.9297C164.747 45.5495 164.625 45.1198 164.625 44.6406C164.625 44.1927 164.708 43.7969 164.875 43.4531C165.047 43.1042 165.297 42.8125 165.625 42.5781C165.958 42.3438 166.365 42.1667 166.844 42.0469C167.323 41.9219 167.87 41.8594 168.484 41.8594H169.961ZM177.422 38.5469V39.9219H172.656V38.5469H177.422ZM174.031 36.4766H175.914V44.6641C175.914 44.9245 175.951 45.125 176.023 45.2656C176.102 45.401 176.208 45.4922 176.344 45.5391C176.479 45.5859 176.638 45.6094 176.82 45.6094C176.951 45.6094 177.076 45.6016 177.195 45.5859C177.315 45.5703 177.411 45.5547 177.484 45.5391L177.492 46.9766C177.336 47.0234 177.154 47.0651 176.945 47.1016C176.742 47.138 176.508 47.1562 176.242 47.1562C175.81 47.1562 175.427 47.0807 175.094 46.9297C174.76 46.7734 174.5 46.5208 174.312 46.1719C174.125 45.8229 174.031 45.3594 174.031 44.7812V36.4766ZM182.602 47.1562C181.977 47.1562 181.411 47.0547 180.906 46.8516C180.406 46.6432 179.979 46.3542 179.625 45.9844C179.276 45.6146 179.008 45.1797 178.82 44.6797C178.633 44.1797 178.539 43.6406 178.539 43.0625V42.75C178.539 42.0885 178.635 41.4896 178.828 40.9531C179.021 40.4167 179.289 39.9583 179.633 39.5781C179.977 39.1927 180.383 38.8984 180.852 38.6953C181.32 38.4922 181.828 38.3906 182.375 38.3906C182.979 38.3906 183.508 38.4922 183.961 38.6953C184.414 38.8984 184.789 39.1849 185.086 39.5547C185.388 39.9193 185.612 40.3542 185.758 40.8594C185.909 41.3646 185.984 41.9219 185.984 42.5312V43.3359H179.453V41.9844H184.125V41.8359C184.115 41.4974 184.047 41.1797 183.922 40.8828C183.802 40.5859 183.617 40.3464 183.367 40.1641C183.117 39.9818 182.784 39.8906 182.367 39.8906C182.055 39.8906 181.776 39.9583 181.531 40.0938C181.292 40.224 181.091 40.4141 180.93 40.6641C180.768 40.9141 180.643 41.2161 180.555 41.5703C180.471 41.9193 180.43 42.3125 180.43 42.75V43.0625C180.43 43.4323 180.479 43.776 180.578 44.0938C180.682 44.4062 180.833 44.6797 181.031 44.9141C181.229 45.1484 181.469 45.3333 181.75 45.4688C182.031 45.599 182.352 45.6641 182.711 45.6641C183.164 45.6641 183.568 45.5729 183.922 45.3906C184.276 45.2083 184.583 44.9505 184.844 44.6172L185.836 45.5781C185.654 45.8438 185.417 46.099 185.125 46.3438C184.833 46.5833 184.477 46.7786 184.055 46.9297C183.638 47.0807 183.154 47.1562 182.602 47.1562ZM189.32 40.3516V47H187.438V38.5469H189.211L189.32 40.3516ZM188.984 42.4609L188.375 42.4531C188.38 41.8542 188.464 41.3047 188.625 40.8047C188.792 40.3047 189.021 39.875 189.312 39.5156C189.609 39.1562 189.964 38.8802 190.375 38.6875C190.786 38.4896 191.245 38.3906 191.75 38.3906C192.156 38.3906 192.523 38.4479 192.852 38.5625C193.185 38.6719 193.469 38.8516 193.703 39.1016C193.943 39.3516 194.125 39.6771 194.25 40.0781C194.375 40.474 194.438 40.9609 194.438 41.5391V47H192.547V41.5312C192.547 41.125 192.487 40.8047 192.367 40.5703C192.253 40.3307 192.083 40.1615 191.859 40.0625C191.641 39.9583 191.367 39.9062 191.039 39.9062C190.716 39.9062 190.427 39.974 190.172 40.1094C189.917 40.2448 189.701 40.4297 189.523 40.6641C189.352 40.8984 189.219 41.1693 189.125 41.4766C189.031 41.7839 188.984 42.112 188.984 42.4609ZM201.516 45.25V35H203.406V47H201.695L201.516 45.25ZM196.016 42.8672V42.7031C196.016 42.0625 196.091 41.4792 196.242 40.9531C196.393 40.4219 196.612 39.9661 196.898 39.5859C197.185 39.2005 197.534 38.9062 197.945 38.7031C198.357 38.4948 198.82 38.3906 199.336 38.3906C199.846 38.3906 200.294 38.4896 200.68 38.6875C201.065 38.8854 201.393 39.1693 201.664 39.5391C201.935 39.9036 202.151 40.3411 202.312 40.8516C202.474 41.3568 202.589 41.9193 202.656 42.5391V43.0625C202.589 43.6667 202.474 44.2188 202.312 44.7188C202.151 45.2188 201.935 45.651 201.664 46.0156C201.393 46.3802 201.062 46.6615 200.672 46.8594C200.286 47.0573 199.836 47.1562 199.32 47.1562C198.81 47.1562 198.349 47.0495 197.938 46.8359C197.531 46.6224 197.185 46.3229 196.898 45.9375C196.612 45.5521 196.393 45.099 196.242 44.5781C196.091 44.0521 196.016 43.4818 196.016 42.8672ZM197.898 42.7031V42.8672C197.898 43.2526 197.932 43.612 198 43.9453C198.073 44.2786 198.185 44.5729 198.336 44.8281C198.487 45.0781 198.682 45.276 198.922 45.4219C199.167 45.5625 199.458 45.6328 199.797 45.6328C200.224 45.6328 200.576 45.5391 200.852 45.3516C201.128 45.1641 201.344 44.9115 201.5 44.5938C201.661 44.2708 201.771 43.9115 201.828 43.5156V42.1016C201.797 41.7943 201.732 41.5078 201.633 41.2422C201.539 40.9766 201.411 40.7448 201.25 40.5469C201.089 40.3438 200.888 40.1875 200.648 40.0781C200.414 39.9635 200.135 39.9062 199.812 39.9062C199.469 39.9062 199.177 39.9792 198.938 40.125C198.698 40.2708 198.5 40.4714 198.344 40.7266C198.193 40.9818 198.081 41.2786 198.008 41.6172C197.935 41.9557 197.898 42.3177 197.898 42.7031ZM207.391 38.5469V47H205.5V38.5469H207.391ZM205.375 36.3281C205.375 36.0417 205.469 35.8047 205.656 35.6172C205.849 35.4245 206.115 35.3281 206.453 35.3281C206.786 35.3281 207.049 35.4245 207.242 35.6172C207.435 35.8047 207.531 36.0417 207.531 36.3281C207.531 36.6094 207.435 36.8438 207.242 37.0312C207.049 37.2188 206.786 37.3125 206.453 37.3125C206.115 37.3125 205.849 37.2188 205.656 37.0312C205.469 36.8438 205.375 36.6094 205.375 36.3281ZM211.336 40.2656V47H209.453V38.5469H211.227L211.336 40.2656ZM211.031 42.4609L210.391 42.4531C210.391 41.8698 210.464 41.3307 210.609 40.8359C210.755 40.3411 210.969 39.9115 211.25 39.5469C211.531 39.1771 211.88 38.8932 212.297 38.6953C212.719 38.4922 213.206 38.3906 213.758 38.3906C214.143 38.3906 214.495 38.4479 214.812 38.5625C215.135 38.6719 215.414 38.8464 215.648 39.0859C215.888 39.3255 216.07 39.6328 216.195 40.0078C216.326 40.3828 216.391 40.8359 216.391 41.3672V47H214.508V41.5312C214.508 41.1198 214.445 40.7969 214.32 40.5625C214.201 40.3281 214.026 40.1615 213.797 40.0625C213.573 39.9583 213.305 39.9062 212.992 39.9062C212.638 39.9062 212.336 39.974 212.086 40.1094C211.841 40.2448 211.641 40.4297 211.484 40.6641C211.328 40.8984 211.214 41.1693 211.141 41.4766C211.068 41.7839 211.031 42.112 211.031 42.4609ZM216.273 41.9609L215.391 42.1562C215.391 41.6458 215.461 41.1641 215.602 40.7109C215.747 40.2526 215.958 39.8516 216.234 39.5078C216.516 39.1589 216.862 38.8854 217.273 38.6875C217.685 38.4896 218.156 38.3906 218.688 38.3906C219.12 38.3906 219.505 38.4505 219.844 38.5703C220.188 38.6849 220.479 38.8672 220.719 39.1172C220.958 39.3672 221.141 39.6927 221.266 40.0938C221.391 40.4896 221.453 40.9688 221.453 41.5312V47H219.562V41.5234C219.562 41.0964 219.5 40.7656 219.375 40.5312C219.255 40.2969 219.083 40.1354 218.859 40.0469C218.635 39.9531 218.367 39.9062 218.055 39.9062C217.763 39.9062 217.505 39.9609 217.281 40.0703C217.062 40.1745 216.878 40.3229 216.727 40.5156C216.576 40.7031 216.461 40.9193 216.383 41.1641C216.31 41.4089 216.273 41.6745 216.273 41.9609ZM227.117 47.1562C226.492 47.1562 225.927 47.0547 225.422 46.8516C224.922 46.6432 224.495 46.3542 224.141 45.9844C223.792 45.6146 223.523 45.1797 223.336 44.6797C223.148 44.1797 223.055 43.6406 223.055 43.0625V42.75C223.055 42.0885 223.151 41.4896 223.344 40.9531C223.536 40.4167 223.805 39.9583 224.148 39.5781C224.492 39.1927 224.898 38.8984 225.367 38.6953C225.836 38.4922 226.344 38.3906 226.891 38.3906C227.495 38.3906 228.023 38.4922 228.477 38.6953C228.93 38.8984 229.305 39.1849 229.602 39.5547C229.904 39.9193 230.128 40.3542 230.273 40.8594C230.424 41.3646 230.5 41.9219 230.5 42.5312V43.3359H223.969V41.9844H228.641V41.8359C228.63 41.4974 228.562 41.1797 228.438 40.8828C228.318 40.5859 228.133 40.3464 227.883 40.1641C227.633 39.9818 227.299 39.8906 226.883 39.8906C226.57 39.8906 226.292 39.9583 226.047 40.0938C225.807 40.224 225.607 40.4141 225.445 40.6641C225.284 40.9141 225.159 41.2161 225.07 41.5703C224.987 41.9193 224.945 42.3125 224.945 42.75V43.0625C224.945 43.4323 224.995 43.776 225.094 44.0938C225.198 44.4062 225.349 44.6797 225.547 44.9141C225.745 45.1484 225.984 45.3333 226.266 45.4688C226.547 45.599 226.867 45.6641 227.227 45.6641C227.68 45.6641 228.083 45.5729 228.438 45.3906C228.792 45.2083 229.099 44.9505 229.359 44.6172L230.352 45.5781C230.169 45.8438 229.932 46.099 229.641 46.3438C229.349 46.5833 228.992 46.7786 228.57 46.9297C228.154 47.0807 227.669 47.1562 227.117 47.1562ZM233.836 40.3516V47H231.953V38.5469H233.727L233.836 40.3516ZM233.5 42.4609L232.891 42.4531C232.896 41.8542 232.979 41.3047 233.141 40.8047C233.307 40.3047 233.536 39.875 233.828 39.5156C234.125 39.1562 234.479 38.8802 234.891 38.6875C235.302 38.4896 235.76 38.3906 236.266 38.3906C236.672 38.3906 237.039 38.4479 237.367 38.5625C237.701 38.6719 237.984 38.8516 238.219 39.1016C238.458 39.3516 238.641 39.6771 238.766 40.0781C238.891 40.474 238.953 40.9609 238.953 41.5391V47H237.062V41.5312C237.062 41.125 237.003 40.8047 236.883 40.5703C236.768 40.3307 236.599 40.1615 236.375 40.0625C236.156 39.9583 235.883 39.9062 235.555 39.9062C235.232 39.9062 234.943 39.974 234.688 40.1094C234.432 40.2448 234.216 40.4297 234.039 40.6641C233.867 40.8984 233.734 41.1693 233.641 41.4766C233.547 41.7839 233.5 42.112 233.5 42.4609ZM244.75 38.5469V39.9219H239.984V38.5469H244.75ZM241.359 36.4766H243.242V44.6641C243.242 44.9245 243.279 45.125 243.352 45.2656C243.43 45.401 243.536 45.4922 243.672 45.5391C243.807 45.5859 243.966 45.6094 244.148 45.6094C244.279 45.6094 244.404 45.6016 244.523 45.5859C244.643 45.5703 244.74 45.5547 244.812 45.5391L244.82 46.9766C244.664 47.0234 244.482 47.0651 244.273 47.1016C244.07 47.138 243.836 47.1562 243.57 47.1562C243.138 47.1562 242.755 47.0807 242.422 46.9297C242.089 46.7734 241.828 46.5208 241.641 46.1719C241.453 45.8229 241.359 45.3594 241.359 44.7812V36.4766ZM245.656 42.8672V42.6875C245.656 42.0781 245.745 41.513 245.922 40.9922C246.099 40.4661 246.354 40.0104 246.688 39.625C247.026 39.2344 247.438 38.9323 247.922 38.7188C248.411 38.5 248.964 38.3906 249.578 38.3906C250.198 38.3906 250.75 38.5 251.234 38.7188C251.724 38.9323 252.138 39.2344 252.477 39.625C252.815 40.0104 253.073 40.4661 253.25 40.9922C253.427 41.513 253.516 42.0781 253.516 42.6875V42.8672C253.516 43.4766 253.427 44.0417 253.25 44.5625C253.073 45.0833 252.815 45.5391 252.477 45.9297C252.138 46.3151 251.727 46.6172 251.242 46.8359C250.758 47.0495 250.208 47.1562 249.594 47.1562C248.974 47.1562 248.419 47.0495 247.93 46.8359C247.445 46.6172 247.034 46.3151 246.695 45.9297C246.357 45.5391 246.099 45.0833 245.922 44.5625C245.745 44.0417 245.656 43.4766 245.656 42.8672ZM247.539 42.6875V42.8672C247.539 43.2474 247.578 43.6068 247.656 43.9453C247.734 44.2839 247.857 44.5807 248.023 44.8359C248.19 45.0911 248.404 45.2917 248.664 45.4375C248.924 45.5833 249.234 45.6562 249.594 45.6562C249.943 45.6562 250.245 45.5833 250.5 45.4375C250.76 45.2917 250.974 45.0911 251.141 44.8359C251.307 44.5807 251.43 44.2839 251.508 43.9453C251.591 43.6068 251.633 43.2474 251.633 42.8672V42.6875C251.633 42.3125 251.591 41.9583 251.508 41.625C251.43 41.2865 251.305 40.987 251.133 40.7266C250.966 40.4661 250.753 40.263 250.492 40.1172C250.237 39.9661 249.932 39.8906 249.578 39.8906C249.224 39.8906 248.917 39.9661 248.656 40.1172C248.401 40.263 248.19 40.4661 248.023 40.7266C247.857 40.987 247.734 41.2865 247.656 41.625C247.578 41.9583 247.539 42.3125 247.539 42.6875ZM262.805 47.1562C262.18 47.1562 261.615 47.0547 261.109 46.8516C260.609 46.6432 260.182 46.3542 259.828 45.9844C259.479 45.6146 259.211 45.1797 259.023 44.6797C258.836 44.1797 258.742 43.6406 258.742 43.0625V42.75C258.742 42.0885 258.839 41.4896 259.031 40.9531C259.224 40.4167 259.492 39.9583 259.836 39.5781C260.18 39.1927 260.586 38.8984 261.055 38.6953C261.523 38.4922 262.031 38.3906 262.578 38.3906C263.182 38.3906 263.711 38.4922 264.164 38.6953C264.617 38.8984 264.992 39.1849 265.289 39.5547C265.591 39.9193 265.815 40.3542 265.961 40.8594C266.112 41.3646 266.188 41.9219 266.188 42.5312V43.3359H259.656V41.9844H264.328V41.8359C264.318 41.4974 264.25 41.1797 264.125 40.8828C264.005 40.5859 263.82 40.3464 263.57 40.1641C263.32 39.9818 262.987 39.8906 262.57 39.8906C262.258 39.8906 261.979 39.9583 261.734 40.0938C261.495 40.224 261.294 40.4141 261.133 40.6641C260.971 40.9141 260.846 41.2161 260.758 41.5703C260.674 41.9193 260.633 42.3125 260.633 42.75V43.0625C260.633 43.4323 260.682 43.776 260.781 44.0938C260.885 44.4062 261.036 44.6797 261.234 44.9141C261.432 45.1484 261.672 45.3333 261.953 45.4688C262.234 45.599 262.555 45.6641 262.914 45.6641C263.367 45.6641 263.771 45.5729 264.125 45.3906C264.479 45.2083 264.786 44.9505 265.047 44.6172L266.039 45.5781C265.857 45.8438 265.62 46.099 265.328 46.3438C265.036 46.5833 264.68 46.7786 264.258 46.9297C263.841 47.0807 263.357 47.1562 262.805 47.1562ZM269.094 38.5469L270.703 41.3516L272.344 38.5469H274.414L271.852 42.6953L274.516 47H272.445L270.727 44.0781L269.008 47H266.93L269.586 42.6953L267.031 38.5469H269.094ZM279 45.6562C279.307 45.6562 279.583 45.5964 279.828 45.4766C280.078 45.3516 280.279 45.1797 280.43 44.9609C280.586 44.7422 280.672 44.4896 280.688 44.2031H282.461C282.451 44.75 282.289 45.2474 281.977 45.6953C281.664 46.1432 281.25 46.5 280.734 46.7656C280.219 47.026 279.648 47.1562 279.023 47.1562C278.378 47.1562 277.815 47.0469 277.336 46.8281C276.857 46.6042 276.458 46.2969 276.141 45.9062C275.823 45.5156 275.583 45.0651 275.422 44.5547C275.266 44.0443 275.188 43.4974 275.188 42.9141V42.6406C275.188 42.0573 275.266 41.5104 275.422 41C275.583 40.4844 275.823 40.0312 276.141 39.6406C276.458 39.25 276.857 38.9453 277.336 38.7266C277.815 38.5026 278.375 38.3906 279.016 38.3906C279.693 38.3906 280.286 38.526 280.797 38.7969C281.307 39.0625 281.708 39.4349 282 39.9141C282.297 40.388 282.451 40.9401 282.461 41.5703H280.688C280.672 41.2578 280.594 40.9766 280.453 40.7266C280.318 40.4714 280.125 40.2682 279.875 40.1172C279.63 39.9661 279.336 39.8906 278.992 39.8906C278.612 39.8906 278.297 39.9688 278.047 40.125C277.797 40.276 277.602 40.4844 277.461 40.75C277.32 41.0104 277.219 41.3047 277.156 41.6328C277.099 41.9557 277.07 42.2917 277.07 42.6406V42.9141C277.07 43.263 277.099 43.6016 277.156 43.9297C277.214 44.2578 277.312 44.5521 277.453 44.8125C277.599 45.0677 277.797 45.2734 278.047 45.4297C278.297 45.5807 278.615 45.6562 279 45.6562ZM285.922 35V47H284.031V35H285.922ZM293.07 45.0078V38.5469H294.961V47H293.18L293.07 45.0078ZM293.336 43.25L293.969 43.2344C293.969 43.8021 293.906 44.3255 293.781 44.8047C293.656 45.2786 293.464 45.6927 293.203 46.0469C292.943 46.3958 292.609 46.6693 292.203 46.8672C291.797 47.0599 291.31 47.1562 290.742 47.1562C290.331 47.1562 289.953 47.0964 289.609 46.9766C289.266 46.8568 288.969 46.6719 288.719 46.4219C288.474 46.1719 288.284 45.8464 288.148 45.4453C288.013 45.0443 287.945 44.5651 287.945 44.0078V38.5469H289.828V44.0234C289.828 44.3307 289.865 44.5885 289.938 44.7969C290.01 45 290.109 45.1641 290.234 45.2891C290.359 45.4141 290.505 45.5026 290.672 45.5547C290.839 45.6068 291.016 45.6328 291.203 45.6328C291.74 45.6328 292.161 45.5286 292.469 45.3203C292.781 45.1068 293.003 44.8203 293.133 44.4609C293.268 44.1016 293.336 43.6979 293.336 43.25ZM301.633 44.7109C301.633 44.5234 301.586 44.3542 301.492 44.2031C301.398 44.0469 301.219 43.9062 300.953 43.7812C300.693 43.6562 300.307 43.5417 299.797 43.4375C299.349 43.3385 298.938 43.2214 298.562 43.0859C298.193 42.9453 297.875 42.776 297.609 42.5781C297.344 42.3802 297.138 42.1458 296.992 41.875C296.846 41.6042 296.773 41.2917 296.773 40.9375C296.773 40.5938 296.849 40.2682 297 39.9609C297.151 39.6536 297.367 39.3828 297.648 39.1484C297.93 38.9141 298.271 38.7292 298.672 38.5938C299.078 38.4583 299.531 38.3906 300.031 38.3906C300.74 38.3906 301.346 38.5104 301.852 38.75C302.362 38.9844 302.753 39.3047 303.023 39.7109C303.294 40.112 303.43 40.5651 303.43 41.0703H301.547C301.547 40.8464 301.49 40.638 301.375 40.4453C301.266 40.2474 301.099 40.0885 300.875 39.9688C300.651 39.8438 300.37 39.7812 300.031 39.7812C299.708 39.7812 299.44 39.8333 299.227 39.9375C299.018 40.0365 298.862 40.1667 298.758 40.3281C298.659 40.4896 298.609 40.6667 298.609 40.8594C298.609 41 298.635 41.1276 298.688 41.2422C298.745 41.3516 298.839 41.4531 298.969 41.5469C299.099 41.6354 299.276 41.7188 299.5 41.7969C299.729 41.875 300.016 41.9505 300.359 42.0234C301.005 42.1589 301.56 42.3333 302.023 42.5469C302.492 42.7552 302.852 43.026 303.102 43.3594C303.352 43.6875 303.477 44.1042 303.477 44.6094C303.477 44.9844 303.396 45.3281 303.234 45.6406C303.078 45.9479 302.849 46.2161 302.547 46.4453C302.245 46.6693 301.883 46.8438 301.461 46.9688C301.044 47.0938 300.576 47.1562 300.055 47.1562C299.289 47.1562 298.641 47.0208 298.109 46.75C297.578 46.474 297.174 46.1224 296.898 45.6953C296.628 45.263 296.492 44.8151 296.492 44.3516H298.312C298.333 44.7005 298.43 44.9792 298.602 45.1875C298.779 45.3906 298.997 45.5391 299.258 45.6328C299.523 45.7214 299.797 45.7656 300.078 45.7656C300.417 45.7656 300.701 45.7214 300.93 45.6328C301.159 45.5391 301.333 45.4141 301.453 45.2578C301.573 45.0964 301.633 44.9141 301.633 44.7109ZM307.141 38.5469V47H305.25V38.5469H307.141ZM305.125 36.3281C305.125 36.0417 305.219 35.8047 305.406 35.6172C305.599 35.4245 305.865 35.3281 306.203 35.3281C306.536 35.3281 306.799 35.4245 306.992 35.6172C307.185 35.8047 307.281 36.0417 307.281 36.3281C307.281 36.6094 307.185 36.8438 306.992 37.0312C306.799 37.2188 306.536 37.3125 306.203 37.3125C305.865 37.3125 305.599 37.2188 305.406 37.0312C305.219 36.8438 305.125 36.6094 305.125 36.3281ZM311.953 45.5078L314.023 38.5469H315.977L313.039 47H311.82L311.953 45.5078ZM310.367 38.5469L312.477 45.5391L312.578 47H311.359L308.406 38.5469H310.367ZM316.656 42.8672V42.6875C316.656 42.0781 316.745 41.513 316.922 40.9922C317.099 40.4661 317.354 40.0104 317.688 39.625C318.026 39.2344 318.438 38.9323 318.922 38.7188C319.411 38.5 319.964 38.3906 320.578 38.3906C321.198 38.3906 321.75 38.5 322.234 38.7188C322.724 38.9323 323.138 39.2344 323.477 39.625C323.815 40.0104 324.073 40.4661 324.25 40.9922C324.427 41.513 324.516 42.0781 324.516 42.6875V42.8672C324.516 43.4766 324.427 44.0417 324.25 44.5625C324.073 45.0833 323.815 45.5391 323.477 45.9297C323.138 46.3151 322.727 46.6172 322.242 46.8359C321.758 47.0495 321.208 47.1562 320.594 47.1562C319.974 47.1562 319.419 47.0495 318.93 46.8359C318.445 46.6172 318.034 46.3151 317.695 45.9297C317.357 45.5391 317.099 45.0833 316.922 44.5625C316.745 44.0417 316.656 43.4766 316.656 42.8672ZM318.539 42.6875V42.8672C318.539 43.2474 318.578 43.6068 318.656 43.9453C318.734 44.2839 318.857 44.5807 319.023 44.8359C319.19 45.0911 319.404 45.2917 319.664 45.4375C319.924 45.5833 320.234 45.6562 320.594 45.6562C320.943 45.6562 321.245 45.5833 321.5 45.4375C321.76 45.2917 321.974 45.0911 322.141 44.8359C322.307 44.5807 322.43 44.2839 322.508 43.9453C322.591 43.6068 322.633 43.2474 322.633 42.8672V42.6875C322.633 42.3125 322.591 41.9583 322.508 41.625C322.43 41.2865 322.305 40.987 322.133 40.7266C321.966 40.4661 321.753 40.263 321.492 40.1172C321.237 39.9661 320.932 39.8906 320.578 39.8906C320.224 39.8906 319.917 39.9661 319.656 40.1172C319.401 40.263 319.19 40.4661 319.023 40.7266C318.857 40.987 318.734 41.2865 318.656 41.625C318.578 41.9583 318.539 42.3125 318.539 42.6875ZM328.266 35.625L328.078 43.6484H326.469L326.273 35.625H328.266ZM326.219 46.1094C326.219 45.8229 326.312 45.5833 326.5 45.3906C326.693 45.1927 326.958 45.0938 327.297 45.0938C327.63 45.0938 327.893 45.1927 328.086 45.3906C328.279 45.5833 328.375 45.8229 328.375 46.1094C328.375 46.3854 328.279 46.6224 328.086 46.8203C327.893 47.013 327.63 47.1094 327.297 47.1094C326.958 47.1094 326.693 47.013 326.5 46.8203C326.312 46.6224 326.219 46.3854 326.219 46.1094Z" fill="white"/>
</svg>
