<svg width="65" height="65" viewBox="0 0 65 65" fill="none" xmlns="http://www.w3.org/2000/svg">
<path d="M43.5501 8.16189C43.8382 8.16189 44.0746 8.16189 44.3035 8.16189C48.7427 8.16189 53.1746 8.16189 57.6138 8.16189C61.3513 8.16189 63.9513 10.7619 63.9513 14.492C63.9513 22.9198 63.9513 31.3403 63.9513 39.7681C63.9513 43.4982 61.3513 46.0835 57.6064 46.0909C52.5984 46.0909 47.5979 46.0909 42.5899 46.0909H41.7848C41.3859 48.8608 40.1007 51.084 37.8331 52.7017C36.2376 53.8392 34.4354 54.3931 32.4854 54.3857C30.9638 54.3857 29.516 54.0238 28.1717 53.3C26.8052 52.5613 25.6899 51.5568 24.8183 50.2789C23.9615 49.0233 23.474 47.6198 23.2672 46.0909C22.9569 46.0909 22.7058 46.0909 22.4473 46.0909C17.4837 46.0909 12.52 46.0096 7.55638 46.113C3.8632 46.1869 1.02684 43.321 1.05638 39.6352C1.13024 31.2738 1.07854 22.9125 1.07854 14.5511C1.07854 10.7323 3.65638 8.1545 7.47513 8.1545C12.8598 8.1545 18.2444 8.1545 23.6365 8.16189C24.124 8.16189 24.3604 8.05848 24.5229 7.54882C25.4831 4.52777 27.7285 2.91754 31.0524 2.85106C32.1087 2.8289 33.1649 2.89538 34.2212 2.93231C35.9939 2.98402 37.7149 2.7772 39.3547 2.05333C40.2337 1.66186 40.9723 1.94992 41.5854 2.59254C42.7081 3.77436 43.1882 5.24424 43.4172 6.81754C43.4763 7.23117 43.4984 7.65223 43.5501 8.14711V8.16189ZM10.7473 10.2227V44.0301H16.7155C16.7155 43.7642 16.7155 43.5352 16.7155 43.3136C16.7155 41.2454 16.7007 39.1772 16.7155 37.1017C16.7746 31.2221 20.6081 26.2954 26.2365 24.8477C26.5541 24.7664 26.8791 24.6926 27.2189 24.6039C27.2189 24.1903 27.1893 23.8358 27.2189 23.4812C27.278 22.9125 27.1007 22.5136 26.6427 22.1369C25.4388 21.1397 24.6189 19.8397 24.3087 18.3181C24.0871 17.2102 24.0501 16.0579 24.0132 14.9278C23.9689 13.3693 23.9984 11.8108 23.9984 10.2301H10.7473V10.2227ZM54.1422 44.0448V10.1858C50.6337 10.1858 47.1768 10.1858 43.7126 10.1858C43.5427 10.1858 43.3802 10.2005 43.299 10.2005C42.8854 10.9318 42.6416 11.7664 42.0876 12.2539C41.0092 13.1994 40.9058 14.3369 41.0092 15.6C41.0166 15.7034 41.0092 15.8142 41.0092 15.9176C41.0092 18.5102 40.1229 20.6965 38.1064 22.388C37.966 22.5062 37.8257 22.7204 37.8183 22.8977C37.7814 23.459 37.8035 24.0278 37.8035 24.6039C38.0621 24.663 38.2689 24.7221 38.4683 24.7664C43.7939 25.9187 47.9155 30.646 48.2257 36.0823C48.3587 38.4829 48.2848 40.8983 48.2996 43.3062C48.2996 43.55 48.2996 43.7863 48.2996 44.0375H54.1348L54.1422 44.0448ZM40.8172 27.8022C39.6723 29.3977 38.5791 30.9193 37.4785 32.4409C36.9319 33.2017 36.4075 33.2755 35.6689 32.7142C34.7456 32.0051 33.8223 31.3034 32.9212 30.5795C32.6183 30.3358 32.4115 30.321 32.1087 30.5721C31.2075 31.3034 30.2842 32.0051 29.3609 32.7068C28.6001 33.2829 28.1052 33.2164 27.5513 32.4556C27.2115 31.9977 26.8865 31.5323 26.5541 31.067C25.7785 29.9886 25.0104 28.9176 24.2422 27.8465C20.9331 29.5159 18.791 33.1721 18.7541 37.1829C18.7319 39.2733 18.7541 41.3636 18.7541 43.4539C18.7541 43.6386 18.7763 43.8232 18.791 44.0375H23.2376C24.0058 38.6823 28.4229 36.0011 31.924 35.8164C33.8962 35.713 35.7427 36.1414 37.4194 37.2051C39.9382 38.8005 41.3564 41.1198 41.7848 44.0448H46.2314C46.2535 43.8971 46.2905 43.7715 46.2905 43.6534C46.2905 41.4153 46.3348 39.1772 46.2757 36.9392C46.1723 32.921 44.274 29.9369 40.8319 27.8022H40.8172ZM56.2473 10.2448V44.0744C56.7274 44.0744 57.1632 44.0744 57.6064 44.0744C60.2359 44.067 61.92 42.3829 61.92 39.7534C61.92 36.4812 61.92 33.209 61.92 29.9295C61.92 24.7369 61.92 19.5369 61.92 14.3443C61.92 12.2613 60.5683 10.5846 58.5666 10.267C57.828 10.1488 57.0524 10.2448 56.2473 10.2448ZM8.64956 10.1931C8.1399 10.1931 7.68195 10.1931 7.21661 10.1931C4.84559 10.2153 3.11718 11.9437 3.1024 14.3221C3.09502 15.2897 3.1024 16.2647 3.1024 17.2323C3.1024 24.7886 3.1024 32.3448 3.1024 39.9011C3.1024 41.9323 4.32115 43.55 6.24161 43.9562C7.00979 44.1187 7.82229 44.0596 8.64956 44.1039V10.1858V10.1931ZM25.2541 45.0715C25.2393 49.0676 28.4672 52.3397 32.4706 52.3767C36.4444 52.4136 39.7388 49.1562 39.7683 45.1602C39.7979 41.1346 36.5405 37.8403 32.5223 37.8329C28.5263 37.8329 25.2689 41.0755 25.2541 45.0715ZM30.0996 11.3232C29.1319 12.9039 27.795 13.7755 26.0814 13.975C25.8302 17.0034 26.0962 19.8028 29.0729 21.3909C31.6729 22.7795 34.3098 22.6539 36.7177 20.8886C39.074 19.1676 39.1405 16.6267 38.941 13.9971C35.7354 13.9971 32.6405 13.7164 30.1069 11.3232H30.0996ZM25.9484 11.7812C26.0149 11.8329 26.0814 11.892 26.1479 11.9437C26.5246 11.7812 26.9973 11.7147 27.2632 11.4414C27.8098 10.8801 28.3416 10.2596 28.7035 9.5653C29.3462 8.3687 29.9444 8.22098 30.8456 9.21814C32.0052 10.4886 33.4013 11.4045 35.1075 11.6556C36.5257 11.8625 37.966 11.892 39.399 11.9585C39.6058 11.9659 39.8569 11.7812 40.0268 11.6187C42.191 9.55052 41.6444 6.03458 40.3444 4.27663C40.2484 4.14367 39.9308 4.04765 39.7905 4.10674C37.6558 4.9414 35.4399 5.08174 33.1871 4.9414C32.4115 4.89708 31.6211 4.86754 30.8456 4.91186C28.349 5.04481 26.8348 6.28572 26.3104 8.71586C26.0962 9.71302 26.074 10.7545 25.9632 11.7738L25.9484 11.7812ZM29.2575 23.7176C29.2944 24.375 29.0359 24.9585 29.6712 25.409C30.528 26.0221 31.3331 26.709 32.1308 27.3886C32.4115 27.625 32.5961 27.6323 32.8768 27.3886C33.6155 26.7608 34.3763 26.1625 35.1297 25.5568C35.8462 24.9806 35.92 24.7295 35.6467 23.7545C33.549 24.4784 31.4439 24.471 29.2427 23.7176H29.2575ZM26.1109 26.975C27.0194 28.2454 27.8763 29.4272 28.7331 30.6312C29.4791 30.0551 30.1513 29.5306 30.8677 28.9693C29.9075 28.1937 29.0285 27.4772 28.1348 26.7755C28.0166 26.6869 27.8172 26.6426 27.6694 26.6647C27.1819 26.7386 26.6944 26.8568 26.1109 26.975ZM36.2893 30.6312C37.1683 29.4125 38.0104 28.2306 38.8967 26.9971C38.5717 26.9159 38.3354 26.8198 38.0916 26.7977C37.7075 26.7534 37.1979 26.5835 36.9467 26.7534C35.9865 27.4181 35.1001 28.2011 34.1547 28.9693C34.8933 29.5454 35.5581 30.0625 36.2893 30.6312Z" fill="#FF368F"/>
<path d="M16.1537 59.9108C15.873 60.4426 15.6662 60.9596 15.3486 61.3954C14.4105 62.6659 13.1253 63.2494 11.5446 63.0869C9.89005 62.917 8.723 62.0085 8.09516 60.4869C7.9105 60.0363 7.71107 59.8886 7.23837 59.9034C5.65768 59.9329 4.06962 59.9181 2.48894 59.9181C1.56564 59.9181 1.09292 59.5784 1.08553 58.9284C1.07814 58.2562 1.58042 57.8943 2.53326 57.8943C4.15826 57.8943 5.78325 57.8869 7.41561 57.8943C7.76277 57.8943 7.92527 57.7909 8.05823 57.4585C8.73777 55.7227 10.2298 54.6886 11.9952 54.6886C13.7605 54.6886 15.2599 55.7153 15.9173 57.4659C16.102 57.946 16.4122 57.8869 16.7594 57.8869C26.5611 57.8869 36.3628 57.8869 46.1645 57.8869C51.527 57.8869 56.8969 57.8869 62.2594 57.8869C62.3628 57.8869 62.4736 57.8869 62.577 57.8869C63.4781 57.8869 63.9656 58.2562 63.973 58.9062C63.973 59.5636 63.5003 59.9108 62.577 59.9108C47.3685 59.9108 32.1599 59.9108 16.9514 59.9108C16.6781 59.9108 16.4048 59.9108 16.1758 59.9108H16.1537ZM9.79402 58.9136C9.79402 60.1102 10.7543 61.0852 11.9508 61.1C13.1622 61.1147 14.152 60.1176 14.152 58.8914C14.152 57.6875 13.1918 56.7272 11.9952 56.7125C10.769 56.6977 9.79402 57.6801 9.79402 58.9136Z" fill="#FF368F"/>
<path d="M57.953 27.1375C57.953 25.9113 57.953 24.6926 57.953 23.4664C57.953 22.6539 58.3297 22.2181 58.9797 22.2329C59.6001 22.2477 59.9695 22.6761 59.9769 23.4443C59.9842 25.8892 59.9842 28.3414 59.9769 30.7863C59.9769 31.5914 59.5854 32.0272 58.9354 32.0198C58.3149 32.0051 57.9604 31.584 57.953 30.8085C57.9456 29.5823 57.953 28.3636 57.953 27.1375Z" fill="#FF368F"/>
<path d="M6.75082 27.1374C6.75082 28.4005 6.75082 29.671 6.75082 30.934C6.75082 31.4142 6.55139 31.8721 6.06389 31.946C5.72412 31.9977 5.28832 31.8499 4.99287 31.6505C4.80821 31.5249 4.74173 31.1261 4.74173 30.8528C4.72696 28.3636 4.72696 25.8744 4.73434 23.3852C4.73434 22.6613 5.11105 22.2477 5.71673 22.2329C6.34457 22.2181 6.75082 22.6613 6.75821 23.3999C6.77298 24.6482 6.75821 25.8892 6.75821 27.1374H6.75082Z" fill="#FF368F"/>
<path d="M28.9323 45.1085C28.9323 44.0523 28.9176 42.996 28.9323 41.9398C28.9545 40.5659 30.1437 39.8421 31.3551 40.5216C33.1573 41.5335 34.9375 42.5824 36.7028 43.6608C37.8034 44.333 37.8255 45.8324 36.7323 46.512C34.9596 47.6125 33.1573 48.6762 31.3329 49.6807C30.1216 50.3455 28.9545 49.5995 28.9323 48.2108C28.9323 48.1665 28.9323 48.1296 28.9323 48.0853C28.9323 47.0955 28.9323 46.0983 28.9323 45.1085ZM31.0005 42.6489V47.546C32.4187 46.7114 33.7556 45.9284 35.1812 45.0938C33.7483 44.2517 32.4113 43.4688 31.0005 42.6415V42.6489Z" fill="black"/>
</svg>
