<svg width="87" height="86" viewBox="0 0 87 86" fill="none" xmlns="http://www.w3.org/2000/svg">
<path d="M43.4536 45.1123C38.5823 45.1123 34.6146 41.1315 34.6146 36.2454C34.6146 31.3593 38.5765 27.3784 43.4536 27.3784C48.3307 27.3784 52.2869 31.3593 52.2869 36.2454C52.2869 41.1315 48.3249 45.1123 43.4536 45.1123ZM43.4536 29.9201C39.9783 29.9201 37.1574 32.7578 37.1574 36.2454C37.1574 39.7329 39.9841 42.5706 43.4536 42.5706C46.9232 42.5706 49.7498 39.7329 49.7498 36.2454C49.7498 32.7578 46.9232 29.9201 43.4536 29.9201Z" fill="#00223C"/>
<path d="M55.2583 58.9002H52.7213V50.393C52.7213 49.3427 51.8698 48.4838 50.8156 48.4838H36.0917C35.0433 48.4838 34.186 49.3369 34.186 50.393V58.9002H31.649V50.393C31.649 47.9384 33.6415 45.9421 36.0917 45.9421H50.8156C53.2658 45.9421 55.2583 47.9384 55.2583 50.393V58.9002Z" fill="#00223C"/>
<path d="M43.4537 68.8871C29.6333 68.8871 18.3905 57.6235 18.3905 43.7777C18.3905 29.9318 29.6333 18.6682 43.4537 18.6682C57.2741 18.6682 68.5169 29.9318 68.5169 43.7777C68.5169 57.6235 57.2741 68.8871 43.4537 68.8871ZM43.4537 21.2041C31.0293 21.2041 20.9275 31.3303 20.9275 43.7719C20.9275 56.2134 31.035 66.3396 43.4537 66.3396C55.8723 66.3396 65.9798 56.2134 65.9798 43.7719C65.9798 31.3303 55.8723 21.2041 43.4537 21.2041Z" fill="#00223C"/>
<path d="M47.85 10.4569L43.4537 5.87255L39.0631 10.4569L37.227 8.6928L43.4537 2.20508L49.6804 8.6928L47.85 10.4569Z" fill="#00223C"/>
<path d="M44.7222 4.03882H42.1852V15.1515H44.7222V4.03882Z" fill="#00223C"/>
<path d="M14.249 23.3976L14.0695 14.3972L23.0533 14.5771L23.0012 17.1246L16.6586 16.9911L16.786 23.3512L14.249 23.3976Z" fill="#00223C"/>
<path d="M16.258 14.7987L14.4641 16.5959L22.3074 24.4538L24.1014 22.6565L16.258 14.7987Z" fill="#00223C"/>
<path d="M8.37566 50.0797L1.8941 43.8415L8.37566 37.6033L10.1365 39.437L5.56062 43.8415L10.1365 48.2459L8.37566 50.0797Z" fill="#00223C"/>
<path d="M14.8224 42.5706H3.73022V45.1123H14.8224V42.5706Z" fill="#00223C"/>
<path d="M14.0695 73.28L14.249 64.2795L16.786 64.3318L16.6586 70.686L23.0012 70.5584L23.0533 73.1059L14.0695 73.28Z" fill="#00223C"/>
<path d="M22.3087 63.2276L14.4653 71.0854L16.2593 72.8827L24.1026 65.0248L22.3087 63.2276Z" fill="#00223C"/>
<path d="M43.4536 85.4776L37.2327 78.9841L39.0631 77.2258L43.4536 81.8044L47.85 77.2258L49.6803 78.9841L43.4536 85.4776Z" fill="#00223C"/>
<path d="M44.7222 72.5312H42.1852V83.6439H44.7222V72.5312Z" fill="#00223C"/>
<path d="M72.8437 73.28L63.8599 73.1001L63.912 70.5584L70.2545 70.686L70.1271 64.3318L72.6641 64.2795L72.8437 73.28Z" fill="#00223C"/>
<path d="M64.6005 63.2303L62.8066 65.0276L70.65 72.8854L72.4439 71.0882L64.6005 63.2303Z" fill="#00223C"/>
<path d="M78.5375 50.0797L76.7766 48.2459L81.3525 43.8415L76.7766 39.437L78.5375 37.6033L85.019 43.8415L78.5375 50.0797Z" fill="#00223C"/>
<path d="M83.1829 42.5706H72.0907V45.1123H83.1829V42.5706Z" fill="#00223C"/>
<path d="M72.6641 23.3976L70.1271 23.3512L70.2545 16.9911L63.912 17.1188L63.8599 14.5771L72.8437 14.3972L72.6641 23.3976Z" fill="#00223C"/>
<path d="M70.6511 14.7957L62.8077 22.6536L64.6016 24.4508L72.445 16.593L70.6511 14.7957Z" fill="#00223C"/>
</svg>
