<svg width="61" height="79" viewBox="0 0 61 79" fill="none" xmlns="http://www.w3.org/2000/svg">
<path d="M54.208 69.0675C54.1581 70.1879 54.1296 71.0066 54.0868 71.829C54.0619 72.3281 54.0619 72.8308 53.9799 73.3192C53.8766 73.9117 53.3242 74.2708 52.6792 74.2205C52.1198 74.1774 51.7278 73.8722 51.6423 73.3228C51.5496 72.7518 51.5639 72.1629 51.5318 71.5812C51.489 70.8486 51.4498 70.1197 51.4035 69.2974C49.8249 68.949 48.3745 69.0496 46.9848 69.1896C46.3683 69.9401 46.6248 70.723 46.5643 71.4447C46.5144 72.0265 46.5429 72.6154 46.4574 73.1899C46.3647 73.8183 45.848 74.2205 45.2458 74.2349C44.6293 74.2492 44.1126 73.8686 44.0271 73.2258C43.9415 72.5687 43.9665 71.8936 43.9201 71.2293C43.8774 70.5829 43.8061 69.9401 43.7384 69.1968C42.8725 69.1465 42.1384 69.1214 41.4043 69.0604C40.1607 68.9562 39.7508 68.5864 39.7223 67.3798C39.6796 65.4623 39.6439 63.5375 39.7223 61.62C39.8221 59.031 41.5362 57.0524 44.0556 56.5317C44.7789 56.3809 45.5344 56.3845 46.2721 56.3055C46.7531 56.2516 47.2306 56.1762 47.7545 56.108C48.15 54.1294 48.0324 52.2082 47.897 50.3122C47.8044 48.9836 46.9064 48.1828 45.5843 48.1505C43.1825 48.0895 40.7771 48.0823 38.3789 48.1649C37.0319 48.2115 36.2622 49.041 36.1874 50.4128C36.1054 51.9102 36.1482 53.4184 36.141 54.9194C36.1375 55.5873 36.166 56.2552 36.1303 56.9231C35.9842 59.5911 34.2274 61.462 31.6011 61.6739C30.4466 61.7672 29.2849 61.7134 28.1232 61.7134C26.3842 61.7134 24.6416 61.6631 22.9062 61.7205C20.4581 61.8031 17.9137 59.8533 17.8888 56.6286C17.8781 55.3 17.8888 53.9714 17.8888 52.7648C16.695 51.9712 15.5333 51.4326 14.6959 50.5744C13.9155 49.7772 13.4807 48.6353 12.7288 47.3713C12.5186 47.2995 11.9306 47.2025 11.4745 46.9045C11.1858 46.7141 10.8865 46.1791 10.9542 45.881C11.0469 45.4609 11.4103 45.012 11.7809 44.7679C12.091 44.5668 12.5792 44.617 12.989 44.6135C17.1298 44.6027 21.2741 44.6027 25.4149 44.6063C25.7463 44.6063 26.0813 44.6135 26.4055 44.6637C26.9508 44.7499 27.5245 45.3316 27.5209 45.8451C27.5209 46.3766 27.2679 46.8326 26.769 47.0373C26.3984 47.1917 25.9779 47.2348 25.7392 47.2923C25.0336 48.4809 24.5597 49.6874 23.7329 50.5564C22.9062 51.4254 21.7302 51.9605 20.5186 52.7684C20.5079 53.9426 20.4224 55.2677 20.5044 56.5855C20.6042 58.2122 21.4238 59.0094 23.0309 59.1028C24.353 59.1782 25.6822 59.1315 27.0078 59.1351C28.1659 59.1351 29.3276 59.1602 30.4858 59.1279C32.7236 59.0669 33.4791 58.3343 33.5468 56.1331C33.586 54.8835 33.5539 53.6302 33.5575 52.377C33.5575 51.7091 33.5753 51.0412 33.5717 50.3733C33.5575 47.637 35.8845 45.4142 38.5072 45.5004C40.8235 45.5758 43.1469 45.4681 45.4631 45.5255C48.5135 45.5974 50.3915 47.4646 50.5304 50.5241C50.591 51.8563 50.5304 53.1957 50.5483 54.5315C50.5554 55.0235 50.6195 55.5119 50.6694 56.1439C51.5496 56.2265 52.3514 56.2803 53.1496 56.3809C56.1857 56.7615 57.9995 58.478 58.306 61.5374C58.4949 63.4406 58.4378 65.3725 58.388 67.29C58.3559 68.572 57.8463 68.985 56.485 69.0711C55.8294 69.1142 55.1701 69.0783 54.2151 69.0783L54.208 69.0675ZM42.4662 66.2738C43.9593 66.5755 45.4418 66.4175 46.9099 66.4426C48.3139 66.4677 49.7215 66.4929 51.1255 66.4354C52.583 66.3744 54.0761 66.7263 55.6654 66.0871C55.6654 64.6651 55.726 63.2539 55.6512 61.8534C55.555 60.0831 54.6106 59.1171 52.8004 59.0633C50.2418 58.9879 47.6761 59.0669 45.1139 59.0453C43.6707 59.031 42.4377 60.1154 42.3201 61.681C42.2097 63.1533 42.0956 64.6543 42.4662 66.2738ZM22.4536 47.2707C20.2371 47.1271 18.1489 47.1343 16.0251 47.2492C16.442 48.9872 17.2616 49.7628 18.883 49.7808C19.6634 49.788 20.4901 49.5581 21.2135 49.2457C21.8799 48.962 22.4002 48.3983 22.4501 47.2707H22.4536Z" fill="white"/>
<path d="M19.0255 39.6868C16.8732 39.6868 14.7208 39.7191 12.5685 39.676C11.1217 39.6473 10.7974 39.3313 10.6869 37.9308C10.6014 36.8499 10.6157 35.7655 10.5658 34.681C10.5016 33.2842 9.97781 32.1566 8.88382 31.2086C7.8896 30.3468 6.97734 29.3449 6.20763 28.2712C2.26283 22.77 2.23789 15.3224 6.07578 9.73856C9.89585 4.18343 16.6594 1.65543 23.0915 3.2462C28.8002 4.65743 34.37 9.7637 35.1147 17.301C35.6315 22.5114 33.9958 27.0755 30.1365 30.6053C28.4403 32.1566 27.6314 33.8372 27.7632 36.0707C27.7989 36.6524 27.7917 37.2413 27.7632 37.8231C27.6848 39.2379 27.3392 39.6185 25.9851 39.6796C24.9124 39.7263 23.8327 39.6975 22.7565 39.6975C21.5129 39.6975 20.2728 39.6975 19.0291 39.6975V39.6903L19.0255 39.6868ZM24.9481 36.8176C24.998 36.753 25.0764 36.6955 25.0871 36.6273C25.1298 36.3831 25.1868 36.1317 25.1761 35.884C25.0372 32.8281 26.2274 30.5156 28.5436 28.4795C31.5085 25.8725 32.8377 22.2816 32.5989 18.3711C32.0608 9.58416 24.6594 4.77234 18.1133 5.46538C12.6754 6.03993 8.8268 8.90547 6.8063 13.9687C4.8143 18.9636 5.72656 23.6246 9.14395 27.7649C9.67135 28.4041 10.2807 28.9822 10.9079 29.5209C12.4687 30.8603 13.0923 32.6127 13.2135 34.602C13.2598 35.3382 13.2883 36.0743 13.3204 36.7817C15.3231 37.227 22.9383 37.2342 24.9516 36.8176H24.9481Z" fill="white"/>
<path d="M19.2679 40.7316C21.2563 40.7316 23.2483 40.7065 25.2367 40.746C25.7962 40.7568 26.3984 40.8537 26.9009 41.0871C27.7133 41.4678 27.7027 42.7102 26.9009 43.1196C26.4768 43.335 25.9637 43.4751 25.4897 43.4751C21.2634 43.5002 17.0335 43.5002 12.8072 43.4715C11.6705 43.4643 11.0184 42.9795 10.9114 42.2434C10.8224 41.6186 11.4495 40.7137 12.8037 40.7316C14.9596 40.7604 17.1119 40.7388 19.2679 40.7388C19.2679 40.7388 19.2679 40.7316 19.2679 40.728V40.7316Z" fill="white"/>
</svg>
