<svg width="61" height="72" viewBox="0 0 61 72" fill="none" xmlns="http://www.w3.org/2000/svg">
<path d="M28.681 28.8195L24.1072 24.1944L25.883 22.3969L28.681 25.2244L37.1375 16.6641L38.9133 18.4616L28.681 28.8195Z" fill="#00223C"/>
<path d="M51.9772 69.9645H4.90496C4.21385 69.9645 3.64752 69.396 3.64752 68.6916V8.35637C3.64752 7.65678 4.20905 7.0835 4.90496 7.0835H51.9772C52.6683 7.0835 53.2346 7.65192 53.2346 8.35637V68.6916C53.2346 69.3912 52.6731 69.9645 51.9772 69.9645ZM6.15759 67.4236H50.7197V9.62924H6.15759V67.4236Z" fill="#00223C"/>
<path d="M58.4947 63.4543H55.9846V4.38708H10.1699V1.84619H57.2421C57.9332 1.84619 58.4995 2.41461 58.4995 3.11907V63.4543H58.4947Z" fill="#00223C"/>
<path d="M28.4411 33.1967C23.3681 33.1967 19.2359 29.0186 19.2359 23.8785C19.2359 18.7384 23.3633 14.5603 28.4411 14.5603C33.5188 14.5603 31.839 15.0413 33.2932 15.9595L31.9686 18.1166C30.9127 17.451 29.6937 17.1012 28.4411 17.1012C24.7503 17.1012 21.7459 20.1425 21.7459 23.8785C21.7459 27.6146 24.7503 30.6558 28.4411 30.6558C32.1318 30.6558 35.1362 27.6146 35.1362 23.8785C35.1362 20.1425 35.1266 23.4413 35.1074 23.2275L37.6079 22.9846C37.6367 23.281 37.6511 23.5773 37.6511 23.8785C37.6511 29.0137 33.5236 33.1967 28.4459 33.1967H28.4411Z" fill="#00223C"/>
<path d="M24.8991 37.2583H11.7729V39.7992H24.8991V37.2583Z" fill="#00223C"/>
<path d="M45.1093 44.6379H11.7729V47.1788H45.1093V44.6379Z" fill="#00223C"/>
<path d="M45.1093 52.0227H11.7729V54.5636H45.1093V52.0227Z" fill="#00223C"/>
<path d="M38.0254 59.4023H11.7729V61.9432H38.0254V59.4023Z" fill="#00223C"/>
</svg>
