<svg width="71" height="79" viewBox="0 0 71 79" fill="none" xmlns="http://www.w3.org/2000/svg">
<path d="M42.9833 19.7941L42.9832 19.7886C42.9607 15.6581 39.6154 12.305 35.4943 12.305C31.3811 12.305 28.0052 15.6541 28.0052 19.7941C28.0052 23.9318 31.3565 27.2831 35.4943 27.2831C39.632 27.2831 42.9833 23.9318 42.9833 19.7941ZM35.4943 27.6389C31.1616 27.6389 27.6494 24.1267 27.6494 19.7941C27.6494 15.4614 31.1616 11.9492 35.4943 11.9492C39.8269 11.9492 43.3391 15.4614 43.3391 19.7941C43.3391 24.1251 39.8062 27.6389 35.4943 27.6389Z" fill="#F7BD2B" stroke="#FFB000" stroke-width="2"/>
<mask id="path-2-inside-1_15_213" fill="white">
<path fill-rule="evenodd" clip-rule="evenodd" d="M33.8008 37.6793H37.0341V33.8284C37.0341 33.2555 37.4309 32.772 38.001 32.663C39.6303 32.3556 41.1701 31.7185 42.5981 30.7935C43.0592 30.486 43.6768 30.5503 44.0709 30.9472L46.776 33.6523L49.0648 31.3635L46.4043 28.7227C46.0075 28.3258 45.9432 27.6887 46.273 27.2276C47.2399 25.8191 47.9022 24.2569 48.2739 22.6081C48.3829 22.0576 48.8691 21.6831 49.4392 21.6831L53.1337 21.7055V18.4722H49.5259C48.953 18.4722 48.4695 18.0753 48.3605 17.5052C48.0308 15.767 47.3936 14.1601 46.4686 12.7321C46.1612 12.271 46.2255 11.631 46.6223 11.237L49.129 8.73026L46.8403 6.4415L44.3531 8.90632C43.9563 9.30315 43.3191 9.36742 42.858 9.03766C41.4048 8.04838 39.7337 7.34415 38.0625 7.03675C37.512 6.92776 37.0956 6.4415 37.0956 5.87141V2.39495H33.8623V5.87141C33.8623 6.44429 33.4654 6.92776 32.9177 7.03675C31.1795 7.38886 29.5726 8.07074 28.1222 9.03766C27.6611 9.34507 27.0211 9.30035 26.6271 8.88396L24.1399 6.39679L21.8512 8.68555L24.3803 11.2146C24.7771 11.6115 24.8414 12.2263 24.534 12.7097C23.5894 14.1406 22.9271 15.7446 22.6197 17.4382C22.5107 17.9887 22.0244 18.4051 21.4543 18.4051H17.8018V21.644H21.5186C22.0691 21.644 22.5526 22.0408 22.684 22.5886C23.0361 24.2597 23.6956 25.7995 24.643 27.1857C24.9727 27.6468 24.9056 28.2867 24.5116 28.6807L21.8288 31.3635L24.1176 33.6523L26.8451 30.9248C27.2419 30.528 27.8567 30.4637 28.3402 30.7711C29.7263 31.6737 31.3108 32.3333 32.9149 32.663C33.4654 32.772 33.8595 33.2583 33.8595 33.8284V37.6793H33.8008ZM38.2246 40.0575H32.6159C31.9564 40.0575 31.4282 39.5293 31.4282 38.8698V34.7338C30.1734 34.3817 28.9634 33.8759 27.8204 33.2387L24.914 36.1395C24.4529 36.6006 23.704 36.6006 23.2429 36.1395L19.283 32.1796C19.0622 31.9588 18.9308 31.6514 18.9308 31.344C18.9308 31.0366 19.0622 30.7292 19.283 30.5084L22.1418 27.6496C21.4599 26.5066 20.9318 25.2742 20.5796 23.9747H16.5974C15.9378 23.9747 15.4097 23.4465 15.4097 22.787V17.1783C15.4097 16.5187 15.9378 15.9906 16.5974 15.9906H20.4902C20.82 14.6492 21.3481 13.3721 22.03 12.1844L19.3472 9.50156C18.8861 9.04046 18.8861 8.29151 19.3472 7.83041L23.3071 3.87049C23.7682 3.40938 24.5172 3.40938 24.9783 3.87049L27.6415 6.53372C28.8516 5.82949 30.1483 5.27896 31.512 4.90448V1.1877C31.512 0.528175 32.0402 0 32.6997 0H38.3084C38.968 0 39.4961 0.528175 39.4961 1.1877V4.90448C40.8375 5.2566 42.1594 5.80713 43.3666 6.53372L46.0075 3.89285C46.4686 3.43174 47.2176 3.43174 47.6787 3.89285L51.6386 7.85276C51.8593 8.07353 51.9907 8.38094 51.9907 8.68834C51.9907 8.99575 51.8593 9.30315 51.6386 9.52392L48.9558 12.2067C49.6377 13.3944 50.1435 14.6939 50.4956 16.0576H54.3465C55.006 16.0576 55.5342 16.5858 55.5342 17.2453V22.8541C55.5342 23.1615 55.4029 23.4689 55.1821 23.6896C54.9613 23.9104 54.6539 24.0418 54.3465 24.0418L50.3866 24.0194C50.0121 25.3161 49.484 26.5485 48.8021 27.7138L51.619 30.5308C52.0801 30.9919 52.0801 31.7408 51.619 32.2019L47.6619 36.1842C47.4411 36.405 47.1337 36.5363 46.8263 36.5363C46.5189 36.5363 46.2115 36.405 45.9907 36.1842L43.1067 33.303C41.9414 33.9625 40.7313 34.446 39.4542 34.7757V38.867C39.4123 39.5293 38.8841 40.0575 38.2246 40.0575Z"/>
</mask>
<path fill-rule="evenodd" clip-rule="evenodd" d="M33.8008 37.6793H37.0341V33.8284C37.0341 33.2555 37.4309 32.772 38.001 32.663C39.6303 32.3556 41.1701 31.7185 42.5981 30.7935C43.0592 30.486 43.6768 30.5503 44.0709 30.9472L46.776 33.6523L49.0648 31.3635L46.4043 28.7227C46.0075 28.3258 45.9432 27.6887 46.273 27.2276C47.2399 25.8191 47.9022 24.2569 48.2739 22.6081C48.3829 22.0576 48.8691 21.6831 49.4392 21.6831L53.1337 21.7055V18.4722H49.5259C48.953 18.4722 48.4695 18.0753 48.3605 17.5052C48.0308 15.767 47.3936 14.1601 46.4686 12.7321C46.1612 12.271 46.2255 11.631 46.6223 11.237L49.129 8.73026L46.8403 6.4415L44.3531 8.90632C43.9563 9.30315 43.3191 9.36742 42.858 9.03766C41.4048 8.04838 39.7337 7.34415 38.0625 7.03675C37.512 6.92776 37.0956 6.4415 37.0956 5.87141V2.39495H33.8623V5.87141C33.8623 6.44429 33.4654 6.92776 32.9177 7.03675C31.1795 7.38886 29.5726 8.07074 28.1222 9.03766C27.6611 9.34507 27.0211 9.30035 26.6271 8.88396L24.1399 6.39679L21.8512 8.68555L24.3803 11.2146C24.7771 11.6115 24.8414 12.2263 24.534 12.7097C23.5894 14.1406 22.9271 15.7446 22.6197 17.4382C22.5107 17.9887 22.0244 18.4051 21.4543 18.4051H17.8018V21.644H21.5186C22.0691 21.644 22.5526 22.0408 22.684 22.5886C23.0361 24.2597 23.6956 25.7995 24.643 27.1857C24.9727 27.6468 24.9056 28.2867 24.5116 28.6807L21.8288 31.3635L24.1176 33.6523L26.8451 30.9248C27.2419 30.528 27.8567 30.4637 28.3402 30.7711C29.7263 31.6737 31.3108 32.3333 32.9149 32.663C33.4654 32.772 33.8595 33.2583 33.8595 33.8284V37.6793H33.8008ZM38.2246 40.0575H32.6159C31.9564 40.0575 31.4282 39.5293 31.4282 38.8698V34.7338C30.1734 34.3817 28.9634 33.8759 27.8204 33.2387L24.914 36.1395C24.4529 36.6006 23.704 36.6006 23.2429 36.1395L19.283 32.1796C19.0622 31.9588 18.9308 31.6514 18.9308 31.344C18.9308 31.0366 19.0622 30.7292 19.283 30.5084L22.1418 27.6496C21.4599 26.5066 20.9318 25.2742 20.5796 23.9747H16.5974C15.9378 23.9747 15.4097 23.4465 15.4097 22.787V17.1783C15.4097 16.5187 15.9378 15.9906 16.5974 15.9906H20.4902C20.82 14.6492 21.3481 13.3721 22.03 12.1844L19.3472 9.50156C18.8861 9.04046 18.8861 8.29151 19.3472 7.83041L23.3071 3.87049C23.7682 3.40938 24.5172 3.40938 24.9783 3.87049L27.6415 6.53372C28.8516 5.82949 30.1483 5.27896 31.512 4.90448V1.1877C31.512 0.528175 32.0402 0 32.6997 0H38.3084C38.968 0 39.4961 0.528175 39.4961 1.1877V4.90448C40.8375 5.2566 42.1594 5.80713 43.3666 6.53372L46.0075 3.89285C46.4686 3.43174 47.2176 3.43174 47.6787 3.89285L51.6386 7.85276C51.8593 8.07353 51.9907 8.38094 51.9907 8.68834C51.9907 8.99575 51.8593 9.30315 51.6386 9.52392L48.9558 12.2067C49.6377 13.3944 50.1435 14.6939 50.4956 16.0576H54.3465C55.006 16.0576 55.5342 16.5858 55.5342 17.2453V22.8541C55.5342 23.1615 55.4029 23.4689 55.1821 23.6896C54.9613 23.9104 54.6539 24.0418 54.3465 24.0418L50.3866 24.0194C50.0121 25.3161 49.484 26.5485 48.8021 27.7138L51.619 30.5308C52.0801 30.9919 52.0801 31.7408 51.619 32.2019L47.6619 36.1842C47.4411 36.405 47.1337 36.5363 46.8263 36.5363C46.5189 36.5363 46.2115 36.405 45.9907 36.1842L43.1067 33.303C41.9414 33.9625 40.7313 34.446 39.4542 34.7757V38.867C39.4123 39.5293 38.8841 40.0575 38.2246 40.0575Z" fill="#F7BD2B" stroke="#FFB000" stroke-width="4" mask="url(#path-2-inside-1_15_213)"/>
<path d="M11.2737 49.8585C7.99682 49.8585 5.30213 52.525 5.30213 55.8301C5.30213 59.1322 7.97154 61.8016 11.2737 61.8016C14.5758 61.8016 17.2452 59.1322 17.2452 55.8301C17.2452 52.5254 14.5537 49.8585 11.2737 49.8585ZM11.2737 62.1547C7.78141 62.1547 4.9491 59.304 4.9491 55.8301C4.9491 52.3562 7.78141 49.5055 11.2737 49.5055C14.766 49.5055 17.5983 52.3562 17.5983 55.8301C17.5983 59.3246 14.7705 62.1547 11.2737 62.1547Z" fill="#F7BD2B" stroke="#FFB000" stroke-width="2"/>
<path d="M4.89614 65.7893L4.89614 65.7893L4.89303 65.7915C3.83351 66.5387 2.91742 67.4546 2.16751 68.516C1.21977 69.8381 1.11295 71.5143 1.84775 72.9587L1.84865 72.9605C2.59292 74.4163 4.0356 75.2882 5.64261 75.2882H16.9048C18.5368 75.2882 19.9561 74.4167 20.6992 72.9596C21.4411 71.5076 21.322 69.8572 20.3839 68.5217C18.212 65.4251 14.7528 63.7839 11.2541 63.7839C9.05482 63.7839 6.82736 64.4384 4.89614 65.7893ZM1.86409 68.2882L1.86409 68.2882L1.86619 68.2852C2.62994 67.1996 3.58035 66.2663 4.686 65.4669C9.8641 61.8297 17.0468 63.0845 20.6884 68.2835L20.6883 68.2835L20.6952 68.2932C21.705 69.6991 21.8359 71.5418 21.0362 73.1065L21.0353 73.1082C20.2337 74.6838 18.6642 75.6413 16.9076 75.6413H5.6454C3.90394 75.6413 2.31607 74.6825 1.51927 73.1283C0.720932 71.5657 0.848671 69.7203 1.86409 68.2882Z" fill="#F7BD2B" stroke="#FFB000" stroke-width="2"/>
<path d="M35.4523 44.2247C31.2271 44.2247 27.7649 47.6635 27.7649 51.9121C27.7649 56.1588 31.2056 59.5995 35.4523 59.5995C39.699 59.5995 43.1397 56.1588 43.1397 51.9121C43.1397 47.6632 39.6745 44.2247 35.4523 44.2247ZM35.4523 59.933C31.0107 59.933 27.4119 56.3341 27.4119 51.8925C27.4119 47.4509 31.0107 43.8521 35.4523 43.8521C39.8939 43.8521 43.4928 47.4509 43.4928 51.8925C43.4928 56.3341 39.8939 59.933 35.4523 59.933Z" fill="#F7BD2B" stroke="#FFB000" stroke-width="2"/>
<path d="M23.7725 68.0703L23.772 68.071C22.5441 69.7805 22.3776 71.9438 23.3439 73.8004C24.3049 75.669 26.1436 76.8057 28.2591 76.8057H42.6903C44.8077 76.8057 46.6432 75.6672 47.6061 73.799L47.6068 73.7977C48.5694 71.9236 48.4075 69.7614 47.1774 68.0486L47.1748 68.0451C44.3946 64.2095 40.1382 61.9786 35.4747 61.9786C30.8079 61.9786 26.5503 64.2101 23.7725 68.0703ZM22.9908 73.9655L22.9893 73.9625C21.9747 71.9882 22.1629 69.6424 23.4592 67.859L23.4592 67.859L23.4624 67.8546C26.3154 63.8851 30.6815 61.606 35.4523 61.606C40.2256 61.606 44.5896 63.8646 47.4408 67.8526L47.4421 67.8544C48.7398 69.6612 48.9097 72.009 47.8933 73.9844L47.8932 73.9844L47.8898 73.9912C46.897 75.9578 44.8922 77.1811 42.6679 77.1811H28.2367C26.0152 77.1811 24.0072 75.96 22.9908 73.9655Z" fill="#F7BD2B" stroke="#FFB000" stroke-width="2"/>
<path d="M59.6283 49.8585C56.3514 49.8585 53.6567 52.525 53.6567 55.8301C53.6567 59.1322 56.3261 61.8016 59.6283 61.8016C62.9304 61.8016 65.5999 59.1322 65.5999 55.8301C65.5999 52.5532 62.9334 49.8585 59.6283 49.8585ZM59.6283 62.1547C56.136 62.1547 53.3037 59.304 53.3037 55.8301C53.3037 52.3562 56.136 49.5055 59.6283 49.5055C63.1206 49.5055 65.9529 52.3562 65.9529 55.8301C65.9529 59.304 63.1206 62.1547 59.6283 62.1547Z" fill="#F7BD2B" stroke="#FFB000" stroke-width="2"/>
<path d="M53.2479 65.7893L53.2479 65.7893L53.2448 65.7915C52.1853 66.5387 51.2692 67.4546 50.5193 68.516C49.5716 69.8381 49.4648 71.5143 50.1996 72.9587L50.2005 72.9605C50.9447 74.4163 52.3874 75.2882 53.9944 75.2882H65.2566C66.8886 75.2882 68.3079 74.4167 69.051 72.9596C69.7929 71.5076 69.6738 69.8572 68.7357 68.5217C66.5638 65.4251 63.1046 63.7839 59.6059 63.7839C57.4066 63.7839 55.1792 64.4384 53.2479 65.7893ZM50.2159 68.2882L50.2159 68.2882L50.218 68.2852C50.9817 67.1996 51.9322 66.2663 53.0378 65.4669C58.2159 61.8297 65.3986 63.0845 69.0402 68.2835L69.0401 68.2835L69.047 68.2932C70.0568 69.6991 70.1877 71.5418 69.388 73.1065L69.3866 73.1092C68.588 74.6834 67.0193 75.6413 65.2594 75.6413H53.9972C52.2356 75.6413 50.6689 74.6844 49.8711 73.1283C49.0727 71.5657 49.2005 69.7203 50.2159 68.2882Z" fill="#F7BD2B" stroke="#FFB000" stroke-width="2"/>
</svg>
