<svg width="59" height="59" viewBox="0 0 59 59" fill="none" xmlns="http://www.w3.org/2000/svg">
<g clip-path="url(#clip0_110_288)">
<mask id="mask0_110_288" style="mask-type:luminance" maskUnits="userSpaceOnUse" x="0" y="0" width="59" height="59">
<path d="M59 0H0V59H59V0Z" fill="white"/>
</mask>
<g mask="url(#mask0_110_288)">
<path d="M27.6567 58.9463C26.5572 58.7988 25.4576 58.6714 24.3648 58.4904C12.8732 56.6266 3.05101 47.267 0.75135 35.8492C-1.32035 25.5577 1.20726 16.4932 8.48841 8.8969C13.0542 4.14341 18.6994 1.32079 25.2297 0.382159C32.8192 -0.710683 39.7986 0.94534 46.1613 5.22284C46.3892 5.37704 46.6172 5.59159 46.7445 5.83295C47.006 6.30898 46.8786 6.77827 46.4898 7.14031C46.0741 7.52247 45.5847 7.54929 45.1086 7.2677C44.5186 6.91236 43.9555 6.51011 43.3655 6.16148C37.7739 2.87625 31.7666 1.66943 25.3503 2.68182C13.9794 4.46523 5.12271 12.9867 2.85658 24.2503C0.0741894 38.055 8.56886 51.8462 22.1791 55.6343C37.271 59.8313 52.6714 50.5925 55.9968 35.2659C57.5791 27.9847 56.3052 21.1461 52.3361 14.8237C52.2423 14.6762 52.1417 14.5354 52.0545 14.3879C51.6724 13.7376 51.7864 13.0805 52.3428 12.7252C52.8926 12.3699 53.61 12.5174 53.9787 13.1543C54.8436 14.6628 55.7555 16.1579 56.4728 17.7402C57.8406 20.7438 58.5982 23.9218 58.8395 27.2204C58.853 27.4082 58.8999 27.5892 58.9334 27.7769V31.2297C58.8999 31.3772 58.8462 31.5247 58.8395 31.6722C58.6317 34.6558 58.0216 37.5588 56.8617 40.3077C52.6445 50.2975 45.2293 56.4053 34.5624 58.5038C33.4964 58.7117 32.4102 58.8055 31.3308 58.953H27.65L27.6567 58.9463Z" fill="#FF368F"/>
<path d="M53.4756 29.5536C53.3482 42.8823 42.5606 53.6028 29.4063 53.4755C16.1112 53.3414 5.40401 42.5672 5.51799 29.4397C5.63197 16.1244 16.4196 5.40389 29.5806 5.52457C42.8623 5.64525 53.603 16.4463 53.4756 29.5603V29.5536ZM29.5069 7.8175C17.5594 7.80409 7.81768 17.5391 7.81768 29.5C7.81768 41.4475 17.4856 51.1222 29.4532 51.1758C41.3873 51.2294 51.1223 41.5212 51.1693 29.5201C51.2162 17.5927 41.4745 7.83762 29.5002 7.8175H29.5069Z" fill="#FF368F"/>
<path d="M50.7741 9.68129C50.7808 10.2981 50.2847 10.8278 49.6679 10.8479C49.0376 10.868 48.4811 10.3249 48.4879 9.688C48.4879 9.07118 49.0108 8.55493 49.6343 8.55493C50.2579 8.55493 50.7674 9.05777 50.7808 9.68129H50.7741Z" fill="#FF368F"/>
<path d="M30.6468 21.287C30.6468 22.5876 30.6603 23.895 30.6401 25.1957C30.6401 25.5108 30.7273 25.6583 31.0223 25.7857C33.1342 26.7042 34.0528 28.91 33.2013 31.0153C33.0605 31.3572 33.1543 31.5248 33.3756 31.746C34.4148 32.7651 35.4406 33.8043 36.4664 34.8301C36.5737 34.9374 36.6876 35.0447 36.7882 35.1587C37.2575 35.6883 37.2642 36.3655 36.8083 36.8147C36.3524 37.2639 35.6618 37.2706 35.159 36.7745C34.0796 35.7151 33.0001 34.6558 31.9542 33.5563C31.5922 33.1808 31.3173 33.0803 30.7943 33.2747C28.7629 34.0122 26.537 32.9596 25.7525 30.9549C24.9748 28.9771 25.8732 26.7042 27.8309 25.8528C28.2801 25.6583 28.3606 25.4304 28.3539 25.008C28.3405 22.534 28.3405 20.06 28.3539 17.5928C28.3539 17.3313 28.3807 17.0497 28.4813 16.8083C28.6757 16.3323 29.2121 16.0708 29.7082 16.1647C30.2513 16.272 30.6334 16.7145 30.6401 17.3179C30.6535 18.6387 30.6401 19.9595 30.6401 21.287H30.6468ZM31.2234 29.5134C31.2368 28.5815 30.4658 27.7904 29.5339 27.7703C28.602 27.7501 27.8041 28.5145 27.7773 29.4464C27.7505 30.3984 28.5483 31.2164 29.4937 31.2164C30.4256 31.2164 31.21 30.4387 31.2234 29.5134Z" fill="#FF368F"/>
<path d="M30.6467 11.9073C30.6467 12.1151 30.6601 12.3297 30.6467 12.5375C30.5931 13.1677 30.1305 13.6102 29.5271 13.6236C28.9035 13.6371 28.4074 13.1811 28.3605 12.5241C28.3336 12.1218 28.3403 11.7196 28.3605 11.3173C28.394 10.6602 28.87 10.1842 29.4801 10.1708C30.1171 10.1574 30.6132 10.6468 30.6467 11.3307C30.6601 11.5184 30.6467 11.7128 30.6467 11.9073Z" fill="#FF368F"/>
<path d="M11.9272 28.3534C12.135 28.3534 12.3496 28.34 12.5574 28.3534C13.1877 28.4071 13.6235 28.8764 13.6302 29.4798C13.6302 30.11 13.181 30.5927 12.5239 30.633C12.1216 30.6598 11.7194 30.6531 11.3171 30.633C10.66 30.5994 10.184 30.1167 10.1773 29.4999C10.1706 28.863 10.66 28.3735 11.3506 28.34C11.5383 28.3333 11.7328 28.34 11.9272 28.34V28.3534Z" fill="#FF368F"/>
<path d="M47.0862 30.6397C46.8582 30.6397 46.6236 30.6598 46.3956 30.6397C45.7788 30.5726 45.3497 30.0765 45.3631 29.4731C45.3765 28.8965 45.8056 28.4138 46.3956 28.3669C46.8113 28.3333 47.2337 28.34 47.6561 28.3601C48.3198 28.387 48.7958 28.863 48.8092 29.4731C48.8226 30.11 48.3399 30.6062 47.6561 30.6464C47.4683 30.6598 47.2739 30.6464 47.0795 30.6464L47.0862 30.6397Z" fill="#FF368F"/>
<path d="M28.3534 47.0592C28.3534 46.8513 28.34 46.6368 28.3534 46.4289C28.4138 45.8054 28.8898 45.3629 29.4932 45.3629C30.0966 45.3629 30.586 45.7987 30.633 46.4222C30.6598 46.8245 30.6531 47.2268 30.633 47.629C30.6062 48.3196 30.1234 48.8158 29.4932 48.8158C28.8563 48.8158 28.3803 48.3263 28.3467 47.6358C28.34 47.448 28.3467 47.2536 28.3467 47.0592H28.3534Z" fill="#FF368F"/>
<path d="M20.4155 12.6045C21.3876 12.6045 22.4805 14.4885 21.9911 15.3332C21.5955 16.0238 20.6367 16.1378 20.1473 15.5076C19.8121 15.0718 19.5305 14.5756 19.3293 14.0661C19.0545 13.3755 19.6646 12.5978 20.4155 12.5978V12.6045Z" fill="#FF368F"/>
<path d="M39.8384 13.6034C39.5099 14.5219 39.2216 15.2728 38.5444 15.7623C38.1555 16.0439 37.6929 15.9634 37.3108 15.6684C36.9286 15.3734 36.7208 14.9376 36.9085 14.5018C37.1432 13.9453 37.4583 13.409 37.827 12.933C38.1153 12.5575 38.6182 12.4569 39.0271 12.7251C39.3624 12.9464 39.5903 13.3218 39.8384 13.6034Z" fill="#FF368F"/>
<path d="M14.6897 22.1518C14.0058 21.9306 13.2683 21.6155 12.7722 20.9517C12.4705 20.5494 12.5577 20.0667 12.8862 19.6779C13.2147 19.2957 13.6505 19.1214 14.1198 19.3359C14.6025 19.5572 15.0786 19.8186 15.5077 20.1338C15.9032 20.4288 16.0239 20.878 15.8362 21.3674C15.6552 21.8501 15.2931 22.0848 14.683 22.1451L14.6897 22.1518Z" fill="#FF368F"/>
<path d="M46.3887 20.4087C46.3887 21.3808 44.5114 22.4737 43.6599 21.9909C42.9962 21.6088 42.8487 20.6701 43.4454 20.1874C43.8812 19.8321 44.3974 19.5371 44.9203 19.3292C45.6109 19.0543 46.3887 19.6645 46.3887 20.4154V20.4087Z" fill="#FF368F"/>
<path d="M15.9165 38.008C15.9098 38.9869 14.0258 40.0663 13.1877 39.5769C12.4636 39.1545 12.41 38.1555 13.114 37.6527C13.4894 37.3912 13.8917 37.1566 14.3074 36.9688C15.0784 36.6135 15.9299 37.1767 15.9232 38.008H15.9165Z" fill="#FF368F"/>
<path d="M44.3175 36.8414C44.9946 37.0694 45.7455 37.3644 46.235 38.0415C46.53 38.4505 46.4428 38.9332 46.1143 39.3153C45.7656 39.7176 45.3164 39.8652 44.827 39.6305C44.3778 39.416 43.942 39.1746 43.5397 38.8863C43.1375 38.5913 42.99 38.1622 43.1509 37.6661C43.3185 37.1565 43.6872 36.8951 44.3242 36.8414H44.3175Z" fill="#FF368F"/>
<path d="M20.6031 46.3888C19.6309 46.4089 19.0409 45.5775 19.3628 44.8333C19.5572 44.3774 19.8187 43.9483 20.1003 43.5393C20.4355 43.0566 21.0322 42.9493 21.535 43.2175C22.0044 43.4656 22.2994 44.0489 22.0915 44.5316C21.8703 45.0546 21.5753 45.5574 21.2333 46.0133C21.0724 46.2346 20.7305 46.3217 20.6031 46.3955V46.3888Z" fill="#FF368F"/>
<path d="M38.5578 46.3887C37.6125 46.3686 36.5465 44.5249 36.989 43.6868C37.3644 42.9895 38.3299 42.842 38.8193 43.4589C39.1746 43.9014 39.4696 44.4176 39.6708 44.9406C39.9323 45.6311 39.302 46.4021 38.5578 46.382V46.3887Z" fill="#FF368F"/>
</g>
</g>
<defs>
<clipPath id="clip0_110_288">
<rect width="59" height="59" fill="white"/>
</clipPath>
</defs>
</svg>
