<svg width="153" height="25" viewBox="0 0 153 25" fill="none" xmlns="http://www.w3.org/2000/svg">
<path d="M2.861 16.5837H1.06006L1.89678 12.5442H4.12006L5.06037 9.34788H3.02037L3.881 5.30837H6.31943L7.41912 1.74268H10.9572L9.88146 5.30837H12.6068L13.7065 1.74268H17.2685L16.1688 5.30837H18.0016L17.141 9.34788H14.9177L13.9455 12.5442H16.0413L15.1807 16.5837H12.7183L11.5947 20.2297H8.03271L9.15631 16.5837H6.40709L5.3074 20.2297H1.76131L2.861 16.5837ZM10.4871 12.6566L11.4832 9.25151H8.57459L7.55459 12.6566H10.4871Z" fill="#FF0E79"/>
<path d="M16.3359 17.4028L19.2684 13.9977C20.8383 15.5557 22.3842 16.3748 23.8504 16.3748C25.3167 16.3748 25.4522 15.8448 25.4522 15.0578C25.4522 14.2708 25.0298 13.9495 23.0934 12.7851C20.6072 11.3074 19.2445 9.8779 19.2445 7.58108C19.2445 5.28426 19.874 4.46512 20.894 3.43717C22.1292 2.20042 23.9062 1.45355 26.0817 1.45355C28.2572 1.45355 30.9825 2.51362 32.5762 4.03948L29.6915 7.46865C28.5361 6.38449 27.2531 5.59746 25.8108 5.59746C24.3684 5.59746 24.209 6.15159 24.209 6.84224C24.209 7.5329 24.6314 7.92641 26.6156 9.13907C28.9186 10.5123 30.4645 11.9097 30.4645 14.3671C30.4645 16.8246 29.835 17.5072 28.7353 18.6155C27.532 19.8281 25.6673 20.5188 23.5476 20.5188C21.4279 20.5188 18.1209 19.3543 16.312 17.4028H16.3359Z" fill="#FF0E79"/>
<path d="M36.4411 14.5519C36.4969 16.0296 37.2539 16.8728 38.6166 16.8728C39.9792 16.8728 40.4016 16.5275 41.3977 15.8449L43.2305 18.8243C41.9475 19.8522 40.2422 20.5429 38.2022 20.5429C34.3533 20.5429 32.0981 18.1417 32.0981 14.3351C32.0981 10.5284 33.0385 9.3961 34.7438 7.6775C36.0267 6.38453 37.7002 5.58948 39.796 5.58948C43.3341 5.58948 45.1111 8.02282 45.1111 11.1388C45.1111 14.2548 44.9278 13.3553 44.5374 14.5439H36.4411V14.5519ZM36.7838 11.966H40.7681C40.8956 11.4921 40.9275 11.2271 40.9275 10.8577C40.9275 9.91007 40.4016 9.19532 39.4613 9.19532C38.521 9.19532 38.3377 9.46034 37.8914 9.91007C37.4213 10.3839 37.0308 11.1227 36.7917 11.966H36.7838Z" fill="#FF0E79"/>
<path d="M42.1628 24.0282L42.9756 20.9123C43.1588 20.9364 43.3421 20.9926 43.5493 20.9926C44.5454 20.9926 44.9917 20.5429 45.3024 19.1937L48.4979 5.88658H53.1835L49.8606 19.7237C48.992 23.2332 47.2628 24.2692 44.3063 24.2692C41.3499 24.2692 42.8162 24.1889 42.1548 24.0282H42.1628ZM49.5976 1.03595H54.4745L53.5342 4.73014H48.6892L49.6056 1.03595H49.5976Z" fill="#FF0E79"/>
<path d="M52.5379 16.8246C52.5379 15.371 53.0399 13.9174 53.9803 12.9698C54.9206 12.0221 56.3629 11.4921 58.116 11.4921C59.8692 11.4921 60.1321 11.7009 61.1043 12.0462L61.1601 11.8374C61.2398 11.5242 61.2876 11.1548 61.2876 10.8336C61.2876 10.0144 60.7617 9.4603 59.2954 9.4603C57.8292 9.4603 56.9367 9.7735 56.0442 10.1429L55.2871 6.55314C56.7295 6.0231 58.4348 5.7099 60.2915 5.7099C64.0368 5.7099 65.9732 7.24379 65.9732 9.91003C65.9732 12.5763 65.8457 11.4439 65.6306 12.2631L63.742 20.2377H59.1042L59.4149 18.8644C58.3949 19.8924 57.3749 20.5027 55.9565 20.5027C53.8368 20.5027 52.522 19.0491 52.522 16.8326L52.5379 16.8246ZM60.3712 15.2666L60.6103 14.2627C60.2198 14.1021 59.6381 13.9736 59.144 13.9736C58.6499 13.9736 58.0443 14.1583 57.7017 14.5278C57.2793 14.9213 57.0482 15.5798 57.0482 16.2464C57.0482 16.9129 57.4387 17.5393 58.2037 17.5393C58.9687 17.5393 60.0923 16.4793 60.3792 15.2666H60.3712Z" fill="#FF0E79"/>
<path d="M75.6314 1.63831H80.5003L82.4128 20.2297H77.4323L77.1932 16.8487H71.6629L69.8301 20.2297H64.6982L75.6314 1.63831ZM76.9143 12.9698L76.6514 7.53294L73.9021 12.9698H76.9143Z" fill="#FF0E79"/>
<path d="M88.1105 1.14038H92.8041L88.1902 20.2297H83.4727L88.1105 1.14038Z" fill="#FF0E79"/>
<path d="M94.087 5.89461H98.7726L95.3142 20.2297H90.5967L94.079 5.89461H94.087ZM95.2106 1.03595H100.056L99.1153 4.73014H94.2703L95.2106 1.03595Z" fill="#FF0E79"/>
<path d="M98.1195 16.8246C98.1195 15.371 98.6215 13.9174 99.5618 12.9698C100.502 12.0221 101.944 11.4921 103.698 11.4921C105.451 11.4921 105.714 11.7009 106.686 12.0462L106.742 11.8374C106.821 11.5242 106.869 11.1548 106.869 10.8336C106.869 10.0144 106.343 9.4603 104.877 9.4603C103.411 9.4603 102.518 9.7735 101.626 10.1429L100.869 6.55314C102.311 6.0231 104.016 5.7099 105.873 5.7099C109.618 5.7099 111.555 7.24379 111.555 9.91003C111.555 12.5763 111.427 11.4439 111.212 12.2631L109.324 20.2377H104.686L104.996 18.8644C103.976 19.8924 102.956 20.5027 101.538 20.5027C99.4184 20.5027 98.1035 19.0491 98.1035 16.8326L98.1195 16.8246ZM105.953 15.2666L106.192 14.2627C105.801 14.1021 105.22 13.9736 104.726 13.9736C104.231 13.9736 103.626 14.1583 103.283 14.5278C102.861 14.9213 102.63 15.5798 102.63 16.2464C102.63 16.9129 103.02 17.5393 103.785 17.5393C104.55 17.5393 105.674 16.4793 105.961 15.2666H105.953Z" fill="#FF0E79"/>
<path d="M114.894 5.89461H119.587L119.221 7.39638C120.057 6.47283 121.293 5.59747 122.807 5.59747C124.982 5.59747 126.289 6.99484 126.289 9.29166C126.289 11.5885 126.13 10.8496 125.922 11.7973L123.906 20.2216H119.189L121.101 12.2711C121.229 11.7411 121.285 11.2672 121.285 11.0022C121.285 10.2393 120.918 9.81366 120.105 9.81366C119.292 9.81366 118.4 10.6328 118.113 11.9258L116.121 20.2136H111.403L114.886 5.87855L114.894 5.89461Z" fill="#FF0E79"/>
<path d="M127.452 22.9522L130.305 20.0209C128.313 19.1536 127.085 17.2262 127.085 14.5278C127.085 11.8294 127.954 9.54066 129.707 7.76584C131.07 6.39257 132.743 5.62964 134.791 5.62964C136.839 5.62964 138.983 6.86639 139.875 8.6412L136.52 11.0745C136.018 10.1751 135.5 9.64506 134.712 9.64506C133.923 9.64506 133.556 9.91008 133.11 10.3839C132.217 11.2593 131.691 12.8895 131.691 14.2387C131.691 15.5879 132.425 16.5355 133.397 16.5355C134.369 16.5355 134.759 16.142 135.469 15.5076L137.907 18.3344C136.783 19.5792 135.309 20.4706 133.245 20.5509L131.046 24.462L127.46 22.9602L127.452 22.9522Z" fill="#FF0E79"/>
<path d="M138.831 16.8246C138.831 15.371 139.333 13.9174 140.274 12.9698C141.214 12.0221 142.656 11.4921 144.409 11.4921C146.163 11.4921 146.426 11.7009 147.398 12.0462L147.454 11.8374C147.533 11.5242 147.581 11.1548 147.581 10.8336C147.581 10.0144 147.055 9.4603 145.589 9.4603C144.123 9.4603 143.23 9.7735 142.338 10.1429L141.581 6.55314C143.023 6.0231 144.728 5.7099 146.585 5.7099C150.33 5.7099 152.267 7.24379 152.267 9.91003C152.267 12.5763 152.139 11.4439 151.924 12.2631L150.035 20.2377H145.398L145.708 18.8644C144.688 19.8924 143.668 20.5027 142.25 20.5027C140.13 20.5027 138.815 19.0491 138.815 16.8326L138.831 16.8246ZM146.665 15.2666L146.904 14.2627C146.513 14.1021 145.932 13.9736 145.437 13.9736C144.943 13.9736 144.338 14.1583 143.995 14.5278C143.573 14.9213 143.342 15.5798 143.342 16.2464C143.342 16.9129 143.732 17.5393 144.497 17.5393C145.262 17.5393 146.386 16.4793 146.673 15.2666H146.665Z" fill="#FF0E79"/>
</svg>
