<svg width="42" height="43" viewBox="0 0 42 43" fill="none" xmlns="http://www.w3.org/2000/svg">
<path d="M17.9328 14.637H14.1486L8.17383 28.3579H12.2469L16.0407 19.6414L17.6006 23.2132H15.7181L14.2208 26.6446H19.0931L19.8393 28.3579H23.9076L17.9328 14.637Z" fill="#E31C79"/>
<path d="M19.1895 14.5208L25.1642 28.2417H29.2325L23.2577 14.5208H19.1895Z" fill="#00A3E0"/>
<path d="M24.4902 14.6369L30.465 28.3579L34.5333 28.2417L28.5633 14.5208L24.4902 14.6369Z" fill="#00A3E0"/>
<path d="M21.356 0.920898C10.0516 0.920898 0.884766 10.136 0.884766 21.4999C0.884766 32.8639 10.0516 42.0789 21.356 42.0789C32.6604 42.0789 41.8272 32.8639 41.8272 21.4999C41.8272 10.136 32.6604 0.920898 21.356 0.920898ZM21.356 37.9602C12.3096 37.9602 4.97708 30.5892 4.97708 21.4951C4.97708 12.401 12.3096 5.02993 21.356 5.02993C30.4024 5.02993 37.7349 12.401 37.7349 21.4951C37.7301 30.5892 30.3976 37.9602 21.356 37.9602Z" fill="white"/>
</svg>
