<svg width="90" height="60" viewBox="0 0 90 60" fill="none" xmlns="http://www.w3.org/2000/svg">
<path d="M67.4018 48.1903C67.2218 48.1903 67.0377 48.1538 66.8659 48.0809L49.7822 40.8988C49.2791 40.6882 48.9518 40.1984 48.9518 39.6518V11.8542C48.9518 11.3117 49.2791 10.8218 49.7822 10.6073L66.8659 3.42508C67.2872 3.24694 67.7741 3.29148 68.1545 3.54249C68.535 3.7935 68.7681 4.2186 68.7681 4.67204V46.834C68.7681 47.2874 68.5391 47.7125 68.1545 47.9635C67.9295 48.1133 67.6636 48.1862 67.4018 48.1862V48.1903ZM51.6845 38.7571L66.0354 44.7895V6.71658L51.6845 12.749V38.7571Z" fill="#00223C"/>
<path d="M50.314 41.004H22.1236C13.6268 41.004 6.71313 34.1619 6.71313 25.753C6.71313 17.3441 13.6268 10.4939 22.1236 10.4939C30.6204 10.4939 22.3159 10.4939 22.414 10.502H50.314C51.0709 10.502 51.6804 11.1093 51.6804 11.8542V39.6518C51.6804 40.3967 51.0668 41.004 50.314 41.004ZM22.1809 13.2024C22.1604 13.2024 22.144 13.2024 22.1236 13.2024C15.1322 13.2024 9.44586 18.834 9.44586 25.753C9.44586 32.672 15.1322 38.2996 22.1236 38.2996H48.9477V13.2105H22.365C22.324 13.2105 22.2831 13.2105 22.2422 13.2064C22.2218 13.2064 22.2013 13.2064 22.1809 13.2064V13.2024Z" fill="#00223C"/>
<path d="M13.9622 25.7531H11.2295C11.2295 19.6276 16.2613 14.6438 22.4509 14.6438C28.6404 14.6438 22.594 14.6438 22.6677 14.6478H42.2304V17.3523H22.6186C22.5777 17.3523 22.5368 17.3523 22.4918 17.3483C17.7709 17.3483 13.9622 21.1175 13.9622 25.7531Z" fill="#00223C"/>
<path d="M28.9595 58.1376H21.7841C21.0273 58.1376 20.4177 57.5303 20.4177 56.7854V39.6518C20.4177 38.9028 21.0314 38.2996 21.7841 38.2996H28.9595C29.7164 38.2996 30.3259 38.9068 30.3259 39.6518V56.7854C30.3259 57.5344 29.7123 58.1376 28.9595 58.1376ZM23.1505 55.4332H27.5932V41.0081H23.1505V55.4332Z" fill="#00223C"/>
<path d="M9.14723 32.425H3.72269C2.96587 32.425 2.35632 31.8178 2.35632 31.0728V20.4372C2.35632 19.6882 2.96996 19.085 3.72269 19.085H9.14723V21.7894H5.08905V29.7206H9.14723V32.425Z" fill="#00223C"/>
<path d="M88.0773 24.3967H79.7073V27.1012H88.0773V24.3967Z" fill="#00223C"/>
<path d="M82.9257 9.58147L77.0072 15.4387L78.9395 17.3511L84.858 11.4938L82.9257 9.58147Z" fill="#00223C"/>
<path d="M78.9373 33.2554L77.005 35.1677L82.9235 41.025L84.8558 39.1126L78.9373 33.2554Z" fill="#00223C"/>
</svg>
