<svg width="67" height="67" viewBox="0 0 67 67" fill="none" xmlns="http://www.w3.org/2000/svg">
<path d="M66.9313 24.4778C66.6649 25.7265 66.4821 27.0056 66.1242 28.2238C65.3628 30.8276 63.9772 33.1041 62.2032 35.1522C61.9672 35.4263 61.7844 35.8146 61.7311 36.18C61.3505 38.723 62.0585 40.9538 63.7944 42.8572C64.3959 43.5119 64.4873 44.0982 64.0914 44.6692C63.7716 45.126 63.3224 45.2555 62.7818 45.2402C59.2339 45.1413 56.1275 43.9155 53.4399 41.5933C53.2572 41.4334 52.9298 41.2735 52.7394 41.3268C50.4173 42.0273 48.0419 42.4156 45.6284 42.5831C45.4989 42.5907 45.3771 42.6288 45.3924 42.6288C44.9659 44.2809 44.6995 45.9026 44.1285 47.4177C41.9434 53.1736 37.7177 56.9348 32.1065 59.2036C27.0816 61.2365 21.8966 61.3355 16.6585 60.2162C15.7905 60.0335 14.8845 59.4777 14.0927 59.6148C13.3313 59.7442 12.7146 60.5969 12.0066 61.0766C9.67679 62.645 7.09573 63.4444 4.2863 63.5282C3.64675 63.5434 3.12141 63.3759 2.83209 62.7668C2.53516 62.1425 2.76357 61.64 3.19755 61.168C4.92584 59.295 5.65675 57.0947 5.29891 54.5745C5.238 54.1558 5.03243 53.699 4.75834 53.3716C1.65198 49.778 -0.0458621 45.6666 0.0759561 40.9005C0.205388 35.8069 2.39811 31.6347 6.09834 28.239C10.2783 24.3941 15.2728 22.3613 20.9069 21.8435C21.7292 21.7674 21.7292 21.775 21.8967 20.6786C22.5819 16.0952 24.7289 12.296 28.1932 9.27341C33.2562 4.84991 39.2253 3.04548 45.8796 3.5556C52.0238 4.02764 57.3761 6.36503 61.7311 10.7733C64.6091 13.6893 66.3983 17.184 66.8323 21.3106C66.8399 21.4096 66.9008 21.5085 66.9389 21.6075V24.4778H66.9313ZM6.81402 60.5589C9.11338 59.9574 10.9559 58.861 12.4938 57.2545C12.9811 56.7368 13.5217 56.5465 14.1917 56.7977C16.5367 57.6733 18.973 58.1073 21.4551 58.2443C27.4546 58.5793 32.8374 56.9957 37.3295 52.9072C44.2579 46.6031 44.4254 36.6292 37.7254 30.0967C34.1546 26.6173 29.792 24.7976 24.8584 24.4398C18.2117 23.9525 12.3263 25.8483 7.49164 30.5155C4.35482 33.5457 2.58084 37.2459 2.67982 41.6923C2.76357 45.4991 4.18732 48.8186 6.72266 51.6205C7.46118 52.4427 7.76577 53.3335 7.8952 54.3614C8.16168 56.4932 7.77338 58.5108 6.80641 60.5436L6.81402 60.5589ZM24.4244 21.7369C24.7061 21.775 24.9193 21.8207 25.1324 21.8359C28.0941 22.0567 30.9036 22.8257 33.5912 24.0743C33.9491 24.2418 34.3753 24.3332 34.7713 24.3332C41.3875 24.3484 48.0038 24.3408 54.62 24.3484C54.856 24.3484 55.0997 24.3332 55.3357 24.3636C55.9982 24.455 56.4777 25.0184 56.4701 25.6656C56.4625 26.2899 55.9982 26.8305 55.3661 26.9294C55.1302 26.9675 54.8865 26.9523 54.6505 26.9523C49.4275 26.9523 44.2046 26.9523 38.9817 26.9523C38.7609 26.9523 38.5325 26.9523 38.1518 26.9523C42.2632 30.4622 44.6919 34.6801 45.202 39.964C47.6536 39.8346 50.0214 39.5072 52.2751 38.6697C53.3334 38.2738 54.0415 38.4565 54.818 39.2559C56.2569 40.7558 58.0386 41.7151 60.1475 42.2481C59.9648 41.8065 59.7897 41.4639 59.6755 41.0984C58.7694 38.0606 58.4725 35.2511 60.8708 32.5178C63.6193 29.3886 64.7005 25.5361 64.1828 21.341C63.6955 17.3743 61.7617 14.1385 58.7847 11.5727C53.1582 6.71525 46.6029 5.13923 39.37 6.54014C34.4058 7.50707 30.2945 9.98148 27.2795 14.1081C25.6502 16.3465 24.668 18.8514 24.4168 21.7217L24.4244 21.7369Z" fill="#FF368F"/>
<path d="M22.6509 45.2479C26.1912 45.2479 29.7392 45.2479 33.2795 45.2479C34.0637 45.2479 34.5586 45.5829 34.7414 46.1996C34.9622 46.9381 34.4597 47.7147 33.6755 47.8365C33.4623 47.867 33.2415 47.8593 33.0207 47.8593C26.1075 47.8593 19.1943 47.8593 12.2811 47.8593C12.106 47.8593 11.9309 47.867 11.7558 47.8593C11.0173 47.7984 10.4919 47.2274 10.5072 46.527C10.5224 45.8493 11.0401 45.3012 11.7558 45.2631C12.4486 45.2326 13.1491 45.2555 13.8419 45.2479C16.7808 45.2479 19.712 45.2479 22.6509 45.2479Z" fill="#FF368F"/>
<path d="M25.2543 40.0173C22.6048 40.0173 19.9476 40.0325 17.2981 40.0021C16.9022 40.0021 16.4378 39.8346 16.118 39.5985C15.7145 39.294 15.6231 38.7991 15.8058 38.2966C16.0038 37.756 16.4073 37.4515 16.9859 37.421C17.4808 37.3982 17.9833 37.4134 18.4858 37.4134C23.29 37.4134 28.0942 37.4134 32.8984 37.4134C33.0964 37.4134 33.2867 37.4058 33.4847 37.4134C34.2308 37.4591 34.779 37.9921 34.7866 38.6925C34.8018 39.4158 34.246 40.0021 33.4618 40.0173C32.0457 40.0401 30.6372 40.0249 29.221 40.0249C27.8963 40.0249 26.5715 40.0249 25.2467 40.0249L25.2543 40.0173Z" fill="#FF368F"/>
<path d="M11.7785 40.0173C11.0552 40.0021 10.4766 39.3701 10.507 38.6544C10.5451 37.9616 11.1466 37.3982 11.8394 37.4211C12.5322 37.4363 13.1109 38.0226 13.1109 38.723C13.1109 39.4463 12.4942 40.0401 11.7785 40.0249V40.0173Z" fill="#FF368F"/>
<path d="M46.8774 19.1255C44.2507 19.1255 41.6164 19.1407 38.9897 19.1102C38.5862 19.1102 38.1293 18.9427 37.8096 18.7067C37.3984 18.4098 37.3147 17.9073 37.4974 17.4048C37.6878 16.8871 38.0684 16.5825 38.609 16.5292C38.9973 16.4912 39.3932 16.514 39.7815 16.514C44.7151 16.514 49.6488 16.514 54.5824 16.514C54.7804 16.514 54.9707 16.514 55.1687 16.514C55.9224 16.5597 56.463 17.085 56.4782 17.7855C56.4934 18.5088 55.9376 19.095 55.1611 19.1102C53.8591 19.1331 52.5496 19.1179 51.2476 19.1179C49.7934 19.1179 48.3316 19.1179 46.8774 19.1179V19.1255Z" fill="#FF368F"/>
<path d="M33.4998 16.514C34.1927 16.514 34.7789 17.1002 34.7941 17.7931C34.8094 18.5164 34.2003 19.1255 33.4846 19.1179C32.7613 19.1179 32.1674 18.4935 32.1979 17.7702C32.2207 17.0774 32.8146 16.5064 33.5074 16.514H33.4998Z" fill="#FF368F"/>
</svg>
