<svg width="434" height="59" viewBox="0 0 434 59" fill="none" xmlns="http://www.w3.org/2000/svg">
<path d="M22.0648 18.7383H17.203L9.4118 37.3991H14.7098L19.6339 25.5718L21.6284 30.4342H19.1976L17.2654 35.0336H23.5607L24.5579 37.3991H29.7936L22.0648 18.7383Z" fill="#020202"/>
<path d="M23.6854 18.6071L31.4143 37.2022H36.7123L28.9834 18.6071H23.6854Z" fill="#020202"/>
<path d="M30.5416 18.7385L38.2705 37.3993L43.5686 37.2022L35.8397 18.6071L30.5416 18.7385Z" fill="#020202"/>
<path d="M26.4902 0.143448C11.8427 0.143448 0 12.6278 0 28.0689C0 43.51 11.8427 55.9944 26.4902 55.9944C41.1377 55.9944 52.9803 43.51 52.9803 28.0689C52.9803 12.6278 41.1377 0.143448 26.4902 0.143448ZM26.4902 50.4093C14.7722 50.4093 5.29803 40.4218 5.29803 28.0689C5.29803 15.716 14.7722 5.72854 26.4902 5.72854C38.2082 5.72854 47.6823 15.716 47.6823 28.0689C47.6823 40.4218 38.2082 50.4093 26.4902 50.4093Z" fill="#020202"/>
<path d="M73.3622 18.7385L65.6333 37.3993H70.9313L75.8554 25.5721L77.8499 30.4344H75.4191L73.4868 35.0339H79.7821L80.7171 37.3993H86.0151L78.2862 18.7385H73.3622Z" fill="#020202"/>
<path d="M184.06 37.3993H189.296L181.567 18.7385H176.705L168.976 37.3993H174.212L175.209 35.0339H181.504L179.572 30.4344H177.141L179.136 25.5721L184.06 37.3993Z" fill="#020202"/>
<path d="M92.8714 18.7385H87.5734V37.3993H101.161V32.7341H92.8714V18.7385Z" fill="#020202"/>
<path d="M108.267 18.7385H102.969V37.3336H108.267V18.7385Z" fill="#020202"/>
<path d="M143.67 28.266L136.502 18.7385H131.703V37.3993H137.001V28.0689L144.293 37.3993H148.968V18.6728H143.67V28.266Z" fill="#020202"/>
<path d="M161.683 23.5351C162.868 23.5351 164.675 23.798 167.106 24.2579L167.916 19.3956C165.423 18.7385 163.179 18.4757 161.122 18.4757C158.131 18.4757 155.7 19.3956 153.83 21.1697C151.96 22.9438 151.025 25.2435 151.025 28.1346C151.025 31.0257 151.96 33.3912 153.83 35.1653C155.7 36.9394 158.131 37.7935 161.122 37.7935C164.114 37.7935 165.486 37.465 167.916 36.8079L167.106 32.077C164.488 32.537 162.618 32.7998 161.559 32.7998C160.499 32.7998 158.941 32.3399 158.068 31.5514C157.196 30.6972 156.759 29.5802 156.759 28.2003C156.759 25.5064 158.692 23.6666 161.683 23.6666V23.5351Z" fill="#020202"/>
<path d="M117.492 18.7385L109.763 37.3336H115.061L116.058 35.0339H123.974L124.971 37.3336H130.269L122.54 18.7385H117.616H117.492ZM117.928 30.4344L119.923 25.5721L121.917 30.4344H117.866H117.928Z" fill="#020202"/>
<path d="M157.819 38.3192L157.32 42.0645H160.624L161.995 38.7134C161.684 38.7134 161.372 38.7134 161.123 38.7134C159.938 38.7134 158.879 38.582 157.881 38.3192H157.819Z" fill="#020202"/>
<path d="M123.6 44.2328H126.031L123.101 55.7972H120.671L123.6 44.2328Z" fill="#020202"/>
<path d="M127.215 46.9268H129.584L129.334 47.8467C129.646 47.5839 129.958 47.321 130.332 47.1239C130.706 46.9268 131.142 46.7954 131.578 46.7954C132.326 46.7954 132.949 46.9925 133.386 47.4524C133.822 47.9124 134.071 48.5695 134.071 49.3579C134.071 50.1464 134.071 49.8836 134.009 50.1464C134.009 50.4093 133.884 50.7378 133.822 51.0006L132.638 55.7315H130.269L131.516 50.8692C131.516 50.7378 131.516 50.6064 131.578 50.475C131.578 50.3436 131.578 50.2121 131.578 50.0807C131.578 49.7522 131.454 49.4894 131.267 49.2922C131.08 49.0951 130.768 49.0294 130.394 49.0294C130.02 49.0294 129.521 49.1608 129.21 49.4894C128.898 49.8179 128.711 50.2121 128.524 50.7378L127.277 55.7315H124.909L127.153 46.9268H127.215Z" fill="#020202"/>
<path d="M138.185 55.6001C137.562 55.3373 137.001 55.0087 136.565 54.6145C136.128 54.1546 135.754 53.6289 135.505 53.0375C135.256 52.4462 135.131 51.7234 135.131 50.9349C135.131 50.1464 135.318 49.1608 135.63 48.3066C136.004 47.4525 136.44 46.7297 137.063 46.1383C137.687 45.547 138.372 45.0213 139.182 44.6271C139.993 44.2328 140.865 44.0357 141.8 44.0357C142.735 44.0357 143.733 44.2328 144.48 44.6928C145.166 45.1527 145.789 45.7441 146.226 46.4669L144.231 47.9124C143.92 47.4525 143.546 47.0582 143.109 46.7297C142.673 46.4011 142.174 46.2697 141.489 46.2697C140.803 46.2697 140.491 46.4011 140.055 46.5983C139.619 46.8611 139.182 47.1239 138.808 47.5839C138.434 47.9781 138.185 48.4381 137.936 49.0294C137.687 49.6208 137.624 50.1464 137.624 50.7378C137.624 51.3292 137.687 51.5263 137.811 51.8548C137.936 52.1834 138.123 52.5119 138.372 52.709C138.621 52.9718 138.871 53.169 139.245 53.3004C139.556 53.4318 139.93 53.4975 140.304 53.4975C140.678 53.4975 141.302 53.3661 141.676 53.169C142.05 52.9718 142.486 52.709 142.86 52.3148L144.418 54.0231C143.857 54.5488 143.296 54.943 142.611 55.2716C141.925 55.6001 141.177 55.7972 140.242 55.7972C139.307 55.7972 138.808 55.6658 138.185 55.4687V55.6001Z" fill="#020202"/>
<path d="M147.784 55.6658C147.285 55.4687 146.849 55.2059 146.537 54.8116C146.163 54.4174 145.914 54.0232 145.727 53.4975C145.54 52.9718 145.415 52.4462 145.415 51.8548C145.415 51.2635 145.54 50.5407 145.789 49.9493C146.039 49.358 146.413 48.7666 146.849 48.3067C147.285 47.8467 147.784 47.4525 148.407 47.1896C148.968 46.9268 149.654 46.7297 150.277 46.7297C150.9 46.7297 151.461 46.8611 151.96 47.0582C152.459 47.2553 152.895 47.5182 153.207 47.9124C153.581 48.3067 153.83 48.7009 154.017 49.2265C154.204 49.7522 154.329 50.2779 154.329 50.8692C154.329 51.4606 154.204 52.1834 153.955 52.7747C153.705 53.3661 153.331 53.9574 152.895 54.4174C152.459 54.8773 151.96 55.2716 151.337 55.5344C150.776 55.7972 150.09 55.9944 149.467 55.9944C148.844 55.9944 148.283 55.863 147.784 55.6658ZM150.589 53.5632C150.9 53.3661 151.15 53.169 151.337 52.8404C151.524 52.5776 151.711 52.2491 151.835 51.9205C151.96 51.592 152.022 51.2635 152.022 50.9349C152.022 50.2779 151.835 49.7522 151.524 49.4237C151.212 49.0951 150.776 48.898 150.215 48.898C149.654 48.898 149.529 48.9637 149.218 49.1608C148.906 49.358 148.657 49.5551 148.47 49.8836C148.283 50.1464 148.096 50.475 147.971 50.8035C147.846 51.1321 147.784 51.4606 147.784 51.7891C147.784 52.4462 147.971 52.9718 148.283 53.3004C148.594 53.6289 149.031 53.826 149.592 53.826C150.152 53.826 150.277 53.7603 150.589 53.5632Z" fill="#020202"/>
<path d="M156.572 46.9268H158.941L158.692 47.8467C159.003 47.5839 159.315 47.321 159.689 47.1239C160.063 46.9268 160.437 46.7954 160.936 46.7954C161.434 46.7954 161.995 46.9268 162.369 47.1896C162.743 47.4524 162.992 47.8467 163.179 48.3723C163.553 47.9124 163.99 47.5182 164.488 47.2553C164.987 46.9925 165.548 46.7954 166.171 46.7954C166.795 46.7954 167.543 46.9925 167.917 47.4524C168.353 47.9124 168.54 48.5695 168.54 49.3579C168.54 50.1464 168.54 49.8836 168.477 50.1464C168.477 50.4093 168.353 50.7378 168.29 51.0006L167.106 55.7315H164.738L165.984 50.8692C165.984 50.7378 165.984 50.6064 166.047 50.475C166.047 50.3436 166.047 50.2121 166.047 50.0807C166.047 49.358 165.673 48.9637 164.925 48.9637C164.177 48.9637 164.052 49.0951 163.803 49.4237C163.553 49.7522 163.304 50.1464 163.179 50.6721L161.933 55.6658H159.564L160.811 50.8035C160.811 50.6721 160.811 50.5407 160.873 50.4093C160.873 50.2778 160.873 50.1464 160.873 50.015C160.873 49.2922 160.499 48.898 159.751 48.898C159.003 48.898 158.879 49.0294 158.629 49.3579C158.318 49.6865 158.131 50.0807 158.006 50.6064L156.759 55.6001H154.391L156.635 46.7954L156.572 46.9268Z" fill="#020202"/>
<path d="M170.784 46.9268H173.152L172.903 47.9124C173.277 47.5839 173.651 47.2553 174.025 47.0582C174.399 46.8611 174.835 46.7297 175.271 46.7297C175.708 46.7297 176.144 46.7954 176.518 46.9925C176.892 47.1896 177.266 47.3868 177.515 47.7153C177.827 48.0438 178.014 48.4381 178.201 48.898C178.388 49.358 178.45 49.8836 178.45 50.475C178.45 51.0663 178.326 51.9862 178.076 52.6433C177.827 53.3004 177.453 53.8917 177.017 54.3517C176.58 54.8116 176.082 55.2059 175.521 55.4687C174.96 55.7315 174.399 55.8629 173.775 55.8629C173.152 55.8629 172.591 55.7315 172.155 55.4687C171.719 55.2059 171.407 54.8773 171.158 54.4174L170.16 58.3598H167.792L170.721 46.8611L170.784 46.9268ZM174.461 53.5632C174.773 53.4318 175.022 53.169 175.271 52.9061C175.521 52.6433 175.708 52.3148 175.832 51.9205C175.957 51.5263 176.019 51.132 176.019 50.6721C176.019 50.2122 175.832 49.6208 175.521 49.2923C175.209 48.9637 174.773 48.8323 174.274 48.8323C173.775 48.8323 173.651 48.898 173.339 49.0951C173.028 49.2266 172.778 49.4894 172.529 49.7522C172.28 50.015 172.093 50.3436 171.968 50.7378C171.843 51.1321 171.781 51.5263 171.781 51.9205C171.781 52.3148 171.968 52.9061 172.28 53.3004C172.591 53.6289 173.028 53.826 173.588 53.826C174.149 53.826 174.212 53.7603 174.523 53.5632H174.461Z" fill="#020202"/>
<path d="M180.009 55.7315C179.697 55.6001 179.448 55.4687 179.261 55.2059C179.074 55.0087 178.887 54.7459 178.762 54.4831C178.637 54.2203 178.575 53.8917 178.575 53.4975C178.575 52.9718 178.7 52.5119 178.887 52.1176C179.074 51.7234 179.323 51.3949 179.635 51.132C179.946 50.8692 180.32 50.6721 180.756 50.5407C181.193 50.4093 181.691 50.3436 182.19 50.3436C182.689 50.3436 183.063 50.3436 183.437 50.475C183.811 50.5407 184.185 50.6721 184.559 50.7378V50.6064C184.559 50.475 184.621 50.4093 184.683 50.2778C184.746 50.1464 184.683 50.0807 184.683 49.9493C184.683 49.6208 184.559 49.4237 184.309 49.2265C184.06 49.0294 183.686 48.9637 183.063 48.9637C182.439 48.9637 182.252 48.9637 181.878 49.0951C181.504 49.1608 181.13 49.2922 180.819 49.4237L180.445 47.4524C180.881 47.2553 181.38 47.1239 181.878 46.9925C182.377 46.8611 182.938 46.7954 183.561 46.7954C184.683 46.7954 185.556 47.0582 186.117 47.5182C186.678 47.9781 186.989 48.6352 186.989 49.5551C186.989 50.475 186.989 50.015 186.989 50.2121C186.989 50.4093 186.927 50.6721 186.865 50.8692L185.618 55.7315H183.312L183.561 54.6802C183.25 55.0745 182.876 55.3373 182.439 55.5344C182.003 55.7315 181.567 55.8629 181.068 55.8629C180.569 55.8629 180.383 55.8629 180.071 55.6658L180.009 55.7315ZM182.751 54.0889C183 54.0231 183.187 53.8917 183.374 53.6946C183.561 53.4975 183.748 53.3661 183.873 53.1032C183.998 52.9061 184.122 52.6433 184.185 52.4462V52.1833C184.06 52.1176 183.811 52.0519 183.499 51.9862C183.25 51.9862 182.938 51.9205 182.626 51.9205C182.128 51.9205 181.691 52.0519 181.38 52.3148C181.068 52.5776 180.881 52.9061 180.881 53.3004C180.881 53.6946 181.006 53.826 181.193 53.9574C181.38 54.1546 181.629 54.2203 182.003 54.2203C182.377 54.2203 182.502 54.2203 182.689 54.0889H182.751Z" fill="#020202"/>
<path d="M189.233 46.9268H191.602L191.353 47.8467C191.664 47.5839 191.976 47.321 192.35 47.1239C192.724 46.9268 193.16 46.7954 193.596 46.7954C194.344 46.7954 194.968 46.9925 195.404 47.4524C195.84 47.9124 196.09 48.5695 196.09 49.3579C196.09 50.1464 196.09 49.8836 196.027 50.1464C196.027 50.4093 195.903 50.7378 195.84 51.0006L194.656 55.7315H192.287L193.534 50.8692C193.534 50.7378 193.534 50.6064 193.596 50.475C193.596 50.3436 193.596 50.2121 193.596 50.0807C193.596 49.7522 193.472 49.4894 193.285 49.2922C193.098 49.0951 192.786 49.0294 192.412 49.0294C192.038 49.0294 191.54 49.1608 191.228 49.4894C190.916 49.8179 190.729 50.2121 190.542 50.7378L189.296 55.7315H186.927L189.171 46.9268H189.233Z" fill="#020202"/>
<path d="M196.339 58.2941C196.027 58.1627 195.778 58.0313 195.466 57.8341L196.713 55.9944C196.838 56.1258 196.962 56.1915 197.149 56.2572C197.336 56.3229 197.461 56.3886 197.648 56.3886C197.835 56.3886 197.959 56.3886 198.146 56.2572C198.271 56.1915 198.458 56.0601 198.583 55.7972L197.523 46.9268H199.954L200.328 52.9061L203.444 46.9268H206L200.827 55.9944C200.328 56.9143 199.767 57.5713 199.268 57.8999C198.707 58.2941 198.084 58.4255 197.398 58.4255C196.713 58.4255 196.588 58.4255 196.277 58.2284L196.339 58.2941Z" fill="#020202"/>
<path d="M357.445 47.0589H347.975V18.8189H357.445V47.0589ZM388.058 47.0589H378.525V31.0291C378.525 27.366 377.316 26.4111 375.379 26.4111C373.441 26.4111 372.17 27.3817 372.17 30.9351V47.0589H362.7V18.8189H372.17V20.6974C374.108 19.0537 376.572 18.177 379.099 18.224C385.144 18.224 388.042 22.3567 388.042 29.7767V47.0432C388.058 47.0432 388.058 47.0432 388.058 47.0432V47.0589ZM415.911 40.9225C412.703 45.7596 409.711 47.6381 404.813 47.6381C396.722 47.6381 391.886 42.3627 391.886 32.8449C391.886 23.3272 396.195 18.224 405.03 18.224C413.865 18.224 413.23 20.6974 415.648 24.6735L409.138 29.7298C407.82 27.2564 406.937 26.0824 404.891 26.0824C402.845 26.0824 401.264 28.5557 401.264 33.0171C401.264 37.4786 402.581 39.7954 405.154 39.7954C407.727 39.7954 408.208 38.7779 409.944 36.1323L415.927 40.9225H415.911ZM430.962 41.4704C430.915 43.0671 430.264 44.6012 429.133 45.7283C428.017 46.8397 426.498 47.4816 424.917 47.4816C423.351 47.4816 421.832 46.8554 420.701 45.7283C419.569 44.6012 418.918 43.0827 418.872 41.4704C418.872 37.9169 421.445 35.3653 424.917 35.3653C428.389 35.3653 430.962 37.9169 430.962 41.4704Z" fill="#121212"/>
<path d="M302.033 9.23854C310.698 9.23854 316.448 12.6355 316.448 21.7775C316.448 30.9195 310.217 34.8017 301.351 34.8017H296.236V47.0589H341.698L363.01 9.23854H302.018H302.033Z" fill="#0084D5"/>
<path d="M301.351 34.7861C310.217 34.7861 316.448 31.3891 316.448 21.7618C316.448 12.1346 310.682 9.23854 302.017 9.23854H286.13V47.0589H296.22V34.8017H301.335L301.351 34.7861ZM296.22 17.77H301.769C305.024 17.77 306.249 19.4294 306.249 21.934C306.249 24.4387 304.931 26.2546 301.599 26.2546H296.22V17.77ZM282.673 47.0589L271.792 27.7574L282.239 9.23854H270.924L266.135 17.7231L261.345 9.23854H250.464L260.694 27.3504L249.581 47.0589H260.896L266.352 37.4003L271.808 47.0589H282.673Z" fill="#121212"/>
</svg>
