<svg width="190" height="60" viewBox="0 0 190 60" fill="none" xmlns="http://www.w3.org/2000/svg">
<path d="M26.3918 22.4995H22.2498L15.6121 37.4995H20.1258L24.3208 27.9925L26.0201 31.9009H23.9491L22.3029 35.5981H27.6663L28.5159 37.4995H32.9765L26.3918 22.4995Z" fill="white"/>
<path d="M27.7725 22.394L34.3572 37.3412H38.8709L32.2862 22.394H27.7725Z" fill="white"/>
<path d="M33.6137 22.4997L40.1984 37.4997L44.7121 37.3412L38.1274 22.394L33.6137 22.4997Z" fill="white"/>
<path d="M30.1621 7.55273C17.6831 7.55273 7.59363 17.5879 7.59363 29.9999C7.59363 42.4119 17.6831 52.4471 30.1621 52.4471C42.6411 52.4471 52.7306 42.4119 52.7306 29.9999C52.7306 17.5879 42.6411 7.55273 30.1621 7.55273ZM30.1621 47.9577C20.1789 47.9577 12.1073 39.9295 12.1073 29.9999C12.1073 20.0703 20.1789 12.0422 30.1621 12.0422C40.1453 12.0422 48.2169 20.0703 48.2169 29.9999C48.2169 39.9295 40.1453 47.9577 30.1621 47.9577Z" fill="white"/>
<path d="M70.095 22.5L63.5103 37.5H68.024L72.2191 27.993L73.9184 31.9014H71.8474L70.2012 35.5986H75.5646L76.3611 37.5H80.8748L74.2901 22.5H70.095Z" fill="white"/>
<path d="M164.405 37.5H168.865L162.281 22.5H158.139L151.554 37.5H156.015L156.864 35.5986H162.228L160.581 31.9014H158.51L160.21 27.993L164.405 37.5Z" fill="white"/>
<path d="M86.716 22.5H82.2023V37.5H93.7786V33.75H86.716V22.5Z" fill="white"/>
<path d="M99.8323 22.5H95.3186V37.4472H99.8323V22.5Z" fill="white"/>
<path d="M129.994 30.1585L123.888 22.5001H119.799V37.5001H124.312V30.0001L130.525 37.5001H134.508V22.4473H129.994V30.1585Z" fill="white"/>
<path d="M145.341 26.3555C146.35 26.3555 147.89 26.5667 149.961 26.9365L150.651 23.028C148.527 22.4998 146.615 22.2886 144.863 22.2886C142.314 22.2886 140.243 23.028 138.65 24.4541C137.057 25.8801 136.26 27.7287 136.26 30.0527C136.26 32.3766 137.057 34.278 138.65 35.7041C140.243 37.1301 142.314 37.8167 144.863 37.8167C147.412 37.8167 148.58 37.5527 150.651 37.0245L149.961 33.2217C147.731 33.5914 146.138 33.8027 145.235 33.8027C144.332 33.8027 143.004 33.4329 142.261 32.7991C141.518 32.1125 141.146 31.2146 141.146 30.1055C141.146 27.94 142.792 26.4611 145.341 26.4611V26.3555Z" fill="white"/>
<path d="M107.691 22.5L101.107 37.4472H105.62L106.47 35.5986H113.214L114.064 37.4472H118.577L111.993 22.5H107.798H107.691ZM108.063 31.9014L109.762 27.993L111.462 31.9014H108.01H108.063Z" fill="white"/>
<path d="M142.049 38.2393L141.624 41.2498H144.438L145.607 38.5562C145.341 38.5562 145.075 38.5562 144.863 38.5562C143.854 38.5562 142.951 38.4505 142.102 38.2393H142.049Z" fill="white"/>
<path d="M112.895 42.9932H114.966L112.471 52.2889H110.4L112.895 42.9932Z" fill="white"/>
<path d="M115.975 45.1584H117.993L117.781 45.8978C118.046 45.6865 118.312 45.4753 118.631 45.3168C118.949 45.1584 119.321 45.0527 119.693 45.0527C120.33 45.0527 120.861 45.2112 121.233 45.5809C121.604 45.9506 121.817 46.4788 121.817 47.1126C121.817 47.7464 121.817 47.5351 121.764 47.7464C121.764 47.9577 121.657 48.2217 121.604 48.433L120.595 52.2358H118.577L119.639 48.3274C119.639 48.2217 119.639 48.1161 119.693 48.0105C119.693 47.9048 119.693 47.7992 119.693 47.6936C119.693 47.4295 119.586 47.2182 119.427 47.0598C119.268 46.9013 119.002 46.8485 118.684 46.8485C118.365 46.8485 117.94 46.9541 117.675 47.2182C117.409 47.4823 117.25 47.7992 117.091 48.2217L116.029 52.2358H114.011L115.922 45.1584H115.975Z" fill="white"/>
<path d="M125.321 52.1302C124.79 51.919 124.312 51.6549 123.941 51.338C123.569 50.9683 123.25 50.5457 123.038 50.0704C122.826 49.595 122.719 49.014 122.719 48.3802C122.719 47.7464 122.879 46.9542 123.144 46.2676C123.463 45.581 123.835 45 124.366 44.5246C124.897 44.0493 125.481 43.6267 126.171 43.3098C126.861 42.9929 127.605 42.8345 128.401 42.8345C129.198 42.8345 130.048 42.9929 130.685 43.3626C131.269 43.7324 131.8 44.2077 132.172 44.7887L130.472 45.9507C130.207 45.581 129.888 45.264 129.517 45C129.145 44.7359 128.72 44.6302 128.136 44.6302C127.552 44.6302 127.286 44.7359 126.914 44.8943C126.543 45.1056 126.171 45.3169 125.852 45.6866C125.534 46.0035 125.321 46.3732 125.109 46.8486C124.897 47.3239 124.844 47.7464 124.844 48.2218C124.844 48.6972 124.897 48.8556 125.003 49.1197C125.109 49.3838 125.268 49.6479 125.481 49.8063C125.693 50.0176 125.906 50.176 126.224 50.2817C126.49 50.3873 126.808 50.4401 127.127 50.4401C127.446 50.4401 127.977 50.3345 128.295 50.176C128.614 50.0176 128.985 49.8063 129.304 49.4894L130.632 50.8626C130.154 51.2852 129.676 51.6021 129.092 51.8662C128.508 52.1302 127.87 52.2887 127.074 52.2887C126.277 52.2887 125.852 52.1831 125.321 52.0246V52.1302Z" fill="white"/>
<path d="M133.499 52.1831C133.074 52.0247 132.703 51.8134 132.437 51.4965C132.118 51.1796 131.906 50.8627 131.747 50.4401C131.587 50.0176 131.481 49.5951 131.481 49.1197C131.481 48.6444 131.587 48.0634 131.8 47.588C132.012 47.1127 132.331 46.6373 132.703 46.2676C133.074 45.8979 133.499 45.581 134.03 45.3697C134.508 45.1585 135.092 45 135.623 45C136.154 45 136.632 45.1056 137.057 45.2641C137.482 45.4225 137.854 45.6338 138.119 45.9507C138.438 46.2676 138.65 46.5845 138.809 47.007C138.969 47.4296 139.075 47.8521 139.075 48.3275C139.075 48.8028 138.969 49.3838 138.756 49.8592C138.544 50.3345 138.225 50.8099 137.854 51.1796C137.482 51.5493 137.057 51.8662 136.526 52.0775C136.048 52.2887 135.464 52.4472 134.933 52.4472C134.402 52.4472 133.924 52.3416 133.499 52.1831ZM135.889 50.493C136.154 50.3345 136.367 50.1761 136.526 49.912C136.685 49.7007 136.845 49.4366 136.951 49.1725C137.057 48.9085 137.11 48.6444 137.11 48.3803C137.11 47.8521 136.951 47.4296 136.685 47.1655C136.42 46.9014 136.048 46.743 135.57 46.743C135.092 46.743 134.986 46.7958 134.72 46.9542C134.455 47.1127 134.243 47.2711 134.083 47.5352C133.924 47.7465 133.765 48.0106 133.658 48.2747C133.552 48.5387 133.499 48.8028 133.499 49.0669C133.499 49.5951 133.658 50.0176 133.924 50.2817C134.189 50.5458 134.561 50.7042 135.039 50.7042C135.517 50.7042 135.623 50.6514 135.889 50.493Z" fill="white"/>
<path d="M140.987 45.1584H143.004L142.792 45.8978C143.058 45.6865 143.323 45.4753 143.642 45.3168C143.96 45.1584 144.279 45.0527 144.704 45.0527C145.129 45.0527 145.606 45.1584 145.925 45.3696C146.244 45.5809 146.456 45.8978 146.615 46.3203C146.934 45.9506 147.306 45.6337 147.731 45.4225C148.155 45.2112 148.633 45.0527 149.164 45.0527C149.695 45.0527 150.333 45.2112 150.651 45.5809C151.023 45.9506 151.182 46.4788 151.182 47.1126C151.182 47.7464 151.182 47.5351 151.129 47.7464C151.129 47.9577 151.023 48.2217 150.97 48.433L149.961 52.2358H147.943L149.005 48.3274C149.005 48.2217 149.005 48.1161 149.058 48.0105C149.058 47.9048 149.058 47.7992 149.058 47.6936C149.058 47.1126 148.74 46.7957 148.102 46.7957C147.465 46.7957 147.359 46.9013 147.146 47.1654C146.934 47.4295 146.722 47.7464 146.615 48.1689L145.553 52.183H143.535L144.598 48.2746C144.598 48.1689 144.598 48.0633 144.651 47.9577C144.651 47.852 144.651 47.7464 144.651 47.6408C144.651 47.0598 144.332 46.7429 143.695 46.7429C143.058 46.7429 142.951 46.8485 142.739 47.1126C142.473 47.3767 142.314 47.6936 142.208 48.1161L141.146 52.1302H139.128L141.04 45.0527L140.987 45.1584Z" fill="white"/>
<path d="M153.094 45.1585H155.112L154.899 45.9507C155.218 45.6866 155.537 45.4225 155.855 45.2641C156.174 45.1056 156.546 45 156.917 45C157.289 45 157.661 45.0528 157.979 45.2113C158.298 45.3697 158.617 45.5282 158.829 45.7923C159.094 46.0563 159.254 46.3732 159.413 46.743C159.572 47.1127 159.625 47.5352 159.625 48.0106C159.625 48.4859 159.519 49.2254 159.307 49.7535C159.094 50.2817 158.776 50.757 158.404 51.1268C158.032 51.4965 157.608 51.8134 157.13 52.0246C156.652 52.2359 156.174 52.3415 155.643 52.3415C155.112 52.3415 154.634 52.2359 154.262 52.0246C153.89 51.8134 153.625 51.5493 153.413 51.1796L152.563 54.3486H150.545L153.041 45.1056L153.094 45.1585ZM156.227 50.493C156.492 50.3873 156.705 50.1761 156.917 49.9648C157.13 49.7535 157.289 49.4894 157.395 49.1725C157.501 48.8556 157.554 48.5387 157.554 48.169C157.554 47.7993 157.395 47.3239 157.13 47.0599C156.864 46.7958 156.492 46.6901 156.068 46.6901C155.643 46.6901 155.537 46.743 155.271 46.9014C155.006 47.007 154.793 47.2183 154.581 47.4296C154.368 47.6408 154.209 47.9049 154.103 48.2218C153.997 48.5387 153.944 48.8556 153.944 49.1725C153.944 49.4894 154.103 49.9648 154.368 50.2817C154.634 50.5458 155.006 50.7042 155.483 50.7042C155.961 50.7042 156.015 50.6514 156.28 50.493H156.227Z" fill="white"/>
<path d="M160.953 52.2358C160.688 52.1302 160.475 52.0246 160.316 51.8133C160.157 51.6548 159.997 51.4436 159.891 51.2323C159.785 51.021 159.732 50.757 159.732 50.4401C159.732 50.0175 159.838 49.6478 159.997 49.3309C160.157 49.014 160.369 48.7499 160.634 48.5386C160.9 48.3274 161.219 48.1689 161.59 48.0633C161.962 47.9577 162.387 47.9048 162.812 47.9048C163.236 47.9048 163.555 47.9048 163.874 48.0105C164.192 48.0633 164.511 48.1689 164.83 48.2217V48.1161C164.83 48.0105 164.883 47.9577 164.936 47.852C164.989 47.7464 164.936 47.6936 164.936 47.5879C164.936 47.3239 164.83 47.1654 164.617 47.007C164.405 46.8485 164.086 46.7957 163.555 46.7957C163.024 46.7957 162.865 46.7957 162.546 46.9013C162.228 46.9541 161.909 47.0598 161.643 47.1654L161.325 45.5809C161.696 45.4225 162.121 45.3168 162.546 45.2112C162.971 45.1055 163.449 45.0527 163.98 45.0527C164.936 45.0527 165.679 45.264 166.157 45.6337C166.635 46.0034 166.9 46.5316 166.9 47.271C166.9 48.0105 166.9 47.6408 166.9 47.7992C166.9 47.9577 166.847 48.1689 166.794 48.3274L165.732 52.2358H163.767L163.98 51.3908C163.714 51.7077 163.396 51.9189 163.024 52.0774C162.652 52.2358 162.281 52.3415 161.856 52.3415C161.431 52.3415 161.272 52.3415 161.006 52.183L160.953 52.2358ZM163.29 50.9154C163.502 50.8626 163.661 50.757 163.821 50.5985C163.98 50.4401 164.139 50.3344 164.245 50.1232C164.352 49.9647 164.458 49.7534 164.511 49.595V49.3837C164.405 49.3309 164.192 49.2781 163.927 49.2253C163.714 49.2253 163.449 49.1725 163.183 49.1725C162.759 49.1725 162.387 49.2781 162.121 49.4894C161.856 49.7006 161.696 49.9647 161.696 50.2816C161.696 50.5985 161.803 50.7041 161.962 50.8098C162.121 50.9682 162.334 51.021 162.652 51.021C162.971 51.021 163.077 51.021 163.236 50.9154H163.29Z" fill="white"/>
<path d="M168.812 45.1584H170.83L170.618 45.8978C170.883 45.6865 171.149 45.4753 171.467 45.3168C171.786 45.1584 172.158 45.0527 172.529 45.0527C173.167 45.0527 173.698 45.2112 174.069 45.5809C174.441 45.9506 174.653 46.4788 174.653 47.1126C174.653 47.7464 174.653 47.5351 174.6 47.7464C174.6 47.9577 174.494 48.2217 174.441 48.433L173.432 52.2358H171.414L172.476 48.3274C172.476 48.2217 172.476 48.1161 172.529 48.0105C172.529 47.9048 172.529 47.7992 172.529 47.6936C172.529 47.4295 172.423 47.2182 172.264 47.0598C172.105 46.9013 171.839 46.8485 171.52 46.8485C171.202 46.8485 170.777 46.9541 170.511 47.2182C170.246 47.4823 170.087 47.7992 169.927 48.2217L168.865 52.2358H166.847L168.759 45.1584H168.812Z" fill="white"/>
<path d="M174.866 54.2955C174.6 54.1899 174.388 54.0843 174.122 53.9258L175.184 52.4469C175.291 52.5526 175.397 52.6054 175.556 52.6582C175.716 52.711 175.822 52.7638 175.981 52.7638C176.14 52.7638 176.247 52.7638 176.406 52.6582C176.512 52.6054 176.671 52.4998 176.778 52.2885L175.875 45.1582H177.946L178.264 49.9645L180.92 45.1582H183.097L178.689 52.4469C178.264 53.1864 177.786 53.7145 177.362 53.9786C176.884 54.2955 176.353 54.4012 175.769 54.4012C175.184 54.4012 175.078 54.4012 174.813 54.2427L174.866 54.2955Z" fill="white"/>
</svg>
