<svg width="160" height="55" viewBox="0 0 160 55" fill="none" xmlns="http://www.w3.org/2000/svg">
<path d="M23.9328 20.637H20.1486L14.1738 34.3579H18.2469L22.0407 25.6414L23.6006 29.2132H21.7181L20.2208 32.6446H25.0931L25.8393 34.3579H29.9076L23.9328 20.637Z" fill="#E31C79"/>
<path d="M25.1895 20.5208L31.1642 34.2417H35.2325L29.2577 20.5208H25.1895Z" fill="#00A3E0"/>
<path d="M30.4902 20.6369L36.465 34.3579L40.5333 34.2417L34.5633 20.5208L30.4902 20.6369Z" fill="#00A3E0"/>
<path d="M27.356 6.9209C16.0516 6.9209 6.88477 16.136 6.88477 27.4999C6.88477 38.8639 16.0516 48.0789 27.356 48.0789C38.6604 48.0789 47.8272 38.8639 47.8272 27.4999C47.8272 16.136 38.6604 6.9209 27.356 6.9209ZM27.356 43.9602C18.3096 43.9602 10.9771 36.5892 10.9771 27.4951C10.9771 18.401 18.3096 11.0299 27.356 11.0299C36.4024 11.0299 43.7349 18.401 43.7349 27.4951C43.7301 36.5892 36.3976 43.9602 27.356 43.9602Z" fill="white"/>
<path d="M63.5607 20.6372L57.5859 34.3582H61.6542L65.4528 25.6416L67.0079 29.2134H65.1254L63.6329 32.6449H68.5052L69.2514 34.3582H73.3197L67.3449 20.6372H63.5607Z" fill="white"/>
<path d="M149.047 34.3582H153.12L147.145 20.6372H143.356L137.381 34.3582H141.454L142.201 32.6449H147.068L145.576 29.2134H143.693L145.253 25.6416L149.047 34.3582Z" fill="white"/>
<path d="M78.6251 20.6372H74.5376V34.3582H85.0043V30.9267H78.6251V20.6372Z" fill="white"/>
<path d="M90.5121 20.6372H86.4438V34.3582H90.5121V20.6372Z" fill="white"/>
<path d="M117.868 27.6211L112.298 20.6373H108.615V34.3582H112.707V27.4808L118.335 34.3582H121.961V20.5598H117.868V27.6211Z" fill="white"/>
<path d="M131.763 24.1702C132.673 24.1702 134.069 24.3493 135.956 24.6929L136.582 21.1211C134.68 20.6614 132.918 20.4387 131.315 20.4387C128.985 20.4387 127.122 21.1018 125.687 22.4037C124.247 23.7056 123.54 25.4141 123.54 27.5388C123.54 29.6635 124.247 31.3913 125.687 32.6932C127.126 33.9951 128.99 34.6388 131.315 34.6388C132.913 34.6388 134.675 34.3968 136.582 33.8983L135.956 30.4088C133.91 30.7476 132.495 30.9315 131.662 30.9315C130.549 30.9315 129.635 30.6121 128.946 29.9877C128.277 29.3682 127.935 28.5455 127.935 27.5194C127.935 25.5109 129.413 24.1702 131.763 24.1702Z" fill="white"/>
<path d="M97.6423 20.6372L91.6675 34.3582H95.7357L96.482 32.6449H102.582L103.328 34.3582H107.396L101.422 20.6372H97.6423ZM97.9793 29.2134L99.5344 25.6416L101.089 29.2134H97.9793Z" fill="white"/>
<path d="M128.792 35.0454L128.388 37.7896H130.92L131.999 35.3116C131.767 35.3213 131.541 35.3261 131.315 35.3261C130.419 35.3261 129.577 35.2342 128.792 35.0454Z" fill="white"/>
</svg>
