<svg width="286" height="329" viewBox="0 0 286 329" fill="none" xmlns="http://www.w3.org/2000/svg">
<g clip-path="url(#clip0_14_115)">
<path d="M96.4591 312.488C93.0074 313.245 89.4179 312.755 86.2398 311.064C82.6645 309.16 80.0586 306.014 78.8616 302.151L17.5575 103.868C15.081 95.8895 19.5375 87.3967 27.4784 84.9518L190.044 34.5534C197.979 32.0825 206.442 36.5786 208.892 44.5624L270.196 242.846C271.388 246.682 271.016 250.78 269.13 254.368C267.243 257.956 264.117 260.568 260.275 261.762L97.71 312.16C97.3035 312.276 96.8713 312.398 96.4591 312.488ZM191.978 37.4674C191.643 37.5408 191.334 37.6085 191.011 37.7336L28.445 88.132C22.2531 90.0581 18.7901 96.678 20.715 102.877L82.0191 301.161C82.9459 304.16 84.9953 306.615 87.7761 308.095C90.557 309.575 93.7291 309.884 96.712 308.96L259.277 258.561C262.26 257.637 264.699 255.583 266.166 252.792C267.634 250.001 267.934 246.815 267.007 243.816L205.703 45.5322C203.872 39.6379 197.851 36.1809 191.978 37.4674Z" fill="#4C4C4C"/>
<path d="M246.423 247.077L100.844 292.207C97.6093 293.214 94.154 291.366 93.1503 288.14L64.8155 196.496C63.8061 193.243 65.6381 189.776 68.8471 188.774L214.426 143.644C217.661 142.636 221.116 144.485 222.119 147.711L250.454 239.355C251.464 242.608 249.632 246.075 246.423 247.077Z" fill="#F3D2CA"/>
<path d="M100.692 293.977C96.7764 294.835 92.7899 292.533 91.5816 288.619L63.2467 196.975C62.624 194.995 62.8312 192.86 63.8046 191.018C64.778 189.177 66.3971 187.818 68.3923 187.191L213.971 142.061C215.941 141.439 218.066 141.652 219.901 142.634C221.735 143.616 223.091 145.246 223.72 147.252L252.054 238.896C252.677 240.876 252.47 243.011 251.496 244.853C250.523 246.694 248.904 248.053 246.909 248.68L101.33 293.81C101.124 293.856 100.898 293.932 100.692 293.977ZM215.318 145.13C215.189 145.159 215.061 145.187 214.958 145.209L69.379 190.34C68.2425 190.698 67.3055 191.473 66.757 192.543C66.2085 193.613 66.0974 194.831 66.4299 195.979L94.7648 287.623C95.4984 289.986 98.0077 291.336 100.358 290.604L245.931 245.448C247.067 245.09 248.004 244.315 248.553 243.245C249.101 242.175 249.212 240.957 248.88 239.809L220.545 148.164C220.187 147.022 219.413 146.079 218.347 145.525C217.401 145.027 216.343 144.879 215.313 145.105L215.318 145.13Z" fill="#4C4C4C"/>
<path d="M187.263 34.9185L209.502 106.868C210.858 111.211 208.403 115.901 204.077 117.228L62.5464 161.119C58.2009 162.478 53.5539 159.996 52.2234 155.647L29.9843 83.6974C28.6053 79.2507 31.0748 74.5037 35.5234 73.1223L176.751 29.3245C181.174 27.9487 185.904 30.4403 187.288 34.9128L187.263 34.9185Z" fill="#F3D2CA"/>
<path d="M62.2139 162.929C59.9471 163.425 57.5817 163.102 55.4754 161.99C53.1233 160.741 51.3964 158.65 50.6289 156.132L28.3897 84.1823C27.5794 81.592 27.8478 78.8739 29.1055 76.4818C30.3632 74.0897 32.4608 72.3278 35.0429 71.5451L176.27 27.7474C178.847 26.9388 181.553 27.2144 183.936 28.4833C186.32 29.7521 188.078 31.8634 188.863 34.4594L211.102 106.409C211.875 108.953 211.627 111.64 210.389 114C209.151 116.361 207.074 118.091 204.569 118.857L63.0382 162.748C62.7548 162.81 62.5029 162.893 62.2195 162.955L62.2139 162.929ZM177.798 30.7776C177.618 30.8171 177.412 30.8622 177.231 30.9017L35.9837 74.731C34.2661 75.27 32.8505 76.4484 32.0121 78.0431C31.1736 79.6379 31.007 81.4653 31.5529 83.2181L53.792 155.168C54.3209 156.843 55.4598 158.221 57.023 159.073C58.5806 159.899 60.3741 160.076 62.0402 159.548L203.571 115.656C205.237 115.129 206.607 113.987 207.451 112.419C208.269 110.855 208.442 109.054 207.913 107.379L185.674 35.4293C185.133 33.7024 183.957 32.2776 182.368 31.4317C180.937 30.6871 179.349 30.4649 177.804 30.8035L177.798 30.7776Z" fill="#4C4C4C"/>
<path d="M75.9857 232.826C75.5736 232.916 75.1449 232.684 75.0227 232.25C74.9006 231.815 75.1189 231.333 75.5769 231.206L232.881 182.421C233.308 182.273 233.793 182.52 233.921 182.98C234.043 183.415 233.825 183.897 233.367 184.024L76.063 232.809C76.063 232.809 76.0115 232.82 75.9857 232.826Z" fill="#4C4C4C"/>
<path d="M82.7967 138.647L74.8353 141.108C74.1535 141.319 73.7721 142.046 73.9834 142.731L81.0725 165.731C81.2838 166.416 82.0078 166.801 82.6896 166.59L90.6509 164.129C91.3327 163.918 91.7142 163.192 91.5029 162.506L84.4138 139.506C84.2025 138.821 83.4785 138.436 82.7967 138.647Z" fill="#F2EAE7"/>
<path d="M85.4471 167.446C82.5879 168.072 79.653 166.381 78.7545 163.512L73.2871 145.823C72.3546 142.798 74.0516 139.577 77.0545 138.621L79.7339 137.79C81.1996 137.333 82.7442 137.483 84.0931 138.219C85.4364 138.928 86.4583 140.143 86.8846 141.596L92.352 159.285C92.8097 160.759 92.6637 162.31 91.9344 163.664C91.2309 165.012 90.0245 166.036 88.5789 166.461L85.8995 167.292C85.7449 167.326 85.5903 167.36 85.41 167.4L85.4471 167.446ZM80.9123 140.951C80.835 140.968 80.7835 140.979 80.7062 140.996L78.0268 141.827C76.7615 142.213 76.058 143.561 76.4446 144.833L81.912 162.522C82.2986 163.794 83.6419 164.503 84.9071 164.118L87.5865 163.287C88.8518 162.901 89.5553 161.553 89.1687 160.281L83.7013 142.592C83.3317 141.398 82.0972 140.691 80.8865 140.956L80.9123 140.951Z" fill="#4C4C4C"/>
<path d="M182.526 107.853L174.564 110.314C173.883 110.525 173.501 111.252 173.713 111.937L180.802 134.937C181.013 135.623 181.737 136.007 182.419 135.797L190.38 133.335C191.062 133.124 191.443 132.398 191.232 131.712L184.143 108.712C183.932 108.027 183.208 107.642 182.526 107.853Z" fill="#F2EAE7"/>
<path d="M185.121 136.549C183.807 136.837 182.443 136.647 181.225 136.019C179.882 135.309 178.86 134.094 178.434 132.641L172.966 114.952C172.034 111.927 173.731 108.706 176.734 107.75L179.413 106.919C180.879 106.462 182.424 106.612 183.772 107.348C185.116 108.058 186.138 109.272 186.564 110.726L192.031 128.414C192.489 129.888 192.343 131.44 191.614 132.793C190.91 134.141 189.704 135.165 188.258 135.591L185.579 136.422C185.424 136.456 185.27 136.489 185.089 136.529L185.121 136.549ZM180.586 110.054C180.509 110.071 180.457 110.082 180.38 110.099L177.7 110.93C176.435 111.316 175.732 112.664 176.118 113.936L181.586 131.625C181.773 132.235 182.181 132.743 182.762 133.05C183.342 133.357 183.974 133.408 184.581 133.221L187.26 132.39C187.867 132.203 188.371 131.794 188.676 131.212C188.98 130.629 189.03 129.994 188.842 129.384L183.375 111.695C183.005 110.501 181.771 109.795 180.56 110.06L180.586 110.054Z" fill="#4C4C4C"/>
<path d="M125.788 114.784C136.182 111.57 141.997 100.494 138.776 90.0434C135.555 79.5933 124.517 73.7268 114.123 76.9404C103.729 80.1539 97.9146 91.2305 101.136 101.681C104.357 112.131 115.394 117.997 125.788 114.784Z" fill="#4C4C4C"/>
<path d="M127.994 105.347L122.685 94.7875L125.708 89.2408C126.403 87.9761 126.366 86.0846 126.217 85.0319C126.146 84.5861 125.692 84.36 125.302 84.5539C124.354 85.0329 122.796 86.0526 122.138 87.3635L119.278 93.0373L107.625 94.5586C107.342 94.6206 107.136 94.9101 107.224 95.1893L107.394 95.7218C107.434 95.903 107.597 96.0302 107.794 96.0683L116.842 97.9396L114.878 101.789C114.663 102.162 114.499 102.523 114.341 102.911C114.286 103.031 114.258 103.146 114.203 103.266L110.022 103.775C109.765 103.832 109.573 104.064 109.604 104.328L109.66 104.832C109.699 105.013 109.816 105.177 110.019 105.241C110.019 105.241 114.244 105.917 114.61 106.108C115.158 106.395 117.902 109.43 117.902 109.43C118.065 109.557 118.256 109.57 118.425 109.478L118.886 109.242C119.127 109.108 119.225 108.815 119.091 108.573L117.155 104.791C117.216 104.696 117.302 104.596 117.362 104.501C117.583 104.154 117.798 103.781 117.962 103.42L120.021 99.6314L126.674 106.098C126.811 106.23 126.988 106.3 127.189 106.229L127.718 106.059C128.002 105.997 128.14 105.641 128 105.373L127.994 105.347Z" fill="#F2EAE7"/>
<path d="M131.226 43.4482L123.363 45.8763C118.123 39.209 109.129 36.1048 100.581 38.737C92.0388 41.395 86.3709 49.0406 85.7995 57.5235L77.9359 59.9515C77.4627 47.1929 85.5194 35.1708 98.2637 31.2395C111.002 27.2823 124.401 32.6237 131.226 43.4482Z" fill="#F2EAE7"/>
<path d="M76.3753 62.1929L76.3022 60.0109C75.7882 46.2029 84.6325 33.7098 97.7776 29.6365C110.923 25.5631 125.257 30.8624 132.621 42.5457L133.779 44.3815L122.758 47.7996L122.048 46.897C117.105 40.5988 108.673 37.9684 101.067 40.34C93.461 42.7116 87.9919 49.6624 87.4472 57.651L87.3706 58.7803L76.3495 62.1985L76.3753 62.1929ZM100.994 32.2425C100.247 32.4061 99.5056 32.5956 98.7756 32.8369C87.7545 36.2551 80.1252 46.2841 79.6311 57.7078L84.2542 56.261C85.3098 47.4006 91.5527 39.7919 100.1 37.1598C108.643 34.5017 118.07 37.2398 123.942 43.9585L128.565 42.5117C122.167 34.0086 111.349 29.9742 100.994 32.2425Z" fill="#4C4C4C"/>
</g>
<defs>
<clipPath id="clip0_14_115">
<rect width="229.47" height="286.277" fill="white" transform="translate(0 49.1006) rotate(-12.3553)"/>
</clipPath>
</defs>
</svg>
