<svg width="62" height="56" viewBox="0 0 62 56" fill="none" xmlns="http://www.w3.org/2000/svg">
<path d="M12.5363 0.237288C11.8035 0.522034 11.2539 1.04407 10.8875 1.70847L10.5996 2.25424V10.5119C10.5996 18.5797 10.5996 18.7695 10.8613 19.2678C11.1754 19.9322 11.7512 20.4305 12.484 20.7627L13.0859 21.0237H23.4238H33.7617V25.0102C33.7617 27.739 33.8141 29.0678 33.8926 29.2576C34.0758 29.6373 34.6254 29.8271 35.0703 29.661C35.2535 29.5898 37.5305 27.6203 40.0953 25.2712L44.8062 21H46.6645C47.7637 21 48.7059 20.9525 49.0199 20.8576C49.6742 20.6915 50.7996 19.6712 51.009 19.0542C51.1137 18.722 51.166 16.5153 51.166 10.4169V2.25424L50.8781 1.70847C50.5379 1.04407 49.6742 0.308475 49.0199 0.142373C48.6797 0.0474577 44.0734 0 30.8305 0C13.243 0 13.0859 0 12.5363 0.237288ZM48.9676 1.96949C49.2031 2.18305 49.2031 2.32542 49.2031 10.4881C49.2031 17.4644 49.177 18.8169 49.0461 19.0068C48.8891 19.1966 48.6797 19.2203 46.4027 19.2678L43.9164 19.3153L39.8074 23.0169L35.6984 26.7424V23.3729C35.6984 19.8136 35.6723 19.5763 35.1227 19.3627C34.9133 19.2678 31.668 19.2441 23.9211 19.2441C13.1645 19.2441 13.0074 19.2441 12.7719 19.0305C12.5363 18.8169 12.5363 18.6746 12.5363 10.4881C12.5363 2.30169 12.5363 2.18305 12.7719 1.94576C13.0074 1.7322 13.1645 1.7322 30.8566 1.7322C48.575 1.75593 48.732 1.75593 48.9676 1.96949Z" fill="#FF0E79"/>
<path d="M26.0674 10.5119V11.3898H27.0357H28.0041V10.5119V9.63391H27.0357H26.0674V10.5119Z" fill="#FF0E79"/>
<path d="M29.9146 10.5119V11.3898H30.8829H31.8513V10.5119V9.63391H30.8829H29.9146V10.5119Z" fill="#FF0E79"/>
<path d="M33.7881 10.5119V11.3898H34.7564H35.7248V10.5119V9.63391H34.7564H33.7881V10.5119Z" fill="#FF0E79"/>
<path d="M7.90391 19.339C6.85703 19.5763 5.8625 20.3119 5.28672 21.2373L4.86797 21.9254L4.8418 35.4508L4.81562 49H2.40781H0V50.5186V52.0136L2.19844 54.0068L4.39687 56H30.8828H57.3687L59.5672 54.0068L61.7656 52.0136V50.4949V49H59.3578H56.95L56.9238 35.522L56.8977 22.0441L56.6098 21.4983C56.034 20.3593 54.8563 19.4814 53.6 19.2915L53.0766 19.2203V20.0983V20.9525L53.5477 21.0237C54.1496 21.0949 54.6207 21.4508 54.8563 21.9254C55.0133 22.2339 55.0133 24.5356 55.0133 35.6407V48.9763H46.1148H37.2164L36.248 49.8542L35.2797 50.7322H30.8828H26.4859L25.5176 49.8542L24.5492 48.9763H15.6508H6.75234V35.6407C6.75234 24.5356 6.77852 22.2339 6.90938 21.9254C7.11875 21.4508 7.61602 21.0949 8.21797 21.0237L8.68906 20.9525V20.0983C8.68906 19.1729 8.68906 19.1729 7.90391 19.339ZM24.6801 51.6339L25.6484 52.5119H30.8828H36.1172L37.0855 51.6339L38.0539 50.7559H48.9414H59.8289V50.9932C59.8289 51.1593 59.3055 51.7051 58.1801 52.7491L56.5051 54.2678H30.8828H5.23438L3.58555 52.7729C2.43398 51.7288 1.91055 51.183 1.91055 51.0169V50.7559H12.8242H23.7117L24.6801 51.6339Z" fill="#FF0E79"/>
<path d="M20.4925 25.5322C18.3202 25.9356 17.0116 27.2169 16.5929 29.3763C16.2003 31.3457 16.5405 33.339 17.5612 34.9051C17.8491 35.3559 17.9276 35.5457 17.8229 35.6169C17.7444 35.6644 16.305 36.4237 14.63 37.3017L11.5679 38.8678V40.1966C11.5679 42.0474 11.8558 42.8542 12.7456 43.7796C13.6354 44.6813 13.1382 44.6339 22.1675 44.6339C31.1968 44.6339 30.7257 44.6813 31.5894 43.7796C32.5054 42.8779 32.7671 42.0474 32.7671 40.1966V38.8678L29.7312 37.3017C28.0562 36.4474 26.6167 35.6881 26.5382 35.6169C26.4335 35.5457 26.512 35.3322 26.7999 34.9051C28.4487 32.3661 28.2394 28.3796 26.3812 26.6949C25.2034 25.5796 22.8218 25.1288 20.4925 25.5322ZM23.921 27.2881C24.8632 27.5254 25.3081 27.8102 25.6483 28.522C25.9101 29.0203 25.9624 29.3525 26.0147 30.4203C26.1194 32.461 25.7007 33.8135 24.7585 34.7864C23.9472 35.6169 23.4237 35.8305 22.1937 35.8305C20.9636 35.8305 20.4401 35.6169 19.6288 34.7864C18.6604 33.8135 18.2679 32.461 18.3726 30.4203C18.4772 28.4034 18.9483 27.6441 20.414 27.3118C21.2776 27.0983 23.0573 27.0746 23.921 27.2881ZM20.3354 37.2305C21.6964 37.7525 23.0835 37.7051 24.4183 37.1118L25.0202 36.8271L27.9515 38.3457L30.8827 39.8644V40.8373C30.8827 41.8813 30.6472 42.5932 30.2546 42.783C29.9667 42.9254 14.3944 42.9254 14.1065 42.783C13.714 42.5932 13.5046 41.8813 13.5046 40.8373V39.8881L16.3835 38.3932C17.9538 37.5627 19.3147 36.8983 19.4194 36.922C19.5241 36.9457 19.9167 37.0881 20.3354 37.2305Z" fill="#FF0E79"/>
<path d="M48.2607 36.7559V42.878H41.9795H35.6982V43.7559V44.6339H42.9479H50.1975V37.6339V30.6339H49.2291H48.2607V36.7559Z" fill="#FF0E79"/>
<path d="M37.6353 33.2441V34.122H41.9798H46.3243V33.2441V32.3661H41.9798H37.6353V33.2441Z" fill="#FF0E79"/>
<path d="M37.6353 36.7559V37.6339H41.9798H46.3243V36.7559V35.8779H41.9798H37.6353V36.7559Z" fill="#FF0E79"/>
<path d="M37.6353 40.2441V41.122H41.9798H46.3243V40.2441V39.3661H41.9798H37.6353V40.2441Z" fill="#FF0E79"/>
</svg>
