<svg width="73" height="73" viewBox="0 0 73 73" fill="none" xmlns="http://www.w3.org/2000/svg">
<path d="M67.1633 15.3732L67.0339 14.2815L62.4648 20.075C62.4017 23.4629 61.9604 28.6193 60.2449 34.3631C58.4962 40.2131 55.7819 45.5288 52.1718 50.1643C47.8913 55.6625 42.3234 60.225 35.6041 63.7423C28.8848 60.225 23.3169 55.6625 19.0364 50.1643C15.4295 45.5321 12.7153 40.2164 10.9633 34.3631C8.5974 26.4426 8.6538 19.6337 8.78985 17.0522C18.4126 11.0595 32.6078 7.22371 35.6008 6.45389C37.6249 6.97153 44.7457 8.88944 52.1187 11.9223L55.2676 7.96698C52.6562 6.85207 49.8158 5.77035 46.7565 4.72844C40.8302 2.7143 36.354 1.63257 36.1682 1.58612L35.6008 1.45007L35.0334 1.58612C34.8442 1.63257 30.368 2.71098 24.445 4.72844C16.4383 7.45266 9.93462 10.449 5.11662 13.6344L4.17758 14.2549L4.04485 15.3732C4.00171 15.7448 3.00958 24.5612 6.24812 35.551C8.15608 42.0182 11.1391 47.9013 15.1209 53.0412C20.0883 59.4585 26.6151 64.7079 34.5224 68.6433L35.6041 69.1808L36.6891 68.6433C44.593 64.7079 51.1199 59.4585 56.0905 53.0412C60.0724 47.9013 63.0554 42.0149 64.9634 35.551C68.2019 24.5645 67.2098 15.7448 67.1666 15.3732H67.1633Z" fill="#F7BD2B"/>
<path d="M24.5745 27.8462L19.72 32.7007L35.9426 48.6413L66.5893 9.79532L61.1043 5.66418L35.2092 38.199L24.5745 27.8462Z" fill="#F7BD2B"/>
</svg>
