<svg width="245" height="266" viewBox="0 0 245 266" fill="none" xmlns="http://www.w3.org/2000/svg">
<g clip-path="url(#clip0_14_80)">
<path d="M58.6374 221.11C57.5244 220.381 56.4278 219.588 55.3649 218.745C41.2776 207.478 35.1571 188.056 38.1058 164.065C41.0393 140.284 52.5772 114.808 70.5608 92.3113C88.5443 69.8143 110.883 52.9613 133.436 44.8573C156.227 36.6891 176.509 38.3957 190.596 49.6627C204.684 60.9297 210.804 80.3509 207.855 104.342C204.922 128.123 193.384 153.599 175.401 176.096C157.417 198.593 135.078 215.446 112.525 223.55C91.4557 231.11 72.5082 230.206 58.6374 221.11ZM185.973 49.3946C172.77 40.7375 154.595 39.9239 134.313 47.2174C112.184 55.1596 90.2575 71.7203 72.5549 93.8635C54.8523 116.007 43.5038 141.044 40.6235 164.371C37.7696 187.47 43.5599 206.088 56.9498 216.776C70.3284 227.48 89.7808 229.034 111.688 221.167C133.816 213.225 155.743 196.664 173.446 174.521C191.148 152.378 202.497 127.34 205.377 104.013C208.231 80.9138 202.441 62.2961 189.051 51.6087C188.074 50.8212 187.046 50.0737 186.001 49.3887L185.973 49.3946Z" fill="#4C4C4C"/>
<path d="M60.9435 214.307C60.5095 213.998 60.1038 213.683 59.6923 213.34C47.5424 203.637 42.3316 186.451 44.9939 164.913C47.79 142.388 58.7873 118.147 75.984 96.6257C109.99 54.1368 158.887 35.0588 185.035 54.1115C185.469 54.4205 185.875 54.7354 186.286 55.0787C198.436 64.7818 203.647 81.9678 200.985 103.505C198.2 126.014 187.191 150.272 169.994 171.793C136.005 214.293 87.0799 233.377 60.9607 214.319L60.9435 214.307Z" fill="#F3C672"/>
<path d="M53.1699 145.573L55.3061 145.751C55.3516 145.756 55.3911 145.733 55.4076 145.67L56.7542 141.637C56.7879 141.586 56.7648 141.547 56.7135 141.513L54.9154 140.334C54.7955 140.255 54.7719 140.142 54.8161 140L55.4481 138.14C55.5036 137.98 55.5939 137.917 55.748 138.018L67.0302 145.759C67.15 145.837 67.1737 145.95 67.1294 146.093L66.37 148.334C66.3257 148.476 66.2242 148.556 66.0878 148.54L52.4341 147.927L52.3603 147.928C52.2635 147.889 52.2174 147.81 52.2729 147.65L52.899 145.762C52.9432 145.62 53.0447 145.54 53.1811 145.556L53.1699 145.573ZM58.335 142.625C58.3125 142.659 58.3013 142.676 58.2901 142.693L57.2592 145.759C57.248 145.777 57.2539 145.805 57.2486 145.85C57.2545 145.879 57.2888 145.901 57.3171 145.895L63.7989 146.355C63.8443 146.36 63.8556 146.343 63.878 146.309C63.8892 146.291 63.8662 146.252 63.8319 146.229L58.3864 142.659C58.3633 142.619 58.335 142.625 58.3179 142.614L58.335 142.625Z" fill="#4C4C4C"/>
<path d="M50.4889 155.114C50.5397 155.074 50.5964 155.062 50.6589 155.079L63.5932 157.274C63.6558 157.291 63.7071 157.324 63.7473 157.375C63.7875 157.426 63.7993 157.483 63.7715 157.562L63.0567 161.789C62.8291 163.108 62.315 164.116 61.4803 164.791C60.6456 165.467 59.6767 165.712 58.5283 165.521L52.7066 164.541C51.5581 164.351 50.7019 163.789 50.155 162.868C49.5969 161.964 49.4343 160.83 49.662 159.512L50.3768 155.285C50.3933 155.222 50.4269 155.171 50.4777 155.131L50.4889 155.114ZM51.9247 157.816L51.6063 159.833C51.509 160.43 51.6095 160.911 51.9366 161.346C52.2467 161.769 52.7315 162.038 53.3798 162.17L58.7127 163.074C59.3722 163.189 59.8994 163.094 60.3569 162.807C60.7973 162.509 61.0718 162.053 61.1862 161.468L61.533 159.445C61.5495 159.383 61.5265 159.343 61.4639 159.327L52.083 157.724C52.0204 157.708 51.9808 157.731 51.9702 157.822L51.9247 157.816Z" fill="#4C4C4C"/>
<path d="M48.6315 174.415L61.6567 170.385L61.7305 170.385C61.8498 170.389 61.9071 170.451 61.9083 170.599L61.9647 172.641C61.966 172.789 61.9099 172.875 61.7853 172.915L52.0934 175.634C52.0368 175.645 52.0143 175.68 52.0202 175.708C52.009 175.725 52.0433 175.748 52.1059 175.764L61.9167 177.868C62.059 177.913 62.1222 178.003 62.1347 178.133L62.1964 180.131C62.2036 180.306 62.1304 180.381 61.9597 180.342L48.71 177.059C48.5848 177.026 48.5045 176.925 48.5033 176.777L48.4409 174.706C48.4397 174.559 48.507 174.456 48.6315 174.415Z" fill="#4C4C4C"/>
<path d="M64.0976 193.215C64.0463 193.181 63.9949 193.147 63.9659 193.079L61.997 187.68C61.9681 187.612 61.9338 187.589 61.8772 187.601L58.4411 188.845C58.3732 188.874 58.3679 188.92 58.3798 188.976L59.6345 192.44C59.6634 192.508 59.6469 192.571 59.6304 192.633C59.5967 192.685 59.5631 192.736 59.4952 192.765L58.1084 193.274C58.0405 193.303 57.995 193.298 57.9265 193.253C57.8752 193.219 57.8238 193.185 57.7948 193.117L56.5401 189.653C56.5112 189.585 56.4769 189.563 56.4202 189.575L52.9163 190.848C52.8484 190.877 52.826 190.911 52.8549 190.979L54.8239 196.379C54.8528 196.447 54.8363 196.509 54.8198 196.572C54.7861 196.623 54.7525 196.674 54.6846 196.703L53.2978 197.212C53.2299 197.241 53.1844 197.236 53.1159 197.191C53.0645 197.157 53.0132 197.123 52.9954 197.038L50.2598 189.522C50.2308 189.454 50.2473 189.391 50.2639 189.329C50.2975 189.277 50.3311 189.226 50.399 189.197L62.728 184.735C62.7959 184.706 62.8414 184.711 62.9099 184.756C62.9612 184.79 63.0126 184.824 63.0303 184.909L65.766 192.425C65.795 192.493 65.7784 192.556 65.7619 192.618C65.7283 192.67 65.6946 192.721 65.6267 192.75L64.2399 193.259C64.172 193.288 64.1266 193.283 64.0581 193.238L64.0976 193.215Z" fill="#4C4C4C"/>
<path d="M59.4317 206.492C59.4199 206.436 59.4364 206.373 59.47 206.322L67.5268 195.977C67.5604 195.925 67.6283 195.896 67.685 195.885C67.7588 195.884 67.8042 195.89 67.8727 195.934L69.3756 197.116C69.4955 197.194 69.5191 197.307 69.4861 197.433L67.8772 206.87C67.8435 206.921 67.8666 206.961 67.8837 206.972C67.9179 206.994 67.9575 206.971 67.9799 206.937L73.1094 200.346C73.1431 200.295 73.211 200.266 73.2677 200.255C73.3243 200.243 73.3869 200.259 73.4554 200.304L74.9524 201.457C75.0037 201.491 75.0327 201.559 75.0445 201.615C75.0563 201.672 75.0398 201.734 75.0062 201.786L66.9494 212.131C66.9158 212.182 66.8479 212.211 66.7912 212.223C66.7174 212.223 66.672 212.218 66.6035 212.173L65.1006 210.992C64.9979 210.925 64.9571 210.8 64.9901 210.675L66.6043 201.193C66.638 201.141 66.6149 201.102 66.5978 201.09C66.5636 201.068 66.524 201.091 66.5016 201.125L61.3667 207.761C61.3331 207.813 61.2652 207.841 61.2085 207.853C61.1347 207.854 61.0893 207.848 61.0208 207.803L59.5238 206.651C59.4724 206.617 59.4435 206.549 59.4317 206.492Z" fill="#4C4C4C"/>
<path d="M87.7072 203.926C87.7586 203.96 87.7592 204.034 87.7598 204.107L87.5788 205.578C87.5623 205.641 87.5458 205.704 87.4779 205.732C87.4271 205.773 87.3704 205.784 87.2966 205.785L84.1254 205.393C84.0516 205.393 84.012 205.416 84.0239 205.473L82.668 216.69C82.6515 216.753 82.635 216.815 82.5671 216.844C82.5163 216.884 82.4596 216.896 82.3858 216.897L80.5047 216.666C80.4309 216.666 80.3795 216.633 80.3506 216.565C80.2992 216.531 80.2986 216.457 80.298 216.384L81.6538 205.166C81.6704 205.104 81.619 205.07 81.5564 205.054L78.4932 204.684C78.4306 204.667 78.368 204.651 78.3391 204.583C78.2877 204.549 78.2871 204.475 78.2865 204.401L78.4675 202.93C78.484 202.868 78.5005 202.805 78.5684 202.776C78.6192 202.736 78.6759 202.725 78.7497 202.724L87.5927 203.802C87.6552 203.819 87.7178 203.835 87.7468 203.903L87.7072 203.926Z" fill="#4C4C4C"/>
<path d="M96.8901 215.988C96.139 215.789 95.5113 215.402 95.0129 214.855C94.5145 214.308 94.1796 213.624 94.0194 212.785L92.1679 203.696C92.1561 203.639 92.1726 203.577 92.2062 203.525C92.2399 203.474 92.2907 203.434 92.3645 203.434L94.2236 203.063C94.2803 203.051 94.3541 203.051 94.4055 203.084C94.4569 203.118 94.5082 203.152 94.5088 203.225L96.384 212.428C96.514 213.051 96.8075 213.537 97.287 213.852C97.7494 214.155 98.3009 214.247 98.9415 214.129C99.582 214.011 100.051 213.707 100.365 213.228C100.679 212.749 100.771 212.198 100.641 211.575L98.7656 202.373C98.7538 202.316 98.7703 202.253 98.804 202.202C98.8376 202.151 98.8884 202.111 98.9622 202.11L100.821 201.739C100.878 201.728 100.952 201.727 101.003 201.761C101.055 201.795 101.106 201.828 101.107 201.902L102.958 210.991C103.129 211.813 103.096 212.574 102.846 213.29C102.608 213.99 102.17 214.583 101.561 215.064C100.952 215.545 100.205 215.863 99.315 216.062C98.4365 216.244 97.6187 216.221 96.8677 216.022L96.8901 215.988Z" fill="#4C4C4C"/>
<path d="M117.748 209.61L113.489 205.35C113.438 205.316 113.403 205.294 113.364 205.317L111.746 205.992C111.678 206.021 111.655 206.055 111.684 206.123L113.855 211.215C113.884 211.283 113.879 211.328 113.862 211.391C113.828 211.442 113.795 211.494 113.727 211.522L111.973 212.255C111.905 212.284 111.848 212.296 111.78 212.251C111.728 212.217 111.677 212.184 111.648 212.116L106.507 200.014C106.478 199.946 106.484 199.901 106.5 199.838C106.534 199.787 106.568 199.735 106.635 199.707L111.037 197.848C111.756 197.537 112.47 197.418 113.152 197.498C113.845 197.562 114.461 197.818 114.992 198.24C115.523 198.662 115.954 199.238 116.249 199.945C116.591 200.731 116.688 201.48 116.529 202.207C116.382 202.918 116.04 203.55 115.488 204.093C115.444 204.161 115.421 204.196 115.49 204.241L119.982 208.556C119.999 208.567 120.033 208.589 120.045 208.646C120.08 208.742 120.035 208.811 119.899 208.868L118.066 209.647C117.93 209.705 117.822 209.683 117.714 209.587L117.748 209.61ZM109.415 200.771L110.926 204.33C110.955 204.397 111 204.403 111.068 204.374L113.065 203.531C113.608 203.3 113.963 202.946 114.147 202.48C114.33 202.013 114.309 201.485 114.06 200.931C113.823 200.359 113.462 199.976 112.989 199.764C112.516 199.552 112.017 199.566 111.473 199.797L109.476 200.64C109.408 200.669 109.386 200.703 109.415 200.771Z" fill="#4C4C4C"/>
<path d="M127.695 190.966C127.662 191.018 127.628 191.069 127.594 191.12L122.691 194.117C122.64 194.157 122.635 194.203 122.647 194.259L124.551 197.367C124.592 197.418 124.637 197.423 124.688 197.383L127.834 195.46C127.885 195.42 127.959 195.419 128.022 195.436C128.084 195.452 128.136 195.486 128.176 195.537L128.941 196.797C128.981 196.848 128.982 196.921 128.965 196.984C128.949 197.046 128.898 197.086 128.864 197.138L125.718 199.061C125.667 199.101 125.662 199.147 125.674 199.203L127.624 202.39C127.664 202.441 127.71 202.446 127.761 202.406L132.664 199.409C132.715 199.369 132.789 199.369 132.851 199.385C132.914 199.402 132.965 199.435 133.005 199.486L133.771 200.746C133.811 200.797 133.812 200.871 133.795 200.933C133.762 200.985 133.728 201.036 133.694 201.087L126.864 205.267C126.814 205.307 126.74 205.307 126.677 205.291C126.615 205.274 126.563 205.241 126.523 205.19L119.664 193.991C119.624 193.94 119.623 193.866 119.64 193.804C119.673 193.752 119.707 193.701 119.741 193.65L126.57 189.47C126.621 189.43 126.695 189.43 126.757 189.446C126.82 189.463 126.871 189.497 126.912 189.547L127.677 190.807C127.717 190.858 127.718 190.932 127.701 190.995L127.695 190.966Z" fill="#4C4C4C"/>
<path d="M153.324 170.963L140.996 126.316L156.836 107.574C161.34 102.31 162.29 93.4675 162.49 90.8841C162.588 89.652 162.073 88.4583 161.141 87.676C160.181 86.8997 158.912 86.6306 157.712 86.9682C155.214 87.6782 146.748 90.3938 142.489 95.8433L127.295 115.131L81.0893 112.03C80.1576 111.958 79.2408 112.31 78.582 112.979C77.912 113.664 77.5845 114.575 77.6833 115.544L77.8998 117.716C78.0234 118.947 78.8325 119.991 79.9998 120.414L94.7939 125.786C94.8453 125.819 94.9079 125.836 94.9592 125.87L110.247 136.799L102.751 146.289C101.699 147.482 100.688 148.801 99.656 150.3C99.5326 150.488 99.4093 150.677 99.2747 150.882L83.209 149.69C81.4537 149.566 79.9259 150.888 79.7757 152.648L79.6503 154.669C79.5472 155.947 80.2329 157.179 81.3732 157.756L92.5829 163.589C91.9827 165.177 91.5296 166.69 91.2175 168.099C90.9054 169.509 91.394 170.93 92.497 171.824C92.5998 171.892 92.7085 171.987 92.8112 172.055C93.8729 172.751 95.225 172.855 96.4128 172.313C97.7477 171.696 99.1268 170.937 100.556 170.065L108.517 179.883C109.331 180.881 110.657 181.286 111.887 180.943L113.841 180.39C115.546 179.918 116.536 178.146 116.062 176.441L111.677 160.946C111.835 160.781 111.992 160.615 112.15 160.449C113.355 159.209 114.474 157.913 115.446 156.618L123.267 147.341L137.032 160.109C137.083 160.142 137.123 160.193 137.152 160.261L145.369 173.647C146.002 174.698 147.222 175.302 148.436 175.168L150.592 174.943C151.534 174.852 152.375 174.352 152.92 173.559C153.435 172.772 153.621 171.818 153.369 170.895L153.324 170.963Z" fill="#4C4C4C"/>
<path d="M179.753 64.295L178.965 67.887C178.91 68.1201 178.992 68.3692 179.146 68.544L181.672 71.2274C182.09 71.6727 181.812 72.3954 181.205 72.4621L177.541 72.8228C177.308 72.8415 177.088 72.9906 176.97 73.207L175.203 76.4258C174.9 76.9613 174.139 76.927 173.891 76.3726L172.404 73.001C172.3 72.7861 172.117 72.6171 171.873 72.5791L168.267 71.8782C167.664 71.752 167.465 71.01 167.928 70.6038L170.684 68.1555C170.858 68.0011 170.953 67.745 170.934 67.5125L170.484 63.8668C170.417 63.2601 171.066 62.8299 171.591 63.1497L174.774 65.0169C174.98 65.1516 175.247 65.1554 175.461 65.0517L178.787 63.4904C179.341 63.2424 179.958 63.7204 179.816 64.3116L179.753 64.295Z" fill="#4C4C4C"/>
<path d="M128.25 75.0609L127.462 78.6529C127.407 78.886 127.489 79.1351 127.643 79.3099L130.169 81.9932C130.587 82.4386 130.309 83.1612 129.702 83.228L126.038 83.5887C125.805 83.6073 125.585 83.7564 125.467 83.9729L123.7 87.1916C123.398 87.7272 122.636 87.6929 122.388 87.1385L120.901 83.7668C120.797 83.5519 120.614 83.383 120.37 83.345L116.764 82.6441C116.161 82.5178 115.962 81.7759 116.425 81.3697L119.181 78.9214C119.356 78.767 119.45 78.5109 119.431 78.2784L118.981 74.6327C118.914 74.026 119.563 73.5958 120.088 73.9155L123.271 75.7827C123.477 75.9175 123.744 75.9213 123.959 75.8176L127.284 74.2562C127.838 74.0083 128.456 74.4863 128.313 75.0775L128.25 75.0609Z" fill="#4C4C4C"/>
<path d="M180.581 116.883L179.793 120.475C179.738 120.708 179.82 120.957 179.975 121.132L182.5 123.815C182.919 124.261 182.641 124.983 182.034 125.05L178.369 125.411C178.136 125.429 177.916 125.578 177.799 125.795L176.031 129.014C175.729 129.549 174.968 129.515 174.719 128.961L173.232 125.589C173.128 125.374 172.945 125.205 172.701 125.167L169.096 124.466C168.493 124.34 168.294 123.598 168.756 123.192L171.512 120.743C171.687 120.589 171.781 120.333 171.762 120.1L171.312 116.455C171.245 115.848 171.894 115.418 172.419 115.738L175.603 117.605C175.808 117.739 176.075 117.743 176.29 117.64L179.615 116.078C180.17 115.83 180.787 116.308 180.644 116.899L180.581 116.883Z" fill="#4C4C4C"/>
</g>
<defs>
<clipPath id="clip0_14_80">
<rect width="146.229" height="220.886" fill="white" transform="translate(121.947 0.760498) rotate(33.2529)"/>
</clipPath>
</defs>
</svg>
