<svg width="207" height="258" viewBox="0 0 207 258" fill="none" xmlns="http://www.w3.org/2000/svg">
<g clip-path="url(#clip0_14_158)">
<path d="M132.592 254.082C130.071 254.082 127.597 253.342 125.48 251.908C111.802 242.616 85.1835 223.552 60.3492 200.261C29.4729 171.259 11.1564 144.982 5.9231 122.144C-6.06587 69.9467 26.4756 17.6778 78.4516 5.66166C103.643 -0.167232 129.571 4.20443 151.48 17.9644C173.388 31.7244 188.66 53.2244 194.464 78.5228C199.697 101.361 194.702 133.037 179.573 172.669C167.417 204.537 151.765 233.371 143.535 247.728C141.774 250.786 138.825 252.983 135.423 253.772C134.495 253.987 133.544 254.082 132.592 254.082ZM100.36 8.64777C93.4854 8.64777 86.5632 9.4361 79.6886 11.0128C30.6622 22.3839 -0.0238101 71.6667 11.2753 120.902C23.074 172.263 104.023 230.671 128.548 247.322C130.214 248.444 132.212 248.827 134.162 248.373C136.113 247.919 137.754 246.701 138.753 244.957C153.549 219.181 200.887 131.102 189.088 79.7172C183.617 55.8761 169.225 35.5944 148.554 22.5989C133.853 13.3778 117.249 8.62388 100.336 8.62388L100.36 8.64777Z" fill="#4C4C4C"/>
<path d="M132.545 242.401C132.354 242.401 132.164 242.353 131.974 242.209C107.901 225.846 28.5214 168.679 17.2461 119.516C12.1317 97.2756 15.9615 74.3661 28.0219 55.0161C40.0822 35.6661 58.922 22.1689 81.0683 17.0567C87.3958 15.5994 93.8422 14.8589 100.265 14.8589C119.176 14.8589 137.849 21.3567 152.812 33.1817C168.226 45.3411 178.693 61.92 183.093 81.1506C194.369 130.314 147.935 216.624 133.425 241.923C133.163 242.377 132.711 242.448 132.545 242.448V242.401Z" fill="#F3C672"/>
<path d="M151.012 151.352C179.076 123.169 179.076 77.4745 151.012 49.291C122.948 21.1076 77.4475 21.1076 49.3835 49.2911C21.3194 77.4745 21.3194 123.169 49.3834 151.352C77.4475 179.536 122.948 179.536 151.012 151.352Z" fill="#F2EAE7"/>
<path d="M56.7335 97.5622L57.233 99.7839C57.2806 100.023 57.2093 100.166 56.9714 100.214L51.4289 101.504C51.3337 101.504 51.3099 101.576 51.3337 101.671L56.115 122.526C56.1626 122.765 56.0674 122.908 55.8534 122.956L53.2367 123.553C52.9988 123.601 52.8561 123.529 52.8085 123.291L48.0272 102.436C48.0272 102.34 47.9559 102.316 47.8607 102.34L42.5561 103.558C42.3182 103.606 42.1755 103.534 42.1279 103.296L41.6284 101.074C41.5808 100.835 41.6521 100.692 41.89 100.644L56.3529 97.2994C56.5908 97.2516 56.7335 97.3472 56.7811 97.5622H56.7335Z" fill="#4C4C4C"/>
<path d="M78.8084 117.342L72.3857 107.882C72.3382 107.811 72.2906 107.787 72.2192 107.811L68.5559 108.647C68.4608 108.647 68.437 108.718 68.4608 108.814L70.8158 119.11C70.8633 119.349 70.7682 119.492 70.5541 119.54L67.9374 120.137C67.6996 120.185 67.5568 120.113 67.5093 119.875L62.0857 96.2962C62.0381 96.0574 62.1095 95.914 62.3474 95.8662L70.0783 94.0746C72.0051 93.6207 73.7178 93.9073 75.1689 94.9107C76.6437 95.914 77.5952 97.4429 78.071 99.4974C78.4278 101.05 78.3802 102.46 77.9045 103.702C77.4525 104.968 76.6199 105.971 75.4781 106.688C75.4068 106.736 75.4068 106.783 75.4543 106.879L82.1149 116.435L82.1862 116.554C82.2338 116.745 82.1387 116.865 81.9484 116.912L79.2604 117.533C79.0701 117.581 78.9273 117.533 78.8084 117.342ZM66.0344 98.1835L67.8185 105.947C67.8185 106.043 67.8899 106.067 67.985 106.043L72.1479 105.087C73.1945 104.848 73.9795 104.275 74.479 103.391C74.9548 102.507 75.0737 101.48 74.7883 100.262C74.5028 99.0435 73.9557 98.1357 73.1469 97.5385C72.3382 96.9412 71.3867 96.774 70.3162 97.0368L66.1534 97.9924C66.0582 97.9924 66.0344 98.064 66.0582 98.1596L66.0344 98.1835Z" fill="#4C4C4C"/>
<path d="M100.336 112.326L98.4094 108.551C98.4094 108.479 98.3381 108.456 98.2191 108.479L90.6071 110.247C90.5119 110.247 90.4644 110.319 90.4644 110.391L90.3454 114.643C90.3692 114.858 90.2741 114.977 90.0362 115.049L87.3482 115.67C87.2292 115.694 87.1341 115.67 87.0627 115.622C86.9914 115.574 86.9438 115.479 86.9438 115.359L87.9191 90.3238C87.9191 90.1088 88.0142 89.9655 88.2283 89.9177L91.4634 89.1772C91.6775 89.1294 91.8203 89.2011 91.9154 89.3922L103.738 111.466L103.785 111.561C103.833 111.752 103.738 111.872 103.5 111.919L100.764 112.541C100.55 112.588 100.408 112.517 100.312 112.326H100.336ZM90.5357 107.404C90.5833 107.428 90.6309 107.428 90.6784 107.428L96.887 105.995C96.9346 105.995 96.9584 105.947 97.006 105.923C97.0297 105.876 97.0297 105.852 97.006 105.828L91.0115 94.0744C90.9877 94.0266 90.9401 94.0266 90.9163 94.0266C90.9163 94.0266 90.8687 94.0505 90.8687 94.1222L90.5119 107.333C90.5119 107.357 90.5119 107.381 90.5595 107.404H90.5357Z" fill="#4C4C4C"/>
<path d="M110.993 109.841L99.4085 87.72L99.361 87.6244C99.3134 87.4333 99.4085 87.3139 99.6464 87.2661L102.477 86.6211C102.715 86.5733 102.858 86.6211 102.929 86.8361L111.683 104.371C111.731 104.442 111.754 104.466 111.778 104.466C111.778 104.466 111.826 104.418 111.826 104.347L112.04 84.7339C112.04 84.5189 112.135 84.3755 112.349 84.3277L115.085 83.7066C115.204 83.6827 115.299 83.7066 115.37 83.7544C115.441 83.8022 115.489 83.8978 115.489 84.0172L114.656 109.005C114.656 109.22 114.561 109.363 114.347 109.411L111.493 110.08C111.279 110.128 111.136 110.056 111.041 109.865L110.993 109.841Z" fill="#4C4C4C"/>
<path d="M134.567 82.2017L124.576 84.5189C124.481 84.5189 124.457 84.5905 124.481 84.6861L126.193 92.1633C126.193 92.2589 126.265 92.2828 126.36 92.2589L132.949 90.73C133.187 90.6822 133.33 90.7778 133.377 90.9928L133.877 93.1666C133.924 93.4055 133.829 93.5489 133.615 93.5966L127.026 95.1255C126.931 95.1255 126.907 95.1972 126.931 95.2928L128.667 102.889C128.667 102.985 128.739 103.009 128.834 102.985L138.825 100.668C139.062 100.62 139.205 100.692 139.253 100.931L139.752 103.104C139.8 103.343 139.705 103.487 139.491 103.534L126.384 106.568C126.146 106.616 126.003 106.544 125.956 106.306L120.556 82.7511C120.508 82.5122 120.58 82.3689 120.817 82.3211L133.924 79.2872C134.162 79.2394 134.305 79.335 134.353 79.55L134.852 81.7239C134.9 81.9628 134.828 82.1061 134.59 82.1539L134.567 82.2017Z" fill="#4C4C4C"/>
<path d="M145.438 101.838L140.038 78.2839C139.99 78.045 140.062 77.9017 140.299 77.8539L142.916 77.2567C143.154 77.2089 143.297 77.3045 143.344 77.5195L148.149 98.3984C148.149 98.4939 148.221 98.5178 148.316 98.4939L158.116 96.2245C158.354 96.1767 158.497 96.2484 158.545 96.4872L159.044 98.6611C159.092 98.9 158.997 99.0434 158.782 99.0911L145.89 102.077C145.652 102.125 145.509 102.053 145.461 101.814L145.438 101.838Z" fill="#4C4C4C"/>
</g>
<defs>
<clipPath id="clip0_14_158">
<rect width="207" height="258" fill="white"/>
</clipPath>
</defs>
</svg>
