<svg width="199" height="150" viewBox="0 0 199 150" fill="none" xmlns="http://www.w3.org/2000/svg">
<path d="M17.2567 121.243C12.4147 120.626 8.96967 116.197 9.58881 111.373L19.0824 37.0136C19.5428 33.423 22.2257 30.4176 25.7501 29.5476L106.049 9.88614C107.112 9.63306 108.192 9.56979 109.287 9.69633C110.367 9.83869 111.415 10.1709 112.367 10.677L185.172 49.7628C188.379 51.4869 190.221 55.0459 189.76 58.6524L180.267 132.996C179.648 137.82 175.203 141.253 170.36 140.636L17.2567 121.212V121.243Z" fill="#F3C672"/>
<path d="M51.0829 86.3559L31.6197 83.8717C30.9675 83.7884 30.371 84.2478 30.2874 84.8977L27.7941 104.29C27.7106 104.94 28.1716 105.534 28.8239 105.617L48.287 108.102C48.9393 108.185 49.5357 107.726 49.6193 107.076L52.1126 87.6834C52.1961 87.0335 51.7351 86.4392 51.0829 86.3559Z" fill="#4C4C4C"/>
<path d="M43.3879 101.977L42.8164 95.2072L45.6581 92.8978C46.309 92.3759 46.69 91.3635 46.8488 90.7624C46.9123 90.5252 46.7218 90.2879 46.4678 90.3037C45.8486 90.367 44.785 90.5568 44.1658 91.1104L41.4035 93.5147L34.7992 91.8064C34.6246 91.759 34.4658 91.8855 34.45 92.0595L34.4182 92.3759C34.4182 92.4866 34.4658 92.5815 34.5611 92.6448L39.0221 95.5869L37.1329 97.2161C36.9424 97.3584 36.7678 97.5324 36.5932 97.6906C36.5455 97.7381 36.4979 97.8013 36.4503 97.8488L34.0848 97.2161C33.9261 97.1686 33.7832 97.2636 33.7356 97.4217L33.6562 97.7064C33.6244 97.8172 33.6562 97.9279 33.7514 98.007C33.7514 98.007 35.8788 99.2724 36.0216 99.4464C36.2598 99.7153 37.0694 101.93 37.0694 101.93C37.1171 102.025 37.2282 102.088 37.3393 102.072L37.641 102.041C37.7997 102.041 37.9108 101.882 37.895 101.74L37.6727 99.3199C37.7362 99.2882 37.7838 99.2408 37.8473 99.2091C38.0378 99.0668 38.2284 98.9244 38.4189 98.7662L40.3557 97.1845L42.5306 102.056C42.5624 102.151 42.6576 102.23 42.7688 102.23L43.0863 102.262C43.2609 102.262 43.4038 102.135 43.3879 101.961V101.977Z" fill="#F3C672"/>
<path d="M164.211 121.487L166.704 102.095C166.787 101.445 166.326 100.85 165.674 100.767L146.211 98.283C145.559 98.1998 144.962 98.6591 144.879 99.309L142.385 118.701C142.302 119.351 142.763 119.946 143.415 120.029L162.878 122.513C163.531 122.596 164.127 122.137 164.211 121.487Z" fill="#4C4C4C"/>
<path d="M148.627 113.841L155.422 113.271L157.739 116.103C158.263 116.751 159.279 117.131 159.883 117.289C160.121 117.352 160.359 117.162 160.343 116.909C160.28 116.292 160.089 115.233 159.533 114.616L157.12 111.863L158.819 105.299C158.867 105.125 158.74 104.967 158.565 104.951L158.247 104.919C158.136 104.919 158.041 104.967 157.978 105.062L155.025 109.507L153.39 107.624C153.247 107.434 153.072 107.26 152.913 107.086C152.866 107.039 152.802 106.991 152.755 106.944L153.374 104.603C153.421 104.445 153.326 104.302 153.167 104.255L152.882 104.176C152.77 104.144 152.659 104.176 152.58 104.271C152.58 104.271 151.31 106.39 151.135 106.533C150.865 106.77 148.643 107.577 148.643 107.577C148.548 107.624 148.484 107.735 148.5 107.846L148.532 108.146C148.532 108.304 148.69 108.415 148.833 108.399L151.262 108.178C151.31 108.225 151.342 108.289 151.389 108.352C151.532 108.542 151.675 108.731 151.834 108.921L153.421 110.851L148.532 113.018C148.436 113.05 148.357 113.145 148.357 113.255L148.325 113.572C148.325 113.746 148.452 113.888 148.627 113.872V113.841Z" fill="#F3C672"/>
<path d="M170.662 72.2715C170.662 72.2715 170.646 72.2715 170.63 72.2715L34.1801 54.9668C34.0372 54.951 33.9261 54.8086 33.9419 54.6663C33.9578 54.5239 34.0848 54.4132 34.2436 54.429L170.694 71.7336C170.837 71.7495 170.948 71.8918 170.932 72.0342C170.916 72.1607 170.805 72.2715 170.662 72.2715Z" fill="#4C4C4C"/>
<path d="M167.789 94.7959C167.789 94.7959 167.773 94.7959 167.757 94.7959L31.3066 77.4912C31.1637 77.4754 31.0526 77.333 31.0685 77.1907C31.0843 77.0483 31.2113 76.9376 31.3701 76.9534L167.82 94.2581C167.963 94.2739 168.074 94.4162 168.059 94.5586C168.043 94.6851 167.932 94.7959 167.789 94.7959Z" fill="#4C4C4C"/>
<path d="M171.504 147.469C170.837 147.469 170.17 147.422 169.503 147.343L16.3994 127.918C12.2559 127.396 8.57277 125.293 6.0168 122.002C3.46084 118.712 2.34955 114.631 2.87345 110.519L12.367 36.1593C13.1767 29.8164 17.9076 24.5333 24.1308 23.0148L104.445 3.36908C108.208 2.45165 112.161 2.942 115.574 4.77686L188.379 43.8626C194.031 46.8996 197.27 53.1951 196.46 59.5222L186.966 133.866C186.442 137.994 184.331 141.664 181.029 144.211C178.267 146.346 174.933 147.469 171.504 147.469ZM108.176 5.74174C107.16 5.74174 106.128 5.86829 105.128 6.10555L24.8293 25.7671C19.7333 27.0167 15.8596 31.3349 15.1929 36.5231L5.69929 110.883C5.27065 114.252 6.17556 117.589 8.27113 120.294C10.3667 122.983 13.3831 124.707 16.7646 125.134L169.868 144.559C173.25 144.986 176.6 144.084 179.298 141.996C181.997 139.908 183.728 136.903 184.156 133.534L193.65 59.19C194.317 54.0018 191.65 48.8452 187.03 46.3776L114.24 7.27607C112.367 6.26373 110.287 5.75756 108.176 5.75756V5.74174Z" fill="#4C4C4C"/>
</svg>
