<svg width="260" height="324" viewBox="0 0 260 324" fill="none" xmlns="http://www.w3.org/2000/svg">
<path d="M223.193 50.319L60.7109 34.6424L36.9016 282.406L199.384 298.083L223.193 50.319Z" fill="#B9D2C4"/>
<path d="M215.539 323.67C215.359 323.67 215.15 323.67 214.97 323.67L210.24 323.22C207.665 322.98 205.539 321.15 204.97 318.69C204.551 316.98 203.114 315.72 201.347 315.54C199.581 315.36 197.934 316.35 197.186 317.94C196.138 320.25 193.713 321.63 191.138 321.36L189.012 321.15C186.437 320.91 184.311 319.08 183.743 316.62C183.323 314.91 181.886 313.65 180.12 313.47C178.353 313.29 176.707 314.28 175.958 315.87C174.91 318.18 172.485 319.56 169.91 319.29L167.784 319.08C165.21 318.84 163.084 317.01 162.515 314.55C162.096 312.84 160.659 311.58 158.892 311.4C157.156 311.25 155.479 312.21 154.731 313.8C153.683 316.11 151.257 317.49 148.683 317.22L146.557 317.01C143.982 316.77 141.856 314.94 141.287 312.48C140.868 310.77 139.431 309.51 137.665 309.33C135.928 309.15 134.251 310.14 133.503 311.73C132.455 314.04 130.03 315.42 127.455 315.15L125.329 314.94C122.754 314.7 120.629 312.87 120.06 310.41C119.641 308.7 118.204 307.44 116.437 307.26C114.671 307.08 113.024 308.07 112.275 309.66C111.228 311.97 108.802 313.35 106.228 313.08L104.102 312.87C101.527 312.63 99.4012 310.8 98.8323 308.34C98.4132 306.63 96.9761 305.37 95.2096 305.19C93.4731 305.01 91.7964 305.97 91.0479 307.59C90 309.9 87.5749 311.28 85 311.01L82.8743 310.8C80.2994 310.56 78.1737 308.73 77.6048 306.27C77.1856 304.56 75.7485 303.3 73.982 303.12C72.2156 302.97 70.5689 303.93 69.8204 305.52C68.7725 307.83 66.3473 309.21 63.7725 308.94L61.6467 308.73C59.0719 308.49 56.9461 306.66 56.3772 304.2C55.9581 302.49 54.521 301.23 52.7545 301.05C50.988 300.87 49.3413 301.86 48.5928 303.45C47.5449 305.76 45.1198 307.14 42.5449 306.87L40.4192 306.66C37.8443 306.42 35.7186 304.59 35.1497 302.13C34.7305 300.42 33.2934 299.16 31.5269 298.98C29.7904 298.8 28.1138 299.79 27.3653 301.38C26.3174 303.69 23.8922 305.07 21.3174 304.8L16.5868 304.35C14.9701 304.2 13.5329 303.42 12.485 302.16C11.4671 300.9 10.988 299.34 11.1377 297.72L11.5868 292.98C11.8263 290.4 13.6527 288.27 16.1078 287.7C17.8144 287.28 19.0719 285.84 19.2515 284.07C19.4311 282.3 18.4431 280.65 16.8563 279.9C14.5509 278.85 13.1737 276.42 13.4431 273.84L13.6527 271.71C13.8922 269.13 15.7186 267 18.1737 266.43C19.8802 266.01 21.1377 264.57 21.3174 262.8C21.497 261.03 20.509 259.38 18.9222 258.63C16.6168 257.58 15.2395 255.15 15.509 252.57L15.7186 250.44C15.9581 247.86 17.7844 245.73 20.2395 245.16C21.9461 244.74 23.2036 243.3 23.3832 241.53C23.5629 239.76 22.5749 238.11 20.988 237.36C18.6826 236.31 17.3054 233.88 17.5749 231.3L17.7844 229.17C18.024 226.59 19.8503 224.46 22.3054 223.89C24.012 223.47 25.2695 222.03 25.4491 220.26C25.6287 218.49 24.6407 216.84 23.0539 216.09C20.7485 215.04 19.3713 212.61 19.6407 210.03L19.8503 207.9C20.0898 205.32 21.9162 203.19 24.3713 202.62C26.0778 202.2 27.3353 200.76 27.515 198.99C27.6946 197.22 26.7066 195.57 25.1198 194.82C22.8144 193.77 21.4371 191.34 21.7066 188.76L21.9162 186.63C22.1557 184.05 23.982 181.92 26.4371 181.35C28.1437 180.93 29.4012 179.49 29.5808 177.72C29.7605 175.95 28.7725 174.3 27.1856 173.55C24.8802 172.5 23.503 170.07 23.7725 167.49L23.982 165.36C24.2216 162.78 26.0479 160.65 28.503 160.08C30.2096 159.66 31.4671 158.22 31.6467 156.45C31.8263 154.68 30.8383 153.03 29.2515 152.28C26.9461 151.23 25.5689 148.8 25.8383 146.22L26.0479 144.09C26.2874 141.51 28.1138 139.38 30.5689 138.81C32.2754 138.39 33.5329 136.95 33.7126 135.18C33.8922 133.41 32.9042 131.76 31.3174 131.01C29.012 129.96 27.6347 127.53 27.9042 124.95L28.1138 122.82C28.3533 120.24 30.1796 118.11 32.6347 117.54C34.3413 117.12 35.5988 115.68 35.7784 113.91C35.9581 112.14 34.9701 110.49 33.3832 109.74C31.0778 108.69 29.7006 106.26 29.9701 103.68L30.1796 101.55C30.4192 98.97 32.2455 96.84 34.7006 96.27C36.4072 95.85 37.6647 94.41 37.8443 92.64C38.024 90.87 37.0359 89.22 35.4491 88.47C33.1437 87.42 31.7665 84.99 32.0359 82.41L32.2455 80.28C32.485 77.7 34.3114 75.57 36.7665 75C38.4731 74.58 39.7305 73.14 39.9102 71.37C40.0898 69.6 39.1018 67.95 37.515 67.2C35.2096 66.15 33.8323 63.72 34.1018 61.14L34.3114 59.01C34.5509 56.43 36.3772 54.3 38.8323 53.73C40.5389 53.31 41.7964 51.87 41.976 50.1C42.1557 48.33 41.1677 46.68 39.5808 45.93C37.2754 44.88 35.8982 42.45 36.1677 39.87L36.3772 37.74C36.6168 35.16 38.4431 33.03 40.8982 32.46C42.6048 32.04 43.8623 30.6 44.0419 28.83C44.2216 27.06 43.2335 25.41 41.6467 24.66C39.3413 23.61 37.9641 21.18 38.2335 18.6L38.6826 13.86C39.012 10.53 41.976 8.09998 45.2695 8.39998L50 8.84998C52.5749 9.08998 54.7006 10.92 55.2695 13.38C55.6886 15.09 57.1257 16.35 58.8922 16.53C60.6587 16.71 62.3054 15.72 63.0539 14.13C64.1018 11.82 66.5269 10.44 69.1018 10.71L71.2275 10.92C73.8024 11.16 75.9281 12.99 76.497 15.45C76.9162 17.16 78.3533 18.42 80.1198 18.6C81.8862 18.78 83.5329 17.79 84.2814 16.2C85.3293 13.89 87.7545 12.51 90.3293 12.78L92.4551 12.99C95.0299 13.23 97.1557 15.06 97.7245 17.52C98.1437 19.23 99.5808 20.49 101.347 20.67C103.114 20.85 104.76 19.86 105.509 18.27C106.557 15.96 108.982 14.58 111.557 14.85L113.683 15.06C116.257 15.3 118.383 17.13 118.952 19.59C119.371 21.3 120.808 22.56 122.575 22.74C124.341 22.92 125.988 21.93 126.737 20.34C127.784 18.03 130.21 16.65 132.784 16.92L134.91 17.13C137.485 17.37 139.611 19.2 140.18 21.66C140.599 23.37 142.036 24.63 143.802 24.81C145.569 24.99 147.216 24 147.964 22.41C149.012 20.1 151.437 18.72 154.012 18.99L156.138 19.2C158.713 19.44 160.838 21.27 161.407 23.73C161.826 25.44 163.263 26.7 165.03 26.88C166.766 27.06 168.443 26.07 169.192 24.48C170.24 22.17 172.665 20.79 175.24 21.06L177.365 21.27C179.94 21.51 182.066 23.34 182.635 25.8C183.054 27.51 184.491 28.77 186.257 28.95C188.024 29.13 189.671 28.14 190.419 26.55C191.467 24.24 193.892 22.86 196.467 23.13L198.593 23.34C201.168 23.58 203.293 25.41 203.862 27.87C204.281 29.58 205.719 30.84 207.485 31.02C209.251 31.2 210.898 30.21 211.647 28.62C212.695 26.31 215.12 24.93 217.695 25.2L219.82 25.41C222.395 25.65 224.521 27.48 225.09 29.94C225.509 31.65 226.946 32.91 228.713 33.09C230.479 33.27 232.126 32.28 232.874 30.69C233.922 28.38 236.347 27 238.922 27.27L243.653 27.72C245.269 27.87 246.707 28.65 247.754 29.91C248.772 31.17 249.251 32.73 249.102 34.35L248.653 39.09C248.413 41.67 246.587 43.8 244.132 44.37C242.425 44.79 241.168 46.23 240.988 48C240.808 49.77 241.796 51.42 243.383 52.17C245.689 53.22 247.066 55.65 246.796 58.23L246.587 60.36C246.347 62.94 244.521 65.07 242.066 65.64C240.359 66.06 239.102 67.5 238.922 69.27C238.743 71.04 239.731 72.69 241.317 73.44C243.623 74.49 245 76.92 244.731 79.5L244.521 81.63C244.281 84.21 242.455 86.34 240 86.91C238.293 87.33 237.036 88.77 236.856 90.54C236.677 92.31 237.665 93.96 239.251 94.71C241.557 95.76 242.934 98.19 242.665 100.77L242.455 102.9C242.216 105.48 240.389 107.61 237.934 108.18C236.228 108.6 234.97 110.04 234.79 111.81C234.611 113.58 235.599 115.23 237.186 115.98C239.491 117.03 240.868 119.46 240.599 122.04L240.389 124.17C240.15 126.75 238.323 128.88 235.868 129.45C234.162 129.87 232.904 131.31 232.725 133.08C232.545 134.85 233.533 136.5 235.12 137.25C237.425 138.3 238.802 140.73 238.533 143.31L238.323 145.44C238.084 148.02 236.257 150.15 233.802 150.72C232.096 151.14 230.838 152.58 230.659 154.35C230.479 156.12 231.467 157.77 233.054 158.52C235.359 159.57 236.737 162 236.467 164.58L236.257 166.71C236.018 169.29 234.192 171.42 231.737 171.99C230.03 172.41 228.772 173.85 228.593 175.62C228.413 177.39 229.401 179.04 230.988 179.79C233.293 180.84 234.671 183.27 234.401 185.85L234.192 187.98C233.952 190.56 232.126 192.69 229.671 193.26C227.964 193.68 226.707 195.12 226.527 196.89C226.347 198.66 227.335 200.31 228.922 201.06C231.228 202.11 232.605 204.54 232.335 207.12L232.126 209.25C231.886 211.83 230.06 213.96 227.605 214.53C225.898 214.95 224.641 216.39 224.461 218.16C224.281 219.93 225.269 221.58 226.856 222.33C229.162 223.38 230.539 225.81 230.269 228.39L230.06 230.52C229.82 233.1 227.994 235.23 225.539 235.8C223.832 236.22 222.575 237.66 222.395 239.43C222.216 241.2 223.204 242.85 224.79 243.6C227.096 244.65 228.473 247.08 228.204 249.66L227.994 251.79C227.754 254.37 225.928 256.5 223.473 257.07C221.766 257.49 220.509 258.93 220.329 260.7C220.15 262.47 221.138 264.12 222.725 264.87C225.03 265.92 226.407 268.35 226.138 270.93L225.928 273.06C225.689 275.64 223.862 277.77 221.407 278.34C219.701 278.76 218.443 280.2 218.263 281.97C218.084 283.74 219.072 285.39 220.659 286.14C222.964 287.19 224.341 289.62 224.072 292.2L223.862 294.33C223.623 296.91 221.796 299.04 219.341 299.61C217.635 300.03 216.377 301.47 216.198 303.24C216.018 305.01 217.006 306.66 218.593 307.41C220.898 308.46 222.275 310.89 222.006 313.47L221.557 318.21C221.257 321.33 218.623 323.7 215.539 323.7V323.67ZM200.928 310.17C201.228 310.17 201.527 310.17 201.826 310.2C205.838 310.59 209.132 313.47 210.09 317.37C210.15 317.61 210.419 317.82 210.719 317.85L215.449 318.3C215.868 318.33 216.228 318.03 216.287 317.61L216.737 312.87C216.737 312.57 216.617 312.27 216.377 312.15C212.725 310.47 210.539 306.66 210.898 302.67C211.287 298.65 214.162 295.35 218.084 294.39C218.323 294.33 218.533 294.06 218.563 293.76L218.772 291.63C218.772 291.33 218.653 291.03 218.413 290.91C214.76 289.23 212.575 285.42 212.934 281.43C213.323 277.41 216.198 274.11 220.12 273.15C220.359 273.09 220.569 272.82 220.599 272.52L220.808 270.39C220.808 270.09 220.689 269.79 220.449 269.67C216.796 267.99 214.611 264.18 214.97 260.19C215.359 256.17 218.234 252.87 222.156 251.91C222.395 251.85 222.605 251.58 222.635 251.28L222.844 249.15C222.844 248.85 222.725 248.55 222.485 248.43C218.832 246.75 216.647 242.94 217.006 238.95C217.395 234.93 220.269 231.63 224.192 230.67C224.431 230.61 224.641 230.34 224.671 230.04L224.88 227.91C224.88 227.61 224.76 227.31 224.521 227.19C220.868 225.51 218.683 221.7 219.042 217.71C219.431 213.69 222.305 210.39 226.198 209.43C226.437 209.37 226.647 209.1 226.677 208.8L226.886 206.67C226.886 206.37 226.766 206.07 226.527 205.95C222.874 204.27 220.689 200.46 221.048 196.47C221.437 192.45 224.311 189.15 228.234 188.19C228.473 188.13 228.683 187.86 228.713 187.56L228.922 185.43C228.922 185.13 228.802 184.83 228.563 184.71C224.91 183.03 222.725 179.22 223.084 175.23C223.473 171.21 226.347 167.91 230.269 166.95C230.509 166.89 230.719 166.62 230.748 166.32L230.958 164.19C230.958 163.89 230.838 163.59 230.599 163.47C226.946 161.79 224.76 157.98 225.12 153.99C225.509 149.97 228.383 146.67 232.305 145.71C232.545 145.65 232.754 145.38 232.784 145.08L232.994 142.95C232.994 142.65 232.874 142.35 232.635 142.23C228.982 140.55 226.766 136.74 227.156 132.75C227.545 128.73 230.419 125.43 234.341 124.47C234.581 124.41 234.79 124.14 234.82 123.84L235.03 121.71C235.03 121.41 234.91 121.11 234.671 120.99C231.018 119.31 228.832 115.5 229.192 111.51C229.581 107.49 232.455 104.19 236.377 103.23C236.617 103.17 236.826 102.9 236.856 102.6L237.066 100.47C237.066 100.17 236.946 99.87 236.707 99.75C233.054 98.07 230.868 94.26 231.228 90.27C231.617 86.25 234.491 82.95 238.413 81.99C238.653 81.93 238.862 81.66 238.892 81.36L239.102 79.23C239.102 78.93 238.982 78.63 238.743 78.51C235.09 76.83 232.904 73.02 233.263 69.03C233.653 65.01 236.527 61.71 240.449 60.75C240.689 60.69 240.898 60.42 240.928 60.12L241.138 57.99C241.138 57.69 241.018 57.39 240.778 57.27C237.126 55.59 234.94 51.78 235.299 47.79C235.689 43.77 238.563 40.47 242.485 39.51C242.725 39.45 242.934 39.18 242.964 38.88L243.413 34.14C243.413 33.87 243.323 33.69 243.234 33.57C243.144 33.45 242.994 33.33 242.725 33.3L237.994 32.85C237.695 32.85 237.395 32.97 237.275 33.21C235.599 36.87 231.796 39.06 227.814 38.7C223.802 38.31 220.509 35.43 219.551 31.53C219.491 31.29 219.222 31.08 218.922 31.05L216.796 30.84C216.497 30.84 216.198 30.96 216.078 31.2C214.401 34.86 210.599 37.05 206.617 36.69C202.605 36.3 199.311 33.42 198.353 29.49C198.293 29.25 198.024 29.04 197.725 29.01L195.599 28.8C195.269 28.77 195 28.92 194.88 29.16C193.204 32.82 189.401 35.01 185.419 34.65C181.407 34.26 178.114 31.38 177.156 27.45C177.096 27.21 176.826 27 176.527 26.97L174.401 26.76C174.072 26.76 173.802 26.88 173.683 27.12C172.006 30.78 168.204 33 164.222 32.61C160.21 32.22 156.916 29.34 155.958 25.41C155.898 25.17 155.629 24.96 155.329 24.93L153.204 24.72C152.874 24.72 152.605 24.84 152.485 25.08C150.808 28.74 147.006 30.93 143.024 30.57C139.012 30.18 135.719 27.3 134.76 23.37C134.701 23.13 134.431 22.92 134.132 22.89L132.006 22.68C131.677 22.65 131.407 22.8 131.287 23.04C129.611 26.7 125.808 28.89 121.826 28.53C117.814 28.14 114.521 25.26 113.563 21.33C113.503 21.09 113.234 20.88 112.934 20.85L110.808 20.64C110.509 20.64 110.21 20.76 110.09 21C108.413 24.66 104.611 26.85 100.629 26.49C96.6168 26.1 93.3234 23.22 92.3653 19.29C92.3054 19.05 92.0359 18.84 91.7365 18.81L89.6108 18.6C89.2814 18.57 89.012 18.72 88.8922 18.96C87.2156 22.62 83.4132 24.81 79.4311 24.45C75.4192 24.06 72.1257 21.18 71.1677 17.28C71.1078 17.04 70.8383 16.83 70.5389 16.8L68.4132 16.59C68.0838 16.56 67.8144 16.71 67.6946 16.95C66.018 20.61 62.2156 22.83 58.2335 22.44C54.2216 22.05 50.9281 19.17 49.9701 15.24C49.9102 15 49.6407 14.79 49.3413 14.76L44.6108 14.31C44.1916 14.28 43.8323 14.58 43.7725 15L43.3234 19.74C43.3234 20.04 43.4431 20.34 43.6826 20.46C47.3353 22.14 49.521 25.95 49.1617 29.94C48.7725 33.96 45.8982 37.26 41.976 38.22C41.7365 38.28 41.5269 38.55 41.497 38.85L41.2874 40.98C41.2874 41.28 41.4072 41.58 41.6467 41.7C45.2994 43.38 47.485 47.19 47.1257 51.18C46.7365 55.2 43.8623 58.5 39.9401 59.46C39.7006 59.52 39.491 59.79 39.4611 60.09L39.2515 62.22C39.2515 62.52 39.3713 62.82 39.6108 62.94C43.2635 64.62 45.4491 68.43 45.0898 72.42C44.7006 76.44 41.8263 79.74 37.9341 80.7C37.6946 80.76 37.485 81.03 37.4551 81.33L37.2455 83.46C37.2455 83.76 37.3653 84.06 37.6048 84.18C41.2575 85.86 43.4431 89.67 43.0838 93.66C42.6946 97.68 39.8204 100.98 35.9281 101.94C35.6886 102 35.479 102.27 35.4491 102.57L35.2395 104.7C35.2395 105 35.3593 105.3 35.5988 105.42C39.2515 107.1 41.4371 110.91 41.0778 114.9C40.6886 118.92 37.8144 122.22 33.9222 123.18C33.6826 123.24 33.4731 123.51 33.4431 123.81L33.2335 125.94C33.2335 126.24 33.3533 126.54 33.5928 126.66C37.2455 128.34 39.4311 132.15 39.0719 136.14C38.6826 140.16 35.8084 143.46 31.8862 144.42C31.6467 144.48 31.4371 144.75 31.4072 145.05L31.1976 147.18C31.1976 147.48 31.3174 147.78 31.5569 147.9C35.2096 149.58 37.3952 153.39 37.0359 157.38C36.6467 161.4 33.7725 164.7 29.8802 165.66C29.6407 165.72 29.4311 165.99 29.4012 166.29L29.1916 168.42C29.1916 168.72 29.3114 169.02 29.5509 169.14C33.2036 170.82 35.3892 174.63 35.0299 178.62C34.6407 182.64 31.7665 185.94 27.8443 186.9C27.6048 186.96 27.3952 187.23 27.3653 187.53L27.1557 189.66C27.1557 189.96 27.2754 190.26 27.515 190.38C31.1677 192.06 33.3533 195.87 32.994 199.86C32.6048 203.88 29.7305 207.18 25.8383 208.14C25.5988 208.2 25.3892 208.47 25.3593 208.77L25.1497 210.9C25.1497 211.2 25.2695 211.5 25.509 211.62C29.1617 213.3 31.3473 217.11 30.988 221.1C30.5988 225.12 27.7246 228.42 23.8024 229.38C23.5629 229.44 23.3533 229.71 23.3234 230.01L23.1138 232.14C23.1138 232.44 23.2335 232.74 23.4731 232.86C27.1257 234.54 29.3114 238.35 28.9521 242.34C28.5629 246.36 25.6886 249.66 21.7665 250.62C21.5269 250.68 21.3174 250.95 21.2874 251.25L21.0778 253.38C21.0778 253.68 21.1976 253.98 21.4371 254.1C25.0898 255.78 27.2754 259.59 26.9162 263.58C26.5269 267.6 23.6527 270.9 19.7305 271.86C19.491 271.92 19.2814 272.19 19.2515 272.49L19.0419 274.62C19.0419 274.92 19.1617 275.22 19.4012 275.34C23.0539 277.02 25.2395 280.83 24.8802 284.82C24.491 288.84 21.6168 292.14 17.7246 293.1C17.485 293.16 17.2754 293.43 17.2455 293.73L16.7964 298.47C16.7964 298.74 16.8862 298.92 16.976 299.04C17.0659 299.16 17.2156 299.28 17.485 299.31L22.2156 299.76C22.515 299.76 22.8144 299.64 22.9341 299.4C24.6108 295.74 28.4132 293.55 32.3952 293.91C36.4072 294.3 39.7006 297.18 40.6587 301.11C40.7186 301.35 40.988 301.56 41.2874 301.59L43.4132 301.8C43.7126 301.83 44.012 301.68 44.1317 301.44C45.8084 297.78 49.6108 295.56 53.5928 295.95C57.6048 296.34 60.8982 299.22 61.8563 303.15C61.9162 303.39 62.1856 303.6 62.485 303.63L64.6108 303.84C64.9102 303.84 65.2096 303.72 65.3293 303.48C67.006 299.82 70.8084 297.63 74.7904 297.99C78.8024 298.38 82.0958 301.26 83.0539 305.16C83.1138 305.4 83.3832 305.61 83.6826 305.64L85.8084 305.85C86.1078 305.85 86.4072 305.73 86.5269 305.49C88.2036 301.83 92.006 299.61 95.988 300C100 300.39 103.293 303.27 104.252 307.17C104.311 307.41 104.581 307.62 104.88 307.65L107.006 307.86C107.305 307.86 107.605 307.74 107.725 307.5C109.401 303.84 113.204 301.62 117.186 302.01C121.198 302.4 124.491 305.28 125.449 309.21C125.509 309.45 125.778 309.66 126.078 309.69L128.204 309.9C128.503 309.9 128.802 309.78 128.922 309.54C130.599 305.88 134.401 303.66 138.383 304.05C142.395 304.44 145.689 307.32 146.647 311.25C146.707 311.49 146.976 311.7 147.275 311.73L149.401 311.94C149.701 311.94 150 311.82 150.12 311.58C151.796 307.92 155.599 305.73 159.581 306.09C163.593 306.48 166.886 309.36 167.844 313.29C167.904 313.53 168.174 313.74 168.473 313.77L170.599 313.98C170.898 314.01 171.198 313.86 171.317 313.62C172.994 309.96 176.796 307.77 180.778 308.13C184.79 308.52 188.084 311.4 189.042 315.3C189.102 315.54 189.371 315.75 189.671 315.78L191.796 315.99C192.096 315.99 192.395 315.87 192.515 315.63C194.042 312.24 197.425 310.11 201.078 310.11L200.928 310.17Z" fill="#4C4C4C"/>
<path d="M119.192 134.31L105.629 115.53L91.5269 104.34C90.0599 103.17 89.3712 101.25 89.7904 99.42L90.3593 96.99C90.6886 95.58 91.5868 94.38 92.8742 93.72C94.1617 93.06 95.6587 93 96.976 93.54L146.946 114.12L144.94 119.01L95.4192 98.61L95.0299 100.35L109.012 111.45C109.371 111.72 109.671 112.05 109.94 112.41L123.503 131.19L119.222 134.31H119.192Z" fill="#4C4C4C"/>
<path d="M90.2096 156.93L79.2216 145.53C77.8743 144.12 77.485 142.05 78.2335 140.25L79.1317 138.09C79.6407 136.89 80.5689 135.93 81.7964 135.45C82.994 134.94 84.3413 134.97 85.5389 135.45L103.413 142.95L101.377 147.84L83.8922 140.49L83.2335 142.05L94.0419 153.24L90.2395 156.93H90.2096Z" fill="#4C4C4C"/>
<path d="M90.6587 167.34C88.7724 167.34 87.0359 166.38 86.018 164.79C84.9102 163.02 84.8802 160.77 85.988 158.97C87.9042 155.82 92.515 149.49 102.036 142.29C103.683 141.06 105.359 139.92 107.036 138.93L168.743 98.4C175.479 93.93 185.359 93.87 189.311 94.05C191.108 94.14 192.754 95.1 193.743 96.63C194.701 98.16 194.85 100.05 194.162 101.73C192.635 105.36 188.353 114.3 181.407 118.47L118.263 156.96C116.766 157.98 115.03 159.03 113.204 159.96C102.635 165.48 94.9401 166.92 91.2874 167.31C91.1078 167.31 90.8982 167.34 90.7186 167.34H90.6587ZM187.036 99.33C183.204 99.33 176.228 99.81 171.647 102.84L109.82 143.46C108.204 144.42 106.707 145.44 105.21 146.55C96.4072 153.21 92.2156 158.94 90.509 161.76C90.509 161.82 90.4491 161.88 90.509 162C90.5689 162.12 90.6587 162.09 90.7186 162.09C93.982 161.76 100.928 160.41 110.719 155.31C112.365 154.44 113.922 153.51 115.389 152.55L178.653 114C184.431 110.52 188.234 102.21 189.281 99.75C189.281 99.72 189.341 99.63 189.281 99.54C189.222 99.45 189.132 99.42 189.072 99.42C188.593 99.42 187.904 99.39 187.066 99.39L187.036 99.33Z" fill="#4C4C4C"/>
<path d="M150.06 190.14C149.701 190.14 149.341 190.11 148.982 190.02L146.557 189.48C144.731 189.06 143.293 187.62 142.874 185.79L138.802 168.12L127.754 147.87L132.395 145.32L143.473 165.66C143.683 166.05 143.832 166.47 143.952 166.92L147.964 184.32L149.701 184.71L152.605 131.13L157.874 131.43L154.94 185.46C154.85 186.9 154.162 188.22 152.994 189.09C152.126 189.75 151.108 190.08 150.06 190.08V190.14Z" fill="#4C4C4C"/>
<path d="M107.365 182.52C107.275 182.52 107.216 182.52 107.126 182.52L104.79 182.4C102.844 182.31 101.138 181.05 100.449 179.22L94.9102 164.37L99.8503 162.51L105.299 177.12L106.976 177.21L107.874 158.22L113.144 158.46L112.216 177.84C112.156 179.16 111.587 180.36 110.629 181.23C109.731 182.07 108.563 182.49 107.335 182.49L107.365 182.52Z" fill="#4C4C4C"/>
<path d="M79.5808 240.6L79.4311 242.22C79.4311 242.49 79.2515 242.58 79.012 242.58L72.6946 241.98C72.6048 241.98 72.5449 242.01 72.515 242.13L70.1796 266.34C70.1796 266.61 70 266.73 69.7605 266.7L67.7844 266.52C67.515 266.52 67.3952 266.34 67.4251 266.1L69.7605 241.89C69.7605 241.8 69.7305 241.74 69.6108 241.71L63.5329 241.11C63.2635 241.11 63.1437 240.93 63.1736 240.69L63.3234 239.07C63.3234 238.8 63.503 238.71 63.7425 238.71L79.1916 240.21C79.4611 240.21 79.5808 240.39 79.5509 240.63L79.5808 240.6Z" fill="#4C4C4C"/>
<path d="M95.5988 268.86L91.9162 256.32C91.9162 256.23 91.8563 256.2 91.7665 256.2L86.7964 255.72C86.7066 255.72 86.6467 255.75 86.6168 255.87L85.479 267.84C85.479 268.11 85.2994 268.23 85.0599 268.2L83.0838 268.02C82.8144 268.02 82.6946 267.84 82.7246 267.6L85.2695 241.17C85.2695 240.9 85.4491 240.78 85.6886 240.81L93.8922 241.59C95.9581 241.8 97.5449 242.64 98.6826 244.14C99.8204 245.64 100.269 247.5 100.06 249.72C99.8802 251.52 99.3114 252.99 98.3234 254.13C97.3353 255.3 96.1078 255.99 94.5808 256.23C94.4611 256.26 94.4311 256.32 94.491 256.41L98.3533 269.01V269.16C98.3533 269.37 98.2335 269.46 97.994 269.43L95.9281 269.22C95.7186 269.22 95.5988 269.07 95.5389 268.86H95.5988ZM87.8144 243.57L86.8862 253.35C86.8862 253.44 86.9162 253.5 87.0359 253.53L92.3952 254.04C93.7425 254.16 94.8802 253.8 95.7784 252.99C96.7066 252.15 97.2156 250.98 97.3653 249.48C97.515 247.95 97.2156 246.69 96.4671 245.67C95.7186 244.65 94.7006 244.08 93.3533 243.96L87.994 243.45C87.9042 243.45 87.8443 243.48 87.8144 243.6V243.57Z" fill="#4C4C4C"/>
<path d="M118.293 271.02L117.485 266.04C117.485 265.95 117.395 265.92 117.305 265.89L108.054 264.99C107.964 264.99 107.874 264.99 107.844 265.08L106.108 269.82C106.048 270.06 105.868 270.15 105.659 270.12L103.653 269.94C103.533 269.94 103.443 269.88 103.383 269.79C103.323 269.7 103.323 269.61 103.383 269.46L113.114 243.75C113.174 243.51 113.353 243.42 113.563 243.45L116.048 243.69C116.287 243.69 116.407 243.84 116.437 244.08L121.138 271.17V271.29C121.138 271.5 121.018 271.59 120.748 271.56L118.743 271.38C118.503 271.38 118.383 271.23 118.353 270.99L118.293 271.02ZM108.743 262.74C108.772 262.77 108.832 262.8 108.862 262.8L116.886 263.58C116.946 263.58 116.976 263.58 117.036 263.52C117.066 263.49 117.096 263.46 117.036 263.43L114.461 247.5C114.461 247.44 114.431 247.41 114.401 247.41C114.401 247.41 114.341 247.41 114.311 247.47L108.713 262.59C108.713 262.59 108.713 262.65 108.713 262.68L108.743 262.74Z" fill="#4C4C4C"/>
<path d="M129.072 272.04L124.551 244.98V244.86C124.551 244.65 124.671 244.56 124.94 244.59L127.036 244.8C127.305 244.8 127.425 244.95 127.425 245.19L130.958 267.93C130.958 267.99 130.988 268.02 131.018 268.02C131.018 268.02 131.078 268.02 131.108 267.96L138.892 246.3C138.952 246.06 139.132 245.97 139.341 246L141.347 246.18C141.467 246.18 141.557 246.24 141.617 246.33C141.677 246.42 141.677 246.51 141.617 246.66L132.036 272.37C131.976 272.61 131.796 272.7 131.587 272.67L129.431 272.46C129.192 272.46 129.072 272.31 129.042 272.07L129.072 272.04Z" fill="#4C4C4C"/>
<path d="M161.317 250.5L149.701 249.39C149.611 249.39 149.551 249.42 149.521 249.54L148.593 259.17C148.593 259.26 148.623 259.32 148.742 259.35L156.557 260.1C156.826 260.1 156.946 260.28 156.916 260.52L156.766 262.14C156.766 262.41 156.587 262.53 156.347 262.5L148.533 261.75C148.443 261.75 148.383 261.78 148.353 261.9L147.425 271.59C147.425 271.68 147.455 271.74 147.575 271.77L159.192 272.88C159.461 272.88 159.581 273.06 159.551 273.3L159.401 274.92C159.401 275.19 159.222 275.31 158.982 275.28L144.85 273.93C144.581 273.93 144.461 273.75 144.491 273.51L147.036 247.11C147.036 246.84 147.216 246.75 147.455 246.75L161.587 248.1C161.856 248.1 161.976 248.28 161.946 248.52L161.796 250.14C161.796 250.41 161.617 250.5 161.377 250.5H161.317Z" fill="#4C4C4C"/>
<path d="M165.449 275.52L167.994 249.12C167.994 248.85 168.174 248.73 168.413 248.76L170.389 248.94C170.659 248.94 170.778 249.12 170.748 249.36L168.413 273.57C168.413 273.66 168.443 273.72 168.563 273.75L179.82 274.83C180.09 274.83 180.21 275.01 180.18 275.25L180.03 276.87C180.03 277.14 179.85 277.26 179.611 277.23L165.808 275.91C165.539 275.91 165.419 275.73 165.449 275.49V275.52Z" fill="#4C4C4C"/>
<path d="M182.425 241.08C182.395 241.08 182.335 241.08 182.305 241.08L180.988 240.96C180.269 240.9 179.731 240.24 179.79 239.52C179.85 238.8 180.509 238.26 181.228 238.32L182.545 238.44C183.263 238.5 183.802 239.16 183.743 239.88C183.683 240.57 183.114 241.08 182.425 241.08ZM175.838 240.45C175.808 240.45 175.748 240.45 175.719 240.45L174.401 240.33C173.683 240.27 173.144 239.61 173.204 238.89C173.263 238.17 173.922 237.63 174.641 237.69L175.958 237.81C176.677 237.87 177.216 238.53 177.156 239.25C177.096 239.94 176.527 240.45 175.838 240.45ZM169.251 239.79C169.222 239.79 169.162 239.79 169.132 239.79L167.814 239.67C167.096 239.61 166.557 238.95 166.617 238.23C166.677 237.51 167.335 236.97 168.054 237.03L169.371 237.15C170.09 237.21 170.629 237.87 170.569 238.59C170.509 239.28 169.94 239.79 169.251 239.79ZM162.695 239.16C162.665 239.16 162.605 239.16 162.575 239.16L161.257 239.04C160.539 238.98 160 238.32 160.06 237.6C160.12 236.88 160.778 236.34 161.497 236.4L162.814 236.52C163.533 236.58 164.072 237.24 164.012 237.96C163.952 238.65 163.383 239.16 162.695 239.16ZM156.108 238.53C156.078 238.53 156.018 238.53 155.988 238.53L154.671 238.41C153.952 238.35 153.413 237.69 153.473 236.97C153.533 236.25 154.192 235.71 154.91 235.77L156.228 235.89C156.946 235.95 157.485 236.61 157.425 237.33C157.365 238.02 156.796 238.53 156.108 238.53ZM149.521 237.9C149.491 237.9 149.431 237.9 149.401 237.9L148.084 237.78C147.365 237.72 146.826 237.06 146.886 236.34C146.946 235.62 147.605 235.08 148.323 235.14L149.641 235.26C150.359 235.32 150.898 235.98 150.838 236.7C150.778 237.39 150.21 237.9 149.521 237.9ZM142.934 237.27C142.904 237.27 142.844 237.27 142.814 237.27L141.497 237.15C140.778 237.09 140.24 236.43 140.299 235.71C140.359 234.99 141.018 234.45 141.737 234.51L143.054 234.63C143.772 234.69 144.311 235.35 144.251 236.07C144.192 236.76 143.623 237.27 142.934 237.27ZM136.347 236.64C136.317 236.64 136.257 236.64 136.228 236.64L134.91 236.52C134.192 236.46 133.653 235.8 133.713 235.08C133.772 234.36 134.431 233.82 135.15 233.88L136.467 234C137.186 234.06 137.725 234.72 137.665 235.44C137.605 236.13 137.036 236.64 136.347 236.64ZM129.76 236.01C129.731 236.01 129.671 236.01 129.641 236.01L128.323 235.89C127.605 235.83 127.066 235.17 127.126 234.45C127.186 233.73 127.844 233.19 128.563 233.25L129.88 233.37C130.599 233.43 131.138 234.09 131.078 234.81C131.018 235.5 130.449 236.01 129.76 236.01ZM123.204 235.38C123.174 235.38 123.114 235.38 123.084 235.38L121.766 235.26C121.048 235.2 120.509 234.54 120.569 233.82C120.629 233.1 121.287 232.56 122.006 232.62L123.323 232.74C124.042 232.8 124.581 233.46 124.521 234.18C124.461 234.87 123.892 235.38 123.204 235.38ZM116.617 234.72C116.587 234.72 116.527 234.72 116.497 234.72L115.18 234.6C114.461 234.54 113.922 233.88 113.982 233.16C114.042 232.44 114.701 231.9 115.419 231.96L116.737 232.08C117.455 232.14 117.994 232.8 117.934 233.52C117.874 234.21 117.305 234.72 116.617 234.72ZM110.03 234.09C110 234.09 109.94 234.09 109.91 234.09L108.593 233.97C107.874 233.91 107.335 233.25 107.395 232.53C107.455 231.81 108.114 231.27 108.832 231.33L110.15 231.45C110.868 231.51 111.407 232.17 111.347 232.89C111.287 233.58 110.719 234.09 110.03 234.09ZM103.443 233.46C103.413 233.46 103.353 233.46 103.323 233.46L102.006 233.34C101.287 233.28 100.748 232.62 100.808 231.9C100.868 231.18 101.527 230.64 102.245 230.7L103.563 230.82C104.281 230.88 104.82 231.54 104.76 232.26C104.701 232.95 104.132 233.46 103.443 233.46ZM96.8563 232.83C96.8263 232.83 96.7665 232.83 96.7365 232.83L95.4192 232.71C94.7006 232.65 94.1617 231.99 94.2215 231.27C94.2814 230.55 94.9401 230.01 95.6587 230.07L96.976 230.19C97.6946 230.25 98.2335 230.91 98.1736 231.63C98.1138 232.32 97.5449 232.83 96.8563 232.83ZM90.2694 232.2C90.2395 232.2 90.1796 232.2 90.1497 232.2L88.8323 232.08C88.1138 232.02 87.5748 231.36 87.6347 230.64C87.6946 229.92 88.3533 229.38 89.0718 229.44L90.3892 229.56C91.1078 229.62 91.6467 230.28 91.5868 231C91.5269 231.69 90.9581 232.2 90.2694 232.2ZM83.7126 231.57C83.6826 231.57 83.6227 231.57 83.5928 231.57L82.2754 231.45C81.5569 231.39 81.0179 230.73 81.0778 230.01C81.1377 229.29 81.7964 228.75 82.515 228.81L83.8323 228.93C84.5509 228.99 85.0898 229.65 85.0299 230.37C84.97 231.06 84.4012 231.57 83.7126 231.57ZM77.1257 230.94C77.0958 230.94 77.0359 230.94 77.006 230.94L75.6886 230.82C74.97 230.76 74.4311 230.1 74.491 229.38C74.5509 228.66 75.2096 228.12 75.9281 228.18L77.2455 228.3C77.9641 228.36 78.503 229.02 78.4431 229.74C78.3832 230.43 77.8144 230.94 77.1257 230.94ZM70.5389 230.31C70.509 230.31 70.4491 230.31 70.4191 230.31L69.1018 230.19C68.3832 230.13 67.8443 229.47 67.9042 228.75C67.9641 228.03 68.6227 227.49 69.3413 227.55L70.6587 227.67C71.3772 227.73 71.9162 228.39 71.8563 229.11C71.7964 229.8 71.2275 230.31 70.5389 230.31ZM63.9521 229.65C63.9221 229.65 63.8623 229.65 63.8323 229.65L62.515 229.53C61.7964 229.47 61.2575 228.81 61.3174 228.09C61.3772 227.37 62.0359 226.83 62.7545 226.89L64.0718 227.01C64.7904 227.07 65.3293 227.73 65.2694 228.45C65.2096 229.14 64.6407 229.65 63.9521 229.65Z" fill="#4C4C4C"/>
</svg>
