<svg width="390" height="390" viewBox="0 0 390 390" fill="none" xmlns="http://www.w3.org/2000/svg">
<path d="M197.564 343.742C118.083 343.742 53.4083 279.067 53.4083 199.586C53.4083 120.106 118.083 55.4305 197.564 55.4305C277.044 55.4305 341.719 120.106 341.719 199.586C341.719 279.067 277.044 343.742 197.564 343.742ZM197.564 60.5583C120.9 60.5583 58.5 122.922 58.5 199.622C58.5 276.322 120.864 338.686 197.564 338.686C274.264 338.686 336.628 276.322 336.628 199.622C336.628 122.922 274.264 60.5583 197.564 60.5583Z" fill="#4C4C4C"/>
<path d="M197.564 71.4639C268.233 71.4639 325.722 128.953 325.722 199.622C325.722 270.292 268.233 327.781 197.564 327.781C126.894 327.781 69.4055 270.292 69.4055 199.622C69.4055 128.953 126.894 71.4639 197.564 71.4639Z" fill="#F3C672"/>
<path d="M238.225 305.897L235.733 301.925C235.733 301.853 235.625 301.817 235.517 301.889L227.283 304.561C227.175 304.561 227.139 304.633 227.139 304.742L227.428 309.436C227.464 309.653 227.392 309.833 227.139 309.906L224.25 310.844C224.142 310.881 224.033 310.844 223.925 310.844C223.853 310.808 223.781 310.7 223.781 310.556L222.408 283.003C222.408 282.75 222.481 282.606 222.697 282.533L226.2 281.378C226.417 281.306 226.597 281.378 226.706 281.594L241.872 304.633L241.944 304.742C242.017 304.958 241.944 305.067 241.656 305.175L238.731 306.15C238.514 306.222 238.333 306.15 238.225 305.933V305.897ZM226.994 301.492C227.031 301.492 227.103 301.492 227.139 301.492L233.819 299.289C233.856 299.289 233.892 299.253 233.928 299.181C233.928 299.144 233.928 299.108 233.928 299.072L226.164 286.794C226.128 286.758 226.092 286.722 226.056 286.758C226.056 286.758 226.019 286.794 226.019 286.867L226.922 301.383C226.922 301.383 226.922 301.456 226.958 301.456L226.994 301.492Z" fill="#4C4C4C"/>
<path d="M250.936 300.192L236.853 277.622C236.708 277.406 236.744 277.225 236.961 277.081L243.714 272.892C245.772 271.592 247.794 271.158 249.744 271.592C251.694 271.989 253.283 273.181 254.511 275.131L260.975 285.494C262.203 287.444 262.564 289.394 262.058 291.308C261.553 293.258 260.289 294.847 258.231 296.147L251.478 300.336C251.261 300.481 251.081 300.444 250.936 300.228V300.192ZM252.742 295.714L256.533 293.294C257.581 292.644 258.231 291.742 258.411 290.622C258.592 289.503 258.303 288.347 257.581 287.119L251.55 277.406C250.792 276.178 249.853 275.383 248.769 275.058C247.686 274.733 246.603 274.914 245.519 275.6L241.728 277.947C241.656 278.019 241.619 278.092 241.692 278.164L252.597 295.642C252.669 295.714 252.742 295.75 252.814 295.678L252.742 295.714Z" fill="#4C4C4C"/>
<path d="M276.358 281.486L252.597 267.619L252.489 267.547C252.344 267.403 252.344 267.222 252.561 267.042L254.836 264.767C255.017 264.586 255.197 264.55 255.378 264.694L273.794 275.961C273.867 275.997 273.903 275.997 273.939 275.961C273.975 275.925 273.939 275.889 273.939 275.817L262.708 257.364C262.564 257.147 262.6 256.967 262.781 256.822L264.983 254.619C265.092 254.511 265.164 254.475 265.272 254.511C265.381 254.511 265.453 254.583 265.525 254.692L279.319 278.525C279.464 278.742 279.428 278.922 279.247 279.067L276.936 281.378C276.756 281.558 276.575 281.558 276.394 281.45L276.358 281.486Z" fill="#4C4C4C"/>
<path d="M278.019 240.392L271.989 249.997C271.917 250.07 271.953 250.142 272.025 250.214L279.175 254.692C279.247 254.764 279.319 254.728 279.392 254.656L283.364 248.336C283.508 248.12 283.689 248.083 283.906 248.228L286 249.528C286.217 249.672 286.253 249.853 286.108 250.07L282.136 256.389C282.064 256.461 282.1 256.533 282.172 256.606L289.431 261.156C289.503 261.228 289.575 261.192 289.647 261.119L295.678 251.514C295.822 251.297 296.003 251.261 296.219 251.406L298.314 252.706C298.531 252.85 298.567 253.031 298.422 253.247L290.55 265.85C290.406 266.067 290.225 266.103 290.008 265.958L267.439 251.839C267.222 251.695 267.186 251.514 267.331 251.297L275.203 238.695C275.347 238.478 275.528 238.442 275.744 238.586L277.839 239.886C278.056 240.031 278.092 240.211 277.947 240.428L278.019 240.392Z" fill="#4C4C4C"/>
<path d="M302.864 243.1L277.55 234.831C277.297 234.758 277.225 234.578 277.297 234.325L278.2 231.545C278.272 231.328 278.417 231.183 278.597 231.183L299.072 227.825C299.144 227.825 299.181 227.753 299.181 227.717C299.181 227.681 299.181 227.645 299.072 227.608L281.703 221.939C281.45 221.867 281.378 221.686 281.45 221.433L282.353 218.653C282.425 218.4 282.605 218.328 282.858 218.4L308.172 226.67C308.425 226.742 308.497 226.922 308.425 227.175L307.486 229.992C307.414 230.208 307.269 230.353 307.089 230.353L286.542 233.639C286.469 233.639 286.433 233.711 286.433 233.747C286.433 233.783 286.433 233.82 286.542 233.856L303.983 239.525C304.236 239.597 304.308 239.778 304.236 240.031L303.297 242.847C303.225 243.1 303.044 243.172 302.792 243.1H302.864Z" fill="#4C4C4C"/>
<path d="M284.917 197.672L287.408 197.853C287.661 197.853 287.805 197.997 287.769 198.286L287.3 204.569C287.3 204.678 287.336 204.714 287.444 204.75L310.953 206.519C311.205 206.519 311.35 206.664 311.314 206.953L311.097 209.914C311.097 210.167 310.953 210.311 310.664 210.275L287.155 208.506C287.047 208.506 287.011 208.542 286.975 208.65L286.542 214.644C286.542 214.897 286.397 215.042 286.108 215.006L283.617 214.825C283.364 214.825 283.219 214.681 283.255 214.392L284.483 198.033C284.483 197.781 284.628 197.636 284.917 197.672Z" fill="#4C4C4C"/>
<path d="M310.086 186.044C309.617 187.417 308.786 188.536 307.631 189.403C306.475 190.269 305.103 190.847 303.442 191.1L284.736 194.061C284.483 194.097 284.339 193.989 284.303 193.736L283.833 190.811C283.797 190.558 283.906 190.414 284.158 190.378L303.081 187.381C304.525 187.164 305.608 186.55 306.367 185.575C307.125 184.6 307.378 183.444 307.197 182.108C306.981 180.736 306.367 179.725 305.356 179.003C304.344 178.317 303.117 178.064 301.672 178.317L282.75 181.314C282.497 181.35 282.353 181.242 282.317 180.989L281.847 178.064C281.811 177.811 281.919 177.667 282.172 177.631L300.878 174.669C302.539 174.417 304.019 174.525 305.392 174.994C306.764 175.464 307.883 176.294 308.75 177.45C309.617 178.606 310.194 179.978 310.447 181.639C310.7 183.264 310.592 184.744 310.122 186.117L310.086 186.044Z" fill="#4C4C4C"/>
<path d="M300.264 150.619L291.236 159.394C291.164 159.467 291.164 159.503 291.2 159.575L292.825 163.403C292.861 163.511 292.933 163.511 293.042 163.475L303.731 158.961C303.983 158.853 304.128 158.961 304.236 159.178L305.392 161.922C305.5 162.175 305.392 162.319 305.175 162.428L280.619 172.828C280.367 172.936 280.222 172.828 280.114 172.611L276.683 164.522C275.817 162.5 275.817 160.586 276.611 158.817C277.406 157.047 278.886 155.675 281.017 154.772C282.642 154.086 284.158 153.869 285.603 154.158C287.047 154.411 288.311 155.133 289.322 156.253C289.394 156.325 289.431 156.325 289.539 156.253L298.639 147.189L298.783 147.081C298.964 147.008 299.108 147.081 299.217 147.297L300.408 150.114C300.481 150.294 300.444 150.475 300.3 150.619H300.264ZM281.956 168.169L290.044 164.739C290.153 164.703 290.153 164.631 290.117 164.522L288.275 160.153C287.806 159.033 287.047 158.311 286 157.95C284.953 157.589 283.797 157.661 282.569 158.203C281.306 158.744 280.403 159.503 279.933 160.514C279.464 161.525 279.464 162.572 279.933 163.692L281.775 168.061C281.811 168.169 281.883 168.169 281.992 168.133L281.956 168.169Z" fill="#4C4C4C"/>
<path d="M265.381 140.147L272.097 149.319C272.169 149.392 272.242 149.428 272.314 149.319L279.139 144.336C279.211 144.264 279.247 144.192 279.139 144.119L274.733 138.089C274.589 137.872 274.625 137.692 274.806 137.547L276.792 136.103C277.008 135.958 277.189 135.994 277.333 136.175L281.739 142.206C281.811 142.278 281.883 142.314 281.956 142.206L288.889 137.15C288.961 137.078 288.997 137.006 288.889 136.933L282.172 127.761C282.028 127.544 282.064 127.364 282.244 127.219L284.231 125.775C284.447 125.631 284.628 125.667 284.772 125.847L293.547 137.836C293.692 138.053 293.656 138.233 293.475 138.378L271.989 154.086C271.772 154.231 271.592 154.194 271.447 154.014L262.672 142.025C262.528 141.808 262.564 141.628 262.744 141.483L264.731 140.039C264.947 139.894 265.128 139.931 265.272 140.111L265.381 140.147Z" fill="#4C4C4C"/>
<path d="M150.042 93.275L141.808 121.983L126.569 127.075C123.067 128.231 119.925 131.806 118.372 133.972C117.722 134.875 118.156 136.139 119.239 136.428C121.839 137.15 126.497 137.981 129.964 136.644L145.058 131.047H144.986L169.397 148.272C170.011 148.706 170.914 148.489 171.239 147.803L171.853 146.539C172.069 146.106 171.997 145.6 171.708 145.239L158.022 126.172L168.314 122.381C169.325 122.056 170.3 121.658 171.275 121.261C171.564 121.117 171.853 121.008 172.142 120.864H172.106L180.808 127.111C181.35 127.508 182.144 127.364 182.542 126.822L183.3 125.775C183.589 125.378 183.625 124.836 183.336 124.403C183.336 124.403 176.619 115.881 176.258 114.906C175.717 113.389 175.825 103.097 175.825 103.097C175.753 102.592 175.392 102.194 174.922 102.05L173.658 101.689C173.008 101.508 172.322 101.906 172.142 102.556L169.253 112.883H169.289C169 112.956 168.675 113.028 168.386 113.1C167.375 113.353 166.364 113.678 165.389 114.075L155.025 117.578L153.725 94.1417C153.725 93.6722 153.436 93.2389 153.003 93.0222L151.739 92.4083C151.053 92.0833 150.222 92.4444 150.006 93.2028L150.042 93.275Z" fill="#4C4C4C"/>
<path d="M350.603 214.211C349.881 214.211 349.158 213.922 348.689 213.308C347.786 212.225 347.895 210.636 348.978 209.733C371.981 190.017 382.417 169.578 378.408 152.136C374.075 133.322 353.42 118.914 320.233 111.583C286.578 104.144 243.208 104.65 198.033 113.028C196.661 113.281 195.325 112.378 195.072 111.006C194.82 109.633 195.722 108.297 197.095 108.044C293.547 90.1695 373.606 108.622 383.32 151.017C387.761 170.372 376.711 192.617 352.228 213.597C351.758 213.994 351.145 214.211 350.567 214.211H350.603Z" fill="#4C4C4C"/>
<path d="M59.8001 276.9C59.5473 276.9 59.2945 276.864 59.0056 276.792C32.2112 268.125 15.8528 254.186 11.7723 236.383C4.51394 204.786 37.8806 167.447 98.8362 138.956C100.1 138.378 101.617 138.92 102.231 140.183C102.808 141.447 102.267 142.964 101.003 143.578C43.2251 170.589 10.1473 206.556 16.7556 235.264C20.4028 251.189 35.5695 263.9 60.5945 271.953C61.9306 272.386 62.6528 273.831 62.2195 275.167C61.8584 276.25 60.8834 276.936 59.8001 276.936V276.9Z" fill="#4C4C4C"/>
<path d="M163.042 291.561C162.717 291.561 162.392 291.525 162.103 291.417C160.044 290.695 155.061 288.636 152.533 284.989L143.758 272.35L114.544 272.531C113.822 272.531 113.1 272.206 112.631 271.664C112.161 271.086 111.944 270.364 112.053 269.642L112.269 268.27C112.414 267.331 113.1 266.536 114.039 266.247L134.514 259.025L129.206 251.442C128.592 250.647 127.978 249.708 127.4 248.733C127.4 248.697 127.328 248.625 127.328 248.589L117.361 248.733C116.675 248.733 116.061 248.481 115.556 248.011C115.086 247.542 114.797 246.928 114.797 246.242V244.942C114.797 243.931 115.339 243.028 116.278 242.631C116.35 242.631 116.386 242.595 116.458 242.558C121.081 241.258 126.533 239.525 127.292 239.02C127.833 238.514 131.192 233.964 134.117 229.883C134.117 229.847 134.189 229.811 134.225 229.775C134.911 229.017 135.958 228.764 136.897 229.089L138.125 229.522C138.775 229.739 139.281 230.208 139.569 230.786C139.858 231.4 139.894 232.086 139.678 232.7L136.392 242.125C136.392 242.161 136.464 242.197 136.5 242.233C137.222 243.1 137.908 243.967 138.522 244.869L144.011 252.272L157.444 235.083C157.95 234.361 158.925 233.928 159.864 234.108L161.236 234.325C161.958 234.433 162.608 234.867 162.969 235.517C163.367 236.167 163.439 236.925 163.186 237.611L153.725 265.236L162.933 277.55C165.606 281.053 165.931 286.469 165.967 288.636C165.967 289.575 165.533 290.442 164.775 291.02C164.269 291.381 163.692 291.561 163.114 291.561H163.042ZM144.444 269.822C144.878 269.822 145.239 270.039 145.492 270.364L154.628 283.545C156.758 286.65 161.525 288.528 162.933 288.997C163.078 289.033 163.186 288.997 163.222 288.961C163.294 288.925 163.367 288.817 163.367 288.708C163.367 287.228 163.114 282.1 160.839 279.103L151.269 266.247C150.981 265.85 150.981 265.308 151.197 264.875L160.803 236.853L159.467 236.672L145.022 255.197C144.769 255.522 144.444 255.703 144.011 255.703C143.614 255.703 143.253 255.522 143 255.197L136.5 246.386C135.922 245.52 135.308 244.725 134.622 243.931C134.514 243.786 134.369 243.642 134.261 243.497L134.008 243.244C133.611 242.811 133.575 242.161 133.936 241.656L137.367 231.906L136.211 231.545C133.792 234.939 129.747 240.536 128.917 241.15C127.581 242.125 120.033 244.292 117.469 245.05V246.314L127.906 246.133C128.447 245.989 128.989 246.242 129.278 246.711L129.422 246.964C129.531 247.145 129.639 247.325 129.747 247.506C130.289 248.408 130.867 249.239 131.444 249.997L137.764 259.025C137.981 259.35 138.053 259.747 137.944 260.145C137.836 260.506 137.547 260.831 137.15 260.939L115.014 268.739L114.761 270.075L144.589 269.895L144.444 269.822Z" fill="#4C4C4C"/>
<path d="M117.794 223.347C116.856 223.347 115.953 222.842 115.519 221.939L114.942 220.783C114.328 219.519 114.833 218.003 116.061 217.389C117.325 216.775 118.842 217.281 119.456 218.508L120.033 219.628C120.683 220.892 120.178 222.408 118.914 223.058C118.553 223.239 118.156 223.347 117.758 223.347H117.794ZM113.317 214.211C112.378 214.211 111.439 213.669 111.006 212.767L110.464 211.611C109.85 210.347 110.392 208.831 111.692 208.217C112.956 207.603 114.472 208.144 115.086 209.444L115.628 210.6C116.242 211.864 115.7 213.381 114.436 213.994C114.075 214.175 113.714 214.247 113.353 214.247L113.317 214.211ZM109.056 204.967C108.081 204.967 107.142 204.389 106.744 203.45L106.239 202.294C105.661 200.994 106.239 199.514 107.539 198.936C108.839 198.358 110.319 198.936 110.897 200.236L111.403 201.392C111.981 202.692 111.403 204.172 110.103 204.75C109.778 204.894 109.417 204.967 109.056 204.967ZM105.047 195.614C104.036 195.614 103.097 195.036 102.7 194.061L102.194 192.869C101.653 191.569 102.267 190.089 103.567 189.547C104.867 189.006 106.347 189.619 106.889 190.919L107.358 192.075C107.9 193.375 107.286 194.856 105.986 195.397C105.661 195.542 105.336 195.578 105.011 195.578L105.047 195.614ZM101.256 186.189C100.244 186.189 99.2694 185.575 98.8722 184.564L98.4027 183.372C97.8972 182.072 98.5472 180.592 99.8833 180.086C101.183 179.581 102.664 180.231 103.169 181.567L103.639 182.758C104.144 184.058 103.494 185.539 102.194 186.044C101.906 186.153 101.581 186.225 101.292 186.225L101.256 186.189ZM97.7166 176.656C96.6694 176.656 95.6944 176.006 95.3333 174.958L94.8999 173.767C94.4305 172.431 95.1166 170.986 96.4527 170.517C97.7888 170.047 99.2333 170.733 99.7027 172.069L100.136 173.261C100.606 174.597 99.9194 176.042 98.5833 176.511C98.2944 176.619 98.0055 176.656 97.7166 176.656ZM94.4666 167.014C93.3833 167.014 92.4083 166.328 92.0472 165.244L91.65 164.017C91.2166 162.681 91.9749 161.236 93.3111 160.839C94.6472 160.406 96.0916 161.164 96.4888 162.5L96.8861 163.692C97.3194 165.028 96.5972 166.472 95.2611 166.906C95.0083 166.978 94.7555 167.014 94.4666 167.014ZM91.4694 157.3C90.35 157.3 89.3388 156.578 89.0138 155.458L88.6527 154.231C88.2555 152.894 89.0499 151.486 90.4222 151.089C91.7583 150.692 93.1666 151.486 93.5638 152.858L93.925 154.05C94.3222 155.386 93.5277 156.794 92.1916 157.192C91.9388 157.264 91.7222 157.3 91.4694 157.3ZM88.8333 147.478C87.7138 147.478 86.6666 146.719 86.3777 145.564L86.0527 144.336C85.7277 142.964 86.5583 141.592 87.8944 141.267C89.2666 140.942 90.6388 141.772 90.9638 143.108L91.2888 144.336C91.65 145.708 90.8194 147.081 89.4472 147.442C89.2305 147.478 89.0138 147.514 88.8333 147.514V147.478ZM86.4861 137.583C85.3305 137.583 84.2472 136.753 83.9944 135.561L83.7416 134.297C83.4527 132.925 84.3194 131.589 85.6916 131.3C87.0638 131.011 88.4 131.878 88.6888 133.25L88.9416 134.478C89.2305 135.85 88.3638 137.186 86.9916 137.511C86.8111 137.547 86.6305 137.583 86.4499 137.583H86.4861ZM84.5361 127.617C83.3083 127.617 82.2611 126.75 82.0444 125.522L81.8277 124.258C81.6111 122.886 82.5138 121.55 83.9222 121.333C85.2944 121.081 86.6305 122.019 86.8472 123.428L87.0638 124.656C87.3166 126.028 86.3777 127.364 85.0055 127.581C84.8611 127.581 84.7166 127.617 84.5722 127.617H84.5361ZM83.0194 117.542C81.7555 117.542 80.6722 116.603 80.4916 115.339L80.3472 114.075C80.1666 112.667 81.1777 111.403 82.55 111.258C83.9583 111.078 85.2222 112.089 85.3666 113.461L85.5111 114.689C85.6916 116.097 84.7166 117.361 83.3083 117.542C83.2 117.542 83.0916 117.542 82.9833 117.542H83.0194ZM81.9722 107.431C80.6722 107.431 79.5527 106.419 79.4444 105.083L79.3361 103.819C79.2277 102.411 80.275 101.219 81.6833 101.111C83.0916 101.003 84.2833 102.05 84.3916 103.458L84.5 104.722C84.6083 106.131 83.5611 107.358 82.1527 107.467C82.0805 107.467 82.0083 107.467 81.9361 107.467L81.9722 107.431ZM81.4666 97.2834C80.0944 97.2834 78.9388 96.1639 78.9388 94.7917V93.4917C78.9388 92.0834 80.0222 90.9278 81.4305 90.9278C82.8027 90.9278 83.9944 92.0473 83.9944 93.4556V94.7195C84.0305 96.1278 82.9111 97.2834 81.5027 97.3195C81.5027 97.3195 81.5027 97.3195 81.4666 97.3195V97.2834ZM81.6111 87.1361C81.575 87.1361 81.5027 87.1361 81.4666 87.1361C80.0583 87.0639 78.9749 85.8723 79.0472 84.4639L79.1194 83.1639C79.1916 81.7556 80.4194 80.6723 81.8277 80.7806C83.2361 80.8528 84.2833 82.0806 84.2111 83.4889L84.1388 84.7167C84.0666 86.0889 82.9472 87.1361 81.6111 87.1361ZM82.5861 76.9889C82.4777 76.9889 82.3333 76.9889 82.225 76.9889C80.8166 76.8084 79.8777 75.5084 80.0583 74.1362C80.1305 73.7028 80.1666 73.2695 80.2388 72.8361C80.4555 71.4639 81.7555 70.4889 83.1277 70.7056C84.5 70.9223 85.475 72.2223 85.2583 73.5945C85.1861 73.9917 85.15 74.425 85.0777 74.8223C84.8972 76.0861 83.8138 77.025 82.55 77.025L82.5861 76.9889ZM84.5 67.0223C84.2833 67.0223 84.0666 67.0223 83.8861 66.95C82.5138 66.5889 81.7194 65.2167 82.0444 63.8445C82.1527 63.4111 82.2611 63.0139 82.3694 62.5806C82.7305 61.2084 84.1388 60.4139 85.475 60.8111C86.8472 61.1723 87.6416 62.5806 87.2444 63.9167C87.1361 64.3139 87.0277 64.7111 86.9194 65.1084C86.6305 66.2639 85.5833 67.0223 84.4638 67.0223H84.5ZM87.7138 57.3806C87.3888 57.3806 87.0638 57.3084 86.7388 57.2C85.4388 56.6584 84.8249 55.1778 85.3666 53.8778C85.5472 53.4806 85.7277 53.0473 85.8722 52.65C86.45 51.35 87.9305 50.7723 89.2305 51.35C90.5305 51.9278 91.1083 53.4084 90.5305 54.7084C90.35 55.0695 90.2055 55.4667 90.0611 55.8278C89.6638 56.8028 88.7249 57.3806 87.7138 57.3806ZM92.4444 48.3889C91.975 48.3889 91.4694 48.2445 91.0361 47.9556C89.8805 47.1611 89.5555 45.6084 90.3138 44.4167C90.5666 44.0556 90.8194 43.6584 91.0722 43.2973C91.8666 42.1417 93.4555 41.8889 94.6111 42.6834C95.7666 43.4778 96.0194 45.0667 95.225 46.2223C95.0083 46.5473 94.7555 46.8723 94.5388 47.1973C94.0333 47.9195 93.2388 48.3167 92.4083 48.3167L92.4444 48.3889ZM166.436 44.6695C166.003 44.6695 165.533 44.5611 165.136 44.3084L164.053 43.6584C162.825 42.9361 162.428 41.3834 163.15 40.1917C163.872 38.9639 165.425 38.5667 166.617 39.2889L167.736 39.9389C168.928 40.6611 169.325 42.2139 168.639 43.4056C168.169 44.2 167.303 44.6695 166.436 44.6695ZM99.0166 40.6973C98.3305 40.6973 97.6444 40.4084 97.1388 39.8667C96.2 38.8195 96.2722 37.2306 97.3194 36.2917C97.6444 36.0028 98.0055 35.6778 98.3305 35.3889C99.4138 34.4861 101.003 34.6306 101.906 35.6778C102.808 36.7612 102.664 38.35 101.617 39.2528C101.328 39.5056 101.003 39.7584 100.714 40.0473C100.244 40.4806 99.6305 40.6973 99.0166 40.6973ZM157.481 39.7945C157.119 39.7945 156.722 39.7223 156.361 39.5417C156 39.3611 155.603 39.1806 155.242 39C153.978 38.3861 153.436 36.8695 154.05 35.6056C154.664 34.3417 156.181 33.8 157.444 34.4139C157.842 34.5945 158.239 34.775 158.6 34.9917C159.864 35.6056 160.369 37.1223 159.756 38.3861C159.322 39.2889 158.419 39.7945 157.481 39.7945ZM148.164 35.75C147.875 35.75 147.55 35.7139 147.261 35.5695C146.864 35.425 146.503 35.2806 146.106 35.1362C144.769 34.6667 144.083 33.1862 144.589 31.8861C145.058 30.55 146.539 29.8639 147.839 30.3695C148.236 30.5139 148.669 30.6584 149.067 30.8028C150.367 31.3084 151.053 32.7528 150.547 34.0889C150.15 35.1 149.211 35.75 148.164 35.75ZM107.394 34.9917C106.456 34.9917 105.553 34.4861 105.119 33.5834C104.506 32.3195 105.011 30.8028 106.275 30.1889C106.672 29.9723 107.106 29.7917 107.503 29.6111C108.767 29.0334 110.283 29.6111 110.861 30.875C111.439 32.1389 110.861 33.6556 109.597 34.2334C109.236 34.3778 108.875 34.5584 108.514 34.7389C108.153 34.9195 107.756 34.9917 107.394 34.9917ZM138.45 32.7528C138.269 32.7528 138.053 32.7528 137.872 32.6806C137.475 32.5723 137.078 32.5 136.681 32.3917C135.308 32.1028 134.442 30.7306 134.731 29.3584C135.019 27.9861 136.392 27.1195 137.764 27.4084C138.197 27.5167 138.631 27.5889 139.028 27.6973C140.4 28.0223 141.231 29.3945 140.906 30.7667C140.617 31.9223 139.569 32.7167 138.45 32.7167V32.7528ZM117.036 31.8139C115.844 31.8139 114.761 30.9473 114.544 29.7556C114.292 28.3834 115.194 27.0473 116.567 26.7945C117 26.7223 117.469 26.65 117.903 26.5778C119.275 26.3611 120.575 27.3 120.792 28.7084C121.008 30.0806 120.069 31.3806 118.661 31.5973C118.264 31.6695 117.867 31.7417 117.506 31.8139C117.361 31.8139 117.181 31.85 117.036 31.85V31.8139ZM128.447 31.2C128.375 31.2 128.339 31.2 128.267 31.2C127.869 31.2 127.472 31.1639 127.075 31.1278C125.667 31.0556 124.583 29.9 124.656 28.4917C124.728 27.0834 125.883 26 127.292 26.0723C127.725 26.0723 128.194 26.1084 128.628 26.1445C130.036 26.2528 131.083 27.4445 131.011 28.8528C130.903 30.1889 129.819 31.2361 128.483 31.2361L128.447 31.2Z" fill="#4C4C4C"/>
<path d="M270.075 368.875C268.667 368.875 267.511 367.719 267.511 366.347C267.511 364.975 268.631 363.819 270.039 363.819C271.447 363.819 270.869 363.819 271.231 363.819C272.603 363.819 273.794 364.903 273.831 366.311C273.867 367.719 272.747 368.875 271.339 368.911C270.906 368.911 270.472 368.911 270.039 368.911L270.075 368.875ZM261.192 368.117C261.047 368.117 260.903 368.117 260.758 368.117C260.325 368.044 259.892 367.972 259.458 367.9C258.086 367.647 257.183 366.311 257.436 364.939C257.689 363.567 259.025 362.664 260.397 362.917C260.794 362.989 261.192 363.061 261.589 363.133C262.961 363.35 263.9 364.686 263.683 366.058C263.467 367.286 262.383 368.189 261.192 368.189V368.117ZM280.114 367.719C278.958 367.719 277.911 366.925 277.658 365.769C277.333 364.397 278.164 363.025 279.536 362.7C279.933 362.592 280.294 362.519 280.692 362.411C282.028 362.05 283.436 362.844 283.833 364.181C284.194 365.517 283.4 366.925 282.064 367.322C281.631 367.431 281.197 367.539 280.764 367.647C280.547 367.683 280.367 367.719 280.15 367.719H280.114ZM251.333 365.697C251.081 365.697 250.828 365.661 250.575 365.589C250.178 365.444 249.744 365.336 249.311 365.192C247.975 364.758 247.253 363.314 247.722 361.978C248.156 360.642 249.6 359.919 250.936 360.389C251.333 360.533 251.731 360.642 252.092 360.786C253.428 361.219 254.186 362.628 253.753 363.964C253.392 365.047 252.417 365.733 251.333 365.733V365.697ZM289.539 364.036C288.636 364.036 287.806 363.567 287.336 362.736C286.65 361.508 287.083 359.956 288.311 359.269C288.672 359.089 288.997 358.872 289.322 358.656C290.514 357.933 292.067 358.294 292.825 359.486C293.547 360.678 293.186 362.267 291.994 362.989C291.597 363.242 291.2 363.458 290.839 363.675C290.442 363.892 290.008 364 289.611 364L289.539 364.036ZM241.836 362.086C241.475 362.086 241.15 362.014 240.825 361.869C240.428 361.689 240.031 361.508 239.633 361.328C238.369 360.75 237.792 359.233 238.369 357.969C238.947 356.706 240.464 356.128 241.728 356.706C242.089 356.886 242.486 357.031 242.847 357.211C244.147 357.789 244.725 359.269 244.147 360.569C243.714 361.508 242.811 362.086 241.836 362.086ZM297.592 357.897C296.942 357.897 296.292 357.644 295.786 357.175C294.775 356.2 294.775 354.575 295.786 353.564C296.075 353.275 296.328 352.986 296.617 352.697C297.556 351.686 299.181 351.614 300.192 352.553C301.203 353.492 301.275 355.117 300.336 356.128C300.011 356.453 299.722 356.778 299.397 357.103C298.892 357.608 298.242 357.861 297.592 357.861V357.897ZM232.7 357.572C232.303 357.572 231.869 357.464 231.472 357.247C231.111 357.031 230.714 356.814 230.353 356.633C229.125 355.947 228.692 354.394 229.378 353.167C230.064 351.939 231.617 351.506 232.844 352.192C233.206 352.408 233.567 352.589 233.928 352.806C235.156 353.492 235.625 355.008 234.939 356.272C234.469 357.103 233.603 357.608 232.7 357.608V357.572ZM223.997 352.372C223.528 352.372 223.058 352.228 222.625 351.975L221.542 351.253C220.35 350.494 220.025 348.906 220.819 347.75C221.578 346.558 223.167 346.233 224.322 347.028L225.369 347.714C226.561 348.472 226.886 350.061 226.128 351.217C225.658 351.975 224.828 352.372 223.997 352.372ZM303.803 349.881C303.369 349.881 302.9 349.772 302.503 349.519C301.311 348.797 300.914 347.208 301.636 346.017C301.853 345.692 302.033 345.331 302.25 344.969C302.936 343.742 304.489 343.308 305.717 344.031C306.944 344.717 307.342 346.269 306.656 347.497C306.439 347.894 306.222 348.256 305.969 348.653C305.5 349.447 304.669 349.881 303.803 349.881ZM215.619 346.594C215.114 346.594 214.572 346.45 214.139 346.089L213.092 345.331C211.972 344.5 211.719 342.911 212.55 341.792C213.381 340.672 214.969 340.419 216.089 341.25L217.1 342.008C218.219 342.839 218.472 344.428 217.642 345.547C217.136 346.233 216.378 346.594 215.583 346.594H215.619ZM308.208 340.708C307.919 340.708 307.594 340.672 307.306 340.528C306.006 340.022 305.319 338.578 305.825 337.242C305.969 336.881 306.114 336.483 306.258 336.086C306.728 334.75 308.172 334.064 309.508 334.533C310.844 335.003 311.531 336.447 311.061 337.783C310.917 338.217 310.772 338.614 310.592 339.011C310.194 340.022 309.256 340.636 308.208 340.636V340.708ZM207.567 340.383C206.989 340.383 206.447 340.203 205.978 339.806L204.967 339.011C203.883 338.108 203.739 336.519 204.606 335.436C205.508 334.353 207.097 334.208 208.181 335.075L209.156 335.869C210.239 336.736 210.419 338.361 209.517 339.444C209.011 340.058 208.289 340.383 207.531 340.383H207.567ZM199.803 333.811C199.189 333.811 198.611 333.594 198.106 333.161L197.131 332.294C196.083 331.356 196.011 329.767 196.95 328.719C197.889 327.672 199.478 327.6 200.525 328.539L201.464 329.369C202.511 330.308 202.619 331.897 201.681 332.944C201.175 333.522 200.489 333.811 199.767 333.811H199.803ZM311.133 330.994C310.953 330.994 310.772 330.994 310.556 330.922C309.183 330.597 308.317 329.261 308.642 327.889C308.75 327.492 308.822 327.094 308.894 326.697C309.183 325.325 310.556 324.458 311.928 324.747C313.3 325.036 314.167 326.408 313.878 327.781C313.769 328.214 313.697 328.647 313.589 329.044C313.336 330.236 312.289 331.031 311.097 331.031L311.133 330.994ZM192.328 326.914C191.714 326.914 191.064 326.697 190.558 326.192L189.619 325.289C188.608 324.314 188.572 322.689 189.547 321.678C190.522 320.667 192.147 320.631 193.158 321.606L194.061 322.472C195.072 323.447 195.108 325.036 194.133 326.083C193.628 326.589 192.978 326.878 192.292 326.878L192.328 326.914ZM312.867 320.992C312.758 320.992 312.65 320.992 312.542 320.992C311.133 320.811 310.158 319.547 310.339 318.175C310.375 317.778 310.447 317.344 310.483 316.947C310.628 315.539 311.892 314.528 313.3 314.708C314.708 314.853 315.719 316.117 315.539 317.525C315.503 317.958 315.431 318.392 315.394 318.825C315.25 320.125 314.131 321.064 312.867 321.064V320.992ZM185.106 319.764C184.456 319.764 183.769 319.511 183.3 319.006L182.397 318.067C181.422 317.056 181.458 315.431 182.469 314.456C183.481 313.481 185.106 313.517 186.081 314.528L186.947 315.431C187.922 316.442 187.886 318.031 186.911 319.042C186.406 319.511 185.792 319.764 185.142 319.764H185.106ZM178.136 312.361C177.45 312.361 176.764 312.072 176.258 311.531L175.392 310.592C174.453 309.544 174.525 307.956 175.572 307.017C176.619 306.078 178.208 306.15 179.147 307.197L179.978 308.136C180.917 309.183 180.844 310.772 179.797 311.711C179.328 312.144 178.714 312.361 178.1 312.361H178.136ZM313.625 310.844C313.625 310.844 313.553 310.844 313.517 310.844C312.108 310.808 311.025 309.617 311.061 308.208V306.944C311.133 305.536 312.289 304.417 313.697 304.489C315.106 304.525 316.189 305.681 316.153 307.089V308.389C316.044 309.761 314.925 310.844 313.589 310.844H313.625Z" fill="#4C4C4C"/>
</svg>
