<svg width="96" height="64" viewBox="0 0 96 64" fill="none" xmlns="http://www.w3.org/2000/svg">
<path d="M87.5782 61.275H8.56147C7.80656 61.275 7.20001 60.6704 7.20001 59.9276V28.3508H9.92728V58.5802H86.2167V28.3508H88.944V59.9276C88.944 60.6747 88.3331 61.275 87.5826 61.275H87.5782Z" fill="#00223C"/>
<path d="M48.0698 40.5333C41.6116 40.5333 35.4327 40.2354 29.6989 39.6524C29.0051 39.5833 28.4771 39.0003 28.4771 38.3093V34.8891H24.9687V37.519C24.9687 37.912 24.7942 38.2877 24.4931 38.5425C24.192 38.7973 23.7905 38.9096 23.3978 38.8491C12.6545 37.1822 7.20435 34.6818 7.20435 31.4257V13.383C7.20435 12.6359 7.81525 12.0356 8.5658 12.0356H87.5825C88.3374 12.0356 88.944 12.6402 88.944 13.383V31.4257C88.944 34.7466 83.3192 37.2729 72.2225 38.9312C71.8298 38.9917 71.4327 38.8751 71.1316 38.6203C70.8305 38.3655 70.656 37.9898 70.656 37.5968V34.8891H67.1476V38.3698C67.1476 39.0651 66.6152 39.6437 65.9171 39.7128C60.3272 40.257 54.3272 40.5333 48.0742 40.5333H48.0698ZM31.2 37.0872C36.4494 37.5752 42.2531 37.8343 48.0698 37.8343C53.8865 37.8343 59.2669 37.6011 64.416 37.139V33.5374C64.416 32.7903 65.0269 32.19 65.7774 32.19H72.0131C72.768 32.19 73.3745 32.7946 73.3745 33.5374V36.0119C83.8036 34.2845 86.2123 32.0864 86.2123 31.4213V14.7261H9.92725V31.4213C9.92725 32.0648 12.24 34.2024 22.2414 35.9212V33.5331C22.2414 32.786 22.8523 32.1857 23.6029 32.1857H29.8385C30.5934 32.1857 31.2 32.7903 31.2 33.5331V37.0829V37.0872Z" fill="#00223C"/>
<path d="M60.8945 13.3788H58.1673V6.26622C58.1673 5.4198 57.4691 4.72884 56.6138 4.72884H39.5302C38.6749 4.72884 37.9767 5.4198 37.9767 6.26622V13.3788H35.2495V6.26622C35.2495 3.92992 37.1695 2.02979 39.5302 2.02979H56.6138C58.9745 2.02979 60.8945 3.92992 60.8945 6.26622V13.3788Z" fill="#00223C"/>
<path d="M29.8385 43.7074H23.6029C22.848 43.7074 22.2415 43.1028 22.2415 42.3601V33.5417C22.2415 32.7946 22.8524 32.1943 23.6029 32.1943H29.8385C30.5935 32.1943 31.2 32.7989 31.2 33.5417V42.3601C31.2 43.1072 30.5891 43.7074 29.8385 43.7074ZM24.9644 41.0084H28.4727V34.8848H24.9644V41.0084Z" fill="#00223C"/>
<path d="M72.0131 43.7074H65.7775C65.0226 43.7074 64.416 43.1028 64.416 42.3601V33.5417C64.416 32.7946 65.0269 32.1943 65.7775 32.1943H72.0131C72.768 32.1943 73.3746 32.7989 73.3746 33.5417V42.3601C73.3746 43.1072 72.7637 43.7074 72.0131 43.7074ZM67.1433 41.0084H70.6517V34.8848H67.1433V41.0084Z" fill="#00223C"/>
</svg>
