<svg width="332" height="579" viewBox="0 0 332 579" fill="none" xmlns="http://www.w3.org/2000/svg">
<path d="M287.711 573.018C287.308 573.018 286.904 572.883 286.501 572.614C285.56 571.942 285.359 570.665 286.031 569.724C286.837 568.581 287.577 567.506 288.383 566.363C289.055 565.422 290.332 565.153 291.273 565.826C292.214 566.498 292.483 567.775 291.811 568.716C291.004 569.858 290.198 571.001 289.391 572.144C288.988 572.682 288.383 573.018 287.711 573.018ZM295.574 560.852C295.238 560.852 294.835 560.784 294.499 560.583C293.491 559.978 293.222 558.701 293.76 557.76C294.432 556.55 295.104 555.407 295.776 554.197C296.313 553.189 297.59 552.853 298.598 553.391C299.606 553.928 299.943 555.205 299.405 556.214C298.733 557.423 297.994 558.633 297.321 559.843C296.918 560.515 296.246 560.852 295.507 560.852H295.574ZM302.429 548.08C302.16 548.08 301.824 548.08 301.555 547.879C300.547 547.408 300.077 546.131 300.615 545.123C301.219 543.913 301.757 542.636 302.362 541.426C302.832 540.418 304.042 539.947 305.117 540.418C306.126 540.888 306.596 542.098 306.126 543.174C305.521 544.451 304.983 545.728 304.378 547.005C304.042 547.744 303.303 548.148 302.496 548.148L302.429 548.08ZM308.209 534.772C307.94 534.772 307.738 534.772 307.47 534.637C306.394 534.234 305.857 533.024 306.26 531.949C306.73 530.671 307.201 529.394 307.671 528.117C308.075 527.042 309.217 526.504 310.292 526.84C311.368 527.243 311.905 528.386 311.569 529.462C311.099 530.806 310.628 532.083 310.091 533.36C309.755 534.167 309.015 534.704 308.142 534.704L308.209 534.772ZM312.846 521.06C312.645 521.06 312.443 521.06 312.241 520.992C311.166 520.656 310.494 519.514 310.83 518.438C311.233 517.161 311.569 515.817 311.972 514.472C312.241 513.397 313.384 512.725 314.526 512.994C315.602 513.262 316.274 514.405 316.005 515.548C315.669 516.892 315.266 518.236 314.862 519.581C314.594 520.455 313.787 521.06 312.846 521.06ZM316.408 506.944C316.274 506.944 316.139 506.944 316.005 506.944C314.862 506.675 314.19 505.6 314.392 504.524C314.661 503.18 314.93 501.836 315.198 500.491C315.4 499.349 316.475 498.609 317.618 498.811C318.76 499.013 319.5 500.088 319.298 501.231C319.029 502.575 318.76 503.987 318.492 505.331C318.29 506.272 317.416 506.944 316.475 506.944H316.408ZM318.828 492.694C318.76 492.694 318.626 492.694 318.559 492.694C317.416 492.56 316.61 491.484 316.744 490.409C316.946 489.065 317.08 487.72 317.215 486.309C317.349 485.166 318.357 484.36 319.5 484.494C320.642 484.628 321.449 485.637 321.314 486.779C321.18 488.191 320.978 489.535 320.844 490.947C320.709 492.022 319.836 492.762 318.76 492.762L318.828 492.694ZM320.104 478.243C320.104 478.243 320.037 478.243 319.97 478.243C318.828 478.243 317.954 477.235 318.021 476.092C318.021 474.748 318.155 473.336 318.155 471.992C318.155 470.849 319.231 469.975 320.306 469.975C321.449 469.975 322.322 470.984 322.322 472.126C322.322 473.538 322.255 474.949 322.188 476.294C322.188 477.369 321.247 478.243 320.104 478.243ZM320.239 463.724C319.096 463.724 318.223 462.85 318.155 461.708C318.155 460.363 318.021 458.952 317.954 457.607C317.954 456.465 318.76 455.457 319.903 455.457C321.045 455.457 322.053 456.263 322.053 457.406C322.121 458.817 322.188 460.229 322.255 461.573C322.255 462.716 321.381 463.657 320.239 463.724ZM319.164 449.273C318.155 449.273 317.215 448.466 317.08 447.458C316.946 446.114 316.744 444.769 316.543 443.425C316.408 442.282 317.147 441.274 318.29 441.072C319.432 440.938 320.441 441.677 320.642 442.82C320.844 444.231 320.978 445.576 321.18 446.987C321.314 448.13 320.508 449.138 319.365 449.273C319.298 449.273 319.231 449.273 319.096 449.273H319.164ZM316.879 434.956C315.938 434.956 315.064 434.283 314.862 433.275C314.594 431.931 314.325 430.587 313.989 429.31C313.72 428.167 314.459 427.091 315.534 426.822C316.677 426.554 317.752 427.293 318.021 428.368C318.357 429.713 318.626 431.124 318.895 432.469C319.096 433.611 318.357 434.687 317.282 434.888C317.147 434.888 317.013 434.888 316.879 434.888V434.956ZM313.451 420.907C312.577 420.907 311.704 420.303 311.435 419.429C311.032 418.152 310.628 416.807 310.225 415.53C309.889 414.455 310.494 413.245 311.569 412.909C312.645 412.573 313.854 413.178 314.19 414.253C314.594 415.597 314.997 416.942 315.4 418.286C315.736 419.361 315.064 420.504 313.989 420.84C313.787 420.84 313.585 420.907 313.384 420.907H313.451ZM308.747 407.128C307.94 407.128 307.134 406.658 306.798 405.784C306.327 404.507 305.79 403.23 305.252 402.02C304.849 400.944 305.252 399.734 306.394 399.331C307.47 398.928 308.679 399.331 309.083 400.474C309.62 401.751 310.158 403.028 310.628 404.372C311.032 405.448 310.494 406.658 309.419 407.061C309.15 407.128 308.948 407.195 308.679 407.195L308.747 407.128ZM303.034 393.887C302.295 393.887 301.555 393.483 301.152 392.744C300.547 391.534 299.943 390.257 299.338 389.047C298.8 388.039 299.203 386.762 300.279 386.291C301.287 385.753 302.564 386.157 303.034 387.232C303.639 388.442 304.311 389.719 304.916 390.996C305.386 392.005 304.916 393.282 303.975 393.752C303.706 393.887 303.37 393.954 303.101 393.954L303.034 393.887ZM296.246 381.048C295.507 381.048 294.835 380.645 294.432 380.04C293.76 378.83 293.087 377.687 292.348 376.478C291.743 375.469 292.079 374.192 293.087 373.655C294.096 373.05 295.372 373.386 295.91 374.394C296.649 375.604 297.321 376.814 298.061 378.024C298.598 379.032 298.262 380.309 297.321 380.847C296.985 381.048 296.649 381.116 296.313 381.116L296.246 381.048ZM288.652 368.681C287.98 368.681 287.308 368.344 286.904 367.739C286.165 366.597 285.359 365.454 284.619 364.311C283.947 363.37 284.216 362.093 285.157 361.421C286.098 360.749 287.375 361.018 288.047 361.959C288.853 363.102 289.66 364.244 290.399 365.387C291.004 366.328 290.802 367.605 289.794 368.277C289.458 368.479 289.055 368.613 288.652 368.613V368.681ZM280.184 356.918C279.579 356.918 278.907 356.649 278.504 356.111C277.697 355.036 276.824 353.96 276.017 352.885C275.345 352.011 275.479 350.667 276.353 349.994C277.227 349.255 278.571 349.457 279.243 350.331C280.117 351.406 280.923 352.549 281.797 353.624C282.469 354.565 282.334 355.842 281.394 356.514C280.99 356.783 280.587 356.918 280.117 356.918H280.184ZM271.111 345.625C270.506 345.625 269.968 345.357 269.565 344.886C268.692 343.811 267.751 342.802 266.877 341.794C266.138 340.92 266.205 339.643 267.079 338.904C267.952 338.164 269.229 338.232 269.968 339.105C270.909 340.181 271.783 341.189 272.724 342.265C273.463 343.138 273.329 344.415 272.455 345.155C272.052 345.491 271.581 345.625 271.111 345.625ZM261.433 334.804C260.896 334.804 260.358 334.602 259.955 334.131C259.014 333.123 258.073 332.115 257.132 331.174C256.326 330.367 256.393 329.023 257.132 328.216C257.938 327.41 259.283 327.477 260.089 328.216C261.03 329.225 262.038 330.233 262.979 331.241C263.785 332.048 263.718 333.392 262.912 334.199C262.509 334.602 261.971 334.736 261.5 334.736L261.433 334.804ZM251.285 324.452C250.747 324.452 250.277 324.251 249.874 323.847C248.866 322.906 247.925 321.965 246.917 320.957C246.11 320.15 246.043 318.873 246.849 318C247.656 317.193 248.933 317.126 249.807 317.932C250.815 318.873 251.823 319.882 252.831 320.823C253.637 321.629 253.637 322.906 252.831 323.78C252.428 324.183 251.89 324.385 251.352 324.385L251.285 324.452ZM240.734 314.504C240.263 314.504 239.726 314.303 239.322 313.967C238.314 313.026 237.306 312.152 236.231 311.211C235.357 310.471 235.29 309.127 236.029 308.32C236.768 307.447 238.113 307.379 238.919 308.119C239.927 309.06 241.002 309.934 242.011 310.875C242.884 311.614 242.951 312.958 242.145 313.765C241.742 314.235 241.204 314.437 240.599 314.437L240.734 314.504ZM229.779 304.96C229.309 304.96 228.838 304.825 228.435 304.489C227.36 303.615 226.351 302.741 225.276 301.868C224.402 301.128 224.268 299.851 225.007 298.977C225.747 298.104 227.023 297.969 227.897 298.709C228.972 299.582 230.048 300.456 231.123 301.397C231.997 302.137 232.131 303.414 231.392 304.287C230.989 304.758 230.384 305.027 229.779 305.027V304.96ZM218.555 295.818C218.085 295.818 217.682 295.684 217.279 295.348L214.053 292.793C213.179 292.121 212.977 290.777 213.717 289.903C214.389 289.029 215.733 288.828 216.606 289.567L219.9 292.121C220.773 292.861 220.975 294.138 220.236 295.012C219.832 295.549 219.228 295.818 218.623 295.818H218.555ZM207.063 286.946C206.66 286.946 206.189 286.811 205.853 286.542L202.56 284.055C201.619 283.383 201.485 282.106 202.157 281.165C202.829 280.224 204.106 280.09 205.047 280.762L208.34 283.249C209.281 283.921 209.415 285.265 208.743 286.139C208.34 286.677 207.735 286.946 207.063 286.946ZM195.436 278.342C195.033 278.342 194.563 278.208 194.227 277.939L190.866 275.519C189.926 274.847 189.724 273.57 190.396 272.629C191.068 271.688 192.345 271.486 193.286 272.158L196.646 274.578C197.587 275.25 197.789 276.527 197.117 277.468C196.713 278.006 196.109 278.342 195.436 278.342ZM183.608 269.94C183.205 269.94 182.802 269.806 182.398 269.537L179.038 267.184C178.097 266.512 177.896 265.235 178.568 264.294C179.24 263.353 180.517 263.151 181.458 263.823L184.818 266.243C185.759 266.915 185.96 268.192 185.288 269.133C184.885 269.738 184.213 270.007 183.608 270.007V269.94ZM171.713 261.605C171.309 261.605 170.906 261.471 170.503 261.202L167.075 258.849C166.134 258.177 165.933 256.9 166.538 255.959C167.21 255.018 168.487 254.749 169.428 255.421L172.855 257.774C173.796 258.446 173.998 259.723 173.393 260.664C172.989 261.269 172.317 261.538 171.713 261.538V261.605ZM159.817 253.338C159.414 253.338 159.011 253.203 158.675 253.002L155.247 250.649C154.306 249.977 154.104 248.7 154.709 247.759C155.381 246.818 156.658 246.549 157.599 247.221L161.027 249.574C161.968 250.246 162.236 251.523 161.564 252.464C161.161 253.069 160.489 253.338 159.884 253.338H159.817ZM147.921 245.07C147.518 245.07 147.115 244.936 146.712 244.667L143.284 242.314C142.343 241.642 142.142 240.365 142.747 239.424C143.419 238.483 144.696 238.281 145.636 238.886L148.997 241.239C149.938 241.911 150.139 243.188 149.534 244.129C149.131 244.734 148.459 245.003 147.854 245.003L147.921 245.07ZM136.026 236.735C135.623 236.735 135.219 236.601 134.816 236.332L131.456 233.912C130.515 233.24 130.313 231.963 130.985 231.022C131.658 230.081 132.934 229.879 133.875 230.551L137.236 232.971C138.177 233.643 138.378 234.92 137.706 235.861C137.303 236.399 136.631 236.735 136.026 236.735ZM124.265 228.266C123.862 228.266 123.391 228.132 123.055 227.863C121.913 227.056 120.837 226.249 119.695 225.376C118.754 224.704 118.552 223.426 119.292 222.485C119.964 221.544 121.241 221.343 122.181 222.082C123.257 222.889 124.399 223.695 125.542 224.502C126.483 225.174 126.684 226.451 126.012 227.392C125.609 227.93 125.004 228.266 124.332 228.266H124.265ZM112.638 219.595C112.168 219.595 111.764 219.461 111.361 219.192C110.286 218.318 109.143 217.511 108.068 216.638C107.194 215.965 106.993 214.621 107.665 213.747C108.337 212.873 109.681 212.672 110.555 213.344C111.63 214.218 112.705 215.024 113.848 215.831C114.789 216.503 114.923 217.847 114.251 218.721C113.848 219.259 113.243 219.528 112.571 219.528L112.638 219.595ZM101.28 210.655C100.81 210.655 100.339 210.521 100.003 210.185C98.9279 209.311 97.8526 208.437 96.7773 207.563C95.9037 206.824 95.7692 205.547 96.5085 204.673C97.2478 203.799 98.5247 203.665 99.3984 204.404C100.474 205.278 101.549 206.152 102.624 207.026C103.498 207.765 103.632 209.042 102.96 209.916C102.557 210.454 101.952 210.655 101.347 210.655H101.28ZM90.0567 201.38C89.5862 201.38 89.1158 201.245 88.7126 200.842C87.6373 199.901 86.6292 199.027 85.5539 198.086C84.6802 197.347 84.613 196.002 85.4194 195.128C86.1587 194.255 87.5028 194.187 88.3765 194.994C89.3846 195.935 90.3927 196.809 91.468 197.683C92.3417 198.422 92.4089 199.766 91.6696 200.573C91.2664 201.043 90.6616 201.312 90.1239 201.312L90.0567 201.38ZM79.5725 191.364C79.0348 191.364 78.43 191.163 78.0267 190.692C77.0858 189.617 76.1449 188.608 75.2041 187.466C74.4648 186.592 74.5992 185.315 75.4729 184.575C76.3466 183.836 77.6235 183.971 78.3628 184.844C79.2364 185.853 80.1101 186.861 81.051 187.869C81.8575 188.743 81.7903 190.02 80.9166 190.827C80.5134 191.163 80.0429 191.364 79.5053 191.364H79.5725ZM70.9028 179.803C70.1636 179.803 69.4915 179.467 69.0883 178.795C68.9539 178.526 68.7522 178.257 68.6178 177.988C68.0802 176.98 67.5425 175.972 67.0721 174.964C66.6016 173.955 67.0721 172.678 68.0802 172.208C69.1555 171.737 70.3652 172.208 70.8356 173.216C71.3061 174.157 71.7765 175.098 72.247 175.972L72.6502 176.711C73.2551 177.719 72.919 178.997 71.9109 179.534C71.5749 179.736 71.2389 179.803 70.9028 179.803ZM65.7951 166.293C64.8543 166.293 63.9806 165.621 63.7789 164.612C63.5101 163.201 63.3085 161.722 63.1741 160.31C63.0397 159.168 63.9134 158.16 65.0559 158.092C66.1984 158.025 67.2065 158.832 67.2737 159.974C67.4081 161.251 67.6097 162.529 67.8113 163.873C68.013 165.016 67.3409 166.091 66.1984 166.293C66.064 166.293 65.9296 166.293 65.7951 166.293ZM91.4008 152.917C91.2664 152.917 91.132 152.917 90.9304 152.917C89.5863 152.648 88.1749 152.177 86.6964 151.707C85.6211 151.303 85.0834 150.161 85.4194 149.085C85.8227 148.01 86.9652 147.472 88.0405 147.808C89.3846 148.279 90.5943 148.682 91.7369 148.884C92.8794 149.153 93.5514 150.228 93.2826 151.371C93.081 152.312 92.2073 152.984 91.2664 152.984L91.4008 152.917ZM65.7951 151.908C65.6607 151.908 65.4591 151.908 65.3247 151.908C64.1822 151.64 63.5101 150.564 63.7789 149.421C64.115 147.943 64.5182 146.531 65.0559 145.187C65.4591 144.111 66.6688 143.574 67.7441 143.977C68.8194 144.38 69.3571 145.59 68.9538 146.666C68.4834 147.875 68.1474 149.085 67.8113 150.362C67.6097 151.303 66.736 151.976 65.7951 151.976V151.908ZM101.347 151.572C100.743 151.572 100.138 151.303 99.6672 150.766C98.9952 149.825 99.1296 148.548 100.07 147.875C100.205 147.808 100.272 147.674 100.406 147.607C101.079 147.002 101.549 146.329 101.818 145.523C102.221 144.447 103.431 143.91 104.506 144.313C105.581 144.716 106.119 145.926 105.716 147.002C105.178 148.413 104.304 149.69 103.162 150.766C102.96 150.9 102.759 151.102 102.624 151.236C102.221 151.505 101.818 151.64 101.347 151.64V151.572ZM77.8923 147.674C77.5563 147.674 77.2875 147.674 77.0186 147.472C75.7417 146.867 74.4648 146.195 73.2551 145.523C72.247 144.985 71.8437 143.708 72.4486 142.7C72.9862 141.692 74.2632 141.288 75.2713 141.893C76.481 142.565 77.6907 143.17 78.9004 143.775C79.9085 144.246 80.379 145.523 79.8413 146.531C79.5053 147.271 78.766 147.674 77.9595 147.674H77.8923ZM65.3247 140.414C64.9215 140.414 64.5182 140.28 64.1822 140.078C63.0397 139.272 61.8972 138.465 60.7547 137.659C59.8138 136.986 59.6122 135.709 60.3514 134.768C61.0235 133.827 62.3004 133.626 63.2413 134.365C64.3166 135.172 65.4591 135.978 66.5344 136.718C67.4753 137.39 67.7441 138.667 67.0721 139.608C66.6688 140.213 65.9968 140.482 65.3247 140.482V140.414ZM72.6502 139.406C72.1126 139.406 71.5749 139.205 71.1717 138.801C70.3652 137.995 70.3652 136.65 71.1717 135.844C72.247 134.836 73.3895 133.827 74.5992 132.953C75.5401 132.281 76.817 132.483 77.4891 133.424C78.1611 134.365 77.9595 135.642 77.0186 136.314C76.0105 137.054 75.0024 137.86 74.1288 138.734C73.7255 139.137 73.1879 139.339 72.6502 139.339V139.406ZM101.885 138.532C101.213 138.532 100.608 138.196 100.205 137.659C99.5328 136.65 98.7263 135.777 97.7854 135.037C96.9118 134.298 96.7773 133.021 97.5166 132.147C98.2559 131.273 99.5328 131.139 100.406 131.878C101.616 132.886 102.692 134.029 103.632 135.306C104.304 136.247 104.036 137.524 103.095 138.196C102.759 138.465 102.355 138.6 101.885 138.6V138.532ZM85.285 132.617C84.2769 132.617 83.4705 131.945 83.2688 130.937C83.0672 129.794 83.8065 128.719 84.949 128.517C86.3603 128.248 87.7045 128.114 89.1158 128.114H89.519C90.6615 128.114 91.6024 129.055 91.5352 130.198C91.5352 131.34 90.5271 132.214 89.4518 132.214H89.1158C88.0405 132.214 86.898 132.349 85.7555 132.55C85.6211 132.55 85.4866 132.55 85.3522 132.55L85.285 132.617ZM53.9668 131.475C53.4964 131.475 52.9587 131.273 52.5555 130.937C51.4802 129.996 50.4721 129.055 49.464 128.047C48.6575 127.24 48.6575 125.963 49.464 125.089C50.2704 124.283 51.5474 124.283 52.4211 125.089C53.3619 126.03 54.37 126.971 55.3781 127.845C56.2518 128.584 56.319 129.929 55.5126 130.803C55.1093 131.273 54.5717 131.475 53.9668 131.475ZM43.8858 121.056C43.281 121.056 42.6761 120.787 42.2729 120.317C41.3992 119.241 40.4583 118.166 39.6518 117.023C38.9798 116.149 39.1142 114.805 40.0551 114.133C40.9287 113.461 42.2729 113.595 42.9449 114.536C43.7514 115.612 44.6251 116.687 45.4988 117.695C46.2381 118.569 46.1036 119.846 45.23 120.586C44.8267 120.922 44.3563 121.056 43.8858 121.056ZM35.4178 109.293C34.7458 109.293 34.0737 108.957 33.6704 108.285C32.9312 107.075 32.1919 105.865 31.5198 104.655C30.9822 103.647 31.3182 102.37 32.3263 101.832C33.3344 101.295 34.6113 101.631 35.149 102.639C35.8211 103.849 36.4931 104.992 37.2324 106.134C37.8372 107.075 37.5012 108.352 36.5603 108.957C36.2243 109.159 35.8211 109.293 35.485 109.293H35.4178ZM28.7644 96.3879C27.9579 96.3879 27.2186 95.9174 26.8826 95.1108C26.3449 93.8337 25.8073 92.4893 25.2696 91.2122C24.8664 90.1368 25.4041 88.9269 26.4794 88.5236C27.5547 88.1203 28.7644 88.658 29.1676 89.7335C29.6381 91.0106 30.1757 92.2205 30.7134 93.4976C31.1838 94.5731 30.7134 95.7829 29.6381 96.1862C29.3692 96.3207 29.1004 96.3207 28.8316 96.3207L28.7644 96.3879ZM24.0599 82.743C23.119 82.743 22.3126 82.1381 22.0437 81.197C21.7077 79.8527 21.3717 78.4412 21.0356 77.0968C20.7668 75.9542 21.5061 74.8787 22.5814 74.6098C23.7239 74.341 24.7992 75.0804 25.068 76.1558C25.3368 77.5001 25.6729 78.7772 26.0089 80.1216C26.2777 81.197 25.6729 82.3397 24.5304 82.6758C24.3287 82.6758 24.1943 82.743 23.9927 82.743H24.0599ZM21.3717 68.4932C20.3636 68.4932 19.4227 67.6866 19.2883 66.6783C19.1538 65.2668 18.9522 63.8553 18.885 62.4437C18.8178 61.301 19.6243 60.2928 20.7668 60.2256C21.9093 60.1584 22.9174 60.965 22.9846 62.1076C23.119 63.452 23.2534 64.7963 23.3879 66.1406C23.5223 67.2833 22.7158 68.2915 21.5733 68.426C21.5061 68.426 21.4389 68.426 21.3045 68.426L21.3717 68.4932ZM20.6324 53.9745C19.4899 53.9745 18.6162 53.0335 18.6162 51.8908C18.6162 50.4792 18.6834 49.0677 18.8178 47.6562C18.885 46.5135 19.8931 45.6397 21.0356 45.7069C22.1781 45.7741 23.0518 46.7824 22.9846 47.925C22.9174 49.2694 22.8502 50.6137 22.8502 51.958C22.8502 53.1007 21.9093 53.9745 20.7668 53.9745H20.6324ZM21.9765 39.5902C21.8421 39.5902 21.7749 39.5902 21.6405 39.5902C20.498 39.3886 19.7587 38.3131 19.9603 37.2377C20.1619 35.8261 20.4308 34.4818 20.6996 33.0703C20.9012 31.9276 22.0437 31.2554 23.119 31.4571C24.2615 31.6587 24.9336 32.8014 24.732 33.8769C24.4632 35.2212 24.1943 36.4983 23.9927 37.8426C23.8583 38.8508 22.9174 39.5902 21.9765 39.5902ZM25.3368 25.4748C25.1352 25.4748 24.9336 25.4748 24.732 25.4076C23.6567 25.0715 23.0518 23.9289 23.3879 22.7862C23.7911 21.4419 24.2615 20.0975 24.732 18.7532C25.1352 17.6778 26.3449 17.14 27.353 17.5433C28.4283 17.9466 28.966 19.1565 28.5628 20.1648C28.0923 21.4419 27.6891 22.719 27.2858 23.9961C27.017 24.8699 26.2105 25.4076 25.3368 25.4076V25.4748Z" fill="black"/>
</svg>
