<svg width="376" height="413" viewBox="0 0 376 413" fill="none" xmlns="http://www.w3.org/2000/svg">
<g clip-path="url(#clip0_427_170)">
<path d="M246.569 248.289C245.909 248.705 245.248 249.12 244.588 249.536C243.5 250.22 242.019 249.849 241.372 248.735C240.687 247.646 241.106 246.242 242.17 245.519C243.452 244.713 244.773 243.882 246.056 243.075C247.183 242.366 248.615 242.66 249.3 243.749C249.985 244.838 249.717 246.31 248.629 246.994C247.93 247.434 247.23 247.874 246.569 248.289ZM234.253 255.005C234.175 255.053 234.097 255.102 234.019 255.151C232.561 255.851 231.118 256.488 229.65 257.085C228.464 257.614 227.065 257.028 226.574 255.817C226.084 254.605 226.629 253.231 227.839 252.741C229.244 252.129 230.649 251.517 232.029 250.866C233.191 250.298 234.604 250.821 235.172 251.983C235.692 253.068 235.302 254.345 234.291 254.98L234.253 255.005ZM258.034 240.047C257.024 240.682 255.704 240.481 254.952 239.543C254.15 238.527 254.316 237.066 255.306 236.226C256.49 235.264 257.65 234.263 258.81 233.262C259.776 232.383 261.251 232.486 262.131 233.453C263.01 234.42 262.869 235.92 261.942 236.775C260.743 237.8 259.505 238.85 258.282 239.837C258.204 239.886 258.127 239.935 258.049 239.984L258.034 240.047ZM270.074 228.837C269.18 229.4 268.036 229.305 267.24 228.557C266.307 227.678 266.244 226.198 267.098 225.226C268.121 224.094 269.183 222.938 270.182 221.767C271.035 220.795 272.529 220.67 273.501 221.525C274.472 222.38 274.599 223.874 273.745 224.845C272.708 226.041 271.631 227.261 270.569 228.418C270.438 228.554 270.268 228.715 270.113 228.813L270.074 228.837ZM218.91 260.963C218.755 261.06 218.561 261.183 218.356 261.203C216.815 261.684 215.288 262.101 213.736 262.48C212.467 262.79 211.199 262.067 210.888 260.797C210.577 259.527 211.298 258.259 212.568 257.949C214.056 257.556 215.544 257.163 216.983 256.692C218.204 256.304 219.535 257.041 219.924 258.263C220.253 259.304 219.804 260.401 218.949 260.938L218.91 260.963ZM280.434 216.079C279.657 216.568 278.625 216.565 277.849 216.022C276.785 215.279 276.518 213.819 277.259 212.755C278.145 211.492 278.969 210.214 279.792 208.937C280.509 207.834 281.944 207.529 283.022 208.208C284.124 208.926 284.431 210.362 283.753 211.44C282.915 212.781 282.014 214.108 281.113 215.434C280.914 215.722 280.706 215.908 280.434 216.079ZM202.879 264.531C202.607 264.703 202.31 264.835 201.965 264.889C200.379 265.127 198.807 265.301 197.172 265.461C195.883 265.566 194.76 264.643 194.59 263.339C194.484 262.049 195.405 260.926 196.709 260.758C198.242 260.608 199.75 260.419 201.258 260.231C202.538 260.023 203.724 260.96 203.932 262.24C204.086 263.175 203.617 264.067 202.84 264.556L202.879 264.531ZM288.779 201.927C288.118 202.343 287.237 202.408 286.482 202.069C285.312 201.502 284.84 200.062 285.43 198.931C286.102 197.585 286.764 196.137 287.373 194.777C287.875 193.593 289.265 193.044 290.474 193.586C291.659 194.09 292.209 195.481 291.667 196.69C291.03 198.177 290.343 199.586 289.642 201.058C289.454 201.448 289.138 201.809 288.789 202.029L288.779 201.927ZM186.469 265.515C186.08 265.76 185.657 265.863 185.185 265.888C183.593 265.858 181.977 265.789 180.375 265.656C179.066 265.557 178.088 264.435 178.211 263.164C178.333 261.892 179.43 260.877 180.701 261C182.239 261.118 183.753 261.198 185.282 261.213C186.581 261.21 187.597 262.308 187.602 263.609C187.58 264.436 187.154 265.139 186.493 265.554L186.469 265.515ZM294.871 186.695C294.327 187.037 293.598 187.171 292.915 186.948C291.702 186.571 290.973 185.239 291.348 184.025C291.782 182.558 292.215 181.092 292.585 179.61C292.936 178.358 294.204 177.615 295.431 177.928C296.684 178.281 297.428 179.55 297.115 180.778C296.731 182.323 296.283 183.853 295.797 185.407C295.604 185.963 295.235 186.412 294.808 186.681L294.871 186.695ZM170.128 263.85C169.662 264.143 169.059 264.305 168.45 264.2C166.853 263.902 165.294 263.579 163.774 263.232C162.508 262.943 161.725 261.698 162.013 260.431C162.3 259.165 163.544 258.383 164.81 258.672C166.33 259.019 167.826 259.327 169.296 259.596C170.577 259.822 171.399 261.042 171.175 262.323C171.055 262.996 170.658 263.571 170.114 263.913L170.128 263.85ZM154.261 259.661C153.678 260.028 152.948 260.161 152.242 259.9C150.726 259.387 149.225 258.811 147.724 258.235C146.501 257.756 145.912 256.389 146.39 255.166C146.868 253.942 148.234 253.355 149.457 253.834C150.895 254.395 152.308 254.918 153.76 255.416C154.998 255.832 155.625 257.174 155.211 258.412C155.057 258.943 154.664 259.353 154.237 259.622L154.261 259.661ZM139.116 253.172C138.456 253.587 137.536 253.677 136.795 253.275C135.362 252.548 133.967 251.796 132.587 250.982C131.47 250.327 131.061 248.901 131.715 247.784C132.344 246.629 133.793 246.26 134.91 246.915C136.241 247.652 137.597 248.428 138.942 249.101C140.074 249.693 140.546 251.133 139.956 252.264C139.767 252.654 139.466 252.952 139.116 253.172ZM125.056 244.698C124.278 245.187 123.247 245.185 122.471 244.641C121.183 243.714 119.895 242.787 118.621 241.797C117.596 241.03 117.406 239.521 118.172 238.496C118.938 237.472 120.446 237.283 121.471 238.05C122.695 238.963 123.92 239.875 125.184 240.763C126.247 241.506 126.515 242.966 125.774 244.029C125.614 244.293 125.366 244.503 125.094 244.674L125.056 244.698ZM112.269 234.284C111.375 234.846 110.231 234.751 109.435 234.003C108.253 232.9 107.135 231.812 105.992 230.685C105.074 229.743 105.074 228.277 106.015 227.359C106.957 226.442 108.422 226.443 109.34 227.385C110.419 228.498 111.513 229.547 112.67 230.611C113.603 231.49 113.666 232.97 112.788 233.902C112.657 234.039 112.487 234.2 112.332 234.298L112.269 234.284ZM101.116 222.243C100.106 222.879 98.7864 222.677 98.0337 221.739C97.022 220.476 96.0736 219.226 95.1007 217.938C94.338 216.898 94.5424 215.412 95.5815 214.65C96.6206 213.888 98.1059 214.094 98.8687 215.134C99.7537 216.369 100.741 217.594 101.704 218.78C102.505 219.795 102.34 221.257 101.35 222.097C101.272 222.145 101.194 222.194 101.116 222.243ZM91.7361 208.709L91.6584 208.758C90.5703 209.442 89.1283 209.046 88.4188 207.918C87.6013 206.532 86.8228 205.122 86.1075 203.726C85.5002 202.588 85.9191 201.184 87.0949 200.553C88.2319 199.947 89.6596 200.406 90.2669 201.544C90.9966 202.877 91.7507 204.248 92.5192 205.556C93.2042 206.645 92.8098 208.088 91.7606 208.748L91.7361 208.709ZM108.522 187.457C107.512 188.092 106.168 187.852 105.415 186.914C104.613 185.898 104.818 184.412 105.833 183.611C106.964 182.737 108.085 181.76 109.055 180.716C109.933 179.784 111.437 179.76 112.37 180.64C113.302 181.519 113.327 183.023 112.449 183.956C111.309 185.161 110.018 186.299 108.692 187.295C108.614 187.344 108.576 187.369 108.498 187.418L108.522 187.457ZM98.0692 192.565C97.8749 192.688 97.6806 192.81 97.4373 192.854C95.847 193.257 94.1689 193.607 92.5195 193.83C91.2156 193.999 90.0542 193.101 89.8844 191.796C89.7146 190.491 90.6113 189.33 91.9152 189.162C93.3602 188.959 94.8195 188.692 96.2055 188.309C97.4504 187.96 98.7428 188.722 99.0925 189.967C99.3587 190.994 98.9241 192.028 98.0692 192.565ZM118.365 174.48C117.744 174.871 116.99 174.965 116.283 174.704C115.06 174.225 114.471 172.858 114.91 171.659C115.417 170.309 115.797 168.93 116.074 167.561C116.299 166.28 117.518 165.459 118.799 165.684C120.08 165.91 120.902 167.13 120.677 168.412C120.366 170.073 119.89 171.73 119.287 173.358C119.108 173.85 118.754 174.235 118.327 174.504L118.365 174.48ZM84.5665 193.947C84.4499 194.02 84.3333 194.093 84.1779 194.191C83.1862 194.597 82.0996 194.249 81.4592 193.404C81.0605 193.546 80.6129 193.61 80.1553 193.572C78.5578 193.274 76.9358 192.937 75.3426 192.474C74.0905 192.121 73.3853 190.827 73.6977 189.6C74.0489 188.347 75.3413 187.643 76.5689 187.956C77.5677 188.251 78.5809 188.482 79.5697 188.675C79.4963 188.558 79.4862 188.456 79.4517 188.315C79.0631 187.093 79.6964 185.772 80.9313 185.321C82.1273 184.895 83.4729 185.569 83.9248 186.804C84.3968 188.245 84.9321 189.699 85.5063 191.13C85.9237 192.224 85.5235 193.399 84.5909 193.985L84.5665 193.947ZM118.721 158.404C118.605 158.478 118.449 158.576 118.333 158.649C117.122 159.139 115.762 158.528 115.311 157.293C114.893 156.198 114.335 155.138 113.699 154.126L113.381 153.621C112.657 152.556 112.925 151.085 113.988 150.361C115.115 149.653 116.523 149.907 117.271 151.011C117.393 151.205 117.54 151.439 117.662 151.633C118.47 152.917 119.161 154.274 119.686 155.626C120.079 156.682 119.679 157.857 118.746 158.443L118.721 158.404ZM66.3462 187.655C65.6468 188.095 64.7026 188.146 63.937 187.704C63.4102 187.384 62.8447 187.088 62.3424 186.807C61.4645 186.274 60.6254 185.716 59.7864 185.158C58.7228 184.415 58.4163 182.979 59.1576 181.916C59.8988 180.853 61.3337 180.547 62.3972 181.29C63.173 181.833 63.9631 182.313 64.7776 182.833C65.2411 183.138 65.7433 183.42 66.2212 183.662C67.3768 184.292 67.7467 185.742 67.1321 186.835C66.9191 187.186 66.6571 187.459 66.3462 187.655ZM79.9586 178.17C79.6866 178.341 79.4289 178.449 79.0835 178.503C77.8041 178.711 76.6038 177.837 76.3952 176.557C76.1318 174.931 75.9318 173.32 75.834 171.699C75.7276 170.408 76.6875 169.262 78.0015 169.195C79.2911 169.09 80.3992 170.076 80.5057 171.366C80.6078 172.822 80.7978 174.331 81.0266 175.816C81.205 176.789 80.7358 177.681 79.9586 178.17ZM107.833 146.524C107.133 146.964 106.253 147.03 105.511 146.627C104.229 145.968 102.942 145.474 101.627 145.107C100.375 144.755 99.6308 143.486 99.982 142.233C100.333 140.981 101.601 140.238 102.853 140.59C104.485 141.03 106.138 141.673 107.683 142.493C108.814 143.084 109.286 144.524 108.696 145.655C108.508 146.045 108.207 146.343 107.857 146.563L107.833 146.524ZM80.0167 161.794C79.5115 162.111 78.9229 162.21 78.3141 162.104C77.072 161.854 76.2258 160.595 76.4749 159.353C76.8002 157.628 77.3011 156.01 77.8509 154.47C78.2899 153.271 79.6313 152.645 80.869 153.06C82.0678 153.501 82.6953 154.843 82.2807 156.081C81.7885 157.368 81.433 158.786 81.1019 160.242C80.9824 160.915 80.5607 161.451 80.0555 161.769L80.0167 161.794ZM53.2785 177.742C52.3847 178.304 51.1773 178.195 50.3814 177.447C49.2387 176.32 48.1349 175.169 47.0066 173.978C46.1272 173.011 46.1906 171.56 47.1563 170.681C48.1221 169.802 49.5728 169.867 50.491 170.81C51.5315 171.947 52.5864 173.02 53.6802 174.069C54.6128 174.949 54.6372 176.453 53.7204 177.41C53.5649 177.508 53.434 177.644 53.2785 177.742ZM91.9612 145.432C91.8446 145.506 91.728 145.579 91.6503 145.628C91.456 145.75 91.1739 145.819 90.9796 145.941C89.9348 146.436 89.0021 147.022 88.1429 147.725C87.1282 148.526 85.643 148.321 84.8414 147.305C84.0398 146.289 84.2442 144.803 85.2588 144.002C86.3512 143.152 87.5947 142.37 88.8728 141.729C89.1448 141.558 89.4657 141.465 89.8011 141.308C91.0115 140.818 92.3859 141.365 92.8766 142.577C93.3328 143.647 92.9183 144.885 91.9857 145.471L91.9612 145.432ZM42.5971 165.243C41.5479 165.903 40.1792 165.624 39.4409 164.622C38.5069 163.31 37.5974 162.036 36.6634 160.724C35.9395 159.659 36.2072 158.188 37.2708 157.464C38.3977 156.756 39.8053 157.01 40.5292 158.075C41.3999 159.373 42.2849 160.608 43.1945 161.882C43.9572 162.922 43.7528 164.408 42.7137 165.17C42.6748 165.194 42.6359 165.219 42.5582 165.267L42.5971 165.243ZM33.5665 151.488C33.5665 151.488 33.5665 151.488 33.5276 151.513C32.4396 152.197 30.9586 151.826 30.3124 150.712C29.4562 149.351 28.702 147.979 27.9235 146.569C27.2773 145.455 27.7106 143.989 28.8476 143.382C29.9601 142.737 31.4022 143.132 32.0339 144.309C32.788 145.681 33.5565 146.989 34.3495 148.336C35.0345 149.425 34.679 150.843 33.5909 151.527L33.5665 151.488ZM25.8038 136.991C25.7261 137.04 25.6484 137.088 25.5707 137.137C24.4092 137.705 23.0204 137.221 22.4275 136.02C21.7511 134.6 21.0502 133.14 20.4127 131.696C19.8831 130.509 20.4286 129.134 21.5901 128.567C22.776 128.038 24.1893 128.56 24.7189 129.747C25.332 131.153 26.0083 132.573 26.6991 133.93C27.2186 135.015 26.8286 136.292 25.8182 136.927L25.8038 136.991ZM19.2415 121.901C19.1249 121.974 18.9695 122.072 18.8529 122.145C17.6425 122.635 16.2825 122.025 15.8306 120.789C15.2708 119.295 14.711 117.802 14.1757 116.347C13.7238 115.111 14.3571 113.79 15.5919 113.339C16.8268 112.888 18.148 113.523 18.5998 114.759C19.1352 116.213 19.6705 117.668 20.2059 119.123C20.5987 120.179 20.1986 121.353 19.266 121.94L19.2415 121.901ZM13.9284 106.297C13.7341 106.419 13.5787 106.517 13.3355 106.561C12.0905 106.91 10.7838 106.212 10.4341 104.966C9.97645 103.462 9.55769 101.934 9.13892 100.406C8.78923 99.1603 9.54918 97.8681 10.7941 97.5193C12.039 97.1706 13.3314 97.9321 13.6811 99.1779C14.0754 100.667 14.533 102.171 14.9662 103.635C15.2957 104.677 14.8222 105.734 13.9673 106.272L13.9284 106.297ZM9.86028 90.3438C9.62713 90.4904 9.39397 90.6371 9.12628 90.6426C7.83242 90.9135 6.61775 90.1032 6.30692 88.8329C5.99034 87.2949 5.6493 85.718 5.33272 84.1799C5.08522 82.9241 5.93295 81.6852 7.18795 81.4388C8.44295 81.1923 9.68208 82.0415 9.92959 83.2973C10.2217 84.7964 10.5383 86.3345 10.8549 87.8725C11.0578 88.8849 10.6375 89.855 9.82142 90.3682L9.86028 90.3438ZM6.96942 74.1933C6.6974 74.3644 6.40092 74.4966 6.05551 74.551C4.75158 74.7197 3.59017 73.8216 3.38152 72.5413C3.16713 70.9933 2.96712 69.382 2.75273 67.8339C2.58295 66.5293 3.54294 65.3826 4.80801 65.2384C6.11194 65.0697 7.25896 66.0312 7.40428 67.2969C7.61867 68.8449 7.76974 70.3785 8.02299 71.9021C8.1381 72.8611 7.70775 73.7289 6.93056 74.2178L6.96942 74.1933ZM5.23137 57.8064C4.92049 58.0019 4.56069 58.1196 4.15195 58.1595C2.86242 58.2649 1.75425 57.279 1.64779 55.9888C1.53558 54.4308 1.43777 52.8095 1.36442 51.227C1.29682 49.9124 2.30574 48.8435 3.59527 48.7382C4.90928 48.6717 5.97858 49.6821 6.08504 50.9723C6.13392 52.5158 6.24613 54.0738 6.35834 55.6318C6.42452 56.5131 5.9697 57.342 5.27023 57.7819L5.23137 57.8064ZM4.66628 41.3874C4.31654 41.6074 3.85455 41.7351 3.42135 41.7361C2.12174 41.7392 1.06684 40.6655 1.06256 39.3654C1.05253 37.7974 1.08136 36.2049 1.1102 34.6125C1.14478 33.2879 2.20264 32.2968 3.50224 32.2937C4.82631 32.3295 5.8179 33.3887 5.82217 34.6889C5.76888 36.2424 5.7789 37.8104 5.76446 39.3395C5.74285 40.1674 5.34128 40.9086 4.68067 41.3241L4.66628 41.3874ZM5.21082 24.9219C4.82222 25.1663 4.32137 25.3185 3.80038 25.2662C2.4907 25.167 1.51351 24.0445 1.63589 22.7732C1.72804 21.1953 1.85907 19.5928 2.01455 18.0293C2.13692 16.7581 3.2581 15.7815 4.56778 15.8806C5.8386 16.0042 6.81579 17.1267 6.71788 18.4369C6.60125 19.976 6.44577 21.5395 6.368 23.0541C6.32192 23.8431 5.87143 24.5064 5.28854 24.8731L5.21082 24.9219Z" fill="white"/>
</g>
<defs>
<clipPath id="clip0_427_170">
<rect width="226.778" height="344.92" fill="white" transform="translate(0 120.738) rotate(-32.168)"/>
</clipPath>
</defs>
</svg>
