<svg width="332" height="569" viewBox="0 0 332 569" fill="none" xmlns="http://www.w3.org/2000/svg">
<path d="M287.711 563.018C287.308 563.018 286.904 562.883 286.501 562.615C285.56 561.942 285.359 560.665 286.031 559.724C286.837 558.581 287.577 557.506 288.383 556.363C289.055 555.422 290.332 555.153 291.273 555.826C292.214 556.498 292.483 557.775 291.811 558.716C291.004 559.859 290.198 561.001 289.391 562.144C288.988 562.682 288.383 563.018 287.711 563.018ZM295.574 550.852C295.238 550.852 294.835 550.784 294.499 550.583C293.491 549.978 293.222 548.701 293.76 547.76C294.432 546.55 295.104 545.407 295.776 544.197C296.313 543.189 297.59 542.853 298.598 543.391C299.607 543.928 299.943 545.206 299.405 546.214C298.733 547.424 297.994 548.634 297.322 549.843C296.918 550.516 296.246 550.852 295.507 550.852H295.574ZM302.429 538.081C302.16 538.081 301.824 538.081 301.556 537.879C300.547 537.408 300.077 536.131 300.615 535.123C301.219 533.913 301.757 532.636 302.362 531.426C302.832 530.418 304.042 529.947 305.117 530.418C306.126 530.888 306.596 532.098 306.126 533.174C305.521 534.451 304.983 535.728 304.378 537.005C304.042 537.744 303.303 538.148 302.496 538.148L302.429 538.081ZM308.209 524.772C307.94 524.772 307.738 524.772 307.47 524.637C306.394 524.234 305.857 523.024 306.26 521.949C306.73 520.672 307.201 519.394 307.671 518.117C308.075 517.042 309.217 516.504 310.292 516.84C311.368 517.244 311.905 518.386 311.569 519.462C311.099 520.806 310.628 522.083 310.091 523.36C309.755 524.167 309.015 524.705 308.142 524.705L308.209 524.772ZM312.846 511.06C312.645 511.06 312.443 511.06 312.241 510.992C311.166 510.656 310.494 509.514 310.83 508.438C311.233 507.161 311.569 505.817 311.973 504.473C312.241 503.397 313.384 502.725 314.526 502.994C315.602 503.263 316.274 504.405 316.005 505.548C315.669 506.892 315.266 508.237 314.862 509.581C314.594 510.455 313.787 511.06 312.846 511.06ZM316.408 496.944C316.274 496.944 316.139 496.944 316.005 496.944C314.862 496.675 314.19 495.6 314.392 494.524C314.661 493.18 314.93 491.836 315.198 490.492C315.4 489.349 316.475 488.609 317.618 488.811C318.76 489.013 319.5 490.088 319.298 491.231C319.029 492.575 318.76 493.987 318.492 495.331C318.29 496.272 317.416 496.944 316.475 496.944H316.408ZM318.828 482.694C318.76 482.694 318.626 482.694 318.559 482.694C317.416 482.56 316.61 481.485 316.744 480.409C316.946 479.065 317.08 477.72 317.215 476.309C317.349 475.166 318.357 474.36 319.5 474.494C320.642 474.629 321.449 475.637 321.314 476.779C321.18 478.191 320.978 479.535 320.844 480.947C320.709 482.022 319.836 482.762 318.76 482.762L318.828 482.694ZM320.104 468.243C320.104 468.243 320.037 468.243 319.97 468.243C318.828 468.243 317.954 467.235 318.021 466.092C318.021 464.748 318.155 463.336 318.155 461.992C318.155 460.849 319.231 459.975 320.306 459.975C321.449 459.975 322.322 460.984 322.322 462.126C322.322 463.538 322.255 464.949 322.188 466.294C322.188 467.369 321.247 468.243 320.104 468.243ZM320.239 453.724C319.096 453.724 318.223 452.85 318.155 451.708C318.155 450.363 318.021 448.952 317.954 447.608C317.954 446.465 318.76 445.457 319.903 445.457C321.045 445.457 322.053 446.263 322.053 447.406C322.121 448.818 322.188 450.229 322.255 451.573C322.255 452.716 321.381 453.657 320.239 453.724ZM319.164 439.273C318.155 439.273 317.215 438.466 317.08 437.458C316.946 436.114 316.744 434.769 316.543 433.425C316.408 432.282 317.147 431.274 318.29 431.072C319.432 430.938 320.441 431.677 320.642 432.82C320.844 434.232 320.978 435.576 321.18 436.987C321.314 438.13 320.508 439.138 319.365 439.273C319.298 439.273 319.231 439.273 319.096 439.273H319.164ZM316.879 424.956C315.938 424.956 315.064 424.284 314.862 423.275C314.594 421.931 314.325 420.587 313.989 419.31C313.72 418.167 314.459 417.091 315.534 416.823C316.677 416.554 317.752 417.293 318.021 418.369C318.357 419.713 318.626 421.124 318.895 422.469C319.096 423.611 318.357 424.687 317.282 424.889C317.147 424.889 317.013 424.889 316.879 424.889V424.956ZM313.451 410.908C312.577 410.908 311.704 410.303 311.435 409.429C311.032 408.152 310.628 406.807 310.225 405.53C309.889 404.455 310.494 403.245 311.569 402.909C312.645 402.573 313.854 403.178 314.19 404.253C314.594 405.598 314.997 406.942 315.4 408.286C315.736 409.362 315.064 410.504 313.989 410.84C313.787 410.84 313.585 410.908 313.384 410.908H313.451ZM308.747 397.128C307.94 397.128 307.134 396.658 306.798 395.784C306.327 394.507 305.79 393.23 305.252 392.02C304.849 390.944 305.252 389.734 306.394 389.331C307.47 388.928 308.679 389.331 309.083 390.474C309.62 391.751 310.158 393.028 310.628 394.372C311.032 395.448 310.494 396.658 309.419 397.061C309.15 397.128 308.948 397.195 308.679 397.195L308.747 397.128ZM303.034 383.887C302.295 383.887 301.556 383.483 301.152 382.744C300.547 381.534 299.943 380.257 299.338 379.047C298.8 378.039 299.203 376.762 300.279 376.291C301.287 375.754 302.564 376.157 303.034 377.232C303.639 378.442 304.311 379.719 304.916 380.996C305.386 382.005 304.916 383.282 303.975 383.752C303.706 383.887 303.37 383.954 303.101 383.954L303.034 383.887ZM296.246 371.048C295.507 371.048 294.835 370.645 294.432 370.04C293.76 368.83 293.087 367.688 292.348 366.478C291.743 365.469 292.079 364.192 293.087 363.655C294.096 363.05 295.372 363.386 295.91 364.394C296.649 365.604 297.322 366.814 298.061 368.024C298.598 369.032 298.262 370.309 297.322 370.847C296.985 371.048 296.649 371.116 296.313 371.116L296.246 371.048ZM288.652 358.681C287.98 358.681 287.308 358.345 286.904 357.74C286.165 356.597 285.359 355.454 284.619 354.312C283.947 353.371 284.216 352.093 285.157 351.421C286.098 350.749 287.375 351.018 288.047 351.959C288.853 353.102 289.66 354.244 290.399 355.387C291.004 356.328 290.802 357.605 289.794 358.277C289.458 358.479 289.055 358.613 288.652 358.613V358.681ZM280.184 346.918C279.579 346.918 278.907 346.649 278.504 346.111C277.697 345.036 276.824 343.96 276.017 342.885C275.345 342.011 275.479 340.667 276.353 339.995C277.227 339.255 278.571 339.457 279.243 340.331C280.117 341.406 280.923 342.549 281.797 343.624C282.469 344.565 282.334 345.842 281.394 346.515C280.99 346.783 280.587 346.918 280.117 346.918H280.184ZM271.111 335.626C270.506 335.626 269.968 335.357 269.565 334.886C268.692 333.811 267.751 332.802 266.877 331.794C266.138 330.92 266.205 329.643 267.079 328.904C267.952 328.165 269.229 328.232 269.968 329.106C270.909 330.181 271.783 331.189 272.724 332.265C273.463 333.139 273.329 334.416 272.455 335.155C272.052 335.491 271.581 335.626 271.111 335.626ZM261.433 324.804C260.896 324.804 260.358 324.602 259.955 324.132C259.014 323.123 258.073 322.115 257.132 321.174C256.326 320.367 256.393 319.023 257.132 318.217C257.938 317.41 259.283 317.477 260.089 318.217C261.03 319.225 262.038 320.233 262.979 321.241C263.785 322.048 263.718 323.392 262.912 324.199C262.509 324.602 261.971 324.737 261.5 324.737L261.433 324.804ZM251.285 314.452C250.747 314.452 250.277 314.251 249.874 313.847C248.866 312.906 247.925 311.965 246.917 310.957C246.11 310.151 246.043 308.873 246.849 308C247.656 307.193 248.933 307.126 249.807 307.932C250.815 308.873 251.823 309.882 252.831 310.823C253.637 311.629 253.637 312.906 252.831 313.78C252.428 314.184 251.89 314.385 251.352 314.385L251.285 314.452ZM240.734 304.504C240.263 304.504 239.726 304.303 239.322 303.967C238.314 303.026 237.306 302.152 236.231 301.211C235.357 300.471 235.29 299.127 236.029 298.321C236.768 297.447 238.113 297.38 238.919 298.119C239.927 299.06 241.002 299.934 242.011 300.875C242.884 301.614 242.951 302.958 242.145 303.765C241.742 304.236 241.204 304.437 240.599 304.437L240.734 304.504ZM229.779 294.96C229.309 294.96 228.838 294.825 228.435 294.489C227.36 293.615 226.351 292.742 225.276 291.868C224.402 291.128 224.268 289.851 225.007 288.978C225.747 288.104 227.024 287.969 227.897 288.709C228.973 289.582 230.048 290.456 231.123 291.397C231.997 292.137 232.131 293.414 231.392 294.288C230.989 294.758 230.384 295.027 229.779 295.027V294.96ZM218.555 285.818C218.085 285.818 217.682 285.684 217.279 285.348L214.053 282.794C213.179 282.121 212.977 280.777 213.717 279.903C214.389 279.03 215.733 278.828 216.606 279.567L219.9 282.121C220.773 282.861 220.975 284.138 220.236 285.012C219.832 285.549 219.228 285.818 218.623 285.818H218.555ZM207.063 276.946C206.66 276.946 206.189 276.811 205.853 276.543L202.56 274.056C201.619 273.383 201.485 272.106 202.157 271.165C202.829 270.224 204.106 270.09 205.047 270.762L208.34 273.249C209.281 273.921 209.415 275.265 208.743 276.139C208.34 276.677 207.735 276.946 207.063 276.946ZM195.436 268.342C195.033 268.342 194.563 268.208 194.227 267.939L190.866 265.519C189.926 264.847 189.724 263.57 190.396 262.629C191.068 261.688 192.345 261.486 193.286 262.158L196.646 264.578C197.587 265.25 197.789 266.527 197.117 267.468C196.713 268.006 196.109 268.342 195.436 268.342ZM183.608 259.94C183.205 259.94 182.802 259.806 182.398 259.537L179.038 257.184C178.097 256.512 177.896 255.235 178.568 254.294C179.24 253.353 180.517 253.151 181.458 253.823L184.818 256.243C185.759 256.915 185.96 258.193 185.288 259.134C184.885 259.738 184.213 260.007 183.608 260.007V259.94ZM171.713 251.605C171.309 251.605 170.906 251.471 170.503 251.202L167.075 248.849C166.134 248.177 165.933 246.9 166.538 245.959C167.21 245.018 168.487 244.749 169.428 245.421L172.855 247.774C173.796 248.446 173.998 249.723 173.393 250.664C172.99 251.269 172.317 251.538 171.713 251.538V251.605ZM159.817 243.338C159.414 243.338 159.011 243.203 158.675 243.002L155.247 240.649C154.306 239.977 154.104 238.7 154.709 237.759C155.381 236.818 156.658 236.549 157.599 237.221L161.027 239.574C161.968 240.246 162.236 241.523 161.564 242.464C161.161 243.069 160.489 243.338 159.884 243.338H159.817ZM147.921 235.07C147.518 235.07 147.115 234.936 146.712 234.667L143.284 232.314C142.343 231.642 142.142 230.365 142.747 229.424C143.419 228.483 144.696 228.281 145.636 228.886L148.997 231.239C149.938 231.911 150.139 233.188 149.534 234.129C149.131 234.734 148.459 235.003 147.854 235.003L147.921 235.07ZM136.026 226.735C135.623 226.735 135.219 226.601 134.816 226.332L131.456 223.912C130.515 223.24 130.313 221.963 130.985 221.022C131.658 220.081 132.934 219.879 133.875 220.551L137.236 222.971C138.177 223.643 138.378 224.921 137.706 225.862C137.303 226.399 136.631 226.735 136.026 226.735ZM124.265 218.266C123.862 218.266 123.391 218.132 123.055 217.863C121.913 217.056 120.837 216.25 119.695 215.376C118.754 214.704 118.552 213.427 119.292 212.486C119.964 211.544 121.241 211.343 122.181 212.082C123.257 212.889 124.399 213.695 125.542 214.502C126.483 215.174 126.684 216.451 126.012 217.392C125.609 217.93 125.004 218.266 124.332 218.266H124.265ZM112.638 209.595C112.168 209.595 111.764 209.461 111.361 209.192C110.286 208.318 109.143 207.512 108.068 206.638C107.194 205.966 106.993 204.621 107.665 203.747C108.337 202.874 109.681 202.672 110.555 203.344C111.63 204.218 112.705 205.025 113.848 205.831C114.789 206.503 114.923 207.848 114.251 208.721C113.848 209.259 113.243 209.528 112.571 209.528L112.638 209.595ZM101.28 200.655C100.81 200.655 100.339 200.521 100.003 200.185C98.928 199.311 97.8527 198.437 96.7774 197.564C95.9037 196.824 95.7693 195.547 96.5085 194.673C97.2478 193.799 98.5247 193.665 99.3984 194.404C100.474 195.278 101.549 196.152 102.624 197.026C103.498 197.765 103.632 199.042 102.96 199.916C102.557 200.454 101.952 200.655 101.347 200.655H101.28ZM90.0567 191.38C89.5863 191.38 89.1158 191.245 88.7126 190.842C87.6373 189.901 86.6292 189.027 85.5539 188.086C84.6802 187.347 84.613 186.002 85.4194 185.129C86.1587 184.255 87.5029 184.188 88.3765 184.994C89.3846 185.935 90.3927 186.809 91.468 187.683C92.3417 188.422 92.4089 189.766 91.6697 190.573C91.2664 191.044 90.6616 191.312 90.1239 191.312L90.0567 191.38ZM79.5725 181.364C79.0348 181.364 78.43 181.163 78.0267 180.692C77.0858 179.617 76.145 178.609 75.2041 177.466C74.4648 176.592 74.5992 175.315 75.4729 174.576C76.3466 173.836 77.6235 173.971 78.3628 174.844C79.2365 175.853 80.1101 176.861 81.051 177.869C81.8575 178.743 81.7903 180.02 80.9166 180.827C80.5134 181.163 80.0429 181.364 79.5053 181.364H79.5725ZM70.9029 169.803C70.1636 169.803 69.4915 169.467 69.0883 168.795C68.9539 168.526 68.7522 168.257 68.6178 167.988C68.0802 166.98 67.5425 165.972 67.0721 164.964C66.6016 163.955 67.0721 162.678 68.0802 162.208C69.1555 161.737 70.3652 162.208 70.8356 163.216C71.3061 164.157 71.7765 165.098 72.247 165.972L72.6502 166.711C73.2551 167.72 72.9191 168.997 71.911 169.534C71.5749 169.736 71.2389 169.803 70.9029 169.803ZM65.7952 156.293C64.8543 156.293 63.9806 155.621 63.779 154.612C63.5101 153.201 63.3085 151.722 63.1741 150.311C63.0397 149.168 63.9134 148.16 65.0559 148.092C66.1984 148.025 67.2065 148.832 67.2737 149.974C67.4081 151.252 67.6097 152.529 67.8114 153.873C68.013 155.016 67.3409 156.091 66.1984 156.293C66.064 156.293 65.9296 156.293 65.7952 156.293ZM91.4008 142.917C91.2664 142.917 91.132 142.917 90.9304 142.917C89.5863 142.648 88.1749 142.177 86.6964 141.707C85.6211 141.304 85.0834 140.161 85.4194 139.085C85.8227 138.01 86.9652 137.472 88.0405 137.808C89.3846 138.279 90.5944 138.682 91.7369 138.884C92.8794 139.153 93.5514 140.228 93.2826 141.371C93.081 142.312 92.2073 142.984 91.2664 142.984L91.4008 142.917ZM65.7952 141.909C65.6607 141.909 65.4591 141.909 65.3247 141.909C64.1822 141.64 63.5101 140.564 63.779 139.422C64.115 137.943 64.5182 136.531 65.0559 135.187C65.4591 134.111 66.6688 133.574 67.7442 133.977C68.8195 134.38 69.3571 135.59 68.9539 136.666C68.4834 137.876 68.1474 139.085 67.8114 140.363C67.6097 141.304 66.736 141.976 65.7952 141.976V141.909ZM101.347 141.572C100.743 141.572 100.138 141.304 99.6672 140.766C98.9952 139.825 99.1296 138.548 100.07 137.876C100.205 137.808 100.272 137.674 100.407 137.607C101.079 137.002 101.549 136.33 101.818 135.523C102.221 134.448 103.431 133.91 104.506 134.313C105.581 134.716 106.119 135.926 105.716 137.002C105.178 138.413 104.304 139.69 103.162 140.766C102.96 140.9 102.759 141.102 102.624 141.236C102.221 141.505 101.818 141.64 101.347 141.64V141.572ZM77.8923 137.674C77.5563 137.674 77.2875 137.674 77.0186 137.472C75.7417 136.867 74.4648 136.195 73.2551 135.523C72.247 134.985 71.8438 133.708 72.4486 132.7C72.9863 131.692 74.2632 131.288 75.2713 131.893C76.481 132.566 77.6907 133.17 78.9004 133.775C79.9085 134.246 80.379 135.523 79.8413 136.531C79.5053 137.271 78.766 137.674 77.9595 137.674H77.8923ZM65.3247 130.415C64.9215 130.415 64.5182 130.28 64.1822 130.078C63.0397 129.272 61.8972 128.465 60.7547 127.659C59.8138 126.987 59.6122 125.709 60.3514 124.768C61.0235 123.827 62.3004 123.626 63.2413 124.365C64.3166 125.172 65.4591 125.978 66.5344 126.718C67.4753 127.39 67.7442 128.667 67.0721 129.608C66.6688 130.213 65.9968 130.482 65.3247 130.482V130.415ZM72.6502 129.406C72.1126 129.406 71.5749 129.205 71.1717 128.801C70.3652 127.995 70.3652 126.65 71.1717 125.844C72.247 124.836 73.3895 123.827 74.5992 122.954C75.5401 122.281 76.817 122.483 77.4891 123.424C78.1612 124.365 77.9595 125.642 77.0186 126.314C76.0105 127.054 75.0025 127.86 74.1288 128.734C73.7255 129.137 73.1879 129.339 72.6502 129.339V129.406ZM101.885 128.533C101.213 128.533 100.608 128.196 100.205 127.659C99.5328 126.65 98.7263 125.777 97.7855 125.037C96.9118 124.298 96.7774 123.021 97.5166 122.147C98.2559 121.273 99.5328 121.139 100.407 121.878C101.616 122.886 102.692 124.029 103.632 125.306C104.304 126.247 104.036 127.524 103.095 128.196C102.759 128.465 102.355 128.6 101.885 128.6V128.533ZM85.285 122.618C84.2769 122.618 83.4705 121.945 83.2688 120.937C83.0672 119.794 83.8065 118.719 84.949 118.517C86.3603 118.248 87.7045 118.114 89.1158 118.114H89.5191C90.6616 118.114 91.6025 119.055 91.5352 120.198C91.5352 121.34 90.5272 122.214 89.4519 122.214H89.1158C88.0405 122.214 86.898 122.349 85.7555 122.55C85.6211 122.55 85.4867 122.55 85.3522 122.55L85.285 122.618ZM53.9668 121.475C53.4964 121.475 52.9587 121.273 52.5555 120.937C51.4802 119.996 50.4721 119.055 49.464 118.047C48.6575 117.24 48.6575 115.963 49.464 115.089C50.2705 114.283 51.5474 114.283 52.4211 115.089C53.362 116.03 54.3701 116.971 55.3782 117.845C56.2518 118.585 56.319 119.929 55.5126 120.803C55.1093 121.273 54.5717 121.475 53.9668 121.475ZM43.8859 111.056C43.281 111.056 42.6761 110.787 42.2729 110.317C41.3992 109.241 40.4583 108.166 39.6518 107.023C38.9798 106.15 39.1142 104.805 40.0551 104.133C40.9288 103.461 42.2729 103.595 42.945 104.536C43.7514 105.612 44.6251 106.687 45.4988 107.696C46.2381 108.569 46.1037 109.846 45.23 110.586C44.8267 110.922 44.3563 111.056 43.8859 111.056ZM35.4178 99.2935C34.7458 99.2935 34.0737 98.9574 33.6705 98.2853C32.9312 97.0754 32.1919 95.8655 31.5199 94.6556C30.9822 93.6473 31.3182 92.3702 32.3263 91.8325C33.3344 91.2948 34.6114 91.6309 35.149 92.6391C35.8211 93.849 36.4931 94.9917 37.2324 96.1343C37.8373 97.0754 37.5012 98.3525 36.5603 98.9574C36.2243 99.1591 35.8211 99.2935 35.485 99.2935H35.4178ZM28.7644 86.388C27.9579 86.388 27.2186 85.9175 26.8826 85.1109C26.345 83.8338 25.8073 82.4895 25.2697 81.2124C24.8664 80.1369 25.4041 78.927 26.4794 78.5237C27.5547 78.1204 28.7644 78.6581 29.1676 79.7336C29.6381 81.0107 30.1757 82.2206 30.7134 83.4977C31.1838 84.5732 30.7134 85.7831 29.6381 86.1864C29.3692 86.3208 29.1004 86.3208 28.8316 86.3208L28.7644 86.388ZM24.0599 72.7431C23.119 72.7431 22.3126 72.1382 22.0437 71.1972C21.7077 69.8528 21.3717 68.4413 21.0356 67.097C20.7668 65.9543 21.5061 64.8788 22.5814 64.61C23.7239 64.3411 24.7992 65.0805 25.068 66.1559C25.3369 67.5003 25.6729 68.7774 26.0089 70.1217C26.2778 71.1971 25.6729 72.3398 24.5304 72.6759C24.3288 72.6759 24.1943 72.7431 23.9927 72.7431H24.0599ZM21.3717 58.4933C20.3636 58.4933 19.4227 57.6867 19.2883 56.6785C19.1539 55.2669 18.9522 53.8554 18.885 52.4438C18.8178 51.3012 19.6243 50.2929 20.7668 50.2257C21.9093 50.1585 22.9174 50.9651 22.9846 52.1078C23.119 53.4521 23.2535 54.7964 23.3879 56.1407C23.5223 57.2834 22.7158 58.2916 21.5733 58.4261C21.5061 58.4261 21.4389 58.4261 21.3045 58.4261L21.3717 58.4933ZM20.6324 43.9746C19.4899 43.9746 18.6162 43.0336 18.6162 41.8909C18.6162 40.4794 18.6834 39.0678 18.8178 37.6563C18.885 36.5136 19.8931 35.6398 21.0356 35.707C22.1782 35.7742 23.0518 36.7825 22.9846 37.9252C22.9174 39.2695 22.8502 40.6138 22.8502 41.9581C22.8502 43.1008 21.9093 43.9746 20.7668 43.9746H20.6324ZM21.9765 29.5903C21.8421 29.5903 21.7749 29.5903 21.6405 29.5903C20.498 29.3887 19.7587 28.3132 19.9603 27.2378C20.162 25.8262 20.4308 24.4819 20.6996 23.0704C20.9012 21.9277 22.0437 21.2555 23.119 21.4572C24.2616 21.6588 24.9336 22.8015 24.732 23.877C24.4632 25.2213 24.1943 26.4984 23.9927 27.8427C23.8583 28.851 22.9174 29.5903 21.9765 29.5903ZM25.3369 15.475C25.1352 15.475 24.9336 15.475 24.732 15.4077C23.6567 15.0717 23.0518 13.929 23.3879 12.7863C23.7911 11.442 24.2616 10.0977 24.732 8.75334C25.1352 7.67788 26.345 7.14015 27.3531 7.54345C28.4284 7.94674 28.966 9.15663 28.5628 10.1649C28.0923 11.442 27.6891 12.7191 27.2858 13.9962C27.017 14.87 26.2105 15.4077 25.3369 15.4077V15.475Z" fill="white"/>
</svg>
