<svg width="272" height="751" viewBox="0 0 272 751" fill="none" xmlns="http://www.w3.org/2000/svg">
<path d="M266.615 750.755C265.619 750.755 264.872 750.01 264.872 749.017C264.872 748.024 265.619 747.279 266.615 747.279C267.777 747.279 268.939 747.279 270.101 747.279C271.014 747.279 271.927 748.024 271.927 749.017C271.927 750.01 271.18 750.838 270.184 750.838C269.022 750.838 267.777 750.838 266.615 750.838V750.755ZM257.735 750.59C257.735 750.59 257.735 750.59 257.652 750.59C256.49 750.59 255.245 750.424 254.083 750.341C253.087 750.341 252.34 749.431 252.423 748.437C252.423 747.444 253.336 746.782 254.332 746.782C255.494 746.782 256.656 746.947 257.818 746.947C258.814 746.947 259.561 747.858 259.478 748.769C259.478 749.679 258.648 750.424 257.735 750.424V750.59ZM245.368 749.596C245.368 749.596 245.202 749.596 245.119 749.596C243.957 749.431 242.713 749.265 241.551 749.1C240.555 748.934 239.891 748.106 240.057 747.113C240.223 746.12 241.053 745.457 242.049 745.623C243.211 745.788 244.372 745.954 245.534 746.037C246.53 746.12 247.194 747.03 247.111 748.024C247.028 748.934 246.198 749.596 245.368 749.596ZM233.085 747.692C233.002 747.692 232.836 747.692 232.753 747.692C231.591 747.444 230.429 747.196 229.267 747.03C228.271 746.865 227.69 745.871 227.856 744.961C228.022 743.967 229.018 743.388 229.931 743.553C231.093 743.802 232.255 744.05 233.417 744.216C234.413 744.381 234.994 745.292 234.828 746.285C234.662 747.113 233.915 747.692 233.085 747.692ZM220.968 744.961C220.802 744.961 220.636 744.961 220.553 744.961C219.391 744.63 218.229 744.381 217.067 744.05C216.154 743.802 215.573 742.808 215.822 741.898C216.071 740.987 217.067 740.408 217.98 740.656C219.142 740.987 220.221 741.318 221.383 741.567C222.296 741.815 222.876 742.808 222.628 743.719C222.379 744.547 221.715 745.043 220.885 745.043L220.968 744.961ZM209.016 741.401C208.85 741.401 208.601 741.401 208.435 741.318C207.273 740.904 206.194 740.573 205.032 740.159C204.119 739.828 203.621 738.835 203.953 737.924C204.285 737.014 205.281 736.517 206.194 736.848C207.273 737.262 208.435 737.593 209.514 738.007C210.427 738.338 210.925 739.332 210.593 740.242C210.344 740.987 209.68 741.484 208.933 741.484L209.016 741.401ZM197.397 737.014C197.148 737.014 196.982 737.014 196.733 736.848C195.654 736.434 194.492 735.938 193.413 735.441C192.5 735.027 192.085 734.034 192.5 733.123C192.915 732.213 193.911 731.799 194.824 732.213C195.903 732.709 196.982 733.123 198.061 733.537C198.974 733.868 199.389 734.944 199.057 735.855C198.808 736.517 198.144 736.931 197.397 736.931V737.014ZM186.026 731.964C185.777 731.964 185.528 731.964 185.279 731.799C184.2 731.302 183.121 730.723 182.042 730.226C181.13 729.812 180.798 728.736 181.296 727.825C181.711 726.915 182.789 726.584 183.702 727.08C184.781 727.577 185.777 728.156 186.856 728.653C187.769 729.067 188.101 730.143 187.686 731.054C187.354 731.716 186.773 732.047 186.109 732.047L186.026 731.964ZM175.071 726.087C174.739 726.087 174.49 726.087 174.158 725.839C173.162 725.259 172.083 724.68 171.087 724.017C170.257 723.521 170.008 722.445 170.506 721.617C171.004 720.789 172.083 720.541 172.913 721.037C173.909 721.617 174.905 722.196 175.901 722.776C176.731 723.272 177.063 724.349 176.565 725.176C176.233 725.756 175.652 726.087 174.988 726.087H175.071ZM164.53 719.547C164.198 719.547 163.866 719.465 163.534 719.216C162.538 718.554 161.542 717.892 160.547 717.229C159.717 716.65 159.551 715.574 160.132 714.746C160.713 713.918 161.791 713.753 162.621 714.332C163.617 714.994 164.53 715.657 165.526 716.319C166.356 716.898 166.522 717.974 166.024 718.802C165.692 719.299 165.111 719.547 164.53 719.547ZM154.405 712.346C153.99 712.346 153.658 712.263 153.326 712.014C152.413 711.269 151.417 710.524 150.504 709.779C149.757 709.2 149.591 708.041 150.255 707.296C150.836 706.551 151.998 706.385 152.745 707.048C153.658 707.793 154.571 708.538 155.484 709.2C156.231 709.779 156.397 710.938 155.816 711.683C155.484 712.097 154.903 712.346 154.405 712.346ZM144.86 704.481C144.445 704.481 144.03 704.316 143.698 704.068C142.785 703.24 141.955 702.495 141.042 701.667C140.296 701.005 140.296 699.846 140.96 699.183C141.623 698.438 142.785 698.438 143.449 699.101C144.279 699.929 145.192 700.674 146.022 701.419C146.769 702.081 146.852 703.157 146.188 703.902C145.856 704.316 145.358 704.481 144.86 704.481ZM135.814 695.955C135.316 695.955 134.901 695.79 134.569 695.458C133.739 694.631 132.909 693.72 132.079 692.892C131.415 692.147 131.415 691.071 132.079 690.409C132.826 689.747 133.905 689.747 134.569 690.409C135.399 691.237 136.229 692.064 136.976 692.975C137.64 693.637 137.64 694.796 136.976 695.458C136.644 695.79 136.146 695.955 135.731 695.955H135.814ZM127.431 686.767C126.933 686.767 126.435 686.518 126.103 686.104C125.356 685.194 124.526 684.283 123.779 683.373C123.198 682.628 123.281 681.469 124.028 680.889C124.775 680.31 125.937 680.393 126.518 681.138C127.265 682.048 128.012 682.959 128.759 683.869C129.423 684.614 129.34 685.69 128.593 686.353C128.261 686.601 127.846 686.767 127.431 686.767ZM119.713 677.081C119.132 677.081 118.634 676.833 118.302 676.336C117.555 675.343 116.891 674.432 116.227 673.439C115.646 672.611 115.895 671.535 116.642 670.956C117.472 670.376 118.551 670.625 119.132 671.37C119.796 672.363 120.46 673.273 121.206 674.184C121.787 675.012 121.621 676.088 120.791 676.667C120.46 676.916 120.128 676.999 119.713 676.999V677.081ZM112.741 666.734C112.16 666.734 111.579 666.403 111.247 665.906C110.583 664.913 110.002 663.837 109.421 662.843C108.923 662.015 109.172 660.939 110.002 660.443C110.832 659.946 111.911 660.194 112.409 661.022C112.99 662.015 113.654 663.009 114.235 664.002C114.733 664.83 114.484 665.906 113.654 666.403C113.322 666.568 113.073 666.651 112.741 666.651V666.734ZM106.599 655.972C105.935 655.972 105.354 655.641 105.022 655.062C104.441 653.986 103.943 652.91 103.362 651.916C102.947 651.006 103.362 650.012 104.192 649.516C105.105 649.102 106.101 649.516 106.599 650.343C107.097 651.42 107.678 652.413 108.176 653.489C108.591 654.317 108.259 655.393 107.429 655.89C107.18 656.055 106.848 656.055 106.599 656.055V655.972ZM101.204 644.797C100.54 644.797 99.8765 644.383 99.5445 643.721C99.0466 642.645 98.6316 641.569 98.1336 640.41C97.8016 639.499 98.1336 638.506 99.1295 638.092C100.042 637.761 101.038 638.092 101.453 639.085C101.868 640.162 102.366 641.238 102.864 642.314C103.279 643.224 102.864 644.218 101.951 644.632C101.702 644.714 101.453 644.797 101.204 644.797ZM96.6397 633.291C95.8927 633.291 95.2287 632.877 94.9798 632.132C94.5648 630.973 94.2328 629.897 93.8178 628.738C93.4858 627.827 93.9838 626.834 94.9798 626.503C95.8927 626.172 96.8887 626.668 97.2206 627.662C97.5526 628.738 97.9676 629.897 98.3826 630.973C98.7146 631.884 98.2166 632.877 97.3036 633.208C97.1376 633.208 96.8887 633.291 96.7227 633.291H96.6397ZM92.9048 621.453C92.1579 621.453 91.4109 620.957 91.1619 620.129C90.8299 618.97 90.498 617.811 90.249 616.652C90 615.742 90.581 614.748 91.4939 614.5C92.4069 614.252 93.4028 614.831 93.6518 615.742C93.9838 616.9 94.2328 617.977 94.5648 619.135C94.8138 620.046 94.2328 621.039 93.3198 621.288C93.1538 621.288 92.9878 621.288 92.8219 621.288L92.9048 621.453ZM90 609.45C89.17 609.45 88.4231 608.871 88.2571 608.043C88.0081 606.884 87.7591 605.725 87.5931 604.566C87.4271 603.573 88.0911 602.662 89.004 602.497C90 602.331 90.9129 602.993 91.0789 603.904C91.3279 605.063 91.4939 606.222 91.7429 607.381C91.9089 608.374 91.3279 609.285 90.332 609.45C90.249 609.45 90.083 609.45 90 609.45ZM87.9251 597.199C87.0121 597.199 86.2652 596.537 86.1822 595.709C86.0162 594.55 85.8502 593.308 85.7672 592.149C85.6842 591.156 86.3482 590.328 87.3441 590.163C88.3401 590.08 89.17 590.742 89.336 591.735C89.502 592.894 89.585 594.053 89.751 595.212C89.917 596.206 89.17 597.033 88.2571 597.199C88.2571 597.199 88.0911 597.199 88.0081 597.199H87.9251ZM86.5972 584.865C85.6842 584.865 84.8542 584.12 84.8542 583.209C84.8542 582.05 84.6882 580.808 84.6053 579.65C84.6053 578.656 85.2692 577.828 86.2652 577.828C87.1781 577.828 88.0911 578.491 88.0911 579.484C88.0911 580.643 88.2571 581.802 88.3401 582.961C88.3401 583.954 87.6761 584.782 86.6802 584.865C86.6802 584.865 86.6801 584.865 86.5972 584.865ZM86.1822 572.448C85.1862 572.448 84.4393 571.703 84.4393 570.709V569.882C84.4393 568.971 84.4393 568.06 84.4393 567.067C84.4393 566.074 85.2692 565.246 86.2652 565.329C87.2611 565.329 88.0081 566.156 88.0081 567.15C88.0081 568.06 88.0081 568.971 88.0081 569.882V570.627C88.0081 571.62 87.2611 572.365 86.2652 572.448H86.1822ZM86.5142 560.114C86.5142 560.114 86.5142 560.114 86.4312 560.114C85.4352 560.114 84.6882 559.203 84.7712 558.21C84.7712 557.051 84.9372 555.809 85.0202 554.65C85.0202 553.657 85.9332 552.995 86.9291 552.995C87.9251 552.995 88.6721 553.905 88.5891 554.898C88.5061 556.057 88.4231 557.216 88.3401 558.375C88.3401 559.286 87.5101 560.031 86.5972 560.031L86.5142 560.114ZM105.188 552.001C104.192 552.001 103.445 551.256 103.445 550.263C103.445 549.269 104.192 548.442 105.188 548.442C106.35 548.442 107.512 548.442 108.674 548.359C109.67 548.359 110.5 549.104 110.5 550.014C110.5 551.008 109.753 551.836 108.84 551.836C107.678 551.836 106.433 551.918 105.271 551.918L105.188 552.001ZM96.3077 551.836C96.3077 551.836 96.3077 551.836 96.2247 551.836C95.0627 551.836 93.8178 551.67 92.6559 551.587C91.6599 551.505 90.9959 550.677 91.0789 549.683C91.1619 548.69 91.9919 548.028 92.9879 548.111C94.1498 548.193 95.3117 548.276 96.4737 548.359C97.4696 548.359 98.2166 549.269 98.1336 550.263C98.1336 551.173 97.3036 551.918 96.3907 551.918L96.3077 551.836ZM117.555 551.173C116.642 551.173 115.895 550.511 115.812 549.601C115.729 548.607 116.393 547.779 117.389 547.614C118.551 547.448 119.713 547.283 120.874 547.117C121.87 546.952 122.783 547.614 122.866 548.607C123.032 549.601 122.368 550.511 121.372 550.594C120.211 550.759 118.966 550.925 117.804 551.091C117.804 551.091 117.638 551.091 117.555 551.091V551.173ZM83.9413 550.428C83.8583 550.428 83.7753 550.428 83.6093 550.428C82.4474 550.263 81.2854 550.014 80.0405 549.766C79.0445 549.601 78.4636 548.607 78.6295 547.697C78.7955 546.703 79.7915 546.124 80.7045 546.289C81.8664 546.538 83.0283 546.703 84.1903 546.952C85.1862 547.117 85.7672 548.028 85.6842 549.021C85.5182 549.849 84.7712 550.511 83.9413 550.511V550.428ZM129.838 549.021C129.008 549.021 128.344 548.442 128.095 547.614C127.846 546.62 128.427 545.71 129.423 545.462C130.585 545.213 131.664 544.882 132.826 544.634C133.739 544.385 134.735 544.965 134.984 545.875C135.233 546.786 134.652 547.779 133.739 548.028C132.577 548.359 131.415 548.607 130.253 548.938C130.087 548.938 130.004 548.938 129.838 548.938V549.021ZM71.8239 547.779C71.6579 547.779 71.4919 547.779 71.3259 547.779C70.164 547.448 69.002 547.117 67.8401 546.786C66.9271 546.538 66.3461 545.544 66.6781 544.551C67.0101 543.558 67.9231 543.061 68.919 543.392C69.998 543.723 71.1599 544.054 72.3219 544.385C73.2348 544.634 73.8158 545.627 73.5668 546.538C73.3178 547.365 72.6538 547.862 71.8239 547.862V547.779ZM87.6761 547.779C87.6761 547.779 87.5101 547.779 87.4271 547.779C86.4312 547.614 85.7672 546.786 85.9332 545.793C86.0992 544.634 86.2652 543.392 86.4312 542.233C86.5972 541.24 87.5101 540.578 88.4231 540.743C89.419 540.909 90.083 541.819 89.917 542.73C89.751 543.889 89.585 545.048 89.419 546.207C89.336 547.117 88.5061 547.779 87.6761 547.779ZM141.789 545.544C141.042 545.544 140.379 545.13 140.13 544.385C139.798 543.475 140.296 542.482 141.208 542.15C142.287 541.736 143.366 541.323 144.528 540.909C145.441 540.578 146.437 540.991 146.852 541.902C147.184 542.813 146.769 543.806 145.856 544.22C144.694 544.634 143.615 545.048 142.453 545.462C142.287 545.462 142.038 545.544 141.872 545.544H141.789ZM60.0385 543.972C59.8725 543.972 59.6235 543.972 59.4575 543.889C58.2955 543.475 57.2166 543.061 56.1376 542.564C55.2247 542.233 54.8097 541.157 55.1417 540.246C55.4737 539.336 56.5526 538.922 57.4656 539.253C58.5445 539.667 59.6235 540.081 60.7024 540.495C61.6154 540.826 62.1134 541.819 61.7814 542.813C61.5324 543.558 60.8684 543.972 60.1214 543.972H60.0385ZM153.243 540.743C152.579 540.743 151.915 540.412 151.666 539.75C151.251 538.839 151.666 537.846 152.496 537.349C153.575 536.852 154.571 536.273 155.65 535.776C156.48 535.28 157.559 535.611 158.057 536.521C158.555 537.349 158.223 538.425 157.31 538.922C156.231 539.501 155.152 539.998 154.073 540.578C153.824 540.66 153.575 540.743 153.326 540.743H153.243ZM48.585 539.088C48.336 539.088 48.087 539.088 47.838 538.922C46.7591 538.425 45.6802 537.846 44.6012 537.349C43.6883 536.935 43.3563 535.859 43.8542 534.949C44.2692 534.038 45.3482 533.707 46.2611 534.204C47.3401 534.7 48.336 535.28 49.415 535.776C50.3279 536.19 50.6599 537.266 50.2449 538.094C49.9129 538.756 49.332 539.088 48.668 539.088H48.585ZM89.668 535.528C89.585 535.528 89.419 535.528 89.336 535.528C88.3401 535.362 87.7591 534.369 87.9251 533.458C88.1741 532.3 88.4231 531.141 88.6721 529.982C88.921 528.988 89.834 528.409 90.7469 528.657C91.7429 528.906 92.3239 529.816 92.0749 530.727C91.8259 531.886 91.5769 533.045 91.3279 534.121C91.1619 534.949 90.415 535.528 89.585 535.528H89.668ZM164.032 534.617C163.451 534.617 162.87 534.369 162.538 533.79C162.04 532.962 162.206 531.886 163.036 531.306C164.032 530.644 164.945 530.065 165.941 529.32C166.771 528.74 167.85 528.988 168.431 529.733C169.012 530.561 168.763 531.637 168.016 532.217C167.02 532.879 166.024 533.541 165.028 534.204C164.696 534.369 164.364 534.452 164.032 534.452V534.617ZM37.5466 533.376C37.2146 533.376 36.9656 533.376 36.6336 533.127C35.6376 532.548 34.5587 531.886 33.5628 531.306C32.7328 530.81 32.4838 529.733 32.9818 528.906C33.4798 528.078 34.5587 527.829 35.3887 528.326C36.3846 528.906 37.3806 529.568 38.3765 530.147C39.2065 530.644 39.5385 531.72 39.0405 532.548C38.7085 533.127 38.1275 533.458 37.4636 533.458L37.5466 533.376ZM173.992 527.25C173.494 527.25 172.996 527.002 172.664 526.671C172 525.926 172.083 524.849 172.83 524.187C173.743 523.442 174.573 522.697 175.403 521.869C176.15 521.207 177.229 521.29 177.893 521.952C178.557 522.697 178.474 523.773 177.81 524.436C176.897 525.263 175.984 526.091 175.071 526.836C174.739 527.084 174.324 527.25 173.909 527.25H173.992ZM27.0891 526.671C26.7571 526.671 26.4251 526.588 26.0931 526.339C25.0972 525.677 24.1012 525.015 23.1883 524.27C22.3583 523.691 22.1923 522.614 22.7733 521.787C23.3542 520.959 24.4332 520.793 25.2632 521.373C26.1761 522.035 27.1721 522.697 28.168 523.359C28.998 523.939 29.164 525.015 28.666 525.843C28.334 526.339 27.753 526.588 27.1721 526.588L27.0891 526.671ZM92.5729 523.442C92.4069 523.442 92.2409 523.442 92.0749 523.442C91.1619 523.194 90.581 522.2 90.83 521.29C91.1619 520.131 91.4939 518.972 91.8259 517.813C92.0749 516.903 93.0708 516.323 94.0668 516.571C94.9797 516.82 95.5607 517.813 95.3117 518.807C94.9797 519.965 94.6478 521.042 94.3158 522.201C94.0668 523.028 93.4028 523.525 92.5729 523.525V523.442ZM17.1295 519.303C16.7146 519.303 16.3826 519.138 16.0506 518.889C15.1376 518.144 14.2247 517.399 13.3117 516.654C12.5648 515.992 12.4818 514.916 13.0627 514.171C13.7267 513.426 14.8057 513.343 15.5526 513.923C16.4656 514.668 17.3785 515.413 18.2915 516.158C19.0385 516.737 19.2044 517.896 18.5405 518.641C18.2085 519.055 17.7105 519.303 17.1295 519.303ZM182.872 518.558C182.457 518.558 182.042 518.393 181.711 518.144C180.964 517.482 180.881 516.406 181.544 515.661C182.208 514.916 182.872 514.171 183.453 513.426L183.785 513.012C184.366 512.267 185.528 512.101 186.275 512.764C187.022 513.343 187.188 514.502 186.524 515.247L186.192 515.661C185.528 516.489 184.864 517.234 184.2 517.979C183.868 518.393 183.37 518.558 182.872 518.558ZM96.2247 511.605C96.0587 511.605 95.8097 511.605 95.6437 511.522C94.7308 511.191 94.2328 510.197 94.5648 509.287C94.9798 508.128 95.3947 507.052 95.8097 505.893C96.1417 504.982 97.1376 504.486 98.1336 504.817C99.0465 505.148 99.5445 506.141 99.2125 507.052C98.7976 508.128 98.3826 509.287 98.0506 510.363C97.8016 511.108 97.1376 511.522 96.3907 511.522L96.2247 511.605ZM7.66801 511.191C7.25303 511.191 6.83805 511.025 6.42307 510.694C5.51012 509.866 4.68015 509.038 3.85019 508.211C3.10323 507.548 3.10323 506.39 3.85019 505.727C4.51416 504.982 5.6761 504.982 6.34007 505.727C7.17003 506.555 7.99999 507.3 8.91295 508.128C9.65991 508.79 9.6599 509.949 8.99593 510.611C8.66396 511.025 8.16599 511.191 7.66801 511.191ZM190.342 508.625C190.01 508.625 189.678 508.542 189.429 508.376C188.599 507.88 188.35 506.803 188.848 505.976C189.429 504.982 190.01 503.989 190.591 502.996C191.089 502.168 192.168 501.837 192.998 502.251C193.828 502.747 194.16 503.823 193.745 504.651C193.164 505.727 192.583 506.803 191.919 507.797C191.587 508.376 191.006 508.625 190.425 508.625H190.342ZM-1.12956 502.499C-1.62754 502.499 -2.04251 502.333 -2.4575 501.919C-3.28745 501.092 -4.11742 500.181 -4.86438 499.271C-5.52835 498.525 -5.44535 497.449 -4.78138 496.787C-4.03442 496.125 -2.95547 496.208 -2.2915 496.87C-1.54454 497.698 -0.714584 498.608 0.115372 499.436C0.779343 500.181 0.779343 501.257 0.115372 501.919C-0.216614 502.251 -0.631592 502.416 -1.12956 502.416V502.499ZM100.706 500.098C100.457 500.098 100.208 500.098 100.043 499.933C99.1295 499.519 98.7146 498.525 99.1295 497.615C99.6275 496.539 100.125 495.463 100.623 494.304C101.038 493.393 102.117 493.062 102.947 493.393C103.86 493.807 104.192 494.883 103.86 495.711C103.362 496.787 102.864 497.863 102.449 498.939C102.2 499.602 101.536 500.016 100.789 500.016L100.706 500.098ZM195.737 497.532C195.488 497.532 195.322 497.532 195.073 497.449C194.16 497.118 193.662 496.042 194.077 495.132C194.492 494.055 194.824 492.979 195.239 491.903C195.571 490.992 196.567 490.496 197.48 490.744C198.393 491.075 198.974 492.069 198.642 492.979C198.31 494.138 197.895 495.297 197.48 496.456C197.231 497.201 196.567 497.615 195.82 497.615L195.737 497.532ZM-9.42916 493.228C-9.92714 493.228 -10.4251 492.979 -10.7571 492.565C-11.5041 491.655 -12.251 490.744 -12.998 489.834C-13.579 489.089 -13.496 487.93 -12.749 487.35C-12.002 486.771 -10.8401 486.854 -10.2591 487.599C-9.51215 488.509 -8.7652 489.42 -8.01823 490.33C-7.35426 491.075 -7.52025 492.234 -8.26721 492.814C-8.59919 493.062 -9.01418 493.228 -9.42916 493.228ZM106.101 488.84C105.852 488.84 105.52 488.84 105.271 488.675C104.441 488.261 104.026 487.185 104.524 486.274C105.105 485.198 105.603 484.122 106.184 483.128C106.682 482.301 107.761 481.97 108.591 482.466C109.421 482.963 109.753 484.039 109.255 484.867C108.674 485.86 108.176 486.936 107.595 487.93C107.263 488.509 106.682 488.923 106.018 488.923L106.101 488.84ZM198.974 485.529C198.891 485.529 198.808 485.529 198.725 485.529C197.729 485.364 197.065 484.453 197.231 483.542C197.397 482.383 197.563 481.307 197.646 480.148C197.646 479.155 198.559 478.493 199.555 478.493C200.551 478.493 201.298 479.403 201.215 480.397C201.132 481.638 200.966 482.797 200.8 484.039C200.634 484.95 199.887 485.529 199.057 485.529H198.974ZM-17.0648 483.46C-17.6458 483.46 -18.1437 483.211 -18.4757 482.715C-19.2227 481.721 -19.8866 480.811 -20.5506 479.817C-21.1316 478.989 -20.9656 477.913 -20.1356 477.334C-19.3057 476.754 -18.2267 476.92 -17.6458 477.748C-16.9818 478.741 -16.2348 479.652 -15.5709 480.562C-14.9899 481.39 -15.1559 482.466 -15.9858 483.046C-16.3178 483.294 -16.6498 483.377 -17.0648 483.377V483.46ZM112.243 478.079C111.911 478.079 111.579 477.996 111.33 477.831C110.5 477.334 110.251 476.175 110.749 475.347C111.413 474.354 112.077 473.36 112.741 472.367C113.322 471.539 114.401 471.374 115.231 471.87C116.061 472.45 116.227 473.526 115.729 474.354C115.065 475.347 114.401 476.258 113.82 477.251C113.488 477.748 112.907 478.079 112.326 478.079H112.243ZM-24.1194 473.278C-24.7004 473.278 -25.2814 473.029 -25.6134 472.45C-26.2773 471.456 -26.9413 470.463 -27.5223 469.47C-28.0202 468.642 -27.7713 467.566 -26.9413 466.986C-26.1113 466.49 -25.0324 466.738 -24.4514 467.566C-23.7875 468.559 -23.2065 469.553 -22.5425 470.546C-22.0445 471.374 -22.2105 472.45 -23.0405 473.029C-23.3725 473.195 -23.7045 473.278 -24.0364 473.278H-24.1194ZM199.14 473.195C198.227 473.195 197.48 472.533 197.397 471.622C197.231 470.463 197.065 469.387 196.816 468.311C196.567 467.318 197.231 466.407 198.144 466.159C199.057 465.91 200.053 466.572 200.302 467.483C200.551 468.642 200.8 469.884 200.966 471.125C201.049 472.119 200.385 472.947 199.389 473.112C199.389 473.112 199.223 473.112 199.14 473.112V473.195ZM119.464 467.98C119.049 467.98 118.717 467.814 118.385 467.566C117.638 466.986 117.472 465.828 118.136 465.082C118.883 464.172 119.63 463.179 120.46 462.268C121.123 461.523 122.202 461.44 122.949 462.102C123.696 462.765 123.779 463.841 123.115 464.586C122.368 465.496 121.621 466.324 120.874 467.235C120.543 467.649 120.045 467.897 119.464 467.897V467.98ZM-30.6761 462.682C-31.2571 462.682 -31.8381 462.351 -32.17 461.771C-32.751 460.778 -33.332 459.702 -33.996 458.708C-34.4939 457.881 -34.1619 456.804 -33.332 456.308C-32.502 455.811 -31.4231 456.142 -30.9251 456.97C-30.3441 457.963 -29.7632 459.04 -29.1822 460.033C-28.6842 460.861 -28.9332 461.937 -29.8462 462.434C-30.0951 462.599 -30.4271 462.682 -30.7591 462.682H-30.6761ZM195.488 461.44C194.824 461.44 194.243 461.109 193.911 460.53C193.413 459.536 192.832 458.626 192.168 457.632C191.587 456.805 191.836 455.728 192.666 455.149C193.496 454.569 194.575 454.818 195.156 455.646C195.82 456.639 196.484 457.715 197.065 458.874C197.563 459.702 197.231 460.778 196.318 461.275C196.069 461.44 195.737 461.44 195.488 461.44ZM127.846 458.874C127.348 458.874 126.933 458.708 126.518 458.295C125.854 457.55 125.854 456.473 126.601 455.811C127.514 454.983 128.427 454.156 129.34 453.411C130.087 452.748 131.249 452.914 131.83 453.659C132.494 454.404 132.328 455.563 131.581 456.142C130.668 456.887 129.838 457.632 129.008 458.46C128.676 458.791 128.261 458.957 127.763 458.957L127.846 458.874ZM-36.7348 451.838C-37.3988 451.838 -37.9798 451.507 -38.3117 450.927C-38.8927 449.851 -39.3907 448.858 -39.9717 447.781C-40.3866 446.871 -40.0547 445.878 -39.2247 445.381C-38.3117 444.967 -37.3158 445.298 -36.8178 446.126C-36.3198 447.202 -35.7389 448.195 -35.1579 449.272C-34.6599 450.099 -35.0749 451.175 -35.9049 451.672C-36.1539 451.838 -36.4858 451.838 -36.7348 451.838ZM187.686 451.838C187.271 451.838 186.856 451.672 186.524 451.424C185.694 450.762 184.781 450.099 183.785 449.437C182.955 448.94 182.706 447.781 183.287 446.954C183.868 446.126 184.947 445.878 185.777 446.457C186.856 447.119 187.852 447.864 188.765 448.692C189.512 449.354 189.595 450.43 189.014 451.176C188.682 451.589 188.184 451.838 187.603 451.838H187.686ZM137.723 451.341C137.142 451.341 136.561 451.01 136.229 450.513C135.731 449.685 135.98 448.609 136.81 448.113C137.806 447.45 138.885 446.871 139.964 446.291C140.794 445.795 141.872 446.126 142.37 447.037C142.868 447.864 142.536 448.94 141.623 449.437C140.628 450.017 139.632 450.596 138.636 451.176C138.304 451.341 138.055 451.424 137.723 451.424V451.341ZM148.927 446.043C148.18 446.043 147.516 445.546 147.267 444.801C146.935 443.891 147.516 442.898 148.429 442.566C149.591 442.152 150.753 441.821 151.998 441.573C152.994 441.325 153.907 441.904 154.156 442.898C154.405 443.808 153.824 444.801 152.828 445.05C151.749 445.298 150.587 445.629 149.508 445.96C149.342 445.96 149.176 446.043 148.927 446.043ZM176.897 445.96C176.731 445.96 176.482 445.96 176.316 445.878C175.237 445.546 174.158 445.215 173.079 444.967C172.166 444.719 171.502 443.808 171.751 442.815C172 441.904 172.913 441.242 173.909 441.49C175.154 441.821 176.316 442.153 177.478 442.484C178.391 442.815 178.889 443.808 178.557 444.719C178.308 445.464 177.644 445.96 176.897 445.96ZM161.128 443.891C160.215 443.891 159.385 443.146 159.385 442.235C159.385 441.242 160.132 440.414 161.045 440.414C162.289 440.414 163.534 440.414 164.696 440.414C165.692 440.414 166.439 441.242 166.439 442.235C166.439 443.229 165.609 443.974 164.613 443.974C163.451 443.974 162.372 443.974 161.21 443.974C161.21 443.974 161.211 443.974 161.128 443.974V443.891ZM-42.2956 440.745C-42.9595 440.745 -43.6235 440.414 -43.8725 439.752C-44.3705 438.676 -44.8684 437.6 -45.3664 436.523C-45.7814 435.613 -45.3664 434.62 -44.5364 434.206C-43.6235 433.792 -42.6275 434.206 -42.2126 435.033C-41.7146 436.11 -41.2166 437.186 -40.7186 438.262C-40.3036 439.172 -40.7186 440.166 -41.5486 440.662C-41.7976 440.745 -42.0466 440.828 -42.2956 440.828V440.745ZM-47.4413 429.487C-48.1053 429.487 -48.7692 429.073 -49.1012 428.411C-49.5992 427.335 -50.0142 426.259 -50.5122 425.1C-50.9271 424.189 -50.5121 423.196 -49.5992 422.782C-48.6862 422.368 -47.6903 422.782 -47.2753 423.693C-46.7773 424.769 -46.3624 425.845 -45.8644 426.921C-45.4494 427.832 -45.8644 428.825 -46.7773 429.239C-47.0263 429.322 -47.2753 429.404 -47.4413 429.404V429.487ZM-52.1721 417.981C-52.919 417.981 -53.583 417.567 -53.832 416.822C-54.247 415.746 -54.6619 414.587 -55.1599 413.511C-55.4919 412.6 -55.0769 411.607 -54.164 411.193C-53.251 410.862 -52.2551 411.276 -51.8401 412.186C-51.4251 413.262 -51.0101 414.421 -50.5951 415.497C-50.2632 416.408 -50.6781 417.401 -51.5911 417.815C-51.8401 417.898 -52.0061 417.898 -52.2551 417.898L-52.1721 417.981ZM-56.4879 406.392C-57.2348 406.392 -57.8988 405.978 -58.1478 405.233C-58.5628 404.157 -58.9777 402.998 -59.3097 401.922C-59.6417 401.011 -59.1437 400.018 -58.2308 399.687C-57.3178 399.355 -56.3219 399.852 -55.9899 400.763C-55.5749 401.839 -55.2429 402.998 -54.8279 404.074C-54.496 404.984 -54.9939 405.978 -55.9069 406.309C-56.0729 406.309 -56.3219 406.392 -56.4879 406.392ZM-60.5547 394.72C-61.3016 394.72 -61.9656 394.223 -62.2146 393.478C-62.5466 392.319 -62.9615 391.243 -63.2935 390.084C-63.6255 389.173 -63.0445 388.18 -62.1316 387.849C-61.2186 387.518 -60.2227 388.097 -59.8907 389.008C-59.5587 390.167 -59.1437 391.243 -58.8117 392.402C-58.4798 393.312 -58.9777 394.306 -59.9737 394.637C-60.1397 394.637 -60.3057 394.72 -60.5547 394.72ZM-64.2895 382.882C-65.0364 382.882 -65.7834 382.386 -65.9494 381.641C-66.2814 380.482 -66.6134 379.405 -66.9453 378.247C-67.1943 377.336 -66.6964 376.343 -65.7834 376.012C-64.8704 375.763 -63.8745 376.26 -63.5425 377.17C-63.2105 378.329 -62.8785 379.405 -62.5466 380.564C-62.2976 381.475 -62.7955 382.468 -63.7085 382.799C-63.8745 382.799 -64.0405 382.799 -64.2065 382.799L-64.2895 382.882ZM-67.7753 370.962C-68.5223 370.962 -69.2692 370.465 -69.5182 369.637C-69.8502 368.479 -70.1822 367.32 -70.4312 366.243C-70.6802 365.333 -70.0992 364.34 -69.1862 364.091C-68.2733 363.843 -67.2773 364.422 -67.0283 365.333C-66.6964 366.492 -66.4474 367.568 -66.1154 368.727C-65.8664 369.637 -66.4474 370.631 -67.3603 370.879C-67.5263 370.879 -67.6923 370.879 -67.8583 370.879L-67.7753 370.962ZM-70.9292 358.959C-71.7591 358.959 -72.4231 358.462 -72.6721 357.634C-72.9211 356.475 -73.253 355.317 -73.502 354.158C-73.751 353.247 -73.17 352.254 -72.1741 352.005C-71.2611 351.757 -70.2652 352.337 -70.0162 353.33C-69.7672 354.489 -69.4352 355.648 -69.1862 356.724C-68.9372 357.634 -69.5182 358.628 -70.5142 358.876C-70.6802 358.876 -70.7632 358.876 -70.9292 358.876V358.959ZM-73.834 346.873C-74.664 346.873 -75.4109 346.294 -75.5769 345.466C-75.8259 344.307 -76.0749 343.148 -76.3239 341.989C-76.5729 340.996 -75.9089 340.085 -74.996 339.92C-74 339.671 -73.087 340.333 -72.9211 341.244C-72.6721 342.403 -72.4231 343.562 -72.1741 344.721C-71.9251 345.714 -72.5891 346.625 -73.502 346.873C-73.668 346.873 -73.751 346.873 -73.917 346.873H-73.834ZM-76.4069 334.787C-77.2368 334.787 -77.9838 334.208 -78.1498 333.38C-78.3988 332.221 -78.6478 331.062 -78.8138 329.903C-78.9798 328.91 -78.3988 327.999 -77.4028 327.834C-76.4069 327.668 -75.4939 328.248 -75.3279 329.241C-75.0789 330.4 -74.913 331.559 -74.664 332.718C-74.498 333.711 -75.0789 334.622 -76.0749 334.787C-76.1579 334.787 -76.3239 334.787 -76.4069 334.787ZM-78.7308 322.619C-79.5607 322.619 -80.3077 322.039 -80.4737 321.129C-80.6397 319.97 -80.8887 318.811 -81.0547 317.652C-81.2206 316.658 -80.5567 315.748 -79.5607 315.582C-78.5648 315.417 -77.6518 316.079 -77.4858 317.072C-77.3198 318.231 -77.0709 319.39 -76.9049 320.549C-76.7389 321.542 -77.4028 322.453 -78.3158 322.619C-78.3988 322.619 -78.5648 322.619 -78.6478 322.619H-78.7308ZM-80.7227 310.367C-81.5526 310.367 -82.3826 309.705 -82.4656 308.877C-82.6316 307.718 -82.7976 306.559 -82.9636 305.4C-83.1296 304.407 -82.4656 303.496 -81.4696 303.414C-80.4737 303.248 -79.5607 303.91 -79.4777 304.904C-79.3117 306.063 -79.1457 307.222 -78.9798 308.38C-78.8138 309.374 -79.4777 310.284 -80.4737 310.367C-80.5567 310.367 -80.6397 310.367 -80.7227 310.367ZM-82.4656 298.116C-83.3785 298.116 -84.1255 297.454 -84.2085 296.543C-84.3745 295.384 -84.5405 294.225 -84.6235 292.983C-84.7065 291.99 -84.0425 291.162 -83.0466 290.997C-82.0506 290.914 -81.2206 291.576 -81.0547 292.57C-80.8887 293.728 -80.8057 294.887 -80.6397 296.046C-80.4737 297.04 -81.2206 297.867 -82.1336 298.033C-82.1336 298.033 -82.2996 298.033 -82.3826 298.033L-82.4656 298.116ZM-83.8765 285.782C-84.7895 285.782 -85.5364 285.119 -85.6194 284.209C-85.7024 283.05 -85.8684 281.891 -85.9514 280.649C-86.0344 279.656 -85.3704 278.828 -84.3745 278.745C-83.3785 278.663 -82.5486 279.325 -82.4656 280.318C-82.3826 281.477 -82.2166 282.636 -82.1336 283.795C-82.0506 284.788 -82.7146 285.616 -83.7105 285.699H-83.8765V285.782ZM-85.0385 273.447C-85.9514 273.447 -86.6984 272.785 -86.7814 271.792C-86.8644 270.633 -86.9474 269.391 -87.0304 268.232C-87.0304 267.239 -86.3664 266.411 -85.3704 266.328C-84.3745 266.328 -83.5445 266.991 -83.4615 267.984C-83.3785 269.143 -83.2955 270.302 -83.2126 271.544C-83.2126 272.537 -83.8765 273.365 -84.8725 273.447C-84.8725 273.447 -84.9555 273.447 -85.0385 273.447ZM-85.9514 261.03C-86.8644 261.03 -87.6943 260.285 -87.6943 259.375C-87.6943 258.216 -87.8603 256.974 -87.8603 255.815C-87.8603 254.822 -87.1964 253.994 -86.2004 253.994C-85.2045 253.994 -84.3745 254.656 -84.3745 255.65C-84.3745 256.809 -84.2915 257.968 -84.2085 259.209C-84.2085 260.203 -84.8725 261.03 -85.8684 261.113C-85.8684 261.113 -85.8684 261.113 -85.9514 261.113V261.03ZM-86.4494 248.696C-87.3623 248.696 -88.1923 247.951 -88.1923 246.958C-88.1923 245.799 -88.1923 244.557 -88.2753 243.398C-88.2753 242.405 -87.5283 241.577 -86.5324 241.577C-85.5364 241.577 -84.7065 242.322 -84.7065 243.316C-84.7065 244.475 -84.7065 245.633 -84.6235 246.875C-84.6235 247.869 -85.3704 248.696 -86.3664 248.696H-86.4494ZM-86.7814 236.279C-87.7773 236.279 -88.5243 235.534 -88.5243 234.541C-88.5243 233.382 -88.5243 232.14 -88.5243 230.981C-88.5243 229.988 -87.7773 229.243 -86.7814 229.243C-85.7854 229.243 -85.0385 230.071 -85.0385 230.981C-85.0385 232.14 -85.0385 233.299 -85.0385 234.541C-85.0385 235.534 -85.7854 236.279 -86.7814 236.362V236.279ZM-86.7814 223.862C-87.7773 223.862 -88.5243 223.035 -88.5243 222.041C-88.5243 220.882 -88.5243 219.641 -88.5243 218.482C-88.5243 217.488 -87.6943 216.826 -86.6984 216.743C-85.7024 216.743 -84.9555 217.571 -84.9555 218.564C-84.9555 219.723 -84.9555 220.882 -84.9555 222.124C-84.9555 223.117 -85.7854 223.862 -86.6984 223.862H-86.7814ZM-86.4494 211.445C-87.4453 211.445 -88.1923 210.618 -88.1923 209.624C-88.1923 208.465 -88.1093 207.224 -88.0263 206.065C-88.0263 205.071 -87.1134 204.326 -86.2004 204.409C-85.2045 204.409 -84.4575 205.237 -84.5405 206.23C-84.5405 207.389 -84.6235 208.548 -84.7065 209.79C-84.7065 210.783 -85.5364 211.528 -86.4494 211.528V211.445ZM-85.8684 199.111C-85.8684 199.111 -85.8684 199.111 -85.9514 199.111C-86.9474 199.111 -87.6943 198.201 -87.6113 197.207C-87.6113 196.048 -87.4453 194.807 -87.3623 193.648C-87.3623 192.654 -86.4494 191.909 -85.4534 191.992C-84.4575 191.992 -83.7105 192.903 -83.7935 193.896C-83.7935 195.055 -83.9595 196.214 -84.0425 197.456C-84.0425 198.366 -84.8725 199.111 -85.7854 199.111H-85.8684ZM-85.0385 186.694C-85.0385 186.694 -85.1215 186.694 -85.2045 186.694C-86.2004 186.694 -86.9474 185.784 -86.8644 184.79C-86.7814 183.631 -86.6984 182.39 -86.5324 181.231C-86.4494 180.238 -85.5364 179.575 -84.6235 179.658C-83.6275 179.741 -82.9636 180.569 -83.0466 181.562C-83.1296 182.721 -83.2126 183.88 -83.3785 185.122C-83.3785 186.032 -84.2085 186.777 -85.1215 186.777L-85.0385 186.694ZM-83.8765 174.36C-83.8765 174.36 -83.9595 174.36 -84.0425 174.36C-85.0385 174.277 -85.7024 173.367 -85.6194 172.456C-85.5364 171.297 -85.3704 170.138 -85.2045 168.897C-85.1215 167.903 -84.2085 167.241 -83.2126 167.324C-82.2166 167.407 -81.5526 168.317 -81.6356 169.311C-81.8016 170.469 -81.8846 171.628 -82.0506 172.787C-82.1336 173.698 -82.8806 174.36 -83.7935 174.36H-83.8765ZM-82.4656 162.026C-82.4656 162.026 -82.6316 162.026 -82.7146 162.026C-83.7105 161.86 -84.3745 161.033 -84.2915 160.039C-84.1255 158.88 -83.9595 157.721 -83.7935 156.48C-83.6275 155.486 -82.7976 154.824 -81.8016 154.99C-80.8057 155.155 -80.1417 155.983 -80.3077 156.976C-80.4737 158.135 -80.6397 159.294 -80.8057 160.453C-80.8887 161.364 -81.7186 162.026 -82.5486 162.026H-82.4656ZM-80.7227 149.775C-80.8057 149.775 -80.8887 149.775 -80.9717 149.775C-81.9676 149.609 -82.6316 148.698 -82.4656 147.788C-82.2996 146.629 -82.1336 145.47 -81.8846 144.311C-81.7186 143.318 -80.8057 142.656 -79.8927 142.821C-78.8968 142.987 -78.2328 143.897 -78.3988 144.808C-78.5648 145.967 -78.7308 147.126 -78.9798 148.285C-79.1457 149.195 -79.8927 149.775 -80.7227 149.775ZM-78.7308 137.523C-78.8138 137.523 -78.8968 137.523 -79.0628 137.523C-80.0587 137.358 -80.6397 136.447 -80.4737 135.454C-80.3077 134.295 -80.0587 133.136 -79.8097 131.977C-79.6437 130.984 -78.7308 130.404 -77.7348 130.57C-76.7389 130.735 -76.1579 131.646 -76.3239 132.639C-76.5729 133.798 -76.7389 134.957 -76.9049 136.116C-77.0709 136.944 -77.8178 137.606 -78.6478 137.606L-78.7308 137.523ZM-76.4899 125.355C-76.5729 125.355 -76.7389 125.355 -76.8219 125.355C-77.8178 125.189 -78.3988 124.196 -78.2328 123.285C-77.9838 122.126 -77.7348 120.967 -77.4858 119.808C-77.3198 118.815 -76.3239 118.235 -75.4109 118.401C-74.415 118.567 -73.834 119.56 -74 120.471C-74.249 121.629 -74.498 122.788 -74.664 123.947C-74.83 124.775 -75.5769 125.355 -76.4069 125.355H-76.4899ZM-73.917 113.186C-74.083 113.186 -74.166 113.186 -74.332 113.186C-75.3279 112.938 -75.9089 112.027 -75.6599 111.034C-75.4109 109.875 -75.1619 108.716 -74.913 107.557C-74.664 106.564 -73.751 105.984 -72.7551 106.232C-71.7591 106.481 -71.1781 107.391 -71.4271 108.385C-71.6761 109.544 -71.9251 110.703 -72.1741 111.861C-72.3401 112.689 -73.087 113.269 -73.917 113.269V113.186ZM-71.0951 101.1C-71.2611 101.1 -71.3441 101.1 -71.5101 101.1C-72.4231 100.852 -73.0041 99.9412 -72.8381 98.9478C-72.5891 97.7889 -72.2571 96.63 -72.0081 95.4711C-71.7591 94.5605 -70.7632 93.981 -69.8502 94.2294C-68.9372 94.4777 -68.3563 95.4711 -68.6053 96.3817C-68.9372 97.5406 -69.1862 98.6995 -69.4352 99.7756C-69.6012 100.603 -70.3482 101.1 -71.1781 101.1H-71.0951ZM-67.9413 89.097C-68.1073 89.097 -68.2733 89.097 -68.4393 89.097C-69.3522 88.8487 -69.9332 87.8553 -69.6842 86.9448C-69.3522 85.7859 -69.0202 84.6269 -68.7713 83.5508C-68.5223 82.6402 -67.5263 82.0608 -66.6134 82.3091C-65.7004 82.5574 -65.1194 83.5508 -65.3684 84.4614C-65.7004 85.6203 -66.0324 86.6964 -66.2814 87.8553C-66.5304 88.6831 -67.1943 89.1798 -68.0243 89.1798L-67.9413 89.097ZM-64.5385 77.1768C-64.7045 77.1768 -64.8704 77.1768 -65.0364 77.1768C-65.9494 76.9284 -66.5304 75.9351 -66.1984 74.9417C-65.8664 73.7828 -65.5344 72.7067 -65.2024 71.5477C-64.9534 70.6372 -63.9575 70.0577 -62.9615 70.3888C-62.0486 70.6372 -61.4676 71.6305 -61.7996 72.6239C-62.1316 73.7828 -62.4636 74.8589 -62.7955 76.0178C-63.0445 76.7629 -63.7085 77.2595 -64.4555 77.2595L-64.5385 77.1768ZM-60.8866 65.3393C-61.0526 65.3393 -61.2186 65.3393 -61.4676 65.2565C-62.3806 64.9254 -62.8785 63.932 -62.6296 63.0214C-62.2976 61.8625 -61.8826 60.7864 -61.5506 59.6275C-61.2186 58.7169 -60.2227 58.2202 -59.3097 58.4685C-58.3968 58.7997 -57.8988 59.793 -58.1478 60.7036C-58.4798 61.8625 -58.8947 62.9387 -59.2267 64.0976C-59.4757 64.8426 -60.1397 65.3393 -60.8866 65.3393ZM-56.9028 53.5845C-57.0688 53.5845 -57.3178 53.5845 -57.4838 53.5018C-58.3968 53.1706 -58.8947 52.1773 -58.5628 51.2667C-58.1478 50.1078 -57.7328 49.0317 -57.4008 47.9555C-57.0688 47.0449 -56.0729 46.5483 -55.1599 46.8794C-54.247 47.2105 -53.749 48.2039 -54.081 49.1144C-54.496 50.1906 -54.9109 51.3495 -55.2429 52.4256C-55.4919 53.1706 -56.1559 53.5845 -56.9028 53.5845ZM-52.67 41.9954C-52.919 41.9954 -53.085 41.9954 -53.334 41.9126C-54.247 41.5815 -54.7449 40.5881 -54.33 39.5948C-53.915 38.5186 -53.5 37.3597 -53.085 36.2836C-52.753 35.373 -51.6741 34.9591 -50.7611 35.2902C-49.8482 35.6213 -49.3502 36.6975 -49.7652 37.6081C-50.1802 38.6842 -50.5951 39.8431 -51.0101 40.9193C-51.2591 41.6643 -51.9231 42.0782 -52.67 42.0782V41.9954ZM-48.1053 30.4062C-48.3543 30.4062 -48.5202 30.4062 -48.7692 30.2407C-49.6822 29.9095 -50.0972 28.8334 -49.7652 27.9228C-49.3502 26.8467 -48.8522 25.6878 -48.4373 24.6116C-48.0223 23.7011 -47.0263 23.2872 -46.1134 23.6183C-45.2004 24.0322 -44.7854 25.0255 -45.1174 25.9361C-45.5324 27.0123 -46.0304 28.0884 -46.4454 29.1645C-46.6943 29.8268 -47.3583 30.2407 -48.1053 30.2407V30.4062ZM-43.2915 18.9826C-43.5405 18.9826 -43.7895 18.9826 -43.9555 18.8171C-44.8684 18.4032 -45.2834 17.4098 -44.8684 16.4992C-44.3704 15.4231 -43.9555 14.347 -43.4575 13.2708C-43.0425 12.3602 -42.0466 11.9463 -41.1336 12.3602C-40.2207 12.7741 -39.8057 13.7675 -40.2207 14.6781C-40.7186 15.7542 -41.1336 16.8304 -41.6316 17.9065C-41.8806 18.5687 -42.5445 18.9826 -43.2915 18.9826ZM-38.2288 7.6418C-38.4777 7.6418 -38.7267 7.6418 -38.9757 7.47624C-39.8887 7.06235 -40.2207 5.98621 -39.8057 5.15841C-39.3077 4.08228 -38.8097 3.00614 -38.3117 1.93C-37.8968 1.01943 -36.8178 0.688308 -35.9879 1.10221C-35.0749 1.51611 -34.7429 2.59224 -35.1579 3.42004C-35.6559 4.49617 -36.1539 5.57231 -36.6518 6.64845C-36.9838 7.31069 -37.5648 7.6418 -38.2288 7.6418Z" fill="black"/>
</svg>
