<svg width="435" height="473" viewBox="0 0 435 473" fill="white"
    xmlns="http://www.w3.org/2000/svg">
<path d="M427.9 472.212C426.7 472.212 425.8 471.624 425.8 470.84C425.8 470.056 426.7 469.468 427.9 469.468C429.3 469.468 430.7 469.468 432.1 469.468C433.2 469.468 434.3 470.056 434.3 470.84C434.3 471.624 433.4 472.278 432.2 472.278C430.8 472.278 429.3 472.278 427.9 472.278V472.212ZM417.2 472.082C417.2 472.082 417.2 472.082 417.1 472.082C415.7 472.082 414.2 471.951 412.8 471.886C411.6 471.886 410.7 471.167 410.8 470.383C410.8 469.599 411.9 469.076 413.1 469.076C414.5 469.076 415.9 469.207 417.3 469.207C418.5 469.207 419.4 469.926 419.3 470.644C419.3 471.363 418.3 471.951 417.2 471.951V472.082ZM402.3 471.298C402.3 471.298 402.1 471.298 402 471.298C400.6 471.167 399.1 471.036 397.7 470.906C396.5 470.775 395.7 470.122 395.9 469.338C396.1 468.554 397.1 468.031 398.3 468.162C399.7 468.292 401.1 468.423 402.5 468.488C403.7 468.554 404.5 469.272 404.4 470.056C404.3 470.775 403.3 471.298 402.3 471.298ZM387.5 469.795C387.4 469.795 387.2 469.795 387.1 469.795C385.7 469.599 384.3 469.403 382.9 469.272C381.7 469.142 381 468.358 381.2 467.639C381.4 466.855 382.6 466.398 383.7 466.529C385.1 466.725 386.5 466.921 387.9 467.051C389.1 467.182 389.8 467.901 389.6 468.685C389.4 469.338 388.5 469.795 387.5 469.795ZM372.9 467.639C372.7 467.639 372.5 467.639 372.4 467.639C371 467.378 369.6 467.182 368.2 466.921C367.1 466.725 366.4 465.941 366.7 465.222C367 464.503 368.2 464.046 369.3 464.242C370.7 464.503 372 464.765 373.4 464.961C374.5 465.157 375.2 465.941 374.9 466.659C374.6 467.313 373.8 467.705 372.8 467.705L372.9 467.639ZM358.5 464.83C358.3 464.83 358 464.83 357.8 464.765C356.4 464.438 355.1 464.177 353.7 463.85C352.6 463.589 352 462.805 352.4 462.086C352.8 461.368 354 460.976 355.1 461.237C356.4 461.564 357.8 461.825 359.1 462.152C360.2 462.413 360.8 463.197 360.4 463.915C360.1 464.503 359.3 464.895 358.4 464.895L358.5 464.83ZM344.5 461.368C344.2 461.368 344 461.368 343.7 461.237C342.4 460.91 341 460.518 339.7 460.126C338.6 459.8 338.1 459.016 338.6 458.297C339.1 457.578 340.3 457.252 341.4 457.578C342.7 457.97 344 458.297 345.3 458.624C346.4 458.885 346.9 459.734 346.5 460.453C346.2 460.976 345.4 461.302 344.5 461.302V461.368ZM330.8 457.382C330.5 457.382 330.2 457.382 329.9 457.252C328.6 456.86 327.3 456.402 326 456.01C324.9 455.684 324.5 454.835 325.1 454.116C325.6 453.397 326.9 453.136 328 453.528C329.3 453.92 330.5 454.377 331.8 454.769C332.9 455.096 333.3 455.945 332.8 456.664C332.4 457.186 331.7 457.448 330.9 457.448L330.8 457.382ZM317.6 452.744C317.2 452.744 316.9 452.744 316.5 452.548C315.3 452.091 314 451.633 312.8 451.111C311.8 450.719 311.5 449.87 312.1 449.216C312.7 448.563 314 448.367 315 448.759C316.2 449.216 317.4 449.674 318.6 450.131C319.6 450.523 320 451.372 319.4 452.025C319 452.483 318.3 452.744 317.5 452.744H317.6ZM304.9 447.583C304.5 447.583 304.1 447.518 303.7 447.322C302.5 446.799 301.3 446.276 300.1 445.754C299.1 445.296 298.9 444.447 299.6 443.794C300.3 443.141 301.6 443.01 302.6 443.467C303.8 443.99 304.9 444.512 306.1 445.035C307.1 445.492 307.3 446.342 306.7 446.995C306.3 447.387 305.6 447.583 304.9 447.583ZM292.7 441.899C292.2 441.899 291.8 441.834 291.4 441.638C290.3 441.05 289.1 440.462 288 439.874C287.1 439.417 286.9 438.502 287.7 437.914C288.4 437.326 289.8 437.196 290.7 437.718C291.8 438.306 292.9 438.894 294 439.417C294.9 439.874 295.1 440.789 294.4 441.377C294 441.703 293.3 441.899 292.7 441.899ZM281.2 435.693C280.7 435.693 280.2 435.562 279.8 435.366C278.7 434.713 277.7 434.125 276.6 433.472C275.7 432.949 275.7 432.034 276.5 431.512C277.3 430.924 278.7 430.924 279.5 431.447C280.5 432.1 281.6 432.688 282.6 433.276C283.5 433.798 283.6 434.648 282.8 435.236C282.4 435.562 281.8 435.693 281.2 435.693ZM270.3 428.964C269.7 428.964 269.2 428.833 268.8 428.572C267.8 427.919 266.8 427.2 265.8 426.547C265 425.959 265 425.11 265.8 424.587C266.7 424.064 268 424.064 268.8 424.587C269.8 425.24 270.8 425.893 271.7 426.612C272.5 427.135 272.5 428.049 271.7 428.572C271.3 428.833 270.7 428.964 270.2 428.964H270.3ZM260.2 421.712C259.6 421.712 259 421.516 258.6 421.19C257.7 420.471 256.7 419.753 255.8 419.034C255.1 418.446 255.2 417.531 256.1 417.074C257 416.617 258.4 416.682 259.1 417.27C260 417.989 260.9 418.707 261.8 419.426C262.6 420.014 262.5 420.863 261.6 421.386C261.2 421.582 260.7 421.712 260.2 421.712ZM250.9 414.069C250.2 414.069 249.6 413.873 249.2 413.481C248.3 412.697 247.5 411.978 246.7 411.194C246 410.541 246.3 409.692 247.2 409.234C248.2 408.777 249.5 408.973 250.2 409.561C251 410.345 251.8 411.064 252.7 411.782C253.4 412.436 253.2 413.285 252.2 413.742C251.8 413.938 251.4 414.003 250.9 414.003V414.069ZM242.5 405.903C241.8 405.903 241.1 405.641 240.7 405.249C239.9 404.465 239.2 403.616 238.5 402.832C237.9 402.179 238.2 401.329 239.2 400.938C240.2 400.546 241.5 400.742 242.1 401.395C242.8 402.179 243.6 402.963 244.3 403.747C244.9 404.4 244.6 405.249 243.6 405.641C243.2 405.772 242.9 405.837 242.5 405.837V405.903ZM235.1 397.41C234.3 397.41 233.6 397.148 233.2 396.691C232.5 395.842 231.9 394.992 231.2 394.209C230.7 393.49 231.2 392.706 232.2 392.314C233.3 391.987 234.5 392.314 235.1 392.967C235.7 393.817 236.4 394.6 237 395.45C237.5 396.103 237.1 396.952 236.1 397.344C235.8 397.475 235.4 397.475 235.1 397.475V397.41ZM228.6 388.59C227.8 388.59 227 388.264 226.6 387.741C226 386.892 225.5 386.042 224.9 385.128C224.5 384.409 224.9 383.625 226.1 383.298C227.2 383.037 228.4 383.298 228.9 384.082C229.4 384.932 230 385.781 230.6 386.63C231.1 387.349 230.6 388.133 229.5 388.459C229.2 388.525 228.9 388.59 228.6 388.59ZM223.1 379.509C222.2 379.509 221.4 379.183 221.1 378.595C220.6 377.68 220.2 376.831 219.7 375.916C219.3 375.198 219.9 374.414 221.1 374.152C222.2 373.891 223.4 374.283 223.8 375.067C224.2 375.916 224.7 376.831 225.2 377.68C225.6 378.399 225 379.183 223.9 379.444C223.7 379.444 223.4 379.509 223.2 379.509H223.1ZM218.6 370.167C217.7 370.167 216.8 369.775 216.5 369.122C216.1 368.207 215.7 367.293 215.4 366.378C215.1 365.659 215.8 364.875 216.9 364.679C218 364.483 219.2 364.941 219.5 365.659C219.9 366.574 220.2 367.423 220.6 368.338C220.9 369.057 220.2 369.841 219.1 370.036C218.9 370.036 218.7 370.036 218.5 370.036L218.6 370.167ZM215.1 360.694C214.1 360.694 213.2 360.237 213 359.584C212.7 358.669 212.4 357.754 212.2 356.84C212 356.056 212.8 355.337 213.9 355.207C215.1 355.076 216.2 355.599 216.4 356.317C216.7 357.232 216.9 358.146 217.2 359.061C217.4 359.845 216.7 360.564 215.5 360.694C215.4 360.694 215.2 360.694 215.1 360.694ZM212.6 351.026C211.5 351.026 210.6 350.503 210.5 349.85C210.3 348.935 210.1 347.955 210 347.04C209.9 346.256 210.7 345.603 211.9 345.472C213.1 345.407 214.1 345.93 214.3 346.714C214.5 347.628 214.6 348.543 214.8 349.458C215 350.242 214.1 350.895 213 351.026C213 351.026 212.8 351.026 212.7 351.026H212.6ZM211 341.291C209.9 341.291 208.9 340.703 208.9 339.985C208.9 339.07 208.7 338.09 208.6 337.176C208.6 336.392 209.4 335.738 210.6 335.738C211.7 335.738 212.8 336.261 212.8 337.045C212.8 337.96 213 338.874 213.1 339.789C213.1 340.573 212.3 341.226 211.1 341.291C211.1 341.291 211.1 341.291 211 341.291ZM210.5 331.492C209.3 331.492 208.4 330.904 208.4 330.12V329.467C208.4 328.748 208.4 328.029 208.4 327.245C208.4 326.462 209.4 325.808 210.6 325.874C211.8 325.874 212.7 326.527 212.7 327.311C212.7 328.029 212.7 328.748 212.7 329.467V330.055C212.7 330.839 211.8 331.427 210.6 331.492H210.5ZM210.9 321.758C210.9 321.758 210.9 321.758 210.8 321.758C209.6 321.758 208.7 321.039 208.8 320.255C208.8 319.341 209 318.361 209.1 317.446C209.1 316.662 210.2 316.139 211.4 316.139C212.6 316.139 213.5 316.858 213.4 317.642C213.3 318.557 213.2 319.471 213.1 320.386C213.1 321.104 212.1 321.692 211 321.692L210.9 321.758ZM233.4 315.355C232.2 315.355 231.3 314.767 231.3 313.983C231.3 313.2 232.2 312.546 233.4 312.546C234.8 312.546 236.2 312.546 237.6 312.481C238.8 312.481 239.8 313.069 239.8 313.788C239.8 314.571 238.9 315.225 237.8 315.225C236.4 315.225 234.9 315.29 233.5 315.29L233.4 315.355ZM222.7 315.225C222.7 315.225 222.7 315.225 222.6 315.225C221.2 315.225 219.7 315.094 218.3 315.029C217.1 314.963 216.3 314.31 216.4 313.526C216.5 312.742 217.5 312.22 218.7 312.285C220.1 312.35 221.5 312.416 222.9 312.481C224.1 312.481 225 313.2 224.9 313.983C224.9 314.702 223.9 315.29 222.8 315.29L222.7 315.225ZM248.3 314.702C247.2 314.702 246.3 314.18 246.2 313.461C246.1 312.677 246.9 312.024 248.1 311.893C249.5 311.762 250.9 311.632 252.3 311.501C253.5 311.37 254.6 311.893 254.7 312.677C254.9 313.461 254.1 314.18 252.9 314.245C251.5 314.375 250 314.506 248.6 314.637C248.6 314.637 248.4 314.637 248.3 314.637V314.702ZM207.8 314.114C207.7 314.114 207.6 314.114 207.4 314.114C206 313.983 204.6 313.788 203.1 313.592C201.9 313.461 201.2 312.677 201.4 311.958C201.6 311.174 202.8 310.717 203.9 310.848C205.3 311.044 206.7 311.174 208.1 311.37C209.3 311.501 210 312.22 209.9 313.004C209.7 313.657 208.8 314.18 207.8 314.18V314.114ZM263.1 313.004C262.1 313.004 261.3 312.546 261 311.893C260.7 311.109 261.4 310.39 262.6 310.194C264 309.998 265.3 309.737 266.7 309.541C267.8 309.345 269 309.802 269.3 310.521C269.6 311.24 268.9 312.024 267.8 312.22C266.4 312.481 265 312.677 263.6 312.938C263.4 312.938 263.3 312.938 263.1 312.938V313.004ZM193.2 312.024C193 312.024 192.8 312.024 192.6 312.024C191.2 311.762 189.8 311.501 188.4 311.24C187.3 311.044 186.6 310.26 187 309.476C187.4 308.692 188.5 308.3 189.7 308.561C191 308.822 192.4 309.084 193.8 309.345C194.9 309.541 195.6 310.325 195.3 311.044C195 311.697 194.2 312.089 193.2 312.089V312.024ZM212.3 312.024C212.3 312.024 212.1 312.024 212 312.024C210.8 311.893 210 311.24 210.2 310.456C210.4 309.541 210.6 308.561 210.8 307.647C211 306.863 212.1 306.34 213.2 306.471C214.4 306.601 215.2 307.32 215 308.039C214.8 308.953 214.6 309.868 214.4 310.782C214.3 311.501 213.3 312.024 212.3 312.024ZM277.5 310.26C276.6 310.26 275.8 309.933 275.5 309.345C275.1 308.626 275.7 307.842 276.8 307.581C278.1 307.255 279.4 306.928 280.8 306.601C281.9 306.34 283.1 306.667 283.6 307.385C284 308.104 283.5 308.888 282.4 309.214C281 309.541 279.7 309.868 278.3 310.194C278.1 310.194 277.8 310.26 277.6 310.26H277.5ZM179 309.018C178.8 309.018 178.5 309.018 178.3 308.953C176.9 308.626 175.6 308.3 174.3 307.908C173.2 307.647 172.7 306.797 173.1 306.079C173.5 305.36 174.8 305.033 175.9 305.295C177.2 305.621 178.5 305.948 179.8 306.275C180.9 306.536 181.5 307.32 181.1 308.104C180.8 308.692 180 309.018 179.1 309.018H179ZM291.3 306.471C290.5 306.471 289.7 306.209 289.4 305.687C288.9 304.968 289.4 304.184 290.4 303.792C291.7 303.4 292.9 302.943 294.2 302.551C295.2 302.159 296.5 302.42 297.1 303.139C297.7 303.792 297.3 304.641 296.2 305.033C294.9 305.491 293.6 305.883 292.3 306.34C292 306.405 291.7 306.471 291.4 306.471H291.3ZM165.2 305.164C164.9 305.164 164.6 305.164 164.3 305.033C163 304.641 161.7 304.184 160.4 303.792C159.3 303.465 158.9 302.616 159.5 301.897C160 301.179 161.3 300.918 162.4 301.31C163.7 301.702 164.9 302.159 166.2 302.551C167.3 302.877 167.7 303.727 167.2 304.38C166.8 304.903 166.1 305.164 165.3 305.164H165.2ZM214.7 302.355C214.6 302.355 214.4 302.355 214.3 302.355C213.1 302.224 212.4 301.44 212.6 300.722C212.9 299.807 213.2 298.892 213.5 297.978C213.8 297.194 214.9 296.736 216 296.932C217.2 297.128 217.9 297.847 217.6 298.566C217.3 299.48 217 300.395 216.7 301.244C216.5 301.897 215.6 302.355 214.6 302.355H214.7ZM304.3 301.636C303.6 301.636 302.9 301.44 302.5 300.983C301.9 300.33 302.1 299.48 303.1 299.023C304.3 298.5 305.4 298.043 306.6 297.455C307.6 296.998 308.9 297.194 309.6 297.782C310.3 298.435 310 299.284 309.1 299.742C307.9 300.264 306.7 300.787 305.5 301.31C305.1 301.44 304.7 301.506 304.3 301.506V301.636ZM151.9 300.656C151.5 300.656 151.2 300.656 150.8 300.46C149.6 300.003 148.3 299.48 147.1 299.023C146.1 298.631 145.8 297.782 146.4 297.128C147 296.475 148.3 296.279 149.3 296.671C150.5 297.128 151.7 297.651 152.9 298.108C153.9 298.5 154.3 299.35 153.7 300.003C153.3 300.46 152.6 300.722 151.8 300.722L151.9 300.656ZM316.3 295.822C315.7 295.822 315.1 295.626 314.7 295.365C313.9 294.777 314 293.927 314.9 293.405C316 292.817 317 292.229 318 291.575C318.9 291.053 320.2 291.118 321 291.641C321.8 292.229 321.7 293.078 320.9 293.601C319.8 294.254 318.7 294.907 317.6 295.495C317.2 295.691 316.7 295.822 316.2 295.822H316.3ZM139.3 295.365C138.9 295.365 138.5 295.299 138.1 295.103C136.9 294.581 135.7 294.058 134.6 293.47C133.6 293.013 133.4 292.163 134.1 291.51C134.8 290.857 136.1 290.726 137.1 291.183C138.2 291.706 139.4 292.229 140.6 292.751C141.6 293.209 141.8 294.058 141.2 294.711C140.8 295.103 140.1 295.299 139.4 295.299L139.3 295.365ZM218.2 292.817C218 292.817 217.8 292.817 217.6 292.817C216.5 292.621 215.8 291.837 216.1 291.118C216.5 290.203 216.9 289.289 217.3 288.374C217.6 287.656 218.8 287.198 220 287.394C221.1 287.59 221.8 288.374 221.5 289.158C221.1 290.073 220.7 290.922 220.3 291.837C220 292.49 219.2 292.882 218.2 292.882V292.817ZM127.3 289.55C126.8 289.55 126.4 289.42 126 289.224C124.9 288.636 123.8 288.048 122.7 287.46C121.8 286.937 121.7 286.088 122.4 285.5C123.2 284.912 124.5 284.846 125.4 285.304C126.5 285.892 127.6 286.48 128.7 287.068C129.6 287.525 129.8 288.44 129 289.028C128.6 289.354 128 289.55 127.3 289.55ZM327 288.962C326.5 288.962 326 288.832 325.6 288.636C324.7 288.113 324.6 287.264 325.4 286.676C326.2 286.088 327 285.5 327.7 284.912L328.1 284.585C328.8 283.997 330.2 283.866 331.1 284.389C332 284.846 332.2 285.761 331.4 286.349L331 286.676C330.2 287.329 329.4 287.917 328.6 288.505C328.2 288.832 327.6 288.962 327 288.962ZM222.6 283.475C222.4 283.475 222.1 283.474 221.9 283.409C220.8 283.148 220.2 282.364 220.6 281.645C221.1 280.731 221.6 279.881 222.1 278.967C222.5 278.248 223.7 277.856 224.9 278.117C226 278.379 226.6 279.163 226.2 279.881C225.7 280.731 225.2 281.645 224.8 282.495C224.5 283.083 223.7 283.409 222.8 283.409L222.6 283.475ZM115.9 283.148C115.4 283.148 114.9 283.017 114.4 282.756C113.3 282.103 112.3 281.449 111.3 280.796C110.4 280.273 110.4 279.359 111.3 278.836C112.1 278.248 113.5 278.248 114.3 278.836C115.3 279.489 116.3 280.077 117.4 280.731C118.3 281.253 118.3 282.168 117.5 282.691C117.1 283.017 116.5 283.148 115.9 283.148ZM336 281.123C335.6 281.123 335.2 281.057 334.9 280.927C333.9 280.535 333.6 279.685 334.2 279.032C334.9 278.248 335.6 277.464 336.3 276.68C336.9 276.027 338.2 275.766 339.2 276.092C340.2 276.484 340.6 277.333 340.1 277.987C339.4 278.836 338.7 279.685 337.9 280.469C337.5 280.927 336.8 281.123 336.1 281.123H336ZM105.3 276.288C104.7 276.288 104.2 276.158 103.7 275.831C102.7 275.178 101.7 274.459 100.8 273.74C100 273.152 100.1 272.303 100.9 271.78C101.8 271.258 103.1 271.323 103.9 271.846C104.8 272.499 105.8 273.218 106.8 273.871C107.6 274.459 107.6 275.308 106.8 275.831C106.4 276.092 105.9 276.223 105.3 276.223V276.288ZM228 274.394C227.7 274.394 227.4 274.394 227.2 274.263C226.1 273.936 225.6 273.152 226.1 272.434C226.7 271.584 227.3 270.735 227.9 269.821C228.4 269.102 229.7 268.841 230.7 269.102C231.8 269.429 232.2 270.278 231.8 270.931C231.2 271.78 230.6 272.63 230.1 273.479C229.8 274.002 229 274.328 228.1 274.328L228 274.394ZM342.5 272.368C342.2 272.368 342 272.368 341.7 272.303C340.6 272.042 340 271.192 340.5 270.474C341 269.625 341.4 268.775 341.9 267.926C342.3 267.207 343.5 266.815 344.6 267.011C345.7 267.273 346.4 268.057 346 268.775C345.6 269.69 345.1 270.604 344.6 271.519C344.3 272.107 343.5 272.434 342.6 272.434L342.5 272.368ZM95.3 268.971C94.7 268.971 94.1 268.775 93.7 268.449C92.8 267.73 91.9 267.011 91 266.293C90.3 265.705 90.4 264.79 91.3 264.333C92.2 263.876 93.6 263.941 94.3 264.529C95.2 265.247 96.1 265.966 97 266.685C97.8 267.273 97.6 268.187 96.7 268.645C96.3 268.841 95.8 268.971 95.3 268.971ZM234.5 265.509C234.2 265.509 233.8 265.509 233.5 265.378C232.5 265.051 232 264.202 232.6 263.484C233.3 262.634 233.9 261.785 234.6 261.001C235.2 260.348 236.5 260.086 237.5 260.478C238.5 260.87 238.9 261.72 238.3 262.373C237.6 263.157 237 264.006 236.3 264.79C235.9 265.247 235.2 265.574 234.4 265.574L234.5 265.509ZM346.4 262.896C346.3 262.896 346.2 262.896 346.1 262.896C344.9 262.765 344.1 262.046 344.3 261.328C344.5 260.413 344.7 259.564 344.8 258.649C344.8 257.865 345.9 257.343 347.1 257.343C348.3 257.343 349.2 258.061 349.1 258.845C349 259.825 348.8 260.74 348.6 261.72C348.4 262.438 347.5 262.896 346.5 262.896H346.4ZM86.1 261.262C85.4 261.262 84.8 261.066 84.4 260.674C83.5 259.89 82.7 259.172 81.9 258.388C81.2 257.735 81.4 256.885 82.4 256.428C83.4 255.971 84.7 256.101 85.4 256.755C86.2 257.539 87.1 258.257 87.9 258.976C88.6 259.629 88.4 260.478 87.4 260.936C87 261.132 86.6 261.197 86.1 261.197V261.262ZM241.9 257.016C241.5 257.016 241.1 256.951 240.8 256.82C239.8 256.428 239.5 255.513 240.1 254.86C240.9 254.076 241.7 253.292 242.5 252.508C243.2 251.855 244.5 251.724 245.5 252.116C246.5 252.574 246.7 253.423 246.1 254.076C245.3 254.86 244.5 255.579 243.8 256.363C243.4 256.755 242.7 257.016 242 257.016H241.9ZM77.6 253.227C76.9 253.227 76.2 253.031 75.8 252.573C75 251.79 74.2 251.006 73.5 250.222C72.9 249.568 73.2 248.719 74.2 248.262C75.2 247.87 76.5 248.066 77.2 248.719C78 249.503 78.7 250.287 79.5 251.071C80.1 251.724 79.9 252.573 78.9 253.031C78.5 253.161 78.1 253.227 77.7 253.227H77.6ZM346.6 253.161C345.5 253.161 344.6 252.639 344.5 251.92C344.3 251.006 344.1 250.156 343.8 249.307C343.5 248.523 344.3 247.804 345.4 247.608C346.5 247.412 347.7 247.935 348 248.654C348.3 249.568 348.6 250.548 348.8 251.528C348.9 252.312 348.1 252.965 346.9 253.096C346.9 253.096 346.7 253.096 346.6 253.096V253.161ZM250.6 249.046C250.1 249.046 249.7 248.915 249.3 248.719C248.4 248.262 248.2 247.347 249 246.759C249.9 246.041 250.8 245.257 251.8 244.538C252.6 243.95 253.9 243.885 254.8 244.407C255.7 244.93 255.8 245.779 255 246.367C254.1 247.086 253.2 247.739 252.3 248.458C251.9 248.784 251.3 248.98 250.6 248.98V249.046ZM69.7 244.865C69 244.865 68.3 244.603 67.9 244.146C67.2 243.362 66.5 242.513 65.7 241.729C65.1 241.075 65.5 240.226 66.5 239.834C67.5 239.442 68.8 239.704 69.4 240.357C70.1 241.141 70.8 241.99 71.5 242.774C72.1 243.427 71.8 244.277 70.7 244.669C70.4 244.799 70 244.865 69.6 244.865H69.7ZM342.2 243.885C341.4 243.885 340.7 243.623 340.3 243.166C339.7 242.382 339 241.663 338.2 240.879C337.5 240.226 337.8 239.377 338.8 238.92C339.8 238.462 341.1 238.658 341.8 239.312C342.6 240.095 343.4 240.945 344.1 241.859C344.7 242.513 344.3 243.362 343.2 243.754C342.9 243.885 342.5 243.885 342.2 243.885ZM260.7 241.859C260.1 241.859 259.6 241.729 259.1 241.402C258.3 240.814 258.3 239.965 259.2 239.442C260.3 238.789 261.4 238.136 262.5 237.548C263.4 237.025 264.8 237.156 265.5 237.744C266.3 238.332 266.1 239.246 265.2 239.704C264.1 240.292 263.1 240.879 262.1 241.533C261.7 241.794 261.2 241.925 260.6 241.925L260.7 241.859ZM62.4 236.306C61.6 236.306 60.9 236.045 60.5 235.588C59.8 234.738 59.2 233.954 58.5 233.105C58 232.387 58.4 231.603 59.4 231.211C60.5 230.884 61.7 231.145 62.3 231.799C62.9 232.648 63.6 233.432 64.3 234.281C64.9 234.934 64.4 235.784 63.4 236.176C63.1 236.306 62.7 236.306 62.4 236.306ZM332.8 236.306C332.3 236.306 331.8 236.176 331.4 235.98C330.4 235.457 329.3 234.934 328.1 234.412C327.1 234.02 326.8 233.105 327.5 232.452C328.2 231.799 329.5 231.603 330.5 232.06C331.8 232.583 333 233.171 334.1 233.824C335 234.346 335.1 235.196 334.4 235.784C334 236.11 333.4 236.306 332.7 236.306H332.8ZM272.6 235.914C271.9 235.914 271.2 235.653 270.8 235.261C270.2 234.608 270.5 233.759 271.5 233.367C272.7 232.844 274 232.387 275.3 231.929C276.3 231.537 277.6 231.799 278.2 232.517C278.8 233.171 278.4 234.02 277.3 234.412C276.1 234.869 274.9 235.326 273.7 235.784C273.3 235.914 273 235.98 272.6 235.98V235.914ZM286.1 231.733C285.2 231.733 284.4 231.341 284.1 230.753C283.7 230.035 284.4 229.251 285.5 228.989C286.9 228.663 288.3 228.401 289.8 228.205C291 228.009 292.1 228.467 292.4 229.251C292.7 229.969 292 230.753 290.8 230.949C289.5 231.145 288.1 231.407 286.8 231.668C286.6 231.668 286.4 231.733 286.1 231.733ZM319.8 231.668C319.6 231.668 319.3 231.668 319.1 231.603C317.8 231.341 316.5 231.08 315.2 230.884C314.1 230.688 313.3 229.969 313.6 229.185C313.9 228.467 315 227.944 316.2 228.14C317.7 228.401 319.1 228.663 320.5 228.924C321.6 229.185 322.2 229.969 321.8 230.688C321.5 231.276 320.7 231.668 319.8 231.668ZM300.8 230.035C299.7 230.035 298.7 229.447 298.7 228.728C298.7 227.944 299.6 227.291 300.7 227.291C302.2 227.291 303.7 227.291 305.1 227.291C306.3 227.291 307.2 227.944 307.2 228.728C307.2 229.512 306.2 230.1 305 230.1C303.6 230.1 302.3 230.1 300.9 230.1C300.9 230.1 300.9 230.1 300.8 230.1V230.035ZM55.7 227.552C54.9 227.552 54.1 227.291 53.8 226.768C53.2 225.919 52.6 225.07 52 224.22C51.5 223.502 52 222.718 53 222.391C54.1 222.064 55.3 222.391 55.8 223.044C56.4 223.894 57 224.743 57.6 225.592C58.1 226.311 57.6 227.095 56.6 227.487C56.3 227.552 56 227.618 55.7 227.618V227.552ZM49.5 218.667C48.7 218.667 47.9 218.341 47.5 217.818C46.9 216.969 46.4 216.119 45.8 215.205C45.3 214.486 45.8 213.702 46.9 213.376C48 213.049 49.2 213.376 49.7 214.094C50.3 214.944 50.8 215.793 51.4 216.642C51.9 217.361 51.4 218.145 50.3 218.471C50 218.537 49.7 218.602 49.5 218.602V218.667ZM43.8 209.586C42.9 209.586 42.1 209.26 41.8 208.672C41.3 207.823 40.8 206.908 40.2 206.059C39.8 205.34 40.3 204.556 41.4 204.229C42.5 203.968 43.7 204.295 44.2 205.013C44.7 205.863 45.2 206.777 45.7 207.627C46.1 208.345 45.6 209.129 44.5 209.456C44.2 209.521 44 209.521 43.7 209.521L43.8 209.586ZM38.6 200.44C37.7 200.44 36.9 200.114 36.6 199.526C36.1 198.676 35.6 197.762 35.2 196.913C34.8 196.194 35.4 195.41 36.5 195.149C37.6 194.887 38.8 195.279 39.2 195.998C39.7 196.847 40.1 197.762 40.6 198.611C41 199.33 40.4 200.114 39.3 200.375C39.1 200.375 38.8 200.44 38.6 200.44ZM33.7 191.229C32.8 191.229 32 190.837 31.7 190.249C31.3 189.334 30.8 188.485 30.4 187.57C30 186.852 30.7 186.068 31.8 185.806C32.9 185.545 34.1 186.002 34.5 186.721C34.9 187.636 35.4 188.485 35.8 189.4C36.2 190.118 35.6 190.902 34.4 191.163C34.2 191.163 34 191.229 33.7 191.229ZM29.2 181.887C28.3 181.887 27.4 181.495 27.2 180.907C26.8 179.992 26.4 179.143 26 178.228C25.7 177.51 26.3 176.726 27.4 176.464C28.5 176.268 29.7 176.66 30.1 177.379C30.5 178.293 30.9 179.143 31.3 180.057C31.6 180.776 31 181.56 29.9 181.821C29.7 181.821 29.5 181.821 29.3 181.821L29.2 181.887ZM25 172.479C24.1 172.479 23.2 172.087 22.9 171.434C22.5 170.519 22.1 169.605 21.8 168.755C21.5 168.037 22.2 167.253 23.3 167.057C24.4 166.861 25.6 167.318 25.9 168.037C26.3 168.951 26.6 169.801 27 170.715C27.3 171.434 26.6 172.218 25.5 172.414C25.3 172.414 25.1 172.414 24.9 172.414L25 172.479ZM21.2 163.006C20.2 163.006 19.4 162.614 19.1 161.961C18.8 161.046 18.4 160.132 18.1 159.217C17.8 158.499 18.5 157.715 19.7 157.519C20.8 157.323 22 157.78 22.3 158.564C22.6 159.479 23 160.393 23.3 161.242C23.6 161.961 22.9 162.745 21.7 162.941C21.5 162.941 21.4 162.941 21.2 162.941V163.006ZM17.7 153.468C16.7 153.468 15.8 153.011 15.6 152.358C15.3 151.443 15 150.528 14.7 149.614C14.4 148.83 15.2 148.111 16.3 147.98C17.5 147.784 18.6 148.307 18.8 149.026C19.1 149.94 19.4 150.855 19.7 151.77C20 152.554 19.2 153.272 18.1 153.468C17.9 153.468 17.8 153.468 17.6 153.468H17.7ZM14.6 143.93C13.6 143.93 12.7 143.473 12.5 142.819C12.2 141.905 11.9 140.99 11.7 140.076C11.5 139.292 12.2 138.573 13.4 138.442C14.6 138.312 15.7 138.769 15.9 139.553C16.2 140.468 16.4 141.382 16.7 142.297C16.9 143.081 16.2 143.799 15 143.93C14.9 143.93 14.7 143.93 14.6 143.93ZM11.8 134.327C10.8 134.327 9.9 133.869 9.7 133.151C9.5 132.236 9.2 131.321 9 130.407C8.8 129.623 9.6 128.904 10.8 128.774C12 128.643 13.1 129.165 13.3 129.949C13.5 130.864 13.8 131.779 14 132.693C14.2 133.477 13.4 134.196 12.3 134.327C12.2 134.327 12 134.327 11.9 134.327H11.8ZM9.4 124.658C8.4 124.658 7.4 124.135 7.3 123.482C7.1 122.567 6.9 121.653 6.7 120.738C6.5 119.954 7.3 119.235 8.5 119.17C9.7 119.039 10.8 119.562 10.9 120.346C11.1 121.261 11.3 122.175 11.5 123.09C11.7 123.874 10.9 124.592 9.7 124.658C9.6 124.658 9.5 124.658 9.4 124.658ZM7.3 114.989C6.2 114.989 5.3 114.466 5.2 113.748C5 112.833 4.8 111.918 4.7 110.938C4.6 110.155 5.4 109.501 6.6 109.371C7.8 109.305 8.8 109.828 9 110.612C9.2 111.526 9.3 112.441 9.5 113.356C9.7 114.14 8.8 114.793 7.7 114.924C7.7 114.924 7.5 114.924 7.4 114.924L7.3 114.989ZM5.6 105.255C4.5 105.255 3.6 104.732 3.5 104.014C3.4 103.099 3.2 102.184 3.1 101.204C3 100.42 3.8 99.7671 5 99.7018C6.2 99.6364 7.2 100.159 7.3 100.943C7.4 101.858 7.6 102.772 7.7 103.687C7.8 104.471 7 105.124 5.8 105.189H5.6V105.255ZM4.2 95.5206C3.1 95.5206 2.2 94.998 2.1 94.2141C2 93.2994 1.9 92.3195 1.8 91.4048C1.8 90.6209 2.6 89.9676 3.8 89.9023C5 89.9023 6 90.4249 6.1 91.2089C6.2 92.1235 6.3 93.0381 6.4 94.0181C6.4 94.802 5.6 95.4553 4.4 95.5206C4.4 95.5206 4.3 95.5206 4.2 95.5206ZM3.1 85.7212C2 85.7212 1 85.1332 1 84.4146C1 83.5 0.800001 82.52 0.800001 81.6054C0.800001 80.8214 1.6 80.1681 2.8 80.1681C4 80.1681 5 80.6908 5 81.4747C5 82.3894 5.1 83.304 5.2 84.2839C5.2 85.0679 4.4 85.7212 3.2 85.7865C3.2 85.7865 3.2 85.7865 3.1 85.7865V85.7212ZM2.5 75.987C1.4 75.987 0.4 75.3991 0.4 74.6151C0.4 73.7005 0.400001 72.7205 0.300001 71.8059C0.300001 71.022 1.2 70.3687 2.4 70.3687C3.6 70.3687 4.6 70.9566 4.6 71.7406C4.6 72.6552 4.6 73.5698 4.7 74.5498C4.7 75.3337 3.8 75.987 2.6 75.987H2.5ZM2.1 66.1875C0.9 66.1875 0 65.5996 0 64.8156C0 63.901 0 62.9211 0 62.0064C0 61.2225 0.9 60.6345 2.1 60.6345C3.3 60.6345 4.2 61.2878 4.2 62.0064C4.2 62.9211 4.2 63.8357 4.2 64.8156C4.2 65.5996 3.3 66.1875 2.1 66.2529V66.1875ZM2.1 56.3881C0.9 56.3881 0 55.7348 0 54.9508C0 54.0362 0 53.0562 0 52.1416C0 51.3577 0.999999 50.8351 2.2 50.7697C3.4 50.7697 4.3 51.423 4.3 52.207C4.3 53.1216 4.3 54.0362 4.3 55.0162C4.3 55.8001 3.3 56.3881 2.2 56.3881H2.1ZM2.5 46.5886C1.3 46.5886 0.4 45.9353 0.4 45.1514C0.4 44.2368 0.5 43.2568 0.6 42.3422C0.6 41.5582 1.7 40.9702 2.8 41.0356C4 41.0356 4.9 41.6889 4.8 42.4728C4.8 43.3875 4.7 44.3021 4.6 45.282C4.6 46.066 3.6 46.6539 2.5 46.6539V46.5886ZM3.2 36.8545C3.2 36.8545 3.2 36.8545 3.1 36.8545C1.9 36.8545 1 36.1358 1.1 35.3519C1.1 34.4373 1.3 33.4573 1.4 32.5427C1.4 31.7587 2.5 31.1708 3.7 31.2361C4.9 31.2361 5.8 31.9547 5.7 32.7387C5.7 33.6533 5.5 34.5679 5.4 35.5479C5.4 36.2665 4.4 36.8545 3.3 36.8545H3.2ZM4.2 27.055C4.2 27.055 4.1 27.055 4 27.055C2.8 27.055 1.9 26.3364 2 25.5524C2.1 24.6378 2.2 23.6579 2.4 22.7432C2.5 21.9593 3.6 21.4366 4.7 21.502C5.9 21.5673 6.7 22.2206 6.6 23.0046C6.5 23.9192 6.4 24.8338 6.2 25.8137C6.2 26.5324 5.2 27.1203 4.1 27.1203L4.2 27.055ZM5.6 17.3209C5.6 17.3209 5.5 17.3209 5.4 17.3209C4.2 17.2555 3.4 16.5369 3.5 15.8183C3.6 14.9037 3.8 13.989 4 13.0091C4.1 12.2251 5.2 11.7025 6.4 11.7678C7.6 11.8332 8.4 12.5518 8.3 13.3357C8.1 14.2504 8 15.165 7.8 16.0796C7.7 16.7982 6.8 17.3209 5.7 17.3209H5.6ZM7.3 7.58672C7.3 7.58672 7.1 7.58672 7 7.58672C5.8 7.45607 5 6.80276 5.1 6.01881C5.3 5.10419 5.5 4.18957 5.7 3.20963C5.9 2.42567 6.9 1.90303 8.1 2.03369C9.3 2.16435 10.1 2.81765 9.9 3.60161C9.7 4.51622 9.5 5.43084 9.3 6.34545C9.2 7.06408 8.2 7.58672 7.2 7.58672H7.3ZM9.4 -2.08208C9.3 -2.08208 9.2 -2.08208 9.1 -2.08208C7.9 -2.21275 7.1 -2.93138 7.3 -3.65001C7.5 -4.56463 7.7 -5.47924 8 -6.39386C8.2 -7.17782 9.3 -7.70045 10.4 -7.56979C11.6 -7.43914 12.4 -6.7205 12.2 -6.00188C12 -5.08726 11.8 -4.17265 11.5 -3.25803C11.3 -2.5394 10.4 -2.08208 9.4 -2.08208ZM11.8 -11.7509C11.7 -11.7509 11.6 -11.7509 11.4 -11.7509C10.2 -11.8816 9.5 -12.6002 9.7 -13.3841C9.9 -14.2988 10.2 -15.2134 10.5 -16.128C10.7 -16.9119 11.8 -17.3693 13 -17.2386C14.2 -17.1079 14.9 -16.3893 14.7 -15.6054C14.4 -14.6907 14.2 -13.7761 14 -12.8615C13.8 -12.2082 12.9 -11.6856 11.9 -11.6856L11.8 -11.7509ZM14.5 -21.3544C14.4 -21.3544 14.2 -21.3544 14.1 -21.3544C12.9 -21.485 12.2 -22.269 12.4 -22.9876C12.7 -23.9022 13 -24.8169 13.3 -25.7315C13.5 -26.5154 14.7 -26.9727 15.8 -26.8421C17 -26.7114 17.7 -25.9275 17.5 -25.2088C17.2 -24.2942 16.9 -23.3796 16.7 -22.465C16.5 -21.8117 15.6 -21.3544 14.6 -21.3544H14.5ZM17.6 -30.9579C17.4 -30.9579 17.3 -30.9579 17.1 -30.9579C15.9 -31.1538 15.2 -31.8725 15.5 -32.6564C15.8 -33.5711 16.1 -34.4857 16.4 -35.4003C16.7 -36.1842 17.8 -36.6416 19 -36.4456C20.2 -36.2496 20.9 -35.5309 20.6 -34.747C20.3 -33.8324 20 -32.9178 19.7 -32.0031C19.5 -31.3498 18.6 -30.8925 17.6 -30.8925V-30.9579ZM21 -40.496C20.8 -40.496 20.7 -40.496 20.5 -40.496C19.4 -40.692 18.7 -41.4106 18.9 -42.1946C19.2 -43.1092 19.6 -44.0238 19.9 -44.9384C20.2 -45.6571 21.4 -46.1144 22.5 -45.9184C23.6 -45.7224 24.3 -44.9384 24 -44.2198C23.6 -43.3052 23.3 -42.3906 23 -41.5413C22.8 -40.888 21.9 -40.496 20.9 -40.496H21ZM24.8 -49.9688C24.6 -49.9688 24.4 -49.9688 24.2 -49.9688C23.1 -50.1648 22.4 -50.9488 22.7 -51.6674C23.1 -52.582 23.5 -53.4966 23.8 -54.3459C24.1 -55.0646 25.3 -55.5219 26.4 -55.3259C27.5 -55.1299 28.2 -54.3459 27.9 -53.6273C27.5 -52.7127 27.1 -51.8634 26.8 -50.9488C26.5 -50.2955 25.7 -49.9035 24.7 -49.9035L24.8 -49.9688ZM28.9 -59.3763C28.7 -59.3763 28.5 -59.3763 28.3 -59.3763C27.2 -59.5723 26.5 -60.3563 26.9 -61.1402C27.3 -62.0549 27.7 -62.9041 28.1 -63.8188C28.4 -64.5374 29.6 -64.9947 30.8 -64.7334C31.9 -64.5374 32.6 -63.7534 32.2 -62.9695C31.8 -62.0549 31.4 -61.2056 31 -60.291C30.7 -59.703 29.9 -59.311 29 -59.311L28.9 -59.3763ZM33.3 -68.7185C33.1 -68.7185 32.9 -68.7185 32.6 -68.7838C31.5 -69.0451 30.9 -69.8291 31.2 -70.5477C31.6 -71.4623 32.1 -72.3116 32.5 -73.2262C32.9 -73.9449 34.1 -74.3369 35.2 -74.1409C36.3 -73.8795 36.9 -73.0956 36.6 -72.377C36.2 -71.4623 35.7 -70.6131 35.3 -69.6984C35 -69.1105 34.2 -68.7185 33.3 -68.7185ZM38.1 -77.9953C37.9 -77.9953 37.6 -77.9953 37.4 -78.0607C36.3 -78.322 35.7 -79.1059 36.1 -79.8246C36.6 -80.7392 37.1 -81.5885 37.5 -82.4378C37.9 -83.1564 39.1 -83.5484 40.2 -83.287C41.3 -83.0257 41.9 -82.2418 41.5 -81.5231C41 -80.6739 40.5 -79.7592 40.1 -78.9099C39.8 -78.322 39 -77.9953 38.1 -77.9953ZM43.2 -87.1415C42.9 -87.1415 42.7 -87.1415 42.4 -87.2068C41.3 -87.4681 40.7 -88.2521 41.2 -89.0361C41.7 -89.8854 42.2 -90.8 42.7 -91.6493C43.1 -92.3679 44.4 -92.6945 45.5 -92.4332C46.6 -92.1719 47.2 -91.3226 46.7 -90.604C46.2 -89.7547 45.7 -88.8401 45.2 -87.9908C44.9 -87.4028 44.1 -87.0762 43.2 -87.0762V-87.1415ZM48.7 -96.2877C48.4 -96.2877 48.2 -96.2877 47.9 -96.4183C46.8 -96.6796 46.3 -97.5289 46.7 -98.2476C47.2 -99.0969 47.8 -100.011 48.3 -100.861C48.8 -101.579 50 -101.906 51.1 -101.645C52.2 -101.318 52.7 -100.534 52.3 -99.8155C51.8 -98.9662 51.2 -98.1169 50.7 -97.2676C50.4 -96.745 49.6 -96.4183 48.7 -96.4183V-96.2877ZM54.5 -105.303C54.2 -105.303 53.9 -105.303 53.7 -105.434C52.6 -105.76 52.1 -106.544 52.6 -107.263C53.2 -108.112 53.7 -108.962 54.3 -109.811C54.8 -110.53 56 -110.856 57.1 -110.53C58.2 -110.203 58.7 -109.419 58.2 -108.7C57.6 -107.851 57.1 -107.002 56.5 -106.152C56.2 -105.63 55.4 -105.303 54.5 -105.303ZM60.6 -114.253C60.3 -114.253 60 -114.253 59.7 -114.384C58.6 -114.711 58.2 -115.56 58.7 -116.213C59.3 -117.063 59.9 -117.912 60.5 -118.761C61 -119.48 62.3 -119.741 63.3 -119.414C64.4 -119.088 64.8 -118.238 64.3 -117.585C63.7 -116.736 63.1 -115.887 62.5 -115.037C62.1 -114.515 61.4 -114.253 60.6 -114.253Z" fill="#fff"/>
</svg>
