<svg width="320" height="585" viewBox="0 0 320 585" fill="none" xmlns="http://www.w3.org/2000/svg">
<path d="M36.5569 584.708C36.9808 584.708 37.4047 584.566 37.8286 584.284C38.8177 583.577 39.0296 582.233 38.3231 581.243C37.4754 580.042 36.6982 578.91 35.8504 577.709C35.144 576.719 33.8017 576.436 32.8126 577.143C31.8235 577.85 31.5409 579.193 32.2474 580.183C33.0952 581.385 33.9429 582.587 34.7907 583.789C35.2146 584.354 35.8504 584.708 36.5569 584.708ZM28.2911 571.911C28.6444 571.911 29.0682 571.841 29.4215 571.628C30.4812 570.992 30.7638 569.649 30.1986 568.659C29.4921 567.387 28.7857 566.185 28.0792 564.912C27.514 563.852 26.1717 563.498 25.112 564.064C24.0523 564.629 23.699 565.973 24.2642 567.033C24.9707 568.306 25.7478 569.578 26.4543 570.851C26.8782 571.558 27.5846 571.911 28.3618 571.911L28.2911 571.911ZM21.0851 558.479C21.3677 558.479 21.7209 558.478 22.0035 558.266C23.0632 557.771 23.5577 556.428 22.9926 555.368C22.3567 554.095 21.7915 552.752 21.1557 551.479C20.6612 550.419 19.3895 549.924 18.2592 550.419C17.1994 550.914 16.7049 552.186 17.1994 553.317C17.8353 554.661 18.4005 556.004 19.0363 557.347C19.3895 558.125 20.1666 558.549 21.0144 558.549L21.0851 558.479ZM15.0093 544.48C15.2919 544.48 15.5039 544.48 15.7865 544.339C16.9168 543.915 17.482 542.642 17.0581 541.511C16.5636 540.167 16.0691 538.824 15.5745 537.481C15.1506 536.35 13.9496 535.784 12.8193 536.138C11.6889 536.562 11.1237 537.764 11.477 538.895C11.9715 540.309 12.466 541.652 13.0312 542.995C13.3845 543.844 14.1616 544.409 15.08 544.409L15.0093 544.48ZM10.1347 530.058C10.3466 530.058 10.5585 530.058 10.7705 529.987C11.9009 529.633 12.6073 528.431 12.2541 527.3C11.8302 525.957 11.477 524.543 11.0531 523.129C10.7705 521.998 9.56947 521.291 8.36845 521.574C7.23811 521.857 6.53162 523.058 6.81419 524.26C7.16743 525.674 7.59135 527.088 8.01524 528.502C8.2978 529.421 9.14558 530.058 10.1347 530.058ZM6.39033 515.211C6.53162 515.211 6.67292 515.211 6.81419 515.211C8.0152 514.928 8.72172 513.797 8.50977 512.666C8.22718 511.252 7.94459 509.838 7.66199 508.424C7.45005 507.222 6.31968 506.444 5.11866 506.656C3.91764 506.868 3.14051 508 3.35245 509.201C3.63505 510.615 3.91764 512.1 4.20023 513.514C4.41218 514.504 5.3306 515.211 6.31968 515.211L6.39033 515.211ZM3.84699 500.223C3.91764 500.223 4.05893 500.223 4.12958 500.223C5.3306 500.081 6.17838 498.95 6.03708 497.819C5.82514 496.405 5.68384 494.991 5.54255 493.506C5.40125 492.304 4.34153 491.456 3.14054 491.597C1.93952 491.739 1.09174 492.799 1.23304 494.001C1.37433 495.486 1.58628 496.9 1.72757 498.384C1.86887 499.516 2.7873 500.293 3.91767 500.293L3.84699 500.223ZM2.5047 485.022C2.5047 485.022 2.57532 485.022 2.64597 485.022C3.84699 485.022 4.76542 483.962 4.69477 482.76C4.69477 481.346 4.55347 479.861 4.55347 478.447C4.55347 477.246 3.4231 476.326 2.29276 476.326C1.09174 476.326 0.173313 477.387 0.173313 478.589C0.173313 480.073 0.243961 481.558 0.31461 482.972C0.31461 484.103 1.30368 485.022 2.5047 485.022ZM2.36341 469.751C3.56439 469.751 4.48282 468.832 4.55347 467.63C4.55347 466.216 4.69477 464.732 4.76541 463.318C4.76541 462.116 3.91764 461.055 2.71665 461.055C1.51563 461.055 0.455904 461.904 0.455904 463.106C0.385256 464.59 0.314608 466.075 0.24396 467.489C0.24396 468.691 1.16239 469.681 2.36341 469.751ZM3.49378 454.551C4.55347 454.551 5.54254 453.703 5.68384 452.642C5.82514 451.228 6.03708 449.814 6.24902 448.4C6.39032 447.198 5.61319 446.138 4.41217 445.926C3.21115 445.785 2.15146 446.562 1.93952 447.764C1.72757 449.249 1.58627 450.663 1.37433 452.147C1.23303 453.349 2.08078 454.41 3.2818 454.551C3.35245 454.551 3.42313 454.551 3.56442 454.551L3.49378 454.551ZM5.89578 439.492C6.88486 439.492 7.80328 438.785 8.01523 437.725C8.29779 436.311 8.58038 434.897 8.93362 433.554C9.21622 432.352 8.43909 431.221 7.30875 430.938C6.10773 430.655 4.97736 431.433 4.69476 432.564C4.34152 433.978 4.05893 435.462 3.77634 436.876C3.56439 438.078 4.34152 439.21 5.47189 439.422C5.61319 439.422 5.75449 439.422 5.89578 439.422L5.89578 439.492ZM9.49881 424.716C10.4172 424.716 11.3357 424.08 11.6183 423.161C12.0421 421.818 12.466 420.404 12.8899 419.06C13.2431 417.929 12.6073 416.657 11.477 416.303C10.3466 415.95 9.07492 416.586 8.72168 417.717C8.29779 419.131 7.87393 420.545 7.45004 421.959C7.0968 423.09 7.80325 424.292 8.93362 424.646C9.14557 424.646 9.35754 424.716 9.56949 424.716L9.49881 424.716ZM14.4442 410.223C15.2919 410.223 16.1397 409.728 16.4929 408.809C16.9875 407.466 17.5526 406.122 18.1178 404.85C18.5417 403.719 18.1179 402.446 16.9168 402.022C15.7865 401.598 14.5148 402.022 14.0909 403.224C13.5258 404.567 12.9605 405.91 12.466 407.324C12.0421 408.456 12.6073 409.728 13.7377 410.152C14.0203 410.223 14.2322 410.294 14.5148 410.294L14.4442 410.223ZM20.4492 396.295C21.2263 396.295 22.0035 395.871 22.4274 395.093C23.0632 393.821 23.699 392.478 24.3349 391.205C24.9 390.144 24.4762 388.801 23.3458 388.306C22.2861 387.741 20.9438 388.165 20.4492 389.296C19.8134 390.569 19.1069 391.912 18.4711 393.255C17.9765 394.316 18.4711 395.659 19.4602 396.154C19.7428 396.295 20.096 396.366 20.3786 396.366L20.4492 396.295ZM27.5847 382.792C28.3618 382.792 29.0682 382.368 29.4921 381.731C30.1986 380.459 30.9051 379.257 31.6822 377.984C32.318 376.924 31.9648 375.581 30.9051 375.015C29.8454 374.379 28.5031 374.732 27.9379 375.793C27.1608 377.065 26.4543 378.338 25.6771 379.61C25.112 380.671 25.4652 382.014 26.4543 382.58C26.8075 382.792 27.1608 382.863 27.514 382.863L27.5847 382.792ZM35.5678 369.783C36.2743 369.783 36.9808 369.43 37.4047 368.793C38.1818 367.592 39.0296 366.39 39.8067 365.188C40.5132 364.198 40.2306 362.855 39.2415 362.148C38.2525 361.441 36.9101 361.724 36.2037 362.713C35.3559 363.915 34.5081 365.117 33.731 366.319C33.0952 367.309 33.3071 368.652 34.3668 369.359C34.7201 369.571 35.1439 369.713 35.5678 369.713L35.5678 369.783ZM44.4695 357.411C45.1053 357.411 45.8118 357.128 46.2356 356.563C47.0834 355.431 48.0019 354.3 48.8496 353.169C49.5561 352.25 49.4148 350.836 48.4964 350.129C47.578 349.351 46.165 349.563 45.4585 350.482C44.5401 351.614 43.6923 352.816 42.7739 353.947C42.0674 354.936 42.2087 356.28 43.1978 356.987C43.6217 357.27 44.0456 357.411 44.5401 357.411L44.4695 357.411ZM54.0069 345.534C54.6428 345.534 55.2079 345.251 55.6318 344.756C56.5502 343.625 57.5393 342.564 58.4577 341.504C59.2348 340.585 59.1642 339.241 58.2458 338.464C57.3274 337.686 55.985 337.757 55.2079 338.676C54.2188 339.807 53.3004 340.867 52.3114 341.999C51.5342 342.918 51.6755 344.261 52.594 345.039C53.0178 345.392 53.5124 345.534 54.0069 345.534ZM64.1802 334.151C64.7454 334.151 65.3106 333.939 65.7344 333.444C66.7235 332.384 67.7126 331.323 68.7016 330.333C69.5494 329.485 69.4788 328.071 68.7016 327.223C67.8539 326.374 66.4409 326.445 65.5931 327.223C64.6041 328.283 63.5444 329.343 62.5553 330.404C61.7075 331.252 61.7782 332.666 62.6259 333.515C63.0498 333.939 63.615 334.08 64.1095 334.08L64.1802 334.151ZM74.848 323.263C75.4132 323.263 75.9077 323.051 76.3316 322.627C77.3913 321.637 78.3804 320.648 79.4401 319.587C80.2879 318.739 80.3585 317.395 79.5108 316.476C78.663 315.628 77.3207 315.557 76.4022 316.406C75.3425 317.395 74.2828 318.456 73.2231 319.446C72.3753 320.294 72.3753 321.637 73.2231 322.556C73.647 322.981 74.2122 323.193 74.7773 323.193L74.848 323.263ZM85.9397 312.8C86.4342 312.8 86.9994 312.588 87.4233 312.234C88.483 311.245 89.5427 310.326 90.6731 309.336C91.5915 308.558 91.6622 307.144 90.885 306.296C90.1079 305.377 88.695 305.306 87.8472 306.084C86.7875 307.073 85.6571 307.992 84.5974 308.982C83.679 309.76 83.6083 311.174 84.4561 312.022C84.88 312.517 85.4452 312.729 86.081 312.729L85.9397 312.8ZM97.4553 302.761C97.9498 302.761 98.4444 302.619 98.8682 302.266C99.9986 301.347 101.058 300.428 102.189 299.509C103.107 298.731 103.248 297.388 102.471 296.469C101.694 295.549 100.352 295.408 99.4334 296.186C98.3031 297.105 97.1727 298.024 96.0423 299.014C95.1239 299.791 94.9826 301.135 95.7598 302.054C96.1836 302.549 96.8195 302.831 97.4553 302.831L97.4553 302.761ZM109.253 293.146C109.748 293.146 110.172 293.004 110.596 292.651L113.987 289.964C114.905 289.257 115.117 287.843 114.34 286.924C113.634 286.005 112.221 285.793 111.302 286.571L107.841 289.257C106.922 290.035 106.71 291.378 107.487 292.297C107.911 292.863 108.547 293.146 109.183 293.146L109.253 293.146ZM121.334 283.813C121.758 283.813 122.253 283.672 122.606 283.389L126.068 280.773C127.057 280.066 127.198 278.723 126.492 277.733C125.785 276.744 124.443 276.602 123.454 277.309L119.992 279.925C119.003 280.632 118.862 282.046 119.568 282.965C119.992 283.531 120.628 283.813 121.334 283.813ZM133.556 274.764C133.98 274.764 134.475 274.623 134.828 274.34L138.36 271.795C139.349 271.088 139.561 269.744 138.855 268.755C138.148 267.765 136.806 267.553 135.817 268.26L132.285 270.805C131.296 271.512 131.084 272.855 131.79 273.845C132.214 274.41 132.85 274.764 133.556 274.764ZM145.99 265.927C146.414 265.927 146.838 265.785 147.262 265.502L150.794 263.028C151.783 262.321 151.995 260.978 151.289 259.988C150.582 258.998 149.24 258.786 148.251 259.493L144.719 262.038C143.73 262.745 143.518 264.088 144.224 265.078C144.648 265.715 145.354 265.997 145.99 265.997L145.99 265.927ZM158.495 257.16C158.919 257.16 159.343 257.019 159.767 256.736L163.37 254.261C164.359 253.554 164.571 252.211 163.935 251.221C163.228 250.231 161.886 249.949 160.897 250.656L157.294 253.13C156.305 253.837 156.093 255.18 156.729 256.17C157.153 256.806 157.859 257.089 158.495 257.089L158.495 257.16ZM171 248.464C171.423 248.464 171.847 248.323 172.201 248.111L175.804 245.636C176.793 244.929 177.005 243.586 176.369 242.596C175.662 241.606 174.32 241.323 173.331 242.03L169.728 244.505C168.739 245.212 168.456 246.555 169.163 247.545C169.587 248.181 170.293 248.464 170.929 248.464L171 248.464ZM183.504 239.768C183.928 239.768 184.352 239.627 184.776 239.344L188.379 236.869C189.368 236.162 189.58 234.819 188.944 233.829C188.238 232.84 186.895 232.627 185.906 233.264L182.374 235.738C181.385 236.445 181.173 237.788 181.809 238.778C182.233 239.415 182.939 239.697 183.575 239.697L183.504 239.768ZM196.009 231.001C196.433 231.001 196.857 230.86 197.281 230.577L200.813 228.032C201.802 227.325 202.014 225.982 201.308 224.992C200.601 224.002 199.259 223.79 198.27 224.497L194.737 227.042C193.748 227.749 193.536 229.093 194.243 230.082C194.667 230.648 195.373 231.001 196.009 231.001ZM208.372 222.093C208.796 222.093 209.291 221.952 209.644 221.669C210.845 220.821 211.975 219.972 213.176 219.053C214.165 218.346 214.377 217.003 213.6 216.013C212.894 215.023 211.551 214.811 210.562 215.589C209.432 216.437 208.231 217.286 207.03 218.134C206.041 218.841 205.829 220.184 206.535 221.174C206.959 221.74 207.595 222.093 208.302 222.093L208.372 222.093ZM220.594 212.973C221.089 212.973 221.513 212.832 221.937 212.549C223.067 211.63 224.268 210.782 225.398 209.862C226.317 209.155 226.529 207.741 225.822 206.822C225.116 205.903 223.703 205.691 222.784 206.398C221.654 207.317 220.524 208.166 219.323 209.014C218.334 209.721 218.192 211.135 218.899 212.054C219.323 212.62 219.959 212.902 220.665 212.902L220.594 212.973ZM232.534 203.57C233.028 203.57 233.523 203.429 233.876 203.075C235.006 202.156 236.137 201.237 237.267 200.318C238.186 199.54 238.327 198.197 237.55 197.278C236.773 196.359 235.43 196.218 234.512 196.995C233.382 197.914 232.251 198.833 231.121 199.752C230.202 200.53 230.061 201.873 230.768 202.793C231.192 203.358 231.827 203.57 232.463 203.57L232.534 203.57ZM244.332 193.814C244.827 193.814 245.321 193.672 245.745 193.248C246.875 192.258 247.935 191.339 249.065 190.35C249.984 189.572 250.054 188.158 249.207 187.239C248.43 186.32 247.017 186.249 246.098 187.097C245.038 188.087 243.979 189.006 242.848 189.925C241.93 190.703 241.859 192.117 242.636 192.965C243.06 193.46 243.696 193.743 244.261 193.743L244.332 193.814ZM255.353 183.28C255.918 183.28 256.554 183.068 256.978 182.573C257.967 181.441 258.956 180.381 259.945 179.179C260.722 178.26 260.581 176.917 259.663 176.139C258.744 175.361 257.402 175.503 256.625 176.422C255.706 177.482 254.788 178.543 253.799 179.603C252.951 180.522 253.022 181.866 253.94 182.714C254.364 183.068 254.859 183.28 255.424 183.28L255.353 183.28ZM264.467 171.119C265.244 171.119 265.95 170.766 266.374 170.059C266.515 169.776 266.727 169.493 266.869 169.211C267.434 168.15 267.999 167.09 268.494 166.029C268.988 164.969 268.494 163.625 267.434 163.13C266.303 162.636 265.032 163.13 264.537 164.191C264.043 165.181 263.548 166.171 263.054 167.09L262.63 167.867C261.994 168.928 262.347 170.271 263.407 170.837C263.76 171.049 264.113 171.119 264.467 171.119ZM269.836 156.909C270.825 156.909 271.743 156.202 271.955 155.141C272.238 153.657 272.45 152.101 272.591 150.617C272.732 149.415 271.814 148.354 270.613 148.284C269.412 148.213 268.352 149.061 268.282 150.263C268.14 151.607 267.928 152.95 267.716 154.364C267.504 155.566 268.211 156.697 269.412 156.909C269.553 156.909 269.695 156.909 269.836 156.909ZM242.919 142.84C243.06 142.84 243.202 142.84 243.414 142.84C244.827 142.557 246.31 142.062 247.864 141.567C248.995 141.143 249.56 139.941 249.207 138.81C248.783 137.679 247.582 137.113 246.451 137.467C245.038 137.962 243.767 138.386 242.566 138.598C241.365 138.881 240.658 140.012 240.941 141.214C241.153 142.204 242.071 142.911 243.06 142.911L242.919 142.84ZM269.836 141.779C269.977 141.779 270.189 141.779 270.33 141.779C271.531 141.497 272.238 140.365 271.955 139.164C271.602 137.608 271.178 136.124 270.613 134.71C270.189 133.578 268.917 133.013 267.787 133.437C266.657 133.861 266.092 135.134 266.515 136.265C267.01 137.537 267.363 138.81 267.716 140.153C267.928 141.143 268.847 141.85 269.836 141.85L269.836 141.779ZM232.463 141.426C233.099 141.426 233.735 141.143 234.229 140.578C234.936 139.588 234.795 138.244 233.805 137.537C233.664 137.467 233.594 137.325 233.452 137.255C232.746 136.618 232.251 135.911 231.969 135.063C231.545 133.932 230.273 133.366 229.143 133.79C228.012 134.215 227.447 135.487 227.871 136.618C228.436 138.103 229.355 139.446 230.556 140.578C230.768 140.719 230.98 140.931 231.121 141.072C231.545 141.355 231.969 141.497 232.463 141.497L232.463 141.426ZM257.119 137.325C257.472 137.325 257.755 137.325 258.038 137.113C259.38 136.477 260.722 135.77 261.994 135.063C263.054 134.497 263.478 133.154 262.842 132.094C262.277 131.033 260.934 130.609 259.875 131.245C258.603 131.952 257.331 132.589 256.06 133.225C255 133.72 254.505 135.063 255.07 136.124C255.424 136.901 256.201 137.325 257.049 137.325L257.119 137.325ZM270.33 129.69C270.754 129.69 271.178 129.549 271.531 129.336C272.732 128.488 273.933 127.64 275.134 126.791C276.123 126.084 276.335 124.741 275.558 123.751C274.852 122.761 273.51 122.549 272.52 123.327C271.39 124.175 270.189 125.024 269.059 125.801C268.07 126.508 267.787 127.852 268.494 128.842C268.917 129.478 269.624 129.761 270.33 129.761L270.33 129.69ZM262.63 128.629C263.195 128.629 263.76 128.417 264.184 127.993C265.032 127.145 265.032 125.731 264.184 124.882C263.054 123.822 261.853 122.761 260.581 121.842C259.592 121.135 258.25 121.347 257.543 122.337C256.837 123.327 257.049 124.67 258.038 125.377C259.097 126.155 260.157 127.003 261.076 127.922C261.499 128.347 262.065 128.559 262.63 128.559L262.63 128.629ZM231.898 127.71C232.604 127.71 233.24 127.357 233.664 126.791C234.371 125.731 235.218 124.812 236.207 124.034C237.126 123.256 237.267 121.913 236.49 120.994C235.713 120.075 234.371 119.933 233.452 120.711C232.181 121.772 231.05 122.974 230.061 124.317C229.355 125.307 229.637 126.65 230.626 127.357C230.98 127.64 231.403 127.781 231.898 127.781L231.898 127.71ZM249.348 121.489C250.408 121.489 251.255 120.782 251.467 119.721C251.679 118.519 250.902 117.388 249.701 117.176C248.218 116.893 246.805 116.752 245.321 116.752L244.897 116.752C243.696 116.752 242.707 117.742 242.778 118.944C242.778 120.146 243.837 121.065 244.968 121.065L245.321 121.065C246.451 121.065 247.652 121.206 248.853 121.418C248.995 121.418 249.136 121.418 249.277 121.418L249.348 121.489ZM282.27 120.287C282.764 120.287 283.33 120.075 283.753 119.721C284.884 118.732 285.944 117.742 287.003 116.681C287.851 115.833 287.851 114.49 287.003 113.571C286.155 112.722 284.813 112.722 283.895 113.571C282.906 114.56 281.846 115.55 280.786 116.469C279.868 117.247 279.797 118.661 280.645 119.58C281.069 120.075 281.634 120.287 282.27 120.287ZM292.867 109.329C293.503 109.329 294.139 109.046 294.563 108.551C295.481 107.42 296.47 106.289 297.318 105.087C298.024 104.168 297.883 102.754 296.894 102.047C295.976 101.34 294.563 101.481 293.856 102.471C293.008 103.602 292.09 104.733 291.171 105.794C290.394 106.713 290.536 108.056 291.454 108.834C291.878 109.187 292.372 109.329 292.867 109.329ZM301.769 96.9563C302.475 96.9563 303.182 96.6028 303.605 95.8959C304.383 94.6233 305.16 93.3507 305.866 92.0781C306.431 91.0176 306.078 89.6744 305.018 89.1088C303.959 88.5432 302.616 88.8967 302.051 89.9571C301.345 91.2297 300.638 92.4316 299.861 93.6335C299.225 94.6233 299.579 95.9666 300.568 96.6028C300.921 96.8149 301.345 96.9563 301.698 96.9563L301.769 96.9563ZM308.763 83.3821C309.611 83.3821 310.388 82.8873 310.741 82.0389C311.306 80.6956 311.871 79.2816 312.436 77.9383C312.86 76.8072 312.295 75.5346 311.165 75.1104C310.034 74.6862 308.763 75.2518 308.339 76.383C307.844 77.7263 307.279 78.9988 306.714 80.3421C306.219 81.4733 306.714 82.7459 307.844 83.1701C308.127 83.3115 308.41 83.3115 308.692 83.3115L308.763 83.3821ZM313.708 69.0303C314.697 69.0303 315.545 68.394 315.828 67.4042C316.181 65.9902 316.534 64.5056 316.887 63.0916C317.17 61.8897 316.393 60.7585 315.262 60.4757C314.061 60.1929 312.931 60.9706 312.648 62.1018C312.366 63.5158 312.013 64.8591 311.659 66.273C311.377 67.4042 312.013 68.6061 313.214 68.9596C313.426 68.9596 313.567 69.0303 313.779 69.0303L313.708 69.0303ZM316.534 54.0421C317.594 54.0421 318.583 53.1937 318.724 52.1333C318.865 50.6486 319.077 49.1639 319.148 47.6792C319.219 46.4774 318.371 45.4169 317.17 45.3462C315.969 45.2755 314.909 46.1239 314.838 47.3257C314.697 48.7397 314.556 50.1537 314.415 51.5677C314.273 52.7696 315.121 53.83 316.322 53.9714C316.393 53.9714 316.463 53.9714 316.605 53.9714L316.534 54.0421ZM317.311 38.7712C318.512 38.7712 319.431 37.7814 319.431 36.5795C319.431 35.0948 319.36 33.6102 319.219 32.1255C319.148 30.9236 318.088 30.0045 316.887 30.0752C315.686 30.1459 314.768 31.2064 314.838 32.4083C314.909 33.8223 314.98 35.2362 314.98 36.6502C314.98 37.8521 315.969 38.7712 317.17 38.7712L317.311 38.7712ZM315.898 23.6416C316.039 23.6416 316.11 23.6416 316.251 23.6416C317.452 23.4295 318.23 22.2983 318.018 21.1672C317.806 19.6825 317.523 18.2685 317.24 16.7838C317.029 15.5819 315.828 14.875 314.697 15.0871C313.496 15.2992 312.79 16.501 313.002 17.6322C313.284 19.0462 313.567 20.3895 313.779 21.8034C313.92 22.8639 314.909 23.6416 315.898 23.6416ZM312.366 8.79486C312.578 8.79486 312.79 8.79486 313.002 8.72416C314.132 8.37066 314.768 7.16879 314.415 5.96691C313.991 4.55293 313.496 3.13895 313.002 1.72497C312.578 0.593791 311.306 0.0282004 310.246 0.452394C309.116 0.876587 308.551 2.14917 308.975 3.20965C309.469 4.55293 309.893 5.89621 310.317 7.23948C310.6 8.15857 311.447 8.72416 312.366 8.72416L312.366 8.79486Z" fill="black"/>
</svg>
