<svg width="112" height="111" viewBox="0 0 112 111" fill="none" xmlns="http://www.w3.org/2000/svg">
<g clip-path="url(#clip0_25_838)">
<path d="M88.9389 97.1433C88.7423 97.267 88.5457 97.3906 88.3491 97.5143C88.0252 97.718 87.5844 97.6074 87.3921 97.276C87.1882 96.9518 87.3128 96.5341 87.6294 96.3188C88.0111 96.0787 88.4044 95.8314 88.7861 95.5913C89.1215 95.3804 89.5477 95.4678 89.7516 95.7919C89.9555 96.1161 89.8758 96.554 89.5519 96.7577C89.3438 96.8887 89.1356 97.0196 88.9389 97.1433ZM85.2729 99.1421C85.2497 99.1566 85.2266 99.1712 85.2035 99.1857C84.7695 99.394 84.3398 99.5835 83.9029 99.7613C83.5499 99.9187 83.1335 99.7444 82.9875 99.3838C82.8414 99.0232 83.0038 98.6141 83.364 98.4683C83.7821 98.2861 84.2002 98.104 84.6111 97.9102C84.9568 97.7413 85.3774 97.8968 85.5466 98.2428C85.7012 98.5656 85.5851 98.9457 85.2844 99.1348L85.2729 99.1421ZM92.3514 94.69C92.0507 94.8791 91.6579 94.8192 91.4339 94.54C91.1953 94.2376 91.2445 93.8027 91.5393 93.5527C91.8918 93.2663 92.2371 92.9684 92.5824 92.6704C92.8698 92.4088 93.3089 92.4397 93.5706 92.7275C93.8324 93.0153 93.7904 93.4618 93.5145 93.7161C93.1576 94.0213 92.7892 94.3338 92.4251 94.6275C92.402 94.642 92.3788 94.6566 92.3557 94.6711L92.3514 94.69ZM95.9349 91.3536C95.6688 91.5209 95.3283 91.4927 95.0914 91.2701C94.8138 91.0084 94.795 90.5678 95.049 90.2788C95.3536 89.9418 95.6698 89.5975 95.9671 89.249C96.2211 88.9599 96.6657 88.9226 96.9549 89.177C97.244 89.4314 97.2817 89.8763 97.0277 90.1654C96.7188 90.5212 96.3984 90.8843 96.0822 91.2286C96.0432 91.2693 95.9927 91.3172 95.9464 91.3463L95.9349 91.3536ZM80.7063 100.915C80.6601 100.945 80.6023 100.981 80.5414 100.987C80.0826 101.13 79.6281 101.254 79.1663 101.367C78.7885 101.459 78.4111 101.244 78.3186 100.866C78.2261 100.488 78.4407 100.111 78.8185 100.018C79.2615 99.9014 79.7044 99.7844 80.1328 99.6443C80.4961 99.5289 80.8923 99.7482 81.0079 100.112C81.106 100.422 80.9724 100.748 80.7179 100.908L80.7063 100.915ZM99.0184 87.556C98.7871 87.7015 98.4799 87.7008 98.2491 87.539C97.9325 87.318 97.8528 86.8834 98.0734 86.5669C98.3373 86.1908 98.5824 85.8105 98.8274 85.4302C99.0408 85.1021 99.4679 85.0112 99.7887 85.2134C100.117 85.4271 100.208 85.8545 100.006 86.1753C99.757 86.5745 99.4888 86.9693 99.2206 87.3642C99.1615 87.4499 99.0994 87.5051 99.0184 87.556ZM75.9347 101.978C75.8537 102.029 75.7655 102.068 75.6627 102.084C75.1906 102.155 74.7228 102.207 74.2362 102.254C73.8523 102.286 73.5182 102.011 73.4677 101.623C73.436 101.239 73.7102 100.905 74.0983 100.854C74.5545 100.81 75.0034 100.754 75.4524 100.698C75.8332 100.636 76.1862 100.915 76.2483 101.296C76.2941 101.574 76.1544 101.839 75.9231 101.985L75.9347 101.978ZM101.502 83.3439C101.306 83.4676 101.043 83.487 100.819 83.3861C100.47 83.2174 100.33 82.7887 100.505 82.452C100.706 82.0515 100.903 81.6205 101.084 81.2157C101.233 80.8632 101.647 80.6998 102.007 80.8613C102.359 81.0112 102.523 81.4253 102.362 81.7852C102.172 82.2277 101.968 82.6471 101.759 83.0853C101.703 83.2014 101.609 83.3089 101.505 83.3743L101.502 83.3439ZM71.0504 102.271C70.9347 102.343 70.8088 102.374 70.6682 102.382C70.1945 102.373 69.7134 102.352 69.2366 102.313C68.8468 102.283 68.556 101.949 68.5924 101.571C68.6288 101.192 68.9552 100.89 69.3335 100.927C69.7914 100.962 70.2421 100.985 70.697 100.99C71.0838 100.989 71.3862 101.316 71.3875 101.703C71.3811 101.949 71.2543 102.158 71.0576 102.282L71.0504 102.271ZM103.316 78.8102C103.154 78.912 102.937 78.9517 102.734 78.8855C102.372 78.7733 102.155 78.3767 102.267 78.0155C102.396 77.5789 102.525 77.1423 102.635 76.7014C102.74 76.3287 103.117 76.1075 103.482 76.2008C103.855 76.3057 104.077 76.6835 103.984 77.049C103.869 77.5087 103.736 77.9642 103.591 78.4269C103.534 78.5922 103.424 78.7258 103.297 78.8059L103.316 78.8102ZM66.1866 101.775C66.0478 101.862 65.8683 101.91 65.6872 101.879C65.2117 101.79 64.7477 101.694 64.2954 101.591C63.9184 101.505 63.6854 101.134 63.7711 100.757C63.8568 100.38 64.2269 100.147 64.6039 100.234C65.0562 100.337 65.5013 100.429 65.9391 100.509C66.3203 100.576 66.5649 100.939 66.4981 101.32C66.4625 101.521 66.3443 101.692 66.1824 101.794L66.1866 101.775ZM61.4639 100.528C61.2904 100.637 61.0732 100.677 60.8629 100.599C60.4118 100.446 59.965 100.275 59.5182 100.104C59.1541 99.961 58.9789 99.5542 59.1211 99.19C59.2634 98.8259 59.6699 98.651 60.034 98.7936C60.462 98.9607 60.8826 99.1162 61.3148 99.2645C61.6832 99.3883 61.87 99.7879 61.7466 100.156C61.7008 100.314 61.5838 100.436 61.4566 100.516L61.4639 100.528ZM56.9562 98.5966C56.7595 98.7203 56.4858 98.747 56.2652 98.6272C55.8385 98.4108 55.4235 98.1872 55.0127 97.9447C54.6803 97.7498 54.5586 97.3254 54.7531 96.993C54.9403 96.6491 55.3717 96.5393 55.7041 96.7342C56.1003 96.9536 56.5039 97.1845 56.9044 97.385C57.2411 97.561 57.3816 97.9897 57.2059 98.3264C57.1498 98.4425 57.0603 98.5311 56.9562 98.5966ZM52.771 96.0745C52.5397 96.22 52.2326 96.2192 52.0017 96.0575C51.6183 95.7815 51.2349 95.5056 50.8558 95.2108C50.5508 94.9826 50.4943 94.5334 50.7222 94.2285C50.9501 93.9235 51.399 93.8674 51.704 94.0957C52.0686 94.3673 52.4331 94.6389 52.8092 94.9033C53.1258 95.1243 53.2054 95.5589 52.9848 95.8754C52.9373 95.9538 52.8636 96.0163 52.7826 96.0672L52.771 96.0745ZM48.9651 92.9746C48.699 93.1419 48.3585 93.1137 48.1216 92.8911C47.7699 92.5629 47.4371 92.239 47.097 91.9036C46.8237 91.623 46.8237 91.1868 47.1038 90.9136C47.384 90.6404 47.8201 90.6409 48.0934 90.9214C48.4147 91.2525 48.7402 91.5648 49.0846 91.8814C49.3622 92.1431 49.381 92.5837 49.1197 92.8611C49.0807 92.9018 49.0302 92.9498 48.9839 92.9789L48.9651 92.9746ZM45.6457 89.3909C45.345 89.58 44.9522 89.5201 44.7281 89.2409C44.427 88.8647 44.1447 88.4929 43.8552 88.1095C43.6281 87.7999 43.689 87.3577 43.9983 87.1308C44.3076 86.904 44.7496 86.9652 44.9767 87.2749C45.2401 87.6424 45.5339 88.0069 45.8205 88.3599C46.0591 88.6623 46.0098 89.0972 45.7151 89.3472C45.692 89.3618 45.6688 89.3763 45.6457 89.3909ZM42.8537 85.3624L42.8306 85.3769C42.5067 85.5806 42.0775 85.4628 41.8663 85.127C41.623 84.7145 41.3913 84.2947 41.1784 83.8793C40.9976 83.5405 41.1223 83.1228 41.4723 82.935C41.8107 82.7545 42.2356 82.8911 42.4164 83.2299C42.6336 83.6265 42.858 84.0347 43.0868 84.424C43.2907 84.7482 43.1733 85.1775 42.861 85.3739L42.8537 85.3624ZM47.85 79.0368C47.5493 79.2259 47.1492 79.1544 46.9252 78.8752C46.6866 78.5729 46.7474 78.1307 47.0494 77.8922C47.3861 77.632 47.7198 77.3413 48.0086 77.0304C48.2699 76.753 48.7175 76.7461 48.9951 77.0078C49.2727 77.2695 49.28 77.7173 49.0186 77.9948C48.6794 78.3536 48.2951 78.6922 47.9006 78.9889C47.8774 79.0034 47.8659 79.0107 47.8427 79.0252L47.85 79.0368ZM44.7387 80.5574C44.6809 80.5938 44.623 80.6302 44.5506 80.6434C44.0773 80.7634 43.5778 80.8675 43.0869 80.9339C42.6988 80.9841 42.3531 80.7168 42.3025 80.3284C42.252 79.9401 42.5189 79.5945 42.907 79.5443C43.3371 79.4839 43.7715 79.4045 44.184 79.2905C44.5545 79.1867 44.9392 79.4134 45.0433 79.7842C45.1225 80.0898 44.9932 80.3974 44.7387 80.5574ZM50.7798 75.1744C50.5947 75.2908 50.3702 75.3188 50.1599 75.2411C49.7958 75.0985 49.6206 74.6916 49.7513 74.3347C49.9021 73.9329 50.0152 73.5224 50.0979 73.1149C50.1647 72.7336 50.5275 72.4892 50.9088 72.5564C51.29 72.6236 51.5346 72.9869 51.4678 73.3682C51.3753 73.8627 51.2334 74.3558 51.0539 74.8404C51.0008 74.9869 50.8954 75.1016 50.7682 75.1817L50.7798 75.1744ZM40.7197 80.9685C40.685 80.9903 40.6503 81.0122 40.604 81.0412C40.3089 81.1623 39.9855 81.0587 39.7948 80.8069C39.6762 80.8492 39.543 80.8684 39.4067 80.8571C38.9312 80.7684 38.4485 80.6681 37.9743 80.5301C37.6016 80.4252 37.3917 80.0401 37.4847 79.6747C37.5892 79.3019 37.9739 79.0923 38.3393 79.1856C38.6366 79.2733 38.9381 79.3422 39.2324 79.3994C39.2106 79.3647 39.2076 79.3343 39.1973 79.2923C39.0817 78.9287 39.2702 78.5355 39.6377 78.4013C39.9937 78.2743 40.3942 78.4748 40.5287 78.8427C40.6692 79.2714 40.8285 79.7044 40.9994 80.1301C41.1237 80.4559 41.0046 80.8055 40.727 80.9801L40.7197 80.9685ZM50.8857 70.3896C50.851 70.4114 50.8048 70.4405 50.7701 70.4624C50.4098 70.6082 50.005 70.4265 49.8705 70.0587C49.7463 69.7329 49.5801 69.4173 49.3908 69.1163L49.2961 68.9658C49.0806 68.6488 49.1603 68.2109 49.4769 67.9957C49.8123 67.7847 50.2313 67.8605 50.454 68.189C50.4904 68.2469 50.5341 68.3164 50.5705 68.3743C50.8108 68.7563 51.0164 69.1602 51.1728 69.5628C51.2897 69.877 51.1706 70.2266 50.893 70.4012L50.8857 70.3896ZM35.2966 79.0958C35.0884 79.2267 34.8074 79.2419 34.5795 79.1105C34.4227 79.0152 34.2543 78.9272 34.1048 78.8435C33.8435 78.6847 33.5938 78.5186 33.3441 78.3525C33.0275 78.1315 32.9363 77.7042 33.1569 77.3877C33.3775 77.0712 33.8046 76.9803 34.1212 77.2013C34.3521 77.3631 34.5872 77.506 34.8297 77.6605C34.9676 77.7515 35.1171 77.8352 35.2593 77.9073C35.6033 78.0949 35.7134 78.5266 35.5305 78.8517C35.4671 78.9562 35.3891 79.0376 35.2966 79.0958ZM39.3482 76.2728C39.2672 76.3237 39.1905 76.3558 39.0877 76.372C38.7069 76.4338 38.3497 76.1737 38.2876 75.7927C38.2092 75.3088 38.1497 74.8291 38.1205 74.3466C38.0889 73.9625 38.3746 73.6212 38.7657 73.6015C39.1495 73.5701 39.4793 73.8636 39.511 74.2476C39.5414 74.6809 39.598 75.1301 39.6661 75.572C39.7192 75.8617 39.5795 76.1273 39.3482 76.2728ZM47.6448 66.8536C47.4366 66.9845 47.1744 67.004 46.9538 66.8842C46.5721 66.688 46.1892 66.5411 45.7977 66.4318C45.425 66.3269 45.2035 65.9492 45.308 65.5764C45.4126 65.2037 45.79 64.9825 46.1627 65.0874C46.6484 65.2181 47.1402 65.4097 47.6003 65.6536C47.937 65.8296 48.0775 66.2583 47.9018 66.5949C47.8457 66.711 47.7562 66.7997 47.6521 66.8651L47.6448 66.8536ZM39.3655 71.3984C39.2151 71.493 39.0399 71.5224 38.8587 71.4909C38.489 71.4164 38.2372 71.0416 38.3113 70.6718C38.4081 70.1585 38.5572 69.677 38.7209 69.2186C38.8515 68.8617 39.2508 68.6752 39.6192 68.799C39.976 68.93 40.1627 69.3296 40.0394 69.6981C39.8928 70.0811 39.787 70.5031 39.6885 70.9367C39.6529 71.1368 39.5274 71.2965 39.377 71.3911L39.3655 71.3984ZM31.407 76.1454C31.141 76.3127 30.7816 76.2802 30.5447 76.0576C30.2046 75.7221 29.876 75.3794 29.5402 75.0251C29.2785 74.7373 29.2974 74.3053 29.5848 74.0437C29.8722 73.7821 30.304 73.8014 30.5773 74.0819C30.887 74.4204 31.201 74.7399 31.5266 75.0522C31.8042 75.3139 31.8114 75.7618 31.5385 76.0465C31.4923 76.0756 31.4533 76.1163 31.407 76.1454ZM42.9207 66.5286C42.886 66.5504 42.8513 66.5722 42.8282 66.5868C42.7703 66.6231 42.6864 66.6436 42.6285 66.68C42.3175 66.8271 42.04 67.0017 41.7842 67.2111C41.4822 67.4495 41.0401 67.3882 40.8015 67.0859C40.5629 66.7835 40.6238 66.3413 40.9258 66.1029C41.2509 65.8499 41.621 65.6171 42.0014 65.4263C42.0824 65.3754 42.1779 65.3476 42.2777 65.301C42.638 65.1552 43.0471 65.318 43.1932 65.6786C43.329 65.9971 43.2056 66.3656 42.928 66.5402L42.9207 66.5286ZM28.2278 72.4251C27.9155 72.6215 27.5081 72.5384 27.2883 72.2403C27.0103 71.8497 26.7396 71.4706 26.4616 71.0799C26.2462 70.763 26.3259 70.3251 26.6424 70.1098C26.9779 69.8988 27.3968 69.9747 27.6123 70.2916C27.8714 70.6779 28.1349 71.0455 28.4056 71.4246C28.6326 71.7342 28.5718 72.1764 28.2625 72.4032C28.2509 72.4105 28.2393 72.4178 28.2162 72.4323L28.2278 72.4251ZM25.5399 68.3311C25.5399 68.3311 25.5399 68.3311 25.5283 68.3384C25.2044 68.5421 24.7636 68.4315 24.5713 68.1001C24.3164 67.6948 24.092 67.2866 23.8603 66.8669C23.6679 66.5354 23.7969 66.0988 24.1353 65.9183C24.4664 65.7262 24.8957 65.844 25.0837 66.1943C25.3082 66.6025 25.5369 66.9919 25.7729 67.3928C25.9768 67.717 25.871 68.139 25.5471 68.3427L25.5399 68.3311ZM23.2294 64.0159C23.2062 64.0305 23.1831 64.045 23.16 64.0596C22.8143 64.2285 22.4009 64.0846 22.2244 63.727C22.0231 63.3043 21.8145 62.8699 21.6247 62.4399C21.4671 62.0866 21.6295 61.6775 21.9752 61.5086C22.3281 61.3512 22.7488 61.5067 22.9064 61.86C23.0889 62.2784 23.2902 62.7012 23.4958 63.1051C23.6505 63.4279 23.5344 63.8079 23.2336 63.9971L23.2294 64.0159ZM21.2761 59.5245C21.2414 59.5464 21.1952 59.5755 21.1605 59.5973C20.8002 59.7431 20.3954 59.5614 20.2609 59.1936C20.0943 58.749 19.9276 58.3044 19.7683 57.8715C19.6338 57.5036 19.8223 57.1104 20.1898 56.9762C20.5574 56.8419 20.9506 57.0309 21.0851 57.3987C21.2445 57.8317 21.4038 58.2647 21.5632 58.6977C21.6801 59.0119 21.561 59.3615 21.2834 59.5361L21.2761 59.5245ZM19.6947 54.88C19.6369 54.9164 19.5906 54.9455 19.5182 54.9587C19.1477 55.0625 18.7587 54.8547 18.6546 54.4839C18.5184 54.0364 18.3938 53.5816 18.2691 53.1268C18.1651 52.756 18.3913 52.3713 18.7618 52.2675C19.1323 52.1637 19.517 52.3904 19.6211 52.7612C19.7385 53.2044 19.8747 53.652 20.0036 54.0879C20.1017 54.3979 19.9607 54.7127 19.7063 54.8728L19.6947 54.88ZM18.4839 50.1318C18.4145 50.1754 18.3451 50.2191 18.2654 50.2207C17.8803 50.3013 17.5187 50.0602 17.4262 49.6821C17.332 49.2243 17.2305 48.7549 17.1363 48.2971C17.0626 47.9234 17.3149 47.5546 17.6884 47.4813C18.062 47.4079 18.4308 47.6607 18.5045 48.0344C18.5914 48.4806 18.6857 48.9384 18.7799 49.3962C18.8403 49.6975 18.7152 49.9863 18.4723 50.139L18.4839 50.1318ZM17.6234 45.3247C17.5424 45.3756 17.4542 45.415 17.3514 45.4311C16.9633 45.4813 16.6176 45.214 16.5555 44.833C16.4917 44.3722 16.4321 43.8926 16.3683 43.4319C16.3178 43.0435 16.6035 42.7022 16.9801 42.6593C17.3682 42.6091 17.7096 42.8953 17.7528 43.272C17.8167 43.7328 17.8616 44.1892 17.937 44.6427C17.9713 44.9282 17.8432 45.1865 17.6118 45.332L17.6234 45.3247ZM17.1061 40.4472C17.0136 40.5054 16.9065 40.5404 16.7848 40.5523C16.401 40.5837 16.0711 40.2902 16.0395 39.9062C16.0061 39.4425 15.9769 38.9599 15.9551 38.4889C15.935 38.0976 16.2353 37.7795 16.6191 37.7481C17.0102 37.7283 17.3285 38.0291 17.3602 38.4131C17.3747 38.8725 17.4081 39.3362 17.4415 39.8C17.4612 40.0623 17.3258 40.309 17.1177 40.4399L17.1061 40.4472ZM16.9379 35.5602C16.8338 35.6257 16.6963 35.6637 16.5673 35.664C16.1805 35.6649 15.8665 35.3453 15.8653 34.9584C15.8623 34.4917 15.8709 34.0177 15.8794 33.5437C15.8897 33.1494 16.2046 32.8544 16.5914 32.8535C16.9855 32.8642 17.2807 33.1794 17.2819 33.5664C17.2661 34.0288 17.2691 34.4955 17.2648 34.9507C17.2583 35.1971 17.1388 35.4177 16.9422 35.5413L16.9379 35.5602ZM17.1 30.6594C16.9843 30.7321 16.8352 30.7774 16.6802 30.7618C16.2903 30.7323 15.9995 30.3982 16.0359 30.0198C16.0633 29.5501 16.1023 29.0732 16.1486 28.6078C16.185 28.2294 16.5188 27.9388 16.9086 27.9683C17.2868 28.005 17.5777 28.3392 17.5485 28.7291C17.5138 29.1872 17.4675 29.6526 17.4444 30.1034C17.4307 30.3382 17.2966 30.5357 17.1231 30.6448L17.1 30.6594Z" fill="black"/>
</g>
<defs>
<clipPath id="clip0_25_838">
<rect width="67.4992" height="102.663" fill="white" transform="translate(0 35.9369) rotate(-32.168)"/>
</clipPath>
</defs>
</svg>
