<svg width="361" height="907" viewBox="0 0 361 907" fill="none" xmlns="http://www.w3.org/2000/svg">
<path d="M353.8 906.3C352.6 906.3 351.7 905.4 351.7 904.2C351.7 903 352.6 902.1 353.8 902.1C355.2 902.1 356.6 902.1 358 902.1C359.1 902.1 360.2 903 360.2 904.2C360.2 905.4 359.3 906.4 358.1 906.4C356.7 906.4 355.2 906.4 353.8 906.4V906.3ZM343.1 906.1C343.1 906.1 343.1 906.1 343 906.1C341.6 906.1 340.1 905.9 338.7 905.8C337.5 905.8 336.6 904.7 336.7 903.5C336.7 902.3 337.8 901.5 339 901.5C340.4 901.5 341.8 901.7 343.2 901.7C344.4 901.7 345.3 902.8 345.2 903.9C345.2 905 344.2 905.9 343.1 905.9V906.1ZM328.2 904.9C328.2 904.9 328 904.9 327.9 904.9C326.5 904.7 325 904.5 323.6 904.3C322.4 904.1 321.6 903.1 321.8 901.9C322 900.7 323 899.9 324.2 900.1C325.6 900.3 327 900.5 328.4 900.6C329.6 900.7 330.4 901.8 330.3 903C330.2 904.1 329.2 904.9 328.2 904.9ZM313.4 902.6C313.3 902.6 313.1 902.6 313 902.6C311.6 902.3 310.2 902 308.8 901.8C307.6 901.6 306.9 900.4 307.1 899.3C307.3 898.1 308.5 897.4 309.6 897.6C311 897.9 312.4 898.2 313.8 898.4C315 898.6 315.7 899.7 315.5 900.9C315.3 901.9 314.4 902.6 313.4 902.6ZM298.8 899.3C298.6 899.3 298.4 899.3 298.3 899.3C296.9 898.9 295.5 898.6 294.1 898.2C293 897.9 292.3 896.7 292.6 895.6C292.9 894.5 294.1 893.8 295.2 894.1C296.6 894.5 297.9 894.9 299.3 895.2C300.4 895.5 301.1 896.7 300.8 897.8C300.5 898.8 299.7 899.4 298.7 899.4L298.8 899.3ZM284.4 895C284.2 895 283.9 895 283.7 894.9C282.3 894.4 281 894 279.6 893.5C278.5 893.1 277.9 891.9 278.3 890.8C278.7 889.7 279.9 889.1 281 889.5C282.3 890 283.7 890.4 285 890.9C286.1 891.3 286.7 892.5 286.3 893.6C286 894.5 285.2 895.1 284.3 895.1L284.4 895ZM270.4 889.7C270.1 889.7 269.9 889.7 269.6 889.5C268.3 889 266.9 888.4 265.6 887.8C264.5 887.3 264 886.1 264.5 885C265 883.9 266.2 883.4 267.3 883.9C268.6 884.5 269.9 885 271.2 885.5C272.3 885.9 272.8 887.2 272.4 888.3C272.1 889.1 271.3 889.6 270.4 889.6V889.7ZM256.7 883.6C256.4 883.6 256.1 883.6 255.8 883.4C254.5 882.8 253.2 882.1 251.9 881.5C250.8 881 250.4 879.7 251 878.6C251.5 877.5 252.8 877.1 253.9 877.7C255.2 878.3 256.4 879 257.7 879.6C258.8 880.1 259.2 881.4 258.7 882.5C258.3 883.3 257.6 883.7 256.8 883.7L256.7 883.6ZM243.5 876.5C243.1 876.5 242.8 876.5 242.4 876.2C241.2 875.5 239.9 874.8 238.7 874C237.7 873.4 237.4 872.1 238 871.1C238.6 870.1 239.9 869.8 240.9 870.4C242.1 871.1 243.3 871.8 244.5 872.5C245.5 873.1 245.9 874.4 245.3 875.4C244.9 876.1 244.2 876.5 243.4 876.5H243.5ZM230.8 868.6C230.4 868.6 230 868.5 229.6 868.2C228.4 867.4 227.2 866.6 226 865.8C225 865.1 224.8 863.8 225.5 862.8C226.2 861.8 227.5 861.6 228.5 862.3C229.7 863.1 230.8 863.9 232 864.7C233 865.4 233.2 866.7 232.6 867.7C232.2 868.3 231.5 868.6 230.8 868.6ZM218.6 859.9C218.1 859.9 217.7 859.8 217.3 859.5C216.2 858.6 215 857.7 213.9 856.8C213 856.1 212.8 854.7 213.6 853.8C214.3 852.9 215.7 852.7 216.6 853.5C217.7 854.4 218.8 855.3 219.9 856.1C220.8 856.8 221 858.2 220.3 859.1C219.9 859.6 219.2 859.9 218.6 859.9ZM207.1 850.4C206.6 850.4 206.1 850.2 205.7 849.9C204.6 848.9 203.6 848 202.5 847C201.6 846.2 201.6 844.8 202.4 844C203.2 843.1 204.6 843.1 205.4 843.9C206.4 844.9 207.5 845.8 208.5 846.7C209.4 847.5 209.5 848.8 208.7 849.7C208.3 850.2 207.7 850.4 207.1 850.4ZM196.2 840.1C195.6 840.1 195.1 839.9 194.7 839.5C193.7 838.5 192.7 837.4 191.7 836.4C190.9 835.5 190.9 834.2 191.7 833.4C192.6 832.6 193.9 832.6 194.7 833.4C195.7 834.4 196.7 835.4 197.6 836.5C198.4 837.3 198.4 838.7 197.6 839.5C197.2 839.9 196.6 840.1 196.1 840.1H196.2ZM186.1 829C185.5 829 184.9 828.7 184.5 828.2C183.6 827.1 182.6 826 181.7 824.9C181 824 181.1 822.6 182 821.9C182.9 821.2 184.3 821.3 185 822.2C185.9 823.3 186.8 824.4 187.7 825.5C188.5 826.4 188.4 827.7 187.5 828.5C187.1 828.8 186.6 829 186.1 829ZM176.8 817.3C176.1 817.3 175.5 817 175.1 816.4C174.2 815.2 173.4 814.1 172.6 812.9C171.9 811.9 172.2 810.6 173.1 809.9C174.1 809.2 175.4 809.5 176.1 810.4C176.9 811.6 177.7 812.7 178.6 813.8C179.3 814.8 179.1 816.1 178.1 816.8C177.7 817.1 177.3 817.2 176.8 817.2V817.3ZM168.4 804.8C167.7 804.8 167 804.4 166.6 803.8C165.8 802.6 165.1 801.3 164.4 800.1C163.8 799.1 164.1 797.8 165.1 797.2C166.1 796.6 167.4 796.9 168 797.9C168.7 799.1 169.5 800.3 170.2 801.5C170.8 802.5 170.5 803.8 169.5 804.4C169.1 804.6 168.8 804.7 168.4 804.7V804.8ZM161 791.8C160.2 791.8 159.5 791.4 159.1 790.7C158.4 789.4 157.8 788.1 157.1 786.9C156.6 785.8 157.1 784.6 158.1 784C159.2 783.5 160.4 784 161 785C161.6 786.3 162.3 787.5 162.9 788.8C163.4 789.8 163 791.1 162 791.7C161.7 791.9 161.3 791.9 161 791.9V791.8ZM154.5 778.3C153.7 778.3 152.9 777.8 152.5 777C151.9 775.7 151.4 774.4 150.8 773C150.4 771.9 150.8 770.7 152 770.2C153.1 769.8 154.3 770.2 154.8 771.4C155.3 772.7 155.9 774 156.5 775.3C157 776.4 156.5 777.6 155.4 778.1C155.1 778.2 154.8 778.3 154.5 778.3ZM149 764.4C148.1 764.4 147.3 763.9 147 763C146.5 761.6 146.1 760.3 145.6 758.9C145.2 757.8 145.8 756.6 147 756.2C148.1 755.8 149.3 756.4 149.7 757.6C150.1 758.9 150.6 760.3 151.1 761.6C151.5 762.7 150.9 763.9 149.8 764.3C149.6 764.3 149.3 764.4 149.1 764.4H149ZM144.5 750.1C143.6 750.1 142.7 749.5 142.4 748.5C142 747.1 141.6 745.7 141.3 744.3C141 743.2 141.7 742 142.8 741.7C143.9 741.4 145.1 742.1 145.4 743.2C145.8 744.6 146.1 745.9 146.5 747.3C146.8 748.4 146.1 749.6 145 749.9C144.8 749.9 144.6 749.9 144.4 749.9L144.5 750.1ZM141 735.6C140 735.6 139.1 734.9 138.9 733.9C138.6 732.5 138.3 731.1 138.1 729.7C137.9 728.5 138.7 727.4 139.8 727.2C141 727 142.1 727.8 142.3 728.9C142.6 730.3 142.8 731.7 143.1 733.1C143.3 734.3 142.6 735.4 141.4 735.6C141.3 735.6 141.1 735.6 141 735.6ZM138.5 720.8C137.4 720.8 136.5 720 136.4 719C136.2 717.6 136 716.1 135.9 714.7C135.8 713.5 136.6 712.5 137.8 712.3C139 712.2 140 713 140.2 714.2C140.4 715.6 140.5 717 140.7 718.4C140.9 719.6 140 720.6 138.9 720.8C138.9 720.8 138.7 720.8 138.6 720.8H138.5ZM136.9 705.9C135.8 705.9 134.8 705 134.8 703.9C134.8 702.5 134.6 701 134.5 699.6C134.5 698.4 135.3 697.4 136.5 697.4C137.6 697.4 138.7 698.2 138.7 699.4C138.7 700.8 138.9 702.2 139 703.6C139 704.8 138.2 705.8 137 705.9C137 705.9 137 705.9 136.9 705.9ZM136.4 690.9C135.2 690.9 134.3 690 134.3 688.8V687.8C134.3 686.7 134.3 685.6 134.3 684.4C134.3 683.2 135.3 682.2 136.5 682.3C137.7 682.3 138.6 683.3 138.6 684.5C138.6 685.6 138.6 686.7 138.6 687.8V688.7C138.6 689.9 137.7 690.8 136.5 690.9H136.4ZM136.8 676C136.8 676 136.8 676 136.7 676C135.5 676 134.6 674.9 134.7 673.7C134.7 672.3 134.9 670.8 135 669.4C135 668.2 136.1 667.4 137.3 667.4C138.5 667.4 139.4 668.5 139.3 669.7C139.2 671.1 139.1 672.5 139 673.9C139 675 138 675.9 136.9 675.9L136.8 676ZM159.3 666.2C158.1 666.2 157.2 665.3 157.2 664.1C157.2 662.9 158.1 661.9 159.3 661.9C160.7 661.9 162.1 661.9 163.5 661.8C164.7 661.8 165.7 662.7 165.7 663.8C165.7 665 164.8 666 163.7 666C162.3 666 160.8 666.1 159.4 666.1L159.3 666.2ZM148.6 666C148.6 666 148.6 666 148.5 666C147.1 666 145.6 665.8 144.2 665.7C143 665.6 142.2 664.6 142.3 663.4C142.4 662.2 143.4 661.4 144.6 661.5C146 661.6 147.4 661.7 148.8 661.8C150 661.8 150.9 662.9 150.8 664.1C150.8 665.2 149.8 666.1 148.7 666.1L148.6 666ZM174.2 665.2C173.1 665.2 172.2 664.4 172.1 663.3C172 662.1 172.8 661.1 174 660.9C175.4 660.7 176.8 660.5 178.2 660.3C179.4 660.1 180.5 660.9 180.6 662.1C180.8 663.3 180 664.4 178.8 664.5C177.4 664.7 175.9 664.9 174.5 665.1C174.5 665.1 174.3 665.1 174.2 665.1V665.2ZM133.7 664.3C133.6 664.3 133.5 664.3 133.3 664.3C131.9 664.1 130.5 663.8 129 663.5C127.8 663.3 127.1 662.1 127.3 661C127.5 659.8 128.7 659.1 129.8 659.3C131.2 659.6 132.6 659.8 134 660.1C135.2 660.3 135.9 661.4 135.8 662.6C135.6 663.6 134.7 664.4 133.7 664.4V664.3ZM189 662.6C188 662.6 187.2 661.9 186.9 660.9C186.6 659.7 187.3 658.6 188.5 658.3C189.9 658 191.2 657.6 192.6 657.3C193.7 657 194.9 657.7 195.2 658.8C195.5 659.9 194.8 661.1 193.7 661.4C192.3 661.8 190.9 662.1 189.5 662.5C189.3 662.5 189.2 662.5 189 662.5V662.6ZM119.1 661.1C118.9 661.1 118.7 661.1 118.5 661.1C117.1 660.7 115.7 660.3 114.3 659.9C113.2 659.6 112.5 658.4 112.9 657.2C113.3 656 114.4 655.4 115.6 655.8C116.9 656.2 118.3 656.6 119.7 657C120.8 657.3 121.5 658.5 121.2 659.6C120.9 660.6 120.1 661.2 119.1 661.2V661.1ZM138.2 661.1C138.2 661.1 138 661.1 137.9 661.1C136.7 660.9 135.9 659.9 136.1 658.7C136.3 657.3 136.5 655.8 136.7 654.4C136.9 653.2 138 652.4 139.1 652.6C140.3 652.8 141.1 653.9 140.9 655C140.7 656.4 140.5 657.8 140.3 659.2C140.2 660.3 139.2 661.1 138.2 661.1ZM203.4 658.4C202.5 658.4 201.7 657.9 201.4 657C201 655.9 201.6 654.7 202.7 654.3C204 653.8 205.3 653.3 206.7 652.8C207.8 652.4 209 652.9 209.5 654C209.9 655.1 209.4 656.3 208.3 656.8C206.9 657.3 205.6 657.8 204.2 658.3C204 658.3 203.7 658.4 203.5 658.4H203.4ZM104.9 656.5C104.7 656.5 104.4 656.5 104.2 656.4C102.8 655.9 101.5 655.4 100.2 654.8C99.1 654.4 98.6 653.1 99 652C99.4 650.9 100.7 650.4 101.8 650.8C103.1 651.3 104.4 651.8 105.7 652.3C106.8 652.7 107.4 653.9 107 655.1C106.7 656 105.9 656.5 105 656.5H104.9ZM217.2 652.6C216.4 652.6 215.6 652.2 215.3 651.4C214.8 650.3 215.3 649.1 216.3 648.5C217.6 647.9 218.8 647.2 220.1 646.6C221.1 646 222.4 646.4 223 647.5C223.6 648.5 223.2 649.8 222.1 650.4C220.8 651.1 219.5 651.7 218.2 652.4C217.9 652.5 217.6 652.6 217.3 652.6H217.2ZM91.1 650.6C90.8 650.6 90.5 650.6 90.2 650.4C88.9 649.8 87.6 649.1 86.3 648.5C85.2 648 84.8 646.7 85.4 645.6C85.9 644.5 87.2 644.1 88.3 644.7C89.6 645.3 90.8 646 92.1 646.6C93.2 647.1 93.6 648.4 93.1 649.4C92.7 650.2 92 650.6 91.2 650.6H91.1ZM140.6 646.3C140.5 646.3 140.3 646.3 140.2 646.3C139 646.1 138.3 644.9 138.5 643.8C138.8 642.4 139.1 641 139.4 639.6C139.7 638.4 140.8 637.7 141.9 638C143.1 638.3 143.8 639.4 143.5 640.5C143.2 641.9 142.9 643.3 142.6 644.6C142.4 645.6 141.5 646.3 140.5 646.3H140.6ZM230.2 645.2C229.5 645.2 228.8 644.9 228.4 644.2C227.8 643.2 228 641.9 229 641.2C230.2 640.4 231.3 639.7 232.5 638.8C233.5 638.1 234.8 638.4 235.5 639.3C236.2 640.3 235.9 641.6 235 642.3C233.8 643.1 232.6 643.9 231.4 644.7C231 644.9 230.6 645 230.2 645V645.2ZM77.8 643.7C77.4 643.7 77.1 643.7 76.7 643.4C75.5 642.7 74.2 641.9 73 641.2C72 640.6 71.7 639.3 72.3 638.3C72.9 637.3 74.2 637 75.2 637.6C76.4 638.3 77.6 639.1 78.8 639.8C79.8 640.4 80.2 641.7 79.6 642.7C79.2 643.4 78.5 643.8 77.7 643.8L77.8 643.7ZM242.2 636.3C241.6 636.3 241 636 240.6 635.6C239.8 634.7 239.9 633.4 240.8 632.6C241.9 631.7 242.9 630.8 243.9 629.8C244.8 629 246.1 629.1 246.9 629.9C247.7 630.8 247.6 632.1 246.8 632.9C245.7 633.9 244.6 634.9 243.5 635.8C243.1 636.1 242.6 636.3 242.1 636.3H242.2ZM65.2 635.6C64.8 635.6 64.4 635.5 64 635.2C62.8 634.4 61.6 633.6 60.5 632.7C59.5 632 59.3 630.7 60 629.7C60.7 628.7 62 628.5 63 629.2C64.1 630 65.3 630.8 66.5 631.6C67.5 632.3 67.7 633.6 67.1 634.6C66.7 635.2 66 635.5 65.3 635.5L65.2 635.6ZM144.1 631.7C143.9 631.7 143.7 631.7 143.5 631.7C142.4 631.4 141.7 630.2 142 629.1C142.4 627.7 142.8 626.3 143.2 624.9C143.5 623.8 144.7 623.1 145.9 623.4C147 623.7 147.7 624.9 147.4 626.1C147 627.5 146.6 628.8 146.2 630.2C145.9 631.2 145.1 631.8 144.1 631.8V631.7ZM53.2 626.7C52.7 626.7 52.3 626.5 51.9 626.2C50.8 625.3 49.7 624.4 48.6 623.5C47.7 622.7 47.6 621.4 48.3 620.5C49.1 619.6 50.4 619.5 51.3 620.2C52.4 621.1 53.5 622 54.6 622.9C55.5 623.6 55.7 625 54.9 625.9C54.5 626.4 53.9 626.7 53.2 626.7ZM252.9 625.8C252.4 625.8 251.9 625.6 251.5 625.3C250.6 624.5 250.5 623.2 251.3 622.3C252.1 621.4 252.9 620.5 253.6 619.6L254 619.1C254.7 618.2 256.1 618 257 618.8C257.9 619.5 258.1 620.9 257.3 621.8L256.9 622.3C256.1 623.3 255.3 624.2 254.5 625.1C254.1 625.6 253.5 625.8 252.9 625.8ZM148.5 617.4C148.3 617.4 148 617.4 147.8 617.3C146.7 616.9 146.1 615.7 146.5 614.6C147 613.2 147.5 611.9 148 610.5C148.4 609.4 149.6 608.8 150.8 609.2C151.9 609.6 152.5 610.8 152.1 611.9C151.6 613.2 151.1 614.6 150.7 615.9C150.4 616.8 149.6 617.3 148.7 617.3L148.5 617.4ZM41.8 616.9C41.3 616.9 40.8 616.7 40.3 616.3C39.2 615.3 38.2 614.3 37.2 613.3C36.3 612.5 36.3 611.1 37.2 610.3C38 609.4 39.4 609.4 40.2 610.3C41.2 611.3 42.2 612.2 43.3 613.2C44.2 614 44.2 615.4 43.4 616.2C43 616.7 42.4 616.9 41.8 616.9ZM261.9 613.8C261.5 613.8 261.1 613.7 260.8 613.5C259.8 612.9 259.5 611.6 260.1 610.6C260.8 609.4 261.5 608.2 262.2 607C262.8 606 264.1 605.6 265.1 606.1C266.1 606.7 266.5 608 266 609C265.3 610.3 264.6 611.6 263.8 612.8C263.4 613.5 262.7 613.8 262 613.8H261.9ZM31.2 606.4C30.6 606.4 30.1 606.2 29.6 605.7C28.6 604.7 27.6 603.6 26.7 602.5C25.9 601.6 26 600.3 26.8 599.5C27.7 598.7 29 598.8 29.8 599.6C30.7 600.6 31.7 601.7 32.7 602.7C33.5 603.6 33.5 604.9 32.7 605.7C32.3 606.1 31.8 606.3 31.2 606.3V606.4ZM153.9 603.5C153.6 603.5 153.3 603.5 153.1 603.3C152 602.8 151.5 601.6 152 600.5C152.6 599.2 153.2 597.9 153.8 596.5C154.3 595.4 155.6 595 156.6 595.4C157.7 595.9 158.1 597.2 157.7 598.2C157.1 599.5 156.5 600.8 156 602.1C155.7 602.9 154.9 603.4 154 603.4L153.9 603.5ZM268.4 600.4C268.1 600.4 267.9 600.4 267.6 600.3C266.5 599.9 265.9 598.6 266.4 597.5C266.9 596.2 267.3 594.9 267.8 593.6C268.2 592.5 269.4 591.9 270.5 592.2C271.6 592.6 272.3 593.8 271.9 594.9C271.5 596.3 271 597.7 270.5 599.1C270.2 600 269.4 600.5 268.5 600.5L268.4 600.4ZM21.2 595.2C20.6 595.2 20 594.9 19.6 594.4C18.7 593.3 17.8 592.2 16.9 591.1C16.2 590.2 16.3 588.8 17.2 588.1C18.1 587.4 19.5 587.5 20.2 588.4C21.1 589.5 22 590.6 22.9 591.7C23.7 592.6 23.5 594 22.6 594.7C22.2 595 21.7 595.2 21.2 595.2ZM160.4 589.9C160.1 589.9 159.7 589.9 159.4 589.7C158.4 589.2 157.9 587.9 158.5 586.8C159.2 585.5 159.8 584.2 160.5 583C161.1 582 162.4 581.6 163.4 582.2C164.4 582.8 164.8 584.1 164.2 585.1C163.5 586.3 162.9 587.6 162.2 588.8C161.8 589.5 161.1 590 160.3 590L160.4 589.9ZM272.3 585.9C272.2 585.9 272.1 585.9 272 585.9C270.8 585.7 270 584.6 270.2 583.5C270.4 582.1 270.6 580.8 270.7 579.4C270.7 578.2 271.8 577.4 273 577.4C274.2 577.4 275.1 578.5 275 579.7C274.9 581.2 274.7 582.6 274.5 584.1C274.3 585.2 273.4 585.9 272.4 585.9H272.3ZM12 583.4C11.3 583.4 10.7 583.1 10.3 582.5C9.40002 581.3 8.60003 580.2 7.80003 579C7.10003 578 7.30003 576.7 8.30003 576C9.30003 575.3 10.6 575.5 11.3 576.5C12.1 577.7 13 578.8 13.8 579.9C14.5 580.9 14.3 582.2 13.3 582.9C12.9 583.2 12.5 583.3 12 583.3V583.4ZM167.8 576.9C167.4 576.9 167 576.8 166.7 576.6C165.7 576 165.4 574.6 166 573.6C166.8 572.4 167.6 571.2 168.4 570C169.1 569 170.4 568.8 171.4 569.4C172.4 570.1 172.6 571.4 172 572.4C171.2 573.6 170.4 574.7 169.7 575.9C169.3 576.5 168.6 576.9 167.9 576.9H167.8ZM3.50002 571.1C2.80003 571.1 2.10002 570.8 1.70002 570.1C0.900017 568.9 0.100021 567.7 -0.599976 566.5C-1.19997 565.5 -0.899979 564.2 0.100021 563.5C1.10002 562.9 2.40002 563.2 3.10002 564.2C3.90002 565.4 4.60002 566.6 5.40002 567.8C6.00002 568.8 5.80003 570.1 4.80003 570.8C4.40002 571 4.00002 571.1 3.60002 571.1H3.50002ZM272.5 571C271.4 571 270.5 570.2 270.4 569.1C270.2 567.7 270 566.4 269.7 565.1C269.4 563.9 270.2 562.8 271.3 562.5C272.4 562.2 273.6 563 273.9 564.1C274.2 565.5 274.5 567 274.7 568.5C274.8 569.7 274 570.7 272.8 570.9C272.8 570.9 272.6 570.9 272.5 570.9V571ZM176.5 564.7C176 564.7 175.6 564.5 175.2 564.2C174.3 563.5 174.1 562.1 174.9 561.2C175.8 560.1 176.7 558.9 177.7 557.8C178.5 556.9 179.8 556.8 180.7 557.6C181.6 558.4 181.7 559.7 180.9 560.6C180 561.7 179.1 562.7 178.2 563.8C177.8 564.3 177.2 564.6 176.5 564.6V564.7ZM-4.39998 558.3C-5.09998 558.3 -5.79997 557.9 -6.19997 557.2C-6.89997 556 -7.59998 554.7 -8.39998 553.5C-8.99998 552.5 -8.59998 551.2 -7.59998 550.6C-6.59998 550 -5.29997 550.4 -4.69997 551.4C-3.99998 552.6 -3.29997 553.9 -2.59998 555.1C-1.99998 556.1 -2.29998 557.4 -3.39998 558C-3.69998 558.2 -4.09998 558.3 -4.49998 558.3H-4.39998ZM268.1 556.8C267.3 556.8 266.6 556.4 266.2 555.7C265.6 554.5 264.9 553.4 264.1 552.2C263.4 551.2 263.7 549.9 264.7 549.2C265.7 548.5 267 548.8 267.7 549.8C268.5 551 269.3 552.3 270 553.7C270.6 554.7 270.2 556 269.1 556.6C268.8 556.8 268.4 556.8 268.1 556.8ZM186.6 553.7C186 553.7 185.5 553.5 185 553C184.2 552.1 184.2 550.8 185.1 550C186.2 549 187.3 548 188.4 547.1C189.3 546.3 190.7 546.5 191.4 547.4C192.2 548.3 192 549.7 191.1 550.4C190 551.3 189 552.2 188 553.2C187.6 553.6 187.1 553.8 186.5 553.8L186.6 553.7ZM-11.7 545.2C-12.5 545.2 -13.2 544.8 -13.6 544.1C-14.3 542.8 -14.9 541.6 -15.6 540.3C-16.1 539.2 -15.7 538 -14.7 537.4C-13.6 536.9 -12.4 537.3 -11.8 538.3C-11.2 539.6 -10.5 540.8 -9.79998 542.1C-9.19998 543.1 -9.69997 544.4 -10.7 545C-11 545.2 -11.4 545.2 -11.7 545.2ZM258.7 545.2C258.2 545.2 257.7 545 257.3 544.7C256.3 543.9 255.2 543.1 254 542.3C253 541.7 252.7 540.3 253.4 539.3C254.1 538.3 255.4 538 256.4 538.7C257.7 539.5 258.9 540.4 260 541.4C260.9 542.2 261 543.5 260.3 544.4C259.9 544.9 259.3 545.2 258.6 545.2H258.7ZM198.5 544.6C197.8 544.6 197.1 544.2 196.7 543.6C196.1 542.6 196.4 541.3 197.4 540.7C198.6 539.9 199.9 539.2 201.2 538.5C202.2 537.9 203.5 538.3 204.1 539.4C204.7 540.4 204.3 541.7 203.2 542.3C202 543 200.8 543.7 199.6 544.4C199.2 544.6 198.9 544.7 198.5 544.7V544.6ZM212 538.2C211.1 538.2 210.3 537.6 210 536.7C209.6 535.6 210.3 534.4 211.4 534C212.8 533.5 214.2 533.1 215.7 532.8C216.9 532.5 218 533.2 218.3 534.4C218.6 535.5 217.9 536.7 216.7 537C215.4 537.3 214 537.7 212.7 538.1C212.5 538.1 212.3 538.2 212 538.2ZM245.7 538.1C245.5 538.1 245.2 538.1 245 538C243.7 537.6 242.4 537.2 241.1 536.9C240 536.6 239.2 535.5 239.5 534.3C239.8 533.2 240.9 532.4 242.1 532.7C243.6 533.1 245 533.5 246.4 533.9C247.5 534.3 248.1 535.5 247.7 536.6C247.4 537.5 246.6 538.1 245.7 538.1ZM226.7 535.6C225.6 535.6 224.6 534.7 224.6 533.6C224.6 532.4 225.5 531.4 226.6 531.4C228.1 531.4 229.6 531.4 231 531.4C232.2 531.4 233.1 532.4 233.1 533.6C233.1 534.8 232.1 535.7 230.9 535.7C229.5 535.7 228.2 535.7 226.8 535.7C226.8 535.7 226.8 535.7 226.7 535.7V535.6ZM-18.4 531.8C-19.2 531.8 -20 531.4 -20.3 530.6C-20.9 529.3 -21.5 528 -22.1 526.7C-22.6 525.6 -22.1 524.4 -21.1 523.9C-20 523.4 -18.8 523.9 -18.3 524.9C-17.7 526.2 -17.1 527.5 -16.5 528.8C-16 529.9 -16.5 531.1 -17.5 531.7C-17.8 531.8 -18.1 531.9 -18.4 531.9V531.8ZM-24.6 518.2C-25.4 518.2 -26.2 517.7 -26.6 516.9C-27.2 515.6 -27.7 514.3 -28.3 512.9C-28.8 511.8 -28.3 510.6 -27.2 510.1C-26.1 509.6 -24.9 510.1 -24.4 511.2C-23.8 512.5 -23.3 513.8 -22.7 515.1C-22.2 516.2 -22.7 517.4 -23.8 517.9C-24.1 518 -24.4 518.1 -24.6 518.1V518.2ZM-30.3 504.3C-31.2 504.3 -32 503.8 -32.3 502.9C-32.8 501.6 -33.3 500.2 -33.9 498.9C-34.3 497.8 -33.8 496.6 -32.7 496.1C-31.6 495.7 -30.4 496.2 -29.9 497.3C-29.4 498.6 -28.9 500 -28.4 501.3C-28 502.4 -28.5 503.6 -29.6 504.1C-29.9 504.2 -30.1 504.2 -30.4 504.2L-30.3 504.3ZM-35.5 490.3C-36.4 490.3 -37.2 489.8 -37.5 488.9C-38 487.6 -38.5 486.2 -38.9 484.9C-39.3 483.8 -38.7 482.6 -37.6 482.2C-36.5 481.8 -35.3 482.4 -34.9 483.5C-34.4 484.8 -34 486.2 -33.5 487.5C-33.1 488.6 -33.7 489.8 -34.8 490.2C-35 490.2 -35.3 490.3 -35.5 490.3ZM-40.4 476.2C-41.3 476.2 -42.1 475.6 -42.4 474.7C-42.8 473.3 -43.3 472 -43.7 470.6C-44.1 469.5 -43.4 468.3 -42.3 467.9C-41.2 467.5 -40 468.2 -39.6 469.3C-39.2 470.7 -38.7 472 -38.3 473.4C-37.9 474.5 -38.5 475.7 -39.7 476.1C-39.9 476.1 -40.1 476.2 -40.4 476.2ZM-44.9 461.9C-45.8 461.9 -46.7 461.3 -46.9 460.4C-47.3 459 -47.7 457.7 -48.1 456.3C-48.4 455.2 -47.8 454 -46.7 453.6C-45.6 453.3 -44.4 453.9 -44 455C-43.6 456.4 -43.2 457.7 -42.8 459.1C-42.5 460.2 -43.1 461.4 -44.2 461.8C-44.4 461.8 -44.6 461.8 -44.8 461.8L-44.9 461.9ZM-49.1 447.5C-50 447.5 -50.9 446.9 -51.2 445.9C-51.6 444.5 -52 443.1 -52.3 441.8C-52.6 440.7 -51.9 439.5 -50.8 439.2C-49.7 438.9 -48.5 439.6 -48.2 440.7C-47.8 442.1 -47.5 443.4 -47.1 444.8C-46.8 445.9 -47.5 447.1 -48.6 447.4C-48.8 447.4 -49 447.4 -49.2 447.4L-49.1 447.5ZM-52.9 433C-53.9 433 -54.7 432.4 -55 431.4C-55.3 430 -55.7 428.6 -56 427.2C-56.3 426.1 -55.6 424.9 -54.4 424.6C-53.3 424.3 -52.1 425 -51.8 426.2C-51.5 427.6 -51.1 429 -50.8 430.3C-50.5 431.4 -51.2 432.6 -52.4 432.9C-52.6 432.9 -52.7 432.9 -52.9 432.9V433ZM-56.4 418.4C-57.4 418.4 -58.3 417.7 -58.5 416.7C-58.8 415.3 -59.1 413.9 -59.4 412.5C-59.7 411.3 -58.9 410.2 -57.8 410C-56.6 409.7 -55.5 410.5 -55.3 411.6C-55 413 -54.7 414.4 -54.4 415.8C-54.1 417 -54.9 418.1 -56 418.4C-56.2 418.4 -56.3 418.4 -56.5 418.4H-56.4ZM-59.5 403.8C-60.5 403.8 -61.4 403.1 -61.6 402.1C-61.9 400.7 -62.2 399.3 -62.4 397.9C-62.6 396.7 -61.9 395.6 -60.7 395.4C-59.5 395.2 -58.4 395.9 -58.2 397.1C-57.9 398.5 -57.7 399.9 -57.4 401.3C-57.2 402.5 -57.9 403.6 -59.1 403.8C-59.2 403.8 -59.4 403.8 -59.5 403.8ZM-62.3 389.1C-63.3 389.1 -64.2 388.4 -64.4 387.3C-64.6 385.9 -64.9 384.5 -65.1 383.1C-65.3 381.9 -64.5 380.8 -63.3 380.6C-62.1 380.4 -61 381.2 -60.8 382.4C-60.6 383.8 -60.3 385.2 -60.1 386.6C-59.9 387.8 -60.7 388.9 -61.8 389.1C-61.9 389.1 -62.1 389.1 -62.2 389.1H-62.3ZM-64.7 374.3C-65.7 374.3 -66.7 373.5 -66.8 372.5C-67 371.1 -67.2 369.7 -67.4 368.3C-67.6 367.1 -66.8 366 -65.6 365.9C-64.4 365.7 -63.3 366.5 -63.2 367.7C-63 369.1 -62.8 370.5 -62.6 371.9C-62.4 373.1 -63.2 374.2 -64.4 374.3C-64.5 374.3 -64.6 374.3 -64.7 374.3ZM-66.8 359.5C-67.9 359.5 -68.8 358.7 -68.9 357.6C-69.1 356.2 -69.3 354.8 -69.4 353.3C-69.5 352.1 -68.7 351.1 -67.5 350.9C-66.3 350.8 -65.3 351.6 -65.1 352.8C-64.9 354.2 -64.8 355.6 -64.6 357C-64.4 358.2 -65.3 359.2 -66.4 359.4C-66.4 359.4 -66.6 359.4 -66.7 359.4L-66.8 359.5ZM-68.5 344.6C-69.6 344.6 -70.5 343.8 -70.6 342.7C-70.7 341.3 -70.9 339.9 -71 338.4C-71.1 337.2 -70.3 336.2 -69.1 336.1C-67.9 336 -66.9 336.8 -66.8 338C-66.7 339.4 -66.5 340.8 -66.4 342.2C-66.3 343.4 -67.1 344.4 -68.3 344.5H-68.5V344.6ZM-69.9 329.7C-71 329.7 -71.9 328.9 -72 327.7C-72.1 326.3 -72.2 324.8 -72.3 323.4C-72.3 322.2 -71.5 321.2 -70.3 321.1C-69.1 321.1 -68.1 321.9 -68 323.1C-67.9 324.5 -67.8 325.9 -67.7 327.4C-67.7 328.6 -68.5 329.6 -69.7 329.7C-69.7 329.7 -69.8 329.7 -69.9 329.7ZM-71 314.7C-72.1 314.7 -73.1 313.8 -73.1 312.7C-73.1 311.3 -73.3 309.8 -73.3 308.4C-73.3 307.2 -72.5 306.2 -71.3 306.2C-70.1 306.2 -69.1 307 -69.1 308.2C-69.1 309.6 -69 311 -68.9 312.5C-68.9 313.7 -69.7 314.7 -70.9 314.8C-70.9 314.8 -70.9 314.8 -71 314.8V314.7ZM-71.6 299.8C-72.7 299.8 -73.7 298.9 -73.7 297.7C-73.7 296.3 -73.7 294.8 -73.8 293.4C-73.8 292.2 -72.9 291.2 -71.7 291.2C-70.5 291.2 -69.5 292.1 -69.5 293.3C-69.5 294.7 -69.5 296.1 -69.4 297.6C-69.4 298.8 -70.3 299.8 -71.5 299.8H-71.6ZM-72 284.8C-73.2 284.8 -74.1 283.9 -74.1 282.7C-74.1 281.3 -74.1 279.8 -74.1 278.4C-74.1 277.2 -73.2 276.3 -72 276.3C-70.8 276.3 -69.9 277.3 -69.9 278.4C-69.9 279.8 -69.9 281.2 -69.9 282.7C-69.9 283.9 -70.8 284.8 -72 284.9V284.8ZM-72 269.8C-73.2 269.8 -74.1 268.8 -74.1 267.6C-74.1 266.2 -74.1 264.7 -74.1 263.3C-74.1 262.1 -73.1 261.3 -71.9 261.2C-70.7 261.2 -69.8 262.2 -69.8 263.4C-69.8 264.8 -69.8 266.2 -69.8 267.7C-69.8 268.9 -70.8 269.8 -71.9 269.8H-72ZM-71.6 254.8C-72.8 254.8 -73.7 253.8 -73.7 252.6C-73.7 251.2 -73.6 249.7 -73.5 248.3C-73.5 247.1 -72.4 246.2 -71.3 246.3C-70.1 246.3 -69.2 247.3 -69.3 248.5C-69.3 249.9 -69.4 251.3 -69.5 252.8C-69.5 254 -70.5 254.9 -71.6 254.9V254.8ZM-70.9 239.9C-70.9 239.9 -70.9 239.9 -71 239.9C-72.2 239.9 -73.1 238.8 -73 237.6C-73 236.2 -72.8 234.7 -72.7 233.3C-72.7 232.1 -71.6 231.2 -70.4 231.3C-69.2 231.3 -68.3 232.4 -68.4 233.6C-68.4 235 -68.6 236.4 -68.7 237.9C-68.7 239 -69.7 239.9 -70.8 239.9H-70.9ZM-69.9 224.9C-69.9 224.9 -70 224.9 -70.1 224.9C-71.3 224.9 -72.2 223.8 -72.1 222.6C-72 221.2 -71.9 219.7 -71.7 218.3C-71.6 217.1 -70.5 216.3 -69.4 216.4C-68.2 216.5 -67.4 217.5 -67.5 218.7C-67.6 220.1 -67.7 221.5 -67.9 223C-67.9 224.1 -68.9 225 -70 225L-69.9 224.9ZM-68.5 210C-68.5 210 -68.6 210 -68.7 210C-69.9 209.9 -70.7 208.8 -70.6 207.7C-70.5 206.3 -70.3 204.9 -70.1 203.4C-70 202.2 -68.9 201.4 -67.7 201.5C-66.5 201.6 -65.7 202.7 -65.8 203.9C-66 205.3 -66.1 206.7 -66.3 208.1C-66.4 209.2 -67.3 210 -68.4 210H-68.5ZM-66.8 195.1C-66.8 195.1 -67 195.1 -67.1 195.1C-68.3 194.9 -69.1 193.9 -69 192.7C-68.8 191.3 -68.6 189.9 -68.4 188.4C-68.2 187.2 -67.2 186.4 -66 186.6C-64.8 186.8 -64 187.8 -64.2 189C-64.4 190.4 -64.6 191.8 -64.8 193.2C-64.9 194.3 -65.9 195.1 -66.9 195.1H-66.8ZM-64.7 180.3C-64.8 180.3 -64.9 180.3 -65 180.3C-66.2 180.1 -67 179 -66.8 177.9C-66.6 176.5 -66.4 175.1 -66.1 173.7C-65.9 172.5 -64.8 171.7 -63.7 171.9C-62.5 172.1 -61.7 173.2 -61.9 174.3C-62.1 175.7 -62.3 177.1 -62.6 178.5C-62.8 179.6 -63.7 180.3 -64.7 180.3ZM-62.3 165.5C-62.4 165.5 -62.5 165.5 -62.7 165.5C-63.9 165.3 -64.6 164.2 -64.4 163C-64.2 161.6 -63.9 160.2 -63.6 158.8C-63.4 157.6 -62.3 156.9 -61.1 157.1C-59.9 157.3 -59.2 158.4 -59.4 159.6C-59.7 161 -59.9 162.4 -60.1 163.8C-60.3 164.8 -61.2 165.6 -62.2 165.6L-62.3 165.5ZM-59.6 150.8C-59.7 150.8 -59.9 150.8 -60 150.8C-61.2 150.6 -61.9 149.4 -61.7 148.3C-61.4 146.9 -61.1 145.5 -60.8 144.1C-60.6 142.9 -59.4 142.2 -58.3 142.4C-57.1 142.6 -56.4 143.8 -56.6 144.9C-56.9 146.3 -57.2 147.7 -57.4 149.1C-57.6 150.1 -58.5 150.8 -59.5 150.8H-59.6ZM-56.5 136.1C-56.7 136.1 -56.8 136.1 -57 136.1C-58.2 135.8 -58.9 134.7 -58.6 133.5C-58.3 132.1 -58 130.7 -57.7 129.3C-57.4 128.1 -56.3 127.4 -55.1 127.7C-53.9 128 -53.2 129.1 -53.5 130.3C-53.8 131.7 -54.1 133.1 -54.4 134.5C-54.6 135.5 -55.5 136.2 -56.5 136.2V136.1ZM-53.1 121.5C-53.3 121.5 -53.4 121.5 -53.6 121.5C-54.7 121.2 -55.4 120.1 -55.2 118.9C-54.9 117.5 -54.5 116.1 -54.2 114.7C-53.9 113.6 -52.7 112.9 -51.6 113.2C-50.5 113.5 -49.8 114.7 -50.1 115.8C-50.5 117.2 -50.8 118.6 -51.1 119.9C-51.3 120.9 -52.2 121.5 -53.2 121.5H-53.1ZM-49.3 107C-49.5 107 -49.7 107 -49.9 107C-51 106.7 -51.7 105.5 -51.4 104.4C-51 103 -50.6 101.6 -50.3 100.3C-50 99.1999 -48.8 98.4999 -47.7 98.7999C-46.6 99.0999 -45.9 100.3 -46.2 101.4C-46.6 102.8 -47 104.1 -47.3 105.5C-47.6 106.5 -48.4 107.1 -49.4 107.1L-49.3 107ZM-45.2 92.5999C-45.4 92.5999 -45.6 92.5999 -45.8 92.5999C-46.9 92.2999 -47.6 91.0999 -47.2 89.8999C-46.8 88.4999 -46.4 87.1999 -46 85.7999C-45.7 84.6999 -44.5 83.9999 -43.3 84.3999C-42.2 84.6999 -41.5 85.8999 -41.9 87.0999C-42.3 88.4999 -42.7 89.7999 -43.1 91.1999C-43.4 92.0999 -44.2 92.6999 -45.1 92.6999L-45.2 92.5999ZM-40.8 78.2999C-41 78.2999 -41.2 78.2999 -41.5 78.1999C-42.6 77.7999 -43.2 76.5999 -42.9 75.4999C-42.5 74.0999 -42 72.7999 -41.6 71.3999C-41.2 70.2999 -40 69.6999 -38.9 69.9999C-37.8 70.3999 -37.2 71.5999 -37.5 72.6999C-37.9 74.0999 -38.4 75.3999 -38.8 76.7999C-39.1 77.6999 -39.9 78.2999 -40.8 78.2999ZM-36 64.0999C-36.2 64.0999 -36.5 64.0999 -36.7 63.9999C-37.8 63.5999 -38.4 62.3999 -38 61.2999C-37.5 59.8999 -37 58.5999 -36.6 57.2999C-36.2 56.1999 -35 55.5999 -33.9 55.9999C-32.8 56.3999 -32.2 57.5999 -32.6 58.6999C-33.1 59.9999 -33.6 61.3999 -34 62.6999C-34.3 63.5999 -35.1 64.0999 -36 64.0999ZM-30.9 50.0999C-31.2 50.0999 -31.4 50.0999 -31.7 49.9999C-32.8 49.5999 -33.4 48.3999 -32.9 47.1999C-32.4 45.8999 -31.9 44.4999 -31.4 43.1999C-31 42.0999 -29.7 41.5999 -28.6 41.9999C-27.5 42.3999 -26.9 43.6999 -27.4 44.7999C-27.9 46.0999 -28.4 47.4999 -28.9 48.7999C-29.2 49.6999 -30 50.1999 -30.9 50.1999V50.0999ZM-25.4 36.0999C-25.7 36.0999 -25.9 36.0999 -26.2 35.8999C-27.3 35.4999 -27.8 34.1999 -27.4 33.0999C-26.9 31.7999 -26.3 30.3999 -25.8 29.0999C-25.3 27.9999 -24.1 27.4999 -23 27.8999C-21.9 28.3999 -21.4 29.5999 -21.8 30.6999C-22.3 31.9999 -22.9 33.2999 -23.4 34.5999C-23.7 35.3999 -24.5 35.8999 -25.4 35.8999V36.0999ZM-19.6 22.2999C-19.9 22.2999 -20.2 22.2999 -20.4 22.0999C-21.5 21.5999 -22 20.3999 -21.5 19.2999C-20.9 17.9999 -20.4 16.6999 -19.8 15.3999C-19.3 14.2999 -18.1 13.7999 -17 14.2999C-15.9 14.7999 -15.4 15.9999 -15.9 17.0999C-16.5 18.3999 -17 19.6999 -17.6 20.9999C-17.9 21.7999 -18.7 22.2999 -19.6 22.2999ZM-13.5 8.59989C-13.8 8.59989 -14.1 8.59989 -14.4 8.39989C-15.5 7.89989 -15.9 6.59989 -15.4 5.59989C-14.8 4.29989 -14.2 2.99989 -13.6 1.69989C-13.1 0.599892 -11.8 0.199892 -10.8 0.699892C-9.69998 1.19989 -9.29998 2.49989 -9.79998 3.49989C-10.4 4.79989 -11 6.09989 -11.6 7.39989C-12 8.19989 -12.7 8.59989 -13.5 8.59989Z" fill="black"/>
</svg>
