<svg width="305" height="413" viewBox="0 0 305 413" fill="none" xmlns="http://www.w3.org/2000/svg">
<g clip-path="url(#clip0_14_194)">
<path d="M227.81 326.374C227.149 326.79 226.488 327.205 225.828 327.621C224.74 328.305 223.259 327.933 222.613 326.82C221.928 325.731 222.346 324.327 223.41 323.604C224.692 322.797 226.014 321.967 227.296 321.16C228.423 320.451 229.855 320.745 230.54 321.834C231.225 322.923 230.957 324.394 229.869 325.079C229.17 325.519 228.47 325.959 227.81 326.374ZM215.493 333.089C215.415 333.138 215.337 333.187 215.259 333.236C213.802 333.936 212.358 334.572 210.89 335.17C209.704 335.699 208.305 335.113 207.814 333.902C207.324 332.69 207.869 331.316 209.08 330.826C210.484 330.214 211.889 329.602 213.269 328.951C214.431 328.383 215.844 328.906 216.412 330.068C216.932 331.153 216.542 332.43 215.531 333.065L215.493 333.089ZM239.275 318.132C238.264 318.767 236.945 318.566 236.192 317.628C235.39 316.612 235.556 315.151 236.546 314.311C237.73 313.349 238.891 312.348 240.051 311.346C241.016 310.468 242.491 310.571 243.371 311.538C244.25 312.505 244.109 314.005 243.182 314.86C241.983 315.885 240.746 316.935 239.522 317.922C239.444 317.971 239.367 318.019 239.289 318.068L239.275 318.132ZM251.314 306.922C250.42 307.484 249.276 307.39 248.48 306.642C247.548 305.763 247.484 304.282 248.338 303.311C249.361 302.179 250.423 301.022 251.422 299.851C252.276 298.88 253.77 298.755 254.741 299.61C255.712 300.464 255.839 301.959 254.985 302.93C253.948 304.126 252.871 305.346 251.809 306.502C251.678 306.639 251.508 306.8 251.353 306.898L251.314 306.922ZM200.15 339.048C199.995 339.145 199.801 339.267 199.596 339.287C198.055 339.768 196.528 340.186 194.976 340.565C193.707 340.874 192.439 340.152 192.128 338.882C191.817 337.611 192.539 336.344 193.808 336.034C195.296 335.641 196.784 335.248 198.223 334.777C199.444 334.389 200.775 335.126 201.164 336.347C201.493 337.389 201.044 338.485 200.189 339.023L200.15 339.048ZM261.674 294.164C260.897 294.652 259.865 294.65 259.089 294.106C258.025 293.364 257.758 291.904 258.499 290.84C259.386 289.577 260.209 288.299 261.032 287.021C261.749 285.919 263.184 285.614 264.262 286.293C265.364 287.011 265.671 288.447 264.993 289.525C264.155 290.866 263.254 292.192 262.353 293.519C262.155 293.807 261.946 293.992 261.674 294.164ZM184.119 342.616C183.847 342.787 183.55 342.92 183.205 342.974C181.619 343.211 180.047 343.386 178.412 343.545C177.123 343.651 176 342.728 175.831 341.424C175.724 340.133 176.645 339.011 177.949 338.842C179.482 338.693 180.99 338.504 182.499 338.315C183.778 338.108 184.964 339.045 185.173 340.325C185.327 341.26 184.857 342.152 184.08 342.641L184.119 342.616ZM270.019 280.012C269.358 280.428 268.477 280.493 267.722 280.154C266.552 279.587 266.08 278.147 266.67 277.015C267.342 275.67 268.004 274.222 268.613 272.862C269.115 271.677 270.506 271.129 271.714 271.671C272.899 272.175 273.449 273.566 272.907 274.775C272.27 276.262 271.583 277.671 270.882 279.143C270.694 279.533 270.379 279.894 270.029 280.114L270.019 280.012ZM167.709 343.6C167.32 343.845 166.897 343.948 166.425 343.973C164.833 343.943 163.217 343.874 161.615 343.741C160.306 343.642 159.329 342.52 159.451 341.248C159.573 339.977 160.67 338.962 161.941 339.085C163.479 339.203 164.993 339.282 166.522 339.298C167.821 339.295 168.838 340.393 168.842 341.693C168.82 342.521 168.394 343.224 167.734 343.639L167.709 343.6ZM276.111 264.78C275.567 265.122 274.838 265.255 274.156 265.033C272.942 264.656 272.213 263.324 272.588 262.11C273.022 260.643 273.455 259.176 273.825 257.695C274.176 256.443 275.444 255.7 276.672 256.013C277.924 256.366 278.668 257.635 278.355 258.863C277.971 260.407 277.523 261.938 277.037 263.492C276.844 264.048 276.476 264.497 276.048 264.765L276.111 264.78ZM151.368 341.935C150.902 342.228 150.299 342.39 149.69 342.285C148.093 341.986 146.534 341.664 145.014 341.317C143.748 341.028 142.965 339.783 143.253 338.516C143.541 337.249 144.784 336.467 146.051 336.757C147.57 337.104 149.066 337.412 150.537 337.681C151.817 337.907 152.639 339.127 152.415 340.408C152.295 341.08 151.898 341.656 151.354 341.998L151.368 341.935ZM135.501 337.746C134.918 338.112 134.189 338.246 133.482 337.984C131.966 337.472 130.465 336.896 128.964 336.32C127.741 335.841 127.152 334.474 127.63 333.251C128.108 332.027 129.474 331.44 130.697 331.919C132.135 332.48 133.548 333.003 135 333.501C136.238 333.917 136.866 335.259 136.451 336.497C136.297 337.028 135.904 337.438 135.477 337.707L135.501 337.746ZM120.357 331.257C119.696 331.672 118.776 331.762 118.035 331.36C116.602 330.633 115.207 329.881 113.827 329.066C112.71 328.412 112.301 326.986 112.955 325.869C113.584 324.714 115.033 324.345 116.15 325C117.481 325.737 118.837 326.513 120.183 327.186C121.314 327.778 121.786 329.218 121.196 330.349C121.007 330.739 120.706 331.037 120.357 331.257ZM106.296 322.783C105.519 323.272 104.487 323.27 103.711 322.726C102.423 321.799 101.135 320.872 99.8611 319.882C98.8364 319.115 98.6465 317.606 99.4122 316.581C100.178 315.557 101.686 315.368 102.711 316.135C103.936 317.048 105.16 317.96 106.424 318.848C107.487 319.591 107.755 321.051 107.014 322.114C106.854 322.378 106.607 322.588 106.335 322.759L106.296 322.783ZM93.5087 312.368C92.6149 312.93 91.4707 312.836 90.6749 312.088C89.4933 310.985 88.3751 309.897 87.2324 308.77C86.3142 307.828 86.3142 306.362 87.2555 305.444C88.1968 304.526 89.6619 304.528 90.5801 305.47C91.6595 306.583 92.7532 307.632 93.9103 308.696C94.8429 309.575 94.9062 311.055 94.0282 311.987C93.8973 312.124 93.7274 312.285 93.572 312.383L93.5087 312.368ZM82.3566 300.328C81.3462 300.964 80.0265 300.762 79.2738 299.824C78.2621 298.56 77.3137 297.311 76.3408 296.023C75.5781 294.983 75.7825 293.497 76.8216 292.735C77.8608 291.973 79.346 292.179 80.1088 293.219C80.9938 294.454 81.9811 295.678 82.9439 296.864C83.7455 297.88 83.5799 299.341 82.5897 300.181C82.512 300.23 82.4343 300.279 82.3566 300.328ZM72.9762 286.793L72.8985 286.842C71.8105 287.527 70.3684 287.131 69.6589 286.003C68.8415 284.617 68.0629 283.207 67.3476 281.811C66.7403 280.673 67.1592 279.269 68.335 278.638C69.472 278.032 70.8997 278.491 71.507 279.629C72.2367 280.961 72.9908 282.333 73.7593 283.641C74.4443 284.73 74.0499 286.172 73.0007 286.832L72.9762 286.793ZM89.7624 265.541C88.7521 266.177 87.4079 265.937 86.6552 264.999C85.8536 263.983 86.058 262.497 87.0727 261.696C88.2039 260.822 89.3251 259.845 90.2951 258.801C91.1731 257.868 92.6771 257.845 93.6097 258.724C94.5422 259.604 94.5666 261.108 93.6887 262.041C92.5488 263.246 91.2578 264.384 89.9323 265.38C89.8545 265.429 89.8157 265.454 89.738 265.502L89.7624 265.541ZM79.3093 270.65C79.115 270.772 78.9207 270.895 78.6775 270.939C77.0871 271.342 75.409 271.692 73.7596 271.915C72.4557 272.084 71.2943 271.186 71.1245 269.881C70.9547 268.576 71.8514 267.415 73.1553 267.246C74.6003 267.043 76.0597 266.777 77.4456 266.394C78.6906 266.045 79.9829 266.806 80.3326 268.052C80.5989 269.079 80.1642 270.113 79.3093 270.65ZM99.6056 252.565C98.9838 252.956 98.2297 253.05 97.5231 252.789C96.2997 252.31 95.7111 250.943 96.1501 249.744C96.6568 248.394 97.0368 247.015 97.3146 245.646C97.5391 244.364 98.7582 243.543 100.039 243.769C101.32 243.995 102.142 245.215 101.917 246.497C101.606 248.158 101.13 249.815 100.527 251.443C100.348 251.935 99.9942 252.32 99.5667 252.589L99.6056 252.565ZM65.8066 272.031C65.69 272.105 65.5734 272.178 65.418 272.276C64.4263 272.682 63.3397 272.334 62.6993 271.488C62.3007 271.631 61.8531 271.695 61.3954 271.657C59.7979 271.359 58.1759 271.022 56.5827 270.558C55.3306 270.206 54.6254 268.912 54.9378 267.684C55.289 266.432 56.5814 265.728 57.809 266.041C58.8079 266.336 59.8211 266.567 60.8098 266.76C60.7364 266.643 60.7263 266.541 60.6918 266.4C60.3032 265.178 60.9365 263.857 62.1714 263.406C63.3674 262.98 64.713 263.653 65.1649 264.889C65.6369 266.329 66.1723 267.784 66.7465 269.214C67.1638 270.309 66.7637 271.484 65.831 272.07L65.8066 272.031ZM99.9616 236.489C99.845 236.563 99.6896 236.66 99.573 236.734C98.3626 237.224 97.0026 236.613 96.5507 235.377C96.1334 234.283 95.575 233.223 94.9389 232.211L94.6208 231.705C93.8969 230.641 94.1647 229.17 95.2283 228.446C96.3552 227.737 97.7627 227.992 98.5111 229.096C98.6334 229.29 98.7802 229.524 98.9025 229.718C99.7099 231.002 100.401 232.359 100.926 233.711C101.319 234.767 100.919 235.942 99.9861 236.528L99.9616 236.489ZM47.5863 265.739C46.8869 266.179 45.9427 266.23 45.1771 265.789C44.6504 265.469 44.0848 265.173 43.5825 264.892C42.7046 264.358 41.8655 263.8 41.0265 263.242C39.9629 262.5 39.6564 261.064 40.3977 260.001C41.1389 258.937 42.5738 258.632 43.6374 259.375C44.4131 259.918 45.2032 260.398 46.0178 260.917C46.4812 261.223 46.9835 261.504 47.4613 261.747C48.6169 262.377 48.9868 263.827 48.3722 264.92C48.1592 265.271 47.8972 265.544 47.5863 265.739ZM61.1987 256.255C60.9267 256.426 60.6691 256.534 60.3236 256.588C59.0442 256.796 57.8439 255.922 57.6353 254.642C57.3719 253.016 57.1719 251.405 57.0741 249.783C56.9677 248.493 57.9277 247.347 59.2417 247.28C60.5312 247.175 61.6394 248.161 61.7458 249.451C61.848 250.907 62.0379 252.416 62.2667 253.901C62.4451 254.874 61.9759 255.766 61.1987 256.255ZM89.0729 224.609C88.3734 225.049 87.4926 225.114 86.7514 224.712C85.4691 224.053 84.1825 223.559 82.8671 223.192C81.615 222.84 80.8709 221.571 81.2221 220.318C81.5733 219.066 82.8413 218.323 84.0934 218.675C85.7255 219.114 87.3777 219.758 88.9234 220.577C90.0546 221.169 90.5266 222.609 89.9365 223.74C89.7479 224.13 89.4471 224.428 89.0974 224.648L89.0729 224.609ZM61.2568 239.878C60.7516 240.196 60.163 240.295 59.5542 240.189C58.3122 239.939 57.4659 238.68 57.715 237.437C58.0403 235.713 58.5412 234.095 59.091 232.555C59.53 231.356 60.8714 230.729 62.1091 231.145C63.3079 231.585 63.9354 232.928 63.5208 234.166C63.0286 235.453 62.6731 236.871 62.342 238.327C62.2225 239 61.8008 239.536 61.2956 239.854L61.2568 239.878ZM34.5186 255.827C33.6249 256.389 32.4174 256.28 31.6215 255.532C30.4788 254.405 29.375 253.253 28.2467 252.063C27.3673 251.096 27.4307 249.645 28.3964 248.766C29.3622 247.887 30.8129 247.952 31.7311 248.894C32.7716 250.031 33.8265 251.105 34.9203 252.154C35.8529 253.033 35.8773 254.538 34.9605 255.495C34.805 255.593 34.6741 255.729 34.5186 255.827ZM73.2013 223.517C73.0847 223.591 72.9682 223.664 72.8904 223.713C72.6961 223.835 72.4141 223.904 72.2198 224.026C71.1749 224.52 70.2422 225.107 69.383 225.81C68.3683 226.611 66.8831 226.405 66.0815 225.39C65.2799 224.374 65.4843 222.888 66.499 222.087C67.5913 221.237 68.8348 220.455 70.1129 219.814C70.3849 219.643 70.7058 219.55 71.0412 219.393C72.2516 218.903 73.626 219.45 74.1167 220.661C74.5729 221.732 74.1584 222.97 73.2258 223.556L73.2013 223.517ZM23.8372 243.328C22.788 243.988 21.4193 243.709 20.681 242.707C19.747 241.395 18.8375 240.121 17.9035 238.808C17.1796 237.744 17.4473 236.272 18.5109 235.549C19.6379 234.84 21.0454 235.095 21.7693 236.16C22.64 237.458 23.525 238.693 24.4346 239.966C25.1973 241.007 24.9929 242.492 23.9538 243.254C23.9149 243.279 23.8761 243.303 23.7983 243.352L23.8372 243.328ZM14.8066 229.573C14.8066 229.573 14.8066 229.573 14.7677 229.598C13.6797 230.282 12.1987 229.911 11.5526 228.797C10.6963 227.436 9.94216 226.064 9.16359 224.654C8.51742 223.54 8.95067 222.073 10.0877 221.467C11.2002 220.821 12.6423 221.217 13.2741 222.394C14.0282 223.766 14.7967 225.074 15.5896 226.421C16.2746 227.51 15.9191 228.928 14.8311 229.612L14.8066 229.573ZM7.04395 215.075C6.96623 215.124 6.88851 215.173 6.81079 215.222C5.64933 215.79 4.2605 215.306 3.66758 214.105C2.9912 212.684 2.29035 211.225 1.65282 209.78C1.12323 208.594 1.66874 207.219 2.8302 206.651C4.01613 206.123 5.42941 206.645 5.95901 207.832C6.57207 209.238 7.24845 210.658 7.93923 212.015C8.45875 213.1 8.06868 214.377 7.05834 215.012L7.04395 215.075ZM0.481619 199.986C0.36504 200.059 0.209602 200.157 0.0930236 200.23C-1.11737 200.72 -2.4774 200.11 -2.92928 198.874C-3.48908 197.38 -4.04889 195.886 -4.58423 194.432C-5.0361 193.196 -4.40281 191.875 -3.16795 191.424C-1.93309 190.973 -0.611921 191.608 -0.160048 192.843C0.375291 194.298 0.910634 195.753 1.44598 197.208C1.83885 198.263 1.43871 199.438 0.506079 200.025L0.481619 199.986ZM-4.83146 184.381C-5.02575 184.504 -5.18119 184.601 -5.42442 184.646C-6.66935 184.995 -7.97613 184.296 -8.32582 183.051C-8.78344 181.547 -9.2022 180.019 -9.62097 178.491C-9.97066 177.245 -9.21071 175.953 -7.96578 175.604C-6.72085 175.255 -5.42847 176.017 -5.07878 177.263C-4.68448 178.752 -4.22686 180.255 -3.7937 181.72C-3.46416 182.761 -3.93769 183.819 -4.7926 184.357L-4.83146 184.381ZM-8.8996 168.429C-9.13276 168.575 -9.36592 168.722 -9.63361 168.727C-10.9275 168.998 -12.1421 168.188 -12.453 166.918C-12.7695 165.38 -13.1106 163.803 -13.4272 162.265C-13.6747 161.009 -12.8269 159.77 -11.5719 159.524C-10.3169 159.277 -9.07781 160.126 -8.8303 161.382C-8.53819 162.881 -8.22161 164.419 -7.90503 165.957C-7.70214 166.97 -8.12242 167.94 -8.93846 168.453L-8.8996 168.429ZM-11.7905 152.278C-12.0625 152.449 -12.359 152.581 -12.7044 152.636C-14.0083 152.804 -15.1697 151.906 -15.3784 150.626C-15.5928 149.078 -15.7928 147.467 -16.0072 145.919C-16.1769 144.614 -15.217 143.467 -13.9519 143.323C-12.648 143.155 -11.5009 144.116 -11.3556 145.382C-11.1412 146.93 -10.9901 148.463 -10.7369 149.987C-10.6218 150.946 -11.0521 151.814 -11.8293 152.303L-11.7905 152.278ZM-13.5285 135.891C-13.8394 136.087 -14.1992 136.204 -14.6079 136.244C-15.8975 136.35 -17.0056 135.364 -17.1121 134.074C-17.2243 132.516 -17.3221 130.894 -17.3955 129.312C-17.4631 127.997 -16.4541 126.928 -15.1646 126.823C-13.8506 126.757 -12.7813 127.767 -12.6748 129.057C-12.626 130.601 -12.5138 132.159 -12.4015 133.717C-12.3354 134.598 -12.7902 135.427 -13.4897 135.867L-13.5285 135.891ZM-14.0936 119.472C-14.4433 119.692 -14.9053 119.82 -15.3385 119.821C-16.6381 119.824 -17.6931 118.75 -17.6973 117.45C-17.7074 115.882 -17.6785 114.29 -17.6497 112.697C-17.6151 111.373 -16.5573 110.382 -15.2576 110.379C-13.9336 110.414 -12.942 111.474 -12.9377 112.774C-12.991 114.327 -12.981 115.895 -12.9954 117.424C-13.017 118.252 -13.4186 118.993 -14.0792 119.409L-14.0936 119.472ZM-13.5491 103.007C-13.9377 103.251 -14.4385 103.403 -14.9595 103.351C-16.2692 103.252 -17.2464 102.129 -17.124 100.858C-17.0318 99.2801 -16.9008 97.6777 -16.7453 96.1142C-16.623 94.8429 -15.5018 93.8663 -14.1921 93.9654C-12.9213 94.089 -11.9441 95.2116 -12.042 96.5217C-12.1586 98.0608 -12.3141 99.6243 -12.3919 101.139C-12.438 101.928 -12.8885 102.591 -13.4714 102.958L-13.5491 103.007Z" fill="black"/>
</g>
<defs>
<clipPath id="clip0_14_194">
<rect width="226.778" height="344.92" fill="white" transform="translate(-71 120.738) rotate(-32.168)"/>
</clipPath>
</defs>
</svg>
