<svg width="361" height="751" viewBox="0 0 361 751" fill="none" xmlns="http://www.w3.org/2000/svg">
<path d="M355.615 750.755C354.619 750.755 353.872 750.01 353.872 749.017C353.872 748.024 354.619 747.278 355.615 747.278C356.777 747.278 357.939 747.278 359.101 747.278C360.014 747.278 360.927 748.024 360.927 749.017C360.927 750.01 360.18 750.838 359.184 750.838C358.022 750.838 356.777 750.838 355.615 750.838V750.755ZM346.735 750.59C346.735 750.59 346.735 750.59 346.652 750.59C345.49 750.59 344.245 750.424 343.083 750.341C342.087 750.341 341.34 749.431 341.423 748.437C341.423 747.444 342.336 746.782 343.332 746.782C344.494 746.782 345.656 746.947 346.818 746.947C347.814 746.947 348.561 747.858 348.478 748.769C348.478 749.679 347.648 750.424 346.735 750.424V750.59ZM334.368 749.596C334.368 749.596 334.202 749.596 334.119 749.596C332.957 749.431 331.713 749.265 330.551 749.1C329.555 748.934 328.891 748.106 329.057 747.113C329.223 746.12 330.053 745.457 331.049 745.623C332.211 745.788 333.372 745.954 334.534 746.037C335.53 746.12 336.194 747.03 336.111 748.024C336.028 748.934 335.198 749.596 334.368 749.596ZM322.085 747.692C322.002 747.692 321.836 747.692 321.753 747.692C320.591 747.444 319.429 747.196 318.267 747.03C317.271 746.865 316.69 745.871 316.856 744.961C317.022 743.967 318.018 743.388 318.931 743.553C320.093 743.802 321.255 744.05 322.417 744.216C323.413 744.381 323.994 745.292 323.828 746.285C323.662 747.113 322.915 747.692 322.085 747.692ZM309.968 744.961C309.802 744.961 309.636 744.961 309.553 744.961C308.391 744.63 307.229 744.381 306.067 744.05C305.154 743.802 304.573 742.808 304.822 741.898C305.071 740.987 306.067 740.408 306.98 740.656C308.142 740.987 309.221 741.318 310.383 741.567C311.296 741.815 311.876 742.808 311.628 743.719C311.379 744.547 310.715 745.043 309.885 745.043L309.968 744.961ZM298.016 741.401C297.85 741.401 297.601 741.401 297.435 741.318C296.273 740.904 295.194 740.573 294.032 740.159C293.119 739.828 292.621 738.835 292.953 737.924C293.285 737.014 294.281 736.517 295.194 736.848C296.273 737.262 297.435 737.593 298.514 738.007C299.427 738.338 299.925 739.332 299.593 740.242C299.344 740.987 298.68 741.484 297.933 741.484L298.016 741.401ZM286.397 737.014C286.148 737.014 285.982 737.014 285.733 736.848C284.654 736.434 283.492 735.938 282.413 735.441C281.5 735.027 281.085 734.034 281.5 733.123C281.915 732.213 282.911 731.799 283.824 732.213C284.903 732.709 285.982 733.123 287.061 733.537C287.974 733.868 288.389 734.944 288.057 735.855C287.808 736.517 287.144 736.931 286.397 736.931V737.014ZM275.026 731.964C274.777 731.964 274.528 731.964 274.279 731.799C273.2 731.302 272.121 730.723 271.042 730.226C270.13 729.812 269.798 728.736 270.296 727.825C270.711 726.915 271.789 726.584 272.702 727.08C273.781 727.577 274.777 728.156 275.856 728.653C276.769 729.067 277.101 730.143 276.686 731.054C276.354 731.716 275.773 732.047 275.109 732.047L275.026 731.964ZM264.071 726.087C263.739 726.087 263.49 726.087 263.158 725.839C262.162 725.259 261.083 724.68 260.087 724.017C259.257 723.521 259.008 722.445 259.506 721.617C260.004 720.789 261.083 720.541 261.913 721.037C262.909 721.617 263.905 722.196 264.901 722.776C265.731 723.272 266.063 724.349 265.565 725.176C265.233 725.756 264.652 726.087 263.988 726.087H264.071ZM253.53 719.547C253.198 719.547 252.866 719.465 252.534 719.216C251.538 718.554 250.542 717.892 249.547 717.229C248.717 716.65 248.551 715.574 249.132 714.746C249.713 713.918 250.791 713.753 251.621 714.332C252.617 714.994 253.53 715.657 254.526 716.319C255.356 716.898 255.522 717.974 255.024 718.802C254.692 719.299 254.111 719.547 253.53 719.547ZM243.405 712.345C242.99 712.345 242.658 712.263 242.326 712.014C241.413 711.269 240.417 710.524 239.504 709.779C238.757 709.2 238.591 708.041 239.255 707.296C239.836 706.551 240.998 706.385 241.745 707.048C242.658 707.793 243.571 708.538 244.484 709.2C245.231 709.779 245.397 710.938 244.816 711.683C244.484 712.097 243.903 712.345 243.405 712.345ZM233.86 704.481C233.445 704.481 233.03 704.316 232.698 704.067C231.785 703.24 230.955 702.495 230.042 701.667C229.296 701.005 229.296 699.846 229.96 699.183C230.623 698.438 231.785 698.438 232.449 699.101C233.279 699.928 234.192 700.673 235.022 701.419C235.769 702.081 235.852 703.157 235.188 703.902C234.856 704.316 234.358 704.481 233.86 704.481ZM224.814 695.955C224.316 695.955 223.901 695.79 223.569 695.458C222.739 694.631 221.909 693.72 221.079 692.892C220.415 692.147 220.415 691.071 221.079 690.409C221.826 689.747 222.905 689.747 223.569 690.409C224.399 691.237 225.229 692.064 225.976 692.975C226.64 693.637 226.64 694.796 225.976 695.458C225.644 695.79 225.146 695.955 224.731 695.955H224.814ZM216.431 686.767C215.933 686.767 215.435 686.518 215.103 686.104C214.356 685.194 213.526 684.283 212.779 683.373C212.198 682.628 212.281 681.469 213.028 680.889C213.775 680.31 214.937 680.392 215.518 681.137C216.265 682.048 217.012 682.959 217.759 683.869C218.423 684.614 218.34 685.69 217.593 686.353C217.261 686.601 216.846 686.767 216.431 686.767ZM208.713 677.081C208.132 677.081 207.634 676.833 207.302 676.336C206.555 675.343 205.891 674.432 205.227 673.439C204.646 672.611 204.895 671.535 205.642 670.956C206.472 670.376 207.551 670.624 208.132 671.37C208.796 672.363 209.46 673.273 210.206 674.184C210.787 675.012 210.621 676.088 209.791 676.667C209.46 676.916 209.128 676.999 208.713 676.999V677.081ZM201.741 666.734C201.16 666.734 200.579 666.403 200.247 665.906C199.583 664.913 199.002 663.837 198.421 662.843C197.923 662.015 198.172 660.939 199.002 660.443C199.832 659.946 200.911 660.194 201.409 661.022C201.99 662.015 202.654 663.009 203.235 664.002C203.733 664.83 203.484 665.906 202.654 666.403C202.322 666.568 202.073 666.651 201.741 666.651V666.734ZM195.599 655.972C194.935 655.972 194.354 655.641 194.022 655.062C193.441 653.986 192.943 652.91 192.362 651.916C191.947 651.006 192.362 650.012 193.192 649.516C194.105 649.102 195.101 649.516 195.599 650.343C196.097 651.42 196.678 652.413 197.176 653.489C197.591 654.317 197.259 655.393 196.429 655.89C196.18 656.055 195.848 656.055 195.599 656.055V655.972ZM190.204 644.797C189.54 644.797 188.877 644.383 188.545 643.721C188.047 642.645 187.632 641.569 187.134 640.41C186.802 639.499 187.134 638.506 188.13 638.092C189.042 637.761 190.038 638.092 190.453 639.085C190.868 640.162 191.366 641.238 191.864 642.314C192.279 643.224 191.864 644.218 190.951 644.632C190.702 644.714 190.453 644.797 190.204 644.797ZM185.64 633.291C184.893 633.291 184.229 632.877 183.98 632.132C183.565 630.973 183.233 629.897 182.818 628.738C182.486 627.827 182.984 626.834 183.98 626.503C184.893 626.172 185.889 626.668 186.221 627.662C186.553 628.738 186.968 629.897 187.383 630.973C187.715 631.884 187.217 632.877 186.304 633.208C186.138 633.208 185.889 633.291 185.723 633.291H185.64ZM181.905 621.453C181.158 621.453 180.411 620.957 180.162 620.129C179.83 618.97 179.498 617.811 179.249 616.652C179 615.741 179.581 614.748 180.494 614.5C181.407 614.251 182.403 614.831 182.652 615.742C182.984 616.9 183.233 617.977 183.565 619.135C183.814 620.046 183.233 621.039 182.32 621.288C182.154 621.288 181.988 621.288 181.822 621.288L181.905 621.453ZM179 609.45C178.17 609.45 177.423 608.871 177.257 608.043C177.008 606.884 176.759 605.725 176.593 604.566C176.427 603.573 177.091 602.662 178.004 602.497C179 602.331 179.913 602.993 180.079 603.904C180.328 605.063 180.494 606.222 180.743 607.381C180.909 608.374 180.328 609.285 179.332 609.45C179.249 609.45 179.083 609.45 179 609.45ZM176.925 597.199C176.012 597.199 175.265 596.537 175.182 595.709C175.016 594.55 174.85 593.308 174.767 592.149C174.684 591.156 175.348 590.328 176.344 590.163C177.34 590.08 178.17 590.742 178.336 591.735C178.502 592.894 178.585 594.053 178.751 595.212C178.917 596.206 178.17 597.033 177.257 597.199C177.257 597.199 177.091 597.199 177.008 597.199H176.925ZM175.597 584.865C174.684 584.865 173.854 584.12 173.854 583.209C173.854 582.05 173.688 580.808 173.605 579.65C173.605 578.656 174.269 577.828 175.265 577.828C176.178 577.828 177.091 578.491 177.091 579.484C177.091 580.643 177.257 581.802 177.34 582.961C177.34 583.954 176.676 584.782 175.68 584.865C175.68 584.865 175.68 584.865 175.597 584.865ZM175.182 572.448C174.186 572.448 173.439 571.703 173.439 570.709V569.882C173.439 568.971 173.439 568.06 173.439 567.067C173.439 566.074 174.269 565.246 175.265 565.329C176.261 565.329 177.008 566.156 177.008 567.15C177.008 568.06 177.008 568.971 177.008 569.882V570.627C177.008 571.62 176.261 572.365 175.265 572.448H175.182ZM175.514 560.114C175.514 560.114 175.514 560.114 175.431 560.114C174.435 560.114 173.688 559.203 173.771 558.21C173.771 557.051 173.937 555.809 174.02 554.65C174.02 553.657 174.933 552.995 175.929 552.995C176.925 552.995 177.672 553.905 177.589 554.898C177.506 556.057 177.423 557.216 177.34 558.375C177.34 559.286 176.51 560.031 175.597 560.031L175.514 560.114ZM194.188 552.001C193.192 552.001 192.445 551.256 192.445 550.263C192.445 549.269 193.192 548.442 194.188 548.442C195.35 548.442 196.512 548.442 197.674 548.359C198.67 548.359 199.5 549.104 199.5 550.014C199.5 551.008 198.753 551.836 197.84 551.836C196.678 551.836 195.433 551.918 194.271 551.918L194.188 552.001ZM185.308 551.836C185.308 551.836 185.308 551.836 185.225 551.836C184.063 551.836 182.818 551.67 181.656 551.587C180.66 551.504 179.996 550.677 180.079 549.683C180.162 548.69 180.992 548.028 181.988 548.111C183.15 548.193 184.312 548.276 185.474 548.359C186.47 548.359 187.217 549.269 187.134 550.263C187.134 551.173 186.304 551.918 185.391 551.918L185.308 551.836ZM206.555 551.173C205.642 551.173 204.895 550.511 204.812 549.6C204.729 548.607 205.393 547.779 206.389 547.614C207.551 547.448 208.713 547.283 209.874 547.117C210.87 546.952 211.783 547.614 211.866 548.607C212.032 549.6 211.368 550.511 210.372 550.594C209.211 550.759 207.966 550.925 206.804 551.091C206.804 551.091 206.638 551.091 206.555 551.091V551.173ZM172.941 550.428C172.858 550.428 172.775 550.428 172.609 550.428C171.447 550.263 170.285 550.014 169.04 549.766C168.045 549.601 167.464 548.607 167.63 547.697C167.796 546.703 168.791 546.124 169.704 546.289C170.866 546.538 172.028 546.703 173.19 546.952C174.186 547.117 174.767 548.028 174.684 549.021C174.518 549.849 173.771 550.511 172.941 550.511V550.428ZM218.838 549.021C218.008 549.021 217.344 548.442 217.095 547.614C216.846 546.62 217.427 545.71 218.423 545.462C219.585 545.213 220.664 544.882 221.826 544.634C222.739 544.385 223.735 544.965 223.984 545.875C224.233 546.786 223.652 547.779 222.739 548.028C221.577 548.359 220.415 548.607 219.253 548.938C219.087 548.938 219.004 548.938 218.838 548.938V549.021ZM160.824 547.779C160.658 547.779 160.492 547.779 160.326 547.779C159.164 547.448 158.002 547.117 156.84 546.786C155.927 546.538 155.346 545.544 155.678 544.551C156.01 543.558 156.923 543.061 157.919 543.392C158.998 543.723 160.16 544.054 161.322 544.385C162.235 544.634 162.816 545.627 162.567 546.538C162.318 547.365 161.654 547.862 160.824 547.862V547.779ZM176.676 547.779C176.676 547.779 176.51 547.779 176.427 547.779C175.431 547.614 174.767 546.786 174.933 545.793C175.099 544.634 175.265 543.392 175.431 542.233C175.597 541.24 176.51 540.578 177.423 540.743C178.419 540.909 179.083 541.819 178.917 542.73C178.751 543.889 178.585 545.048 178.419 546.207C178.336 547.117 177.506 547.779 176.676 547.779ZM230.789 545.544C230.042 545.544 229.379 545.13 229.13 544.385C228.798 543.475 229.296 542.481 230.208 542.15C231.287 541.736 232.366 541.323 233.528 540.909C234.441 540.578 235.437 540.991 235.852 541.902C236.184 542.813 235.769 543.806 234.856 544.22C233.694 544.634 232.615 545.048 231.453 545.462C231.287 545.462 231.038 545.544 230.872 545.544H230.789ZM149.038 543.972C148.872 543.972 148.623 543.972 148.457 543.889C147.296 543.475 146.217 543.061 145.138 542.564C144.225 542.233 143.81 541.157 144.142 540.246C144.474 539.336 145.553 538.922 146.466 539.253C147.545 539.667 148.623 540.081 149.702 540.495C150.615 540.826 151.113 541.819 150.781 542.813C150.532 543.558 149.868 543.972 149.121 543.972H149.038ZM242.243 540.743C241.579 540.743 240.915 540.412 240.666 539.75C240.251 538.839 240.666 537.846 241.496 537.349C242.575 536.852 243.571 536.273 244.65 535.776C245.48 535.28 246.559 535.611 247.057 536.521C247.555 537.349 247.223 538.425 246.31 538.922C245.231 539.501 244.152 539.998 243.073 540.578C242.824 540.66 242.575 540.743 242.326 540.743H242.243ZM137.585 539.087C137.336 539.087 137.087 539.088 136.838 538.922C135.759 538.425 134.68 537.846 133.601 537.349C132.688 536.935 132.356 535.859 132.854 534.949C133.269 534.038 134.348 533.707 135.261 534.204C136.34 534.7 137.336 535.28 138.415 535.776C139.328 536.19 139.66 537.266 139.245 538.094C138.913 538.756 138.332 539.087 137.668 539.087H137.585ZM178.668 535.528C178.585 535.528 178.419 535.528 178.336 535.528C177.34 535.362 176.759 534.369 176.925 533.458C177.174 532.3 177.423 531.141 177.672 529.982C177.921 528.988 178.834 528.409 179.747 528.657C180.743 528.906 181.324 529.816 181.075 530.727C180.826 531.886 180.577 533.045 180.328 534.121C180.162 534.949 179.415 535.528 178.585 535.528H178.668ZM253.032 534.617C252.451 534.617 251.87 534.369 251.538 533.79C251.04 532.962 251.206 531.886 252.036 531.306C253.032 530.644 253.945 530.064 254.941 529.319C255.771 528.74 256.85 528.988 257.431 529.733C258.012 530.561 257.763 531.637 257.016 532.217C256.02 532.879 255.024 533.541 254.028 534.204C253.696 534.369 253.364 534.452 253.032 534.452V534.617ZM126.547 533.376C126.215 533.376 125.966 533.376 125.634 533.127C124.638 532.548 123.559 531.886 122.563 531.306C121.733 530.81 121.484 529.733 121.982 528.906C122.48 528.078 123.559 527.829 124.389 528.326C125.385 528.906 126.381 529.568 127.377 530.147C128.206 530.644 128.538 531.72 128.04 532.548C127.709 533.127 127.128 533.458 126.464 533.458L126.547 533.376ZM262.992 527.25C262.494 527.25 261.996 527.002 261.664 526.671C261 525.926 261.083 524.849 261.83 524.187C262.743 523.442 263.573 522.697 264.403 521.869C265.15 521.207 266.229 521.29 266.893 521.952C267.557 522.697 267.474 523.773 266.81 524.436C265.897 525.263 264.984 526.091 264.071 526.836C263.739 527.084 263.324 527.25 262.909 527.25H262.992ZM116.089 526.671C115.757 526.671 115.425 526.588 115.093 526.339C114.097 525.677 113.101 525.015 112.188 524.27C111.358 523.691 111.192 522.614 111.773 521.787C112.354 520.959 113.433 520.793 114.263 521.373C115.176 522.035 116.172 522.697 117.168 523.359C117.998 523.939 118.164 525.015 117.666 525.843C117.334 526.339 116.753 526.588 116.172 526.588L116.089 526.671ZM181.573 523.442C181.407 523.442 181.241 523.442 181.075 523.442C180.162 523.194 179.581 522.2 179.83 521.29C180.162 520.131 180.494 518.972 180.826 517.813C181.075 516.903 182.071 516.323 183.067 516.571C183.98 516.82 184.561 517.813 184.312 518.806C183.98 519.965 183.648 521.042 183.316 522.2C183.067 523.028 182.403 523.525 181.573 523.525V523.442ZM106.13 519.303C105.715 519.303 105.383 519.138 105.051 518.889C104.138 518.144 103.225 517.399 102.312 516.654C101.565 515.992 101.482 514.916 102.063 514.171C102.727 513.426 103.806 513.343 104.553 513.923C105.466 514.668 106.379 515.413 107.291 516.158C108.038 516.737 108.204 517.896 107.54 518.641C107.208 519.055 106.711 519.303 106.13 519.303ZM271.872 518.558C271.457 518.558 271.042 518.393 270.711 518.144C269.964 517.482 269.881 516.406 270.544 515.661C271.208 514.916 271.872 514.171 272.453 513.426L272.785 513.012C273.366 512.267 274.528 512.101 275.275 512.764C276.022 513.343 276.188 514.502 275.524 515.247L275.192 515.661C274.528 516.489 273.864 517.234 273.2 517.979C272.868 518.393 272.37 518.558 271.872 518.558ZM185.225 511.605C185.059 511.605 184.81 511.605 184.644 511.522C183.731 511.191 183.233 510.197 183.565 509.287C183.98 508.128 184.395 507.052 184.81 505.893C185.142 504.982 186.138 504.486 187.134 504.817C188.047 505.148 188.545 506.141 188.213 507.052C187.798 508.128 187.383 509.287 187.051 510.363C186.802 511.108 186.138 511.522 185.391 511.522L185.225 511.605ZM96.668 511.191C96.253 511.191 95.8381 511.025 95.4231 510.694C94.5101 509.866 93.6802 509.038 92.8502 508.211C92.1032 507.548 92.1032 506.39 92.8502 505.727C93.5142 504.982 94.6761 504.982 95.3401 505.727C96.17 506.555 97 507.3 97.9129 508.128C98.6599 508.79 98.6599 509.949 97.9959 510.611C97.664 511.025 97.166 511.191 96.668 511.191ZM279.342 508.625C279.01 508.625 278.678 508.542 278.429 508.376C277.599 507.88 277.35 506.803 277.848 505.976C278.429 504.982 279.01 503.989 279.591 502.996C280.089 502.168 281.168 501.837 281.998 502.251C282.828 502.747 283.16 503.823 282.745 504.651C282.164 505.727 281.583 506.803 280.919 507.797C280.587 508.376 280.006 508.625 279.425 508.625H279.342ZM87.8704 502.499C87.3725 502.499 86.9575 502.333 86.5425 501.919C85.7125 501.092 84.8826 500.181 84.1356 499.27C83.4716 498.525 83.5546 497.449 84.2186 496.787C84.9656 496.125 86.0445 496.208 86.7085 496.87C87.4555 497.698 88.2854 498.608 89.1154 499.436C89.7793 500.181 89.7793 501.257 89.1154 501.919C88.7834 502.251 88.3684 502.416 87.8704 502.416V502.499ZM189.706 500.098C189.457 500.098 189.208 500.098 189.043 499.933C188.13 499.519 187.715 498.525 188.13 497.615C188.628 496.539 189.125 495.463 189.623 494.304C190.038 493.393 191.117 493.062 191.947 493.393C192.86 493.807 193.192 494.883 192.86 495.711C192.362 496.787 191.864 497.863 191.449 498.939C191.2 499.602 190.536 500.016 189.789 500.016L189.706 500.098ZM284.737 497.532C284.488 497.532 284.322 497.532 284.073 497.449C283.16 497.118 282.662 496.042 283.077 495.131C283.492 494.055 283.824 492.979 284.239 491.903C284.571 490.992 285.567 490.496 286.48 490.744C287.393 491.075 287.974 492.069 287.642 492.979C287.31 494.138 286.895 495.297 286.48 496.456C286.231 497.201 285.567 497.615 284.82 497.615L284.737 497.532ZM79.5708 493.228C79.0729 493.228 78.5749 492.979 78.2429 492.565C77.4959 491.655 76.749 490.744 76.002 489.834C75.421 489.089 75.504 487.93 76.251 487.35C76.998 486.771 78.1599 486.854 78.7409 487.599C79.4878 488.509 80.2348 489.42 80.9818 490.33C81.6457 491.075 81.4798 492.234 80.7328 492.814C80.4008 493.062 79.9858 493.228 79.5708 493.228ZM195.101 488.84C194.852 488.84 194.52 488.84 194.271 488.675C193.441 488.261 193.026 487.185 193.524 486.274C194.105 485.198 194.603 484.122 195.184 483.128C195.682 482.301 196.761 481.97 197.591 482.466C198.421 482.963 198.753 484.039 198.255 484.867C197.674 485.86 197.176 486.936 196.595 487.93C196.263 488.509 195.682 488.923 195.018 488.923L195.101 488.84ZM287.974 485.529C287.891 485.529 287.808 485.529 287.725 485.529C286.729 485.363 286.065 484.453 286.231 483.542C286.397 482.383 286.563 481.307 286.646 480.148C286.646 479.155 287.559 478.493 288.555 478.493C289.551 478.493 290.298 479.403 290.215 480.397C290.132 481.638 289.966 482.797 289.8 484.039C289.634 484.95 288.887 485.529 288.057 485.529H287.974ZM71.9352 483.46C71.3542 483.46 70.8563 483.211 70.5243 482.715C69.7773 481.721 69.1134 480.811 68.4494 479.817C67.8684 478.989 68.0344 477.913 68.8644 477.334C69.6943 476.754 70.7733 476.92 71.3542 477.748C72.0182 478.741 72.7652 479.652 73.4291 480.562C74.0101 481.39 73.8441 482.466 73.0142 483.046C72.6822 483.294 72.3502 483.377 71.9352 483.377V483.46ZM201.243 478.079C200.911 478.079 200.579 477.996 200.33 477.831C199.5 477.334 199.251 476.175 199.749 475.347C200.413 474.354 201.077 473.36 201.741 472.367C202.322 471.539 203.401 471.374 204.231 471.87C205.061 472.45 205.227 473.526 204.729 474.354C204.065 475.347 203.401 476.258 202.82 477.251C202.488 477.748 201.907 478.079 201.326 478.079H201.243ZM64.8806 473.278C64.2996 473.278 63.7186 473.029 63.3866 472.45C62.7227 471.456 62.0587 470.463 61.4777 469.47C60.9798 468.642 61.2287 467.566 62.0587 466.986C62.8887 466.49 63.9676 466.738 64.5486 467.566C65.2125 468.559 65.7935 469.553 66.4575 470.546C66.9555 471.374 66.7895 472.45 65.9595 473.029C65.6275 473.195 65.2955 473.278 64.9636 473.278H64.8806ZM288.14 473.195C287.227 473.195 286.48 472.533 286.397 471.622C286.231 470.463 286.065 469.387 285.816 468.311C285.567 467.317 286.231 466.407 287.144 466.159C288.057 465.91 289.053 466.572 289.302 467.483C289.551 468.642 289.8 469.884 289.966 471.125C290.049 472.119 289.385 472.947 288.389 473.112C288.389 473.112 288.223 473.112 288.14 473.112V473.195ZM208.464 467.98C208.049 467.98 207.717 467.814 207.385 467.566C206.638 466.986 206.472 465.827 207.136 465.082C207.883 464.172 208.63 463.178 209.46 462.268C210.123 461.523 211.202 461.44 211.949 462.102C212.696 462.765 212.779 463.841 212.115 464.586C211.368 465.496 210.621 466.324 209.874 467.235C209.543 467.649 209.045 467.897 208.464 467.897V467.98ZM58.3239 462.682C57.7429 462.682 57.1619 462.351 56.83 461.771C56.249 460.778 55.668 459.702 55.004 458.708C54.5061 457.881 54.8381 456.804 55.668 456.308C56.498 455.811 57.5769 456.142 58.0749 456.97C58.6559 457.963 59.2368 459.04 59.8178 460.033C60.3158 460.861 60.0668 461.937 59.1538 462.434C58.9049 462.599 58.5729 462.682 58.2409 462.682H58.3239ZM284.488 461.44C283.824 461.44 283.243 461.109 282.911 460.53C282.413 459.536 281.832 458.626 281.168 457.632C280.587 456.804 280.836 455.728 281.666 455.149C282.496 454.569 283.575 454.818 284.156 455.646C284.82 456.639 285.484 457.715 286.065 458.874C286.563 459.702 286.231 460.778 285.318 461.275C285.069 461.44 284.737 461.44 284.488 461.44ZM216.846 458.874C216.348 458.874 215.933 458.708 215.518 458.295C214.854 457.549 214.854 456.473 215.601 455.811C216.514 454.983 217.427 454.156 218.34 453.41C219.087 452.748 220.249 452.914 220.83 453.659C221.494 454.404 221.328 455.563 220.581 456.142C219.668 456.887 218.838 457.632 218.008 458.46C217.676 458.791 217.261 458.957 216.763 458.957L216.846 458.874ZM52.2652 451.838C51.6012 451.838 51.0202 451.507 50.6883 450.927C50.1073 449.851 49.6093 448.858 49.0283 447.781C48.6134 446.871 48.9453 445.878 49.7753 445.381C50.6883 444.967 51.6842 445.298 52.1822 446.126C52.6802 447.202 53.2611 448.195 53.8421 449.272C54.3401 450.099 53.9251 451.175 53.0951 451.672C52.8461 451.838 52.5142 451.838 52.2652 451.838ZM276.686 451.838C276.271 451.838 275.856 451.672 275.524 451.424C274.694 450.762 273.781 450.099 272.785 449.437C271.955 448.94 271.706 447.781 272.287 446.954C272.868 446.126 273.947 445.878 274.777 446.457C275.856 447.119 276.852 447.864 277.765 448.692C278.512 449.354 278.595 450.43 278.014 451.175C277.682 451.589 277.184 451.838 276.603 451.838H276.686ZM226.723 451.341C226.142 451.341 225.561 451.01 225.229 450.513C224.731 449.685 224.98 448.609 225.81 448.113C226.806 447.45 227.885 446.871 228.964 446.291C229.794 445.795 230.872 446.126 231.37 447.036C231.868 447.864 231.536 448.94 230.623 449.437C229.628 450.017 228.632 450.596 227.636 451.175C227.304 451.341 227.055 451.424 226.723 451.424V451.341ZM237.927 446.043C237.18 446.043 236.516 445.546 236.267 444.801C235.935 443.891 236.516 442.897 237.429 442.566C238.591 442.152 239.753 441.821 240.998 441.573C241.994 441.325 242.907 441.904 243.156 442.897C243.405 443.808 242.824 444.801 241.828 445.05C240.749 445.298 239.587 445.629 238.508 445.96C238.342 445.96 238.176 446.043 237.927 446.043ZM265.897 445.96C265.731 445.96 265.482 445.96 265.316 445.878C264.237 445.546 263.158 445.215 262.079 444.967C261.166 444.719 260.502 443.808 260.751 442.815C261 441.904 261.913 441.242 262.909 441.49C264.154 441.821 265.316 442.152 266.478 442.484C267.391 442.815 267.889 443.808 267.557 444.719C267.308 445.464 266.644 445.96 265.897 445.96ZM250.128 443.891C249.215 443.891 248.385 443.146 248.385 442.235C248.385 441.242 249.132 440.414 250.045 440.414C251.289 440.414 252.534 440.414 253.696 440.414C254.692 440.414 255.439 441.242 255.439 442.235C255.439 443.229 254.609 443.974 253.613 443.974C252.451 443.974 251.372 443.974 250.21 443.974C250.21 443.974 250.211 443.974 250.128 443.974V443.891ZM46.7044 440.745C46.0405 440.745 45.3765 440.414 45.1275 439.752C44.6295 438.676 44.1316 437.6 43.6336 436.523C43.2186 435.613 43.6336 434.62 44.4636 434.206C45.3765 433.792 46.3725 434.206 46.7874 435.033C47.2854 436.11 47.7834 437.186 48.2814 438.262C48.6964 439.172 48.2814 440.166 47.4514 440.662C47.2024 440.745 46.9534 440.828 46.7044 440.828V440.745ZM41.5587 429.487C40.8947 429.487 40.2308 429.073 39.8988 428.411C39.4008 427.335 38.9858 426.259 38.4878 425.1C38.0729 424.189 38.4879 423.196 39.4008 422.782C40.3138 422.368 41.3097 422.782 41.7247 423.693C42.2227 424.769 42.6376 425.845 43.1356 426.921C43.5506 427.832 43.1356 428.825 42.2227 429.239C41.9737 429.322 41.7247 429.404 41.5587 429.404V429.487ZM36.8279 417.981C36.081 417.981 35.417 417.567 35.168 416.822C34.753 415.746 34.3381 414.587 33.8401 413.511C33.5081 412.6 33.9231 411.607 34.836 411.193C35.749 410.862 36.7449 411.276 37.1599 412.186C37.5749 413.262 37.9899 414.421 38.4049 415.497C38.7368 416.408 38.3219 417.401 37.4089 417.815C37.1599 417.898 36.9939 417.898 36.7449 417.898L36.8279 417.981ZM32.5121 406.392C31.7652 406.392 31.1012 405.978 30.8522 405.233C30.4372 404.157 30.0223 402.998 29.6903 401.922C29.3583 401.011 29.8563 400.018 30.7692 399.686C31.6822 399.355 32.6781 399.852 33.0101 400.763C33.4251 401.839 33.7571 402.998 34.1721 404.074C34.504 404.984 34.0061 405.978 33.0931 406.309C32.9271 406.309 32.6781 406.392 32.5121 406.392ZM28.4453 394.72C27.6984 394.72 27.0344 394.223 26.7854 393.478C26.4534 392.319 26.0385 391.243 25.7065 390.084C25.3745 389.173 25.9555 388.18 26.8684 387.849C27.7814 387.518 28.7773 388.097 29.1093 389.008C29.4413 390.167 29.8563 391.243 30.1883 392.402C30.5202 393.312 30.0223 394.306 29.0263 394.637C28.8603 394.637 28.6943 394.72 28.4453 394.72ZM24.7105 382.882C23.9636 382.882 23.2166 382.385 23.0506 381.641C22.7186 380.482 22.3866 379.405 22.0547 378.247C21.8057 377.336 22.3036 376.343 23.2166 376.011C24.1296 375.763 25.1255 376.26 25.4575 377.17C25.7895 378.329 26.1215 379.405 26.4534 380.564C26.7024 381.475 26.2045 382.468 25.2915 382.799C25.1255 382.799 24.9595 382.799 24.7935 382.799L24.7105 382.882ZM21.2247 370.962C20.4777 370.962 19.7308 370.465 19.4818 369.637C19.1498 368.479 18.8178 367.32 18.5688 366.243C18.3198 365.333 18.9008 364.34 19.8138 364.091C20.7267 363.843 21.7227 364.422 21.9717 365.333C22.3036 366.492 22.5526 367.568 22.8846 368.727C23.1336 369.637 22.5526 370.631 21.6397 370.879C21.4737 370.879 21.3077 370.879 21.1417 370.879L21.2247 370.962ZM18.0708 358.959C17.2409 358.959 16.5769 358.462 16.3279 357.634C16.0789 356.475 15.747 355.317 15.498 354.158C15.249 353.247 15.83 352.254 16.8259 352.005C17.7389 351.757 18.7348 352.336 18.9838 353.33C19.2328 354.489 19.5648 355.648 19.8138 356.724C20.0628 357.634 19.4818 358.628 18.4858 358.876C18.3198 358.876 18.2368 358.876 18.0708 358.876V358.959ZM15.166 346.873C14.336 346.873 13.5891 346.294 13.4231 345.466C13.1741 344.307 12.9251 343.148 12.6761 341.989C12.4271 340.996 13.0911 340.085 14.004 339.92C15 339.671 15.913 340.333 16.0789 341.244C16.3279 342.403 16.5769 343.562 16.8259 344.721C17.0749 345.714 16.4109 346.625 15.498 346.873C15.332 346.873 15.249 346.873 15.083 346.873H15.166ZM12.5931 334.787C11.7632 334.787 11.0162 334.208 10.8502 333.38C10.6012 332.221 10.3522 331.062 10.1862 329.903C10.0202 328.91 10.6012 327.999 11.5972 327.834C12.5931 327.668 13.5061 328.248 13.6721 329.241C13.9211 330.4 14.087 331.559 14.336 332.718C14.502 333.711 13.9211 334.622 12.9251 334.787C12.8421 334.787 12.6761 334.787 12.5931 334.787ZM10.2692 322.619C9.43927 322.619 8.69231 322.039 8.52631 321.129C8.36032 319.97 8.11134 318.811 7.94534 317.652C7.77935 316.658 8.44332 315.748 9.43927 315.582C10.4352 315.417 11.3482 316.079 11.5142 317.072C11.6802 318.231 11.9291 319.39 12.0951 320.549C12.2611 321.542 11.5972 322.453 10.6842 322.619C10.6012 322.619 10.4352 322.619 10.3522 322.619H10.2692ZM8.27733 310.367C7.44737 310.367 6.61741 309.705 6.53441 308.877C6.36842 307.718 6.20243 306.559 6.03644 305.4C5.87044 304.407 6.53441 303.496 7.53036 303.414C8.52632 303.248 9.43927 303.91 9.52227 304.904C9.68826 306.063 9.85425 307.222 10.0202 308.38C10.1862 309.374 9.52227 310.284 8.52631 310.367C8.44332 310.367 8.36032 310.367 8.27733 310.367ZM6.53441 298.116C5.62146 298.116 4.87449 297.454 4.7915 296.543C4.6255 295.384 4.45951 294.225 4.37652 292.983C4.29352 291.99 4.95749 291.162 5.95344 290.997C6.94939 290.914 7.77935 291.576 7.94534 292.57C8.11134 293.728 8.19433 294.887 8.36032 296.046C8.52632 297.04 7.77935 297.867 6.86639 298.033C6.86639 298.033 6.7004 298.033 6.61741 298.033L6.53441 298.116ZM5.12348 285.782C4.21053 285.782 3.46356 285.119 3.38057 284.209C3.29757 283.05 3.13158 281.891 3.04858 280.649C2.96559 279.656 3.62956 278.828 4.62551 278.745C5.62146 278.663 6.45142 279.325 6.53441 280.318C6.61741 281.477 6.7834 282.636 6.86639 283.795C6.94939 284.788 6.28543 285.616 5.28947 285.699H5.12348V285.782ZM3.96154 273.447C3.04858 273.447 2.30162 272.785 2.21862 271.792C2.13563 270.633 2.05263 269.391 1.96964 268.232C1.96964 267.239 2.6336 266.411 3.62955 266.328C4.62551 266.328 5.45546 266.991 5.53846 267.984C5.62146 269.143 5.70445 270.302 5.78745 271.543C5.78745 272.537 5.12348 273.365 4.12753 273.447C4.12753 273.447 4.04453 273.447 3.96154 273.447ZM3.04858 261.03C2.13563 261.03 1.30567 260.285 1.30567 259.375C1.30567 258.216 1.13968 256.974 1.13968 255.815C1.13968 254.822 1.80364 253.994 2.7996 253.994C3.79555 253.994 4.62551 254.656 4.62551 255.65C4.62551 256.809 4.7085 257.968 4.7915 259.209C4.7915 260.203 4.12753 261.03 3.13158 261.113C3.13158 261.113 3.13158 261.113 3.04858 261.113V261.03ZM2.55061 248.696C1.63765 248.696 0.807691 247.951 0.807691 246.958C0.807691 245.799 0.807693 244.557 0.724697 243.398C0.724697 242.405 1.47166 241.577 2.46761 241.577C3.46356 241.577 4.29352 242.322 4.29352 243.316C4.29352 244.475 4.29352 245.633 4.37652 246.875C4.37652 247.868 3.62955 248.696 2.6336 248.696H2.55061ZM2.21862 236.279C1.22267 236.279 0.475708 235.534 0.475708 234.541C0.475708 233.382 0.475708 232.14 0.475708 230.981C0.475708 229.988 1.22267 229.243 2.21862 229.243C3.21457 229.243 3.96154 230.071 3.96154 230.981C3.96154 232.14 3.96154 233.299 3.96154 234.541C3.96154 235.534 3.21457 236.279 2.21862 236.362V236.279ZM2.21862 223.862C1.22267 223.862 0.475708 223.035 0.475708 222.041C0.475708 220.882 0.475708 219.641 0.475708 218.482C0.475708 217.488 1.30567 216.826 2.30162 216.743C3.29757 216.743 4.04453 217.571 4.04453 218.564C4.04453 219.723 4.04453 220.882 4.04453 222.124C4.04453 223.117 3.21457 223.862 2.30162 223.862H2.21862ZM2.55061 211.445C1.55466 211.445 0.807691 210.618 0.807691 209.624C0.807691 208.465 0.890688 207.224 0.973684 206.065C0.973684 205.071 1.88664 204.326 2.7996 204.409C3.79555 204.409 4.54251 205.237 4.45951 206.23C4.45951 207.389 4.37652 208.548 4.29352 209.79C4.29352 210.783 3.46356 211.528 2.55061 211.528V211.445ZM3.13158 199.111C3.13158 199.111 3.13158 199.111 3.04858 199.111C2.05263 199.111 1.30567 198.201 1.38866 197.207C1.38866 196.048 1.55465 194.807 1.63765 193.648C1.63765 192.654 2.55061 191.909 3.54656 191.992C4.54251 191.992 5.28947 192.903 5.20648 193.896C5.20648 195.055 5.04048 196.214 4.95749 197.456C4.95749 198.366 4.12753 199.111 3.21458 199.111H3.13158ZM3.96154 186.694C3.96154 186.694 3.87854 186.694 3.79555 186.694C2.7996 186.694 2.05263 185.784 2.13563 184.79C2.21862 183.631 2.30162 182.39 2.46761 181.231C2.55061 180.237 3.46356 179.575 4.37652 179.658C5.37247 179.741 6.03644 180.569 5.95344 181.562C5.87044 182.721 5.78745 183.88 5.62146 185.121C5.62146 186.032 4.7915 186.777 3.87854 186.777L3.96154 186.694ZM5.12348 174.36C5.12348 174.36 5.04048 174.36 4.95749 174.36C3.96154 174.277 3.29757 173.367 3.38057 172.456C3.46356 171.297 3.62956 170.138 3.79555 168.897C3.87854 167.903 4.7915 167.241 5.78745 167.324C6.7834 167.407 7.44737 168.317 7.36437 169.311C7.19838 170.469 7.11538 171.628 6.94939 172.787C6.8664 173.698 6.11943 174.36 5.20648 174.36H5.12348ZM6.53441 162.026C6.53441 162.026 6.36842 162.026 6.28543 162.026C5.28947 161.86 4.62551 161.033 4.7085 160.039C4.87449 158.88 5.04048 157.721 5.20648 156.48C5.37247 155.486 6.20243 154.824 7.19838 154.99C8.19433 155.155 8.8583 155.983 8.69231 156.976C8.52631 158.135 8.36032 159.294 8.19433 160.453C8.11134 161.364 7.28137 162.026 6.45142 162.026H6.53441ZM8.27733 149.775C8.19433 149.775 8.11134 149.775 8.02834 149.775C7.03239 149.609 6.36842 148.698 6.53441 147.788C6.7004 146.629 6.8664 145.47 7.11539 144.311C7.28138 143.318 8.19433 142.655 9.10729 142.821C10.1032 142.987 10.7672 143.897 10.6012 144.808C10.4352 145.967 10.2692 147.126 10.0202 148.285C9.85425 149.195 9.10729 149.775 8.27733 149.775ZM10.2692 137.523C10.1862 137.523 10.1032 137.523 9.93725 137.523C8.94129 137.358 8.36032 136.447 8.52631 135.454C8.69231 134.295 8.9413 133.136 9.19028 131.977C9.35628 130.984 10.2692 130.404 11.2652 130.57C12.2611 130.735 12.8421 131.646 12.6761 132.639C12.4271 133.798 12.2611 134.957 12.0951 136.116C11.9291 136.944 11.1822 137.606 10.3522 137.606L10.2692 137.523ZM12.5101 125.355C12.4271 125.355 12.2611 125.355 12.1781 125.355C11.1822 125.189 10.6012 124.196 10.7672 123.285C11.0162 122.126 11.2652 120.967 11.5142 119.808C11.6802 118.815 12.6761 118.235 13.5891 118.401C14.585 118.567 15.166 119.56 15 120.471C14.751 121.629 14.502 122.788 14.336 123.947C14.17 124.775 13.4231 125.355 12.5931 125.355H12.5101ZM15.083 113.186C14.917 113.186 14.834 113.186 14.668 113.186C13.6721 112.938 13.0911 112.027 13.3401 111.034C13.5891 109.875 13.8381 108.716 14.087 107.557C14.336 106.564 15.249 105.984 16.2449 106.232C17.2409 106.481 17.8219 107.391 17.5729 108.385C17.3239 109.544 17.0749 110.703 16.8259 111.861C16.6599 112.689 15.913 113.269 15.083 113.269V113.186ZM17.9049 101.1C17.7389 101.1 17.6559 101.1 17.4899 101.1C16.5769 100.852 15.9959 99.9411 16.1619 98.9478C16.4109 97.7889 16.7429 96.63 16.9919 95.471C17.2409 94.5605 18.2368 93.981 19.1498 94.2293C20.0628 94.4777 20.6437 95.4711 20.3947 96.3816C20.0628 97.5405 19.8138 98.6995 19.5648 99.7756C19.3988 100.603 18.6518 101.1 17.8219 101.1H17.9049ZM21.0587 89.097C20.8927 89.097 20.7267 89.097 20.5607 89.097C19.6478 88.8487 19.0668 87.8553 19.3158 86.9447C19.6478 85.7858 19.9798 84.6269 20.2287 83.5508C20.4777 82.6402 21.4737 82.0607 22.3866 82.3091C23.2996 82.5574 23.8806 83.5508 23.6316 84.4613C23.2996 85.6203 22.9676 86.6964 22.7186 87.8553C22.4696 88.6831 21.8057 89.1798 20.9757 89.1798L21.0587 89.097ZM24.4615 77.1767C24.2955 77.1767 24.1296 77.1767 23.9636 77.1767C23.0506 76.9284 22.4696 75.935 22.8016 74.9417C23.1336 73.7828 23.4656 72.7066 23.7976 71.5477C24.0466 70.6371 25.0425 70.0577 26.0385 70.3888C26.9514 70.6371 27.5324 71.6305 27.2004 72.6238C26.8684 73.7828 26.5364 74.8589 26.2045 76.0178C25.9555 76.7628 25.2915 77.2595 24.5445 77.2595L24.4615 77.1767ZM28.1134 65.3392C27.9474 65.3392 27.7814 65.3392 27.5324 65.2565C26.6194 64.9253 26.1215 63.932 26.3704 63.0214C26.7024 61.8625 27.1174 60.7864 27.4494 59.6274C27.7814 58.7169 28.7773 58.2202 29.6903 58.4685C30.6032 58.7996 31.1012 59.793 30.8522 60.7036C30.5202 61.8625 30.1053 62.9386 29.7733 64.0975C29.5243 64.8426 28.8603 65.3392 28.1134 65.3392ZM32.0972 53.5845C31.9312 53.5845 31.6822 53.5845 31.5162 53.5017C30.6032 53.1706 30.1053 52.1773 30.4372 51.2667C30.8522 50.1078 31.2672 49.0316 31.5992 47.9555C31.9312 47.0449 32.9271 46.5482 33.8401 46.8794C34.753 47.2105 35.251 48.2038 34.919 49.1144C34.504 50.1905 34.0891 51.3495 33.7571 52.4256C33.5081 53.1706 32.8441 53.5845 32.0972 53.5845ZM36.33 41.9954C36.081 41.9954 35.915 41.9954 35.666 41.9126C34.753 41.5815 34.2551 40.5881 34.67 39.5947C35.085 38.5186 35.5 37.3597 35.915 36.2836C36.247 35.373 37.3259 34.9591 38.2389 35.2902C39.1518 35.6213 39.6498 36.6975 39.2348 37.608C38.8198 38.6842 38.4049 39.8431 37.9899 40.9192C37.7409 41.6642 37.0769 42.0781 36.33 42.0781V41.9954ZM40.8947 30.4062C40.6457 30.4062 40.4798 30.4062 40.2308 30.2406C39.3178 29.9095 38.9028 28.8334 39.2348 27.9228C39.6498 26.8467 40.1478 25.6877 40.5627 24.6116C40.9777 23.701 41.9737 23.2871 42.8866 23.6183C43.7996 24.0322 44.2146 25.0255 43.8826 25.9361C43.4676 27.0122 42.9696 28.0884 42.5546 29.1645C42.3057 29.8267 41.6417 30.2406 40.8947 30.2406V30.4062ZM45.7085 18.9826C45.4595 18.9826 45.2105 18.9826 45.0445 18.817C44.1316 18.4031 43.7166 17.4098 44.1316 16.4992C44.6296 15.4231 45.0445 14.3469 45.5425 13.2708C45.9575 12.3602 46.9534 11.9463 47.8664 12.3602C48.7793 12.7741 49.1943 13.7675 48.7793 14.678C48.2814 15.7542 47.8664 16.8303 47.3684 17.9065C47.1194 18.5687 46.4555 18.9826 45.7085 18.9826ZM50.7712 7.64177C50.5223 7.64177 50.2733 7.64177 50.0243 7.47621C49.1113 7.06232 48.7793 5.98618 49.1943 5.15838C49.6923 4.08225 50.1903 3.00611 50.6883 1.92997C51.1032 1.0194 52.1822 0.688278 53.0121 1.10218C53.9251 1.51607 54.2571 2.59221 53.8421 3.42001C53.3441 4.49614 52.8461 5.57228 52.3482 6.64842C52.0162 7.31066 51.4352 7.64177 50.7712 7.64177Z" fill="black"/>
</svg>
