<svg width="305" height="557" viewBox="0 0 305 557" fill="none" xmlns="http://www.w3.org/2000/svg">
<path d="M269.711 556.018C269.308 556.018 268.904 555.883 268.501 555.614C267.56 554.942 267.359 553.665 268.031 552.724C268.837 551.581 269.577 550.506 270.383 549.363C271.055 548.422 272.332 548.153 273.273 548.826C274.214 549.498 274.483 550.775 273.811 551.716C273.004 552.858 272.198 554.001 271.391 555.144C270.988 555.682 270.383 556.018 269.711 556.018ZM277.574 543.852C277.238 543.852 276.835 543.784 276.499 543.583C275.491 542.978 275.222 541.701 275.76 540.76C276.432 539.55 277.104 538.407 277.776 537.197C278.313 536.189 279.59 535.853 280.598 536.391C281.606 536.928 281.943 538.205 281.405 539.214C280.733 540.423 279.994 541.633 279.321 542.843C278.918 543.515 278.246 543.852 277.507 543.852H277.574ZM284.429 531.08C284.16 531.08 283.824 531.08 283.555 530.879C282.547 530.408 282.077 529.131 282.615 528.123C283.219 526.913 283.757 525.636 284.362 524.426C284.832 523.418 286.042 522.947 287.117 523.418C288.126 523.888 288.596 525.098 288.126 526.174C287.521 527.451 286.983 528.728 286.378 530.005C286.042 530.744 285.303 531.148 284.496 531.148L284.429 531.08ZM290.209 517.772C289.94 517.772 289.738 517.772 289.47 517.637C288.394 517.234 287.857 516.024 288.26 514.949C288.73 513.671 289.201 512.394 289.671 511.117C290.075 510.042 291.217 509.504 292.292 509.84C293.368 510.243 293.905 511.386 293.569 512.462C293.099 513.806 292.628 515.083 292.091 516.36C291.755 517.167 291.015 517.704 290.142 517.704L290.209 517.772ZM294.846 504.06C294.645 504.06 294.443 504.06 294.241 503.992C293.166 503.656 292.494 502.514 292.83 501.438C293.233 500.161 293.569 498.817 293.972 497.472C294.241 496.397 295.384 495.725 296.526 495.994C297.602 496.262 298.274 497.405 298.005 498.548C297.669 499.892 297.266 501.236 296.862 502.581C296.594 503.455 295.787 504.06 294.846 504.06ZM298.408 489.944C298.274 489.944 298.139 489.944 298.005 489.944C296.862 489.675 296.19 488.6 296.392 487.524C296.661 486.18 296.93 484.836 297.198 483.491C297.4 482.349 298.475 481.609 299.618 481.811C300.76 482.013 301.5 483.088 301.298 484.231C301.029 485.575 300.76 486.987 300.492 488.331C300.29 489.272 299.416 489.944 298.475 489.944H298.408ZM300.828 475.694C300.76 475.694 300.626 475.694 300.559 475.694C299.416 475.56 298.61 474.484 298.744 473.409C298.946 472.065 299.08 470.72 299.215 469.309C299.349 468.166 300.357 467.36 301.5 467.494C302.642 467.628 303.449 468.637 303.314 469.779C303.18 471.191 302.978 472.535 302.844 473.947C302.709 475.022 301.836 475.762 300.76 475.762L300.828 475.694ZM302.104 461.243C302.104 461.243 302.037 461.243 301.97 461.243C300.828 461.243 299.954 460.235 300.021 459.092C300.021 457.748 300.155 456.336 300.155 454.992C300.155 453.849 301.231 452.975 302.306 452.975C303.449 452.975 304.322 453.984 304.322 455.126C304.322 456.538 304.255 457.949 304.188 459.294C304.188 460.369 303.247 461.243 302.104 461.243ZM302.239 446.724C301.096 446.724 300.223 445.85 300.155 444.708C300.155 443.363 300.021 441.952 299.954 440.607C299.954 439.465 300.76 438.457 301.903 438.457C303.045 438.457 304.053 439.263 304.053 440.406C304.121 441.817 304.188 443.229 304.255 444.573C304.255 445.716 303.381 446.657 302.239 446.724ZM301.164 432.273C300.155 432.273 299.215 431.466 299.08 430.458C298.946 429.114 298.744 427.769 298.543 426.425C298.408 425.282 299.147 424.274 300.29 424.072C301.432 423.938 302.441 424.677 302.642 425.82C302.844 427.231 302.978 428.576 303.18 429.987C303.314 431.13 302.508 432.138 301.365 432.273C301.298 432.273 301.231 432.273 301.096 432.273H301.164ZM298.879 417.956C297.938 417.956 297.064 417.283 296.862 416.275C296.594 414.931 296.325 413.587 295.989 412.31C295.72 411.167 296.459 410.091 297.534 409.822C298.677 409.554 299.752 410.293 300.021 411.368C300.357 412.713 300.626 414.124 300.895 415.469C301.096 416.611 300.357 417.687 299.282 417.888C299.147 417.888 299.013 417.888 298.879 417.888V417.956ZM295.451 403.907C294.577 403.907 293.704 403.303 293.435 402.429C293.032 401.152 292.628 399.807 292.225 398.53C291.889 397.455 292.494 396.245 293.569 395.909C294.645 395.573 295.854 396.178 296.19 397.253C296.594 398.597 296.997 399.942 297.4 401.286C297.736 402.361 297.064 403.504 295.989 403.84C295.787 403.84 295.585 403.907 295.384 403.907H295.451ZM290.747 390.128C289.94 390.128 289.134 389.658 288.798 388.784C288.327 387.507 287.79 386.23 287.252 385.02C286.849 383.944 287.252 382.734 288.394 382.331C289.47 381.928 290.679 382.331 291.083 383.474C291.62 384.751 292.158 386.028 292.628 387.372C293.032 388.448 292.494 389.658 291.419 390.061C291.15 390.128 290.948 390.195 290.679 390.195L290.747 390.128ZM285.034 376.887C284.295 376.887 283.555 376.483 283.152 375.744C282.547 374.534 281.943 373.257 281.338 372.047C280.8 371.039 281.203 369.762 282.279 369.291C283.287 368.753 284.564 369.157 285.034 370.232C285.639 371.442 286.311 372.719 286.916 373.996C287.386 375.005 286.916 376.282 285.975 376.752C285.706 376.887 285.37 376.954 285.101 376.954L285.034 376.887ZM278.246 364.048C277.507 364.048 276.835 363.645 276.432 363.04C275.76 361.83 275.087 360.687 274.348 359.478C273.743 358.469 274.079 357.192 275.087 356.655C276.096 356.05 277.372 356.386 277.91 357.394C278.649 358.604 279.321 359.814 280.061 361.024C280.598 362.032 280.262 363.309 279.321 363.847C278.985 364.048 278.649 364.116 278.313 364.116L278.246 364.048ZM270.652 351.681C269.98 351.681 269.308 351.344 268.904 350.739C268.165 349.597 267.359 348.454 266.619 347.311C265.947 346.37 266.216 345.093 267.157 344.421C268.098 343.749 269.375 344.018 270.047 344.959C270.853 346.102 271.66 347.244 272.399 348.387C273.004 349.328 272.802 350.605 271.794 351.277C271.458 351.479 271.055 351.613 270.652 351.613V351.681ZM262.184 339.918C261.579 339.918 260.907 339.649 260.504 339.111C259.697 338.036 258.824 336.96 258.017 335.885C257.345 335.011 257.479 333.667 258.353 332.994C259.227 332.255 260.571 332.457 261.243 333.331C262.117 334.406 262.923 335.549 263.797 336.624C264.469 337.565 264.334 338.842 263.394 339.514C262.99 339.783 262.587 339.918 262.117 339.918H262.184ZM253.111 328.625C252.506 328.625 251.968 328.357 251.565 327.886C250.692 326.811 249.751 325.802 248.877 324.794C248.138 323.92 248.205 322.643 249.079 321.904C249.952 321.164 251.229 321.232 251.968 322.105C252.909 323.181 253.783 324.189 254.724 325.265C255.463 326.138 255.329 327.415 254.455 328.155C254.052 328.491 253.581 328.625 253.111 328.625ZM243.433 317.804C242.896 317.804 242.358 317.602 241.955 317.131C241.014 316.123 240.073 315.115 239.132 314.174C238.326 313.367 238.393 312.023 239.132 311.216C239.938 310.41 241.283 310.477 242.089 311.216C243.03 312.225 244.038 313.233 244.979 314.241C245.785 315.048 245.718 316.392 244.912 317.199C244.509 317.602 243.971 317.736 243.5 317.736L243.433 317.804ZM233.285 307.452C232.747 307.452 232.277 307.251 231.874 306.847C230.866 305.906 229.925 304.965 228.917 303.957C228.11 303.15 228.043 301.873 228.849 301C229.656 300.193 230.933 300.126 231.807 300.932C232.815 301.873 233.823 302.882 234.831 303.823C235.637 304.629 235.637 305.906 234.831 306.78C234.428 307.183 233.89 307.385 233.352 307.385L233.285 307.452ZM222.734 297.504C222.263 297.504 221.726 297.303 221.322 296.967C220.314 296.026 219.306 295.152 218.231 294.211C217.357 293.471 217.29 292.127 218.029 291.32C218.768 290.447 220.113 290.379 220.919 291.119C221.927 292.06 223.002 292.934 224.011 293.875C224.884 294.614 224.951 295.958 224.145 296.765C223.742 297.235 223.204 297.437 222.599 297.437L222.734 297.504ZM211.779 287.96C211.309 287.96 210.838 287.825 210.435 287.489C209.36 286.615 208.351 285.741 207.276 284.868C206.402 284.128 206.268 282.851 207.007 281.977C207.747 281.104 209.023 280.969 209.897 281.709C210.972 282.582 212.048 283.456 213.123 284.397C213.997 285.137 214.131 286.414 213.392 287.287C212.989 287.758 212.384 288.027 211.779 288.027V287.96ZM200.555 278.818C200.085 278.818 199.682 278.684 199.279 278.348L196.053 275.793C195.179 275.121 194.977 273.777 195.717 272.903C196.389 272.029 197.733 271.828 198.606 272.567L201.9 275.121C202.773 275.861 202.975 277.138 202.236 278.012C201.832 278.549 201.228 278.818 200.623 278.818H200.555ZM189.063 269.946C188.66 269.946 188.189 269.811 187.853 269.542L184.56 267.055C183.619 266.383 183.485 265.106 184.157 264.165C184.829 263.224 186.106 263.09 187.047 263.762L190.34 266.249C191.281 266.921 191.415 268.265 190.743 269.139C190.34 269.677 189.735 269.946 189.063 269.946ZM177.436 261.342C177.033 261.342 176.563 261.208 176.227 260.939L172.866 258.519C171.926 257.847 171.724 256.57 172.396 255.629C173.068 254.688 174.345 254.486 175.286 255.158L178.646 257.578C179.587 258.25 179.789 259.527 179.117 260.468C178.713 261.006 178.109 261.342 177.436 261.342ZM165.608 252.94C165.205 252.94 164.802 252.806 164.398 252.537L161.038 250.184C160.097 249.512 159.896 248.235 160.568 247.294C161.24 246.353 162.517 246.151 163.458 246.823L166.818 249.243C167.759 249.915 167.96 251.192 167.288 252.133C166.885 252.738 166.213 253.007 165.608 253.007V252.94ZM153.713 244.605C153.309 244.605 152.906 244.471 152.503 244.202L149.075 241.849C148.134 241.177 147.933 239.9 148.538 238.959C149.21 238.018 150.487 237.749 151.428 238.421L154.855 240.774C155.796 241.446 155.998 242.723 155.393 243.664C154.989 244.269 154.317 244.538 153.713 244.538V244.605ZM141.817 236.338C141.414 236.338 141.011 236.203 140.675 236.002L137.247 233.649C136.306 232.977 136.104 231.7 136.709 230.759C137.381 229.818 138.658 229.549 139.599 230.221L143.027 232.574C143.968 233.246 144.236 234.523 143.564 235.464C143.161 236.069 142.489 236.338 141.884 236.338H141.817ZM129.921 228.07C129.518 228.07 129.115 227.936 128.712 227.667L125.284 225.314C124.343 224.642 124.142 223.365 124.747 222.424C125.419 221.483 126.696 221.281 127.636 221.886L130.997 224.239C131.938 224.911 132.139 226.188 131.534 227.129C131.131 227.734 130.459 228.003 129.854 228.003L129.921 228.07ZM118.026 219.735C117.623 219.735 117.219 219.601 116.816 219.332L113.456 216.912C112.515 216.24 112.313 214.963 112.985 214.022C113.658 213.081 114.934 212.879 115.875 213.551L119.236 215.971C120.177 216.643 120.378 217.92 119.706 218.861C119.303 219.399 118.631 219.735 118.026 219.735ZM106.265 211.266C105.862 211.266 105.391 211.132 105.055 210.863C103.913 210.056 102.837 209.249 101.695 208.376C100.754 207.704 100.552 206.426 101.292 205.485C101.964 204.544 103.241 204.343 104.181 205.082C105.257 205.889 106.399 206.695 107.542 207.502C108.483 208.174 108.684 209.451 108.012 210.392C107.609 210.93 107.004 211.266 106.332 211.266H106.265ZM94.6381 202.595C94.1676 202.595 93.7644 202.461 93.3611 202.192C92.2858 201.318 91.1433 200.511 90.068 199.638C89.1943 198.965 88.9927 197.621 89.6648 196.747C90.3369 195.873 91.681 195.672 92.5547 196.344C93.63 197.218 94.7053 198.024 95.8478 198.831C96.7887 199.503 96.9231 200.847 96.251 201.721C95.8478 202.259 95.2429 202.528 94.5709 202.528L94.6381 202.595ZM83.2802 193.655C82.8097 193.655 82.3393 193.521 82.0033 193.185C80.9279 192.311 79.8526 191.437 78.7773 190.563C77.9037 189.824 77.7692 188.547 78.5085 187.673C79.2478 186.799 80.5247 186.665 81.3984 187.404C82.4737 188.278 83.549 189.152 84.6243 190.026C85.498 190.765 85.6324 192.042 84.9603 192.916C84.5571 193.454 83.9522 193.655 83.3474 193.655H83.2802ZM72.0567 184.38C71.5862 184.38 71.1158 184.245 70.7126 183.842C69.6373 182.901 68.6292 182.027 67.5539 181.086C66.6802 180.347 66.613 179.002 67.4194 178.128C68.1587 177.255 69.5028 177.187 70.3765 177.994C71.3846 178.935 72.3927 179.809 73.468 180.683C74.3417 181.422 74.4089 182.766 73.6696 183.573C73.2664 184.043 72.6616 184.312 72.1239 184.312L72.0567 184.38ZM61.5725 174.364C61.0348 174.364 60.43 174.163 60.0267 173.692C59.0858 172.617 58.1449 171.608 57.2041 170.466C56.4648 169.592 56.5992 168.315 57.4729 167.575C58.3466 166.836 59.6235 166.971 60.3628 167.844C61.2364 168.853 62.1101 169.861 63.051 170.869C63.8575 171.743 63.7903 173.02 62.9166 173.827C62.5134 174.163 62.0429 174.364 61.5053 174.364H61.5725ZM52.9028 162.803C52.1636 162.803 51.4915 162.467 51.0883 161.795C50.9539 161.526 50.7522 161.257 50.6178 160.988C50.0802 159.98 49.5425 158.972 49.0721 157.964C48.6016 156.955 49.0721 155.678 50.0802 155.208C51.1555 154.737 52.3652 155.208 52.8356 156.216C53.3061 157.157 53.7765 158.098 54.247 158.972L54.6502 159.711C55.2551 160.719 54.919 161.997 53.9109 162.534C53.5749 162.736 53.2389 162.803 52.9028 162.803ZM47.7951 149.293C46.8543 149.293 45.9806 148.621 45.7789 147.612C45.5101 146.201 45.3085 144.722 45.1741 143.31C45.0397 142.168 45.9134 141.16 47.0559 141.092C48.1984 141.025 49.2065 141.832 49.2737 142.974C49.4081 144.251 49.6097 145.529 49.8113 146.873C50.013 148.016 49.3409 149.091 48.1984 149.293C48.064 149.293 47.9296 149.293 47.7951 149.293ZM73.4008 135.917C73.2664 135.917 73.132 135.917 72.9304 135.917C71.5863 135.648 70.1749 135.177 68.6964 134.707C67.6211 134.303 67.0834 133.161 67.4194 132.085C67.8227 131.01 68.9652 130.472 70.0405 130.808C71.3846 131.279 72.5943 131.682 73.7369 131.884C74.8794 132.153 75.5514 133.228 75.2826 134.371C75.081 135.312 74.2073 135.984 73.2664 135.984L73.4008 135.917ZM47.7951 134.908C47.6607 134.908 47.4591 134.908 47.3247 134.908C46.1822 134.64 45.5101 133.564 45.7789 132.421C46.115 130.943 46.5182 129.531 47.0559 128.187C47.4591 127.111 48.6688 126.574 49.7441 126.977C50.8194 127.38 51.3571 128.59 50.9538 129.666C50.4834 130.875 50.1474 132.085 49.8113 133.362C49.6097 134.303 48.736 134.976 47.7951 134.976V134.908ZM83.3474 134.572C82.7425 134.572 82.1377 134.303 81.6672 133.766C80.9952 132.825 81.1296 131.548 82.0704 130.875C82.2049 130.808 82.2721 130.674 82.4065 130.607C83.0786 130.002 83.549 129.329 83.8178 128.523C84.2211 127.447 85.4308 126.91 86.5061 127.313C87.5814 127.716 88.119 128.926 87.7158 130.002C87.1782 131.413 86.3045 132.69 85.162 133.766C84.9603 133.9 84.7587 134.102 84.6243 134.236C84.2211 134.505 83.8178 134.64 83.3474 134.64V134.572ZM59.8923 130.674C59.5563 130.674 59.2875 130.674 59.0186 130.472C57.7417 129.867 56.4648 129.195 55.2551 128.523C54.247 127.985 53.8437 126.708 54.4486 125.7C54.9862 124.692 56.2632 124.288 57.2713 124.893C58.481 125.565 59.6907 126.17 60.9004 126.775C61.9085 127.246 62.379 128.523 61.8413 129.531C61.5053 130.271 60.766 130.674 59.9595 130.674H59.8923ZM47.3247 123.414C46.9215 123.414 46.5182 123.28 46.1822 123.078C45.0397 122.272 43.8972 121.465 42.7547 120.659C41.8138 119.986 41.6122 118.709 42.3514 117.768C43.0235 116.827 44.3004 116.626 45.2413 117.365C46.3166 118.172 47.4591 118.978 48.5344 119.718C49.4753 120.39 49.7441 121.667 49.0721 122.608C48.6688 123.213 47.9968 123.482 47.3247 123.482V123.414ZM54.6502 122.406C54.1126 122.406 53.5749 122.205 53.1717 121.801C52.3652 120.995 52.3652 119.65 53.1717 118.844C54.247 117.836 55.3895 116.827 56.5992 115.953C57.5401 115.281 58.817 115.483 59.4891 116.424C60.1611 117.365 59.9595 118.642 59.0186 119.314C58.0105 120.054 57.0024 120.86 56.1288 121.734C55.7255 122.137 55.1879 122.339 54.6502 122.339V122.406ZM83.885 121.532C83.213 121.532 82.6081 121.196 82.2049 120.659C81.5328 119.65 80.7263 118.777 79.7854 118.037C78.9118 117.298 78.7773 116.021 79.5166 115.147C80.2559 114.273 81.5328 114.139 82.4065 114.878C83.6162 115.886 84.6915 117.029 85.6324 118.306C86.3045 119.247 86.0356 120.524 85.0947 121.196C84.7587 121.465 84.3555 121.6 83.885 121.6V121.532ZM67.285 115.617C66.2769 115.617 65.4705 114.945 65.2688 113.937C65.0672 112.794 65.8065 111.719 66.949 111.517C68.3603 111.248 69.7045 111.114 71.1158 111.114H71.519C72.6615 111.114 73.6024 112.055 73.5352 113.198C73.5352 114.34 72.5271 115.214 71.4518 115.214H71.1158C70.0405 115.214 68.898 115.349 67.7555 115.55C67.6211 115.55 67.4866 115.55 67.3522 115.55L67.285 115.617ZM35.9668 114.475C35.4964 114.475 34.9587 114.273 34.5555 113.937C33.4802 112.996 32.4721 112.055 31.464 111.047C30.6575 110.24 30.6575 108.963 31.464 108.089C32.2704 107.283 33.5474 107.283 34.4211 108.089C35.3619 109.03 36.37 109.971 37.3781 110.845C38.2518 111.584 38.319 112.929 37.5126 113.803C37.1093 114.273 36.5717 114.475 35.9668 114.475ZM25.8858 104.056C25.281 104.056 24.6761 103.787 24.2729 103.317C23.3992 102.241 22.4583 101.166 21.6518 100.023C20.9798 99.1494 21.1142 97.8051 22.0551 97.1329C22.9287 96.4608 24.2729 96.5952 24.9449 97.5362C25.7514 98.6117 26.6251 99.6872 27.4988 100.695C28.2381 101.569 28.1036 102.846 27.23 103.586C26.8267 103.922 26.3563 104.056 25.8858 104.056ZM17.4178 92.2934C16.7458 92.2934 16.0737 91.9573 15.6704 91.2851C14.9312 90.0753 14.1919 88.8654 13.5198 87.6555C12.9822 86.6472 13.3182 85.3701 14.3263 84.8324C15.3344 84.2947 16.6113 84.6307 17.149 85.639C17.8211 86.8489 18.4931 87.9915 19.2324 89.1342C19.8372 90.0752 19.5012 91.3524 18.5603 91.9573C18.2243 92.159 17.8211 92.2934 17.485 92.2934H17.4178ZM10.7644 79.3879C9.9579 79.3879 9.21863 78.9174 8.88259 78.1108C8.34494 76.8337 7.80729 75.4893 7.26964 74.2122C6.8664 73.1368 7.40405 71.9269 8.47935 71.5236C9.55466 71.1203 10.7644 71.658 11.1676 72.7335C11.6381 74.0106 12.1757 75.2205 12.7134 76.4976C13.1838 77.5731 12.7134 78.7829 11.6381 79.1862C11.3692 79.3207 11.1004 79.3207 10.8316 79.3207L10.7644 79.3879ZM6.05992 65.743C5.11903 65.743 4.31255 65.1381 4.04373 64.197C3.70769 62.8527 3.37166 61.4412 3.03563 60.0968C2.7668 58.9542 3.50607 57.8787 4.58138 57.6098C5.72389 57.341 6.79919 58.0804 7.06802 59.1558C7.33684 60.5001 7.67288 61.7772 8.00891 63.1216C8.27773 64.197 7.67288 65.3397 6.53037 65.6758C6.32875 65.6758 6.19433 65.743 5.99271 65.743H6.05992ZM3.37166 51.4932C2.36356 51.4932 1.42267 50.6866 1.28826 49.6783C1.15385 48.2668 0.952228 46.8553 0.885021 45.4437C0.817815 44.301 1.62429 43.2928 2.7668 43.2256C3.90931 43.1584 4.91741 43.965 4.98462 45.1076C5.11903 46.452 5.25344 47.7963 5.38786 49.1406C5.52227 50.2833 4.71579 51.2915 3.57328 51.426C3.50607 51.426 3.43887 51.426 3.30446 51.426L3.37166 51.4932ZM2.63239 36.9745C1.48988 36.9745 0.616196 36.0335 0.616196 34.8908C0.616196 33.4792 0.683402 32.0677 0.817815 30.6562C0.885021 29.5135 1.89312 28.6397 3.03563 28.7069C4.17814 28.7741 5.05182 29.7824 4.98462 30.925C4.91741 32.2694 4.8502 33.6137 4.8502 34.958C4.8502 36.1007 3.90931 36.9745 2.7668 36.9745H2.63239ZM3.97652 22.5902C3.84211 22.5902 3.7749 22.5902 3.64049 22.5902C2.49798 22.3886 1.75871 21.3131 1.96033 20.2377C2.16194 18.8261 2.43077 17.4818 2.6996 16.0703C2.90122 14.9276 4.04373 14.2554 5.11903 14.4571C6.26154 14.6587 6.9336 15.8014 6.73198 16.8769C6.46316 18.2212 6.19433 19.4983 5.99271 20.8426C5.8583 21.8508 4.91741 22.5902 3.97652 22.5902ZM7.33684 8.47483C7.13522 8.47483 6.9336 8.47483 6.73198 8.40761C5.65668 8.07153 5.05182 6.92886 5.38786 5.78619C5.79109 4.44186 6.26154 3.09754 6.73198 1.75322C7.13522 0.677757 8.34494 0.140028 9.35304 0.543325C10.4283 0.946622 10.966 2.15651 10.5628 3.16475C10.0923 4.44186 9.68907 5.71897 9.28583 6.99608C9.017 7.86989 8.21053 8.40761 7.33684 8.40761V8.47483Z" fill="black"/>
</svg>
